G04 MADE WITH FRITZING*
G04 WWW.FRITZING.ORG*
G04 DOUBLE SIDED*
G04 HOLES PLATED*
G04 CONTOUR ON CENTER OF CONTOUR VECTOR*
%ASAXBY*%
%FSLAX23Y23*%
%MOIN*%
%OFA0B0*%
%SFA1.0B1.0*%
%ADD10C,0.075000*%
%ADD11C,0.078000*%
%ADD12R,0.075000X0.075000*%
%ADD13C,0.024000*%
%LNCOPPER0*%
G90*
G70*
G54D10*
X827Y1620D03*
X1601Y963D03*
X191Y983D03*
X1155Y1694D03*
X846Y198D03*
G54D11*
X1099Y1011D03*
X1099Y911D03*
X1099Y811D03*
X1099Y711D03*
G54D10*
X699Y1011D03*
X999Y1011D03*
X699Y911D03*
X999Y911D03*
X699Y811D03*
X999Y811D03*
X699Y711D03*
X999Y711D03*
G54D11*
X1199Y1511D03*
X1099Y1511D03*
X999Y1511D03*
X1199Y1511D03*
X1099Y1511D03*
X999Y1511D03*
X999Y1411D03*
X1099Y1411D03*
X1199Y1411D03*
X799Y1511D03*
X699Y1511D03*
X599Y1511D03*
X799Y1511D03*
X699Y1511D03*
X599Y1511D03*
X599Y1411D03*
X699Y1411D03*
X799Y1411D03*
X799Y411D03*
X699Y411D03*
X599Y411D03*
X799Y411D03*
X699Y411D03*
X599Y411D03*
X599Y311D03*
X699Y311D03*
X799Y311D03*
X1199Y411D03*
X1099Y411D03*
X999Y411D03*
X1199Y411D03*
X1099Y411D03*
X999Y411D03*
X999Y311D03*
X1099Y311D03*
X1199Y311D03*
X299Y1211D03*
X299Y1111D03*
X299Y1011D03*
X299Y1211D03*
X299Y1111D03*
X299Y1011D03*
X399Y1011D03*
X399Y1111D03*
X399Y1211D03*
X299Y811D03*
X299Y711D03*
X299Y611D03*
X299Y811D03*
X299Y711D03*
X299Y611D03*
X399Y611D03*
X399Y711D03*
X399Y811D03*
X1399Y811D03*
X1399Y711D03*
X1399Y611D03*
X1399Y811D03*
X1399Y711D03*
X1399Y611D03*
X1499Y611D03*
X1499Y711D03*
X1499Y811D03*
X1399Y1211D03*
X1399Y1111D03*
X1399Y1011D03*
X1399Y1211D03*
X1399Y1111D03*
X1399Y1011D03*
X1499Y1011D03*
X1499Y1111D03*
X1499Y1211D03*
G54D12*
X699Y1011D03*
G54D13*
X299Y981D02*
X299Y841D01*
D02*
X198Y1013D02*
X278Y1090D01*
D02*
X198Y810D02*
X198Y1013D01*
D02*
X278Y732D02*
X198Y810D01*
D02*
X101Y810D02*
X101Y1013D01*
D02*
X101Y1013D02*
X278Y1190D01*
D02*
X278Y632D02*
X101Y810D01*
D02*
X1701Y810D02*
X1701Y1013D01*
D02*
X1701Y1013D02*
X1521Y1190D01*
D02*
X1521Y632D02*
X1701Y810D01*
D02*
X1599Y810D02*
X1599Y1013D01*
D02*
X1599Y1013D02*
X1521Y1090D01*
D02*
X1521Y732D02*
X1599Y810D01*
D02*
X1499Y841D02*
X1499Y981D01*
D02*
X1000Y1710D02*
X797Y1710D01*
D02*
X797Y1710D02*
X621Y1532D01*
D02*
X1178Y1532D02*
X1000Y1710D01*
D02*
X1000Y1613D02*
X797Y1613D01*
D02*
X797Y1613D02*
X720Y1533D01*
D02*
X1078Y1533D02*
X1000Y1613D01*
D02*
X969Y1511D02*
X829Y1511D01*
D02*
X969Y311D02*
X829Y311D01*
D02*
X797Y211D02*
X720Y290D01*
D02*
X1000Y211D02*
X797Y211D01*
D02*
X1078Y290D02*
X1000Y211D01*
D02*
X1000Y110D02*
X797Y110D01*
D02*
X797Y110D02*
X620Y290D01*
D02*
X1178Y290D02*
X1000Y110D01*
D02*
X699Y1481D02*
X699Y1441D01*
D02*
X1099Y1481D02*
X1099Y1441D01*
D02*
X999Y1481D02*
X999Y1441D01*
D02*
X1199Y1481D02*
X1199Y1441D01*
D02*
X1469Y1211D02*
X1429Y1211D01*
D02*
X1469Y1011D02*
X1429Y1011D01*
D02*
X799Y1481D02*
X799Y1441D01*
D02*
X1469Y1111D02*
X1429Y1111D01*
D02*
X1469Y711D02*
X1429Y711D01*
D02*
X1469Y811D02*
X1429Y811D01*
D02*
X1469Y611D02*
X1429Y611D01*
D02*
X1199Y341D02*
X1199Y381D01*
D02*
X1099Y381D02*
X1099Y341D01*
D02*
X999Y341D02*
X999Y381D01*
D02*
X799Y381D02*
X799Y341D01*
D02*
X699Y341D02*
X699Y381D01*
D02*
X599Y381D02*
X599Y341D01*
D02*
X329Y611D02*
X369Y611D01*
D02*
X369Y1211D02*
X329Y1211D01*
D02*
X369Y711D02*
X329Y711D01*
D02*
X369Y811D02*
X329Y811D01*
D02*
X369Y1011D02*
X329Y1011D01*
D02*
X369Y1111D02*
X329Y1111D01*
D02*
X599Y1481D02*
X599Y1441D01*
D02*
X1069Y1011D02*
X1028Y1011D01*
D02*
X1069Y911D02*
X1028Y911D01*
D02*
X1069Y811D02*
X1028Y811D01*
G36*
X810Y1675D02*
X810Y1673D01*
X808Y1673D01*
X808Y1671D01*
X806Y1671D01*
X806Y1669D01*
X804Y1669D01*
X804Y1667D01*
X802Y1667D01*
X802Y1665D01*
X800Y1665D01*
X800Y1663D01*
X798Y1663D01*
X798Y1661D01*
X796Y1661D01*
X796Y1659D01*
X794Y1659D01*
X794Y1657D01*
X792Y1657D01*
X792Y1655D01*
X790Y1655D01*
X790Y1653D01*
X788Y1653D01*
X788Y1651D01*
X786Y1651D01*
X786Y1649D01*
X784Y1649D01*
X784Y1647D01*
X782Y1647D01*
X782Y1645D01*
X780Y1645D01*
X780Y1643D01*
X778Y1643D01*
X778Y1641D01*
X776Y1641D01*
X776Y1639D01*
X774Y1639D01*
X774Y1637D01*
X772Y1637D01*
X772Y1635D01*
X770Y1635D01*
X770Y1633D01*
X768Y1633D01*
X768Y1631D01*
X766Y1631D01*
X766Y1629D01*
X764Y1629D01*
X764Y1627D01*
X762Y1627D01*
X762Y1625D01*
X760Y1625D01*
X760Y1623D01*
X758Y1623D01*
X758Y1621D01*
X756Y1621D01*
X756Y1619D01*
X754Y1619D01*
X754Y1617D01*
X752Y1617D01*
X752Y1615D01*
X750Y1615D01*
X750Y1613D01*
X748Y1613D01*
X748Y1611D01*
X746Y1611D01*
X746Y1609D01*
X744Y1609D01*
X744Y1607D01*
X742Y1607D01*
X742Y1605D01*
X740Y1605D01*
X740Y1603D01*
X738Y1603D01*
X738Y1601D01*
X736Y1601D01*
X736Y1599D01*
X734Y1599D01*
X734Y1597D01*
X732Y1597D01*
X732Y1595D01*
X730Y1595D01*
X730Y1593D01*
X728Y1593D01*
X728Y1591D01*
X726Y1591D01*
X726Y1589D01*
X724Y1589D01*
X724Y1587D01*
X722Y1587D01*
X722Y1571D01*
X1014Y1571D01*
X1014Y1569D01*
X1020Y1569D01*
X1020Y1567D01*
X1026Y1567D01*
X1026Y1565D01*
X1030Y1565D01*
X1030Y1563D01*
X1032Y1563D01*
X1032Y1561D01*
X1036Y1561D01*
X1036Y1559D01*
X1038Y1559D01*
X1038Y1557D01*
X1060Y1557D01*
X1060Y1559D01*
X1064Y1559D01*
X1064Y1561D01*
X1066Y1561D01*
X1066Y1563D01*
X1070Y1563D01*
X1070Y1565D01*
X1074Y1565D01*
X1074Y1567D01*
X1076Y1567D01*
X1076Y1587D01*
X1074Y1587D01*
X1074Y1589D01*
X1072Y1589D01*
X1072Y1591D01*
X1070Y1591D01*
X1070Y1593D01*
X1068Y1593D01*
X1068Y1595D01*
X1066Y1595D01*
X1066Y1597D01*
X1064Y1597D01*
X1064Y1599D01*
X1062Y1599D01*
X1062Y1601D01*
X1060Y1601D01*
X1060Y1603D01*
X1058Y1603D01*
X1058Y1605D01*
X1056Y1605D01*
X1056Y1607D01*
X1054Y1607D01*
X1054Y1609D01*
X1052Y1609D01*
X1052Y1611D01*
X1050Y1611D01*
X1050Y1613D01*
X1048Y1613D01*
X1048Y1615D01*
X1046Y1615D01*
X1046Y1617D01*
X1044Y1617D01*
X1044Y1619D01*
X1042Y1619D01*
X1042Y1621D01*
X1040Y1621D01*
X1040Y1623D01*
X1038Y1623D01*
X1038Y1625D01*
X1036Y1625D01*
X1036Y1627D01*
X1034Y1627D01*
X1034Y1629D01*
X1032Y1629D01*
X1032Y1631D01*
X1030Y1631D01*
X1030Y1633D01*
X1028Y1633D01*
X1028Y1635D01*
X1026Y1635D01*
X1026Y1637D01*
X1024Y1637D01*
X1024Y1639D01*
X1022Y1639D01*
X1022Y1641D01*
X1020Y1641D01*
X1020Y1643D01*
X1018Y1643D01*
X1018Y1645D01*
X1016Y1645D01*
X1016Y1647D01*
X1014Y1647D01*
X1014Y1649D01*
X1012Y1649D01*
X1012Y1651D01*
X1010Y1651D01*
X1010Y1653D01*
X1008Y1653D01*
X1008Y1655D01*
X1006Y1655D01*
X1006Y1657D01*
X1004Y1657D01*
X1004Y1659D01*
X1002Y1659D01*
X1002Y1661D01*
X1000Y1661D01*
X1000Y1663D01*
X998Y1663D01*
X998Y1665D01*
X996Y1665D01*
X996Y1667D01*
X994Y1667D01*
X994Y1669D01*
X992Y1669D01*
X992Y1671D01*
X990Y1671D01*
X990Y1673D01*
X988Y1673D01*
X988Y1675D01*
X810Y1675D01*
G37*
D02*
G36*
X722Y1571D02*
X722Y1567D01*
X726Y1567D01*
X726Y1565D01*
X730Y1565D01*
X730Y1563D01*
X732Y1563D01*
X732Y1561D01*
X736Y1561D01*
X736Y1559D01*
X738Y1559D01*
X738Y1557D01*
X760Y1557D01*
X760Y1559D01*
X764Y1559D01*
X764Y1561D01*
X766Y1561D01*
X766Y1563D01*
X770Y1563D01*
X770Y1565D01*
X774Y1565D01*
X774Y1567D01*
X778Y1567D01*
X778Y1569D01*
X784Y1569D01*
X784Y1571D01*
X722Y1571D01*
G37*
D02*
G36*
X814Y1571D02*
X814Y1569D01*
X820Y1569D01*
X820Y1567D01*
X826Y1567D01*
X826Y1565D01*
X830Y1565D01*
X830Y1563D01*
X832Y1563D01*
X832Y1561D01*
X836Y1561D01*
X836Y1559D01*
X838Y1559D01*
X838Y1557D01*
X840Y1557D01*
X840Y1555D01*
X842Y1555D01*
X842Y1553D01*
X844Y1553D01*
X844Y1551D01*
X846Y1551D01*
X846Y1549D01*
X848Y1549D01*
X848Y1547D01*
X850Y1547D01*
X850Y1545D01*
X950Y1545D01*
X950Y1547D01*
X952Y1547D01*
X952Y1551D01*
X954Y1551D01*
X954Y1553D01*
X956Y1553D01*
X956Y1555D01*
X958Y1555D01*
X958Y1557D01*
X960Y1557D01*
X960Y1559D01*
X964Y1559D01*
X964Y1561D01*
X966Y1561D01*
X966Y1563D01*
X970Y1563D01*
X970Y1565D01*
X974Y1565D01*
X974Y1567D01*
X978Y1567D01*
X978Y1569D01*
X984Y1569D01*
X984Y1571D01*
X814Y1571D01*
G37*
D02*
G36*
X1556Y1089D02*
X1556Y1087D01*
X1554Y1087D01*
X1554Y1083D01*
X1552Y1083D01*
X1552Y1079D01*
X1550Y1079D01*
X1550Y1075D01*
X1548Y1075D01*
X1548Y1073D01*
X1546Y1073D01*
X1546Y1071D01*
X1544Y1071D01*
X1544Y1051D01*
X1546Y1051D01*
X1546Y1049D01*
X1548Y1049D01*
X1548Y1047D01*
X1550Y1047D01*
X1550Y1043D01*
X1552Y1043D01*
X1552Y1039D01*
X1554Y1039D01*
X1554Y1035D01*
X1556Y1035D01*
X1556Y1031D01*
X1558Y1031D01*
X1558Y1023D01*
X1560Y1023D01*
X1560Y999D01*
X1558Y999D01*
X1558Y991D01*
X1556Y991D01*
X1556Y987D01*
X1554Y987D01*
X1554Y983D01*
X1552Y983D01*
X1552Y979D01*
X1550Y979D01*
X1550Y975D01*
X1548Y975D01*
X1548Y973D01*
X1546Y973D01*
X1546Y971D01*
X1544Y971D01*
X1544Y969D01*
X1542Y969D01*
X1542Y967D01*
X1540Y967D01*
X1540Y965D01*
X1538Y965D01*
X1538Y963D01*
X1536Y963D01*
X1536Y961D01*
X1534Y961D01*
X1534Y861D01*
X1536Y861D01*
X1536Y859D01*
X1538Y859D01*
X1538Y857D01*
X1540Y857D01*
X1540Y855D01*
X1542Y855D01*
X1542Y853D01*
X1544Y853D01*
X1544Y851D01*
X1546Y851D01*
X1546Y849D01*
X1548Y849D01*
X1548Y847D01*
X1550Y847D01*
X1550Y843D01*
X1552Y843D01*
X1552Y839D01*
X1554Y839D01*
X1554Y835D01*
X1556Y835D01*
X1556Y831D01*
X1558Y831D01*
X1558Y823D01*
X1560Y823D01*
X1560Y799D01*
X1558Y799D01*
X1558Y791D01*
X1556Y791D01*
X1556Y787D01*
X1554Y787D01*
X1554Y783D01*
X1552Y783D01*
X1552Y779D01*
X1550Y779D01*
X1550Y775D01*
X1548Y775D01*
X1548Y773D01*
X1546Y773D01*
X1546Y771D01*
X1544Y771D01*
X1544Y751D01*
X1546Y751D01*
X1546Y749D01*
X1548Y749D01*
X1548Y747D01*
X1550Y747D01*
X1550Y743D01*
X1552Y743D01*
X1552Y739D01*
X1554Y739D01*
X1554Y735D01*
X1556Y735D01*
X1556Y733D01*
X1576Y733D01*
X1576Y735D01*
X1578Y735D01*
X1578Y737D01*
X1580Y737D01*
X1580Y739D01*
X1582Y739D01*
X1582Y741D01*
X1584Y741D01*
X1584Y743D01*
X1586Y743D01*
X1586Y745D01*
X1588Y745D01*
X1588Y747D01*
X1590Y747D01*
X1590Y749D01*
X1592Y749D01*
X1592Y751D01*
X1594Y751D01*
X1594Y753D01*
X1596Y753D01*
X1596Y755D01*
X1598Y755D01*
X1598Y757D01*
X1600Y757D01*
X1600Y759D01*
X1602Y759D01*
X1602Y761D01*
X1604Y761D01*
X1604Y763D01*
X1606Y763D01*
X1606Y765D01*
X1608Y765D01*
X1608Y767D01*
X1610Y767D01*
X1610Y769D01*
X1612Y769D01*
X1612Y771D01*
X1614Y771D01*
X1614Y773D01*
X1616Y773D01*
X1616Y775D01*
X1618Y775D01*
X1618Y777D01*
X1620Y777D01*
X1620Y779D01*
X1622Y779D01*
X1622Y781D01*
X1624Y781D01*
X1624Y783D01*
X1626Y783D01*
X1626Y785D01*
X1628Y785D01*
X1628Y787D01*
X1630Y787D01*
X1630Y789D01*
X1632Y789D01*
X1632Y791D01*
X1634Y791D01*
X1634Y793D01*
X1636Y793D01*
X1636Y795D01*
X1638Y795D01*
X1638Y797D01*
X1640Y797D01*
X1640Y799D01*
X1642Y799D01*
X1642Y801D01*
X1644Y801D01*
X1644Y803D01*
X1646Y803D01*
X1646Y805D01*
X1648Y805D01*
X1648Y807D01*
X1650Y807D01*
X1650Y809D01*
X1652Y809D01*
X1652Y811D01*
X1654Y811D01*
X1654Y813D01*
X1656Y813D01*
X1656Y815D01*
X1658Y815D01*
X1658Y817D01*
X1660Y817D01*
X1660Y819D01*
X1662Y819D01*
X1662Y821D01*
X1664Y821D01*
X1664Y823D01*
X1666Y823D01*
X1666Y1001D01*
X1664Y1001D01*
X1664Y1003D01*
X1662Y1003D01*
X1662Y1005D01*
X1660Y1005D01*
X1660Y1007D01*
X1658Y1007D01*
X1658Y1009D01*
X1656Y1009D01*
X1656Y1011D01*
X1654Y1011D01*
X1654Y1013D01*
X1652Y1013D01*
X1652Y1015D01*
X1650Y1015D01*
X1650Y1017D01*
X1648Y1017D01*
X1648Y1019D01*
X1646Y1019D01*
X1646Y1021D01*
X1642Y1021D01*
X1642Y1023D01*
X1640Y1023D01*
X1640Y1025D01*
X1638Y1025D01*
X1638Y1027D01*
X1636Y1027D01*
X1636Y1029D01*
X1634Y1029D01*
X1634Y1031D01*
X1632Y1031D01*
X1632Y1033D01*
X1630Y1033D01*
X1630Y1035D01*
X1628Y1035D01*
X1628Y1037D01*
X1626Y1037D01*
X1626Y1039D01*
X1624Y1039D01*
X1624Y1041D01*
X1622Y1041D01*
X1622Y1043D01*
X1620Y1043D01*
X1620Y1045D01*
X1618Y1045D01*
X1618Y1047D01*
X1616Y1047D01*
X1616Y1049D01*
X1614Y1049D01*
X1614Y1051D01*
X1612Y1051D01*
X1612Y1053D01*
X1610Y1053D01*
X1610Y1055D01*
X1608Y1055D01*
X1608Y1057D01*
X1606Y1057D01*
X1606Y1059D01*
X1604Y1059D01*
X1604Y1061D01*
X1602Y1061D01*
X1602Y1063D01*
X1600Y1063D01*
X1600Y1065D01*
X1598Y1065D01*
X1598Y1067D01*
X1596Y1067D01*
X1596Y1069D01*
X1594Y1069D01*
X1594Y1071D01*
X1592Y1071D01*
X1592Y1073D01*
X1590Y1073D01*
X1590Y1075D01*
X1588Y1075D01*
X1588Y1077D01*
X1586Y1077D01*
X1586Y1079D01*
X1584Y1079D01*
X1584Y1081D01*
X1582Y1081D01*
X1582Y1083D01*
X1580Y1083D01*
X1580Y1085D01*
X1578Y1085D01*
X1578Y1087D01*
X1576Y1087D01*
X1576Y1089D01*
X1556Y1089D01*
G37*
D02*
G36*
X222Y1087D02*
X222Y1085D01*
X220Y1085D01*
X220Y1083D01*
X218Y1083D01*
X218Y1081D01*
X216Y1081D01*
X216Y1079D01*
X214Y1079D01*
X214Y1077D01*
X212Y1077D01*
X212Y1075D01*
X210Y1075D01*
X210Y1073D01*
X208Y1073D01*
X208Y1071D01*
X206Y1071D01*
X206Y1069D01*
X204Y1069D01*
X204Y1067D01*
X202Y1067D01*
X202Y1065D01*
X200Y1065D01*
X200Y1063D01*
X198Y1063D01*
X198Y1061D01*
X196Y1061D01*
X196Y1059D01*
X194Y1059D01*
X194Y1057D01*
X192Y1057D01*
X192Y1055D01*
X190Y1055D01*
X190Y1053D01*
X188Y1053D01*
X188Y1051D01*
X186Y1051D01*
X186Y1049D01*
X184Y1049D01*
X184Y1047D01*
X182Y1047D01*
X182Y1045D01*
X180Y1045D01*
X180Y1043D01*
X178Y1043D01*
X178Y1041D01*
X176Y1041D01*
X176Y1039D01*
X174Y1039D01*
X174Y1037D01*
X172Y1037D01*
X172Y1035D01*
X170Y1035D01*
X170Y1033D01*
X168Y1033D01*
X168Y1031D01*
X166Y1031D01*
X166Y1029D01*
X164Y1029D01*
X164Y1027D01*
X162Y1027D01*
X162Y1025D01*
X160Y1025D01*
X160Y1023D01*
X158Y1023D01*
X158Y1021D01*
X156Y1021D01*
X156Y1019D01*
X154Y1019D01*
X154Y1017D01*
X152Y1017D01*
X152Y1015D01*
X150Y1015D01*
X150Y1013D01*
X148Y1013D01*
X148Y1011D01*
X146Y1011D01*
X146Y1009D01*
X144Y1009D01*
X144Y1007D01*
X142Y1007D01*
X142Y1005D01*
X140Y1005D01*
X140Y1003D01*
X138Y1003D01*
X138Y1001D01*
X136Y1001D01*
X136Y999D01*
X134Y999D01*
X134Y825D01*
X136Y825D01*
X136Y823D01*
X138Y823D01*
X138Y821D01*
X140Y821D01*
X140Y819D01*
X142Y819D01*
X142Y817D01*
X144Y817D01*
X144Y815D01*
X146Y815D01*
X146Y813D01*
X148Y813D01*
X148Y811D01*
X150Y811D01*
X150Y809D01*
X152Y809D01*
X152Y805D01*
X154Y805D01*
X154Y803D01*
X156Y803D01*
X156Y801D01*
X158Y801D01*
X158Y799D01*
X160Y799D01*
X160Y797D01*
X162Y797D01*
X162Y795D01*
X164Y795D01*
X164Y793D01*
X166Y793D01*
X166Y791D01*
X168Y791D01*
X168Y789D01*
X170Y789D01*
X170Y787D01*
X172Y787D01*
X172Y785D01*
X174Y785D01*
X174Y783D01*
X176Y783D01*
X176Y781D01*
X178Y781D01*
X178Y779D01*
X180Y779D01*
X180Y777D01*
X182Y777D01*
X182Y775D01*
X184Y775D01*
X184Y773D01*
X186Y773D01*
X186Y771D01*
X188Y771D01*
X188Y769D01*
X190Y769D01*
X190Y767D01*
X192Y767D01*
X192Y765D01*
X194Y765D01*
X194Y763D01*
X196Y763D01*
X196Y761D01*
X198Y761D01*
X198Y759D01*
X200Y759D01*
X200Y757D01*
X202Y757D01*
X202Y755D01*
X204Y755D01*
X204Y753D01*
X206Y753D01*
X206Y751D01*
X208Y751D01*
X208Y749D01*
X210Y749D01*
X210Y747D01*
X212Y747D01*
X212Y745D01*
X214Y745D01*
X214Y743D01*
X216Y743D01*
X216Y741D01*
X218Y741D01*
X218Y739D01*
X220Y739D01*
X220Y737D01*
X222Y737D01*
X222Y735D01*
X244Y735D01*
X244Y739D01*
X246Y739D01*
X246Y743D01*
X248Y743D01*
X248Y745D01*
X250Y745D01*
X250Y747D01*
X252Y747D01*
X252Y751D01*
X254Y751D01*
X254Y771D01*
X252Y771D01*
X252Y775D01*
X250Y775D01*
X250Y777D01*
X248Y777D01*
X248Y779D01*
X246Y779D01*
X246Y783D01*
X244Y783D01*
X244Y787D01*
X242Y787D01*
X242Y793D01*
X240Y793D01*
X240Y803D01*
X238Y803D01*
X238Y819D01*
X240Y819D01*
X240Y829D01*
X242Y829D01*
X242Y835D01*
X244Y835D01*
X244Y839D01*
X246Y839D01*
X246Y843D01*
X248Y843D01*
X248Y845D01*
X250Y845D01*
X250Y847D01*
X252Y847D01*
X252Y851D01*
X254Y851D01*
X254Y853D01*
X256Y853D01*
X256Y855D01*
X258Y855D01*
X258Y857D01*
X260Y857D01*
X260Y859D01*
X264Y859D01*
X264Y861D01*
X266Y861D01*
X266Y961D01*
X264Y961D01*
X264Y963D01*
X260Y963D01*
X260Y965D01*
X258Y965D01*
X258Y967D01*
X256Y967D01*
X256Y969D01*
X254Y969D01*
X254Y971D01*
X252Y971D01*
X252Y975D01*
X250Y975D01*
X250Y977D01*
X248Y977D01*
X248Y979D01*
X246Y979D01*
X246Y983D01*
X244Y983D01*
X244Y987D01*
X242Y987D01*
X242Y993D01*
X240Y993D01*
X240Y1003D01*
X238Y1003D01*
X238Y1019D01*
X240Y1019D01*
X240Y1029D01*
X242Y1029D01*
X242Y1035D01*
X244Y1035D01*
X244Y1039D01*
X246Y1039D01*
X246Y1043D01*
X248Y1043D01*
X248Y1045D01*
X250Y1045D01*
X250Y1047D01*
X252Y1047D01*
X252Y1051D01*
X254Y1051D01*
X254Y1071D01*
X252Y1071D01*
X252Y1075D01*
X250Y1075D01*
X250Y1077D01*
X248Y1077D01*
X248Y1079D01*
X246Y1079D01*
X246Y1083D01*
X244Y1083D01*
X244Y1087D01*
X222Y1087D01*
G37*
D02*
G36*
X40Y1771D02*
X40Y1743D01*
X1010Y1743D01*
X1010Y1741D01*
X1016Y1741D01*
X1016Y1739D01*
X1018Y1739D01*
X1018Y1737D01*
X1022Y1737D01*
X1022Y1735D01*
X1024Y1735D01*
X1024Y1733D01*
X1026Y1733D01*
X1026Y1731D01*
X1028Y1731D01*
X1028Y1729D01*
X1030Y1729D01*
X1030Y1727D01*
X1032Y1727D01*
X1032Y1725D01*
X1034Y1725D01*
X1034Y1723D01*
X1036Y1723D01*
X1036Y1721D01*
X1038Y1721D01*
X1038Y1719D01*
X1040Y1719D01*
X1040Y1717D01*
X1042Y1717D01*
X1042Y1715D01*
X1044Y1715D01*
X1044Y1713D01*
X1046Y1713D01*
X1046Y1711D01*
X1048Y1711D01*
X1048Y1709D01*
X1050Y1709D01*
X1050Y1707D01*
X1052Y1707D01*
X1052Y1705D01*
X1054Y1705D01*
X1054Y1703D01*
X1056Y1703D01*
X1056Y1701D01*
X1058Y1701D01*
X1058Y1699D01*
X1060Y1699D01*
X1060Y1697D01*
X1062Y1697D01*
X1062Y1695D01*
X1064Y1695D01*
X1064Y1693D01*
X1066Y1693D01*
X1066Y1691D01*
X1068Y1691D01*
X1068Y1689D01*
X1070Y1689D01*
X1070Y1687D01*
X1072Y1687D01*
X1072Y1685D01*
X1074Y1685D01*
X1074Y1683D01*
X1076Y1683D01*
X1076Y1681D01*
X1078Y1681D01*
X1078Y1679D01*
X1080Y1679D01*
X1080Y1677D01*
X1082Y1677D01*
X1082Y1675D01*
X1084Y1675D01*
X1084Y1673D01*
X1086Y1673D01*
X1086Y1671D01*
X1088Y1671D01*
X1088Y1669D01*
X1090Y1669D01*
X1090Y1667D01*
X1092Y1667D01*
X1092Y1665D01*
X1094Y1665D01*
X1094Y1663D01*
X1096Y1663D01*
X1096Y1661D01*
X1098Y1661D01*
X1098Y1659D01*
X1100Y1659D01*
X1100Y1657D01*
X1102Y1657D01*
X1102Y1655D01*
X1104Y1655D01*
X1104Y1653D01*
X1106Y1653D01*
X1106Y1651D01*
X1108Y1651D01*
X1108Y1649D01*
X1110Y1649D01*
X1110Y1647D01*
X1112Y1647D01*
X1112Y1645D01*
X1114Y1645D01*
X1114Y1643D01*
X1116Y1643D01*
X1116Y1641D01*
X1118Y1641D01*
X1118Y1639D01*
X1120Y1639D01*
X1120Y1637D01*
X1122Y1637D01*
X1122Y1635D01*
X1124Y1635D01*
X1124Y1633D01*
X1126Y1633D01*
X1126Y1631D01*
X1128Y1631D01*
X1128Y1629D01*
X1130Y1629D01*
X1130Y1627D01*
X1132Y1627D01*
X1132Y1625D01*
X1134Y1625D01*
X1134Y1623D01*
X1136Y1623D01*
X1136Y1621D01*
X1138Y1621D01*
X1138Y1619D01*
X1140Y1619D01*
X1140Y1617D01*
X1142Y1617D01*
X1142Y1615D01*
X1144Y1615D01*
X1144Y1613D01*
X1146Y1613D01*
X1146Y1611D01*
X1148Y1611D01*
X1148Y1609D01*
X1150Y1609D01*
X1150Y1607D01*
X1152Y1607D01*
X1152Y1605D01*
X1154Y1605D01*
X1154Y1603D01*
X1156Y1603D01*
X1156Y1601D01*
X1158Y1601D01*
X1158Y1599D01*
X1160Y1599D01*
X1160Y1597D01*
X1162Y1597D01*
X1162Y1595D01*
X1164Y1595D01*
X1164Y1593D01*
X1166Y1593D01*
X1166Y1591D01*
X1168Y1591D01*
X1168Y1589D01*
X1170Y1589D01*
X1170Y1587D01*
X1172Y1587D01*
X1172Y1585D01*
X1174Y1585D01*
X1174Y1583D01*
X1176Y1583D01*
X1176Y1581D01*
X1178Y1581D01*
X1178Y1579D01*
X1180Y1579D01*
X1180Y1577D01*
X1182Y1577D01*
X1182Y1575D01*
X1184Y1575D01*
X1184Y1573D01*
X1186Y1573D01*
X1186Y1571D01*
X1214Y1571D01*
X1214Y1569D01*
X1220Y1569D01*
X1220Y1567D01*
X1226Y1567D01*
X1226Y1565D01*
X1230Y1565D01*
X1230Y1563D01*
X1232Y1563D01*
X1232Y1561D01*
X1236Y1561D01*
X1236Y1559D01*
X1238Y1559D01*
X1238Y1557D01*
X1240Y1557D01*
X1240Y1555D01*
X1242Y1555D01*
X1242Y1553D01*
X1244Y1553D01*
X1244Y1551D01*
X1246Y1551D01*
X1246Y1549D01*
X1248Y1549D01*
X1248Y1547D01*
X1250Y1547D01*
X1250Y1543D01*
X1252Y1543D01*
X1252Y1539D01*
X1254Y1539D01*
X1254Y1535D01*
X1256Y1535D01*
X1256Y1531D01*
X1258Y1531D01*
X1258Y1523D01*
X1260Y1523D01*
X1260Y1499D01*
X1258Y1499D01*
X1258Y1491D01*
X1256Y1491D01*
X1256Y1487D01*
X1254Y1487D01*
X1254Y1483D01*
X1252Y1483D01*
X1252Y1479D01*
X1250Y1479D01*
X1250Y1475D01*
X1248Y1475D01*
X1248Y1473D01*
X1246Y1473D01*
X1246Y1471D01*
X1244Y1471D01*
X1244Y1451D01*
X1246Y1451D01*
X1246Y1449D01*
X1248Y1449D01*
X1248Y1447D01*
X1250Y1447D01*
X1250Y1443D01*
X1252Y1443D01*
X1252Y1439D01*
X1254Y1439D01*
X1254Y1435D01*
X1256Y1435D01*
X1256Y1431D01*
X1258Y1431D01*
X1258Y1423D01*
X1260Y1423D01*
X1260Y1399D01*
X1258Y1399D01*
X1258Y1391D01*
X1256Y1391D01*
X1256Y1387D01*
X1254Y1387D01*
X1254Y1383D01*
X1252Y1383D01*
X1252Y1379D01*
X1250Y1379D01*
X1250Y1375D01*
X1248Y1375D01*
X1248Y1373D01*
X1246Y1373D01*
X1246Y1371D01*
X1244Y1371D01*
X1244Y1369D01*
X1242Y1369D01*
X1242Y1367D01*
X1240Y1367D01*
X1240Y1365D01*
X1238Y1365D01*
X1238Y1363D01*
X1236Y1363D01*
X1236Y1361D01*
X1232Y1361D01*
X1232Y1359D01*
X1230Y1359D01*
X1230Y1357D01*
X1226Y1357D01*
X1226Y1355D01*
X1220Y1355D01*
X1220Y1353D01*
X1214Y1353D01*
X1214Y1351D01*
X1770Y1351D01*
X1770Y1771D01*
X40Y1771D01*
G37*
D02*
G36*
X40Y1743D02*
X40Y1677D01*
X204Y1677D01*
X204Y1675D01*
X216Y1675D01*
X216Y1673D01*
X222Y1673D01*
X222Y1671D01*
X228Y1671D01*
X228Y1669D01*
X232Y1669D01*
X232Y1667D01*
X234Y1667D01*
X234Y1665D01*
X238Y1665D01*
X238Y1663D01*
X240Y1663D01*
X240Y1661D01*
X242Y1661D01*
X242Y1659D01*
X244Y1659D01*
X244Y1657D01*
X246Y1657D01*
X246Y1655D01*
X248Y1655D01*
X248Y1653D01*
X250Y1653D01*
X250Y1651D01*
X252Y1651D01*
X252Y1647D01*
X254Y1647D01*
X254Y1645D01*
X256Y1645D01*
X256Y1641D01*
X258Y1641D01*
X258Y1637D01*
X260Y1637D01*
X260Y1633D01*
X262Y1633D01*
X262Y1625D01*
X264Y1625D01*
X264Y1597D01*
X262Y1597D01*
X262Y1589D01*
X260Y1589D01*
X260Y1585D01*
X258Y1585D01*
X258Y1581D01*
X256Y1581D01*
X256Y1577D01*
X254Y1577D01*
X254Y1575D01*
X252Y1575D01*
X252Y1571D01*
X250Y1571D01*
X250Y1569D01*
X248Y1569D01*
X248Y1567D01*
X246Y1567D01*
X246Y1565D01*
X244Y1565D01*
X244Y1563D01*
X242Y1563D01*
X242Y1561D01*
X240Y1561D01*
X240Y1559D01*
X238Y1559D01*
X238Y1557D01*
X234Y1557D01*
X234Y1555D01*
X232Y1555D01*
X232Y1553D01*
X228Y1553D01*
X228Y1551D01*
X222Y1551D01*
X222Y1549D01*
X216Y1549D01*
X216Y1547D01*
X204Y1547D01*
X204Y1545D01*
X550Y1545D01*
X550Y1547D01*
X552Y1547D01*
X552Y1551D01*
X554Y1551D01*
X554Y1553D01*
X556Y1553D01*
X556Y1555D01*
X558Y1555D01*
X558Y1557D01*
X560Y1557D01*
X560Y1559D01*
X564Y1559D01*
X564Y1561D01*
X566Y1561D01*
X566Y1563D01*
X570Y1563D01*
X570Y1565D01*
X574Y1565D01*
X574Y1567D01*
X578Y1567D01*
X578Y1569D01*
X584Y1569D01*
X584Y1571D01*
X612Y1571D01*
X612Y1573D01*
X614Y1573D01*
X614Y1575D01*
X616Y1575D01*
X616Y1577D01*
X618Y1577D01*
X618Y1579D01*
X620Y1579D01*
X620Y1581D01*
X622Y1581D01*
X622Y1583D01*
X624Y1583D01*
X624Y1585D01*
X626Y1585D01*
X626Y1587D01*
X628Y1587D01*
X628Y1589D01*
X630Y1589D01*
X630Y1591D01*
X632Y1591D01*
X632Y1593D01*
X634Y1593D01*
X634Y1595D01*
X636Y1595D01*
X636Y1597D01*
X638Y1597D01*
X638Y1599D01*
X640Y1599D01*
X640Y1601D01*
X642Y1601D01*
X642Y1603D01*
X644Y1603D01*
X644Y1605D01*
X646Y1605D01*
X646Y1607D01*
X648Y1607D01*
X648Y1609D01*
X650Y1609D01*
X650Y1611D01*
X652Y1611D01*
X652Y1613D01*
X654Y1613D01*
X654Y1615D01*
X656Y1615D01*
X656Y1617D01*
X658Y1617D01*
X658Y1619D01*
X660Y1619D01*
X660Y1621D01*
X662Y1621D01*
X662Y1623D01*
X664Y1623D01*
X664Y1625D01*
X666Y1625D01*
X666Y1627D01*
X668Y1627D01*
X668Y1629D01*
X670Y1629D01*
X670Y1631D01*
X672Y1631D01*
X672Y1633D01*
X674Y1633D01*
X674Y1635D01*
X676Y1635D01*
X676Y1637D01*
X678Y1637D01*
X678Y1639D01*
X680Y1639D01*
X680Y1641D01*
X682Y1641D01*
X682Y1643D01*
X684Y1643D01*
X684Y1645D01*
X686Y1645D01*
X686Y1647D01*
X688Y1647D01*
X688Y1649D01*
X690Y1649D01*
X690Y1651D01*
X692Y1651D01*
X692Y1653D01*
X694Y1653D01*
X694Y1655D01*
X696Y1655D01*
X696Y1657D01*
X698Y1657D01*
X698Y1659D01*
X700Y1659D01*
X700Y1661D01*
X702Y1661D01*
X702Y1663D01*
X704Y1663D01*
X704Y1665D01*
X706Y1665D01*
X706Y1667D01*
X708Y1667D01*
X708Y1669D01*
X710Y1669D01*
X710Y1671D01*
X712Y1671D01*
X712Y1673D01*
X714Y1673D01*
X714Y1675D01*
X716Y1675D01*
X716Y1677D01*
X718Y1677D01*
X718Y1679D01*
X720Y1679D01*
X720Y1681D01*
X722Y1681D01*
X722Y1683D01*
X724Y1683D01*
X724Y1685D01*
X726Y1685D01*
X726Y1687D01*
X728Y1687D01*
X728Y1689D01*
X730Y1689D01*
X730Y1691D01*
X732Y1691D01*
X732Y1693D01*
X734Y1693D01*
X734Y1695D01*
X736Y1695D01*
X736Y1697D01*
X738Y1697D01*
X738Y1699D01*
X740Y1699D01*
X740Y1701D01*
X742Y1701D01*
X742Y1703D01*
X744Y1703D01*
X744Y1705D01*
X746Y1705D01*
X746Y1707D01*
X748Y1707D01*
X748Y1709D01*
X750Y1709D01*
X750Y1711D01*
X752Y1711D01*
X752Y1713D01*
X754Y1713D01*
X754Y1715D01*
X756Y1715D01*
X756Y1717D01*
X758Y1717D01*
X758Y1719D01*
X760Y1719D01*
X760Y1721D01*
X762Y1721D01*
X762Y1723D01*
X764Y1723D01*
X764Y1725D01*
X766Y1725D01*
X766Y1727D01*
X768Y1727D01*
X768Y1729D01*
X770Y1729D01*
X770Y1731D01*
X772Y1731D01*
X772Y1733D01*
X774Y1733D01*
X774Y1735D01*
X776Y1735D01*
X776Y1737D01*
X778Y1737D01*
X778Y1739D01*
X782Y1739D01*
X782Y1741D01*
X788Y1741D01*
X788Y1743D01*
X40Y1743D01*
G37*
D02*
G36*
X40Y1677D02*
X40Y1545D01*
X194Y1545D01*
X194Y1547D01*
X182Y1547D01*
X182Y1549D01*
X176Y1549D01*
X176Y1551D01*
X172Y1551D01*
X172Y1553D01*
X168Y1553D01*
X168Y1555D01*
X164Y1555D01*
X164Y1557D01*
X162Y1557D01*
X162Y1559D01*
X158Y1559D01*
X158Y1561D01*
X156Y1561D01*
X156Y1563D01*
X154Y1563D01*
X154Y1565D01*
X152Y1565D01*
X152Y1567D01*
X150Y1567D01*
X150Y1569D01*
X148Y1569D01*
X148Y1573D01*
X146Y1573D01*
X146Y1575D01*
X144Y1575D01*
X144Y1579D01*
X142Y1579D01*
X142Y1581D01*
X140Y1581D01*
X140Y1585D01*
X138Y1585D01*
X138Y1591D01*
X136Y1591D01*
X136Y1601D01*
X134Y1601D01*
X134Y1621D01*
X136Y1621D01*
X136Y1631D01*
X138Y1631D01*
X138Y1637D01*
X140Y1637D01*
X140Y1641D01*
X142Y1641D01*
X142Y1643D01*
X144Y1643D01*
X144Y1647D01*
X146Y1647D01*
X146Y1649D01*
X148Y1649D01*
X148Y1653D01*
X150Y1653D01*
X150Y1655D01*
X152Y1655D01*
X152Y1657D01*
X154Y1657D01*
X154Y1659D01*
X156Y1659D01*
X156Y1661D01*
X158Y1661D01*
X158Y1663D01*
X162Y1663D01*
X162Y1665D01*
X164Y1665D01*
X164Y1667D01*
X168Y1667D01*
X168Y1669D01*
X172Y1669D01*
X172Y1671D01*
X176Y1671D01*
X176Y1673D01*
X182Y1673D01*
X182Y1675D01*
X194Y1675D01*
X194Y1677D01*
X40Y1677D01*
G37*
D02*
G36*
X40Y1545D02*
X40Y1543D01*
X548Y1543D01*
X548Y1545D01*
X40Y1545D01*
G37*
D02*
G36*
X40Y1545D02*
X40Y1543D01*
X548Y1543D01*
X548Y1545D01*
X40Y1545D01*
G37*
D02*
G36*
X40Y1543D02*
X40Y1351D01*
X584Y1351D01*
X584Y1353D01*
X578Y1353D01*
X578Y1355D01*
X574Y1355D01*
X574Y1357D01*
X570Y1357D01*
X570Y1359D01*
X566Y1359D01*
X566Y1361D01*
X564Y1361D01*
X564Y1363D01*
X560Y1363D01*
X560Y1365D01*
X558Y1365D01*
X558Y1367D01*
X556Y1367D01*
X556Y1369D01*
X554Y1369D01*
X554Y1371D01*
X552Y1371D01*
X552Y1375D01*
X550Y1375D01*
X550Y1377D01*
X548Y1377D01*
X548Y1379D01*
X546Y1379D01*
X546Y1383D01*
X544Y1383D01*
X544Y1387D01*
X542Y1387D01*
X542Y1393D01*
X540Y1393D01*
X540Y1403D01*
X538Y1403D01*
X538Y1419D01*
X540Y1419D01*
X540Y1429D01*
X542Y1429D01*
X542Y1435D01*
X544Y1435D01*
X544Y1439D01*
X546Y1439D01*
X546Y1443D01*
X548Y1443D01*
X548Y1445D01*
X550Y1445D01*
X550Y1447D01*
X552Y1447D01*
X552Y1451D01*
X554Y1451D01*
X554Y1471D01*
X552Y1471D01*
X552Y1475D01*
X550Y1475D01*
X550Y1477D01*
X548Y1477D01*
X548Y1479D01*
X546Y1479D01*
X546Y1483D01*
X544Y1483D01*
X544Y1487D01*
X542Y1487D01*
X542Y1493D01*
X540Y1493D01*
X540Y1503D01*
X538Y1503D01*
X538Y1519D01*
X540Y1519D01*
X540Y1529D01*
X542Y1529D01*
X542Y1535D01*
X544Y1535D01*
X544Y1539D01*
X546Y1539D01*
X546Y1543D01*
X40Y1543D01*
G37*
D02*
G36*
X850Y1477D02*
X850Y1475D01*
X848Y1475D01*
X848Y1473D01*
X846Y1473D01*
X846Y1471D01*
X844Y1471D01*
X844Y1451D01*
X846Y1451D01*
X846Y1449D01*
X848Y1449D01*
X848Y1447D01*
X850Y1447D01*
X850Y1443D01*
X852Y1443D01*
X852Y1439D01*
X854Y1439D01*
X854Y1435D01*
X856Y1435D01*
X856Y1431D01*
X858Y1431D01*
X858Y1423D01*
X860Y1423D01*
X860Y1399D01*
X858Y1399D01*
X858Y1391D01*
X856Y1391D01*
X856Y1387D01*
X854Y1387D01*
X854Y1383D01*
X852Y1383D01*
X852Y1379D01*
X850Y1379D01*
X850Y1375D01*
X848Y1375D01*
X848Y1373D01*
X846Y1373D01*
X846Y1371D01*
X844Y1371D01*
X844Y1369D01*
X842Y1369D01*
X842Y1367D01*
X840Y1367D01*
X840Y1365D01*
X838Y1365D01*
X838Y1363D01*
X836Y1363D01*
X836Y1361D01*
X832Y1361D01*
X832Y1359D01*
X830Y1359D01*
X830Y1357D01*
X826Y1357D01*
X826Y1355D01*
X820Y1355D01*
X820Y1353D01*
X814Y1353D01*
X814Y1351D01*
X984Y1351D01*
X984Y1353D01*
X978Y1353D01*
X978Y1355D01*
X974Y1355D01*
X974Y1357D01*
X970Y1357D01*
X970Y1359D01*
X966Y1359D01*
X966Y1361D01*
X964Y1361D01*
X964Y1363D01*
X960Y1363D01*
X960Y1365D01*
X958Y1365D01*
X958Y1367D01*
X956Y1367D01*
X956Y1369D01*
X954Y1369D01*
X954Y1371D01*
X952Y1371D01*
X952Y1375D01*
X950Y1375D01*
X950Y1377D01*
X948Y1377D01*
X948Y1379D01*
X946Y1379D01*
X946Y1383D01*
X944Y1383D01*
X944Y1387D01*
X942Y1387D01*
X942Y1393D01*
X940Y1393D01*
X940Y1403D01*
X938Y1403D01*
X938Y1419D01*
X940Y1419D01*
X940Y1429D01*
X942Y1429D01*
X942Y1435D01*
X944Y1435D01*
X944Y1439D01*
X946Y1439D01*
X946Y1443D01*
X948Y1443D01*
X948Y1445D01*
X950Y1445D01*
X950Y1447D01*
X952Y1447D01*
X952Y1451D01*
X954Y1451D01*
X954Y1471D01*
X952Y1471D01*
X952Y1475D01*
X950Y1475D01*
X950Y1477D01*
X850Y1477D01*
G37*
D02*
G36*
X638Y1365D02*
X638Y1363D01*
X636Y1363D01*
X636Y1361D01*
X632Y1361D01*
X632Y1359D01*
X630Y1359D01*
X630Y1357D01*
X626Y1357D01*
X626Y1355D01*
X620Y1355D01*
X620Y1353D01*
X614Y1353D01*
X614Y1351D01*
X684Y1351D01*
X684Y1353D01*
X678Y1353D01*
X678Y1355D01*
X674Y1355D01*
X674Y1357D01*
X670Y1357D01*
X670Y1359D01*
X666Y1359D01*
X666Y1361D01*
X664Y1361D01*
X664Y1363D01*
X660Y1363D01*
X660Y1365D01*
X638Y1365D01*
G37*
D02*
G36*
X738Y1365D02*
X738Y1363D01*
X736Y1363D01*
X736Y1361D01*
X732Y1361D01*
X732Y1359D01*
X730Y1359D01*
X730Y1357D01*
X726Y1357D01*
X726Y1355D01*
X720Y1355D01*
X720Y1353D01*
X714Y1353D01*
X714Y1351D01*
X784Y1351D01*
X784Y1353D01*
X778Y1353D01*
X778Y1355D01*
X774Y1355D01*
X774Y1357D01*
X770Y1357D01*
X770Y1359D01*
X766Y1359D01*
X766Y1361D01*
X764Y1361D01*
X764Y1363D01*
X760Y1363D01*
X760Y1365D01*
X738Y1365D01*
G37*
D02*
G36*
X1038Y1365D02*
X1038Y1363D01*
X1036Y1363D01*
X1036Y1361D01*
X1032Y1361D01*
X1032Y1359D01*
X1030Y1359D01*
X1030Y1357D01*
X1026Y1357D01*
X1026Y1355D01*
X1020Y1355D01*
X1020Y1353D01*
X1014Y1353D01*
X1014Y1351D01*
X1084Y1351D01*
X1084Y1353D01*
X1078Y1353D01*
X1078Y1355D01*
X1074Y1355D01*
X1074Y1357D01*
X1070Y1357D01*
X1070Y1359D01*
X1066Y1359D01*
X1066Y1361D01*
X1064Y1361D01*
X1064Y1363D01*
X1060Y1363D01*
X1060Y1365D01*
X1038Y1365D01*
G37*
D02*
G36*
X1138Y1365D02*
X1138Y1363D01*
X1136Y1363D01*
X1136Y1361D01*
X1132Y1361D01*
X1132Y1359D01*
X1130Y1359D01*
X1130Y1357D01*
X1126Y1357D01*
X1126Y1355D01*
X1120Y1355D01*
X1120Y1353D01*
X1114Y1353D01*
X1114Y1351D01*
X1184Y1351D01*
X1184Y1353D01*
X1178Y1353D01*
X1178Y1355D01*
X1174Y1355D01*
X1174Y1357D01*
X1170Y1357D01*
X1170Y1359D01*
X1166Y1359D01*
X1166Y1361D01*
X1164Y1361D01*
X1164Y1363D01*
X1160Y1363D01*
X1160Y1365D01*
X1138Y1365D01*
G37*
D02*
G36*
X40Y1351D02*
X40Y1349D01*
X1770Y1349D01*
X1770Y1351D01*
X40Y1351D01*
G37*
D02*
G36*
X40Y1351D02*
X40Y1349D01*
X1770Y1349D01*
X1770Y1351D01*
X40Y1351D01*
G37*
D02*
G36*
X40Y1351D02*
X40Y1349D01*
X1770Y1349D01*
X1770Y1351D01*
X40Y1351D01*
G37*
D02*
G36*
X40Y1351D02*
X40Y1349D01*
X1770Y1349D01*
X1770Y1351D01*
X40Y1351D01*
G37*
D02*
G36*
X40Y1351D02*
X40Y1349D01*
X1770Y1349D01*
X1770Y1351D01*
X40Y1351D01*
G37*
D02*
G36*
X40Y1351D02*
X40Y1349D01*
X1770Y1349D01*
X1770Y1351D01*
X40Y1351D01*
G37*
D02*
G36*
X40Y1351D02*
X40Y1349D01*
X1770Y1349D01*
X1770Y1351D01*
X40Y1351D01*
G37*
D02*
G36*
X40Y1349D02*
X40Y1271D01*
X1514Y1271D01*
X1514Y1269D01*
X1520Y1269D01*
X1520Y1267D01*
X1526Y1267D01*
X1526Y1265D01*
X1530Y1265D01*
X1530Y1263D01*
X1532Y1263D01*
X1532Y1261D01*
X1536Y1261D01*
X1536Y1259D01*
X1538Y1259D01*
X1538Y1257D01*
X1540Y1257D01*
X1540Y1255D01*
X1542Y1255D01*
X1542Y1253D01*
X1544Y1253D01*
X1544Y1251D01*
X1546Y1251D01*
X1546Y1249D01*
X1548Y1249D01*
X1548Y1247D01*
X1550Y1247D01*
X1550Y1243D01*
X1552Y1243D01*
X1552Y1239D01*
X1554Y1239D01*
X1554Y1235D01*
X1556Y1235D01*
X1556Y1231D01*
X1558Y1231D01*
X1558Y1223D01*
X1560Y1223D01*
X1560Y1197D01*
X1564Y1197D01*
X1564Y1195D01*
X1566Y1195D01*
X1566Y1193D01*
X1568Y1193D01*
X1568Y1191D01*
X1570Y1191D01*
X1570Y1189D01*
X1572Y1189D01*
X1572Y1187D01*
X1574Y1187D01*
X1574Y1185D01*
X1576Y1185D01*
X1576Y1183D01*
X1578Y1183D01*
X1578Y1181D01*
X1580Y1181D01*
X1580Y1179D01*
X1582Y1179D01*
X1582Y1177D01*
X1584Y1177D01*
X1584Y1175D01*
X1586Y1175D01*
X1586Y1173D01*
X1588Y1173D01*
X1588Y1171D01*
X1590Y1171D01*
X1590Y1169D01*
X1592Y1169D01*
X1592Y1167D01*
X1594Y1167D01*
X1594Y1165D01*
X1596Y1165D01*
X1596Y1163D01*
X1598Y1163D01*
X1598Y1161D01*
X1600Y1161D01*
X1600Y1159D01*
X1602Y1159D01*
X1602Y1157D01*
X1604Y1157D01*
X1604Y1155D01*
X1606Y1155D01*
X1606Y1153D01*
X1608Y1153D01*
X1608Y1151D01*
X1610Y1151D01*
X1610Y1149D01*
X1612Y1149D01*
X1612Y1147D01*
X1614Y1147D01*
X1614Y1145D01*
X1616Y1145D01*
X1616Y1143D01*
X1618Y1143D01*
X1618Y1141D01*
X1620Y1141D01*
X1620Y1139D01*
X1622Y1139D01*
X1622Y1137D01*
X1624Y1137D01*
X1624Y1135D01*
X1626Y1135D01*
X1626Y1133D01*
X1628Y1133D01*
X1628Y1131D01*
X1630Y1131D01*
X1630Y1129D01*
X1632Y1129D01*
X1632Y1127D01*
X1634Y1127D01*
X1634Y1125D01*
X1636Y1125D01*
X1636Y1123D01*
X1638Y1123D01*
X1638Y1121D01*
X1640Y1121D01*
X1640Y1119D01*
X1642Y1119D01*
X1642Y1117D01*
X1644Y1117D01*
X1644Y1115D01*
X1646Y1115D01*
X1646Y1113D01*
X1648Y1113D01*
X1648Y1111D01*
X1650Y1111D01*
X1650Y1109D01*
X1652Y1109D01*
X1652Y1107D01*
X1654Y1107D01*
X1654Y1105D01*
X1656Y1105D01*
X1656Y1103D01*
X1658Y1103D01*
X1658Y1101D01*
X1660Y1101D01*
X1660Y1099D01*
X1662Y1099D01*
X1662Y1097D01*
X1664Y1097D01*
X1664Y1095D01*
X1666Y1095D01*
X1666Y1093D01*
X1668Y1093D01*
X1668Y1091D01*
X1670Y1091D01*
X1670Y1089D01*
X1672Y1089D01*
X1672Y1087D01*
X1674Y1087D01*
X1674Y1085D01*
X1676Y1085D01*
X1676Y1083D01*
X1678Y1083D01*
X1678Y1081D01*
X1680Y1081D01*
X1680Y1079D01*
X1684Y1079D01*
X1684Y1077D01*
X1686Y1077D01*
X1686Y1075D01*
X1688Y1075D01*
X1688Y1073D01*
X1690Y1073D01*
X1690Y1071D01*
X1692Y1071D01*
X1692Y1069D01*
X1694Y1069D01*
X1694Y1067D01*
X1696Y1067D01*
X1696Y1065D01*
X1698Y1065D01*
X1698Y1063D01*
X1700Y1063D01*
X1700Y1061D01*
X1702Y1061D01*
X1702Y1059D01*
X1704Y1059D01*
X1704Y1057D01*
X1706Y1057D01*
X1706Y1055D01*
X1708Y1055D01*
X1708Y1053D01*
X1710Y1053D01*
X1710Y1051D01*
X1712Y1051D01*
X1712Y1049D01*
X1714Y1049D01*
X1714Y1047D01*
X1716Y1047D01*
X1716Y1045D01*
X1718Y1045D01*
X1718Y1043D01*
X1720Y1043D01*
X1720Y1041D01*
X1722Y1041D01*
X1722Y1039D01*
X1724Y1039D01*
X1724Y1037D01*
X1726Y1037D01*
X1726Y1035D01*
X1728Y1035D01*
X1728Y1031D01*
X1730Y1031D01*
X1730Y1029D01*
X1732Y1029D01*
X1732Y1023D01*
X1734Y1023D01*
X1734Y801D01*
X1732Y801D01*
X1732Y795D01*
X1730Y795D01*
X1730Y791D01*
X1728Y791D01*
X1728Y789D01*
X1726Y789D01*
X1726Y787D01*
X1724Y787D01*
X1724Y785D01*
X1722Y785D01*
X1722Y783D01*
X1720Y783D01*
X1720Y781D01*
X1718Y781D01*
X1718Y779D01*
X1716Y779D01*
X1716Y777D01*
X1714Y777D01*
X1714Y775D01*
X1712Y775D01*
X1712Y773D01*
X1710Y773D01*
X1710Y771D01*
X1708Y771D01*
X1708Y769D01*
X1706Y769D01*
X1706Y767D01*
X1704Y767D01*
X1704Y765D01*
X1702Y765D01*
X1702Y763D01*
X1700Y763D01*
X1700Y761D01*
X1698Y761D01*
X1698Y759D01*
X1696Y759D01*
X1696Y757D01*
X1694Y757D01*
X1694Y755D01*
X1692Y755D01*
X1692Y753D01*
X1690Y753D01*
X1690Y751D01*
X1688Y751D01*
X1688Y749D01*
X1686Y749D01*
X1686Y747D01*
X1684Y747D01*
X1684Y745D01*
X1682Y745D01*
X1682Y743D01*
X1680Y743D01*
X1680Y741D01*
X1678Y741D01*
X1678Y739D01*
X1676Y739D01*
X1676Y737D01*
X1674Y737D01*
X1674Y735D01*
X1672Y735D01*
X1672Y733D01*
X1670Y733D01*
X1670Y731D01*
X1668Y731D01*
X1668Y729D01*
X1666Y729D01*
X1666Y727D01*
X1664Y727D01*
X1664Y725D01*
X1662Y725D01*
X1662Y723D01*
X1660Y723D01*
X1660Y721D01*
X1658Y721D01*
X1658Y719D01*
X1656Y719D01*
X1656Y717D01*
X1654Y717D01*
X1654Y715D01*
X1652Y715D01*
X1652Y713D01*
X1650Y713D01*
X1650Y711D01*
X1648Y711D01*
X1648Y709D01*
X1646Y709D01*
X1646Y707D01*
X1644Y707D01*
X1644Y705D01*
X1642Y705D01*
X1642Y703D01*
X1640Y703D01*
X1640Y701D01*
X1638Y701D01*
X1638Y699D01*
X1636Y699D01*
X1636Y697D01*
X1634Y697D01*
X1634Y695D01*
X1632Y695D01*
X1632Y693D01*
X1630Y693D01*
X1630Y691D01*
X1628Y691D01*
X1628Y689D01*
X1626Y689D01*
X1626Y687D01*
X1624Y687D01*
X1624Y685D01*
X1622Y685D01*
X1622Y683D01*
X1620Y683D01*
X1620Y681D01*
X1618Y681D01*
X1618Y679D01*
X1616Y679D01*
X1616Y677D01*
X1614Y677D01*
X1614Y675D01*
X1612Y675D01*
X1612Y673D01*
X1610Y673D01*
X1610Y671D01*
X1608Y671D01*
X1608Y669D01*
X1606Y669D01*
X1606Y667D01*
X1604Y667D01*
X1604Y665D01*
X1602Y665D01*
X1602Y663D01*
X1600Y663D01*
X1600Y661D01*
X1598Y661D01*
X1598Y659D01*
X1596Y659D01*
X1596Y657D01*
X1594Y657D01*
X1594Y655D01*
X1592Y655D01*
X1592Y653D01*
X1590Y653D01*
X1590Y651D01*
X1586Y651D01*
X1586Y649D01*
X1584Y649D01*
X1584Y647D01*
X1582Y647D01*
X1582Y645D01*
X1580Y645D01*
X1580Y643D01*
X1578Y643D01*
X1578Y641D01*
X1576Y641D01*
X1576Y639D01*
X1574Y639D01*
X1574Y637D01*
X1572Y637D01*
X1572Y635D01*
X1570Y635D01*
X1570Y633D01*
X1568Y633D01*
X1568Y631D01*
X1566Y631D01*
X1566Y629D01*
X1564Y629D01*
X1564Y627D01*
X1562Y627D01*
X1562Y625D01*
X1560Y625D01*
X1560Y599D01*
X1558Y599D01*
X1558Y591D01*
X1556Y591D01*
X1556Y587D01*
X1554Y587D01*
X1554Y583D01*
X1552Y583D01*
X1552Y579D01*
X1550Y579D01*
X1550Y575D01*
X1548Y575D01*
X1548Y573D01*
X1546Y573D01*
X1546Y571D01*
X1544Y571D01*
X1544Y569D01*
X1542Y569D01*
X1542Y567D01*
X1540Y567D01*
X1540Y565D01*
X1538Y565D01*
X1538Y563D01*
X1536Y563D01*
X1536Y561D01*
X1532Y561D01*
X1532Y559D01*
X1530Y559D01*
X1530Y557D01*
X1526Y557D01*
X1526Y555D01*
X1520Y555D01*
X1520Y553D01*
X1514Y553D01*
X1514Y551D01*
X1770Y551D01*
X1770Y1349D01*
X40Y1349D01*
G37*
D02*
G36*
X40Y1271D02*
X40Y551D01*
X284Y551D01*
X284Y553D01*
X278Y553D01*
X278Y555D01*
X274Y555D01*
X274Y557D01*
X270Y557D01*
X270Y559D01*
X266Y559D01*
X266Y561D01*
X264Y561D01*
X264Y563D01*
X260Y563D01*
X260Y565D01*
X258Y565D01*
X258Y567D01*
X256Y567D01*
X256Y569D01*
X254Y569D01*
X254Y571D01*
X252Y571D01*
X252Y575D01*
X250Y575D01*
X250Y577D01*
X248Y577D01*
X248Y579D01*
X246Y579D01*
X246Y583D01*
X244Y583D01*
X244Y587D01*
X242Y587D01*
X242Y593D01*
X240Y593D01*
X240Y603D01*
X238Y603D01*
X238Y625D01*
X236Y625D01*
X236Y627D01*
X234Y627D01*
X234Y629D01*
X232Y629D01*
X232Y631D01*
X230Y631D01*
X230Y633D01*
X228Y633D01*
X228Y635D01*
X226Y635D01*
X226Y637D01*
X224Y637D01*
X224Y639D01*
X222Y639D01*
X222Y641D01*
X220Y641D01*
X220Y643D01*
X218Y643D01*
X218Y645D01*
X216Y645D01*
X216Y647D01*
X214Y647D01*
X214Y649D01*
X212Y649D01*
X212Y651D01*
X210Y651D01*
X210Y653D01*
X208Y653D01*
X208Y655D01*
X206Y655D01*
X206Y657D01*
X204Y657D01*
X204Y659D01*
X202Y659D01*
X202Y661D01*
X200Y661D01*
X200Y663D01*
X198Y663D01*
X198Y665D01*
X196Y665D01*
X196Y667D01*
X194Y667D01*
X194Y669D01*
X192Y669D01*
X192Y671D01*
X190Y671D01*
X190Y673D01*
X188Y673D01*
X188Y675D01*
X186Y675D01*
X186Y677D01*
X184Y677D01*
X184Y679D01*
X182Y679D01*
X182Y681D01*
X180Y681D01*
X180Y683D01*
X178Y683D01*
X178Y685D01*
X176Y685D01*
X176Y687D01*
X174Y687D01*
X174Y689D01*
X172Y689D01*
X172Y691D01*
X170Y691D01*
X170Y693D01*
X168Y693D01*
X168Y695D01*
X166Y695D01*
X166Y697D01*
X164Y697D01*
X164Y699D01*
X162Y699D01*
X162Y701D01*
X160Y701D01*
X160Y703D01*
X158Y703D01*
X158Y705D01*
X156Y705D01*
X156Y707D01*
X154Y707D01*
X154Y709D01*
X152Y709D01*
X152Y711D01*
X150Y711D01*
X150Y713D01*
X148Y713D01*
X148Y715D01*
X146Y715D01*
X146Y717D01*
X144Y717D01*
X144Y719D01*
X142Y719D01*
X142Y721D01*
X140Y721D01*
X140Y723D01*
X138Y723D01*
X138Y725D01*
X136Y725D01*
X136Y727D01*
X134Y727D01*
X134Y729D01*
X132Y729D01*
X132Y731D01*
X130Y731D01*
X130Y733D01*
X128Y733D01*
X128Y735D01*
X126Y735D01*
X126Y737D01*
X124Y737D01*
X124Y739D01*
X122Y739D01*
X122Y741D01*
X120Y741D01*
X120Y743D01*
X118Y743D01*
X118Y745D01*
X116Y745D01*
X116Y747D01*
X114Y747D01*
X114Y749D01*
X112Y749D01*
X112Y751D01*
X110Y751D01*
X110Y753D01*
X108Y753D01*
X108Y755D01*
X106Y755D01*
X106Y757D01*
X104Y757D01*
X104Y759D01*
X102Y759D01*
X102Y761D01*
X100Y761D01*
X100Y763D01*
X98Y763D01*
X98Y765D01*
X96Y765D01*
X96Y767D01*
X94Y767D01*
X94Y769D01*
X92Y769D01*
X92Y771D01*
X90Y771D01*
X90Y773D01*
X88Y773D01*
X88Y775D01*
X86Y775D01*
X86Y777D01*
X84Y777D01*
X84Y779D01*
X82Y779D01*
X82Y781D01*
X80Y781D01*
X80Y783D01*
X78Y783D01*
X78Y785D01*
X76Y785D01*
X76Y789D01*
X74Y789D01*
X74Y791D01*
X72Y791D01*
X72Y793D01*
X70Y793D01*
X70Y797D01*
X68Y797D01*
X68Y805D01*
X66Y805D01*
X66Y1017D01*
X68Y1017D01*
X68Y1025D01*
X70Y1025D01*
X70Y1029D01*
X72Y1029D01*
X72Y1033D01*
X74Y1033D01*
X74Y1035D01*
X76Y1035D01*
X76Y1037D01*
X78Y1037D01*
X78Y1039D01*
X80Y1039D01*
X80Y1041D01*
X82Y1041D01*
X82Y1043D01*
X84Y1043D01*
X84Y1045D01*
X86Y1045D01*
X86Y1047D01*
X88Y1047D01*
X88Y1049D01*
X90Y1049D01*
X90Y1051D01*
X92Y1051D01*
X92Y1053D01*
X94Y1053D01*
X94Y1055D01*
X96Y1055D01*
X96Y1057D01*
X98Y1057D01*
X98Y1059D01*
X100Y1059D01*
X100Y1061D01*
X102Y1061D01*
X102Y1063D01*
X104Y1063D01*
X104Y1065D01*
X106Y1065D01*
X106Y1067D01*
X108Y1067D01*
X108Y1069D01*
X110Y1069D01*
X110Y1071D01*
X112Y1071D01*
X112Y1073D01*
X114Y1073D01*
X114Y1075D01*
X116Y1075D01*
X116Y1077D01*
X118Y1077D01*
X118Y1079D01*
X120Y1079D01*
X120Y1081D01*
X122Y1081D01*
X122Y1083D01*
X124Y1083D01*
X124Y1085D01*
X126Y1085D01*
X126Y1087D01*
X128Y1087D01*
X128Y1089D01*
X130Y1089D01*
X130Y1091D01*
X132Y1091D01*
X132Y1093D01*
X134Y1093D01*
X134Y1095D01*
X136Y1095D01*
X136Y1097D01*
X138Y1097D01*
X138Y1099D01*
X140Y1099D01*
X140Y1101D01*
X142Y1101D01*
X142Y1103D01*
X144Y1103D01*
X144Y1105D01*
X146Y1105D01*
X146Y1107D01*
X148Y1107D01*
X148Y1109D01*
X150Y1109D01*
X150Y1111D01*
X152Y1111D01*
X152Y1113D01*
X154Y1113D01*
X154Y1115D01*
X156Y1115D01*
X156Y1117D01*
X158Y1117D01*
X158Y1119D01*
X160Y1119D01*
X160Y1121D01*
X162Y1121D01*
X162Y1123D01*
X164Y1123D01*
X164Y1125D01*
X166Y1125D01*
X166Y1127D01*
X168Y1127D01*
X168Y1129D01*
X170Y1129D01*
X170Y1131D01*
X172Y1131D01*
X172Y1133D01*
X174Y1133D01*
X174Y1135D01*
X176Y1135D01*
X176Y1137D01*
X178Y1137D01*
X178Y1139D01*
X180Y1139D01*
X180Y1141D01*
X182Y1141D01*
X182Y1143D01*
X184Y1143D01*
X184Y1145D01*
X186Y1145D01*
X186Y1147D01*
X188Y1147D01*
X188Y1149D01*
X190Y1149D01*
X190Y1151D01*
X192Y1151D01*
X192Y1153D01*
X194Y1153D01*
X194Y1155D01*
X196Y1155D01*
X196Y1157D01*
X198Y1157D01*
X198Y1159D01*
X200Y1159D01*
X200Y1161D01*
X202Y1161D01*
X202Y1163D01*
X204Y1163D01*
X204Y1165D01*
X206Y1165D01*
X206Y1167D01*
X208Y1167D01*
X208Y1169D01*
X210Y1169D01*
X210Y1171D01*
X212Y1171D01*
X212Y1173D01*
X214Y1173D01*
X214Y1175D01*
X216Y1175D01*
X216Y1177D01*
X218Y1177D01*
X218Y1179D01*
X220Y1179D01*
X220Y1181D01*
X222Y1181D01*
X222Y1183D01*
X224Y1183D01*
X224Y1185D01*
X226Y1185D01*
X226Y1187D01*
X228Y1187D01*
X228Y1189D01*
X230Y1189D01*
X230Y1191D01*
X232Y1191D01*
X232Y1193D01*
X234Y1193D01*
X234Y1195D01*
X236Y1195D01*
X236Y1197D01*
X238Y1197D01*
X238Y1219D01*
X240Y1219D01*
X240Y1229D01*
X242Y1229D01*
X242Y1235D01*
X244Y1235D01*
X244Y1239D01*
X246Y1239D01*
X246Y1243D01*
X248Y1243D01*
X248Y1245D01*
X250Y1245D01*
X250Y1247D01*
X252Y1247D01*
X252Y1251D01*
X254Y1251D01*
X254Y1253D01*
X256Y1253D01*
X256Y1255D01*
X258Y1255D01*
X258Y1257D01*
X260Y1257D01*
X260Y1259D01*
X264Y1259D01*
X264Y1261D01*
X266Y1261D01*
X266Y1263D01*
X270Y1263D01*
X270Y1265D01*
X274Y1265D01*
X274Y1267D01*
X278Y1267D01*
X278Y1269D01*
X284Y1269D01*
X284Y1271D01*
X40Y1271D01*
G37*
D02*
G36*
X314Y1271D02*
X314Y1269D01*
X320Y1269D01*
X320Y1267D01*
X326Y1267D01*
X326Y1265D01*
X330Y1265D01*
X330Y1263D01*
X332Y1263D01*
X332Y1261D01*
X336Y1261D01*
X336Y1259D01*
X338Y1259D01*
X338Y1257D01*
X360Y1257D01*
X360Y1259D01*
X364Y1259D01*
X364Y1261D01*
X366Y1261D01*
X366Y1263D01*
X370Y1263D01*
X370Y1265D01*
X374Y1265D01*
X374Y1267D01*
X378Y1267D01*
X378Y1269D01*
X384Y1269D01*
X384Y1271D01*
X314Y1271D01*
G37*
D02*
G36*
X414Y1271D02*
X414Y1269D01*
X420Y1269D01*
X420Y1267D01*
X426Y1267D01*
X426Y1265D01*
X430Y1265D01*
X430Y1263D01*
X432Y1263D01*
X432Y1261D01*
X436Y1261D01*
X436Y1259D01*
X438Y1259D01*
X438Y1257D01*
X440Y1257D01*
X440Y1255D01*
X442Y1255D01*
X442Y1253D01*
X444Y1253D01*
X444Y1251D01*
X446Y1251D01*
X446Y1249D01*
X448Y1249D01*
X448Y1247D01*
X450Y1247D01*
X450Y1243D01*
X452Y1243D01*
X452Y1239D01*
X454Y1239D01*
X454Y1235D01*
X456Y1235D01*
X456Y1231D01*
X458Y1231D01*
X458Y1223D01*
X460Y1223D01*
X460Y1199D01*
X458Y1199D01*
X458Y1191D01*
X456Y1191D01*
X456Y1187D01*
X454Y1187D01*
X454Y1183D01*
X452Y1183D01*
X452Y1179D01*
X450Y1179D01*
X450Y1175D01*
X448Y1175D01*
X448Y1173D01*
X446Y1173D01*
X446Y1171D01*
X444Y1171D01*
X444Y1151D01*
X446Y1151D01*
X446Y1149D01*
X448Y1149D01*
X448Y1147D01*
X450Y1147D01*
X450Y1143D01*
X452Y1143D01*
X452Y1139D01*
X454Y1139D01*
X454Y1135D01*
X456Y1135D01*
X456Y1131D01*
X458Y1131D01*
X458Y1123D01*
X460Y1123D01*
X460Y1099D01*
X458Y1099D01*
X458Y1091D01*
X456Y1091D01*
X456Y1087D01*
X454Y1087D01*
X454Y1083D01*
X452Y1083D01*
X452Y1079D01*
X450Y1079D01*
X450Y1075D01*
X448Y1075D01*
X448Y1073D01*
X446Y1073D01*
X446Y1071D01*
X1114Y1071D01*
X1114Y1069D01*
X1120Y1069D01*
X1120Y1067D01*
X1126Y1067D01*
X1126Y1065D01*
X1130Y1065D01*
X1130Y1063D01*
X1132Y1063D01*
X1132Y1061D01*
X1136Y1061D01*
X1136Y1059D01*
X1138Y1059D01*
X1138Y1057D01*
X1140Y1057D01*
X1140Y1055D01*
X1142Y1055D01*
X1142Y1053D01*
X1144Y1053D01*
X1144Y1051D01*
X1146Y1051D01*
X1146Y1049D01*
X1148Y1049D01*
X1148Y1047D01*
X1150Y1047D01*
X1150Y1043D01*
X1152Y1043D01*
X1152Y1039D01*
X1154Y1039D01*
X1154Y1035D01*
X1156Y1035D01*
X1156Y1031D01*
X1158Y1031D01*
X1158Y1023D01*
X1160Y1023D01*
X1160Y999D01*
X1158Y999D01*
X1158Y991D01*
X1156Y991D01*
X1156Y987D01*
X1154Y987D01*
X1154Y983D01*
X1152Y983D01*
X1152Y979D01*
X1150Y979D01*
X1150Y975D01*
X1148Y975D01*
X1148Y973D01*
X1146Y973D01*
X1146Y971D01*
X1144Y971D01*
X1144Y951D01*
X1384Y951D01*
X1384Y953D01*
X1378Y953D01*
X1378Y955D01*
X1374Y955D01*
X1374Y957D01*
X1370Y957D01*
X1370Y959D01*
X1366Y959D01*
X1366Y961D01*
X1364Y961D01*
X1364Y963D01*
X1360Y963D01*
X1360Y965D01*
X1358Y965D01*
X1358Y967D01*
X1356Y967D01*
X1356Y969D01*
X1354Y969D01*
X1354Y971D01*
X1352Y971D01*
X1352Y975D01*
X1350Y975D01*
X1350Y977D01*
X1348Y977D01*
X1348Y979D01*
X1346Y979D01*
X1346Y983D01*
X1344Y983D01*
X1344Y987D01*
X1342Y987D01*
X1342Y993D01*
X1340Y993D01*
X1340Y1003D01*
X1338Y1003D01*
X1338Y1019D01*
X1340Y1019D01*
X1340Y1029D01*
X1342Y1029D01*
X1342Y1035D01*
X1344Y1035D01*
X1344Y1039D01*
X1346Y1039D01*
X1346Y1043D01*
X1348Y1043D01*
X1348Y1045D01*
X1350Y1045D01*
X1350Y1047D01*
X1352Y1047D01*
X1352Y1051D01*
X1354Y1051D01*
X1354Y1071D01*
X1352Y1071D01*
X1352Y1075D01*
X1350Y1075D01*
X1350Y1077D01*
X1348Y1077D01*
X1348Y1079D01*
X1346Y1079D01*
X1346Y1083D01*
X1344Y1083D01*
X1344Y1087D01*
X1342Y1087D01*
X1342Y1093D01*
X1340Y1093D01*
X1340Y1103D01*
X1338Y1103D01*
X1338Y1119D01*
X1340Y1119D01*
X1340Y1129D01*
X1342Y1129D01*
X1342Y1135D01*
X1344Y1135D01*
X1344Y1139D01*
X1346Y1139D01*
X1346Y1143D01*
X1348Y1143D01*
X1348Y1145D01*
X1350Y1145D01*
X1350Y1147D01*
X1352Y1147D01*
X1352Y1151D01*
X1354Y1151D01*
X1354Y1171D01*
X1352Y1171D01*
X1352Y1175D01*
X1350Y1175D01*
X1350Y1177D01*
X1348Y1177D01*
X1348Y1179D01*
X1346Y1179D01*
X1346Y1183D01*
X1344Y1183D01*
X1344Y1187D01*
X1342Y1187D01*
X1342Y1193D01*
X1340Y1193D01*
X1340Y1203D01*
X1338Y1203D01*
X1338Y1219D01*
X1340Y1219D01*
X1340Y1229D01*
X1342Y1229D01*
X1342Y1235D01*
X1344Y1235D01*
X1344Y1239D01*
X1346Y1239D01*
X1346Y1243D01*
X1348Y1243D01*
X1348Y1245D01*
X1350Y1245D01*
X1350Y1247D01*
X1352Y1247D01*
X1352Y1251D01*
X1354Y1251D01*
X1354Y1253D01*
X1356Y1253D01*
X1356Y1255D01*
X1358Y1255D01*
X1358Y1257D01*
X1360Y1257D01*
X1360Y1259D01*
X1364Y1259D01*
X1364Y1261D01*
X1366Y1261D01*
X1366Y1263D01*
X1370Y1263D01*
X1370Y1265D01*
X1374Y1265D01*
X1374Y1267D01*
X1378Y1267D01*
X1378Y1269D01*
X1384Y1269D01*
X1384Y1271D01*
X414Y1271D01*
G37*
D02*
G36*
X1414Y1271D02*
X1414Y1269D01*
X1420Y1269D01*
X1420Y1267D01*
X1426Y1267D01*
X1426Y1265D01*
X1430Y1265D01*
X1430Y1263D01*
X1432Y1263D01*
X1432Y1261D01*
X1436Y1261D01*
X1436Y1259D01*
X1438Y1259D01*
X1438Y1257D01*
X1460Y1257D01*
X1460Y1259D01*
X1464Y1259D01*
X1464Y1261D01*
X1466Y1261D01*
X1466Y1263D01*
X1470Y1263D01*
X1470Y1265D01*
X1474Y1265D01*
X1474Y1267D01*
X1478Y1267D01*
X1478Y1269D01*
X1484Y1269D01*
X1484Y1271D01*
X1414Y1271D01*
G37*
D02*
G36*
X444Y1071D02*
X444Y1051D01*
X446Y1051D01*
X446Y1049D01*
X448Y1049D01*
X448Y1047D01*
X450Y1047D01*
X450Y1043D01*
X452Y1043D01*
X452Y1039D01*
X454Y1039D01*
X454Y1035D01*
X456Y1035D01*
X456Y1031D01*
X458Y1031D01*
X458Y1023D01*
X460Y1023D01*
X460Y999D01*
X458Y999D01*
X458Y991D01*
X456Y991D01*
X456Y987D01*
X454Y987D01*
X454Y983D01*
X452Y983D01*
X452Y979D01*
X450Y979D01*
X450Y975D01*
X448Y975D01*
X448Y973D01*
X446Y973D01*
X446Y971D01*
X444Y971D01*
X444Y969D01*
X442Y969D01*
X442Y967D01*
X440Y967D01*
X440Y965D01*
X438Y965D01*
X438Y963D01*
X436Y963D01*
X436Y961D01*
X432Y961D01*
X432Y959D01*
X430Y959D01*
X430Y957D01*
X426Y957D01*
X426Y955D01*
X420Y955D01*
X420Y953D01*
X414Y953D01*
X414Y951D01*
X640Y951D01*
X640Y1071D01*
X444Y1071D01*
G37*
D02*
G36*
X758Y1071D02*
X758Y951D01*
X754Y951D01*
X754Y931D01*
X756Y931D01*
X756Y925D01*
X758Y925D01*
X758Y897D01*
X756Y897D01*
X756Y891D01*
X754Y891D01*
X754Y885D01*
X752Y885D01*
X752Y881D01*
X750Y881D01*
X750Y879D01*
X748Y879D01*
X748Y875D01*
X746Y875D01*
X746Y873D01*
X744Y873D01*
X744Y871D01*
X742Y871D01*
X742Y851D01*
X744Y851D01*
X744Y849D01*
X746Y849D01*
X746Y847D01*
X748Y847D01*
X748Y843D01*
X750Y843D01*
X750Y841D01*
X752Y841D01*
X752Y837D01*
X754Y837D01*
X754Y831D01*
X756Y831D01*
X756Y825D01*
X758Y825D01*
X758Y797D01*
X756Y797D01*
X756Y791D01*
X754Y791D01*
X754Y785D01*
X752Y785D01*
X752Y781D01*
X750Y781D01*
X750Y779D01*
X748Y779D01*
X748Y775D01*
X746Y775D01*
X746Y773D01*
X744Y773D01*
X744Y771D01*
X742Y771D01*
X742Y751D01*
X744Y751D01*
X744Y749D01*
X746Y749D01*
X746Y747D01*
X748Y747D01*
X748Y743D01*
X750Y743D01*
X750Y741D01*
X752Y741D01*
X752Y737D01*
X754Y737D01*
X754Y731D01*
X756Y731D01*
X756Y725D01*
X758Y725D01*
X758Y697D01*
X756Y697D01*
X756Y691D01*
X754Y691D01*
X754Y685D01*
X752Y685D01*
X752Y681D01*
X750Y681D01*
X750Y679D01*
X748Y679D01*
X748Y675D01*
X746Y675D01*
X746Y673D01*
X744Y673D01*
X744Y671D01*
X742Y671D01*
X742Y669D01*
X740Y669D01*
X740Y667D01*
X738Y667D01*
X738Y665D01*
X736Y665D01*
X736Y663D01*
X732Y663D01*
X732Y661D01*
X730Y661D01*
X730Y659D01*
X726Y659D01*
X726Y657D01*
X722Y657D01*
X722Y655D01*
X716Y655D01*
X716Y653D01*
X706Y653D01*
X706Y651D01*
X992Y651D01*
X992Y653D01*
X982Y653D01*
X982Y655D01*
X976Y655D01*
X976Y657D01*
X972Y657D01*
X972Y659D01*
X970Y659D01*
X970Y661D01*
X966Y661D01*
X966Y663D01*
X964Y663D01*
X964Y665D01*
X960Y665D01*
X960Y667D01*
X958Y667D01*
X958Y669D01*
X956Y669D01*
X956Y671D01*
X954Y671D01*
X954Y675D01*
X952Y675D01*
X952Y677D01*
X950Y677D01*
X950Y679D01*
X948Y679D01*
X948Y683D01*
X946Y683D01*
X946Y687D01*
X944Y687D01*
X944Y691D01*
X942Y691D01*
X942Y699D01*
X940Y699D01*
X940Y723D01*
X942Y723D01*
X942Y731D01*
X944Y731D01*
X944Y735D01*
X946Y735D01*
X946Y739D01*
X948Y739D01*
X948Y743D01*
X950Y743D01*
X950Y745D01*
X952Y745D01*
X952Y747D01*
X954Y747D01*
X954Y751D01*
X956Y751D01*
X956Y771D01*
X954Y771D01*
X954Y775D01*
X952Y775D01*
X952Y777D01*
X950Y777D01*
X950Y779D01*
X948Y779D01*
X948Y783D01*
X946Y783D01*
X946Y787D01*
X944Y787D01*
X944Y791D01*
X942Y791D01*
X942Y799D01*
X940Y799D01*
X940Y823D01*
X942Y823D01*
X942Y831D01*
X944Y831D01*
X944Y835D01*
X946Y835D01*
X946Y839D01*
X948Y839D01*
X948Y843D01*
X950Y843D01*
X950Y845D01*
X952Y845D01*
X952Y847D01*
X954Y847D01*
X954Y851D01*
X956Y851D01*
X956Y871D01*
X954Y871D01*
X954Y875D01*
X952Y875D01*
X952Y877D01*
X950Y877D01*
X950Y879D01*
X948Y879D01*
X948Y883D01*
X946Y883D01*
X946Y887D01*
X944Y887D01*
X944Y891D01*
X942Y891D01*
X942Y899D01*
X940Y899D01*
X940Y923D01*
X942Y923D01*
X942Y931D01*
X944Y931D01*
X944Y935D01*
X946Y935D01*
X946Y939D01*
X948Y939D01*
X948Y943D01*
X950Y943D01*
X950Y945D01*
X952Y945D01*
X952Y947D01*
X954Y947D01*
X954Y951D01*
X956Y951D01*
X956Y971D01*
X954Y971D01*
X954Y975D01*
X952Y975D01*
X952Y977D01*
X950Y977D01*
X950Y979D01*
X948Y979D01*
X948Y983D01*
X946Y983D01*
X946Y987D01*
X944Y987D01*
X944Y991D01*
X942Y991D01*
X942Y999D01*
X940Y999D01*
X940Y1023D01*
X942Y1023D01*
X942Y1031D01*
X944Y1031D01*
X944Y1035D01*
X946Y1035D01*
X946Y1039D01*
X948Y1039D01*
X948Y1043D01*
X950Y1043D01*
X950Y1045D01*
X952Y1045D01*
X952Y1047D01*
X954Y1047D01*
X954Y1051D01*
X956Y1051D01*
X956Y1053D01*
X958Y1053D01*
X958Y1055D01*
X960Y1055D01*
X960Y1057D01*
X964Y1057D01*
X964Y1059D01*
X966Y1059D01*
X966Y1061D01*
X968Y1061D01*
X968Y1063D01*
X972Y1063D01*
X972Y1065D01*
X976Y1065D01*
X976Y1067D01*
X982Y1067D01*
X982Y1069D01*
X992Y1069D01*
X992Y1071D01*
X758Y1071D01*
G37*
D02*
G36*
X1006Y1071D02*
X1006Y1069D01*
X1016Y1069D01*
X1016Y1067D01*
X1022Y1067D01*
X1022Y1065D01*
X1026Y1065D01*
X1026Y1063D01*
X1030Y1063D01*
X1030Y1061D01*
X1032Y1061D01*
X1032Y1059D01*
X1036Y1059D01*
X1036Y1057D01*
X1038Y1057D01*
X1038Y1055D01*
X1058Y1055D01*
X1058Y1057D01*
X1060Y1057D01*
X1060Y1059D01*
X1064Y1059D01*
X1064Y1061D01*
X1066Y1061D01*
X1066Y1063D01*
X1070Y1063D01*
X1070Y1065D01*
X1074Y1065D01*
X1074Y1067D01*
X1078Y1067D01*
X1078Y1069D01*
X1084Y1069D01*
X1084Y1071D01*
X1006Y1071D01*
G37*
D02*
G36*
X338Y965D02*
X338Y963D01*
X336Y963D01*
X336Y961D01*
X334Y961D01*
X334Y951D01*
X384Y951D01*
X384Y953D01*
X378Y953D01*
X378Y955D01*
X374Y955D01*
X374Y957D01*
X370Y957D01*
X370Y959D01*
X366Y959D01*
X366Y961D01*
X364Y961D01*
X364Y963D01*
X360Y963D01*
X360Y965D01*
X338Y965D01*
G37*
D02*
G36*
X1438Y965D02*
X1438Y963D01*
X1436Y963D01*
X1436Y961D01*
X1432Y961D01*
X1432Y959D01*
X1430Y959D01*
X1430Y957D01*
X1426Y957D01*
X1426Y955D01*
X1420Y955D01*
X1420Y953D01*
X1414Y953D01*
X1414Y951D01*
X1466Y951D01*
X1466Y961D01*
X1464Y961D01*
X1464Y963D01*
X1460Y963D01*
X1460Y965D01*
X1438Y965D01*
G37*
D02*
G36*
X334Y951D02*
X334Y949D01*
X644Y949D01*
X644Y951D01*
X334Y951D01*
G37*
D02*
G36*
X334Y951D02*
X334Y949D01*
X644Y949D01*
X644Y951D01*
X334Y951D01*
G37*
D02*
G36*
X1146Y951D02*
X1146Y949D01*
X1466Y949D01*
X1466Y951D01*
X1146Y951D01*
G37*
D02*
G36*
X1146Y951D02*
X1146Y949D01*
X1466Y949D01*
X1466Y951D01*
X1146Y951D01*
G37*
D02*
G36*
X334Y949D02*
X334Y871D01*
X414Y871D01*
X414Y869D01*
X420Y869D01*
X420Y867D01*
X426Y867D01*
X426Y865D01*
X430Y865D01*
X430Y863D01*
X432Y863D01*
X432Y861D01*
X436Y861D01*
X436Y859D01*
X438Y859D01*
X438Y857D01*
X440Y857D01*
X440Y855D01*
X442Y855D01*
X442Y853D01*
X444Y853D01*
X444Y851D01*
X446Y851D01*
X446Y849D01*
X448Y849D01*
X448Y847D01*
X450Y847D01*
X450Y843D01*
X452Y843D01*
X452Y839D01*
X454Y839D01*
X454Y835D01*
X456Y835D01*
X456Y831D01*
X458Y831D01*
X458Y823D01*
X460Y823D01*
X460Y799D01*
X458Y799D01*
X458Y791D01*
X456Y791D01*
X456Y787D01*
X454Y787D01*
X454Y783D01*
X452Y783D01*
X452Y779D01*
X450Y779D01*
X450Y775D01*
X448Y775D01*
X448Y773D01*
X446Y773D01*
X446Y771D01*
X444Y771D01*
X444Y751D01*
X446Y751D01*
X446Y749D01*
X448Y749D01*
X448Y747D01*
X450Y747D01*
X450Y743D01*
X452Y743D01*
X452Y739D01*
X454Y739D01*
X454Y735D01*
X456Y735D01*
X456Y731D01*
X458Y731D01*
X458Y723D01*
X460Y723D01*
X460Y699D01*
X458Y699D01*
X458Y691D01*
X456Y691D01*
X456Y687D01*
X454Y687D01*
X454Y683D01*
X452Y683D01*
X452Y679D01*
X450Y679D01*
X450Y675D01*
X448Y675D01*
X448Y673D01*
X446Y673D01*
X446Y671D01*
X444Y671D01*
X444Y651D01*
X692Y651D01*
X692Y653D01*
X682Y653D01*
X682Y655D01*
X676Y655D01*
X676Y657D01*
X672Y657D01*
X672Y659D01*
X670Y659D01*
X670Y661D01*
X666Y661D01*
X666Y663D01*
X664Y663D01*
X664Y665D01*
X660Y665D01*
X660Y667D01*
X658Y667D01*
X658Y669D01*
X656Y669D01*
X656Y671D01*
X654Y671D01*
X654Y675D01*
X652Y675D01*
X652Y677D01*
X650Y677D01*
X650Y679D01*
X648Y679D01*
X648Y683D01*
X646Y683D01*
X646Y687D01*
X644Y687D01*
X644Y691D01*
X642Y691D01*
X642Y699D01*
X640Y699D01*
X640Y723D01*
X642Y723D01*
X642Y731D01*
X644Y731D01*
X644Y735D01*
X646Y735D01*
X646Y739D01*
X648Y739D01*
X648Y743D01*
X650Y743D01*
X650Y745D01*
X652Y745D01*
X652Y747D01*
X654Y747D01*
X654Y751D01*
X656Y751D01*
X656Y771D01*
X654Y771D01*
X654Y775D01*
X652Y775D01*
X652Y777D01*
X650Y777D01*
X650Y779D01*
X648Y779D01*
X648Y783D01*
X646Y783D01*
X646Y787D01*
X644Y787D01*
X644Y791D01*
X642Y791D01*
X642Y799D01*
X640Y799D01*
X640Y823D01*
X642Y823D01*
X642Y831D01*
X644Y831D01*
X644Y835D01*
X646Y835D01*
X646Y839D01*
X648Y839D01*
X648Y843D01*
X650Y843D01*
X650Y845D01*
X652Y845D01*
X652Y847D01*
X654Y847D01*
X654Y851D01*
X656Y851D01*
X656Y871D01*
X654Y871D01*
X654Y875D01*
X652Y875D01*
X652Y877D01*
X650Y877D01*
X650Y879D01*
X648Y879D01*
X648Y883D01*
X646Y883D01*
X646Y887D01*
X644Y887D01*
X644Y891D01*
X642Y891D01*
X642Y899D01*
X640Y899D01*
X640Y923D01*
X642Y923D01*
X642Y931D01*
X644Y931D01*
X644Y949D01*
X334Y949D01*
G37*
D02*
G36*
X1148Y949D02*
X1148Y947D01*
X1150Y947D01*
X1150Y943D01*
X1152Y943D01*
X1152Y939D01*
X1154Y939D01*
X1154Y935D01*
X1156Y935D01*
X1156Y931D01*
X1158Y931D01*
X1158Y923D01*
X1160Y923D01*
X1160Y899D01*
X1158Y899D01*
X1158Y891D01*
X1156Y891D01*
X1156Y887D01*
X1154Y887D01*
X1154Y883D01*
X1152Y883D01*
X1152Y879D01*
X1150Y879D01*
X1150Y875D01*
X1148Y875D01*
X1148Y873D01*
X1146Y873D01*
X1146Y871D01*
X1414Y871D01*
X1414Y869D01*
X1420Y869D01*
X1420Y867D01*
X1426Y867D01*
X1426Y865D01*
X1430Y865D01*
X1430Y863D01*
X1432Y863D01*
X1432Y861D01*
X1436Y861D01*
X1436Y859D01*
X1438Y859D01*
X1438Y857D01*
X1460Y857D01*
X1460Y859D01*
X1464Y859D01*
X1464Y861D01*
X1466Y861D01*
X1466Y949D01*
X1148Y949D01*
G37*
D02*
G36*
X334Y871D02*
X334Y861D01*
X336Y861D01*
X336Y859D01*
X338Y859D01*
X338Y857D01*
X360Y857D01*
X360Y859D01*
X364Y859D01*
X364Y861D01*
X366Y861D01*
X366Y863D01*
X370Y863D01*
X370Y865D01*
X374Y865D01*
X374Y867D01*
X378Y867D01*
X378Y869D01*
X384Y869D01*
X384Y871D01*
X334Y871D01*
G37*
D02*
G36*
X1144Y871D02*
X1144Y851D01*
X1146Y851D01*
X1146Y849D01*
X1148Y849D01*
X1148Y847D01*
X1150Y847D01*
X1150Y843D01*
X1152Y843D01*
X1152Y839D01*
X1154Y839D01*
X1154Y835D01*
X1156Y835D01*
X1156Y831D01*
X1158Y831D01*
X1158Y823D01*
X1160Y823D01*
X1160Y799D01*
X1158Y799D01*
X1158Y791D01*
X1156Y791D01*
X1156Y787D01*
X1154Y787D01*
X1154Y783D01*
X1152Y783D01*
X1152Y779D01*
X1150Y779D01*
X1150Y775D01*
X1148Y775D01*
X1148Y773D01*
X1146Y773D01*
X1146Y771D01*
X1144Y771D01*
X1144Y751D01*
X1146Y751D01*
X1146Y749D01*
X1148Y749D01*
X1148Y747D01*
X1150Y747D01*
X1150Y743D01*
X1152Y743D01*
X1152Y739D01*
X1154Y739D01*
X1154Y735D01*
X1156Y735D01*
X1156Y731D01*
X1158Y731D01*
X1158Y723D01*
X1160Y723D01*
X1160Y699D01*
X1158Y699D01*
X1158Y691D01*
X1156Y691D01*
X1156Y687D01*
X1154Y687D01*
X1154Y683D01*
X1152Y683D01*
X1152Y679D01*
X1150Y679D01*
X1150Y675D01*
X1148Y675D01*
X1148Y673D01*
X1146Y673D01*
X1146Y671D01*
X1144Y671D01*
X1144Y669D01*
X1142Y669D01*
X1142Y667D01*
X1140Y667D01*
X1140Y665D01*
X1138Y665D01*
X1138Y663D01*
X1136Y663D01*
X1136Y661D01*
X1132Y661D01*
X1132Y659D01*
X1130Y659D01*
X1130Y657D01*
X1126Y657D01*
X1126Y655D01*
X1120Y655D01*
X1120Y653D01*
X1114Y653D01*
X1114Y651D01*
X1354Y651D01*
X1354Y671D01*
X1352Y671D01*
X1352Y675D01*
X1350Y675D01*
X1350Y677D01*
X1348Y677D01*
X1348Y679D01*
X1346Y679D01*
X1346Y683D01*
X1344Y683D01*
X1344Y687D01*
X1342Y687D01*
X1342Y693D01*
X1340Y693D01*
X1340Y703D01*
X1338Y703D01*
X1338Y719D01*
X1340Y719D01*
X1340Y729D01*
X1342Y729D01*
X1342Y735D01*
X1344Y735D01*
X1344Y739D01*
X1346Y739D01*
X1346Y743D01*
X1348Y743D01*
X1348Y745D01*
X1350Y745D01*
X1350Y747D01*
X1352Y747D01*
X1352Y751D01*
X1354Y751D01*
X1354Y771D01*
X1352Y771D01*
X1352Y775D01*
X1350Y775D01*
X1350Y777D01*
X1348Y777D01*
X1348Y779D01*
X1346Y779D01*
X1346Y783D01*
X1344Y783D01*
X1344Y787D01*
X1342Y787D01*
X1342Y793D01*
X1340Y793D01*
X1340Y803D01*
X1338Y803D01*
X1338Y819D01*
X1340Y819D01*
X1340Y829D01*
X1342Y829D01*
X1342Y835D01*
X1344Y835D01*
X1344Y839D01*
X1346Y839D01*
X1346Y843D01*
X1348Y843D01*
X1348Y845D01*
X1350Y845D01*
X1350Y847D01*
X1352Y847D01*
X1352Y851D01*
X1354Y851D01*
X1354Y853D01*
X1356Y853D01*
X1356Y855D01*
X1358Y855D01*
X1358Y857D01*
X1360Y857D01*
X1360Y859D01*
X1364Y859D01*
X1364Y861D01*
X1366Y861D01*
X1366Y863D01*
X1370Y863D01*
X1370Y865D01*
X1374Y865D01*
X1374Y867D01*
X1378Y867D01*
X1378Y869D01*
X1384Y869D01*
X1384Y871D01*
X1144Y871D01*
G37*
D02*
G36*
X1038Y667D02*
X1038Y665D01*
X1036Y665D01*
X1036Y663D01*
X1032Y663D01*
X1032Y661D01*
X1030Y661D01*
X1030Y659D01*
X1026Y659D01*
X1026Y657D01*
X1022Y657D01*
X1022Y655D01*
X1016Y655D01*
X1016Y653D01*
X1006Y653D01*
X1006Y651D01*
X1084Y651D01*
X1084Y653D01*
X1078Y653D01*
X1078Y655D01*
X1074Y655D01*
X1074Y657D01*
X1070Y657D01*
X1070Y659D01*
X1066Y659D01*
X1066Y661D01*
X1064Y661D01*
X1064Y663D01*
X1060Y663D01*
X1060Y665D01*
X1058Y665D01*
X1058Y667D01*
X1038Y667D01*
G37*
D02*
G36*
X446Y651D02*
X446Y649D01*
X1352Y649D01*
X1352Y651D01*
X446Y651D01*
G37*
D02*
G36*
X446Y651D02*
X446Y649D01*
X1352Y649D01*
X1352Y651D01*
X446Y651D01*
G37*
D02*
G36*
X446Y651D02*
X446Y649D01*
X1352Y649D01*
X1352Y651D01*
X446Y651D01*
G37*
D02*
G36*
X446Y651D02*
X446Y649D01*
X1352Y649D01*
X1352Y651D01*
X446Y651D01*
G37*
D02*
G36*
X448Y649D02*
X448Y647D01*
X450Y647D01*
X450Y643D01*
X452Y643D01*
X452Y639D01*
X454Y639D01*
X454Y635D01*
X456Y635D01*
X456Y631D01*
X458Y631D01*
X458Y623D01*
X460Y623D01*
X460Y599D01*
X458Y599D01*
X458Y591D01*
X456Y591D01*
X456Y587D01*
X454Y587D01*
X454Y583D01*
X452Y583D01*
X452Y579D01*
X450Y579D01*
X450Y575D01*
X448Y575D01*
X448Y573D01*
X446Y573D01*
X446Y571D01*
X444Y571D01*
X444Y569D01*
X442Y569D01*
X442Y567D01*
X440Y567D01*
X440Y565D01*
X438Y565D01*
X438Y563D01*
X436Y563D01*
X436Y561D01*
X432Y561D01*
X432Y559D01*
X430Y559D01*
X430Y557D01*
X426Y557D01*
X426Y555D01*
X420Y555D01*
X420Y553D01*
X414Y553D01*
X414Y551D01*
X1384Y551D01*
X1384Y553D01*
X1378Y553D01*
X1378Y555D01*
X1374Y555D01*
X1374Y557D01*
X1370Y557D01*
X1370Y559D01*
X1366Y559D01*
X1366Y561D01*
X1364Y561D01*
X1364Y563D01*
X1360Y563D01*
X1360Y565D01*
X1358Y565D01*
X1358Y567D01*
X1356Y567D01*
X1356Y569D01*
X1354Y569D01*
X1354Y571D01*
X1352Y571D01*
X1352Y575D01*
X1350Y575D01*
X1350Y577D01*
X1348Y577D01*
X1348Y579D01*
X1346Y579D01*
X1346Y583D01*
X1344Y583D01*
X1344Y587D01*
X1342Y587D01*
X1342Y593D01*
X1340Y593D01*
X1340Y603D01*
X1338Y603D01*
X1338Y619D01*
X1340Y619D01*
X1340Y629D01*
X1342Y629D01*
X1342Y635D01*
X1344Y635D01*
X1344Y639D01*
X1346Y639D01*
X1346Y643D01*
X1348Y643D01*
X1348Y645D01*
X1350Y645D01*
X1350Y647D01*
X1352Y647D01*
X1352Y649D01*
X448Y649D01*
G37*
D02*
G36*
X338Y565D02*
X338Y563D01*
X336Y563D01*
X336Y561D01*
X332Y561D01*
X332Y559D01*
X330Y559D01*
X330Y557D01*
X326Y557D01*
X326Y555D01*
X320Y555D01*
X320Y553D01*
X314Y553D01*
X314Y551D01*
X384Y551D01*
X384Y553D01*
X378Y553D01*
X378Y555D01*
X374Y555D01*
X374Y557D01*
X370Y557D01*
X370Y559D01*
X366Y559D01*
X366Y561D01*
X364Y561D01*
X364Y563D01*
X360Y563D01*
X360Y565D01*
X338Y565D01*
G37*
D02*
G36*
X1438Y565D02*
X1438Y563D01*
X1436Y563D01*
X1436Y561D01*
X1432Y561D01*
X1432Y559D01*
X1430Y559D01*
X1430Y557D01*
X1426Y557D01*
X1426Y555D01*
X1420Y555D01*
X1420Y553D01*
X1414Y553D01*
X1414Y551D01*
X1484Y551D01*
X1484Y553D01*
X1478Y553D01*
X1478Y555D01*
X1474Y555D01*
X1474Y557D01*
X1470Y557D01*
X1470Y559D01*
X1466Y559D01*
X1466Y561D01*
X1464Y561D01*
X1464Y563D01*
X1460Y563D01*
X1460Y565D01*
X1438Y565D01*
G37*
D02*
G36*
X40Y551D02*
X40Y549D01*
X1770Y549D01*
X1770Y551D01*
X40Y551D01*
G37*
D02*
G36*
X40Y551D02*
X40Y549D01*
X1770Y549D01*
X1770Y551D01*
X40Y551D01*
G37*
D02*
G36*
X40Y551D02*
X40Y549D01*
X1770Y549D01*
X1770Y551D01*
X40Y551D01*
G37*
D02*
G36*
X40Y551D02*
X40Y549D01*
X1770Y549D01*
X1770Y551D01*
X40Y551D01*
G37*
D02*
G36*
X40Y551D02*
X40Y549D01*
X1770Y549D01*
X1770Y551D01*
X40Y551D01*
G37*
D02*
G36*
X40Y549D02*
X40Y471D01*
X1214Y471D01*
X1214Y469D01*
X1220Y469D01*
X1220Y467D01*
X1226Y467D01*
X1226Y465D01*
X1230Y465D01*
X1230Y463D01*
X1232Y463D01*
X1232Y461D01*
X1236Y461D01*
X1236Y459D01*
X1238Y459D01*
X1238Y457D01*
X1240Y457D01*
X1240Y455D01*
X1242Y455D01*
X1242Y453D01*
X1244Y453D01*
X1244Y451D01*
X1246Y451D01*
X1246Y449D01*
X1248Y449D01*
X1248Y447D01*
X1250Y447D01*
X1250Y443D01*
X1252Y443D01*
X1252Y439D01*
X1254Y439D01*
X1254Y435D01*
X1256Y435D01*
X1256Y431D01*
X1258Y431D01*
X1258Y423D01*
X1260Y423D01*
X1260Y399D01*
X1258Y399D01*
X1258Y391D01*
X1256Y391D01*
X1256Y387D01*
X1254Y387D01*
X1254Y383D01*
X1252Y383D01*
X1252Y379D01*
X1250Y379D01*
X1250Y375D01*
X1248Y375D01*
X1248Y373D01*
X1246Y373D01*
X1246Y371D01*
X1244Y371D01*
X1244Y351D01*
X1246Y351D01*
X1246Y349D01*
X1248Y349D01*
X1248Y347D01*
X1250Y347D01*
X1250Y343D01*
X1252Y343D01*
X1252Y339D01*
X1254Y339D01*
X1254Y335D01*
X1256Y335D01*
X1256Y331D01*
X1258Y331D01*
X1258Y323D01*
X1260Y323D01*
X1260Y299D01*
X1258Y299D01*
X1258Y291D01*
X1256Y291D01*
X1256Y287D01*
X1254Y287D01*
X1254Y283D01*
X1252Y283D01*
X1252Y279D01*
X1250Y279D01*
X1250Y275D01*
X1248Y275D01*
X1248Y273D01*
X1246Y273D01*
X1246Y271D01*
X1244Y271D01*
X1244Y269D01*
X1242Y269D01*
X1242Y267D01*
X1240Y267D01*
X1240Y265D01*
X1238Y265D01*
X1238Y263D01*
X1236Y263D01*
X1236Y261D01*
X1232Y261D01*
X1232Y259D01*
X1230Y259D01*
X1230Y257D01*
X1226Y257D01*
X1226Y255D01*
X1220Y255D01*
X1220Y253D01*
X1214Y253D01*
X1214Y251D01*
X1186Y251D01*
X1186Y249D01*
X1184Y249D01*
X1184Y247D01*
X1182Y247D01*
X1182Y245D01*
X1180Y245D01*
X1180Y243D01*
X1178Y243D01*
X1178Y241D01*
X1176Y241D01*
X1176Y239D01*
X1174Y239D01*
X1174Y237D01*
X1172Y237D01*
X1172Y235D01*
X1170Y235D01*
X1170Y233D01*
X1168Y233D01*
X1168Y231D01*
X1166Y231D01*
X1166Y229D01*
X1164Y229D01*
X1164Y227D01*
X1162Y227D01*
X1162Y225D01*
X1160Y225D01*
X1160Y223D01*
X1158Y223D01*
X1158Y219D01*
X1156Y219D01*
X1156Y217D01*
X1154Y217D01*
X1154Y215D01*
X1152Y215D01*
X1152Y213D01*
X1150Y213D01*
X1150Y211D01*
X1148Y211D01*
X1148Y209D01*
X1146Y209D01*
X1146Y207D01*
X1144Y207D01*
X1144Y205D01*
X1142Y205D01*
X1142Y203D01*
X1140Y203D01*
X1140Y201D01*
X1138Y201D01*
X1138Y199D01*
X1136Y199D01*
X1136Y197D01*
X1134Y197D01*
X1134Y195D01*
X1132Y195D01*
X1132Y193D01*
X1130Y193D01*
X1130Y191D01*
X1128Y191D01*
X1128Y189D01*
X1126Y189D01*
X1126Y187D01*
X1124Y187D01*
X1124Y185D01*
X1122Y185D01*
X1122Y183D01*
X1120Y183D01*
X1120Y181D01*
X1118Y181D01*
X1118Y179D01*
X1116Y179D01*
X1116Y177D01*
X1114Y177D01*
X1114Y175D01*
X1112Y175D01*
X1112Y173D01*
X1110Y173D01*
X1110Y171D01*
X1108Y171D01*
X1108Y169D01*
X1106Y169D01*
X1106Y167D01*
X1104Y167D01*
X1104Y165D01*
X1102Y165D01*
X1102Y163D01*
X1100Y163D01*
X1100Y161D01*
X1098Y161D01*
X1098Y159D01*
X1096Y159D01*
X1096Y157D01*
X1094Y157D01*
X1094Y155D01*
X1092Y155D01*
X1092Y153D01*
X1090Y153D01*
X1090Y151D01*
X1088Y151D01*
X1088Y149D01*
X1086Y149D01*
X1086Y147D01*
X1084Y147D01*
X1084Y145D01*
X1082Y145D01*
X1082Y143D01*
X1080Y143D01*
X1080Y141D01*
X1078Y141D01*
X1078Y139D01*
X1076Y139D01*
X1076Y137D01*
X1074Y137D01*
X1074Y135D01*
X1072Y135D01*
X1072Y133D01*
X1070Y133D01*
X1070Y131D01*
X1068Y131D01*
X1068Y129D01*
X1066Y129D01*
X1066Y127D01*
X1064Y127D01*
X1064Y125D01*
X1062Y125D01*
X1062Y123D01*
X1060Y123D01*
X1060Y121D01*
X1058Y121D01*
X1058Y119D01*
X1056Y119D01*
X1056Y117D01*
X1054Y117D01*
X1054Y115D01*
X1052Y115D01*
X1052Y113D01*
X1050Y113D01*
X1050Y111D01*
X1048Y111D01*
X1048Y109D01*
X1046Y109D01*
X1046Y107D01*
X1044Y107D01*
X1044Y105D01*
X1042Y105D01*
X1042Y103D01*
X1040Y103D01*
X1040Y101D01*
X1038Y101D01*
X1038Y99D01*
X1036Y99D01*
X1036Y97D01*
X1034Y97D01*
X1034Y95D01*
X1032Y95D01*
X1032Y93D01*
X1030Y93D01*
X1030Y91D01*
X1028Y91D01*
X1028Y89D01*
X1026Y89D01*
X1026Y87D01*
X1024Y87D01*
X1024Y85D01*
X1022Y85D01*
X1022Y83D01*
X1020Y83D01*
X1020Y81D01*
X1016Y81D01*
X1016Y79D01*
X1012Y79D01*
X1012Y77D01*
X1004Y77D01*
X1004Y75D01*
X1770Y75D01*
X1770Y549D01*
X40Y549D01*
G37*
D02*
G36*
X40Y471D02*
X40Y277D01*
X204Y277D01*
X204Y275D01*
X216Y275D01*
X216Y273D01*
X222Y273D01*
X222Y271D01*
X228Y271D01*
X228Y269D01*
X232Y269D01*
X232Y267D01*
X234Y267D01*
X234Y265D01*
X238Y265D01*
X238Y263D01*
X240Y263D01*
X240Y261D01*
X242Y261D01*
X242Y259D01*
X244Y259D01*
X244Y257D01*
X246Y257D01*
X246Y255D01*
X248Y255D01*
X248Y253D01*
X250Y253D01*
X250Y251D01*
X252Y251D01*
X252Y247D01*
X254Y247D01*
X254Y245D01*
X256Y245D01*
X256Y241D01*
X258Y241D01*
X258Y237D01*
X260Y237D01*
X260Y233D01*
X262Y233D01*
X262Y225D01*
X264Y225D01*
X264Y197D01*
X262Y197D01*
X262Y189D01*
X260Y189D01*
X260Y185D01*
X258Y185D01*
X258Y181D01*
X256Y181D01*
X256Y177D01*
X254Y177D01*
X254Y175D01*
X252Y175D01*
X252Y171D01*
X250Y171D01*
X250Y169D01*
X248Y169D01*
X248Y167D01*
X246Y167D01*
X246Y165D01*
X244Y165D01*
X244Y163D01*
X242Y163D01*
X242Y161D01*
X240Y161D01*
X240Y159D01*
X238Y159D01*
X238Y157D01*
X234Y157D01*
X234Y155D01*
X232Y155D01*
X232Y153D01*
X228Y153D01*
X228Y151D01*
X222Y151D01*
X222Y149D01*
X216Y149D01*
X216Y147D01*
X204Y147D01*
X204Y145D01*
X714Y145D01*
X714Y147D01*
X712Y147D01*
X712Y149D01*
X710Y149D01*
X710Y151D01*
X708Y151D01*
X708Y153D01*
X706Y153D01*
X706Y155D01*
X704Y155D01*
X704Y157D01*
X702Y157D01*
X702Y159D01*
X700Y159D01*
X700Y161D01*
X698Y161D01*
X698Y163D01*
X696Y163D01*
X696Y165D01*
X694Y165D01*
X694Y167D01*
X692Y167D01*
X692Y169D01*
X690Y169D01*
X690Y171D01*
X688Y171D01*
X688Y173D01*
X686Y173D01*
X686Y175D01*
X684Y175D01*
X684Y177D01*
X682Y177D01*
X682Y179D01*
X680Y179D01*
X680Y181D01*
X678Y181D01*
X678Y183D01*
X676Y183D01*
X676Y185D01*
X674Y185D01*
X674Y187D01*
X672Y187D01*
X672Y189D01*
X670Y189D01*
X670Y191D01*
X668Y191D01*
X668Y193D01*
X666Y193D01*
X666Y195D01*
X664Y195D01*
X664Y197D01*
X662Y197D01*
X662Y199D01*
X660Y199D01*
X660Y201D01*
X658Y201D01*
X658Y203D01*
X656Y203D01*
X656Y205D01*
X654Y205D01*
X654Y207D01*
X652Y207D01*
X652Y209D01*
X650Y209D01*
X650Y211D01*
X648Y211D01*
X648Y213D01*
X646Y213D01*
X646Y217D01*
X644Y217D01*
X644Y219D01*
X642Y219D01*
X642Y221D01*
X640Y221D01*
X640Y223D01*
X638Y223D01*
X638Y225D01*
X636Y225D01*
X636Y227D01*
X634Y227D01*
X634Y229D01*
X632Y229D01*
X632Y231D01*
X630Y231D01*
X630Y233D01*
X628Y233D01*
X628Y235D01*
X626Y235D01*
X626Y237D01*
X624Y237D01*
X624Y239D01*
X622Y239D01*
X622Y241D01*
X620Y241D01*
X620Y243D01*
X618Y243D01*
X618Y245D01*
X616Y245D01*
X616Y247D01*
X614Y247D01*
X614Y249D01*
X612Y249D01*
X612Y251D01*
X584Y251D01*
X584Y253D01*
X578Y253D01*
X578Y255D01*
X574Y255D01*
X574Y257D01*
X570Y257D01*
X570Y259D01*
X566Y259D01*
X566Y261D01*
X564Y261D01*
X564Y263D01*
X560Y263D01*
X560Y265D01*
X558Y265D01*
X558Y267D01*
X556Y267D01*
X556Y269D01*
X554Y269D01*
X554Y271D01*
X552Y271D01*
X552Y275D01*
X550Y275D01*
X550Y277D01*
X548Y277D01*
X548Y279D01*
X546Y279D01*
X546Y283D01*
X544Y283D01*
X544Y287D01*
X542Y287D01*
X542Y293D01*
X540Y293D01*
X540Y303D01*
X538Y303D01*
X538Y319D01*
X540Y319D01*
X540Y329D01*
X542Y329D01*
X542Y335D01*
X544Y335D01*
X544Y339D01*
X546Y339D01*
X546Y343D01*
X548Y343D01*
X548Y345D01*
X550Y345D01*
X550Y347D01*
X552Y347D01*
X552Y351D01*
X554Y351D01*
X554Y371D01*
X552Y371D01*
X552Y375D01*
X550Y375D01*
X550Y377D01*
X548Y377D01*
X548Y379D01*
X546Y379D01*
X546Y383D01*
X544Y383D01*
X544Y387D01*
X542Y387D01*
X542Y393D01*
X540Y393D01*
X540Y403D01*
X538Y403D01*
X538Y419D01*
X540Y419D01*
X540Y429D01*
X542Y429D01*
X542Y435D01*
X544Y435D01*
X544Y439D01*
X546Y439D01*
X546Y443D01*
X548Y443D01*
X548Y445D01*
X550Y445D01*
X550Y447D01*
X552Y447D01*
X552Y451D01*
X554Y451D01*
X554Y453D01*
X556Y453D01*
X556Y455D01*
X558Y455D01*
X558Y457D01*
X560Y457D01*
X560Y459D01*
X564Y459D01*
X564Y461D01*
X566Y461D01*
X566Y463D01*
X570Y463D01*
X570Y465D01*
X574Y465D01*
X574Y467D01*
X578Y467D01*
X578Y469D01*
X584Y469D01*
X584Y471D01*
X40Y471D01*
G37*
D02*
G36*
X614Y471D02*
X614Y469D01*
X620Y469D01*
X620Y467D01*
X626Y467D01*
X626Y465D01*
X630Y465D01*
X630Y463D01*
X632Y463D01*
X632Y461D01*
X636Y461D01*
X636Y459D01*
X638Y459D01*
X638Y457D01*
X660Y457D01*
X660Y459D01*
X664Y459D01*
X664Y461D01*
X666Y461D01*
X666Y463D01*
X670Y463D01*
X670Y465D01*
X674Y465D01*
X674Y467D01*
X678Y467D01*
X678Y469D01*
X684Y469D01*
X684Y471D01*
X614Y471D01*
G37*
D02*
G36*
X714Y471D02*
X714Y469D01*
X720Y469D01*
X720Y467D01*
X726Y467D01*
X726Y465D01*
X730Y465D01*
X730Y463D01*
X732Y463D01*
X732Y461D01*
X736Y461D01*
X736Y459D01*
X738Y459D01*
X738Y457D01*
X760Y457D01*
X760Y459D01*
X764Y459D01*
X764Y461D01*
X766Y461D01*
X766Y463D01*
X770Y463D01*
X770Y465D01*
X774Y465D01*
X774Y467D01*
X778Y467D01*
X778Y469D01*
X784Y469D01*
X784Y471D01*
X714Y471D01*
G37*
D02*
G36*
X814Y471D02*
X814Y469D01*
X820Y469D01*
X820Y467D01*
X826Y467D01*
X826Y465D01*
X830Y465D01*
X830Y463D01*
X832Y463D01*
X832Y461D01*
X836Y461D01*
X836Y459D01*
X838Y459D01*
X838Y457D01*
X840Y457D01*
X840Y455D01*
X842Y455D01*
X842Y453D01*
X844Y453D01*
X844Y451D01*
X846Y451D01*
X846Y449D01*
X848Y449D01*
X848Y447D01*
X850Y447D01*
X850Y443D01*
X852Y443D01*
X852Y439D01*
X854Y439D01*
X854Y435D01*
X856Y435D01*
X856Y431D01*
X858Y431D01*
X858Y423D01*
X860Y423D01*
X860Y399D01*
X858Y399D01*
X858Y391D01*
X856Y391D01*
X856Y387D01*
X854Y387D01*
X854Y383D01*
X852Y383D01*
X852Y379D01*
X850Y379D01*
X850Y375D01*
X848Y375D01*
X848Y373D01*
X846Y373D01*
X846Y371D01*
X844Y371D01*
X844Y351D01*
X846Y351D01*
X846Y349D01*
X848Y349D01*
X848Y347D01*
X850Y347D01*
X850Y345D01*
X950Y345D01*
X950Y347D01*
X952Y347D01*
X952Y351D01*
X954Y351D01*
X954Y371D01*
X952Y371D01*
X952Y375D01*
X950Y375D01*
X950Y377D01*
X948Y377D01*
X948Y379D01*
X946Y379D01*
X946Y383D01*
X944Y383D01*
X944Y387D01*
X942Y387D01*
X942Y393D01*
X940Y393D01*
X940Y403D01*
X938Y403D01*
X938Y419D01*
X940Y419D01*
X940Y429D01*
X942Y429D01*
X942Y435D01*
X944Y435D01*
X944Y439D01*
X946Y439D01*
X946Y443D01*
X948Y443D01*
X948Y445D01*
X950Y445D01*
X950Y447D01*
X952Y447D01*
X952Y451D01*
X954Y451D01*
X954Y453D01*
X956Y453D01*
X956Y455D01*
X958Y455D01*
X958Y457D01*
X960Y457D01*
X960Y459D01*
X964Y459D01*
X964Y461D01*
X966Y461D01*
X966Y463D01*
X970Y463D01*
X970Y465D01*
X974Y465D01*
X974Y467D01*
X978Y467D01*
X978Y469D01*
X984Y469D01*
X984Y471D01*
X814Y471D01*
G37*
D02*
G36*
X1014Y471D02*
X1014Y469D01*
X1020Y469D01*
X1020Y467D01*
X1026Y467D01*
X1026Y465D01*
X1030Y465D01*
X1030Y463D01*
X1032Y463D01*
X1032Y461D01*
X1036Y461D01*
X1036Y459D01*
X1038Y459D01*
X1038Y457D01*
X1060Y457D01*
X1060Y459D01*
X1064Y459D01*
X1064Y461D01*
X1066Y461D01*
X1066Y463D01*
X1070Y463D01*
X1070Y465D01*
X1074Y465D01*
X1074Y467D01*
X1078Y467D01*
X1078Y469D01*
X1084Y469D01*
X1084Y471D01*
X1014Y471D01*
G37*
D02*
G36*
X1114Y471D02*
X1114Y469D01*
X1120Y469D01*
X1120Y467D01*
X1126Y467D01*
X1126Y465D01*
X1130Y465D01*
X1130Y463D01*
X1132Y463D01*
X1132Y461D01*
X1136Y461D01*
X1136Y459D01*
X1138Y459D01*
X1138Y457D01*
X1160Y457D01*
X1160Y459D01*
X1164Y459D01*
X1164Y461D01*
X1166Y461D01*
X1166Y463D01*
X1170Y463D01*
X1170Y465D01*
X1174Y465D01*
X1174Y467D01*
X1178Y467D01*
X1178Y469D01*
X1184Y469D01*
X1184Y471D01*
X1114Y471D01*
G37*
D02*
G36*
X40Y277D02*
X40Y145D01*
X194Y145D01*
X194Y147D01*
X182Y147D01*
X182Y149D01*
X176Y149D01*
X176Y151D01*
X172Y151D01*
X172Y153D01*
X168Y153D01*
X168Y155D01*
X164Y155D01*
X164Y157D01*
X162Y157D01*
X162Y159D01*
X158Y159D01*
X158Y161D01*
X156Y161D01*
X156Y163D01*
X154Y163D01*
X154Y165D01*
X152Y165D01*
X152Y167D01*
X150Y167D01*
X150Y169D01*
X148Y169D01*
X148Y173D01*
X146Y173D01*
X146Y175D01*
X144Y175D01*
X144Y179D01*
X142Y179D01*
X142Y181D01*
X140Y181D01*
X140Y185D01*
X138Y185D01*
X138Y191D01*
X136Y191D01*
X136Y201D01*
X134Y201D01*
X134Y221D01*
X136Y221D01*
X136Y231D01*
X138Y231D01*
X138Y237D01*
X140Y237D01*
X140Y241D01*
X142Y241D01*
X142Y243D01*
X144Y243D01*
X144Y247D01*
X146Y247D01*
X146Y249D01*
X148Y249D01*
X148Y253D01*
X150Y253D01*
X150Y255D01*
X152Y255D01*
X152Y257D01*
X154Y257D01*
X154Y259D01*
X156Y259D01*
X156Y261D01*
X158Y261D01*
X158Y263D01*
X162Y263D01*
X162Y265D01*
X164Y265D01*
X164Y267D01*
X168Y267D01*
X168Y269D01*
X172Y269D01*
X172Y271D01*
X176Y271D01*
X176Y273D01*
X182Y273D01*
X182Y275D01*
X194Y275D01*
X194Y277D01*
X40Y277D01*
G37*
D02*
G36*
X40Y145D02*
X40Y143D01*
X716Y143D01*
X716Y145D01*
X40Y145D01*
G37*
D02*
G36*
X40Y145D02*
X40Y143D01*
X716Y143D01*
X716Y145D01*
X40Y145D01*
G37*
D02*
G36*
X40Y143D02*
X40Y75D01*
X794Y75D01*
X794Y77D01*
X786Y77D01*
X786Y79D01*
X780Y79D01*
X780Y81D01*
X778Y81D01*
X778Y83D01*
X776Y83D01*
X776Y85D01*
X772Y85D01*
X772Y87D01*
X770Y87D01*
X770Y89D01*
X768Y89D01*
X768Y91D01*
X766Y91D01*
X766Y95D01*
X764Y95D01*
X764Y97D01*
X762Y97D01*
X762Y99D01*
X760Y99D01*
X760Y101D01*
X758Y101D01*
X758Y103D01*
X756Y103D01*
X756Y105D01*
X754Y105D01*
X754Y107D01*
X752Y107D01*
X752Y109D01*
X750Y109D01*
X750Y111D01*
X748Y111D01*
X748Y113D01*
X746Y113D01*
X746Y115D01*
X744Y115D01*
X744Y117D01*
X742Y117D01*
X742Y119D01*
X740Y119D01*
X740Y121D01*
X738Y121D01*
X738Y123D01*
X736Y123D01*
X736Y125D01*
X734Y125D01*
X734Y127D01*
X732Y127D01*
X732Y129D01*
X730Y129D01*
X730Y131D01*
X728Y131D01*
X728Y133D01*
X726Y133D01*
X726Y135D01*
X724Y135D01*
X724Y137D01*
X722Y137D01*
X722Y139D01*
X720Y139D01*
X720Y141D01*
X718Y141D01*
X718Y143D01*
X40Y143D01*
G37*
D02*
G36*
X40Y75D02*
X40Y73D01*
X1770Y73D01*
X1770Y75D01*
X40Y75D01*
G37*
D02*
G36*
X40Y75D02*
X40Y73D01*
X1770Y73D01*
X1770Y75D01*
X40Y75D01*
G37*
D02*
G36*
X40Y73D02*
X40Y41D01*
X1770Y41D01*
X1770Y73D01*
X40Y73D01*
G37*
D02*
G36*
X850Y277D02*
X850Y275D01*
X848Y275D01*
X848Y273D01*
X846Y273D01*
X846Y271D01*
X844Y271D01*
X844Y269D01*
X842Y269D01*
X842Y267D01*
X840Y267D01*
X840Y265D01*
X838Y265D01*
X838Y263D01*
X836Y263D01*
X836Y261D01*
X832Y261D01*
X832Y259D01*
X830Y259D01*
X830Y257D01*
X826Y257D01*
X826Y255D01*
X820Y255D01*
X820Y253D01*
X814Y253D01*
X814Y251D01*
X984Y251D01*
X984Y253D01*
X978Y253D01*
X978Y255D01*
X974Y255D01*
X974Y257D01*
X970Y257D01*
X970Y259D01*
X966Y259D01*
X966Y261D01*
X964Y261D01*
X964Y263D01*
X960Y263D01*
X960Y265D01*
X958Y265D01*
X958Y267D01*
X956Y267D01*
X956Y269D01*
X954Y269D01*
X954Y271D01*
X952Y271D01*
X952Y275D01*
X950Y275D01*
X950Y277D01*
X850Y277D01*
G37*
D02*
G36*
X738Y265D02*
X738Y263D01*
X736Y263D01*
X736Y261D01*
X732Y261D01*
X732Y259D01*
X730Y259D01*
X730Y257D01*
X726Y257D01*
X726Y255D01*
X720Y255D01*
X720Y251D01*
X784Y251D01*
X784Y253D01*
X778Y253D01*
X778Y255D01*
X774Y255D01*
X774Y257D01*
X770Y257D01*
X770Y259D01*
X766Y259D01*
X766Y261D01*
X764Y261D01*
X764Y263D01*
X760Y263D01*
X760Y265D01*
X738Y265D01*
G37*
D02*
G36*
X1038Y265D02*
X1038Y263D01*
X1036Y263D01*
X1036Y261D01*
X1032Y261D01*
X1032Y259D01*
X1030Y259D01*
X1030Y257D01*
X1026Y257D01*
X1026Y255D01*
X1020Y255D01*
X1020Y253D01*
X1014Y253D01*
X1014Y251D01*
X1078Y251D01*
X1078Y255D01*
X1074Y255D01*
X1074Y257D01*
X1070Y257D01*
X1070Y259D01*
X1066Y259D01*
X1066Y261D01*
X1064Y261D01*
X1064Y263D01*
X1060Y263D01*
X1060Y265D01*
X1038Y265D01*
G37*
D02*
G36*
X720Y251D02*
X720Y249D01*
X1078Y249D01*
X1078Y251D01*
X720Y251D01*
G37*
D02*
G36*
X720Y251D02*
X720Y249D01*
X1078Y249D01*
X1078Y251D01*
X720Y251D01*
G37*
D02*
G36*
X720Y251D02*
X720Y249D01*
X1078Y249D01*
X1078Y251D01*
X720Y251D01*
G37*
D02*
G36*
X720Y249D02*
X720Y235D01*
X722Y235D01*
X722Y233D01*
X724Y233D01*
X724Y231D01*
X726Y231D01*
X726Y229D01*
X728Y229D01*
X728Y227D01*
X730Y227D01*
X730Y225D01*
X732Y225D01*
X732Y223D01*
X734Y223D01*
X734Y221D01*
X736Y221D01*
X736Y219D01*
X738Y219D01*
X738Y217D01*
X740Y217D01*
X740Y215D01*
X742Y215D01*
X742Y213D01*
X744Y213D01*
X744Y211D01*
X746Y211D01*
X746Y209D01*
X748Y209D01*
X748Y207D01*
X750Y207D01*
X750Y205D01*
X752Y205D01*
X752Y203D01*
X754Y203D01*
X754Y201D01*
X756Y201D01*
X756Y199D01*
X758Y199D01*
X758Y197D01*
X760Y197D01*
X760Y195D01*
X762Y195D01*
X762Y193D01*
X764Y193D01*
X764Y191D01*
X766Y191D01*
X766Y189D01*
X768Y189D01*
X768Y187D01*
X770Y187D01*
X770Y185D01*
X772Y185D01*
X772Y183D01*
X774Y183D01*
X774Y181D01*
X776Y181D01*
X776Y179D01*
X778Y179D01*
X778Y177D01*
X780Y177D01*
X780Y175D01*
X782Y175D01*
X782Y173D01*
X784Y173D01*
X784Y171D01*
X786Y171D01*
X786Y169D01*
X788Y169D01*
X788Y167D01*
X790Y167D01*
X790Y165D01*
X792Y165D01*
X792Y163D01*
X794Y163D01*
X794Y161D01*
X796Y161D01*
X796Y159D01*
X798Y159D01*
X798Y157D01*
X800Y157D01*
X800Y155D01*
X802Y155D01*
X802Y153D01*
X804Y153D01*
X804Y151D01*
X806Y151D01*
X806Y149D01*
X808Y149D01*
X808Y147D01*
X810Y147D01*
X810Y145D01*
X812Y145D01*
X812Y143D01*
X986Y143D01*
X986Y145D01*
X988Y145D01*
X988Y147D01*
X990Y147D01*
X990Y149D01*
X992Y149D01*
X992Y151D01*
X994Y151D01*
X994Y153D01*
X996Y153D01*
X996Y155D01*
X998Y155D01*
X998Y157D01*
X1000Y157D01*
X1000Y159D01*
X1002Y159D01*
X1002Y161D01*
X1004Y161D01*
X1004Y163D01*
X1006Y163D01*
X1006Y165D01*
X1008Y165D01*
X1008Y167D01*
X1010Y167D01*
X1010Y169D01*
X1012Y169D01*
X1012Y171D01*
X1014Y171D01*
X1014Y173D01*
X1016Y173D01*
X1016Y175D01*
X1018Y175D01*
X1018Y177D01*
X1020Y177D01*
X1020Y179D01*
X1022Y179D01*
X1022Y181D01*
X1024Y181D01*
X1024Y183D01*
X1026Y183D01*
X1026Y185D01*
X1028Y185D01*
X1028Y187D01*
X1030Y187D01*
X1030Y189D01*
X1032Y189D01*
X1032Y191D01*
X1034Y191D01*
X1034Y193D01*
X1036Y193D01*
X1036Y195D01*
X1038Y195D01*
X1038Y197D01*
X1040Y197D01*
X1040Y199D01*
X1042Y199D01*
X1042Y201D01*
X1044Y201D01*
X1044Y203D01*
X1046Y203D01*
X1046Y205D01*
X1048Y205D01*
X1048Y207D01*
X1050Y207D01*
X1050Y209D01*
X1052Y209D01*
X1052Y211D01*
X1054Y211D01*
X1054Y213D01*
X1056Y213D01*
X1056Y215D01*
X1058Y215D01*
X1058Y217D01*
X1060Y217D01*
X1060Y219D01*
X1062Y219D01*
X1062Y221D01*
X1064Y221D01*
X1064Y223D01*
X1066Y223D01*
X1066Y225D01*
X1068Y225D01*
X1068Y227D01*
X1070Y227D01*
X1070Y229D01*
X1072Y229D01*
X1072Y231D01*
X1074Y231D01*
X1074Y233D01*
X1076Y233D01*
X1076Y235D01*
X1078Y235D01*
X1078Y249D01*
X720Y249D01*
G37*
D02*
G36*
X1334Y1136D02*
X1378Y1136D01*
X1378Y1091D01*
X1334Y1091D01*
X1334Y1136D01*
G37*
D02*
G36*
X1334Y736D02*
X1378Y736D01*
X1378Y691D01*
X1334Y691D01*
X1334Y736D01*
G37*
D02*
G36*
X1075Y475D02*
X1120Y475D01*
X1120Y433D01*
X1075Y433D01*
X1075Y475D01*
G37*
D02*
G36*
X1075Y695D02*
X1120Y695D01*
X1120Y651D01*
X1075Y651D01*
X1075Y695D01*
G37*
D02*
G36*
X1116Y736D02*
X1160Y736D01*
X1160Y691D01*
X1116Y691D01*
X1116Y736D01*
G37*
D02*
G36*
X675Y475D02*
X720Y475D01*
X720Y433D01*
X675Y433D01*
X675Y475D01*
G37*
D02*
G36*
X676Y697D02*
X719Y697D01*
X719Y651D01*
X676Y651D01*
X676Y697D01*
G37*
D02*
G36*
X636Y735D02*
X680Y735D01*
X680Y692D01*
X636Y692D01*
X636Y735D01*
G37*
D02*
G36*
X714Y735D02*
X758Y735D01*
X758Y692D01*
X714Y692D01*
X714Y735D01*
G37*
D02*
G36*
X416Y736D02*
X460Y736D01*
X460Y691D01*
X416Y691D01*
X416Y736D01*
G37*
D02*
G36*
X416Y1136D02*
X460Y1136D01*
X460Y1091D01*
X416Y1091D01*
X416Y1136D01*
G37*
D02*
G36*
X675Y1395D02*
X720Y1395D01*
X720Y1351D01*
X675Y1351D01*
X675Y1395D01*
G37*
D02*
G36*
X1075Y1395D02*
X1120Y1395D01*
X1120Y1351D01*
X1075Y1351D01*
X1075Y1395D01*
G37*
D02*
G04 End of Copper0*
M02*