G04 MADE WITH FRITZING*
G04 WWW.FRITZING.ORG*
G04 DOUBLE SIDED*
G04 HOLES PLATED*
G04 CONTOUR ON CENTER OF CONTOUR VECTOR*
%ASAXBY*%
%FSLAX23Y23*%
%MOIN*%
%OFA0B0*%
%SFA1.0B1.0*%
%ADD10C,0.085000*%
%ADD11C,0.088000*%
%ADD12C,0.096614*%
%ADD13R,0.085000X0.085000*%
%LNMASK1*%
G90*
G70*
G54D10*
X699Y1011D03*
X999Y1011D03*
X699Y911D03*
X999Y911D03*
X699Y811D03*
X999Y811D03*
X699Y711D03*
X999Y711D03*
G54D11*
X1199Y1511D03*
X1099Y1511D03*
X999Y1511D03*
X1199Y1511D03*
X1099Y1511D03*
X999Y1511D03*
X999Y1411D03*
X1099Y1411D03*
X1199Y1411D03*
X799Y1511D03*
X699Y1511D03*
X599Y1511D03*
X799Y1511D03*
X699Y1511D03*
X599Y1511D03*
X599Y1411D03*
X699Y1411D03*
X799Y1411D03*
X799Y411D03*
X699Y411D03*
X599Y411D03*
X799Y411D03*
X699Y411D03*
X599Y411D03*
X599Y311D03*
X699Y311D03*
X799Y311D03*
X1199Y411D03*
X1099Y411D03*
X999Y411D03*
X1199Y411D03*
X1099Y411D03*
X999Y411D03*
X999Y311D03*
X1099Y311D03*
X1199Y311D03*
X299Y1211D03*
X299Y1111D03*
X299Y1011D03*
X299Y1211D03*
X299Y1111D03*
X299Y1011D03*
X399Y1011D03*
X399Y1111D03*
X399Y1211D03*
X299Y811D03*
X299Y711D03*
X299Y611D03*
X299Y811D03*
X299Y711D03*
X299Y611D03*
X399Y611D03*
X399Y711D03*
X399Y811D03*
X1399Y811D03*
X1399Y711D03*
X1399Y611D03*
X1399Y811D03*
X1399Y711D03*
X1399Y611D03*
X1499Y611D03*
X1499Y711D03*
X1499Y811D03*
X1399Y1211D03*
X1399Y1111D03*
X1399Y1011D03*
X1399Y1211D03*
X1399Y1111D03*
X1399Y1011D03*
X1499Y1011D03*
X1499Y1111D03*
X1499Y1211D03*
X1099Y1011D03*
X1099Y911D03*
X1099Y811D03*
X1099Y711D03*
G54D12*
X199Y1611D03*
X199Y211D03*
G54D13*
X699Y1011D03*
G04 End of Mask1*
M02*