G04 MADE WITH FRITZING*
G04 WWW.FRITZING.ORG*
G04 DOUBLE SIDED*
G04 HOLES PLATED*
G04 CONTOUR ON CENTER OF CONTOUR VECTOR*
%ASAXBY*%
%FSLAX23Y23*%
%MOIN*%
%OFA0B0*%
%SFA1.0B1.0*%
%ADD10C,0.010000*%
%ADD11C,0.005000*%
%ADD12R,0.001000X0.001000*%
%LNSILK1*%
G90*
G70*
G54D10*
X649Y1061D02*
X649Y661D01*
D02*
X649Y661D02*
X1049Y661D01*
D02*
X1049Y661D02*
X1049Y1061D01*
D02*
X649Y1061D02*
X799Y1061D01*
D02*
X899Y1061D02*
X1049Y1061D01*
D02*
X1249Y1561D02*
X949Y1561D01*
D02*
X949Y1561D02*
X949Y1361D01*
D02*
X949Y1361D02*
X1249Y1361D01*
D02*
X1249Y1361D02*
X1249Y1561D01*
D02*
X849Y1561D02*
X549Y1561D01*
D02*
X549Y1561D02*
X549Y1361D01*
D02*
X549Y1361D02*
X849Y1361D01*
D02*
X849Y1361D02*
X849Y1561D01*
D02*
X849Y461D02*
X549Y461D01*
D02*
X549Y461D02*
X549Y261D01*
D02*
X549Y261D02*
X849Y261D01*
D02*
X849Y261D02*
X849Y461D01*
D02*
X1249Y461D02*
X949Y461D01*
D02*
X949Y461D02*
X949Y261D01*
D02*
X949Y261D02*
X1249Y261D01*
D02*
X1249Y261D02*
X1249Y461D01*
D02*
X249Y1261D02*
X249Y961D01*
D02*
X249Y961D02*
X449Y961D01*
D02*
X449Y961D02*
X449Y1261D01*
D02*
X449Y1261D02*
X249Y1261D01*
G54D11*
D02*
X249Y1226D02*
X284Y1261D01*
G54D10*
D02*
X249Y861D02*
X249Y561D01*
D02*
X249Y561D02*
X449Y561D01*
D02*
X449Y561D02*
X449Y861D01*
D02*
X449Y861D02*
X249Y861D01*
G54D11*
D02*
X249Y826D02*
X284Y861D01*
G54D10*
D02*
X1349Y861D02*
X1349Y561D01*
D02*
X1349Y561D02*
X1549Y561D01*
D02*
X1549Y561D02*
X1549Y861D01*
D02*
X1549Y861D02*
X1349Y861D01*
G54D11*
D02*
X1349Y826D02*
X1384Y861D01*
G54D10*
D02*
X1349Y1261D02*
X1349Y961D01*
D02*
X1349Y961D02*
X1549Y961D01*
D02*
X1549Y961D02*
X1549Y1261D01*
D02*
X1549Y1261D02*
X1349Y1261D01*
G54D11*
D02*
X1349Y1226D02*
X1384Y1261D01*
G54D10*
D02*
X1049Y1061D02*
X1049Y661D01*
D02*
X1049Y661D02*
X1149Y661D01*
D02*
X1149Y661D02*
X1149Y1061D01*
D02*
X1149Y1061D02*
X1049Y1061D01*
G54D11*
D02*
X1049Y1026D02*
X1084Y1061D01*
G54D12*
X0Y1811D02*
X1810Y1811D01*
X0Y1810D02*
X1810Y1810D01*
X0Y1809D02*
X1810Y1809D01*
X0Y1808D02*
X1810Y1808D01*
X0Y1807D02*
X1810Y1807D01*
X0Y1806D02*
X1810Y1806D01*
X0Y1805D02*
X1810Y1805D01*
X0Y1804D02*
X1810Y1804D01*
X0Y1803D02*
X7Y1803D01*
X1803Y1803D02*
X1810Y1803D01*
X0Y1802D02*
X7Y1802D01*
X1803Y1802D02*
X1810Y1802D01*
X0Y1801D02*
X7Y1801D01*
X1803Y1801D02*
X1810Y1801D01*
X0Y1800D02*
X7Y1800D01*
X1803Y1800D02*
X1810Y1800D01*
X0Y1799D02*
X7Y1799D01*
X1803Y1799D02*
X1810Y1799D01*
X0Y1798D02*
X7Y1798D01*
X1803Y1798D02*
X1810Y1798D01*
X0Y1797D02*
X7Y1797D01*
X1803Y1797D02*
X1810Y1797D01*
X0Y1796D02*
X7Y1796D01*
X1803Y1796D02*
X1810Y1796D01*
X0Y1795D02*
X7Y1795D01*
X1803Y1795D02*
X1810Y1795D01*
X0Y1794D02*
X7Y1794D01*
X1803Y1794D02*
X1810Y1794D01*
X0Y1793D02*
X7Y1793D01*
X1803Y1793D02*
X1810Y1793D01*
X0Y1792D02*
X7Y1792D01*
X1803Y1792D02*
X1810Y1792D01*
X0Y1791D02*
X7Y1791D01*
X1803Y1791D02*
X1810Y1791D01*
X0Y1790D02*
X7Y1790D01*
X1803Y1790D02*
X1810Y1790D01*
X0Y1789D02*
X7Y1789D01*
X1803Y1789D02*
X1810Y1789D01*
X0Y1788D02*
X7Y1788D01*
X1803Y1788D02*
X1810Y1788D01*
X0Y1787D02*
X7Y1787D01*
X1803Y1787D02*
X1810Y1787D01*
X0Y1786D02*
X7Y1786D01*
X1803Y1786D02*
X1810Y1786D01*
X0Y1785D02*
X7Y1785D01*
X1803Y1785D02*
X1810Y1785D01*
X0Y1784D02*
X7Y1784D01*
X1803Y1784D02*
X1810Y1784D01*
X0Y1783D02*
X7Y1783D01*
X1803Y1783D02*
X1810Y1783D01*
X0Y1782D02*
X7Y1782D01*
X1803Y1782D02*
X1810Y1782D01*
X0Y1781D02*
X7Y1781D01*
X1803Y1781D02*
X1810Y1781D01*
X0Y1780D02*
X7Y1780D01*
X1803Y1780D02*
X1810Y1780D01*
X0Y1779D02*
X7Y1779D01*
X1803Y1779D02*
X1810Y1779D01*
X0Y1778D02*
X7Y1778D01*
X1803Y1778D02*
X1810Y1778D01*
X0Y1777D02*
X7Y1777D01*
X1803Y1777D02*
X1810Y1777D01*
X0Y1776D02*
X7Y1776D01*
X1803Y1776D02*
X1810Y1776D01*
X0Y1775D02*
X7Y1775D01*
X1803Y1775D02*
X1810Y1775D01*
X0Y1774D02*
X7Y1774D01*
X1803Y1774D02*
X1810Y1774D01*
X0Y1773D02*
X7Y1773D01*
X1803Y1773D02*
X1810Y1773D01*
X0Y1772D02*
X7Y1772D01*
X1803Y1772D02*
X1810Y1772D01*
X0Y1771D02*
X7Y1771D01*
X1803Y1771D02*
X1810Y1771D01*
X0Y1770D02*
X7Y1770D01*
X1803Y1770D02*
X1810Y1770D01*
X0Y1769D02*
X7Y1769D01*
X1803Y1769D02*
X1810Y1769D01*
X0Y1768D02*
X7Y1768D01*
X1803Y1768D02*
X1810Y1768D01*
X0Y1767D02*
X7Y1767D01*
X1803Y1767D02*
X1810Y1767D01*
X0Y1766D02*
X7Y1766D01*
X1803Y1766D02*
X1810Y1766D01*
X0Y1765D02*
X7Y1765D01*
X1803Y1765D02*
X1810Y1765D01*
X0Y1764D02*
X7Y1764D01*
X1803Y1764D02*
X1810Y1764D01*
X0Y1763D02*
X7Y1763D01*
X1803Y1763D02*
X1810Y1763D01*
X0Y1762D02*
X7Y1762D01*
X1803Y1762D02*
X1810Y1762D01*
X0Y1761D02*
X7Y1761D01*
X1803Y1761D02*
X1810Y1761D01*
X0Y1760D02*
X7Y1760D01*
X1803Y1760D02*
X1810Y1760D01*
X0Y1759D02*
X7Y1759D01*
X1803Y1759D02*
X1810Y1759D01*
X0Y1758D02*
X7Y1758D01*
X1803Y1758D02*
X1810Y1758D01*
X0Y1757D02*
X7Y1757D01*
X1803Y1757D02*
X1810Y1757D01*
X0Y1756D02*
X7Y1756D01*
X1803Y1756D02*
X1810Y1756D01*
X0Y1755D02*
X7Y1755D01*
X1803Y1755D02*
X1810Y1755D01*
X0Y1754D02*
X7Y1754D01*
X1803Y1754D02*
X1810Y1754D01*
X0Y1753D02*
X7Y1753D01*
X1803Y1753D02*
X1810Y1753D01*
X0Y1752D02*
X7Y1752D01*
X1803Y1752D02*
X1810Y1752D01*
X0Y1751D02*
X7Y1751D01*
X1803Y1751D02*
X1810Y1751D01*
X0Y1750D02*
X7Y1750D01*
X1803Y1750D02*
X1810Y1750D01*
X0Y1749D02*
X7Y1749D01*
X1803Y1749D02*
X1810Y1749D01*
X0Y1748D02*
X7Y1748D01*
X1803Y1748D02*
X1810Y1748D01*
X0Y1747D02*
X7Y1747D01*
X1803Y1747D02*
X1810Y1747D01*
X0Y1746D02*
X7Y1746D01*
X1803Y1746D02*
X1810Y1746D01*
X0Y1745D02*
X7Y1745D01*
X1803Y1745D02*
X1810Y1745D01*
X0Y1744D02*
X7Y1744D01*
X1803Y1744D02*
X1810Y1744D01*
X0Y1743D02*
X7Y1743D01*
X1803Y1743D02*
X1810Y1743D01*
X0Y1742D02*
X7Y1742D01*
X1803Y1742D02*
X1810Y1742D01*
X0Y1741D02*
X7Y1741D01*
X1803Y1741D02*
X1810Y1741D01*
X0Y1740D02*
X7Y1740D01*
X1803Y1740D02*
X1810Y1740D01*
X0Y1739D02*
X7Y1739D01*
X1803Y1739D02*
X1810Y1739D01*
X0Y1738D02*
X7Y1738D01*
X1803Y1738D02*
X1810Y1738D01*
X0Y1737D02*
X7Y1737D01*
X1803Y1737D02*
X1810Y1737D01*
X0Y1736D02*
X7Y1736D01*
X1803Y1736D02*
X1810Y1736D01*
X0Y1735D02*
X7Y1735D01*
X1803Y1735D02*
X1810Y1735D01*
X0Y1734D02*
X7Y1734D01*
X1803Y1734D02*
X1810Y1734D01*
X0Y1733D02*
X7Y1733D01*
X1803Y1733D02*
X1810Y1733D01*
X0Y1732D02*
X7Y1732D01*
X1803Y1732D02*
X1810Y1732D01*
X0Y1731D02*
X7Y1731D01*
X1803Y1731D02*
X1810Y1731D01*
X0Y1730D02*
X7Y1730D01*
X1803Y1730D02*
X1810Y1730D01*
X0Y1729D02*
X7Y1729D01*
X1803Y1729D02*
X1810Y1729D01*
X0Y1728D02*
X7Y1728D01*
X1803Y1728D02*
X1810Y1728D01*
X0Y1727D02*
X7Y1727D01*
X1803Y1727D02*
X1810Y1727D01*
X0Y1726D02*
X7Y1726D01*
X1803Y1726D02*
X1810Y1726D01*
X0Y1725D02*
X7Y1725D01*
X1803Y1725D02*
X1810Y1725D01*
X0Y1724D02*
X7Y1724D01*
X1803Y1724D02*
X1810Y1724D01*
X0Y1723D02*
X7Y1723D01*
X1803Y1723D02*
X1810Y1723D01*
X0Y1722D02*
X7Y1722D01*
X1803Y1722D02*
X1810Y1722D01*
X0Y1721D02*
X7Y1721D01*
X1803Y1721D02*
X1810Y1721D01*
X0Y1720D02*
X7Y1720D01*
X1803Y1720D02*
X1810Y1720D01*
X0Y1719D02*
X7Y1719D01*
X1803Y1719D02*
X1810Y1719D01*
X0Y1718D02*
X7Y1718D01*
X1803Y1718D02*
X1810Y1718D01*
X0Y1717D02*
X7Y1717D01*
X1803Y1717D02*
X1810Y1717D01*
X0Y1716D02*
X7Y1716D01*
X1803Y1716D02*
X1810Y1716D01*
X0Y1715D02*
X7Y1715D01*
X1803Y1715D02*
X1810Y1715D01*
X0Y1714D02*
X7Y1714D01*
X1803Y1714D02*
X1810Y1714D01*
X0Y1713D02*
X7Y1713D01*
X1803Y1713D02*
X1810Y1713D01*
X0Y1712D02*
X7Y1712D01*
X1803Y1712D02*
X1810Y1712D01*
X0Y1711D02*
X7Y1711D01*
X1803Y1711D02*
X1810Y1711D01*
X0Y1710D02*
X7Y1710D01*
X1803Y1710D02*
X1810Y1710D01*
X0Y1709D02*
X7Y1709D01*
X1803Y1709D02*
X1810Y1709D01*
X0Y1708D02*
X7Y1708D01*
X1803Y1708D02*
X1810Y1708D01*
X0Y1707D02*
X7Y1707D01*
X1803Y1707D02*
X1810Y1707D01*
X0Y1706D02*
X7Y1706D01*
X1803Y1706D02*
X1810Y1706D01*
X0Y1705D02*
X7Y1705D01*
X1803Y1705D02*
X1810Y1705D01*
X0Y1704D02*
X7Y1704D01*
X1803Y1704D02*
X1810Y1704D01*
X0Y1703D02*
X7Y1703D01*
X1803Y1703D02*
X1810Y1703D01*
X0Y1702D02*
X7Y1702D01*
X1803Y1702D02*
X1810Y1702D01*
X0Y1701D02*
X7Y1701D01*
X1803Y1701D02*
X1810Y1701D01*
X0Y1700D02*
X7Y1700D01*
X1803Y1700D02*
X1810Y1700D01*
X0Y1699D02*
X7Y1699D01*
X1803Y1699D02*
X1810Y1699D01*
X0Y1698D02*
X7Y1698D01*
X1803Y1698D02*
X1810Y1698D01*
X0Y1697D02*
X7Y1697D01*
X1803Y1697D02*
X1810Y1697D01*
X0Y1696D02*
X7Y1696D01*
X1803Y1696D02*
X1810Y1696D01*
X0Y1695D02*
X7Y1695D01*
X1803Y1695D02*
X1810Y1695D01*
X0Y1694D02*
X7Y1694D01*
X1803Y1694D02*
X1810Y1694D01*
X0Y1693D02*
X7Y1693D01*
X1803Y1693D02*
X1810Y1693D01*
X0Y1692D02*
X7Y1692D01*
X1803Y1692D02*
X1810Y1692D01*
X0Y1691D02*
X7Y1691D01*
X1803Y1691D02*
X1810Y1691D01*
X0Y1690D02*
X7Y1690D01*
X1803Y1690D02*
X1810Y1690D01*
X0Y1689D02*
X7Y1689D01*
X1803Y1689D02*
X1810Y1689D01*
X0Y1688D02*
X7Y1688D01*
X1803Y1688D02*
X1810Y1688D01*
X0Y1687D02*
X7Y1687D01*
X1803Y1687D02*
X1810Y1687D01*
X0Y1686D02*
X7Y1686D01*
X1803Y1686D02*
X1810Y1686D01*
X0Y1685D02*
X7Y1685D01*
X1803Y1685D02*
X1810Y1685D01*
X0Y1684D02*
X7Y1684D01*
X1803Y1684D02*
X1810Y1684D01*
X0Y1683D02*
X7Y1683D01*
X1803Y1683D02*
X1810Y1683D01*
X0Y1682D02*
X7Y1682D01*
X1803Y1682D02*
X1810Y1682D01*
X0Y1681D02*
X7Y1681D01*
X1803Y1681D02*
X1810Y1681D01*
X0Y1680D02*
X7Y1680D01*
X1803Y1680D02*
X1810Y1680D01*
X0Y1679D02*
X7Y1679D01*
X1803Y1679D02*
X1810Y1679D01*
X0Y1678D02*
X7Y1678D01*
X1803Y1678D02*
X1810Y1678D01*
X0Y1677D02*
X7Y1677D01*
X1803Y1677D02*
X1810Y1677D01*
X0Y1676D02*
X7Y1676D01*
X1803Y1676D02*
X1810Y1676D01*
X0Y1675D02*
X7Y1675D01*
X1803Y1675D02*
X1810Y1675D01*
X0Y1674D02*
X7Y1674D01*
X1803Y1674D02*
X1810Y1674D01*
X0Y1673D02*
X7Y1673D01*
X1803Y1673D02*
X1810Y1673D01*
X0Y1672D02*
X7Y1672D01*
X1803Y1672D02*
X1810Y1672D01*
X0Y1671D02*
X7Y1671D01*
X1803Y1671D02*
X1810Y1671D01*
X0Y1670D02*
X7Y1670D01*
X1803Y1670D02*
X1810Y1670D01*
X0Y1669D02*
X7Y1669D01*
X1803Y1669D02*
X1810Y1669D01*
X0Y1668D02*
X7Y1668D01*
X1803Y1668D02*
X1810Y1668D01*
X0Y1667D02*
X7Y1667D01*
X1803Y1667D02*
X1810Y1667D01*
X0Y1666D02*
X7Y1666D01*
X1803Y1666D02*
X1810Y1666D01*
X0Y1665D02*
X7Y1665D01*
X1803Y1665D02*
X1810Y1665D01*
X0Y1664D02*
X7Y1664D01*
X1803Y1664D02*
X1810Y1664D01*
X0Y1663D02*
X7Y1663D01*
X1803Y1663D02*
X1810Y1663D01*
X0Y1662D02*
X7Y1662D01*
X1803Y1662D02*
X1810Y1662D01*
X0Y1661D02*
X7Y1661D01*
X1803Y1661D02*
X1810Y1661D01*
X0Y1660D02*
X7Y1660D01*
X1803Y1660D02*
X1810Y1660D01*
X0Y1659D02*
X7Y1659D01*
X1803Y1659D02*
X1810Y1659D01*
X0Y1658D02*
X7Y1658D01*
X1803Y1658D02*
X1810Y1658D01*
X0Y1657D02*
X7Y1657D01*
X1803Y1657D02*
X1810Y1657D01*
X0Y1656D02*
X7Y1656D01*
X1803Y1656D02*
X1810Y1656D01*
X0Y1655D02*
X7Y1655D01*
X1803Y1655D02*
X1810Y1655D01*
X0Y1654D02*
X7Y1654D01*
X1803Y1654D02*
X1810Y1654D01*
X0Y1653D02*
X7Y1653D01*
X1803Y1653D02*
X1810Y1653D01*
X0Y1652D02*
X7Y1652D01*
X1803Y1652D02*
X1810Y1652D01*
X0Y1651D02*
X7Y1651D01*
X1803Y1651D02*
X1810Y1651D01*
X0Y1650D02*
X7Y1650D01*
X1803Y1650D02*
X1810Y1650D01*
X0Y1649D02*
X7Y1649D01*
X1803Y1649D02*
X1810Y1649D01*
X0Y1648D02*
X7Y1648D01*
X1803Y1648D02*
X1810Y1648D01*
X0Y1647D02*
X7Y1647D01*
X1803Y1647D02*
X1810Y1647D01*
X0Y1646D02*
X7Y1646D01*
X1803Y1646D02*
X1810Y1646D01*
X0Y1645D02*
X7Y1645D01*
X1803Y1645D02*
X1810Y1645D01*
X0Y1644D02*
X7Y1644D01*
X1803Y1644D02*
X1810Y1644D01*
X0Y1643D02*
X7Y1643D01*
X1803Y1643D02*
X1810Y1643D01*
X0Y1642D02*
X7Y1642D01*
X1803Y1642D02*
X1810Y1642D01*
X0Y1641D02*
X7Y1641D01*
X1803Y1641D02*
X1810Y1641D01*
X0Y1640D02*
X7Y1640D01*
X1803Y1640D02*
X1810Y1640D01*
X0Y1639D02*
X7Y1639D01*
X1803Y1639D02*
X1810Y1639D01*
X0Y1638D02*
X7Y1638D01*
X1803Y1638D02*
X1810Y1638D01*
X0Y1637D02*
X7Y1637D01*
X1803Y1637D02*
X1810Y1637D01*
X0Y1636D02*
X7Y1636D01*
X1803Y1636D02*
X1810Y1636D01*
X0Y1635D02*
X7Y1635D01*
X1803Y1635D02*
X1810Y1635D01*
X0Y1634D02*
X7Y1634D01*
X1803Y1634D02*
X1810Y1634D01*
X0Y1633D02*
X7Y1633D01*
X1803Y1633D02*
X1810Y1633D01*
X0Y1632D02*
X7Y1632D01*
X1803Y1632D02*
X1810Y1632D01*
X0Y1631D02*
X7Y1631D01*
X1803Y1631D02*
X1810Y1631D01*
X0Y1630D02*
X7Y1630D01*
X1803Y1630D02*
X1810Y1630D01*
X0Y1629D02*
X7Y1629D01*
X1803Y1629D02*
X1810Y1629D01*
X0Y1628D02*
X7Y1628D01*
X1803Y1628D02*
X1810Y1628D01*
X0Y1627D02*
X7Y1627D01*
X1803Y1627D02*
X1810Y1627D01*
X0Y1626D02*
X7Y1626D01*
X1803Y1626D02*
X1810Y1626D01*
X0Y1625D02*
X7Y1625D01*
X1803Y1625D02*
X1810Y1625D01*
X0Y1624D02*
X7Y1624D01*
X1803Y1624D02*
X1810Y1624D01*
X0Y1623D02*
X7Y1623D01*
X1803Y1623D02*
X1810Y1623D01*
X0Y1622D02*
X7Y1622D01*
X1803Y1622D02*
X1810Y1622D01*
X0Y1621D02*
X7Y1621D01*
X1803Y1621D02*
X1810Y1621D01*
X0Y1620D02*
X7Y1620D01*
X1803Y1620D02*
X1810Y1620D01*
X0Y1619D02*
X7Y1619D01*
X1803Y1619D02*
X1810Y1619D01*
X0Y1618D02*
X7Y1618D01*
X1803Y1618D02*
X1810Y1618D01*
X0Y1617D02*
X7Y1617D01*
X1803Y1617D02*
X1810Y1617D01*
X0Y1616D02*
X7Y1616D01*
X1803Y1616D02*
X1810Y1616D01*
X0Y1615D02*
X7Y1615D01*
X1803Y1615D02*
X1810Y1615D01*
X0Y1614D02*
X7Y1614D01*
X1803Y1614D02*
X1810Y1614D01*
X0Y1613D02*
X7Y1613D01*
X1803Y1613D02*
X1810Y1613D01*
X0Y1612D02*
X7Y1612D01*
X1803Y1612D02*
X1810Y1612D01*
X0Y1611D02*
X7Y1611D01*
X1803Y1611D02*
X1810Y1611D01*
X0Y1610D02*
X7Y1610D01*
X1803Y1610D02*
X1810Y1610D01*
X0Y1609D02*
X7Y1609D01*
X1803Y1609D02*
X1810Y1609D01*
X0Y1608D02*
X7Y1608D01*
X1803Y1608D02*
X1810Y1608D01*
X0Y1607D02*
X7Y1607D01*
X1803Y1607D02*
X1810Y1607D01*
X0Y1606D02*
X7Y1606D01*
X1803Y1606D02*
X1810Y1606D01*
X0Y1605D02*
X7Y1605D01*
X1803Y1605D02*
X1810Y1605D01*
X0Y1604D02*
X7Y1604D01*
X1803Y1604D02*
X1810Y1604D01*
X0Y1603D02*
X7Y1603D01*
X1803Y1603D02*
X1810Y1603D01*
X0Y1602D02*
X7Y1602D01*
X1803Y1602D02*
X1810Y1602D01*
X0Y1601D02*
X7Y1601D01*
X1803Y1601D02*
X1810Y1601D01*
X0Y1600D02*
X7Y1600D01*
X1803Y1600D02*
X1810Y1600D01*
X0Y1599D02*
X7Y1599D01*
X1803Y1599D02*
X1810Y1599D01*
X0Y1598D02*
X7Y1598D01*
X1803Y1598D02*
X1810Y1598D01*
X0Y1597D02*
X7Y1597D01*
X1803Y1597D02*
X1810Y1597D01*
X0Y1596D02*
X7Y1596D01*
X1803Y1596D02*
X1810Y1596D01*
X0Y1595D02*
X7Y1595D01*
X1803Y1595D02*
X1810Y1595D01*
X0Y1594D02*
X7Y1594D01*
X1803Y1594D02*
X1810Y1594D01*
X0Y1593D02*
X7Y1593D01*
X1803Y1593D02*
X1810Y1593D01*
X0Y1592D02*
X7Y1592D01*
X1803Y1592D02*
X1810Y1592D01*
X0Y1591D02*
X7Y1591D01*
X1803Y1591D02*
X1810Y1591D01*
X0Y1590D02*
X7Y1590D01*
X1803Y1590D02*
X1810Y1590D01*
X0Y1589D02*
X7Y1589D01*
X1803Y1589D02*
X1810Y1589D01*
X0Y1588D02*
X7Y1588D01*
X1803Y1588D02*
X1810Y1588D01*
X0Y1587D02*
X7Y1587D01*
X1803Y1587D02*
X1810Y1587D01*
X0Y1586D02*
X7Y1586D01*
X1803Y1586D02*
X1810Y1586D01*
X0Y1585D02*
X7Y1585D01*
X1803Y1585D02*
X1810Y1585D01*
X0Y1584D02*
X7Y1584D01*
X1803Y1584D02*
X1810Y1584D01*
X0Y1583D02*
X7Y1583D01*
X1803Y1583D02*
X1810Y1583D01*
X0Y1582D02*
X7Y1582D01*
X1803Y1582D02*
X1810Y1582D01*
X0Y1581D02*
X7Y1581D01*
X1803Y1581D02*
X1810Y1581D01*
X0Y1580D02*
X7Y1580D01*
X1803Y1580D02*
X1810Y1580D01*
X0Y1579D02*
X7Y1579D01*
X1803Y1579D02*
X1810Y1579D01*
X0Y1578D02*
X7Y1578D01*
X1803Y1578D02*
X1810Y1578D01*
X0Y1577D02*
X7Y1577D01*
X1803Y1577D02*
X1810Y1577D01*
X0Y1576D02*
X7Y1576D01*
X1803Y1576D02*
X1810Y1576D01*
X0Y1575D02*
X7Y1575D01*
X1803Y1575D02*
X1810Y1575D01*
X0Y1574D02*
X7Y1574D01*
X1803Y1574D02*
X1810Y1574D01*
X0Y1573D02*
X7Y1573D01*
X1803Y1573D02*
X1810Y1573D01*
X0Y1572D02*
X7Y1572D01*
X1803Y1572D02*
X1810Y1572D01*
X0Y1571D02*
X7Y1571D01*
X1803Y1571D02*
X1810Y1571D01*
X0Y1570D02*
X7Y1570D01*
X1803Y1570D02*
X1810Y1570D01*
X0Y1569D02*
X7Y1569D01*
X1803Y1569D02*
X1810Y1569D01*
X0Y1568D02*
X7Y1568D01*
X1803Y1568D02*
X1810Y1568D01*
X0Y1567D02*
X7Y1567D01*
X1803Y1567D02*
X1810Y1567D01*
X0Y1566D02*
X7Y1566D01*
X1803Y1566D02*
X1810Y1566D01*
X0Y1565D02*
X7Y1565D01*
X1803Y1565D02*
X1810Y1565D01*
X0Y1564D02*
X7Y1564D01*
X1803Y1564D02*
X1810Y1564D01*
X0Y1563D02*
X7Y1563D01*
X1803Y1563D02*
X1810Y1563D01*
X0Y1562D02*
X7Y1562D01*
X815Y1562D02*
X816Y1562D01*
X1215Y1562D02*
X1216Y1562D01*
X1803Y1562D02*
X1810Y1562D01*
X0Y1561D02*
X7Y1561D01*
X814Y1561D02*
X817Y1561D01*
X1214Y1561D02*
X1217Y1561D01*
X1803Y1561D02*
X1810Y1561D01*
X0Y1560D02*
X7Y1560D01*
X813Y1560D02*
X818Y1560D01*
X1213Y1560D02*
X1218Y1560D01*
X1803Y1560D02*
X1810Y1560D01*
X0Y1559D02*
X7Y1559D01*
X813Y1559D02*
X819Y1559D01*
X1213Y1559D02*
X1219Y1559D01*
X1803Y1559D02*
X1810Y1559D01*
X0Y1558D02*
X7Y1558D01*
X814Y1558D02*
X820Y1558D01*
X1214Y1558D02*
X1220Y1558D01*
X1803Y1558D02*
X1810Y1558D01*
X0Y1557D02*
X7Y1557D01*
X815Y1557D02*
X821Y1557D01*
X1215Y1557D02*
X1221Y1557D01*
X1803Y1557D02*
X1810Y1557D01*
X0Y1556D02*
X7Y1556D01*
X816Y1556D02*
X822Y1556D01*
X1216Y1556D02*
X1222Y1556D01*
X1803Y1556D02*
X1810Y1556D01*
X0Y1555D02*
X7Y1555D01*
X817Y1555D02*
X823Y1555D01*
X1217Y1555D02*
X1223Y1555D01*
X1803Y1555D02*
X1810Y1555D01*
X0Y1554D02*
X7Y1554D01*
X818Y1554D02*
X824Y1554D01*
X1218Y1554D02*
X1224Y1554D01*
X1803Y1554D02*
X1810Y1554D01*
X0Y1553D02*
X7Y1553D01*
X819Y1553D02*
X825Y1553D01*
X1219Y1553D02*
X1225Y1553D01*
X1803Y1553D02*
X1810Y1553D01*
X0Y1552D02*
X7Y1552D01*
X820Y1552D02*
X826Y1552D01*
X1220Y1552D02*
X1226Y1552D01*
X1803Y1552D02*
X1810Y1552D01*
X0Y1551D02*
X7Y1551D01*
X821Y1551D02*
X827Y1551D01*
X1221Y1551D02*
X1227Y1551D01*
X1803Y1551D02*
X1810Y1551D01*
X0Y1550D02*
X7Y1550D01*
X822Y1550D02*
X828Y1550D01*
X1222Y1550D02*
X1228Y1550D01*
X1803Y1550D02*
X1810Y1550D01*
X0Y1549D02*
X7Y1549D01*
X823Y1549D02*
X829Y1549D01*
X1223Y1549D02*
X1229Y1549D01*
X1803Y1549D02*
X1810Y1549D01*
X0Y1548D02*
X7Y1548D01*
X824Y1548D02*
X830Y1548D01*
X1224Y1548D02*
X1230Y1548D01*
X1803Y1548D02*
X1810Y1548D01*
X0Y1547D02*
X7Y1547D01*
X825Y1547D02*
X831Y1547D01*
X1225Y1547D02*
X1231Y1547D01*
X1803Y1547D02*
X1810Y1547D01*
X0Y1546D02*
X7Y1546D01*
X826Y1546D02*
X832Y1546D01*
X1226Y1546D02*
X1232Y1546D01*
X1803Y1546D02*
X1810Y1546D01*
X0Y1545D02*
X7Y1545D01*
X828Y1545D02*
X833Y1545D01*
X1228Y1545D02*
X1233Y1545D01*
X1803Y1545D02*
X1810Y1545D01*
X0Y1544D02*
X7Y1544D01*
X829Y1544D02*
X834Y1544D01*
X1229Y1544D02*
X1234Y1544D01*
X1803Y1544D02*
X1810Y1544D01*
X0Y1543D02*
X7Y1543D01*
X830Y1543D02*
X835Y1543D01*
X1230Y1543D02*
X1235Y1543D01*
X1803Y1543D02*
X1810Y1543D01*
X0Y1542D02*
X7Y1542D01*
X831Y1542D02*
X836Y1542D01*
X1231Y1542D02*
X1236Y1542D01*
X1803Y1542D02*
X1810Y1542D01*
X0Y1541D02*
X7Y1541D01*
X832Y1541D02*
X837Y1541D01*
X1232Y1541D02*
X1237Y1541D01*
X1803Y1541D02*
X1810Y1541D01*
X0Y1540D02*
X7Y1540D01*
X833Y1540D02*
X838Y1540D01*
X1233Y1540D02*
X1238Y1540D01*
X1803Y1540D02*
X1810Y1540D01*
X0Y1539D02*
X7Y1539D01*
X834Y1539D02*
X839Y1539D01*
X1234Y1539D02*
X1239Y1539D01*
X1803Y1539D02*
X1810Y1539D01*
X0Y1538D02*
X7Y1538D01*
X834Y1538D02*
X840Y1538D01*
X1234Y1538D02*
X1240Y1538D01*
X1803Y1538D02*
X1810Y1538D01*
X0Y1537D02*
X7Y1537D01*
X835Y1537D02*
X841Y1537D01*
X1235Y1537D02*
X1241Y1537D01*
X1803Y1537D02*
X1810Y1537D01*
X0Y1536D02*
X7Y1536D01*
X836Y1536D02*
X842Y1536D01*
X1236Y1536D02*
X1242Y1536D01*
X1803Y1536D02*
X1810Y1536D01*
X0Y1535D02*
X7Y1535D01*
X837Y1535D02*
X843Y1535D01*
X1237Y1535D02*
X1243Y1535D01*
X1803Y1535D02*
X1810Y1535D01*
X0Y1534D02*
X7Y1534D01*
X838Y1534D02*
X844Y1534D01*
X1238Y1534D02*
X1244Y1534D01*
X1803Y1534D02*
X1810Y1534D01*
X0Y1533D02*
X7Y1533D01*
X839Y1533D02*
X845Y1533D01*
X1239Y1533D02*
X1245Y1533D01*
X1803Y1533D02*
X1810Y1533D01*
X0Y1532D02*
X7Y1532D01*
X840Y1532D02*
X846Y1532D01*
X1240Y1532D02*
X1246Y1532D01*
X1803Y1532D02*
X1810Y1532D01*
X0Y1531D02*
X7Y1531D01*
X841Y1531D02*
X847Y1531D01*
X1241Y1531D02*
X1247Y1531D01*
X1803Y1531D02*
X1810Y1531D01*
X0Y1530D02*
X7Y1530D01*
X842Y1530D02*
X848Y1530D01*
X1242Y1530D02*
X1248Y1530D01*
X1803Y1530D02*
X1810Y1530D01*
X0Y1529D02*
X7Y1529D01*
X843Y1529D02*
X849Y1529D01*
X1243Y1529D02*
X1249Y1529D01*
X1803Y1529D02*
X1810Y1529D01*
X0Y1528D02*
X7Y1528D01*
X494Y1528D02*
X505Y1528D01*
X844Y1528D02*
X850Y1528D01*
X1244Y1528D02*
X1250Y1528D01*
X1803Y1528D02*
X1810Y1528D01*
X0Y1527D02*
X7Y1527D01*
X490Y1527D02*
X507Y1527D01*
X845Y1527D02*
X849Y1527D01*
X1245Y1527D02*
X1249Y1527D01*
X1803Y1527D02*
X1810Y1527D01*
X0Y1526D02*
X7Y1526D01*
X489Y1526D02*
X508Y1526D01*
X846Y1526D02*
X848Y1526D01*
X1246Y1526D02*
X1248Y1526D01*
X1803Y1526D02*
X1810Y1526D01*
X0Y1525D02*
X7Y1525D01*
X488Y1525D02*
X508Y1525D01*
X1803Y1525D02*
X1810Y1525D01*
X0Y1524D02*
X7Y1524D01*
X487Y1524D02*
X508Y1524D01*
X1803Y1524D02*
X1810Y1524D01*
X0Y1523D02*
X7Y1523D01*
X486Y1523D02*
X508Y1523D01*
X1803Y1523D02*
X1810Y1523D01*
X0Y1522D02*
X7Y1522D01*
X485Y1522D02*
X507Y1522D01*
X1803Y1522D02*
X1810Y1522D01*
X0Y1521D02*
X7Y1521D01*
X485Y1521D02*
X494Y1521D01*
X1803Y1521D02*
X1810Y1521D01*
X0Y1520D02*
X7Y1520D01*
X485Y1520D02*
X492Y1520D01*
X1803Y1520D02*
X1810Y1520D01*
X0Y1519D02*
X7Y1519D01*
X485Y1519D02*
X491Y1519D01*
X1803Y1519D02*
X1810Y1519D01*
X0Y1518D02*
X7Y1518D01*
X485Y1518D02*
X491Y1518D01*
X1289Y1518D02*
X1301Y1518D01*
X1803Y1518D02*
X1810Y1518D01*
X0Y1517D02*
X7Y1517D01*
X484Y1517D02*
X490Y1517D01*
X1286Y1517D02*
X1303Y1517D01*
X1803Y1517D02*
X1810Y1517D01*
X0Y1516D02*
X7Y1516D01*
X484Y1516D02*
X490Y1516D01*
X1284Y1516D02*
X1304Y1516D01*
X1803Y1516D02*
X1810Y1516D01*
X0Y1515D02*
X7Y1515D01*
X484Y1515D02*
X490Y1515D01*
X1283Y1515D02*
X1304Y1515D01*
X1803Y1515D02*
X1810Y1515D01*
X0Y1514D02*
X7Y1514D01*
X484Y1514D02*
X490Y1514D01*
X1282Y1514D02*
X1304Y1514D01*
X1803Y1514D02*
X1810Y1514D01*
X0Y1513D02*
X7Y1513D01*
X484Y1513D02*
X490Y1513D01*
X1282Y1513D02*
X1303Y1513D01*
X1803Y1513D02*
X1810Y1513D01*
X0Y1512D02*
X7Y1512D01*
X484Y1512D02*
X490Y1512D01*
X1281Y1512D02*
X1303Y1512D01*
X1803Y1512D02*
X1810Y1512D01*
X0Y1511D02*
X7Y1511D01*
X484Y1511D02*
X490Y1511D01*
X1281Y1511D02*
X1289Y1511D01*
X1803Y1511D02*
X1810Y1511D01*
X0Y1510D02*
X7Y1510D01*
X485Y1510D02*
X491Y1510D01*
X1280Y1510D02*
X1287Y1510D01*
X1803Y1510D02*
X1810Y1510D01*
X0Y1509D02*
X7Y1509D01*
X485Y1509D02*
X491Y1509D01*
X1280Y1509D02*
X1286Y1509D01*
X1803Y1509D02*
X1810Y1509D01*
X0Y1508D02*
X7Y1508D01*
X485Y1508D02*
X492Y1508D01*
X1280Y1508D02*
X1286Y1508D01*
X1803Y1508D02*
X1810Y1508D01*
X0Y1507D02*
X7Y1507D01*
X485Y1507D02*
X536Y1507D01*
X1280Y1507D02*
X1286Y1507D01*
X1803Y1507D02*
X1810Y1507D01*
X0Y1506D02*
X7Y1506D01*
X486Y1506D02*
X537Y1506D01*
X1280Y1506D02*
X1286Y1506D01*
X1803Y1506D02*
X1810Y1506D01*
X0Y1505D02*
X7Y1505D01*
X486Y1505D02*
X537Y1505D01*
X1280Y1505D02*
X1286Y1505D01*
X1803Y1505D02*
X1810Y1505D01*
X0Y1504D02*
X7Y1504D01*
X487Y1504D02*
X538Y1504D01*
X1280Y1504D02*
X1286Y1504D01*
X1803Y1504D02*
X1810Y1504D01*
X0Y1503D02*
X7Y1503D01*
X488Y1503D02*
X537Y1503D01*
X1280Y1503D02*
X1286Y1503D01*
X1803Y1503D02*
X1810Y1503D01*
X0Y1502D02*
X7Y1502D01*
X489Y1502D02*
X537Y1502D01*
X1280Y1502D02*
X1286Y1502D01*
X1803Y1502D02*
X1810Y1502D01*
X0Y1501D02*
X7Y1501D01*
X492Y1501D02*
X536Y1501D01*
X1280Y1501D02*
X1286Y1501D01*
X1803Y1501D02*
X1810Y1501D01*
X0Y1500D02*
X7Y1500D01*
X1280Y1500D02*
X1286Y1500D01*
X1803Y1500D02*
X1810Y1500D01*
X0Y1499D02*
X7Y1499D01*
X1280Y1499D02*
X1287Y1499D01*
X1803Y1499D02*
X1810Y1499D01*
X0Y1498D02*
X7Y1498D01*
X1281Y1498D02*
X1288Y1498D01*
X1803Y1498D02*
X1810Y1498D01*
X0Y1497D02*
X7Y1497D01*
X1281Y1497D02*
X1332Y1497D01*
X1803Y1497D02*
X1810Y1497D01*
X0Y1496D02*
X7Y1496D01*
X1281Y1496D02*
X1333Y1496D01*
X1803Y1496D02*
X1810Y1496D01*
X0Y1495D02*
X7Y1495D01*
X1282Y1495D02*
X1333Y1495D01*
X1803Y1495D02*
X1810Y1495D01*
X0Y1494D02*
X7Y1494D01*
X1283Y1494D02*
X1333Y1494D01*
X1803Y1494D02*
X1810Y1494D01*
X0Y1493D02*
X7Y1493D01*
X1284Y1493D02*
X1333Y1493D01*
X1803Y1493D02*
X1810Y1493D01*
X0Y1492D02*
X7Y1492D01*
X1285Y1492D02*
X1333Y1492D01*
X1803Y1492D02*
X1810Y1492D01*
X0Y1491D02*
X7Y1491D01*
X1288Y1491D02*
X1331Y1491D01*
X1803Y1491D02*
X1810Y1491D01*
X0Y1490D02*
X7Y1490D01*
X1803Y1490D02*
X1810Y1490D01*
X0Y1489D02*
X7Y1489D01*
X1803Y1489D02*
X1810Y1489D01*
X0Y1488D02*
X7Y1488D01*
X1803Y1488D02*
X1810Y1488D01*
X0Y1487D02*
X7Y1487D01*
X1803Y1487D02*
X1810Y1487D01*
X0Y1486D02*
X7Y1486D01*
X1803Y1486D02*
X1810Y1486D01*
X0Y1485D02*
X7Y1485D01*
X1803Y1485D02*
X1810Y1485D01*
X0Y1484D02*
X7Y1484D01*
X1803Y1484D02*
X1810Y1484D01*
X0Y1483D02*
X7Y1483D01*
X1803Y1483D02*
X1810Y1483D01*
X0Y1482D02*
X7Y1482D01*
X1803Y1482D02*
X1810Y1482D01*
X0Y1481D02*
X7Y1481D01*
X486Y1481D02*
X538Y1481D01*
X1803Y1481D02*
X1810Y1481D01*
X0Y1480D02*
X7Y1480D01*
X485Y1480D02*
X538Y1480D01*
X1803Y1480D02*
X1810Y1480D01*
X0Y1479D02*
X7Y1479D01*
X485Y1479D02*
X538Y1479D01*
X1803Y1479D02*
X1810Y1479D01*
X0Y1478D02*
X7Y1478D01*
X485Y1478D02*
X538Y1478D01*
X1803Y1478D02*
X1810Y1478D01*
X0Y1477D02*
X7Y1477D01*
X485Y1477D02*
X538Y1477D01*
X1803Y1477D02*
X1810Y1477D01*
X0Y1476D02*
X7Y1476D01*
X485Y1476D02*
X538Y1476D01*
X1803Y1476D02*
X1810Y1476D01*
X0Y1475D02*
X7Y1475D01*
X486Y1475D02*
X538Y1475D01*
X1803Y1475D02*
X1810Y1475D01*
X0Y1474D02*
X7Y1474D01*
X525Y1474D02*
X538Y1474D01*
X1803Y1474D02*
X1810Y1474D01*
X0Y1473D02*
X7Y1473D01*
X523Y1473D02*
X538Y1473D01*
X1803Y1473D02*
X1810Y1473D01*
X0Y1472D02*
X7Y1472D01*
X520Y1472D02*
X537Y1472D01*
X1803Y1472D02*
X1810Y1472D01*
X0Y1471D02*
X7Y1471D01*
X518Y1471D02*
X535Y1471D01*
X1282Y1471D02*
X1333Y1471D01*
X1803Y1471D02*
X1810Y1471D01*
X0Y1470D02*
X7Y1470D01*
X516Y1470D02*
X532Y1470D01*
X1281Y1470D02*
X1333Y1470D01*
X1803Y1470D02*
X1810Y1470D01*
X0Y1469D02*
X7Y1469D01*
X514Y1469D02*
X530Y1469D01*
X1280Y1469D02*
X1333Y1469D01*
X1803Y1469D02*
X1810Y1469D01*
X0Y1468D02*
X7Y1468D01*
X511Y1468D02*
X528Y1468D01*
X1280Y1468D02*
X1333Y1468D01*
X1803Y1468D02*
X1810Y1468D01*
X0Y1467D02*
X7Y1467D01*
X509Y1467D02*
X526Y1467D01*
X1280Y1467D02*
X1333Y1467D01*
X1803Y1467D02*
X1810Y1467D01*
X0Y1466D02*
X7Y1466D01*
X507Y1466D02*
X523Y1466D01*
X1281Y1466D02*
X1333Y1466D01*
X1803Y1466D02*
X1810Y1466D01*
X0Y1465D02*
X7Y1465D01*
X504Y1465D02*
X521Y1465D01*
X1282Y1465D02*
X1333Y1465D01*
X1803Y1465D02*
X1810Y1465D01*
X0Y1464D02*
X7Y1464D01*
X502Y1464D02*
X519Y1464D01*
X1320Y1464D02*
X1333Y1464D01*
X1803Y1464D02*
X1810Y1464D01*
X0Y1463D02*
X7Y1463D01*
X500Y1463D02*
X517Y1463D01*
X1318Y1463D02*
X1333Y1463D01*
X1803Y1463D02*
X1810Y1463D01*
X0Y1462D02*
X7Y1462D01*
X498Y1462D02*
X514Y1462D01*
X1316Y1462D02*
X1332Y1462D01*
X1803Y1462D02*
X1810Y1462D01*
X0Y1461D02*
X7Y1461D01*
X495Y1461D02*
X512Y1461D01*
X1314Y1461D02*
X1330Y1461D01*
X1803Y1461D02*
X1810Y1461D01*
X0Y1460D02*
X7Y1460D01*
X493Y1460D02*
X510Y1460D01*
X1311Y1460D02*
X1328Y1460D01*
X1803Y1460D02*
X1810Y1460D01*
X0Y1459D02*
X7Y1459D01*
X491Y1459D02*
X507Y1459D01*
X1309Y1459D02*
X1326Y1459D01*
X1803Y1459D02*
X1810Y1459D01*
X0Y1458D02*
X7Y1458D01*
X489Y1458D02*
X505Y1458D01*
X1307Y1458D02*
X1323Y1458D01*
X1803Y1458D02*
X1810Y1458D01*
X0Y1457D02*
X7Y1457D01*
X486Y1457D02*
X503Y1457D01*
X1304Y1457D02*
X1321Y1457D01*
X1803Y1457D02*
X1810Y1457D01*
X0Y1456D02*
X7Y1456D01*
X485Y1456D02*
X501Y1456D01*
X1302Y1456D02*
X1319Y1456D01*
X1803Y1456D02*
X1810Y1456D01*
X0Y1455D02*
X7Y1455D01*
X484Y1455D02*
X498Y1455D01*
X1300Y1455D02*
X1317Y1455D01*
X1803Y1455D02*
X1810Y1455D01*
X0Y1454D02*
X7Y1454D01*
X484Y1454D02*
X497Y1454D01*
X1298Y1454D02*
X1314Y1454D01*
X1803Y1454D02*
X1810Y1454D01*
X0Y1453D02*
X7Y1453D01*
X484Y1453D02*
X536Y1453D01*
X1295Y1453D02*
X1312Y1453D01*
X1803Y1453D02*
X1810Y1453D01*
X0Y1452D02*
X7Y1452D01*
X484Y1452D02*
X537Y1452D01*
X1293Y1452D02*
X1310Y1452D01*
X1803Y1452D02*
X1810Y1452D01*
X0Y1451D02*
X7Y1451D01*
X484Y1451D02*
X538Y1451D01*
X1291Y1451D02*
X1307Y1451D01*
X1803Y1451D02*
X1810Y1451D01*
X0Y1450D02*
X7Y1450D01*
X484Y1450D02*
X538Y1450D01*
X1289Y1450D02*
X1305Y1450D01*
X1803Y1450D02*
X1810Y1450D01*
X0Y1449D02*
X7Y1449D01*
X484Y1449D02*
X537Y1449D01*
X1286Y1449D02*
X1303Y1449D01*
X1803Y1449D02*
X1810Y1449D01*
X0Y1448D02*
X7Y1448D01*
X484Y1448D02*
X537Y1448D01*
X1284Y1448D02*
X1301Y1448D01*
X1803Y1448D02*
X1810Y1448D01*
X0Y1447D02*
X7Y1447D01*
X485Y1447D02*
X535Y1447D01*
X1282Y1447D02*
X1298Y1447D01*
X1803Y1447D02*
X1810Y1447D01*
X0Y1446D02*
X7Y1446D01*
X1280Y1446D02*
X1296Y1446D01*
X1803Y1446D02*
X1810Y1446D01*
X0Y1445D02*
X7Y1445D01*
X1280Y1445D02*
X1294Y1445D01*
X1803Y1445D02*
X1810Y1445D01*
X0Y1444D02*
X7Y1444D01*
X1280Y1444D02*
X1330Y1444D01*
X1803Y1444D02*
X1810Y1444D01*
X0Y1443D02*
X7Y1443D01*
X1280Y1443D02*
X1332Y1443D01*
X1803Y1443D02*
X1810Y1443D01*
X0Y1442D02*
X7Y1442D01*
X1280Y1442D02*
X1333Y1442D01*
X1803Y1442D02*
X1810Y1442D01*
X0Y1441D02*
X7Y1441D01*
X1280Y1441D02*
X1333Y1441D01*
X1803Y1441D02*
X1810Y1441D01*
X0Y1440D02*
X7Y1440D01*
X1280Y1440D02*
X1333Y1440D01*
X1803Y1440D02*
X1810Y1440D01*
X0Y1439D02*
X7Y1439D01*
X1280Y1439D02*
X1333Y1439D01*
X1803Y1439D02*
X1810Y1439D01*
X0Y1438D02*
X7Y1438D01*
X1280Y1438D02*
X1332Y1438D01*
X1803Y1438D02*
X1810Y1438D01*
X0Y1437D02*
X7Y1437D01*
X1803Y1437D02*
X1810Y1437D01*
X0Y1436D02*
X7Y1436D01*
X1803Y1436D02*
X1810Y1436D01*
X0Y1435D02*
X7Y1435D01*
X1803Y1435D02*
X1810Y1435D01*
X0Y1434D02*
X7Y1434D01*
X1803Y1434D02*
X1810Y1434D01*
X0Y1433D02*
X7Y1433D01*
X1803Y1433D02*
X1810Y1433D01*
X0Y1432D02*
X7Y1432D01*
X1803Y1432D02*
X1810Y1432D01*
X0Y1431D02*
X7Y1431D01*
X486Y1431D02*
X538Y1431D01*
X1803Y1431D02*
X1810Y1431D01*
X0Y1430D02*
X7Y1430D01*
X485Y1430D02*
X538Y1430D01*
X1803Y1430D02*
X1810Y1430D01*
X0Y1429D02*
X7Y1429D01*
X485Y1429D02*
X538Y1429D01*
X1803Y1429D02*
X1810Y1429D01*
X0Y1428D02*
X7Y1428D01*
X485Y1428D02*
X538Y1428D01*
X1803Y1428D02*
X1810Y1428D01*
X0Y1427D02*
X7Y1427D01*
X485Y1427D02*
X538Y1427D01*
X1803Y1427D02*
X1810Y1427D01*
X0Y1426D02*
X7Y1426D01*
X485Y1426D02*
X538Y1426D01*
X1803Y1426D02*
X1810Y1426D01*
X0Y1425D02*
X7Y1425D01*
X486Y1425D02*
X538Y1425D01*
X1803Y1425D02*
X1810Y1425D01*
X0Y1424D02*
X7Y1424D01*
X514Y1424D02*
X520Y1424D01*
X532Y1424D02*
X538Y1424D01*
X1803Y1424D02*
X1810Y1424D01*
X0Y1423D02*
X7Y1423D01*
X514Y1423D02*
X520Y1423D01*
X532Y1423D02*
X538Y1423D01*
X1803Y1423D02*
X1810Y1423D01*
X0Y1422D02*
X7Y1422D01*
X514Y1422D02*
X520Y1422D01*
X532Y1422D02*
X538Y1422D01*
X1803Y1422D02*
X1810Y1422D01*
X0Y1421D02*
X7Y1421D01*
X514Y1421D02*
X520Y1421D01*
X532Y1421D02*
X538Y1421D01*
X1282Y1421D02*
X1333Y1421D01*
X1803Y1421D02*
X1810Y1421D01*
X0Y1420D02*
X7Y1420D01*
X514Y1420D02*
X520Y1420D01*
X532Y1420D02*
X538Y1420D01*
X1281Y1420D02*
X1333Y1420D01*
X1803Y1420D02*
X1810Y1420D01*
X0Y1419D02*
X7Y1419D01*
X514Y1419D02*
X520Y1419D01*
X532Y1419D02*
X538Y1419D01*
X1280Y1419D02*
X1333Y1419D01*
X1803Y1419D02*
X1810Y1419D01*
X0Y1418D02*
X7Y1418D01*
X514Y1418D02*
X520Y1418D01*
X532Y1418D02*
X538Y1418D01*
X1280Y1418D02*
X1333Y1418D01*
X1803Y1418D02*
X1810Y1418D01*
X0Y1417D02*
X7Y1417D01*
X514Y1417D02*
X520Y1417D01*
X532Y1417D02*
X538Y1417D01*
X1280Y1417D02*
X1333Y1417D01*
X1803Y1417D02*
X1810Y1417D01*
X0Y1416D02*
X7Y1416D01*
X514Y1416D02*
X520Y1416D01*
X532Y1416D02*
X538Y1416D01*
X1281Y1416D02*
X1333Y1416D01*
X1803Y1416D02*
X1810Y1416D01*
X0Y1415D02*
X7Y1415D01*
X514Y1415D02*
X520Y1415D01*
X532Y1415D02*
X538Y1415D01*
X1282Y1415D02*
X1333Y1415D01*
X1803Y1415D02*
X1810Y1415D01*
X0Y1414D02*
X7Y1414D01*
X514Y1414D02*
X520Y1414D01*
X532Y1414D02*
X538Y1414D01*
X1324Y1414D02*
X1333Y1414D01*
X1803Y1414D02*
X1810Y1414D01*
X0Y1413D02*
X7Y1413D01*
X514Y1413D02*
X520Y1413D01*
X532Y1413D02*
X538Y1413D01*
X1322Y1413D02*
X1333Y1413D01*
X1803Y1413D02*
X1810Y1413D01*
X0Y1412D02*
X7Y1412D01*
X514Y1412D02*
X520Y1412D01*
X532Y1412D02*
X538Y1412D01*
X1321Y1412D02*
X1332Y1412D01*
X1803Y1412D02*
X1810Y1412D01*
X0Y1411D02*
X7Y1411D01*
X514Y1411D02*
X520Y1411D01*
X532Y1411D02*
X538Y1411D01*
X1319Y1411D02*
X1331Y1411D01*
X1803Y1411D02*
X1810Y1411D01*
X0Y1410D02*
X7Y1410D01*
X514Y1410D02*
X520Y1410D01*
X532Y1410D02*
X538Y1410D01*
X1318Y1410D02*
X1329Y1410D01*
X1803Y1410D02*
X1810Y1410D01*
X0Y1409D02*
X7Y1409D01*
X514Y1409D02*
X520Y1409D01*
X532Y1409D02*
X538Y1409D01*
X1317Y1409D02*
X1328Y1409D01*
X1803Y1409D02*
X1810Y1409D01*
X0Y1408D02*
X7Y1408D01*
X514Y1408D02*
X520Y1408D01*
X532Y1408D02*
X538Y1408D01*
X1315Y1408D02*
X1326Y1408D01*
X1803Y1408D02*
X1810Y1408D01*
X0Y1407D02*
X7Y1407D01*
X514Y1407D02*
X520Y1407D01*
X532Y1407D02*
X538Y1407D01*
X1311Y1407D02*
X1325Y1407D01*
X1803Y1407D02*
X1810Y1407D01*
X0Y1406D02*
X7Y1406D01*
X514Y1406D02*
X520Y1406D01*
X532Y1406D02*
X538Y1406D01*
X1310Y1406D02*
X1324Y1406D01*
X1803Y1406D02*
X1810Y1406D01*
X0Y1405D02*
X7Y1405D01*
X515Y1405D02*
X519Y1405D01*
X532Y1405D02*
X538Y1405D01*
X1310Y1405D02*
X1322Y1405D01*
X1803Y1405D02*
X1810Y1405D01*
X0Y1404D02*
X7Y1404D01*
X517Y1404D02*
X517Y1404D01*
X532Y1404D02*
X538Y1404D01*
X1310Y1404D02*
X1322Y1404D01*
X1803Y1404D02*
X1810Y1404D01*
X0Y1403D02*
X7Y1403D01*
X532Y1403D02*
X538Y1403D01*
X1310Y1403D02*
X1323Y1403D01*
X1803Y1403D02*
X1810Y1403D01*
X0Y1402D02*
X7Y1402D01*
X532Y1402D02*
X538Y1402D01*
X1311Y1402D02*
X1324Y1402D01*
X1803Y1402D02*
X1810Y1402D01*
X0Y1401D02*
X7Y1401D01*
X532Y1401D02*
X538Y1401D01*
X1312Y1401D02*
X1326Y1401D01*
X1803Y1401D02*
X1810Y1401D01*
X0Y1400D02*
X7Y1400D01*
X532Y1400D02*
X538Y1400D01*
X1316Y1400D02*
X1327Y1400D01*
X1803Y1400D02*
X1810Y1400D01*
X0Y1399D02*
X7Y1399D01*
X532Y1399D02*
X537Y1399D01*
X1318Y1399D02*
X1329Y1399D01*
X1803Y1399D02*
X1810Y1399D01*
X0Y1398D02*
X7Y1398D01*
X533Y1398D02*
X537Y1398D01*
X1319Y1398D02*
X1330Y1398D01*
X1803Y1398D02*
X1810Y1398D01*
X0Y1397D02*
X7Y1397D01*
X535Y1397D02*
X535Y1397D01*
X1320Y1397D02*
X1332Y1397D01*
X1803Y1397D02*
X1810Y1397D01*
X0Y1396D02*
X7Y1396D01*
X1322Y1396D02*
X1333Y1396D01*
X1803Y1396D02*
X1810Y1396D01*
X0Y1395D02*
X7Y1395D01*
X1323Y1395D02*
X1333Y1395D01*
X1803Y1395D02*
X1810Y1395D01*
X0Y1394D02*
X7Y1394D01*
X1284Y1394D02*
X1333Y1394D01*
X1803Y1394D02*
X1810Y1394D01*
X0Y1393D02*
X7Y1393D01*
X1281Y1393D02*
X1333Y1393D01*
X1803Y1393D02*
X1810Y1393D01*
X0Y1392D02*
X7Y1392D01*
X1281Y1392D02*
X1333Y1392D01*
X1803Y1392D02*
X1810Y1392D01*
X0Y1391D02*
X7Y1391D01*
X1280Y1391D02*
X1333Y1391D01*
X1803Y1391D02*
X1810Y1391D01*
X0Y1390D02*
X7Y1390D01*
X1280Y1390D02*
X1333Y1390D01*
X1803Y1390D02*
X1810Y1390D01*
X0Y1389D02*
X7Y1389D01*
X1281Y1389D02*
X1333Y1389D01*
X1803Y1389D02*
X1810Y1389D01*
X0Y1388D02*
X7Y1388D01*
X1281Y1388D02*
X1333Y1388D01*
X1803Y1388D02*
X1810Y1388D01*
X0Y1387D02*
X7Y1387D01*
X1803Y1387D02*
X1810Y1387D01*
X0Y1386D02*
X7Y1386D01*
X1803Y1386D02*
X1810Y1386D01*
X0Y1385D02*
X7Y1385D01*
X1803Y1385D02*
X1810Y1385D01*
X0Y1384D02*
X7Y1384D01*
X1803Y1384D02*
X1810Y1384D01*
X0Y1383D02*
X7Y1383D01*
X1803Y1383D02*
X1810Y1383D01*
X0Y1382D02*
X7Y1382D01*
X1803Y1382D02*
X1810Y1382D01*
X0Y1381D02*
X7Y1381D01*
X486Y1381D02*
X489Y1381D01*
X533Y1381D02*
X536Y1381D01*
X1803Y1381D02*
X1810Y1381D01*
X0Y1380D02*
X7Y1380D01*
X485Y1380D02*
X490Y1380D01*
X532Y1380D02*
X537Y1380D01*
X1803Y1380D02*
X1810Y1380D01*
X0Y1379D02*
X7Y1379D01*
X485Y1379D02*
X490Y1379D01*
X532Y1379D02*
X537Y1379D01*
X1803Y1379D02*
X1810Y1379D01*
X0Y1378D02*
X7Y1378D01*
X484Y1378D02*
X490Y1378D01*
X532Y1378D02*
X538Y1378D01*
X1803Y1378D02*
X1810Y1378D01*
X0Y1377D02*
X7Y1377D01*
X484Y1377D02*
X490Y1377D01*
X532Y1377D02*
X538Y1377D01*
X1803Y1377D02*
X1810Y1377D01*
X0Y1376D02*
X7Y1376D01*
X484Y1376D02*
X490Y1376D01*
X532Y1376D02*
X538Y1376D01*
X1803Y1376D02*
X1810Y1376D01*
X0Y1375D02*
X7Y1375D01*
X484Y1375D02*
X490Y1375D01*
X532Y1375D02*
X538Y1375D01*
X1803Y1375D02*
X1810Y1375D01*
X0Y1374D02*
X7Y1374D01*
X484Y1374D02*
X490Y1374D01*
X532Y1374D02*
X538Y1374D01*
X1803Y1374D02*
X1810Y1374D01*
X0Y1373D02*
X7Y1373D01*
X484Y1373D02*
X490Y1373D01*
X532Y1373D02*
X538Y1373D01*
X1803Y1373D02*
X1810Y1373D01*
X0Y1372D02*
X7Y1372D01*
X484Y1372D02*
X490Y1372D01*
X532Y1372D02*
X538Y1372D01*
X1803Y1372D02*
X1810Y1372D01*
X0Y1371D02*
X7Y1371D01*
X484Y1371D02*
X490Y1371D01*
X532Y1371D02*
X538Y1371D01*
X1282Y1371D02*
X1285Y1371D01*
X1329Y1371D02*
X1332Y1371D01*
X1803Y1371D02*
X1810Y1371D01*
X0Y1370D02*
X7Y1370D01*
X484Y1370D02*
X490Y1370D01*
X532Y1370D02*
X538Y1370D01*
X1281Y1370D02*
X1286Y1370D01*
X1328Y1370D02*
X1333Y1370D01*
X1803Y1370D02*
X1810Y1370D01*
X0Y1369D02*
X7Y1369D01*
X484Y1369D02*
X490Y1369D01*
X532Y1369D02*
X538Y1369D01*
X1280Y1369D02*
X1286Y1369D01*
X1327Y1369D02*
X1333Y1369D01*
X1803Y1369D02*
X1810Y1369D01*
X0Y1368D02*
X7Y1368D01*
X484Y1368D02*
X491Y1368D01*
X531Y1368D02*
X538Y1368D01*
X1280Y1368D02*
X1286Y1368D01*
X1327Y1368D02*
X1333Y1368D01*
X1803Y1368D02*
X1810Y1368D01*
X0Y1367D02*
X7Y1367D01*
X484Y1367D02*
X538Y1367D01*
X1280Y1367D02*
X1286Y1367D01*
X1327Y1367D02*
X1333Y1367D01*
X1803Y1367D02*
X1810Y1367D01*
X0Y1366D02*
X7Y1366D01*
X484Y1366D02*
X538Y1366D01*
X1280Y1366D02*
X1286Y1366D01*
X1327Y1366D02*
X1333Y1366D01*
X1803Y1366D02*
X1810Y1366D01*
X0Y1365D02*
X7Y1365D01*
X484Y1365D02*
X538Y1365D01*
X1280Y1365D02*
X1286Y1365D01*
X1327Y1365D02*
X1333Y1365D01*
X1803Y1365D02*
X1810Y1365D01*
X0Y1364D02*
X7Y1364D01*
X484Y1364D02*
X538Y1364D01*
X1280Y1364D02*
X1286Y1364D01*
X1327Y1364D02*
X1333Y1364D01*
X1803Y1364D02*
X1810Y1364D01*
X0Y1363D02*
X7Y1363D01*
X484Y1363D02*
X538Y1363D01*
X1280Y1363D02*
X1286Y1363D01*
X1327Y1363D02*
X1333Y1363D01*
X1803Y1363D02*
X1810Y1363D01*
X0Y1362D02*
X7Y1362D01*
X484Y1362D02*
X538Y1362D01*
X1280Y1362D02*
X1286Y1362D01*
X1327Y1362D02*
X1333Y1362D01*
X1803Y1362D02*
X1810Y1362D01*
X0Y1361D02*
X7Y1361D01*
X484Y1361D02*
X537Y1361D01*
X1280Y1361D02*
X1286Y1361D01*
X1327Y1361D02*
X1333Y1361D01*
X1803Y1361D02*
X1810Y1361D01*
X0Y1360D02*
X7Y1360D01*
X484Y1360D02*
X490Y1360D01*
X1280Y1360D02*
X1286Y1360D01*
X1327Y1360D02*
X1333Y1360D01*
X1803Y1360D02*
X1810Y1360D01*
X0Y1359D02*
X7Y1359D01*
X484Y1359D02*
X490Y1359D01*
X1280Y1359D02*
X1286Y1359D01*
X1327Y1359D02*
X1333Y1359D01*
X1803Y1359D02*
X1810Y1359D01*
X0Y1358D02*
X7Y1358D01*
X484Y1358D02*
X490Y1358D01*
X1280Y1358D02*
X1286Y1358D01*
X1327Y1358D02*
X1333Y1358D01*
X1803Y1358D02*
X1810Y1358D01*
X0Y1357D02*
X7Y1357D01*
X484Y1357D02*
X490Y1357D01*
X1280Y1357D02*
X1333Y1357D01*
X1803Y1357D02*
X1810Y1357D01*
X0Y1356D02*
X7Y1356D01*
X484Y1356D02*
X490Y1356D01*
X1280Y1356D02*
X1333Y1356D01*
X1803Y1356D02*
X1810Y1356D01*
X0Y1355D02*
X7Y1355D01*
X484Y1355D02*
X490Y1355D01*
X1280Y1355D02*
X1333Y1355D01*
X1803Y1355D02*
X1810Y1355D01*
X0Y1354D02*
X7Y1354D01*
X484Y1354D02*
X491Y1354D01*
X1280Y1354D02*
X1333Y1354D01*
X1803Y1354D02*
X1810Y1354D01*
X0Y1353D02*
X7Y1353D01*
X484Y1353D02*
X507Y1353D01*
X1280Y1353D02*
X1333Y1353D01*
X1803Y1353D02*
X1810Y1353D01*
X0Y1352D02*
X7Y1352D01*
X484Y1352D02*
X508Y1352D01*
X1280Y1352D02*
X1333Y1352D01*
X1803Y1352D02*
X1810Y1352D01*
X0Y1351D02*
X7Y1351D01*
X484Y1351D02*
X508Y1351D01*
X1280Y1351D02*
X1333Y1351D01*
X1803Y1351D02*
X1810Y1351D01*
X0Y1350D02*
X7Y1350D01*
X485Y1350D02*
X508Y1350D01*
X1280Y1350D02*
X1286Y1350D01*
X1803Y1350D02*
X1810Y1350D01*
X0Y1349D02*
X7Y1349D01*
X485Y1349D02*
X508Y1349D01*
X1280Y1349D02*
X1286Y1349D01*
X1803Y1349D02*
X1810Y1349D01*
X0Y1348D02*
X7Y1348D01*
X486Y1348D02*
X507Y1348D01*
X1280Y1348D02*
X1286Y1348D01*
X1803Y1348D02*
X1810Y1348D01*
X0Y1347D02*
X7Y1347D01*
X488Y1347D02*
X505Y1347D01*
X1280Y1347D02*
X1286Y1347D01*
X1803Y1347D02*
X1810Y1347D01*
X0Y1346D02*
X7Y1346D01*
X315Y1346D02*
X317Y1346D01*
X341Y1346D02*
X343Y1346D01*
X369Y1346D02*
X371Y1346D01*
X389Y1346D02*
X397Y1346D01*
X415Y1346D02*
X423Y1346D01*
X441Y1346D02*
X459Y1346D01*
X1280Y1346D02*
X1286Y1346D01*
X1415Y1346D02*
X1417Y1346D01*
X1439Y1346D02*
X1471Y1346D01*
X1489Y1346D02*
X1521Y1346D01*
X1541Y1346D02*
X1559Y1346D01*
X1803Y1346D02*
X1810Y1346D01*
X0Y1345D02*
X7Y1345D01*
X314Y1345D02*
X319Y1345D01*
X340Y1345D02*
X344Y1345D01*
X367Y1345D02*
X372Y1345D01*
X389Y1345D02*
X398Y1345D01*
X414Y1345D02*
X423Y1345D01*
X440Y1345D02*
X459Y1345D01*
X1280Y1345D02*
X1286Y1345D01*
X1414Y1345D02*
X1419Y1345D01*
X1439Y1345D02*
X1472Y1345D01*
X1489Y1345D02*
X1522Y1345D01*
X1540Y1345D02*
X1559Y1345D01*
X1803Y1345D02*
X1810Y1345D01*
X0Y1344D02*
X7Y1344D01*
X313Y1344D02*
X319Y1344D01*
X339Y1344D02*
X345Y1344D01*
X367Y1344D02*
X373Y1344D01*
X389Y1344D02*
X399Y1344D01*
X413Y1344D02*
X423Y1344D01*
X439Y1344D02*
X459Y1344D01*
X1280Y1344D02*
X1300Y1344D01*
X1413Y1344D02*
X1419Y1344D01*
X1439Y1344D02*
X1473Y1344D01*
X1489Y1344D02*
X1523Y1344D01*
X1539Y1344D02*
X1559Y1344D01*
X1803Y1344D02*
X1810Y1344D01*
X0Y1343D02*
X7Y1343D01*
X313Y1343D02*
X319Y1343D01*
X339Y1343D02*
X345Y1343D01*
X367Y1343D02*
X373Y1343D01*
X389Y1343D02*
X399Y1343D01*
X412Y1343D02*
X423Y1343D01*
X439Y1343D02*
X459Y1343D01*
X1280Y1343D02*
X1303Y1343D01*
X1413Y1343D02*
X1419Y1343D01*
X1439Y1343D02*
X1473Y1343D01*
X1489Y1343D02*
X1523Y1343D01*
X1539Y1343D02*
X1559Y1343D01*
X1803Y1343D02*
X1810Y1343D01*
X0Y1342D02*
X7Y1342D01*
X313Y1342D02*
X319Y1342D01*
X339Y1342D02*
X345Y1342D01*
X367Y1342D02*
X373Y1342D01*
X389Y1342D02*
X400Y1342D01*
X412Y1342D02*
X423Y1342D01*
X439Y1342D02*
X459Y1342D01*
X1280Y1342D02*
X1304Y1342D01*
X1413Y1342D02*
X1419Y1342D01*
X1439Y1342D02*
X1473Y1342D01*
X1489Y1342D02*
X1523Y1342D01*
X1539Y1342D02*
X1559Y1342D01*
X1803Y1342D02*
X1810Y1342D01*
X0Y1341D02*
X7Y1341D01*
X313Y1341D02*
X319Y1341D01*
X339Y1341D02*
X345Y1341D01*
X367Y1341D02*
X373Y1341D01*
X389Y1341D02*
X401Y1341D01*
X411Y1341D02*
X423Y1341D01*
X440Y1341D02*
X459Y1341D01*
X1280Y1341D02*
X1304Y1341D01*
X1413Y1341D02*
X1419Y1341D01*
X1439Y1341D02*
X1472Y1341D01*
X1489Y1341D02*
X1522Y1341D01*
X1540Y1341D02*
X1559Y1341D01*
X1803Y1341D02*
X1810Y1341D01*
X0Y1340D02*
X7Y1340D01*
X313Y1340D02*
X319Y1340D01*
X339Y1340D02*
X345Y1340D01*
X367Y1340D02*
X373Y1340D01*
X389Y1340D02*
X402Y1340D01*
X410Y1340D02*
X423Y1340D01*
X441Y1340D02*
X459Y1340D01*
X1280Y1340D02*
X1304Y1340D01*
X1413Y1340D02*
X1419Y1340D01*
X1439Y1340D02*
X1471Y1340D01*
X1489Y1340D02*
X1521Y1340D01*
X1541Y1340D02*
X1559Y1340D01*
X1803Y1340D02*
X1810Y1340D01*
X0Y1339D02*
X7Y1339D01*
X313Y1339D02*
X319Y1339D01*
X339Y1339D02*
X345Y1339D01*
X367Y1339D02*
X373Y1339D01*
X389Y1339D02*
X402Y1339D01*
X410Y1339D02*
X423Y1339D01*
X453Y1339D02*
X459Y1339D01*
X1281Y1339D02*
X1303Y1339D01*
X1413Y1339D02*
X1419Y1339D01*
X1439Y1339D02*
X1445Y1339D01*
X1489Y1339D02*
X1495Y1339D01*
X1553Y1339D02*
X1559Y1339D01*
X1803Y1339D02*
X1810Y1339D01*
X0Y1338D02*
X7Y1338D01*
X313Y1338D02*
X319Y1338D01*
X339Y1338D02*
X345Y1338D01*
X367Y1338D02*
X373Y1338D01*
X389Y1338D02*
X403Y1338D01*
X409Y1338D02*
X423Y1338D01*
X453Y1338D02*
X459Y1338D01*
X1281Y1338D02*
X1303Y1338D01*
X1413Y1338D02*
X1419Y1338D01*
X1439Y1338D02*
X1445Y1338D01*
X1489Y1338D02*
X1495Y1338D01*
X1553Y1338D02*
X1559Y1338D01*
X1803Y1338D02*
X1810Y1338D01*
X0Y1337D02*
X7Y1337D01*
X313Y1337D02*
X319Y1337D01*
X339Y1337D02*
X345Y1337D01*
X367Y1337D02*
X373Y1337D01*
X389Y1337D02*
X404Y1337D01*
X408Y1337D02*
X423Y1337D01*
X453Y1337D02*
X459Y1337D01*
X1413Y1337D02*
X1419Y1337D01*
X1439Y1337D02*
X1445Y1337D01*
X1489Y1337D02*
X1495Y1337D01*
X1553Y1337D02*
X1559Y1337D01*
X1803Y1337D02*
X1810Y1337D01*
X0Y1336D02*
X7Y1336D01*
X313Y1336D02*
X319Y1336D01*
X339Y1336D02*
X345Y1336D01*
X367Y1336D02*
X373Y1336D01*
X389Y1336D02*
X395Y1336D01*
X397Y1336D02*
X404Y1336D01*
X408Y1336D02*
X415Y1336D01*
X417Y1336D02*
X423Y1336D01*
X453Y1336D02*
X459Y1336D01*
X1413Y1336D02*
X1419Y1336D01*
X1439Y1336D02*
X1445Y1336D01*
X1489Y1336D02*
X1495Y1336D01*
X1553Y1336D02*
X1559Y1336D01*
X1803Y1336D02*
X1810Y1336D01*
X0Y1335D02*
X7Y1335D01*
X313Y1335D02*
X319Y1335D01*
X339Y1335D02*
X345Y1335D01*
X367Y1335D02*
X373Y1335D01*
X389Y1335D02*
X395Y1335D01*
X397Y1335D02*
X405Y1335D01*
X407Y1335D02*
X414Y1335D01*
X417Y1335D02*
X423Y1335D01*
X453Y1335D02*
X459Y1335D01*
X1413Y1335D02*
X1419Y1335D01*
X1439Y1335D02*
X1445Y1335D01*
X1489Y1335D02*
X1495Y1335D01*
X1553Y1335D02*
X1559Y1335D01*
X1803Y1335D02*
X1810Y1335D01*
X0Y1334D02*
X7Y1334D01*
X313Y1334D02*
X319Y1334D01*
X339Y1334D02*
X345Y1334D01*
X367Y1334D02*
X373Y1334D01*
X389Y1334D02*
X395Y1334D01*
X398Y1334D02*
X414Y1334D01*
X417Y1334D02*
X423Y1334D01*
X453Y1334D02*
X459Y1334D01*
X1413Y1334D02*
X1419Y1334D01*
X1439Y1334D02*
X1445Y1334D01*
X1489Y1334D02*
X1495Y1334D01*
X1553Y1334D02*
X1559Y1334D01*
X1803Y1334D02*
X1810Y1334D01*
X0Y1333D02*
X7Y1333D01*
X313Y1333D02*
X319Y1333D01*
X339Y1333D02*
X345Y1333D01*
X367Y1333D02*
X373Y1333D01*
X389Y1333D02*
X395Y1333D01*
X399Y1333D02*
X413Y1333D01*
X417Y1333D02*
X423Y1333D01*
X453Y1333D02*
X459Y1333D01*
X1413Y1333D02*
X1419Y1333D01*
X1439Y1333D02*
X1445Y1333D01*
X1489Y1333D02*
X1495Y1333D01*
X1553Y1333D02*
X1559Y1333D01*
X1803Y1333D02*
X1810Y1333D01*
X0Y1332D02*
X7Y1332D01*
X313Y1332D02*
X319Y1332D01*
X339Y1332D02*
X345Y1332D01*
X367Y1332D02*
X373Y1332D01*
X389Y1332D02*
X395Y1332D01*
X400Y1332D02*
X412Y1332D01*
X417Y1332D02*
X423Y1332D01*
X453Y1332D02*
X459Y1332D01*
X1413Y1332D02*
X1419Y1332D01*
X1439Y1332D02*
X1445Y1332D01*
X1489Y1332D02*
X1495Y1332D01*
X1553Y1332D02*
X1559Y1332D01*
X1803Y1332D02*
X1810Y1332D01*
X0Y1331D02*
X7Y1331D01*
X313Y1331D02*
X319Y1331D01*
X339Y1331D02*
X345Y1331D01*
X367Y1331D02*
X373Y1331D01*
X389Y1331D02*
X395Y1331D01*
X400Y1331D02*
X412Y1331D01*
X417Y1331D02*
X423Y1331D01*
X453Y1331D02*
X459Y1331D01*
X1413Y1331D02*
X1419Y1331D01*
X1439Y1331D02*
X1445Y1331D01*
X1489Y1331D02*
X1495Y1331D01*
X1553Y1331D02*
X1559Y1331D01*
X1803Y1331D02*
X1810Y1331D01*
X0Y1330D02*
X7Y1330D01*
X313Y1330D02*
X319Y1330D01*
X339Y1330D02*
X345Y1330D01*
X367Y1330D02*
X373Y1330D01*
X389Y1330D02*
X395Y1330D01*
X401Y1330D02*
X411Y1330D01*
X417Y1330D02*
X423Y1330D01*
X453Y1330D02*
X459Y1330D01*
X1413Y1330D02*
X1419Y1330D01*
X1439Y1330D02*
X1445Y1330D01*
X1489Y1330D02*
X1495Y1330D01*
X1553Y1330D02*
X1559Y1330D01*
X1803Y1330D02*
X1810Y1330D01*
X0Y1329D02*
X7Y1329D01*
X313Y1329D02*
X319Y1329D01*
X339Y1329D02*
X345Y1329D01*
X367Y1329D02*
X373Y1329D01*
X389Y1329D02*
X395Y1329D01*
X402Y1329D02*
X410Y1329D01*
X417Y1329D02*
X423Y1329D01*
X453Y1329D02*
X459Y1329D01*
X1413Y1329D02*
X1419Y1329D01*
X1439Y1329D02*
X1445Y1329D01*
X1489Y1329D02*
X1495Y1329D01*
X1553Y1329D02*
X1559Y1329D01*
X1803Y1329D02*
X1810Y1329D01*
X0Y1328D02*
X7Y1328D01*
X313Y1328D02*
X319Y1328D01*
X339Y1328D02*
X345Y1328D01*
X354Y1328D02*
X358Y1328D01*
X367Y1328D02*
X373Y1328D01*
X389Y1328D02*
X395Y1328D01*
X402Y1328D02*
X410Y1328D01*
X417Y1328D02*
X423Y1328D01*
X453Y1328D02*
X459Y1328D01*
X1413Y1328D02*
X1419Y1328D01*
X1439Y1328D02*
X1445Y1328D01*
X1489Y1328D02*
X1515Y1328D01*
X1553Y1328D02*
X1559Y1328D01*
X1803Y1328D02*
X1810Y1328D01*
X0Y1327D02*
X7Y1327D01*
X313Y1327D02*
X319Y1327D01*
X339Y1327D02*
X345Y1327D01*
X353Y1327D02*
X358Y1327D01*
X367Y1327D02*
X373Y1327D01*
X389Y1327D02*
X395Y1327D01*
X403Y1327D02*
X409Y1327D01*
X417Y1327D02*
X423Y1327D01*
X453Y1327D02*
X459Y1327D01*
X1413Y1327D02*
X1419Y1327D01*
X1439Y1327D02*
X1445Y1327D01*
X1489Y1327D02*
X1515Y1327D01*
X1553Y1327D02*
X1559Y1327D01*
X1803Y1327D02*
X1810Y1327D01*
X0Y1326D02*
X7Y1326D01*
X313Y1326D02*
X319Y1326D01*
X339Y1326D02*
X345Y1326D01*
X353Y1326D02*
X359Y1326D01*
X367Y1326D02*
X373Y1326D01*
X389Y1326D02*
X395Y1326D01*
X403Y1326D02*
X409Y1326D01*
X417Y1326D02*
X423Y1326D01*
X453Y1326D02*
X459Y1326D01*
X1413Y1326D02*
X1419Y1326D01*
X1439Y1326D02*
X1445Y1326D01*
X1489Y1326D02*
X1516Y1326D01*
X1553Y1326D02*
X1559Y1326D01*
X1803Y1326D02*
X1810Y1326D01*
X0Y1325D02*
X7Y1325D01*
X313Y1325D02*
X319Y1325D01*
X339Y1325D02*
X345Y1325D01*
X353Y1325D02*
X359Y1325D01*
X367Y1325D02*
X373Y1325D01*
X389Y1325D02*
X395Y1325D01*
X403Y1325D02*
X409Y1325D01*
X417Y1325D02*
X423Y1325D01*
X453Y1325D02*
X459Y1325D01*
X1413Y1325D02*
X1419Y1325D01*
X1439Y1325D02*
X1445Y1325D01*
X1489Y1325D02*
X1516Y1325D01*
X1553Y1325D02*
X1559Y1325D01*
X1803Y1325D02*
X1810Y1325D01*
X0Y1324D02*
X7Y1324D01*
X313Y1324D02*
X319Y1324D01*
X339Y1324D02*
X345Y1324D01*
X353Y1324D02*
X359Y1324D01*
X367Y1324D02*
X373Y1324D01*
X389Y1324D02*
X395Y1324D01*
X403Y1324D02*
X409Y1324D01*
X417Y1324D02*
X423Y1324D01*
X453Y1324D02*
X459Y1324D01*
X1413Y1324D02*
X1419Y1324D01*
X1439Y1324D02*
X1445Y1324D01*
X1489Y1324D02*
X1516Y1324D01*
X1553Y1324D02*
X1559Y1324D01*
X1803Y1324D02*
X1810Y1324D01*
X0Y1323D02*
X7Y1323D01*
X313Y1323D02*
X319Y1323D01*
X339Y1323D02*
X345Y1323D01*
X353Y1323D02*
X359Y1323D01*
X367Y1323D02*
X373Y1323D01*
X389Y1323D02*
X395Y1323D01*
X404Y1323D02*
X408Y1323D01*
X417Y1323D02*
X423Y1323D01*
X453Y1323D02*
X459Y1323D01*
X1413Y1323D02*
X1419Y1323D01*
X1439Y1323D02*
X1446Y1323D01*
X1489Y1323D02*
X1515Y1323D01*
X1553Y1323D02*
X1559Y1323D01*
X1803Y1323D02*
X1810Y1323D01*
X0Y1322D02*
X7Y1322D01*
X313Y1322D02*
X319Y1322D01*
X339Y1322D02*
X345Y1322D01*
X353Y1322D02*
X359Y1322D01*
X367Y1322D02*
X373Y1322D01*
X389Y1322D02*
X395Y1322D01*
X405Y1322D02*
X406Y1322D01*
X417Y1322D02*
X423Y1322D01*
X453Y1322D02*
X459Y1322D01*
X1413Y1322D02*
X1419Y1322D01*
X1439Y1322D02*
X1458Y1322D01*
X1489Y1322D02*
X1513Y1322D01*
X1553Y1322D02*
X1559Y1322D01*
X1803Y1322D02*
X1810Y1322D01*
X0Y1321D02*
X7Y1321D01*
X313Y1321D02*
X319Y1321D01*
X339Y1321D02*
X345Y1321D01*
X353Y1321D02*
X359Y1321D01*
X367Y1321D02*
X373Y1321D01*
X389Y1321D02*
X395Y1321D01*
X417Y1321D02*
X423Y1321D01*
X453Y1321D02*
X459Y1321D01*
X1413Y1321D02*
X1419Y1321D01*
X1439Y1321D02*
X1459Y1321D01*
X1489Y1321D02*
X1495Y1321D01*
X1553Y1321D02*
X1559Y1321D01*
X1803Y1321D02*
X1810Y1321D01*
X0Y1320D02*
X7Y1320D01*
X313Y1320D02*
X319Y1320D01*
X339Y1320D02*
X345Y1320D01*
X353Y1320D02*
X359Y1320D01*
X367Y1320D02*
X373Y1320D01*
X389Y1320D02*
X395Y1320D01*
X417Y1320D02*
X423Y1320D01*
X453Y1320D02*
X459Y1320D01*
X1413Y1320D02*
X1419Y1320D01*
X1439Y1320D02*
X1459Y1320D01*
X1489Y1320D02*
X1495Y1320D01*
X1553Y1320D02*
X1559Y1320D01*
X1803Y1320D02*
X1810Y1320D01*
X0Y1319D02*
X7Y1319D01*
X313Y1319D02*
X319Y1319D01*
X339Y1319D02*
X345Y1319D01*
X353Y1319D02*
X359Y1319D01*
X367Y1319D02*
X373Y1319D01*
X389Y1319D02*
X395Y1319D01*
X417Y1319D02*
X423Y1319D01*
X453Y1319D02*
X459Y1319D01*
X1413Y1319D02*
X1419Y1319D01*
X1439Y1319D02*
X1459Y1319D01*
X1489Y1319D02*
X1495Y1319D01*
X1553Y1319D02*
X1559Y1319D01*
X1803Y1319D02*
X1810Y1319D01*
X0Y1318D02*
X7Y1318D01*
X313Y1318D02*
X319Y1318D01*
X339Y1318D02*
X345Y1318D01*
X353Y1318D02*
X359Y1318D01*
X367Y1318D02*
X373Y1318D01*
X389Y1318D02*
X395Y1318D01*
X417Y1318D02*
X423Y1318D01*
X453Y1318D02*
X459Y1318D01*
X1413Y1318D02*
X1419Y1318D01*
X1439Y1318D02*
X1459Y1318D01*
X1489Y1318D02*
X1495Y1318D01*
X1553Y1318D02*
X1559Y1318D01*
X1803Y1318D02*
X1810Y1318D01*
X0Y1317D02*
X7Y1317D01*
X296Y1317D02*
X296Y1317D01*
X313Y1317D02*
X319Y1317D01*
X339Y1317D02*
X345Y1317D01*
X353Y1317D02*
X359Y1317D01*
X367Y1317D02*
X373Y1317D01*
X389Y1317D02*
X395Y1317D01*
X417Y1317D02*
X423Y1317D01*
X453Y1317D02*
X459Y1317D01*
X470Y1317D02*
X470Y1317D01*
X1396Y1317D02*
X1396Y1317D01*
X1413Y1317D02*
X1419Y1317D01*
X1439Y1317D02*
X1458Y1317D01*
X1489Y1317D02*
X1495Y1317D01*
X1553Y1317D02*
X1559Y1317D01*
X1570Y1317D02*
X1570Y1317D01*
X1803Y1317D02*
X1810Y1317D01*
X0Y1316D02*
X7Y1316D01*
X294Y1316D02*
X298Y1316D01*
X313Y1316D02*
X319Y1316D01*
X339Y1316D02*
X345Y1316D01*
X353Y1316D02*
X359Y1316D01*
X367Y1316D02*
X373Y1316D01*
X389Y1316D02*
X395Y1316D01*
X417Y1316D02*
X423Y1316D01*
X453Y1316D02*
X459Y1316D01*
X468Y1316D02*
X472Y1316D01*
X1394Y1316D02*
X1398Y1316D01*
X1413Y1316D02*
X1419Y1316D01*
X1439Y1316D02*
X1456Y1316D01*
X1489Y1316D02*
X1495Y1316D01*
X1553Y1316D02*
X1559Y1316D01*
X1568Y1316D02*
X1572Y1316D01*
X1803Y1316D02*
X1810Y1316D01*
X0Y1315D02*
X7Y1315D01*
X293Y1315D02*
X298Y1315D01*
X313Y1315D02*
X319Y1315D01*
X339Y1315D02*
X345Y1315D01*
X353Y1315D02*
X359Y1315D01*
X367Y1315D02*
X373Y1315D01*
X389Y1315D02*
X395Y1315D01*
X417Y1315D02*
X423Y1315D01*
X453Y1315D02*
X459Y1315D01*
X467Y1315D02*
X472Y1315D01*
X1393Y1315D02*
X1398Y1315D01*
X1413Y1315D02*
X1419Y1315D01*
X1439Y1315D02*
X1445Y1315D01*
X1489Y1315D02*
X1495Y1315D01*
X1553Y1315D02*
X1559Y1315D01*
X1567Y1315D02*
X1572Y1315D01*
X1803Y1315D02*
X1810Y1315D01*
X0Y1314D02*
X7Y1314D01*
X293Y1314D02*
X299Y1314D01*
X313Y1314D02*
X319Y1314D01*
X339Y1314D02*
X345Y1314D01*
X353Y1314D02*
X359Y1314D01*
X367Y1314D02*
X373Y1314D01*
X389Y1314D02*
X395Y1314D01*
X417Y1314D02*
X423Y1314D01*
X453Y1314D02*
X459Y1314D01*
X467Y1314D02*
X473Y1314D01*
X1393Y1314D02*
X1399Y1314D01*
X1413Y1314D02*
X1419Y1314D01*
X1439Y1314D02*
X1445Y1314D01*
X1489Y1314D02*
X1495Y1314D01*
X1553Y1314D02*
X1559Y1314D01*
X1567Y1314D02*
X1573Y1314D01*
X1803Y1314D02*
X1810Y1314D01*
X0Y1313D02*
X7Y1313D01*
X293Y1313D02*
X299Y1313D01*
X313Y1313D02*
X319Y1313D01*
X339Y1313D02*
X345Y1313D01*
X353Y1313D02*
X359Y1313D01*
X367Y1313D02*
X373Y1313D01*
X389Y1313D02*
X395Y1313D01*
X417Y1313D02*
X423Y1313D01*
X453Y1313D02*
X459Y1313D01*
X467Y1313D02*
X473Y1313D01*
X1393Y1313D02*
X1399Y1313D01*
X1413Y1313D02*
X1419Y1313D01*
X1439Y1313D02*
X1445Y1313D01*
X1489Y1313D02*
X1495Y1313D01*
X1553Y1313D02*
X1559Y1313D01*
X1567Y1313D02*
X1573Y1313D01*
X1803Y1313D02*
X1810Y1313D01*
X0Y1312D02*
X7Y1312D01*
X293Y1312D02*
X299Y1312D01*
X313Y1312D02*
X319Y1312D01*
X339Y1312D02*
X345Y1312D01*
X353Y1312D02*
X359Y1312D01*
X367Y1312D02*
X373Y1312D01*
X389Y1312D02*
X395Y1312D01*
X417Y1312D02*
X423Y1312D01*
X453Y1312D02*
X459Y1312D01*
X467Y1312D02*
X473Y1312D01*
X1393Y1312D02*
X1399Y1312D01*
X1413Y1312D02*
X1419Y1312D01*
X1439Y1312D02*
X1445Y1312D01*
X1489Y1312D02*
X1495Y1312D01*
X1553Y1312D02*
X1559Y1312D01*
X1567Y1312D02*
X1573Y1312D01*
X1803Y1312D02*
X1810Y1312D01*
X0Y1311D02*
X7Y1311D01*
X293Y1311D02*
X299Y1311D01*
X313Y1311D02*
X319Y1311D01*
X339Y1311D02*
X345Y1311D01*
X353Y1311D02*
X359Y1311D01*
X367Y1311D02*
X373Y1311D01*
X389Y1311D02*
X395Y1311D01*
X417Y1311D02*
X423Y1311D01*
X453Y1311D02*
X459Y1311D01*
X467Y1311D02*
X473Y1311D01*
X1393Y1311D02*
X1399Y1311D01*
X1413Y1311D02*
X1419Y1311D01*
X1439Y1311D02*
X1445Y1311D01*
X1489Y1311D02*
X1495Y1311D01*
X1553Y1311D02*
X1559Y1311D01*
X1567Y1311D02*
X1573Y1311D01*
X1803Y1311D02*
X1810Y1311D01*
X0Y1310D02*
X7Y1310D01*
X293Y1310D02*
X299Y1310D01*
X313Y1310D02*
X319Y1310D01*
X339Y1310D02*
X345Y1310D01*
X353Y1310D02*
X359Y1310D01*
X367Y1310D02*
X373Y1310D01*
X389Y1310D02*
X395Y1310D01*
X417Y1310D02*
X423Y1310D01*
X453Y1310D02*
X459Y1310D01*
X467Y1310D02*
X473Y1310D01*
X1393Y1310D02*
X1399Y1310D01*
X1413Y1310D02*
X1419Y1310D01*
X1439Y1310D02*
X1445Y1310D01*
X1489Y1310D02*
X1495Y1310D01*
X1553Y1310D02*
X1559Y1310D01*
X1567Y1310D02*
X1573Y1310D01*
X1803Y1310D02*
X1810Y1310D01*
X0Y1309D02*
X7Y1309D01*
X293Y1309D02*
X299Y1309D01*
X313Y1309D02*
X319Y1309D01*
X339Y1309D02*
X345Y1309D01*
X353Y1309D02*
X359Y1309D01*
X367Y1309D02*
X373Y1309D01*
X389Y1309D02*
X395Y1309D01*
X417Y1309D02*
X423Y1309D01*
X453Y1309D02*
X459Y1309D01*
X467Y1309D02*
X473Y1309D01*
X1393Y1309D02*
X1399Y1309D01*
X1413Y1309D02*
X1419Y1309D01*
X1439Y1309D02*
X1445Y1309D01*
X1489Y1309D02*
X1495Y1309D01*
X1553Y1309D02*
X1559Y1309D01*
X1567Y1309D02*
X1573Y1309D01*
X1803Y1309D02*
X1810Y1309D01*
X0Y1308D02*
X7Y1308D01*
X293Y1308D02*
X299Y1308D01*
X313Y1308D02*
X319Y1308D01*
X339Y1308D02*
X345Y1308D01*
X353Y1308D02*
X359Y1308D01*
X367Y1308D02*
X373Y1308D01*
X389Y1308D02*
X395Y1308D01*
X417Y1308D02*
X423Y1308D01*
X453Y1308D02*
X459Y1308D01*
X467Y1308D02*
X473Y1308D01*
X1393Y1308D02*
X1399Y1308D01*
X1413Y1308D02*
X1419Y1308D01*
X1439Y1308D02*
X1445Y1308D01*
X1489Y1308D02*
X1495Y1308D01*
X1553Y1308D02*
X1559Y1308D01*
X1567Y1308D02*
X1573Y1308D01*
X1803Y1308D02*
X1810Y1308D01*
X0Y1307D02*
X7Y1307D01*
X293Y1307D02*
X299Y1307D01*
X313Y1307D02*
X319Y1307D01*
X339Y1307D02*
X345Y1307D01*
X353Y1307D02*
X359Y1307D01*
X367Y1307D02*
X373Y1307D01*
X389Y1307D02*
X395Y1307D01*
X417Y1307D02*
X423Y1307D01*
X453Y1307D02*
X459Y1307D01*
X467Y1307D02*
X473Y1307D01*
X1393Y1307D02*
X1399Y1307D01*
X1413Y1307D02*
X1419Y1307D01*
X1439Y1307D02*
X1445Y1307D01*
X1489Y1307D02*
X1495Y1307D01*
X1553Y1307D02*
X1559Y1307D01*
X1567Y1307D02*
X1573Y1307D01*
X1803Y1307D02*
X1810Y1307D01*
X0Y1306D02*
X7Y1306D01*
X293Y1306D02*
X299Y1306D01*
X313Y1306D02*
X319Y1306D01*
X339Y1306D02*
X345Y1306D01*
X353Y1306D02*
X359Y1306D01*
X367Y1306D02*
X373Y1306D01*
X389Y1306D02*
X395Y1306D01*
X417Y1306D02*
X423Y1306D01*
X453Y1306D02*
X459Y1306D01*
X467Y1306D02*
X473Y1306D01*
X1393Y1306D02*
X1399Y1306D01*
X1413Y1306D02*
X1419Y1306D01*
X1439Y1306D02*
X1445Y1306D01*
X1489Y1306D02*
X1495Y1306D01*
X1553Y1306D02*
X1559Y1306D01*
X1567Y1306D02*
X1573Y1306D01*
X1803Y1306D02*
X1810Y1306D01*
X0Y1305D02*
X7Y1305D01*
X293Y1305D02*
X299Y1305D01*
X313Y1305D02*
X319Y1305D01*
X339Y1305D02*
X345Y1305D01*
X353Y1305D02*
X359Y1305D01*
X367Y1305D02*
X373Y1305D01*
X389Y1305D02*
X395Y1305D01*
X417Y1305D02*
X423Y1305D01*
X453Y1305D02*
X459Y1305D01*
X467Y1305D02*
X473Y1305D01*
X1393Y1305D02*
X1399Y1305D01*
X1413Y1305D02*
X1419Y1305D01*
X1439Y1305D02*
X1445Y1305D01*
X1489Y1305D02*
X1495Y1305D01*
X1553Y1305D02*
X1559Y1305D01*
X1567Y1305D02*
X1573Y1305D01*
X1803Y1305D02*
X1810Y1305D01*
X0Y1304D02*
X7Y1304D01*
X293Y1304D02*
X299Y1304D01*
X313Y1304D02*
X319Y1304D01*
X339Y1304D02*
X345Y1304D01*
X353Y1304D02*
X359Y1304D01*
X367Y1304D02*
X373Y1304D01*
X389Y1304D02*
X395Y1304D01*
X417Y1304D02*
X423Y1304D01*
X453Y1304D02*
X459Y1304D01*
X467Y1304D02*
X473Y1304D01*
X1393Y1304D02*
X1399Y1304D01*
X1413Y1304D02*
X1419Y1304D01*
X1439Y1304D02*
X1445Y1304D01*
X1489Y1304D02*
X1495Y1304D01*
X1553Y1304D02*
X1559Y1304D01*
X1567Y1304D02*
X1573Y1304D01*
X1803Y1304D02*
X1810Y1304D01*
X0Y1303D02*
X7Y1303D01*
X293Y1303D02*
X299Y1303D01*
X313Y1303D02*
X319Y1303D01*
X339Y1303D02*
X345Y1303D01*
X353Y1303D02*
X359Y1303D01*
X367Y1303D02*
X373Y1303D01*
X389Y1303D02*
X395Y1303D01*
X417Y1303D02*
X423Y1303D01*
X453Y1303D02*
X459Y1303D01*
X467Y1303D02*
X473Y1303D01*
X1393Y1303D02*
X1399Y1303D01*
X1413Y1303D02*
X1419Y1303D01*
X1439Y1303D02*
X1445Y1303D01*
X1489Y1303D02*
X1495Y1303D01*
X1553Y1303D02*
X1559Y1303D01*
X1567Y1303D02*
X1573Y1303D01*
X1803Y1303D02*
X1810Y1303D01*
X0Y1302D02*
X7Y1302D01*
X293Y1302D02*
X299Y1302D01*
X313Y1302D02*
X319Y1302D01*
X339Y1302D02*
X346Y1302D01*
X352Y1302D02*
X359Y1302D01*
X366Y1302D02*
X373Y1302D01*
X389Y1302D02*
X395Y1302D01*
X417Y1302D02*
X423Y1302D01*
X453Y1302D02*
X459Y1302D01*
X467Y1302D02*
X473Y1302D01*
X1393Y1302D02*
X1399Y1302D01*
X1413Y1302D02*
X1419Y1302D01*
X1439Y1302D02*
X1445Y1302D01*
X1489Y1302D02*
X1495Y1302D01*
X1553Y1302D02*
X1559Y1302D01*
X1567Y1302D02*
X1573Y1302D01*
X1803Y1302D02*
X1810Y1302D01*
X0Y1301D02*
X7Y1301D01*
X293Y1301D02*
X299Y1301D01*
X313Y1301D02*
X319Y1301D01*
X339Y1301D02*
X346Y1301D01*
X352Y1301D02*
X360Y1301D01*
X366Y1301D02*
X373Y1301D01*
X389Y1301D02*
X395Y1301D01*
X417Y1301D02*
X423Y1301D01*
X453Y1301D02*
X459Y1301D01*
X467Y1301D02*
X473Y1301D01*
X1393Y1301D02*
X1399Y1301D01*
X1413Y1301D02*
X1419Y1301D01*
X1439Y1301D02*
X1445Y1301D01*
X1489Y1301D02*
X1495Y1301D01*
X1553Y1301D02*
X1559Y1301D01*
X1567Y1301D02*
X1573Y1301D01*
X1803Y1301D02*
X1810Y1301D01*
X0Y1300D02*
X7Y1300D01*
X293Y1300D02*
X300Y1300D01*
X312Y1300D02*
X319Y1300D01*
X340Y1300D02*
X347Y1300D01*
X351Y1300D02*
X361Y1300D01*
X365Y1300D02*
X372Y1300D01*
X389Y1300D02*
X395Y1300D01*
X417Y1300D02*
X423Y1300D01*
X453Y1300D02*
X459Y1300D01*
X467Y1300D02*
X473Y1300D01*
X1393Y1300D02*
X1400Y1300D01*
X1412Y1300D02*
X1419Y1300D01*
X1439Y1300D02*
X1445Y1300D01*
X1489Y1300D02*
X1495Y1300D01*
X1553Y1300D02*
X1559Y1300D01*
X1567Y1300D02*
X1573Y1300D01*
X1803Y1300D02*
X1810Y1300D01*
X0Y1299D02*
X7Y1299D01*
X293Y1299D02*
X319Y1299D01*
X340Y1299D02*
X372Y1299D01*
X389Y1299D02*
X395Y1299D01*
X417Y1299D02*
X423Y1299D01*
X441Y1299D02*
X473Y1299D01*
X1393Y1299D02*
X1419Y1299D01*
X1439Y1299D02*
X1471Y1299D01*
X1489Y1299D02*
X1495Y1299D01*
X1541Y1299D02*
X1573Y1299D01*
X1803Y1299D02*
X1810Y1299D01*
X0Y1298D02*
X7Y1298D01*
X294Y1298D02*
X318Y1298D01*
X341Y1298D02*
X371Y1298D01*
X389Y1298D02*
X395Y1298D01*
X417Y1298D02*
X423Y1298D01*
X440Y1298D02*
X473Y1298D01*
X1394Y1298D02*
X1418Y1298D01*
X1439Y1298D02*
X1472Y1298D01*
X1489Y1298D02*
X1495Y1298D01*
X1540Y1298D02*
X1573Y1298D01*
X1803Y1298D02*
X1810Y1298D01*
X0Y1297D02*
X7Y1297D01*
X294Y1297D02*
X317Y1297D01*
X341Y1297D02*
X371Y1297D01*
X389Y1297D02*
X395Y1297D01*
X417Y1297D02*
X423Y1297D01*
X439Y1297D02*
X473Y1297D01*
X1394Y1297D02*
X1417Y1297D01*
X1439Y1297D02*
X1473Y1297D01*
X1489Y1297D02*
X1495Y1297D01*
X1539Y1297D02*
X1573Y1297D01*
X1803Y1297D02*
X1810Y1297D01*
X0Y1296D02*
X7Y1296D01*
X295Y1296D02*
X317Y1296D01*
X342Y1296D02*
X370Y1296D01*
X389Y1296D02*
X395Y1296D01*
X417Y1296D02*
X423Y1296D01*
X439Y1296D02*
X473Y1296D01*
X1395Y1296D02*
X1417Y1296D01*
X1439Y1296D02*
X1473Y1296D01*
X1489Y1296D02*
X1495Y1296D01*
X1539Y1296D02*
X1573Y1296D01*
X1803Y1296D02*
X1810Y1296D01*
X0Y1295D02*
X7Y1295D01*
X296Y1295D02*
X316Y1295D01*
X343Y1295D02*
X369Y1295D01*
X389Y1295D02*
X395Y1295D01*
X417Y1295D02*
X423Y1295D01*
X439Y1295D02*
X473Y1295D01*
X1396Y1295D02*
X1416Y1295D01*
X1439Y1295D02*
X1473Y1295D01*
X1489Y1295D02*
X1495Y1295D01*
X1539Y1295D02*
X1573Y1295D01*
X1803Y1295D02*
X1810Y1295D01*
X0Y1294D02*
X7Y1294D01*
X298Y1294D02*
X314Y1294D01*
X343Y1294D02*
X355Y1294D01*
X357Y1294D02*
X369Y1294D01*
X390Y1294D02*
X395Y1294D01*
X417Y1294D02*
X422Y1294D01*
X440Y1294D02*
X472Y1294D01*
X1398Y1294D02*
X1414Y1294D01*
X1439Y1294D02*
X1472Y1294D01*
X1490Y1294D02*
X1495Y1294D01*
X1540Y1294D02*
X1572Y1294D01*
X1803Y1294D02*
X1810Y1294D01*
X0Y1293D02*
X7Y1293D01*
X300Y1293D02*
X312Y1293D01*
X344Y1293D02*
X354Y1293D01*
X358Y1293D02*
X368Y1293D01*
X391Y1293D02*
X394Y1293D01*
X418Y1293D02*
X421Y1293D01*
X441Y1293D02*
X471Y1293D01*
X1400Y1293D02*
X1412Y1293D01*
X1439Y1293D02*
X1471Y1293D01*
X1491Y1293D02*
X1494Y1293D01*
X1541Y1293D02*
X1571Y1293D01*
X1803Y1293D02*
X1810Y1293D01*
X0Y1292D02*
X7Y1292D01*
X1803Y1292D02*
X1810Y1292D01*
X0Y1291D02*
X7Y1291D01*
X1803Y1291D02*
X1810Y1291D01*
X0Y1290D02*
X7Y1290D01*
X1803Y1290D02*
X1810Y1290D01*
X0Y1289D02*
X7Y1289D01*
X1803Y1289D02*
X1810Y1289D01*
X0Y1288D02*
X7Y1288D01*
X1803Y1288D02*
X1810Y1288D01*
X0Y1287D02*
X7Y1287D01*
X1803Y1287D02*
X1810Y1287D01*
X0Y1286D02*
X7Y1286D01*
X1803Y1286D02*
X1810Y1286D01*
X0Y1285D02*
X7Y1285D01*
X1803Y1285D02*
X1810Y1285D01*
X0Y1284D02*
X7Y1284D01*
X1803Y1284D02*
X1810Y1284D01*
X0Y1283D02*
X7Y1283D01*
X1803Y1283D02*
X1810Y1283D01*
X0Y1282D02*
X7Y1282D01*
X1803Y1282D02*
X1810Y1282D01*
X0Y1281D02*
X7Y1281D01*
X1803Y1281D02*
X1810Y1281D01*
X0Y1280D02*
X7Y1280D01*
X1803Y1280D02*
X1810Y1280D01*
X0Y1279D02*
X7Y1279D01*
X1803Y1279D02*
X1810Y1279D01*
X0Y1278D02*
X7Y1278D01*
X1803Y1278D02*
X1810Y1278D01*
X0Y1277D02*
X7Y1277D01*
X1803Y1277D02*
X1810Y1277D01*
X0Y1276D02*
X7Y1276D01*
X1803Y1276D02*
X1810Y1276D01*
X0Y1275D02*
X7Y1275D01*
X1803Y1275D02*
X1810Y1275D01*
X0Y1274D02*
X7Y1274D01*
X1803Y1274D02*
X1810Y1274D01*
X0Y1273D02*
X7Y1273D01*
X1803Y1273D02*
X1810Y1273D01*
X0Y1272D02*
X7Y1272D01*
X1803Y1272D02*
X1810Y1272D01*
X0Y1271D02*
X7Y1271D01*
X1803Y1271D02*
X1810Y1271D01*
X0Y1270D02*
X7Y1270D01*
X1803Y1270D02*
X1810Y1270D01*
X0Y1269D02*
X7Y1269D01*
X1803Y1269D02*
X1810Y1269D01*
X0Y1268D02*
X7Y1268D01*
X1803Y1268D02*
X1810Y1268D01*
X0Y1267D02*
X7Y1267D01*
X1803Y1267D02*
X1810Y1267D01*
X0Y1266D02*
X7Y1266D01*
X1803Y1266D02*
X1810Y1266D01*
X0Y1265D02*
X7Y1265D01*
X1803Y1265D02*
X1810Y1265D01*
X0Y1264D02*
X7Y1264D01*
X1803Y1264D02*
X1810Y1264D01*
X0Y1263D02*
X7Y1263D01*
X1803Y1263D02*
X1810Y1263D01*
X0Y1262D02*
X7Y1262D01*
X1803Y1262D02*
X1810Y1262D01*
X0Y1261D02*
X7Y1261D01*
X1803Y1261D02*
X1810Y1261D01*
X0Y1260D02*
X7Y1260D01*
X1803Y1260D02*
X1810Y1260D01*
X0Y1259D02*
X7Y1259D01*
X1803Y1259D02*
X1810Y1259D01*
X0Y1258D02*
X7Y1258D01*
X1803Y1258D02*
X1810Y1258D01*
X0Y1257D02*
X7Y1257D01*
X1803Y1257D02*
X1810Y1257D01*
X0Y1256D02*
X7Y1256D01*
X1803Y1256D02*
X1810Y1256D01*
X0Y1255D02*
X7Y1255D01*
X1803Y1255D02*
X1810Y1255D01*
X0Y1254D02*
X7Y1254D01*
X1803Y1254D02*
X1810Y1254D01*
X0Y1253D02*
X7Y1253D01*
X1803Y1253D02*
X1810Y1253D01*
X0Y1252D02*
X7Y1252D01*
X1803Y1252D02*
X1810Y1252D01*
X0Y1251D02*
X7Y1251D01*
X1803Y1251D02*
X1810Y1251D01*
X0Y1250D02*
X7Y1250D01*
X1803Y1250D02*
X1810Y1250D01*
X0Y1249D02*
X7Y1249D01*
X1803Y1249D02*
X1810Y1249D01*
X0Y1248D02*
X7Y1248D01*
X1803Y1248D02*
X1810Y1248D01*
X0Y1247D02*
X7Y1247D01*
X1803Y1247D02*
X1810Y1247D01*
X0Y1246D02*
X7Y1246D01*
X1803Y1246D02*
X1810Y1246D01*
X0Y1245D02*
X7Y1245D01*
X1803Y1245D02*
X1810Y1245D01*
X0Y1244D02*
X7Y1244D01*
X1803Y1244D02*
X1810Y1244D01*
X0Y1243D02*
X7Y1243D01*
X1803Y1243D02*
X1810Y1243D01*
X0Y1242D02*
X7Y1242D01*
X1803Y1242D02*
X1810Y1242D01*
X0Y1241D02*
X7Y1241D01*
X1803Y1241D02*
X1810Y1241D01*
X0Y1240D02*
X7Y1240D01*
X1803Y1240D02*
X1810Y1240D01*
X0Y1239D02*
X7Y1239D01*
X1803Y1239D02*
X1810Y1239D01*
X0Y1238D02*
X7Y1238D01*
X1803Y1238D02*
X1810Y1238D01*
X0Y1237D02*
X7Y1237D01*
X1803Y1237D02*
X1810Y1237D01*
X0Y1236D02*
X7Y1236D01*
X1803Y1236D02*
X1810Y1236D01*
X0Y1235D02*
X7Y1235D01*
X1803Y1235D02*
X1810Y1235D01*
X0Y1234D02*
X7Y1234D01*
X1803Y1234D02*
X1810Y1234D01*
X0Y1233D02*
X7Y1233D01*
X1803Y1233D02*
X1810Y1233D01*
X0Y1232D02*
X7Y1232D01*
X1803Y1232D02*
X1810Y1232D01*
X0Y1231D02*
X7Y1231D01*
X1803Y1231D02*
X1810Y1231D01*
X0Y1230D02*
X7Y1230D01*
X1803Y1230D02*
X1810Y1230D01*
X0Y1229D02*
X7Y1229D01*
X1803Y1229D02*
X1810Y1229D01*
X0Y1228D02*
X7Y1228D01*
X1803Y1228D02*
X1810Y1228D01*
X0Y1227D02*
X7Y1227D01*
X1803Y1227D02*
X1810Y1227D01*
X0Y1226D02*
X7Y1226D01*
X1803Y1226D02*
X1810Y1226D01*
X0Y1225D02*
X7Y1225D01*
X1803Y1225D02*
X1810Y1225D01*
X0Y1224D02*
X7Y1224D01*
X1803Y1224D02*
X1810Y1224D01*
X0Y1223D02*
X7Y1223D01*
X1803Y1223D02*
X1810Y1223D01*
X0Y1222D02*
X7Y1222D01*
X1803Y1222D02*
X1810Y1222D01*
X0Y1221D02*
X7Y1221D01*
X1803Y1221D02*
X1810Y1221D01*
X0Y1220D02*
X7Y1220D01*
X1803Y1220D02*
X1810Y1220D01*
X0Y1219D02*
X7Y1219D01*
X1803Y1219D02*
X1810Y1219D01*
X0Y1218D02*
X7Y1218D01*
X1803Y1218D02*
X1810Y1218D01*
X0Y1217D02*
X7Y1217D01*
X1803Y1217D02*
X1810Y1217D01*
X0Y1216D02*
X7Y1216D01*
X1803Y1216D02*
X1810Y1216D01*
X0Y1215D02*
X7Y1215D01*
X1803Y1215D02*
X1810Y1215D01*
X0Y1214D02*
X7Y1214D01*
X1803Y1214D02*
X1810Y1214D01*
X0Y1213D02*
X7Y1213D01*
X1803Y1213D02*
X1810Y1213D01*
X0Y1212D02*
X7Y1212D01*
X1803Y1212D02*
X1810Y1212D01*
X0Y1211D02*
X7Y1211D01*
X1803Y1211D02*
X1810Y1211D01*
X0Y1210D02*
X7Y1210D01*
X1803Y1210D02*
X1810Y1210D01*
X0Y1209D02*
X7Y1209D01*
X1803Y1209D02*
X1810Y1209D01*
X0Y1208D02*
X7Y1208D01*
X1803Y1208D02*
X1810Y1208D01*
X0Y1207D02*
X7Y1207D01*
X1803Y1207D02*
X1810Y1207D01*
X0Y1206D02*
X7Y1206D01*
X1803Y1206D02*
X1810Y1206D01*
X0Y1205D02*
X7Y1205D01*
X1803Y1205D02*
X1810Y1205D01*
X0Y1204D02*
X7Y1204D01*
X1803Y1204D02*
X1810Y1204D01*
X0Y1203D02*
X7Y1203D01*
X1803Y1203D02*
X1810Y1203D01*
X0Y1202D02*
X7Y1202D01*
X1803Y1202D02*
X1810Y1202D01*
X0Y1201D02*
X7Y1201D01*
X1803Y1201D02*
X1810Y1201D01*
X0Y1200D02*
X7Y1200D01*
X1803Y1200D02*
X1810Y1200D01*
X0Y1199D02*
X7Y1199D01*
X1803Y1199D02*
X1810Y1199D01*
X0Y1198D02*
X7Y1198D01*
X1803Y1198D02*
X1810Y1198D01*
X0Y1197D02*
X7Y1197D01*
X1803Y1197D02*
X1810Y1197D01*
X0Y1196D02*
X7Y1196D01*
X1803Y1196D02*
X1810Y1196D01*
X0Y1195D02*
X7Y1195D01*
X1803Y1195D02*
X1810Y1195D01*
X0Y1194D02*
X7Y1194D01*
X1803Y1194D02*
X1810Y1194D01*
X0Y1193D02*
X7Y1193D01*
X1803Y1193D02*
X1810Y1193D01*
X0Y1192D02*
X7Y1192D01*
X1803Y1192D02*
X1810Y1192D01*
X0Y1191D02*
X7Y1191D01*
X1803Y1191D02*
X1810Y1191D01*
X0Y1190D02*
X7Y1190D01*
X1803Y1190D02*
X1810Y1190D01*
X0Y1189D02*
X7Y1189D01*
X1803Y1189D02*
X1810Y1189D01*
X0Y1188D02*
X7Y1188D01*
X1803Y1188D02*
X1810Y1188D01*
X0Y1187D02*
X7Y1187D01*
X1803Y1187D02*
X1810Y1187D01*
X0Y1186D02*
X7Y1186D01*
X1803Y1186D02*
X1810Y1186D01*
X0Y1185D02*
X7Y1185D01*
X1803Y1185D02*
X1810Y1185D01*
X0Y1184D02*
X7Y1184D01*
X1803Y1184D02*
X1810Y1184D01*
X0Y1183D02*
X7Y1183D01*
X1803Y1183D02*
X1810Y1183D01*
X0Y1182D02*
X7Y1182D01*
X1803Y1182D02*
X1810Y1182D01*
X0Y1181D02*
X7Y1181D01*
X1803Y1181D02*
X1810Y1181D01*
X0Y1180D02*
X7Y1180D01*
X1803Y1180D02*
X1810Y1180D01*
X0Y1179D02*
X7Y1179D01*
X1803Y1179D02*
X1810Y1179D01*
X0Y1178D02*
X7Y1178D01*
X1803Y1178D02*
X1810Y1178D01*
X0Y1177D02*
X7Y1177D01*
X1803Y1177D02*
X1810Y1177D01*
X0Y1176D02*
X7Y1176D01*
X1803Y1176D02*
X1810Y1176D01*
X0Y1175D02*
X7Y1175D01*
X1803Y1175D02*
X1810Y1175D01*
X0Y1174D02*
X7Y1174D01*
X1803Y1174D02*
X1810Y1174D01*
X0Y1173D02*
X7Y1173D01*
X1803Y1173D02*
X1810Y1173D01*
X0Y1172D02*
X7Y1172D01*
X1803Y1172D02*
X1810Y1172D01*
X0Y1171D02*
X7Y1171D01*
X1803Y1171D02*
X1810Y1171D01*
X0Y1170D02*
X7Y1170D01*
X1803Y1170D02*
X1810Y1170D01*
X0Y1169D02*
X7Y1169D01*
X1803Y1169D02*
X1810Y1169D01*
X0Y1168D02*
X7Y1168D01*
X1803Y1168D02*
X1810Y1168D01*
X0Y1167D02*
X7Y1167D01*
X1803Y1167D02*
X1810Y1167D01*
X0Y1166D02*
X7Y1166D01*
X1803Y1166D02*
X1810Y1166D01*
X0Y1165D02*
X7Y1165D01*
X1803Y1165D02*
X1810Y1165D01*
X0Y1164D02*
X7Y1164D01*
X1803Y1164D02*
X1810Y1164D01*
X0Y1163D02*
X7Y1163D01*
X1803Y1163D02*
X1810Y1163D01*
X0Y1162D02*
X7Y1162D01*
X1803Y1162D02*
X1810Y1162D01*
X0Y1161D02*
X7Y1161D01*
X1075Y1161D02*
X1077Y1161D01*
X1101Y1161D02*
X1128Y1161D01*
X1803Y1161D02*
X1810Y1161D01*
X0Y1160D02*
X7Y1160D01*
X1074Y1160D02*
X1078Y1160D01*
X1100Y1160D02*
X1129Y1160D01*
X1803Y1160D02*
X1810Y1160D01*
X0Y1159D02*
X7Y1159D01*
X1073Y1159D02*
X1079Y1159D01*
X1099Y1159D02*
X1131Y1159D01*
X1803Y1159D02*
X1810Y1159D01*
X0Y1158D02*
X7Y1158D01*
X1073Y1158D02*
X1079Y1158D01*
X1099Y1158D02*
X1131Y1158D01*
X1803Y1158D02*
X1810Y1158D01*
X0Y1157D02*
X7Y1157D01*
X1073Y1157D02*
X1079Y1157D01*
X1099Y1157D02*
X1132Y1157D01*
X1803Y1157D02*
X1810Y1157D01*
X0Y1156D02*
X7Y1156D01*
X1073Y1156D02*
X1079Y1156D01*
X1099Y1156D02*
X1132Y1156D01*
X1803Y1156D02*
X1810Y1156D01*
X0Y1155D02*
X7Y1155D01*
X1073Y1155D02*
X1079Y1155D01*
X1100Y1155D02*
X1132Y1155D01*
X1803Y1155D02*
X1810Y1155D01*
X0Y1154D02*
X7Y1154D01*
X1073Y1154D02*
X1079Y1154D01*
X1126Y1154D02*
X1132Y1154D01*
X1803Y1154D02*
X1810Y1154D01*
X0Y1153D02*
X7Y1153D01*
X1073Y1153D02*
X1079Y1153D01*
X1126Y1153D02*
X1132Y1153D01*
X1803Y1153D02*
X1810Y1153D01*
X0Y1152D02*
X7Y1152D01*
X1073Y1152D02*
X1079Y1152D01*
X1126Y1152D02*
X1132Y1152D01*
X1803Y1152D02*
X1810Y1152D01*
X0Y1151D02*
X7Y1151D01*
X1073Y1151D02*
X1079Y1151D01*
X1126Y1151D02*
X1132Y1151D01*
X1803Y1151D02*
X1810Y1151D01*
X0Y1150D02*
X7Y1150D01*
X1073Y1150D02*
X1079Y1150D01*
X1126Y1150D02*
X1132Y1150D01*
X1803Y1150D02*
X1810Y1150D01*
X0Y1149D02*
X7Y1149D01*
X1073Y1149D02*
X1079Y1149D01*
X1126Y1149D02*
X1132Y1149D01*
X1803Y1149D02*
X1810Y1149D01*
X0Y1148D02*
X7Y1148D01*
X1073Y1148D02*
X1079Y1148D01*
X1126Y1148D02*
X1132Y1148D01*
X1803Y1148D02*
X1810Y1148D01*
X0Y1147D02*
X7Y1147D01*
X1073Y1147D02*
X1079Y1147D01*
X1126Y1147D02*
X1132Y1147D01*
X1803Y1147D02*
X1810Y1147D01*
X0Y1146D02*
X7Y1146D01*
X1073Y1146D02*
X1079Y1146D01*
X1126Y1146D02*
X1132Y1146D01*
X1803Y1146D02*
X1810Y1146D01*
X0Y1145D02*
X7Y1145D01*
X1073Y1145D02*
X1079Y1145D01*
X1126Y1145D02*
X1132Y1145D01*
X1803Y1145D02*
X1810Y1145D01*
X0Y1144D02*
X7Y1144D01*
X1073Y1144D02*
X1079Y1144D01*
X1126Y1144D02*
X1132Y1144D01*
X1803Y1144D02*
X1810Y1144D01*
X0Y1143D02*
X7Y1143D01*
X1073Y1143D02*
X1079Y1143D01*
X1126Y1143D02*
X1132Y1143D01*
X1803Y1143D02*
X1810Y1143D01*
X0Y1142D02*
X7Y1142D01*
X1073Y1142D02*
X1079Y1142D01*
X1126Y1142D02*
X1132Y1142D01*
X1803Y1142D02*
X1810Y1142D01*
X0Y1141D02*
X7Y1141D01*
X1073Y1141D02*
X1079Y1141D01*
X1126Y1141D02*
X1132Y1141D01*
X1803Y1141D02*
X1810Y1141D01*
X0Y1140D02*
X7Y1140D01*
X1073Y1140D02*
X1079Y1140D01*
X1126Y1140D02*
X1132Y1140D01*
X1803Y1140D02*
X1810Y1140D01*
X0Y1139D02*
X7Y1139D01*
X1073Y1139D02*
X1079Y1139D01*
X1126Y1139D02*
X1132Y1139D01*
X1803Y1139D02*
X1810Y1139D01*
X0Y1138D02*
X7Y1138D01*
X1073Y1138D02*
X1079Y1138D01*
X1126Y1138D02*
X1132Y1138D01*
X1803Y1138D02*
X1810Y1138D01*
X0Y1137D02*
X7Y1137D01*
X1073Y1137D02*
X1079Y1137D01*
X1103Y1137D02*
X1132Y1137D01*
X1803Y1137D02*
X1810Y1137D01*
X0Y1136D02*
X7Y1136D01*
X1073Y1136D02*
X1079Y1136D01*
X1101Y1136D02*
X1132Y1136D01*
X1803Y1136D02*
X1810Y1136D01*
X0Y1135D02*
X7Y1135D01*
X1073Y1135D02*
X1079Y1135D01*
X1100Y1135D02*
X1132Y1135D01*
X1803Y1135D02*
X1810Y1135D01*
X0Y1134D02*
X7Y1134D01*
X1073Y1134D02*
X1079Y1134D01*
X1100Y1134D02*
X1131Y1134D01*
X1803Y1134D02*
X1810Y1134D01*
X0Y1133D02*
X7Y1133D01*
X1073Y1133D02*
X1079Y1133D01*
X1099Y1133D02*
X1130Y1133D01*
X1803Y1133D02*
X1810Y1133D01*
X0Y1132D02*
X7Y1132D01*
X1073Y1132D02*
X1079Y1132D01*
X1099Y1132D02*
X1129Y1132D01*
X1803Y1132D02*
X1810Y1132D01*
X0Y1131D02*
X7Y1131D01*
X796Y1131D02*
X822Y1131D01*
X860Y1131D02*
X872Y1131D01*
X896Y1131D02*
X919Y1131D01*
X1054Y1131D02*
X1057Y1131D01*
X1073Y1131D02*
X1079Y1131D01*
X1099Y1131D02*
X1127Y1131D01*
X1803Y1131D02*
X1810Y1131D01*
X0Y1130D02*
X7Y1130D01*
X793Y1130D02*
X825Y1130D01*
X856Y1130D02*
X875Y1130D01*
X893Y1130D02*
X922Y1130D01*
X1053Y1130D02*
X1058Y1130D01*
X1073Y1130D02*
X1079Y1130D01*
X1099Y1130D02*
X1105Y1130D01*
X1803Y1130D02*
X1810Y1130D01*
X0Y1129D02*
X7Y1129D01*
X793Y1129D02*
X826Y1129D01*
X854Y1129D02*
X875Y1129D01*
X893Y1129D02*
X924Y1129D01*
X1052Y1129D02*
X1058Y1129D01*
X1073Y1129D02*
X1079Y1129D01*
X1099Y1129D02*
X1105Y1129D01*
X1803Y1129D02*
X1810Y1129D01*
X0Y1128D02*
X7Y1128D01*
X792Y1128D02*
X826Y1128D01*
X853Y1128D02*
X876Y1128D01*
X892Y1128D02*
X925Y1128D01*
X1052Y1128D02*
X1058Y1128D01*
X1073Y1128D02*
X1079Y1128D01*
X1099Y1128D02*
X1105Y1128D01*
X1803Y1128D02*
X1810Y1128D01*
X0Y1127D02*
X7Y1127D01*
X792Y1127D02*
X826Y1127D01*
X852Y1127D02*
X876Y1127D01*
X892Y1127D02*
X925Y1127D01*
X1052Y1127D02*
X1058Y1127D01*
X1073Y1127D02*
X1079Y1127D01*
X1099Y1127D02*
X1105Y1127D01*
X1803Y1127D02*
X1810Y1127D01*
X0Y1126D02*
X7Y1126D01*
X793Y1126D02*
X825Y1126D01*
X851Y1126D02*
X875Y1126D01*
X893Y1126D02*
X926Y1126D01*
X1052Y1126D02*
X1058Y1126D01*
X1073Y1126D02*
X1079Y1126D01*
X1099Y1126D02*
X1105Y1126D01*
X1803Y1126D02*
X1810Y1126D01*
X0Y1125D02*
X7Y1125D01*
X793Y1125D02*
X825Y1125D01*
X851Y1125D02*
X875Y1125D01*
X893Y1125D02*
X926Y1125D01*
X1052Y1125D02*
X1058Y1125D01*
X1073Y1125D02*
X1079Y1125D01*
X1099Y1125D02*
X1105Y1125D01*
X1803Y1125D02*
X1810Y1125D01*
X0Y1124D02*
X7Y1124D01*
X796Y1124D02*
X822Y1124D01*
X850Y1124D02*
X872Y1124D01*
X896Y1124D02*
X926Y1124D01*
X1052Y1124D02*
X1058Y1124D01*
X1073Y1124D02*
X1079Y1124D01*
X1099Y1124D02*
X1105Y1124D01*
X1803Y1124D02*
X1810Y1124D01*
X0Y1123D02*
X7Y1123D01*
X806Y1123D02*
X812Y1123D01*
X850Y1123D02*
X857Y1123D01*
X920Y1123D02*
X926Y1123D01*
X1052Y1123D02*
X1058Y1123D01*
X1073Y1123D02*
X1079Y1123D01*
X1099Y1123D02*
X1105Y1123D01*
X1803Y1123D02*
X1810Y1123D01*
X0Y1122D02*
X7Y1122D01*
X806Y1122D02*
X812Y1122D01*
X849Y1122D02*
X856Y1122D01*
X920Y1122D02*
X926Y1122D01*
X1052Y1122D02*
X1058Y1122D01*
X1073Y1122D02*
X1079Y1122D01*
X1099Y1122D02*
X1105Y1122D01*
X1803Y1122D02*
X1810Y1122D01*
X0Y1121D02*
X7Y1121D01*
X806Y1121D02*
X812Y1121D01*
X849Y1121D02*
X856Y1121D01*
X920Y1121D02*
X926Y1121D01*
X1052Y1121D02*
X1058Y1121D01*
X1073Y1121D02*
X1079Y1121D01*
X1099Y1121D02*
X1105Y1121D01*
X1803Y1121D02*
X1810Y1121D01*
X0Y1120D02*
X7Y1120D01*
X806Y1120D02*
X812Y1120D01*
X848Y1120D02*
X855Y1120D01*
X920Y1120D02*
X926Y1120D01*
X1052Y1120D02*
X1058Y1120D01*
X1073Y1120D02*
X1079Y1120D01*
X1099Y1120D02*
X1105Y1120D01*
X1803Y1120D02*
X1810Y1120D01*
X0Y1119D02*
X7Y1119D01*
X806Y1119D02*
X812Y1119D01*
X848Y1119D02*
X855Y1119D01*
X920Y1119D02*
X926Y1119D01*
X1052Y1119D02*
X1058Y1119D01*
X1073Y1119D02*
X1079Y1119D01*
X1099Y1119D02*
X1105Y1119D01*
X1803Y1119D02*
X1810Y1119D01*
X0Y1118D02*
X7Y1118D01*
X806Y1118D02*
X812Y1118D01*
X847Y1118D02*
X854Y1118D01*
X920Y1118D02*
X926Y1118D01*
X1052Y1118D02*
X1058Y1118D01*
X1073Y1118D02*
X1079Y1118D01*
X1099Y1118D02*
X1105Y1118D01*
X1803Y1118D02*
X1810Y1118D01*
X0Y1117D02*
X7Y1117D01*
X806Y1117D02*
X812Y1117D01*
X847Y1117D02*
X854Y1117D01*
X920Y1117D02*
X926Y1117D01*
X1052Y1117D02*
X1058Y1117D01*
X1073Y1117D02*
X1079Y1117D01*
X1099Y1117D02*
X1105Y1117D01*
X1803Y1117D02*
X1810Y1117D01*
X0Y1116D02*
X7Y1116D01*
X806Y1116D02*
X812Y1116D01*
X846Y1116D02*
X853Y1116D01*
X920Y1116D02*
X926Y1116D01*
X1052Y1116D02*
X1059Y1116D01*
X1072Y1116D02*
X1079Y1116D01*
X1099Y1116D02*
X1105Y1116D01*
X1803Y1116D02*
X1810Y1116D01*
X0Y1115D02*
X7Y1115D01*
X806Y1115D02*
X812Y1115D01*
X846Y1115D02*
X853Y1115D01*
X920Y1115D02*
X926Y1115D01*
X1053Y1115D02*
X1060Y1115D01*
X1072Y1115D02*
X1079Y1115D01*
X1099Y1115D02*
X1105Y1115D01*
X1803Y1115D02*
X1810Y1115D01*
X0Y1114D02*
X7Y1114D01*
X806Y1114D02*
X812Y1114D01*
X845Y1114D02*
X852Y1114D01*
X920Y1114D02*
X926Y1114D01*
X1053Y1114D02*
X1078Y1114D01*
X1099Y1114D02*
X1130Y1114D01*
X1803Y1114D02*
X1810Y1114D01*
X0Y1113D02*
X7Y1113D01*
X806Y1113D02*
X812Y1113D01*
X845Y1113D02*
X852Y1113D01*
X920Y1113D02*
X926Y1113D01*
X1053Y1113D02*
X1078Y1113D01*
X1099Y1113D02*
X1132Y1113D01*
X1803Y1113D02*
X1810Y1113D01*
X0Y1112D02*
X7Y1112D01*
X806Y1112D02*
X812Y1112D01*
X844Y1112D02*
X851Y1112D01*
X920Y1112D02*
X926Y1112D01*
X1054Y1112D02*
X1077Y1112D01*
X1099Y1112D02*
X1132Y1112D01*
X1803Y1112D02*
X1810Y1112D01*
X0Y1111D02*
X7Y1111D01*
X806Y1111D02*
X812Y1111D01*
X844Y1111D02*
X851Y1111D01*
X920Y1111D02*
X926Y1111D01*
X1055Y1111D02*
X1076Y1111D01*
X1099Y1111D02*
X1132Y1111D01*
X1803Y1111D02*
X1810Y1111D01*
X0Y1110D02*
X7Y1110D01*
X806Y1110D02*
X812Y1110D01*
X844Y1110D02*
X850Y1110D01*
X920Y1110D02*
X926Y1110D01*
X1056Y1110D02*
X1076Y1110D01*
X1099Y1110D02*
X1132Y1110D01*
X1803Y1110D02*
X1810Y1110D01*
X0Y1109D02*
X7Y1109D01*
X806Y1109D02*
X812Y1109D01*
X843Y1109D02*
X850Y1109D01*
X920Y1109D02*
X926Y1109D01*
X1057Y1109D02*
X1074Y1109D01*
X1099Y1109D02*
X1132Y1109D01*
X1803Y1109D02*
X1810Y1109D01*
X0Y1108D02*
X7Y1108D01*
X806Y1108D02*
X812Y1108D01*
X843Y1108D02*
X849Y1108D01*
X920Y1108D02*
X926Y1108D01*
X1059Y1108D02*
X1072Y1108D01*
X1099Y1108D02*
X1131Y1108D01*
X1803Y1108D02*
X1810Y1108D01*
X0Y1107D02*
X7Y1107D01*
X806Y1107D02*
X812Y1107D01*
X843Y1107D02*
X849Y1107D01*
X897Y1107D02*
X926Y1107D01*
X1803Y1107D02*
X1810Y1107D01*
X0Y1106D02*
X7Y1106D01*
X806Y1106D02*
X812Y1106D01*
X842Y1106D02*
X849Y1106D01*
X895Y1106D02*
X926Y1106D01*
X1803Y1106D02*
X1810Y1106D01*
X0Y1105D02*
X7Y1105D01*
X806Y1105D02*
X812Y1105D01*
X842Y1105D02*
X848Y1105D01*
X894Y1105D02*
X925Y1105D01*
X1803Y1105D02*
X1810Y1105D01*
X0Y1104D02*
X7Y1104D01*
X806Y1104D02*
X812Y1104D01*
X842Y1104D02*
X848Y1104D01*
X893Y1104D02*
X925Y1104D01*
X1803Y1104D02*
X1810Y1104D01*
X0Y1103D02*
X7Y1103D01*
X806Y1103D02*
X812Y1103D01*
X842Y1103D02*
X848Y1103D01*
X893Y1103D02*
X924Y1103D01*
X1803Y1103D02*
X1810Y1103D01*
X0Y1102D02*
X7Y1102D01*
X806Y1102D02*
X812Y1102D01*
X842Y1102D02*
X849Y1102D01*
X892Y1102D02*
X923Y1102D01*
X1803Y1102D02*
X1810Y1102D01*
X0Y1101D02*
X7Y1101D01*
X806Y1101D02*
X812Y1101D01*
X843Y1101D02*
X849Y1101D01*
X892Y1101D02*
X922Y1101D01*
X1803Y1101D02*
X1810Y1101D01*
X0Y1100D02*
X7Y1100D01*
X806Y1100D02*
X812Y1100D01*
X843Y1100D02*
X849Y1100D01*
X892Y1100D02*
X898Y1100D01*
X1803Y1100D02*
X1810Y1100D01*
X0Y1099D02*
X7Y1099D01*
X806Y1099D02*
X812Y1099D01*
X843Y1099D02*
X850Y1099D01*
X892Y1099D02*
X898Y1099D01*
X1803Y1099D02*
X1810Y1099D01*
X0Y1098D02*
X7Y1098D01*
X806Y1098D02*
X812Y1098D01*
X844Y1098D02*
X850Y1098D01*
X892Y1098D02*
X898Y1098D01*
X1803Y1098D02*
X1810Y1098D01*
X0Y1097D02*
X7Y1097D01*
X806Y1097D02*
X812Y1097D01*
X844Y1097D02*
X851Y1097D01*
X892Y1097D02*
X898Y1097D01*
X1803Y1097D02*
X1810Y1097D01*
X0Y1096D02*
X7Y1096D01*
X806Y1096D02*
X812Y1096D01*
X844Y1096D02*
X851Y1096D01*
X892Y1096D02*
X898Y1096D01*
X1803Y1096D02*
X1810Y1096D01*
X0Y1095D02*
X7Y1095D01*
X806Y1095D02*
X812Y1095D01*
X845Y1095D02*
X852Y1095D01*
X892Y1095D02*
X898Y1095D01*
X1803Y1095D02*
X1810Y1095D01*
X0Y1094D02*
X7Y1094D01*
X806Y1094D02*
X812Y1094D01*
X845Y1094D02*
X852Y1094D01*
X892Y1094D02*
X898Y1094D01*
X1803Y1094D02*
X1810Y1094D01*
X0Y1093D02*
X7Y1093D01*
X806Y1093D02*
X812Y1093D01*
X846Y1093D02*
X853Y1093D01*
X892Y1093D02*
X898Y1093D01*
X1803Y1093D02*
X1810Y1093D01*
X0Y1092D02*
X7Y1092D01*
X806Y1092D02*
X812Y1092D01*
X846Y1092D02*
X853Y1092D01*
X892Y1092D02*
X898Y1092D01*
X1803Y1092D02*
X1810Y1092D01*
X0Y1091D02*
X7Y1091D01*
X806Y1091D02*
X812Y1091D01*
X847Y1091D02*
X854Y1091D01*
X892Y1091D02*
X898Y1091D01*
X1803Y1091D02*
X1810Y1091D01*
X0Y1090D02*
X7Y1090D01*
X806Y1090D02*
X812Y1090D01*
X847Y1090D02*
X854Y1090D01*
X892Y1090D02*
X898Y1090D01*
X1803Y1090D02*
X1810Y1090D01*
X0Y1089D02*
X7Y1089D01*
X806Y1089D02*
X812Y1089D01*
X848Y1089D02*
X855Y1089D01*
X892Y1089D02*
X898Y1089D01*
X1803Y1089D02*
X1810Y1089D01*
X0Y1088D02*
X7Y1088D01*
X806Y1088D02*
X812Y1088D01*
X848Y1088D02*
X855Y1088D01*
X892Y1088D02*
X898Y1088D01*
X1803Y1088D02*
X1810Y1088D01*
X0Y1087D02*
X7Y1087D01*
X806Y1087D02*
X812Y1087D01*
X849Y1087D02*
X856Y1087D01*
X892Y1087D02*
X898Y1087D01*
X1803Y1087D02*
X1810Y1087D01*
X0Y1086D02*
X7Y1086D01*
X806Y1086D02*
X812Y1086D01*
X849Y1086D02*
X856Y1086D01*
X892Y1086D02*
X898Y1086D01*
X1803Y1086D02*
X1810Y1086D01*
X0Y1085D02*
X7Y1085D01*
X806Y1085D02*
X812Y1085D01*
X850Y1085D02*
X857Y1085D01*
X892Y1085D02*
X898Y1085D01*
X1803Y1085D02*
X1810Y1085D01*
X0Y1084D02*
X7Y1084D01*
X806Y1084D02*
X812Y1084D01*
X850Y1084D02*
X859Y1084D01*
X892Y1084D02*
X899Y1084D01*
X1803Y1084D02*
X1810Y1084D01*
X0Y1083D02*
X7Y1083D01*
X794Y1083D02*
X825Y1083D01*
X851Y1083D02*
X875Y1083D01*
X892Y1083D02*
X925Y1083D01*
X1803Y1083D02*
X1810Y1083D01*
X0Y1082D02*
X7Y1082D01*
X793Y1082D02*
X825Y1082D01*
X852Y1082D02*
X875Y1082D01*
X892Y1082D02*
X925Y1082D01*
X1803Y1082D02*
X1810Y1082D01*
X0Y1081D02*
X7Y1081D01*
X792Y1081D02*
X826Y1081D01*
X852Y1081D02*
X876Y1081D01*
X892Y1081D02*
X926Y1081D01*
X1803Y1081D02*
X1810Y1081D01*
X0Y1080D02*
X7Y1080D01*
X792Y1080D02*
X826Y1080D01*
X853Y1080D02*
X876Y1080D01*
X892Y1080D02*
X926Y1080D01*
X1803Y1080D02*
X1810Y1080D01*
X0Y1079D02*
X7Y1079D01*
X793Y1079D02*
X826Y1079D01*
X854Y1079D02*
X876Y1079D01*
X892Y1079D02*
X926Y1079D01*
X1803Y1079D02*
X1810Y1079D01*
X0Y1078D02*
X7Y1078D01*
X793Y1078D02*
X825Y1078D01*
X856Y1078D02*
X875Y1078D01*
X892Y1078D02*
X925Y1078D01*
X1803Y1078D02*
X1810Y1078D01*
X0Y1077D02*
X7Y1077D01*
X795Y1077D02*
X823Y1077D01*
X859Y1077D02*
X873Y1077D01*
X893Y1077D02*
X923Y1077D01*
X1803Y1077D02*
X1810Y1077D01*
X0Y1076D02*
X7Y1076D01*
X1803Y1076D02*
X1810Y1076D01*
X0Y1075D02*
X7Y1075D01*
X1803Y1075D02*
X1810Y1075D01*
X0Y1074D02*
X7Y1074D01*
X1803Y1074D02*
X1810Y1074D01*
X0Y1073D02*
X7Y1073D01*
X1803Y1073D02*
X1810Y1073D01*
X0Y1072D02*
X7Y1072D01*
X1803Y1072D02*
X1810Y1072D01*
X0Y1071D02*
X7Y1071D01*
X1803Y1071D02*
X1810Y1071D01*
X0Y1070D02*
X7Y1070D01*
X1803Y1070D02*
X1810Y1070D01*
X0Y1069D02*
X7Y1069D01*
X1803Y1069D02*
X1810Y1069D01*
X0Y1068D02*
X7Y1068D01*
X1803Y1068D02*
X1810Y1068D01*
X0Y1067D02*
X7Y1067D01*
X1803Y1067D02*
X1810Y1067D01*
X0Y1066D02*
X7Y1066D01*
X1803Y1066D02*
X1810Y1066D01*
X0Y1065D02*
X7Y1065D01*
X1803Y1065D02*
X1810Y1065D01*
X0Y1064D02*
X7Y1064D01*
X1803Y1064D02*
X1810Y1064D01*
X0Y1063D02*
X7Y1063D01*
X1803Y1063D02*
X1810Y1063D01*
X0Y1062D02*
X7Y1062D01*
X1803Y1062D02*
X1810Y1062D01*
X0Y1061D02*
X7Y1061D01*
X1803Y1061D02*
X1810Y1061D01*
X0Y1060D02*
X7Y1060D01*
X1803Y1060D02*
X1810Y1060D01*
X0Y1059D02*
X7Y1059D01*
X1803Y1059D02*
X1810Y1059D01*
X0Y1058D02*
X7Y1058D01*
X1803Y1058D02*
X1810Y1058D01*
X0Y1057D02*
X7Y1057D01*
X1803Y1057D02*
X1810Y1057D01*
X0Y1056D02*
X7Y1056D01*
X1803Y1056D02*
X1810Y1056D01*
X0Y1055D02*
X7Y1055D01*
X1803Y1055D02*
X1810Y1055D01*
X0Y1054D02*
X7Y1054D01*
X1803Y1054D02*
X1810Y1054D01*
X0Y1053D02*
X7Y1053D01*
X1803Y1053D02*
X1810Y1053D01*
X0Y1052D02*
X7Y1052D01*
X1803Y1052D02*
X1810Y1052D01*
X0Y1051D02*
X7Y1051D01*
X1803Y1051D02*
X1810Y1051D01*
X0Y1050D02*
X7Y1050D01*
X1803Y1050D02*
X1810Y1050D01*
X0Y1049D02*
X7Y1049D01*
X1803Y1049D02*
X1810Y1049D01*
X0Y1048D02*
X7Y1048D01*
X1803Y1048D02*
X1810Y1048D01*
X0Y1047D02*
X7Y1047D01*
X1803Y1047D02*
X1810Y1047D01*
X0Y1046D02*
X7Y1046D01*
X1803Y1046D02*
X1810Y1046D01*
X0Y1045D02*
X7Y1045D01*
X1803Y1045D02*
X1810Y1045D01*
X0Y1044D02*
X7Y1044D01*
X1803Y1044D02*
X1810Y1044D01*
X0Y1043D02*
X7Y1043D01*
X1803Y1043D02*
X1810Y1043D01*
X0Y1042D02*
X7Y1042D01*
X1803Y1042D02*
X1810Y1042D01*
X0Y1041D02*
X7Y1041D01*
X1803Y1041D02*
X1810Y1041D01*
X0Y1040D02*
X7Y1040D01*
X1803Y1040D02*
X1810Y1040D01*
X0Y1039D02*
X7Y1039D01*
X1803Y1039D02*
X1810Y1039D01*
X0Y1038D02*
X7Y1038D01*
X1803Y1038D02*
X1810Y1038D01*
X0Y1037D02*
X7Y1037D01*
X1803Y1037D02*
X1810Y1037D01*
X0Y1036D02*
X7Y1036D01*
X1803Y1036D02*
X1810Y1036D01*
X0Y1035D02*
X7Y1035D01*
X1803Y1035D02*
X1810Y1035D01*
X0Y1034D02*
X7Y1034D01*
X1803Y1034D02*
X1810Y1034D01*
X0Y1033D02*
X7Y1033D01*
X1803Y1033D02*
X1810Y1033D01*
X0Y1032D02*
X7Y1032D01*
X1803Y1032D02*
X1810Y1032D01*
X0Y1031D02*
X7Y1031D01*
X1803Y1031D02*
X1810Y1031D01*
X0Y1030D02*
X7Y1030D01*
X1803Y1030D02*
X1810Y1030D01*
X0Y1029D02*
X7Y1029D01*
X1803Y1029D02*
X1810Y1029D01*
X0Y1028D02*
X7Y1028D01*
X1803Y1028D02*
X1810Y1028D01*
X0Y1027D02*
X7Y1027D01*
X1803Y1027D02*
X1810Y1027D01*
X0Y1026D02*
X7Y1026D01*
X1803Y1026D02*
X1810Y1026D01*
X0Y1025D02*
X7Y1025D01*
X1803Y1025D02*
X1810Y1025D01*
X0Y1024D02*
X7Y1024D01*
X1803Y1024D02*
X1810Y1024D01*
X0Y1023D02*
X7Y1023D01*
X1803Y1023D02*
X1810Y1023D01*
X0Y1022D02*
X7Y1022D01*
X1803Y1022D02*
X1810Y1022D01*
X0Y1021D02*
X7Y1021D01*
X1803Y1021D02*
X1810Y1021D01*
X0Y1020D02*
X7Y1020D01*
X1803Y1020D02*
X1810Y1020D01*
X0Y1019D02*
X7Y1019D01*
X1803Y1019D02*
X1810Y1019D01*
X0Y1018D02*
X7Y1018D01*
X1803Y1018D02*
X1810Y1018D01*
X0Y1017D02*
X7Y1017D01*
X1803Y1017D02*
X1810Y1017D01*
X0Y1016D02*
X7Y1016D01*
X1803Y1016D02*
X1810Y1016D01*
X0Y1015D02*
X7Y1015D01*
X1803Y1015D02*
X1810Y1015D01*
X0Y1014D02*
X7Y1014D01*
X1803Y1014D02*
X1810Y1014D01*
X0Y1013D02*
X7Y1013D01*
X1803Y1013D02*
X1810Y1013D01*
X0Y1012D02*
X7Y1012D01*
X1803Y1012D02*
X1810Y1012D01*
X0Y1011D02*
X7Y1011D01*
X1803Y1011D02*
X1810Y1011D01*
X0Y1010D02*
X7Y1010D01*
X1803Y1010D02*
X1810Y1010D01*
X0Y1009D02*
X7Y1009D01*
X1803Y1009D02*
X1810Y1009D01*
X0Y1008D02*
X7Y1008D01*
X1803Y1008D02*
X1810Y1008D01*
X0Y1007D02*
X7Y1007D01*
X1803Y1007D02*
X1810Y1007D01*
X0Y1006D02*
X7Y1006D01*
X1803Y1006D02*
X1810Y1006D01*
X0Y1005D02*
X7Y1005D01*
X1803Y1005D02*
X1810Y1005D01*
X0Y1004D02*
X7Y1004D01*
X1803Y1004D02*
X1810Y1004D01*
X0Y1003D02*
X7Y1003D01*
X1803Y1003D02*
X1810Y1003D01*
X0Y1002D02*
X7Y1002D01*
X1803Y1002D02*
X1810Y1002D01*
X0Y1001D02*
X7Y1001D01*
X1803Y1001D02*
X1810Y1001D01*
X0Y1000D02*
X7Y1000D01*
X1803Y1000D02*
X1810Y1000D01*
X0Y999D02*
X7Y999D01*
X1803Y999D02*
X1810Y999D01*
X0Y998D02*
X7Y998D01*
X1803Y998D02*
X1810Y998D01*
X0Y997D02*
X7Y997D01*
X1803Y997D02*
X1810Y997D01*
X0Y996D02*
X7Y996D01*
X1803Y996D02*
X1810Y996D01*
X0Y995D02*
X7Y995D01*
X1803Y995D02*
X1810Y995D01*
X0Y994D02*
X7Y994D01*
X1803Y994D02*
X1810Y994D01*
X0Y993D02*
X7Y993D01*
X1803Y993D02*
X1810Y993D01*
X0Y992D02*
X7Y992D01*
X1803Y992D02*
X1810Y992D01*
X0Y991D02*
X7Y991D01*
X1803Y991D02*
X1810Y991D01*
X0Y990D02*
X7Y990D01*
X1803Y990D02*
X1810Y990D01*
X0Y989D02*
X7Y989D01*
X1803Y989D02*
X1810Y989D01*
X0Y988D02*
X7Y988D01*
X1803Y988D02*
X1810Y988D01*
X0Y987D02*
X7Y987D01*
X1803Y987D02*
X1810Y987D01*
X0Y986D02*
X7Y986D01*
X1803Y986D02*
X1810Y986D01*
X0Y985D02*
X7Y985D01*
X1803Y985D02*
X1810Y985D01*
X0Y984D02*
X7Y984D01*
X1803Y984D02*
X1810Y984D01*
X0Y983D02*
X7Y983D01*
X1803Y983D02*
X1810Y983D01*
X0Y982D02*
X7Y982D01*
X1803Y982D02*
X1810Y982D01*
X0Y981D02*
X7Y981D01*
X1803Y981D02*
X1810Y981D01*
X0Y980D02*
X7Y980D01*
X1803Y980D02*
X1810Y980D01*
X0Y979D02*
X7Y979D01*
X1803Y979D02*
X1810Y979D01*
X0Y978D02*
X7Y978D01*
X1803Y978D02*
X1810Y978D01*
X0Y977D02*
X7Y977D01*
X1803Y977D02*
X1810Y977D01*
X0Y976D02*
X7Y976D01*
X1803Y976D02*
X1810Y976D01*
X0Y975D02*
X7Y975D01*
X1803Y975D02*
X1810Y975D01*
X0Y974D02*
X7Y974D01*
X1803Y974D02*
X1810Y974D01*
X0Y973D02*
X7Y973D01*
X1803Y973D02*
X1810Y973D01*
X0Y972D02*
X7Y972D01*
X1803Y972D02*
X1810Y972D01*
X0Y971D02*
X7Y971D01*
X1803Y971D02*
X1810Y971D01*
X0Y970D02*
X7Y970D01*
X1803Y970D02*
X1810Y970D01*
X0Y969D02*
X7Y969D01*
X1803Y969D02*
X1810Y969D01*
X0Y968D02*
X7Y968D01*
X1803Y968D02*
X1810Y968D01*
X0Y967D02*
X7Y967D01*
X1803Y967D02*
X1810Y967D01*
X0Y966D02*
X7Y966D01*
X1803Y966D02*
X1810Y966D01*
X0Y965D02*
X7Y965D01*
X1803Y965D02*
X1810Y965D01*
X0Y964D02*
X7Y964D01*
X1803Y964D02*
X1810Y964D01*
X0Y963D02*
X7Y963D01*
X1803Y963D02*
X1810Y963D01*
X0Y962D02*
X7Y962D01*
X1803Y962D02*
X1810Y962D01*
X0Y961D02*
X7Y961D01*
X1803Y961D02*
X1810Y961D01*
X0Y960D02*
X7Y960D01*
X1803Y960D02*
X1810Y960D01*
X0Y959D02*
X7Y959D01*
X1803Y959D02*
X1810Y959D01*
X0Y958D02*
X7Y958D01*
X1803Y958D02*
X1810Y958D01*
X0Y957D02*
X7Y957D01*
X1803Y957D02*
X1810Y957D01*
X0Y956D02*
X7Y956D01*
X1803Y956D02*
X1810Y956D01*
X0Y955D02*
X7Y955D01*
X1803Y955D02*
X1810Y955D01*
X0Y954D02*
X7Y954D01*
X1803Y954D02*
X1810Y954D01*
X0Y953D02*
X7Y953D01*
X1803Y953D02*
X1810Y953D01*
X0Y952D02*
X7Y952D01*
X1803Y952D02*
X1810Y952D01*
X0Y951D02*
X7Y951D01*
X1803Y951D02*
X1810Y951D01*
X0Y950D02*
X7Y950D01*
X1803Y950D02*
X1810Y950D01*
X0Y949D02*
X7Y949D01*
X1803Y949D02*
X1810Y949D01*
X0Y948D02*
X7Y948D01*
X1803Y948D02*
X1810Y948D01*
X0Y947D02*
X7Y947D01*
X1803Y947D02*
X1810Y947D01*
X0Y946D02*
X7Y946D01*
X1803Y946D02*
X1810Y946D01*
X0Y945D02*
X7Y945D01*
X1803Y945D02*
X1810Y945D01*
X0Y944D02*
X7Y944D01*
X1803Y944D02*
X1810Y944D01*
X0Y943D02*
X7Y943D01*
X1803Y943D02*
X1810Y943D01*
X0Y942D02*
X7Y942D01*
X1803Y942D02*
X1810Y942D01*
X0Y941D02*
X7Y941D01*
X1803Y941D02*
X1810Y941D01*
X0Y940D02*
X7Y940D01*
X1803Y940D02*
X1810Y940D01*
X0Y939D02*
X7Y939D01*
X1803Y939D02*
X1810Y939D01*
X0Y938D02*
X7Y938D01*
X1803Y938D02*
X1810Y938D01*
X0Y937D02*
X7Y937D01*
X1803Y937D02*
X1810Y937D01*
X0Y936D02*
X7Y936D01*
X1803Y936D02*
X1810Y936D01*
X0Y935D02*
X7Y935D01*
X1803Y935D02*
X1810Y935D01*
X0Y934D02*
X7Y934D01*
X1803Y934D02*
X1810Y934D01*
X0Y933D02*
X7Y933D01*
X1803Y933D02*
X1810Y933D01*
X0Y932D02*
X7Y932D01*
X1803Y932D02*
X1810Y932D01*
X0Y931D02*
X7Y931D01*
X1803Y931D02*
X1810Y931D01*
X0Y930D02*
X7Y930D01*
X1803Y930D02*
X1810Y930D01*
X0Y929D02*
X7Y929D01*
X1803Y929D02*
X1810Y929D01*
X0Y928D02*
X7Y928D01*
X1803Y928D02*
X1810Y928D01*
X0Y927D02*
X7Y927D01*
X1803Y927D02*
X1810Y927D01*
X0Y926D02*
X7Y926D01*
X1803Y926D02*
X1810Y926D01*
X0Y925D02*
X7Y925D01*
X1803Y925D02*
X1810Y925D01*
X0Y924D02*
X7Y924D01*
X1803Y924D02*
X1810Y924D01*
X0Y923D02*
X7Y923D01*
X1803Y923D02*
X1810Y923D01*
X0Y922D02*
X7Y922D01*
X1803Y922D02*
X1810Y922D01*
X0Y921D02*
X7Y921D01*
X1803Y921D02*
X1810Y921D01*
X0Y920D02*
X7Y920D01*
X1803Y920D02*
X1810Y920D01*
X0Y919D02*
X7Y919D01*
X1803Y919D02*
X1810Y919D01*
X0Y918D02*
X7Y918D01*
X1803Y918D02*
X1810Y918D01*
X0Y917D02*
X7Y917D01*
X1803Y917D02*
X1810Y917D01*
X0Y916D02*
X7Y916D01*
X1803Y916D02*
X1810Y916D01*
X0Y915D02*
X7Y915D01*
X1803Y915D02*
X1810Y915D01*
X0Y914D02*
X7Y914D01*
X1803Y914D02*
X1810Y914D01*
X0Y913D02*
X7Y913D01*
X1803Y913D02*
X1810Y913D01*
X0Y912D02*
X7Y912D01*
X1803Y912D02*
X1810Y912D01*
X0Y911D02*
X7Y911D01*
X1803Y911D02*
X1810Y911D01*
X0Y910D02*
X7Y910D01*
X1803Y910D02*
X1810Y910D01*
X0Y909D02*
X7Y909D01*
X1803Y909D02*
X1810Y909D01*
X0Y908D02*
X7Y908D01*
X1803Y908D02*
X1810Y908D01*
X0Y907D02*
X7Y907D01*
X1803Y907D02*
X1810Y907D01*
X0Y906D02*
X7Y906D01*
X1803Y906D02*
X1810Y906D01*
X0Y905D02*
X7Y905D01*
X1803Y905D02*
X1810Y905D01*
X0Y904D02*
X7Y904D01*
X1803Y904D02*
X1810Y904D01*
X0Y903D02*
X7Y903D01*
X1803Y903D02*
X1810Y903D01*
X0Y902D02*
X7Y902D01*
X1803Y902D02*
X1810Y902D01*
X0Y901D02*
X7Y901D01*
X1803Y901D02*
X1810Y901D01*
X0Y900D02*
X7Y900D01*
X1803Y900D02*
X1810Y900D01*
X0Y899D02*
X7Y899D01*
X1803Y899D02*
X1810Y899D01*
X0Y898D02*
X7Y898D01*
X1803Y898D02*
X1810Y898D01*
X0Y897D02*
X7Y897D01*
X1803Y897D02*
X1810Y897D01*
X0Y896D02*
X7Y896D01*
X1803Y896D02*
X1810Y896D01*
X0Y895D02*
X7Y895D01*
X1803Y895D02*
X1810Y895D01*
X0Y894D02*
X7Y894D01*
X1803Y894D02*
X1810Y894D01*
X0Y893D02*
X7Y893D01*
X1803Y893D02*
X1810Y893D01*
X0Y892D02*
X7Y892D01*
X1803Y892D02*
X1810Y892D01*
X0Y891D02*
X7Y891D01*
X1803Y891D02*
X1810Y891D01*
X0Y890D02*
X7Y890D01*
X1803Y890D02*
X1810Y890D01*
X0Y889D02*
X7Y889D01*
X1803Y889D02*
X1810Y889D01*
X0Y888D02*
X7Y888D01*
X1803Y888D02*
X1810Y888D01*
X0Y887D02*
X7Y887D01*
X1803Y887D02*
X1810Y887D01*
X0Y886D02*
X7Y886D01*
X1803Y886D02*
X1810Y886D01*
X0Y885D02*
X7Y885D01*
X1803Y885D02*
X1810Y885D01*
X0Y884D02*
X7Y884D01*
X1803Y884D02*
X1810Y884D01*
X0Y883D02*
X7Y883D01*
X1803Y883D02*
X1810Y883D01*
X0Y882D02*
X7Y882D01*
X1803Y882D02*
X1810Y882D01*
X0Y881D02*
X7Y881D01*
X1803Y881D02*
X1810Y881D01*
X0Y880D02*
X7Y880D01*
X1803Y880D02*
X1810Y880D01*
X0Y879D02*
X7Y879D01*
X1803Y879D02*
X1810Y879D01*
X0Y878D02*
X7Y878D01*
X1803Y878D02*
X1810Y878D01*
X0Y877D02*
X7Y877D01*
X1803Y877D02*
X1810Y877D01*
X0Y876D02*
X7Y876D01*
X1803Y876D02*
X1810Y876D01*
X0Y875D02*
X7Y875D01*
X1803Y875D02*
X1810Y875D01*
X0Y874D02*
X7Y874D01*
X1803Y874D02*
X1810Y874D01*
X0Y873D02*
X7Y873D01*
X1803Y873D02*
X1810Y873D01*
X0Y872D02*
X7Y872D01*
X1803Y872D02*
X1810Y872D01*
X0Y871D02*
X7Y871D01*
X1803Y871D02*
X1810Y871D01*
X0Y870D02*
X7Y870D01*
X1803Y870D02*
X1810Y870D01*
X0Y869D02*
X7Y869D01*
X1803Y869D02*
X1810Y869D01*
X0Y868D02*
X7Y868D01*
X1803Y868D02*
X1810Y868D01*
X0Y867D02*
X7Y867D01*
X1803Y867D02*
X1810Y867D01*
X0Y866D02*
X7Y866D01*
X1803Y866D02*
X1810Y866D01*
X0Y865D02*
X7Y865D01*
X1803Y865D02*
X1810Y865D01*
X0Y864D02*
X7Y864D01*
X1803Y864D02*
X1810Y864D01*
X0Y863D02*
X7Y863D01*
X1803Y863D02*
X1810Y863D01*
X0Y862D02*
X7Y862D01*
X1803Y862D02*
X1810Y862D01*
X0Y861D02*
X7Y861D01*
X1803Y861D02*
X1810Y861D01*
X0Y860D02*
X7Y860D01*
X1803Y860D02*
X1810Y860D01*
X0Y859D02*
X7Y859D01*
X1803Y859D02*
X1810Y859D01*
X0Y858D02*
X7Y858D01*
X1803Y858D02*
X1810Y858D01*
X0Y857D02*
X7Y857D01*
X1803Y857D02*
X1810Y857D01*
X0Y856D02*
X7Y856D01*
X1803Y856D02*
X1810Y856D01*
X0Y855D02*
X7Y855D01*
X1803Y855D02*
X1810Y855D01*
X0Y854D02*
X7Y854D01*
X1803Y854D02*
X1810Y854D01*
X0Y853D02*
X7Y853D01*
X1803Y853D02*
X1810Y853D01*
X0Y852D02*
X7Y852D01*
X1803Y852D02*
X1810Y852D01*
X0Y851D02*
X7Y851D01*
X1803Y851D02*
X1810Y851D01*
X0Y850D02*
X7Y850D01*
X1803Y850D02*
X1810Y850D01*
X0Y849D02*
X7Y849D01*
X1803Y849D02*
X1810Y849D01*
X0Y848D02*
X7Y848D01*
X1803Y848D02*
X1810Y848D01*
X0Y847D02*
X7Y847D01*
X1803Y847D02*
X1810Y847D01*
X0Y846D02*
X7Y846D01*
X1803Y846D02*
X1810Y846D01*
X0Y845D02*
X7Y845D01*
X1803Y845D02*
X1810Y845D01*
X0Y844D02*
X7Y844D01*
X1803Y844D02*
X1810Y844D01*
X0Y843D02*
X7Y843D01*
X1803Y843D02*
X1810Y843D01*
X0Y842D02*
X7Y842D01*
X1803Y842D02*
X1810Y842D01*
X0Y841D02*
X7Y841D01*
X1803Y841D02*
X1810Y841D01*
X0Y840D02*
X7Y840D01*
X1803Y840D02*
X1810Y840D01*
X0Y839D02*
X7Y839D01*
X1803Y839D02*
X1810Y839D01*
X0Y838D02*
X7Y838D01*
X1803Y838D02*
X1810Y838D01*
X0Y837D02*
X7Y837D01*
X1803Y837D02*
X1810Y837D01*
X0Y836D02*
X7Y836D01*
X1803Y836D02*
X1810Y836D01*
X0Y835D02*
X7Y835D01*
X1803Y835D02*
X1810Y835D01*
X0Y834D02*
X7Y834D01*
X1803Y834D02*
X1810Y834D01*
X0Y833D02*
X7Y833D01*
X1803Y833D02*
X1810Y833D01*
X0Y832D02*
X7Y832D01*
X1803Y832D02*
X1810Y832D01*
X0Y831D02*
X7Y831D01*
X1803Y831D02*
X1810Y831D01*
X0Y830D02*
X7Y830D01*
X1803Y830D02*
X1810Y830D01*
X0Y829D02*
X7Y829D01*
X1803Y829D02*
X1810Y829D01*
X0Y828D02*
X7Y828D01*
X1803Y828D02*
X1810Y828D01*
X0Y827D02*
X7Y827D01*
X1803Y827D02*
X1810Y827D01*
X0Y826D02*
X7Y826D01*
X1803Y826D02*
X1810Y826D01*
X0Y825D02*
X7Y825D01*
X1803Y825D02*
X1810Y825D01*
X0Y824D02*
X7Y824D01*
X1803Y824D02*
X1810Y824D01*
X0Y823D02*
X7Y823D01*
X1803Y823D02*
X1810Y823D01*
X0Y822D02*
X7Y822D01*
X1803Y822D02*
X1810Y822D01*
X0Y821D02*
X7Y821D01*
X1803Y821D02*
X1810Y821D01*
X0Y820D02*
X7Y820D01*
X1803Y820D02*
X1810Y820D01*
X0Y819D02*
X7Y819D01*
X1803Y819D02*
X1810Y819D01*
X0Y818D02*
X7Y818D01*
X1803Y818D02*
X1810Y818D01*
X0Y817D02*
X7Y817D01*
X1803Y817D02*
X1810Y817D01*
X0Y816D02*
X7Y816D01*
X1803Y816D02*
X1810Y816D01*
X0Y815D02*
X7Y815D01*
X1803Y815D02*
X1810Y815D01*
X0Y814D02*
X7Y814D01*
X1803Y814D02*
X1810Y814D01*
X0Y813D02*
X7Y813D01*
X1803Y813D02*
X1810Y813D01*
X0Y812D02*
X7Y812D01*
X1803Y812D02*
X1810Y812D01*
X0Y811D02*
X7Y811D01*
X1803Y811D02*
X1810Y811D01*
X0Y810D02*
X7Y810D01*
X1803Y810D02*
X1810Y810D01*
X0Y809D02*
X7Y809D01*
X1803Y809D02*
X1810Y809D01*
X0Y808D02*
X7Y808D01*
X1803Y808D02*
X1810Y808D01*
X0Y807D02*
X7Y807D01*
X1803Y807D02*
X1810Y807D01*
X0Y806D02*
X7Y806D01*
X1803Y806D02*
X1810Y806D01*
X0Y805D02*
X7Y805D01*
X1803Y805D02*
X1810Y805D01*
X0Y804D02*
X7Y804D01*
X1803Y804D02*
X1810Y804D01*
X0Y803D02*
X7Y803D01*
X1803Y803D02*
X1810Y803D01*
X0Y802D02*
X7Y802D01*
X1803Y802D02*
X1810Y802D01*
X0Y801D02*
X7Y801D01*
X1803Y801D02*
X1810Y801D01*
X0Y800D02*
X7Y800D01*
X1803Y800D02*
X1810Y800D01*
X0Y799D02*
X7Y799D01*
X1803Y799D02*
X1810Y799D01*
X0Y798D02*
X7Y798D01*
X1803Y798D02*
X1810Y798D01*
X0Y797D02*
X7Y797D01*
X1803Y797D02*
X1810Y797D01*
X0Y796D02*
X7Y796D01*
X1803Y796D02*
X1810Y796D01*
X0Y795D02*
X7Y795D01*
X1803Y795D02*
X1810Y795D01*
X0Y794D02*
X7Y794D01*
X1803Y794D02*
X1810Y794D01*
X0Y793D02*
X7Y793D01*
X1803Y793D02*
X1810Y793D01*
X0Y792D02*
X7Y792D01*
X1803Y792D02*
X1810Y792D01*
X0Y791D02*
X7Y791D01*
X1803Y791D02*
X1810Y791D01*
X0Y790D02*
X7Y790D01*
X1803Y790D02*
X1810Y790D01*
X0Y789D02*
X7Y789D01*
X1803Y789D02*
X1810Y789D01*
X0Y788D02*
X7Y788D01*
X1803Y788D02*
X1810Y788D01*
X0Y787D02*
X7Y787D01*
X1803Y787D02*
X1810Y787D01*
X0Y786D02*
X7Y786D01*
X1803Y786D02*
X1810Y786D01*
X0Y785D02*
X7Y785D01*
X1803Y785D02*
X1810Y785D01*
X0Y784D02*
X7Y784D01*
X1803Y784D02*
X1810Y784D01*
X0Y783D02*
X7Y783D01*
X1803Y783D02*
X1810Y783D01*
X0Y782D02*
X7Y782D01*
X1803Y782D02*
X1810Y782D01*
X0Y781D02*
X7Y781D01*
X1803Y781D02*
X1810Y781D01*
X0Y780D02*
X7Y780D01*
X1803Y780D02*
X1810Y780D01*
X0Y779D02*
X7Y779D01*
X1803Y779D02*
X1810Y779D01*
X0Y778D02*
X7Y778D01*
X1803Y778D02*
X1810Y778D01*
X0Y777D02*
X7Y777D01*
X1803Y777D02*
X1810Y777D01*
X0Y776D02*
X7Y776D01*
X1803Y776D02*
X1810Y776D01*
X0Y775D02*
X7Y775D01*
X1803Y775D02*
X1810Y775D01*
X0Y774D02*
X7Y774D01*
X1803Y774D02*
X1810Y774D01*
X0Y773D02*
X7Y773D01*
X1803Y773D02*
X1810Y773D01*
X0Y772D02*
X7Y772D01*
X1803Y772D02*
X1810Y772D01*
X0Y771D02*
X7Y771D01*
X1803Y771D02*
X1810Y771D01*
X0Y770D02*
X7Y770D01*
X1803Y770D02*
X1810Y770D01*
X0Y769D02*
X7Y769D01*
X1803Y769D02*
X1810Y769D01*
X0Y768D02*
X7Y768D01*
X1803Y768D02*
X1810Y768D01*
X0Y767D02*
X7Y767D01*
X1803Y767D02*
X1810Y767D01*
X0Y766D02*
X7Y766D01*
X1803Y766D02*
X1810Y766D01*
X0Y765D02*
X7Y765D01*
X1803Y765D02*
X1810Y765D01*
X0Y764D02*
X7Y764D01*
X1803Y764D02*
X1810Y764D01*
X0Y763D02*
X7Y763D01*
X1803Y763D02*
X1810Y763D01*
X0Y762D02*
X7Y762D01*
X1803Y762D02*
X1810Y762D01*
X0Y761D02*
X7Y761D01*
X1803Y761D02*
X1810Y761D01*
X0Y760D02*
X7Y760D01*
X1803Y760D02*
X1810Y760D01*
X0Y759D02*
X7Y759D01*
X1803Y759D02*
X1810Y759D01*
X0Y758D02*
X7Y758D01*
X1803Y758D02*
X1810Y758D01*
X0Y757D02*
X7Y757D01*
X1803Y757D02*
X1810Y757D01*
X0Y756D02*
X7Y756D01*
X1803Y756D02*
X1810Y756D01*
X0Y755D02*
X7Y755D01*
X1803Y755D02*
X1810Y755D01*
X0Y754D02*
X7Y754D01*
X1803Y754D02*
X1810Y754D01*
X0Y753D02*
X7Y753D01*
X1803Y753D02*
X1810Y753D01*
X0Y752D02*
X7Y752D01*
X1803Y752D02*
X1810Y752D01*
X0Y751D02*
X7Y751D01*
X1803Y751D02*
X1810Y751D01*
X0Y750D02*
X7Y750D01*
X1803Y750D02*
X1810Y750D01*
X0Y749D02*
X7Y749D01*
X1803Y749D02*
X1810Y749D01*
X0Y748D02*
X7Y748D01*
X1803Y748D02*
X1810Y748D01*
X0Y747D02*
X7Y747D01*
X1803Y747D02*
X1810Y747D01*
X0Y746D02*
X7Y746D01*
X1803Y746D02*
X1810Y746D01*
X0Y745D02*
X7Y745D01*
X1803Y745D02*
X1810Y745D01*
X0Y744D02*
X7Y744D01*
X1803Y744D02*
X1810Y744D01*
X0Y743D02*
X7Y743D01*
X1803Y743D02*
X1810Y743D01*
X0Y742D02*
X7Y742D01*
X1803Y742D02*
X1810Y742D01*
X0Y741D02*
X7Y741D01*
X1803Y741D02*
X1810Y741D01*
X0Y740D02*
X7Y740D01*
X1803Y740D02*
X1810Y740D01*
X0Y739D02*
X7Y739D01*
X1803Y739D02*
X1810Y739D01*
X0Y738D02*
X7Y738D01*
X1803Y738D02*
X1810Y738D01*
X0Y737D02*
X7Y737D01*
X1803Y737D02*
X1810Y737D01*
X0Y736D02*
X7Y736D01*
X1803Y736D02*
X1810Y736D01*
X0Y735D02*
X7Y735D01*
X1803Y735D02*
X1810Y735D01*
X0Y734D02*
X7Y734D01*
X1803Y734D02*
X1810Y734D01*
X0Y733D02*
X7Y733D01*
X1803Y733D02*
X1810Y733D01*
X0Y732D02*
X7Y732D01*
X1803Y732D02*
X1810Y732D01*
X0Y731D02*
X7Y731D01*
X1803Y731D02*
X1810Y731D01*
X0Y730D02*
X7Y730D01*
X1803Y730D02*
X1810Y730D01*
X0Y729D02*
X7Y729D01*
X1803Y729D02*
X1810Y729D01*
X0Y728D02*
X7Y728D01*
X1803Y728D02*
X1810Y728D01*
X0Y727D02*
X7Y727D01*
X1803Y727D02*
X1810Y727D01*
X0Y726D02*
X7Y726D01*
X1803Y726D02*
X1810Y726D01*
X0Y725D02*
X7Y725D01*
X1803Y725D02*
X1810Y725D01*
X0Y724D02*
X7Y724D01*
X1803Y724D02*
X1810Y724D01*
X0Y723D02*
X7Y723D01*
X1803Y723D02*
X1810Y723D01*
X0Y722D02*
X7Y722D01*
X1803Y722D02*
X1810Y722D01*
X0Y721D02*
X7Y721D01*
X1803Y721D02*
X1810Y721D01*
X0Y720D02*
X7Y720D01*
X1803Y720D02*
X1810Y720D01*
X0Y719D02*
X7Y719D01*
X1803Y719D02*
X1810Y719D01*
X0Y718D02*
X7Y718D01*
X1803Y718D02*
X1810Y718D01*
X0Y717D02*
X7Y717D01*
X1803Y717D02*
X1810Y717D01*
X0Y716D02*
X7Y716D01*
X1803Y716D02*
X1810Y716D01*
X0Y715D02*
X7Y715D01*
X1803Y715D02*
X1810Y715D01*
X0Y714D02*
X7Y714D01*
X1803Y714D02*
X1810Y714D01*
X0Y713D02*
X7Y713D01*
X1803Y713D02*
X1810Y713D01*
X0Y712D02*
X7Y712D01*
X1803Y712D02*
X1810Y712D01*
X0Y711D02*
X7Y711D01*
X1803Y711D02*
X1810Y711D01*
X0Y710D02*
X7Y710D01*
X1803Y710D02*
X1810Y710D01*
X0Y709D02*
X7Y709D01*
X1803Y709D02*
X1810Y709D01*
X0Y708D02*
X7Y708D01*
X1803Y708D02*
X1810Y708D01*
X0Y707D02*
X7Y707D01*
X1803Y707D02*
X1810Y707D01*
X0Y706D02*
X7Y706D01*
X1803Y706D02*
X1810Y706D01*
X0Y705D02*
X7Y705D01*
X1803Y705D02*
X1810Y705D01*
X0Y704D02*
X7Y704D01*
X1803Y704D02*
X1810Y704D01*
X0Y703D02*
X7Y703D01*
X1803Y703D02*
X1810Y703D01*
X0Y702D02*
X7Y702D01*
X1803Y702D02*
X1810Y702D01*
X0Y701D02*
X7Y701D01*
X1803Y701D02*
X1810Y701D01*
X0Y700D02*
X7Y700D01*
X1803Y700D02*
X1810Y700D01*
X0Y699D02*
X7Y699D01*
X1803Y699D02*
X1810Y699D01*
X0Y698D02*
X7Y698D01*
X1803Y698D02*
X1810Y698D01*
X0Y697D02*
X7Y697D01*
X1803Y697D02*
X1810Y697D01*
X0Y696D02*
X7Y696D01*
X1803Y696D02*
X1810Y696D01*
X0Y695D02*
X7Y695D01*
X1803Y695D02*
X1810Y695D01*
X0Y694D02*
X7Y694D01*
X1803Y694D02*
X1810Y694D01*
X0Y693D02*
X7Y693D01*
X1803Y693D02*
X1810Y693D01*
X0Y692D02*
X7Y692D01*
X1803Y692D02*
X1810Y692D01*
X0Y691D02*
X7Y691D01*
X1803Y691D02*
X1810Y691D01*
X0Y690D02*
X7Y690D01*
X1803Y690D02*
X1810Y690D01*
X0Y689D02*
X7Y689D01*
X1803Y689D02*
X1810Y689D01*
X0Y688D02*
X7Y688D01*
X1803Y688D02*
X1810Y688D01*
X0Y687D02*
X7Y687D01*
X1803Y687D02*
X1810Y687D01*
X0Y686D02*
X7Y686D01*
X1803Y686D02*
X1810Y686D01*
X0Y685D02*
X7Y685D01*
X1803Y685D02*
X1810Y685D01*
X0Y684D02*
X7Y684D01*
X1803Y684D02*
X1810Y684D01*
X0Y683D02*
X7Y683D01*
X1803Y683D02*
X1810Y683D01*
X0Y682D02*
X7Y682D01*
X1803Y682D02*
X1810Y682D01*
X0Y681D02*
X7Y681D01*
X1803Y681D02*
X1810Y681D01*
X0Y680D02*
X7Y680D01*
X1803Y680D02*
X1810Y680D01*
X0Y679D02*
X7Y679D01*
X1803Y679D02*
X1810Y679D01*
X0Y678D02*
X7Y678D01*
X1803Y678D02*
X1810Y678D01*
X0Y677D02*
X7Y677D01*
X1803Y677D02*
X1810Y677D01*
X0Y676D02*
X7Y676D01*
X1803Y676D02*
X1810Y676D01*
X0Y675D02*
X7Y675D01*
X1803Y675D02*
X1810Y675D01*
X0Y674D02*
X7Y674D01*
X1803Y674D02*
X1810Y674D01*
X0Y673D02*
X7Y673D01*
X1803Y673D02*
X1810Y673D01*
X0Y672D02*
X7Y672D01*
X1803Y672D02*
X1810Y672D01*
X0Y671D02*
X7Y671D01*
X1803Y671D02*
X1810Y671D01*
X0Y670D02*
X7Y670D01*
X1803Y670D02*
X1810Y670D01*
X0Y669D02*
X7Y669D01*
X1803Y669D02*
X1810Y669D01*
X0Y668D02*
X7Y668D01*
X1803Y668D02*
X1810Y668D01*
X0Y667D02*
X7Y667D01*
X1803Y667D02*
X1810Y667D01*
X0Y666D02*
X7Y666D01*
X1803Y666D02*
X1810Y666D01*
X0Y665D02*
X7Y665D01*
X1803Y665D02*
X1810Y665D01*
X0Y664D02*
X7Y664D01*
X1803Y664D02*
X1810Y664D01*
X0Y663D02*
X7Y663D01*
X1803Y663D02*
X1810Y663D01*
X0Y662D02*
X7Y662D01*
X1803Y662D02*
X1810Y662D01*
X0Y661D02*
X7Y661D01*
X1803Y661D02*
X1810Y661D01*
X0Y660D02*
X7Y660D01*
X1803Y660D02*
X1810Y660D01*
X0Y659D02*
X7Y659D01*
X1803Y659D02*
X1810Y659D01*
X0Y658D02*
X7Y658D01*
X1803Y658D02*
X1810Y658D01*
X0Y657D02*
X7Y657D01*
X1803Y657D02*
X1810Y657D01*
X0Y656D02*
X7Y656D01*
X1803Y656D02*
X1810Y656D01*
X0Y655D02*
X7Y655D01*
X1803Y655D02*
X1810Y655D01*
X0Y654D02*
X7Y654D01*
X1803Y654D02*
X1810Y654D01*
X0Y653D02*
X7Y653D01*
X1803Y653D02*
X1810Y653D01*
X0Y652D02*
X7Y652D01*
X1803Y652D02*
X1810Y652D01*
X0Y651D02*
X7Y651D01*
X1803Y651D02*
X1810Y651D01*
X0Y650D02*
X7Y650D01*
X1803Y650D02*
X1810Y650D01*
X0Y649D02*
X7Y649D01*
X1803Y649D02*
X1810Y649D01*
X0Y648D02*
X7Y648D01*
X1803Y648D02*
X1810Y648D01*
X0Y647D02*
X7Y647D01*
X1803Y647D02*
X1810Y647D01*
X0Y646D02*
X7Y646D01*
X1803Y646D02*
X1810Y646D01*
X0Y645D02*
X7Y645D01*
X1803Y645D02*
X1810Y645D01*
X0Y644D02*
X7Y644D01*
X1803Y644D02*
X1810Y644D01*
X0Y643D02*
X7Y643D01*
X1803Y643D02*
X1810Y643D01*
X0Y642D02*
X7Y642D01*
X1803Y642D02*
X1810Y642D01*
X0Y641D02*
X7Y641D01*
X1803Y641D02*
X1810Y641D01*
X0Y640D02*
X7Y640D01*
X1803Y640D02*
X1810Y640D01*
X0Y639D02*
X7Y639D01*
X1803Y639D02*
X1810Y639D01*
X0Y638D02*
X7Y638D01*
X1803Y638D02*
X1810Y638D01*
X0Y637D02*
X7Y637D01*
X1803Y637D02*
X1810Y637D01*
X0Y636D02*
X7Y636D01*
X1803Y636D02*
X1810Y636D01*
X0Y635D02*
X7Y635D01*
X1803Y635D02*
X1810Y635D01*
X0Y634D02*
X7Y634D01*
X1803Y634D02*
X1810Y634D01*
X0Y633D02*
X7Y633D01*
X1803Y633D02*
X1810Y633D01*
X0Y632D02*
X7Y632D01*
X1803Y632D02*
X1810Y632D01*
X0Y631D02*
X7Y631D01*
X1803Y631D02*
X1810Y631D01*
X0Y630D02*
X7Y630D01*
X1803Y630D02*
X1810Y630D01*
X0Y629D02*
X7Y629D01*
X1803Y629D02*
X1810Y629D01*
X0Y628D02*
X7Y628D01*
X1803Y628D02*
X1810Y628D01*
X0Y627D02*
X7Y627D01*
X1803Y627D02*
X1810Y627D01*
X0Y626D02*
X7Y626D01*
X1803Y626D02*
X1810Y626D01*
X0Y625D02*
X7Y625D01*
X1803Y625D02*
X1810Y625D01*
X0Y624D02*
X7Y624D01*
X1803Y624D02*
X1810Y624D01*
X0Y623D02*
X7Y623D01*
X1803Y623D02*
X1810Y623D01*
X0Y622D02*
X7Y622D01*
X1803Y622D02*
X1810Y622D01*
X0Y621D02*
X7Y621D01*
X1803Y621D02*
X1810Y621D01*
X0Y620D02*
X7Y620D01*
X1803Y620D02*
X1810Y620D01*
X0Y619D02*
X7Y619D01*
X1803Y619D02*
X1810Y619D01*
X0Y618D02*
X7Y618D01*
X1803Y618D02*
X1810Y618D01*
X0Y617D02*
X7Y617D01*
X1803Y617D02*
X1810Y617D01*
X0Y616D02*
X7Y616D01*
X1803Y616D02*
X1810Y616D01*
X0Y615D02*
X7Y615D01*
X1803Y615D02*
X1810Y615D01*
X0Y614D02*
X7Y614D01*
X1803Y614D02*
X1810Y614D01*
X0Y613D02*
X7Y613D01*
X1803Y613D02*
X1810Y613D01*
X0Y612D02*
X7Y612D01*
X1803Y612D02*
X1810Y612D01*
X0Y611D02*
X7Y611D01*
X1803Y611D02*
X1810Y611D01*
X0Y610D02*
X7Y610D01*
X1803Y610D02*
X1810Y610D01*
X0Y609D02*
X7Y609D01*
X1803Y609D02*
X1810Y609D01*
X0Y608D02*
X7Y608D01*
X1803Y608D02*
X1810Y608D01*
X0Y607D02*
X7Y607D01*
X1803Y607D02*
X1810Y607D01*
X0Y606D02*
X7Y606D01*
X1803Y606D02*
X1810Y606D01*
X0Y605D02*
X7Y605D01*
X1803Y605D02*
X1810Y605D01*
X0Y604D02*
X7Y604D01*
X1803Y604D02*
X1810Y604D01*
X0Y603D02*
X7Y603D01*
X1803Y603D02*
X1810Y603D01*
X0Y602D02*
X7Y602D01*
X1803Y602D02*
X1810Y602D01*
X0Y601D02*
X7Y601D01*
X1803Y601D02*
X1810Y601D01*
X0Y600D02*
X7Y600D01*
X1803Y600D02*
X1810Y600D01*
X0Y599D02*
X7Y599D01*
X1803Y599D02*
X1810Y599D01*
X0Y598D02*
X7Y598D01*
X1803Y598D02*
X1810Y598D01*
X0Y597D02*
X7Y597D01*
X1803Y597D02*
X1810Y597D01*
X0Y596D02*
X7Y596D01*
X1803Y596D02*
X1810Y596D01*
X0Y595D02*
X7Y595D01*
X1803Y595D02*
X1810Y595D01*
X0Y594D02*
X7Y594D01*
X1803Y594D02*
X1810Y594D01*
X0Y593D02*
X7Y593D01*
X1803Y593D02*
X1810Y593D01*
X0Y592D02*
X7Y592D01*
X1803Y592D02*
X1810Y592D01*
X0Y591D02*
X7Y591D01*
X1803Y591D02*
X1810Y591D01*
X0Y590D02*
X7Y590D01*
X1803Y590D02*
X1810Y590D01*
X0Y589D02*
X7Y589D01*
X1803Y589D02*
X1810Y589D01*
X0Y588D02*
X7Y588D01*
X1803Y588D02*
X1810Y588D01*
X0Y587D02*
X7Y587D01*
X1803Y587D02*
X1810Y587D01*
X0Y586D02*
X7Y586D01*
X1803Y586D02*
X1810Y586D01*
X0Y585D02*
X7Y585D01*
X1803Y585D02*
X1810Y585D01*
X0Y584D02*
X7Y584D01*
X1803Y584D02*
X1810Y584D01*
X0Y583D02*
X7Y583D01*
X1803Y583D02*
X1810Y583D01*
X0Y582D02*
X7Y582D01*
X1803Y582D02*
X1810Y582D01*
X0Y581D02*
X7Y581D01*
X1803Y581D02*
X1810Y581D01*
X0Y580D02*
X7Y580D01*
X1803Y580D02*
X1810Y580D01*
X0Y579D02*
X7Y579D01*
X1803Y579D02*
X1810Y579D01*
X0Y578D02*
X7Y578D01*
X1803Y578D02*
X1810Y578D01*
X0Y577D02*
X7Y577D01*
X1803Y577D02*
X1810Y577D01*
X0Y576D02*
X7Y576D01*
X1803Y576D02*
X1810Y576D01*
X0Y575D02*
X7Y575D01*
X1803Y575D02*
X1810Y575D01*
X0Y574D02*
X7Y574D01*
X1803Y574D02*
X1810Y574D01*
X0Y573D02*
X7Y573D01*
X1803Y573D02*
X1810Y573D01*
X0Y572D02*
X7Y572D01*
X1803Y572D02*
X1810Y572D01*
X0Y571D02*
X7Y571D01*
X1803Y571D02*
X1810Y571D01*
X0Y570D02*
X7Y570D01*
X1803Y570D02*
X1810Y570D01*
X0Y569D02*
X7Y569D01*
X1803Y569D02*
X1810Y569D01*
X0Y568D02*
X7Y568D01*
X1803Y568D02*
X1810Y568D01*
X0Y567D02*
X7Y567D01*
X1803Y567D02*
X1810Y567D01*
X0Y566D02*
X7Y566D01*
X1803Y566D02*
X1810Y566D01*
X0Y565D02*
X7Y565D01*
X1803Y565D02*
X1810Y565D01*
X0Y564D02*
X7Y564D01*
X1803Y564D02*
X1810Y564D01*
X0Y563D02*
X7Y563D01*
X1803Y563D02*
X1810Y563D01*
X0Y562D02*
X7Y562D01*
X1803Y562D02*
X1810Y562D01*
X0Y561D02*
X7Y561D01*
X1803Y561D02*
X1810Y561D01*
X0Y560D02*
X7Y560D01*
X1803Y560D02*
X1810Y560D01*
X0Y559D02*
X7Y559D01*
X1803Y559D02*
X1810Y559D01*
X0Y558D02*
X7Y558D01*
X1803Y558D02*
X1810Y558D01*
X0Y557D02*
X7Y557D01*
X1803Y557D02*
X1810Y557D01*
X0Y556D02*
X7Y556D01*
X1803Y556D02*
X1810Y556D01*
X0Y555D02*
X7Y555D01*
X1803Y555D02*
X1810Y555D01*
X0Y554D02*
X7Y554D01*
X1803Y554D02*
X1810Y554D01*
X0Y553D02*
X7Y553D01*
X1803Y553D02*
X1810Y553D01*
X0Y552D02*
X7Y552D01*
X1803Y552D02*
X1810Y552D01*
X0Y551D02*
X7Y551D01*
X1803Y551D02*
X1810Y551D01*
X0Y550D02*
X7Y550D01*
X305Y550D02*
X308Y550D01*
X331Y550D02*
X334Y550D01*
X358Y550D02*
X362Y550D01*
X379Y550D02*
X412Y550D01*
X431Y550D02*
X449Y550D01*
X1405Y550D02*
X1408Y550D01*
X1429Y550D02*
X1462Y550D01*
X1479Y550D02*
X1488Y550D01*
X1504Y550D02*
X1513Y550D01*
X1531Y550D02*
X1549Y550D01*
X1803Y550D02*
X1810Y550D01*
X0Y549D02*
X7Y549D01*
X304Y549D02*
X309Y549D01*
X330Y549D02*
X335Y549D01*
X357Y549D02*
X362Y549D01*
X379Y549D02*
X412Y549D01*
X430Y549D02*
X449Y549D01*
X1404Y549D02*
X1409Y549D01*
X1429Y549D02*
X1462Y549D01*
X1479Y549D02*
X1488Y549D01*
X1504Y549D02*
X1513Y549D01*
X1530Y549D02*
X1549Y549D01*
X1803Y549D02*
X1810Y549D01*
X0Y548D02*
X7Y548D01*
X304Y548D02*
X309Y548D01*
X329Y548D02*
X335Y548D01*
X357Y548D02*
X363Y548D01*
X379Y548D02*
X413Y548D01*
X429Y548D02*
X449Y548D01*
X1403Y548D02*
X1409Y548D01*
X1429Y548D02*
X1463Y548D01*
X1479Y548D02*
X1489Y548D01*
X1503Y548D02*
X1513Y548D01*
X1529Y548D02*
X1549Y548D01*
X1803Y548D02*
X1810Y548D01*
X0Y547D02*
X7Y547D01*
X303Y547D02*
X309Y547D01*
X329Y547D02*
X335Y547D01*
X357Y547D02*
X363Y547D01*
X379Y547D02*
X413Y547D01*
X429Y547D02*
X449Y547D01*
X1403Y547D02*
X1409Y547D01*
X1429Y547D02*
X1463Y547D01*
X1479Y547D02*
X1490Y547D01*
X1502Y547D02*
X1513Y547D01*
X1529Y547D02*
X1549Y547D01*
X1803Y547D02*
X1810Y547D01*
X0Y546D02*
X7Y546D01*
X303Y546D02*
X309Y546D01*
X329Y546D02*
X335Y546D01*
X357Y546D02*
X363Y546D01*
X379Y546D02*
X413Y546D01*
X430Y546D02*
X449Y546D01*
X1403Y546D02*
X1409Y546D01*
X1429Y546D02*
X1463Y546D01*
X1479Y546D02*
X1490Y546D01*
X1502Y546D02*
X1513Y546D01*
X1530Y546D02*
X1549Y546D01*
X1803Y546D02*
X1810Y546D01*
X0Y545D02*
X7Y545D01*
X303Y545D02*
X309Y545D01*
X329Y545D02*
X335Y545D01*
X357Y545D02*
X363Y545D01*
X379Y545D02*
X412Y545D01*
X430Y545D02*
X449Y545D01*
X1403Y545D02*
X1409Y545D01*
X1429Y545D02*
X1462Y545D01*
X1479Y545D02*
X1491Y545D01*
X1501Y545D02*
X1513Y545D01*
X1530Y545D02*
X1549Y545D01*
X1803Y545D02*
X1810Y545D01*
X0Y544D02*
X7Y544D01*
X303Y544D02*
X309Y544D01*
X329Y544D02*
X335Y544D01*
X357Y544D02*
X363Y544D01*
X379Y544D02*
X410Y544D01*
X432Y544D02*
X449Y544D01*
X1403Y544D02*
X1409Y544D01*
X1429Y544D02*
X1460Y544D01*
X1479Y544D02*
X1492Y544D01*
X1500Y544D02*
X1513Y544D01*
X1532Y544D02*
X1549Y544D01*
X1803Y544D02*
X1810Y544D01*
X0Y543D02*
X7Y543D01*
X303Y543D02*
X309Y543D01*
X329Y543D02*
X335Y543D01*
X357Y543D02*
X363Y543D01*
X379Y543D02*
X385Y543D01*
X443Y543D02*
X449Y543D01*
X1403Y543D02*
X1409Y543D01*
X1429Y543D02*
X1435Y543D01*
X1479Y543D02*
X1493Y543D01*
X1500Y543D02*
X1513Y543D01*
X1543Y543D02*
X1549Y543D01*
X1803Y543D02*
X1810Y543D01*
X0Y542D02*
X7Y542D01*
X303Y542D02*
X309Y542D01*
X329Y542D02*
X335Y542D01*
X357Y542D02*
X363Y542D01*
X379Y542D02*
X385Y542D01*
X443Y542D02*
X449Y542D01*
X1403Y542D02*
X1409Y542D01*
X1429Y542D02*
X1435Y542D01*
X1479Y542D02*
X1493Y542D01*
X1499Y542D02*
X1513Y542D01*
X1543Y542D02*
X1549Y542D01*
X1803Y542D02*
X1810Y542D01*
X0Y541D02*
X7Y541D01*
X303Y541D02*
X309Y541D01*
X329Y541D02*
X335Y541D01*
X357Y541D02*
X363Y541D01*
X379Y541D02*
X385Y541D01*
X443Y541D02*
X449Y541D01*
X1403Y541D02*
X1409Y541D01*
X1429Y541D02*
X1435Y541D01*
X1479Y541D02*
X1494Y541D01*
X1498Y541D02*
X1513Y541D01*
X1543Y541D02*
X1549Y541D01*
X1803Y541D02*
X1810Y541D01*
X0Y540D02*
X7Y540D01*
X303Y540D02*
X309Y540D01*
X329Y540D02*
X335Y540D01*
X357Y540D02*
X363Y540D01*
X379Y540D02*
X385Y540D01*
X443Y540D02*
X449Y540D01*
X1403Y540D02*
X1409Y540D01*
X1429Y540D02*
X1435Y540D01*
X1479Y540D02*
X1485Y540D01*
X1487Y540D02*
X1495Y540D01*
X1497Y540D02*
X1505Y540D01*
X1507Y540D02*
X1513Y540D01*
X1543Y540D02*
X1549Y540D01*
X1803Y540D02*
X1810Y540D01*
X0Y539D02*
X7Y539D01*
X303Y539D02*
X309Y539D01*
X329Y539D02*
X335Y539D01*
X357Y539D02*
X363Y539D01*
X379Y539D02*
X385Y539D01*
X443Y539D02*
X449Y539D01*
X1403Y539D02*
X1409Y539D01*
X1429Y539D02*
X1435Y539D01*
X1479Y539D02*
X1485Y539D01*
X1488Y539D02*
X1504Y539D01*
X1507Y539D02*
X1513Y539D01*
X1543Y539D02*
X1549Y539D01*
X1803Y539D02*
X1810Y539D01*
X0Y538D02*
X7Y538D01*
X303Y538D02*
X309Y538D01*
X329Y538D02*
X335Y538D01*
X357Y538D02*
X363Y538D01*
X379Y538D02*
X385Y538D01*
X443Y538D02*
X449Y538D01*
X1403Y538D02*
X1409Y538D01*
X1429Y538D02*
X1435Y538D01*
X1479Y538D02*
X1485Y538D01*
X1488Y538D02*
X1504Y538D01*
X1507Y538D02*
X1513Y538D01*
X1543Y538D02*
X1549Y538D01*
X1803Y538D02*
X1810Y538D01*
X0Y537D02*
X7Y537D01*
X303Y537D02*
X309Y537D01*
X329Y537D02*
X335Y537D01*
X357Y537D02*
X363Y537D01*
X379Y537D02*
X385Y537D01*
X443Y537D02*
X449Y537D01*
X1403Y537D02*
X1409Y537D01*
X1429Y537D02*
X1435Y537D01*
X1479Y537D02*
X1485Y537D01*
X1489Y537D02*
X1503Y537D01*
X1507Y537D02*
X1513Y537D01*
X1543Y537D02*
X1549Y537D01*
X1803Y537D02*
X1810Y537D01*
X0Y536D02*
X7Y536D01*
X303Y536D02*
X309Y536D01*
X329Y536D02*
X335Y536D01*
X357Y536D02*
X363Y536D01*
X379Y536D02*
X385Y536D01*
X443Y536D02*
X449Y536D01*
X1403Y536D02*
X1409Y536D01*
X1429Y536D02*
X1435Y536D01*
X1479Y536D02*
X1485Y536D01*
X1490Y536D02*
X1502Y536D01*
X1507Y536D02*
X1513Y536D01*
X1543Y536D02*
X1549Y536D01*
X1803Y536D02*
X1810Y536D01*
X0Y535D02*
X7Y535D01*
X303Y535D02*
X309Y535D01*
X329Y535D02*
X335Y535D01*
X357Y535D02*
X363Y535D01*
X379Y535D02*
X385Y535D01*
X443Y535D02*
X449Y535D01*
X1403Y535D02*
X1409Y535D01*
X1429Y535D02*
X1435Y535D01*
X1479Y535D02*
X1485Y535D01*
X1491Y535D02*
X1502Y535D01*
X1507Y535D02*
X1513Y535D01*
X1543Y535D02*
X1549Y535D01*
X1803Y535D02*
X1810Y535D01*
X0Y534D02*
X7Y534D01*
X303Y534D02*
X309Y534D01*
X329Y534D02*
X335Y534D01*
X357Y534D02*
X363Y534D01*
X379Y534D02*
X385Y534D01*
X443Y534D02*
X449Y534D01*
X1403Y534D02*
X1409Y534D01*
X1429Y534D02*
X1435Y534D01*
X1479Y534D02*
X1485Y534D01*
X1491Y534D02*
X1501Y534D01*
X1507Y534D02*
X1513Y534D01*
X1543Y534D02*
X1549Y534D01*
X1803Y534D02*
X1810Y534D01*
X0Y533D02*
X7Y533D01*
X303Y533D02*
X309Y533D01*
X329Y533D02*
X335Y533D01*
X346Y533D02*
X346Y533D01*
X357Y533D02*
X363Y533D01*
X379Y533D02*
X403Y533D01*
X443Y533D02*
X449Y533D01*
X1403Y533D02*
X1409Y533D01*
X1429Y533D02*
X1435Y533D01*
X1479Y533D02*
X1485Y533D01*
X1492Y533D02*
X1500Y533D01*
X1507Y533D02*
X1513Y533D01*
X1543Y533D02*
X1549Y533D01*
X1803Y533D02*
X1810Y533D01*
X0Y532D02*
X7Y532D01*
X303Y532D02*
X309Y532D01*
X329Y532D02*
X335Y532D01*
X344Y532D02*
X348Y532D01*
X357Y532D02*
X363Y532D01*
X379Y532D02*
X405Y532D01*
X443Y532D02*
X449Y532D01*
X1403Y532D02*
X1409Y532D01*
X1429Y532D02*
X1435Y532D01*
X1479Y532D02*
X1485Y532D01*
X1493Y532D02*
X1499Y532D01*
X1507Y532D02*
X1513Y532D01*
X1543Y532D02*
X1549Y532D01*
X1803Y532D02*
X1810Y532D01*
X0Y531D02*
X7Y531D01*
X303Y531D02*
X309Y531D01*
X329Y531D02*
X335Y531D01*
X343Y531D02*
X349Y531D01*
X357Y531D02*
X363Y531D01*
X379Y531D02*
X406Y531D01*
X443Y531D02*
X449Y531D01*
X1403Y531D02*
X1409Y531D01*
X1429Y531D02*
X1435Y531D01*
X1479Y531D02*
X1485Y531D01*
X1493Y531D02*
X1499Y531D01*
X1507Y531D02*
X1513Y531D01*
X1543Y531D02*
X1549Y531D01*
X1803Y531D02*
X1810Y531D01*
X0Y530D02*
X7Y530D01*
X303Y530D02*
X309Y530D01*
X329Y530D02*
X335Y530D01*
X343Y530D02*
X349Y530D01*
X357Y530D02*
X363Y530D01*
X379Y530D02*
X406Y530D01*
X443Y530D02*
X449Y530D01*
X1403Y530D02*
X1409Y530D01*
X1429Y530D02*
X1435Y530D01*
X1479Y530D02*
X1485Y530D01*
X1493Y530D02*
X1499Y530D01*
X1507Y530D02*
X1513Y530D01*
X1543Y530D02*
X1549Y530D01*
X1803Y530D02*
X1810Y530D01*
X0Y529D02*
X7Y529D01*
X303Y529D02*
X309Y529D01*
X329Y529D02*
X335Y529D01*
X343Y529D02*
X349Y529D01*
X357Y529D02*
X363Y529D01*
X379Y529D02*
X406Y529D01*
X443Y529D02*
X449Y529D01*
X1403Y529D02*
X1409Y529D01*
X1429Y529D02*
X1435Y529D01*
X1479Y529D02*
X1485Y529D01*
X1493Y529D02*
X1499Y529D01*
X1507Y529D02*
X1513Y529D01*
X1543Y529D02*
X1549Y529D01*
X1803Y529D02*
X1810Y529D01*
X0Y528D02*
X7Y528D01*
X303Y528D02*
X309Y528D01*
X329Y528D02*
X335Y528D01*
X343Y528D02*
X349Y528D01*
X357Y528D02*
X363Y528D01*
X379Y528D02*
X405Y528D01*
X443Y528D02*
X449Y528D01*
X1403Y528D02*
X1409Y528D01*
X1429Y528D02*
X1435Y528D01*
X1479Y528D02*
X1485Y528D01*
X1494Y528D02*
X1499Y528D01*
X1507Y528D02*
X1513Y528D01*
X1543Y528D02*
X1549Y528D01*
X1803Y528D02*
X1810Y528D01*
X0Y527D02*
X7Y527D01*
X303Y527D02*
X309Y527D01*
X329Y527D02*
X335Y527D01*
X343Y527D02*
X349Y527D01*
X357Y527D02*
X363Y527D01*
X379Y527D02*
X405Y527D01*
X443Y527D02*
X449Y527D01*
X1403Y527D02*
X1409Y527D01*
X1429Y527D02*
X1447Y527D01*
X1479Y527D02*
X1485Y527D01*
X1494Y527D02*
X1498Y527D01*
X1507Y527D02*
X1513Y527D01*
X1543Y527D02*
X1549Y527D01*
X1803Y527D02*
X1810Y527D01*
X0Y526D02*
X7Y526D01*
X303Y526D02*
X309Y526D01*
X329Y526D02*
X335Y526D01*
X343Y526D02*
X349Y526D01*
X357Y526D02*
X363Y526D01*
X379Y526D02*
X386Y526D01*
X443Y526D02*
X449Y526D01*
X1403Y526D02*
X1409Y526D01*
X1429Y526D02*
X1448Y526D01*
X1479Y526D02*
X1485Y526D01*
X1507Y526D02*
X1513Y526D01*
X1543Y526D02*
X1549Y526D01*
X1803Y526D02*
X1810Y526D01*
X0Y525D02*
X7Y525D01*
X303Y525D02*
X309Y525D01*
X329Y525D02*
X335Y525D01*
X343Y525D02*
X349Y525D01*
X357Y525D02*
X363Y525D01*
X379Y525D02*
X385Y525D01*
X443Y525D02*
X449Y525D01*
X1403Y525D02*
X1409Y525D01*
X1429Y525D02*
X1449Y525D01*
X1479Y525D02*
X1485Y525D01*
X1507Y525D02*
X1513Y525D01*
X1543Y525D02*
X1549Y525D01*
X1803Y525D02*
X1810Y525D01*
X0Y524D02*
X7Y524D01*
X303Y524D02*
X309Y524D01*
X329Y524D02*
X335Y524D01*
X343Y524D02*
X349Y524D01*
X357Y524D02*
X363Y524D01*
X379Y524D02*
X385Y524D01*
X443Y524D02*
X449Y524D01*
X1403Y524D02*
X1409Y524D01*
X1429Y524D02*
X1449Y524D01*
X1479Y524D02*
X1485Y524D01*
X1507Y524D02*
X1513Y524D01*
X1543Y524D02*
X1549Y524D01*
X1803Y524D02*
X1810Y524D01*
X0Y523D02*
X7Y523D01*
X303Y523D02*
X309Y523D01*
X329Y523D02*
X335Y523D01*
X343Y523D02*
X349Y523D01*
X357Y523D02*
X363Y523D01*
X379Y523D02*
X385Y523D01*
X443Y523D02*
X449Y523D01*
X1403Y523D02*
X1409Y523D01*
X1429Y523D02*
X1449Y523D01*
X1479Y523D02*
X1485Y523D01*
X1507Y523D02*
X1513Y523D01*
X1543Y523D02*
X1549Y523D01*
X1803Y523D02*
X1810Y523D01*
X0Y522D02*
X7Y522D01*
X303Y522D02*
X309Y522D01*
X329Y522D02*
X335Y522D01*
X343Y522D02*
X349Y522D01*
X357Y522D02*
X363Y522D01*
X379Y522D02*
X385Y522D01*
X443Y522D02*
X449Y522D01*
X1403Y522D02*
X1409Y522D01*
X1429Y522D02*
X1448Y522D01*
X1479Y522D02*
X1485Y522D01*
X1507Y522D02*
X1513Y522D01*
X1543Y522D02*
X1549Y522D01*
X1803Y522D02*
X1810Y522D01*
X0Y521D02*
X7Y521D01*
X285Y521D02*
X287Y521D01*
X303Y521D02*
X309Y521D01*
X329Y521D02*
X335Y521D01*
X343Y521D02*
X349Y521D01*
X357Y521D02*
X363Y521D01*
X379Y521D02*
X385Y521D01*
X443Y521D02*
X449Y521D01*
X459Y521D02*
X461Y521D01*
X1385Y521D02*
X1387Y521D01*
X1403Y521D02*
X1409Y521D01*
X1429Y521D02*
X1448Y521D01*
X1479Y521D02*
X1485Y521D01*
X1507Y521D02*
X1513Y521D01*
X1543Y521D02*
X1549Y521D01*
X1559Y521D02*
X1561Y521D01*
X1803Y521D02*
X1810Y521D01*
X0Y520D02*
X7Y520D01*
X283Y520D02*
X288Y520D01*
X303Y520D02*
X309Y520D01*
X329Y520D02*
X335Y520D01*
X343Y520D02*
X349Y520D01*
X357Y520D02*
X363Y520D01*
X379Y520D02*
X385Y520D01*
X443Y520D02*
X449Y520D01*
X458Y520D02*
X462Y520D01*
X1383Y520D02*
X1388Y520D01*
X1403Y520D02*
X1409Y520D01*
X1429Y520D02*
X1435Y520D01*
X1479Y520D02*
X1485Y520D01*
X1507Y520D02*
X1513Y520D01*
X1543Y520D02*
X1549Y520D01*
X1558Y520D02*
X1562Y520D01*
X1803Y520D02*
X1810Y520D01*
X0Y519D02*
X7Y519D01*
X283Y519D02*
X288Y519D01*
X303Y519D02*
X309Y519D01*
X329Y519D02*
X335Y519D01*
X343Y519D02*
X349Y519D01*
X357Y519D02*
X363Y519D01*
X379Y519D02*
X385Y519D01*
X443Y519D02*
X449Y519D01*
X457Y519D02*
X463Y519D01*
X1383Y519D02*
X1388Y519D01*
X1403Y519D02*
X1409Y519D01*
X1429Y519D02*
X1435Y519D01*
X1479Y519D02*
X1485Y519D01*
X1507Y519D02*
X1513Y519D01*
X1543Y519D02*
X1549Y519D01*
X1557Y519D02*
X1563Y519D01*
X1803Y519D02*
X1810Y519D01*
X0Y518D02*
X7Y518D01*
X283Y518D02*
X289Y518D01*
X303Y518D02*
X309Y518D01*
X329Y518D02*
X335Y518D01*
X343Y518D02*
X349Y518D01*
X357Y518D02*
X363Y518D01*
X379Y518D02*
X385Y518D01*
X443Y518D02*
X449Y518D01*
X457Y518D02*
X463Y518D01*
X1383Y518D02*
X1389Y518D01*
X1403Y518D02*
X1409Y518D01*
X1429Y518D02*
X1435Y518D01*
X1479Y518D02*
X1485Y518D01*
X1507Y518D02*
X1513Y518D01*
X1543Y518D02*
X1549Y518D01*
X1557Y518D02*
X1563Y518D01*
X1803Y518D02*
X1810Y518D01*
X0Y517D02*
X7Y517D01*
X283Y517D02*
X289Y517D01*
X303Y517D02*
X309Y517D01*
X329Y517D02*
X335Y517D01*
X343Y517D02*
X349Y517D01*
X357Y517D02*
X363Y517D01*
X379Y517D02*
X385Y517D01*
X443Y517D02*
X449Y517D01*
X457Y517D02*
X463Y517D01*
X1383Y517D02*
X1389Y517D01*
X1403Y517D02*
X1409Y517D01*
X1429Y517D02*
X1435Y517D01*
X1479Y517D02*
X1485Y517D01*
X1507Y517D02*
X1513Y517D01*
X1543Y517D02*
X1549Y517D01*
X1557Y517D02*
X1563Y517D01*
X1803Y517D02*
X1810Y517D01*
X0Y516D02*
X7Y516D01*
X283Y516D02*
X289Y516D01*
X303Y516D02*
X309Y516D01*
X329Y516D02*
X335Y516D01*
X343Y516D02*
X349Y516D01*
X357Y516D02*
X363Y516D01*
X379Y516D02*
X385Y516D01*
X443Y516D02*
X449Y516D01*
X457Y516D02*
X463Y516D01*
X1383Y516D02*
X1389Y516D01*
X1403Y516D02*
X1409Y516D01*
X1429Y516D02*
X1435Y516D01*
X1479Y516D02*
X1485Y516D01*
X1507Y516D02*
X1513Y516D01*
X1543Y516D02*
X1549Y516D01*
X1557Y516D02*
X1563Y516D01*
X1803Y516D02*
X1810Y516D01*
X0Y515D02*
X7Y515D01*
X283Y515D02*
X289Y515D01*
X303Y515D02*
X309Y515D01*
X329Y515D02*
X335Y515D01*
X343Y515D02*
X349Y515D01*
X357Y515D02*
X363Y515D01*
X379Y515D02*
X385Y515D01*
X443Y515D02*
X449Y515D01*
X457Y515D02*
X463Y515D01*
X1383Y515D02*
X1389Y515D01*
X1403Y515D02*
X1409Y515D01*
X1429Y515D02*
X1435Y515D01*
X1479Y515D02*
X1485Y515D01*
X1507Y515D02*
X1513Y515D01*
X1543Y515D02*
X1549Y515D01*
X1557Y515D02*
X1563Y515D01*
X1803Y515D02*
X1810Y515D01*
X0Y514D02*
X7Y514D01*
X283Y514D02*
X289Y514D01*
X303Y514D02*
X309Y514D01*
X329Y514D02*
X335Y514D01*
X343Y514D02*
X349Y514D01*
X357Y514D02*
X363Y514D01*
X379Y514D02*
X385Y514D01*
X443Y514D02*
X449Y514D01*
X457Y514D02*
X463Y514D01*
X1383Y514D02*
X1389Y514D01*
X1403Y514D02*
X1409Y514D01*
X1429Y514D02*
X1435Y514D01*
X1479Y514D02*
X1485Y514D01*
X1507Y514D02*
X1513Y514D01*
X1543Y514D02*
X1549Y514D01*
X1557Y514D02*
X1563Y514D01*
X1803Y514D02*
X1810Y514D01*
X0Y513D02*
X7Y513D01*
X283Y513D02*
X289Y513D01*
X303Y513D02*
X309Y513D01*
X329Y513D02*
X335Y513D01*
X343Y513D02*
X349Y513D01*
X357Y513D02*
X363Y513D01*
X379Y513D02*
X385Y513D01*
X443Y513D02*
X449Y513D01*
X457Y513D02*
X463Y513D01*
X1383Y513D02*
X1389Y513D01*
X1403Y513D02*
X1409Y513D01*
X1429Y513D02*
X1435Y513D01*
X1479Y513D02*
X1485Y513D01*
X1507Y513D02*
X1513Y513D01*
X1543Y513D02*
X1549Y513D01*
X1557Y513D02*
X1563Y513D01*
X1803Y513D02*
X1810Y513D01*
X0Y512D02*
X7Y512D01*
X283Y512D02*
X289Y512D01*
X303Y512D02*
X309Y512D01*
X329Y512D02*
X335Y512D01*
X343Y512D02*
X349Y512D01*
X357Y512D02*
X363Y512D01*
X379Y512D02*
X385Y512D01*
X443Y512D02*
X449Y512D01*
X457Y512D02*
X463Y512D01*
X1383Y512D02*
X1389Y512D01*
X1403Y512D02*
X1409Y512D01*
X1429Y512D02*
X1435Y512D01*
X1479Y512D02*
X1485Y512D01*
X1507Y512D02*
X1513Y512D01*
X1543Y512D02*
X1549Y512D01*
X1557Y512D02*
X1563Y512D01*
X1803Y512D02*
X1810Y512D01*
X0Y511D02*
X7Y511D01*
X283Y511D02*
X289Y511D01*
X303Y511D02*
X309Y511D01*
X329Y511D02*
X335Y511D01*
X343Y511D02*
X349Y511D01*
X357Y511D02*
X363Y511D01*
X379Y511D02*
X385Y511D01*
X443Y511D02*
X449Y511D01*
X457Y511D02*
X463Y511D01*
X1383Y511D02*
X1389Y511D01*
X1403Y511D02*
X1409Y511D01*
X1429Y511D02*
X1435Y511D01*
X1479Y511D02*
X1485Y511D01*
X1507Y511D02*
X1513Y511D01*
X1543Y511D02*
X1549Y511D01*
X1557Y511D02*
X1563Y511D01*
X1803Y511D02*
X1810Y511D01*
X0Y510D02*
X7Y510D01*
X283Y510D02*
X289Y510D01*
X303Y510D02*
X309Y510D01*
X329Y510D02*
X335Y510D01*
X343Y510D02*
X349Y510D01*
X357Y510D02*
X363Y510D01*
X379Y510D02*
X385Y510D01*
X443Y510D02*
X449Y510D01*
X457Y510D02*
X463Y510D01*
X1383Y510D02*
X1389Y510D01*
X1403Y510D02*
X1409Y510D01*
X1429Y510D02*
X1435Y510D01*
X1479Y510D02*
X1485Y510D01*
X1507Y510D02*
X1513Y510D01*
X1543Y510D02*
X1549Y510D01*
X1557Y510D02*
X1563Y510D01*
X1803Y510D02*
X1810Y510D01*
X0Y509D02*
X7Y509D01*
X283Y509D02*
X289Y509D01*
X303Y509D02*
X309Y509D01*
X329Y509D02*
X335Y509D01*
X343Y509D02*
X349Y509D01*
X357Y509D02*
X363Y509D01*
X379Y509D02*
X385Y509D01*
X443Y509D02*
X449Y509D01*
X457Y509D02*
X463Y509D01*
X1383Y509D02*
X1389Y509D01*
X1403Y509D02*
X1409Y509D01*
X1429Y509D02*
X1435Y509D01*
X1479Y509D02*
X1485Y509D01*
X1507Y509D02*
X1513Y509D01*
X1543Y509D02*
X1549Y509D01*
X1557Y509D02*
X1563Y509D01*
X1803Y509D02*
X1810Y509D01*
X0Y508D02*
X7Y508D01*
X283Y508D02*
X289Y508D01*
X303Y508D02*
X309Y508D01*
X329Y508D02*
X335Y508D01*
X343Y508D02*
X349Y508D01*
X357Y508D02*
X363Y508D01*
X379Y508D02*
X385Y508D01*
X443Y508D02*
X449Y508D01*
X457Y508D02*
X463Y508D01*
X1383Y508D02*
X1389Y508D01*
X1403Y508D02*
X1409Y508D01*
X1429Y508D02*
X1435Y508D01*
X1479Y508D02*
X1485Y508D01*
X1507Y508D02*
X1513Y508D01*
X1543Y508D02*
X1549Y508D01*
X1557Y508D02*
X1563Y508D01*
X1803Y508D02*
X1810Y508D01*
X0Y507D02*
X7Y507D01*
X283Y507D02*
X289Y507D01*
X303Y507D02*
X309Y507D01*
X329Y507D02*
X335Y507D01*
X343Y507D02*
X349Y507D01*
X357Y507D02*
X363Y507D01*
X379Y507D02*
X385Y507D01*
X443Y507D02*
X449Y507D01*
X457Y507D02*
X463Y507D01*
X1383Y507D02*
X1389Y507D01*
X1403Y507D02*
X1409Y507D01*
X1429Y507D02*
X1435Y507D01*
X1479Y507D02*
X1485Y507D01*
X1507Y507D02*
X1513Y507D01*
X1543Y507D02*
X1549Y507D01*
X1557Y507D02*
X1563Y507D01*
X1803Y507D02*
X1810Y507D01*
X0Y506D02*
X7Y506D01*
X283Y506D02*
X289Y506D01*
X303Y506D02*
X309Y506D01*
X329Y506D02*
X336Y506D01*
X342Y506D02*
X350Y506D01*
X356Y506D02*
X363Y506D01*
X379Y506D02*
X385Y506D01*
X443Y506D02*
X449Y506D01*
X457Y506D02*
X463Y506D01*
X1383Y506D02*
X1389Y506D01*
X1403Y506D02*
X1409Y506D01*
X1429Y506D02*
X1435Y506D01*
X1479Y506D02*
X1485Y506D01*
X1507Y506D02*
X1513Y506D01*
X1543Y506D02*
X1549Y506D01*
X1557Y506D02*
X1563Y506D01*
X1803Y506D02*
X1810Y506D01*
X0Y505D02*
X7Y505D01*
X283Y505D02*
X290Y505D01*
X302Y505D02*
X309Y505D01*
X329Y505D02*
X336Y505D01*
X342Y505D02*
X350Y505D01*
X356Y505D02*
X363Y505D01*
X379Y505D02*
X385Y505D01*
X443Y505D02*
X449Y505D01*
X457Y505D02*
X463Y505D01*
X1383Y505D02*
X1390Y505D01*
X1402Y505D02*
X1409Y505D01*
X1429Y505D02*
X1435Y505D01*
X1479Y505D02*
X1485Y505D01*
X1507Y505D02*
X1513Y505D01*
X1543Y505D02*
X1549Y505D01*
X1557Y505D02*
X1563Y505D01*
X1803Y505D02*
X1810Y505D01*
X0Y504D02*
X7Y504D01*
X283Y504D02*
X291Y504D01*
X301Y504D02*
X309Y504D01*
X330Y504D02*
X337Y504D01*
X341Y504D02*
X351Y504D01*
X355Y504D02*
X362Y504D01*
X379Y504D02*
X385Y504D01*
X443Y504D02*
X449Y504D01*
X457Y504D02*
X463Y504D01*
X1383Y504D02*
X1391Y504D01*
X1401Y504D02*
X1409Y504D01*
X1429Y504D02*
X1435Y504D01*
X1479Y504D02*
X1485Y504D01*
X1507Y504D02*
X1513Y504D01*
X1543Y504D02*
X1549Y504D01*
X1557Y504D02*
X1563Y504D01*
X1803Y504D02*
X1810Y504D01*
X0Y503D02*
X7Y503D01*
X284Y503D02*
X309Y503D01*
X331Y503D02*
X362Y503D01*
X379Y503D02*
X385Y503D01*
X431Y503D02*
X463Y503D01*
X1384Y503D02*
X1409Y503D01*
X1429Y503D02*
X1461Y503D01*
X1479Y503D02*
X1485Y503D01*
X1507Y503D02*
X1513Y503D01*
X1531Y503D02*
X1563Y503D01*
X1803Y503D02*
X1810Y503D01*
X0Y502D02*
X7Y502D01*
X284Y502D02*
X308Y502D01*
X331Y502D02*
X361Y502D01*
X379Y502D02*
X385Y502D01*
X430Y502D02*
X463Y502D01*
X1384Y502D02*
X1408Y502D01*
X1429Y502D02*
X1462Y502D01*
X1479Y502D02*
X1485Y502D01*
X1507Y502D02*
X1513Y502D01*
X1530Y502D02*
X1563Y502D01*
X1803Y502D02*
X1810Y502D01*
X0Y501D02*
X7Y501D01*
X285Y501D02*
X307Y501D01*
X332Y501D02*
X360Y501D01*
X379Y501D02*
X385Y501D01*
X429Y501D02*
X463Y501D01*
X1385Y501D02*
X1407Y501D01*
X1429Y501D02*
X1463Y501D01*
X1479Y501D02*
X1485Y501D01*
X1507Y501D02*
X1513Y501D01*
X1529Y501D02*
X1563Y501D01*
X1803Y501D02*
X1810Y501D01*
X0Y500D02*
X7Y500D01*
X286Y500D02*
X306Y500D01*
X332Y500D02*
X360Y500D01*
X379Y500D02*
X385Y500D01*
X429Y500D02*
X463Y500D01*
X1386Y500D02*
X1406Y500D01*
X1429Y500D02*
X1463Y500D01*
X1479Y500D02*
X1485Y500D01*
X1507Y500D02*
X1513Y500D01*
X1529Y500D02*
X1563Y500D01*
X1803Y500D02*
X1810Y500D01*
X0Y499D02*
X7Y499D01*
X287Y499D02*
X305Y499D01*
X333Y499D02*
X359Y499D01*
X380Y499D02*
X385Y499D01*
X430Y499D02*
X463Y499D01*
X1387Y499D02*
X1405Y499D01*
X1429Y499D02*
X1463Y499D01*
X1480Y499D02*
X1485Y499D01*
X1507Y499D02*
X1513Y499D01*
X1530Y499D02*
X1563Y499D01*
X1803Y499D02*
X1810Y499D01*
X0Y498D02*
X7Y498D01*
X288Y498D02*
X304Y498D01*
X334Y498D02*
X345Y498D01*
X347Y498D02*
X359Y498D01*
X380Y498D02*
X384Y498D01*
X430Y498D02*
X462Y498D01*
X1388Y498D02*
X1404Y498D01*
X1429Y498D02*
X1462Y498D01*
X1480Y498D02*
X1484Y498D01*
X1508Y498D02*
X1512Y498D01*
X1530Y498D02*
X1562Y498D01*
X1803Y498D02*
X1810Y498D01*
X0Y497D02*
X7Y497D01*
X291Y497D02*
X301Y497D01*
X335Y497D02*
X343Y497D01*
X349Y497D02*
X357Y497D01*
X381Y497D02*
X383Y497D01*
X431Y497D02*
X461Y497D01*
X1391Y497D02*
X1401Y497D01*
X1429Y497D02*
X1461Y497D01*
X1481Y497D02*
X1483Y497D01*
X1509Y497D02*
X1511Y497D01*
X1531Y497D02*
X1561Y497D01*
X1803Y497D02*
X1810Y497D01*
X0Y496D02*
X7Y496D01*
X1803Y496D02*
X1810Y496D01*
X0Y495D02*
X7Y495D01*
X1803Y495D02*
X1810Y495D01*
X0Y494D02*
X7Y494D01*
X1803Y494D02*
X1810Y494D01*
X0Y493D02*
X7Y493D01*
X1803Y493D02*
X1810Y493D01*
X0Y492D02*
X7Y492D01*
X1803Y492D02*
X1810Y492D01*
X0Y491D02*
X7Y491D01*
X1803Y491D02*
X1810Y491D01*
X0Y490D02*
X7Y490D01*
X1803Y490D02*
X1810Y490D01*
X0Y489D02*
X7Y489D01*
X1803Y489D02*
X1810Y489D01*
X0Y488D02*
X7Y488D01*
X1803Y488D02*
X1810Y488D01*
X0Y487D02*
X7Y487D01*
X1803Y487D02*
X1810Y487D01*
X0Y486D02*
X7Y486D01*
X1803Y486D02*
X1810Y486D01*
X0Y485D02*
X7Y485D01*
X1803Y485D02*
X1810Y485D01*
X0Y484D02*
X7Y484D01*
X1803Y484D02*
X1810Y484D01*
X0Y483D02*
X7Y483D01*
X1803Y483D02*
X1810Y483D01*
X0Y482D02*
X7Y482D01*
X1803Y482D02*
X1810Y482D01*
X0Y481D02*
X7Y481D01*
X1803Y481D02*
X1810Y481D01*
X0Y480D02*
X7Y480D01*
X1803Y480D02*
X1810Y480D01*
X0Y479D02*
X7Y479D01*
X1803Y479D02*
X1810Y479D01*
X0Y478D02*
X7Y478D01*
X1803Y478D02*
X1810Y478D01*
X0Y477D02*
X7Y477D01*
X1803Y477D02*
X1810Y477D01*
X0Y476D02*
X7Y476D01*
X1803Y476D02*
X1810Y476D01*
X0Y475D02*
X7Y475D01*
X1803Y475D02*
X1810Y475D01*
X0Y474D02*
X7Y474D01*
X1803Y474D02*
X1810Y474D01*
X0Y473D02*
X7Y473D01*
X1803Y473D02*
X1810Y473D01*
X0Y472D02*
X7Y472D01*
X1803Y472D02*
X1810Y472D01*
X0Y471D02*
X7Y471D01*
X1803Y471D02*
X1810Y471D01*
X0Y470D02*
X7Y470D01*
X1803Y470D02*
X1810Y470D01*
X0Y469D02*
X7Y469D01*
X1803Y469D02*
X1810Y469D01*
X0Y468D02*
X7Y468D01*
X1803Y468D02*
X1810Y468D01*
X0Y467D02*
X7Y467D01*
X1803Y467D02*
X1810Y467D01*
X0Y466D02*
X7Y466D01*
X1803Y466D02*
X1810Y466D01*
X0Y465D02*
X7Y465D01*
X1803Y465D02*
X1810Y465D01*
X0Y464D02*
X7Y464D01*
X1803Y464D02*
X1810Y464D01*
X0Y463D02*
X7Y463D01*
X1803Y463D02*
X1810Y463D01*
X0Y462D02*
X7Y462D01*
X815Y462D02*
X816Y462D01*
X1215Y462D02*
X1216Y462D01*
X1803Y462D02*
X1810Y462D01*
X0Y461D02*
X7Y461D01*
X814Y461D02*
X817Y461D01*
X1214Y461D02*
X1217Y461D01*
X1803Y461D02*
X1810Y461D01*
X0Y460D02*
X7Y460D01*
X813Y460D02*
X818Y460D01*
X1213Y460D02*
X1218Y460D01*
X1803Y460D02*
X1810Y460D01*
X0Y459D02*
X7Y459D01*
X813Y459D02*
X819Y459D01*
X1213Y459D02*
X1219Y459D01*
X1803Y459D02*
X1810Y459D01*
X0Y458D02*
X7Y458D01*
X814Y458D02*
X820Y458D01*
X1214Y458D02*
X1220Y458D01*
X1803Y458D02*
X1810Y458D01*
X0Y457D02*
X7Y457D01*
X815Y457D02*
X821Y457D01*
X1215Y457D02*
X1221Y457D01*
X1803Y457D02*
X1810Y457D01*
X0Y456D02*
X7Y456D01*
X816Y456D02*
X822Y456D01*
X1216Y456D02*
X1222Y456D01*
X1803Y456D02*
X1810Y456D01*
X0Y455D02*
X7Y455D01*
X817Y455D02*
X823Y455D01*
X1217Y455D02*
X1223Y455D01*
X1803Y455D02*
X1810Y455D01*
X0Y454D02*
X7Y454D01*
X818Y454D02*
X824Y454D01*
X1218Y454D02*
X1224Y454D01*
X1803Y454D02*
X1810Y454D01*
X0Y453D02*
X7Y453D01*
X819Y453D02*
X825Y453D01*
X1219Y453D02*
X1225Y453D01*
X1803Y453D02*
X1810Y453D01*
X0Y452D02*
X7Y452D01*
X820Y452D02*
X826Y452D01*
X1220Y452D02*
X1226Y452D01*
X1803Y452D02*
X1810Y452D01*
X0Y451D02*
X7Y451D01*
X821Y451D02*
X827Y451D01*
X1221Y451D02*
X1227Y451D01*
X1803Y451D02*
X1810Y451D01*
X0Y450D02*
X7Y450D01*
X822Y450D02*
X828Y450D01*
X1222Y450D02*
X1228Y450D01*
X1803Y450D02*
X1810Y450D01*
X0Y449D02*
X7Y449D01*
X823Y449D02*
X829Y449D01*
X1223Y449D02*
X1229Y449D01*
X1803Y449D02*
X1810Y449D01*
X0Y448D02*
X7Y448D01*
X824Y448D02*
X830Y448D01*
X1224Y448D02*
X1230Y448D01*
X1803Y448D02*
X1810Y448D01*
X0Y447D02*
X7Y447D01*
X825Y447D02*
X831Y447D01*
X1225Y447D02*
X1231Y447D01*
X1803Y447D02*
X1810Y447D01*
X0Y446D02*
X7Y446D01*
X826Y446D02*
X832Y446D01*
X1226Y446D02*
X1232Y446D01*
X1803Y446D02*
X1810Y446D01*
X0Y445D02*
X7Y445D01*
X828Y445D02*
X833Y445D01*
X1228Y445D02*
X1233Y445D01*
X1803Y445D02*
X1810Y445D01*
X0Y444D02*
X7Y444D01*
X829Y444D02*
X834Y444D01*
X1229Y444D02*
X1234Y444D01*
X1803Y444D02*
X1810Y444D01*
X0Y443D02*
X7Y443D01*
X830Y443D02*
X835Y443D01*
X1230Y443D02*
X1235Y443D01*
X1803Y443D02*
X1810Y443D01*
X0Y442D02*
X7Y442D01*
X831Y442D02*
X836Y442D01*
X1231Y442D02*
X1236Y442D01*
X1803Y442D02*
X1810Y442D01*
X0Y441D02*
X7Y441D01*
X832Y441D02*
X837Y441D01*
X1232Y441D02*
X1237Y441D01*
X1803Y441D02*
X1810Y441D01*
X0Y440D02*
X7Y440D01*
X833Y440D02*
X838Y440D01*
X1233Y440D02*
X1238Y440D01*
X1803Y440D02*
X1810Y440D01*
X0Y439D02*
X7Y439D01*
X834Y439D02*
X839Y439D01*
X1234Y439D02*
X1239Y439D01*
X1803Y439D02*
X1810Y439D01*
X0Y438D02*
X7Y438D01*
X834Y438D02*
X840Y438D01*
X1234Y438D02*
X1240Y438D01*
X1803Y438D02*
X1810Y438D01*
X0Y437D02*
X7Y437D01*
X835Y437D02*
X841Y437D01*
X1235Y437D02*
X1241Y437D01*
X1803Y437D02*
X1810Y437D01*
X0Y436D02*
X7Y436D01*
X836Y436D02*
X842Y436D01*
X1236Y436D02*
X1242Y436D01*
X1803Y436D02*
X1810Y436D01*
X0Y435D02*
X7Y435D01*
X837Y435D02*
X843Y435D01*
X1237Y435D02*
X1243Y435D01*
X1803Y435D02*
X1810Y435D01*
X0Y434D02*
X7Y434D01*
X838Y434D02*
X844Y434D01*
X1238Y434D02*
X1244Y434D01*
X1803Y434D02*
X1810Y434D01*
X0Y433D02*
X7Y433D01*
X839Y433D02*
X845Y433D01*
X1239Y433D02*
X1245Y433D01*
X1803Y433D02*
X1810Y433D01*
X0Y432D02*
X7Y432D01*
X840Y432D02*
X846Y432D01*
X1240Y432D02*
X1246Y432D01*
X1803Y432D02*
X1810Y432D01*
X0Y431D02*
X7Y431D01*
X841Y431D02*
X847Y431D01*
X1241Y431D02*
X1247Y431D01*
X1803Y431D02*
X1810Y431D01*
X0Y430D02*
X7Y430D01*
X842Y430D02*
X848Y430D01*
X1242Y430D02*
X1248Y430D01*
X1803Y430D02*
X1810Y430D01*
X0Y429D02*
X7Y429D01*
X843Y429D02*
X849Y429D01*
X1243Y429D02*
X1249Y429D01*
X1803Y429D02*
X1810Y429D01*
X0Y428D02*
X7Y428D01*
X494Y428D02*
X505Y428D01*
X844Y428D02*
X850Y428D01*
X1244Y428D02*
X1250Y428D01*
X1803Y428D02*
X1810Y428D01*
X0Y427D02*
X7Y427D01*
X490Y427D02*
X507Y427D01*
X845Y427D02*
X849Y427D01*
X1245Y427D02*
X1249Y427D01*
X1803Y427D02*
X1810Y427D01*
X0Y426D02*
X7Y426D01*
X489Y426D02*
X508Y426D01*
X846Y426D02*
X848Y426D01*
X1246Y426D02*
X1248Y426D01*
X1803Y426D02*
X1810Y426D01*
X0Y425D02*
X7Y425D01*
X488Y425D02*
X508Y425D01*
X1803Y425D02*
X1810Y425D01*
X0Y424D02*
X7Y424D01*
X487Y424D02*
X508Y424D01*
X1803Y424D02*
X1810Y424D01*
X0Y423D02*
X7Y423D01*
X486Y423D02*
X508Y423D01*
X1803Y423D02*
X1810Y423D01*
X0Y422D02*
X7Y422D01*
X485Y422D02*
X507Y422D01*
X1803Y422D02*
X1810Y422D01*
X0Y421D02*
X7Y421D01*
X485Y421D02*
X493Y421D01*
X1803Y421D02*
X1810Y421D01*
X0Y420D02*
X7Y420D01*
X485Y420D02*
X492Y420D01*
X1803Y420D02*
X1810Y420D01*
X0Y419D02*
X7Y419D01*
X485Y419D02*
X491Y419D01*
X1803Y419D02*
X1810Y419D01*
X0Y418D02*
X7Y418D01*
X485Y418D02*
X491Y418D01*
X1289Y418D02*
X1301Y418D01*
X1803Y418D02*
X1810Y418D01*
X0Y417D02*
X7Y417D01*
X484Y417D02*
X490Y417D01*
X1286Y417D02*
X1303Y417D01*
X1803Y417D02*
X1810Y417D01*
X0Y416D02*
X7Y416D01*
X484Y416D02*
X490Y416D01*
X1284Y416D02*
X1304Y416D01*
X1803Y416D02*
X1810Y416D01*
X0Y415D02*
X7Y415D01*
X484Y415D02*
X490Y415D01*
X1283Y415D02*
X1304Y415D01*
X1803Y415D02*
X1810Y415D01*
X0Y414D02*
X7Y414D01*
X484Y414D02*
X490Y414D01*
X1282Y414D02*
X1304Y414D01*
X1803Y414D02*
X1810Y414D01*
X0Y413D02*
X7Y413D01*
X484Y413D02*
X490Y413D01*
X1282Y413D02*
X1303Y413D01*
X1803Y413D02*
X1810Y413D01*
X0Y412D02*
X7Y412D01*
X484Y412D02*
X490Y412D01*
X1281Y412D02*
X1302Y412D01*
X1803Y412D02*
X1810Y412D01*
X0Y411D02*
X7Y411D01*
X484Y411D02*
X490Y411D01*
X1281Y411D02*
X1289Y411D01*
X1803Y411D02*
X1810Y411D01*
X0Y410D02*
X7Y410D01*
X485Y410D02*
X491Y410D01*
X1280Y410D02*
X1287Y410D01*
X1803Y410D02*
X1810Y410D01*
X0Y409D02*
X7Y409D01*
X485Y409D02*
X491Y409D01*
X1280Y409D02*
X1286Y409D01*
X1803Y409D02*
X1810Y409D01*
X0Y408D02*
X7Y408D01*
X485Y408D02*
X492Y408D01*
X1280Y408D02*
X1286Y408D01*
X1803Y408D02*
X1810Y408D01*
X0Y407D02*
X7Y407D01*
X485Y407D02*
X536Y407D01*
X1280Y407D02*
X1286Y407D01*
X1803Y407D02*
X1810Y407D01*
X0Y406D02*
X7Y406D01*
X486Y406D02*
X537Y406D01*
X1280Y406D02*
X1286Y406D01*
X1803Y406D02*
X1810Y406D01*
X0Y405D02*
X7Y405D01*
X486Y405D02*
X537Y405D01*
X1280Y405D02*
X1286Y405D01*
X1803Y405D02*
X1810Y405D01*
X0Y404D02*
X7Y404D01*
X487Y404D02*
X538Y404D01*
X1280Y404D02*
X1286Y404D01*
X1803Y404D02*
X1810Y404D01*
X0Y403D02*
X7Y403D01*
X488Y403D02*
X537Y403D01*
X1280Y403D02*
X1286Y403D01*
X1803Y403D02*
X1810Y403D01*
X0Y402D02*
X7Y402D01*
X489Y402D02*
X537Y402D01*
X1280Y402D02*
X1286Y402D01*
X1803Y402D02*
X1810Y402D01*
X0Y401D02*
X7Y401D01*
X492Y401D02*
X536Y401D01*
X1280Y401D02*
X1286Y401D01*
X1803Y401D02*
X1810Y401D01*
X0Y400D02*
X7Y400D01*
X1280Y400D02*
X1286Y400D01*
X1803Y400D02*
X1810Y400D01*
X0Y399D02*
X7Y399D01*
X1280Y399D02*
X1287Y399D01*
X1803Y399D02*
X1810Y399D01*
X0Y398D02*
X7Y398D01*
X1281Y398D02*
X1288Y398D01*
X1803Y398D02*
X1810Y398D01*
X0Y397D02*
X7Y397D01*
X1281Y397D02*
X1332Y397D01*
X1803Y397D02*
X1810Y397D01*
X0Y396D02*
X7Y396D01*
X1281Y396D02*
X1333Y396D01*
X1803Y396D02*
X1810Y396D01*
X0Y395D02*
X7Y395D01*
X1282Y395D02*
X1333Y395D01*
X1803Y395D02*
X1810Y395D01*
X0Y394D02*
X7Y394D01*
X1283Y394D02*
X1333Y394D01*
X1803Y394D02*
X1810Y394D01*
X0Y393D02*
X7Y393D01*
X1284Y393D02*
X1333Y393D01*
X1803Y393D02*
X1810Y393D01*
X0Y392D02*
X7Y392D01*
X1285Y392D02*
X1333Y392D01*
X1803Y392D02*
X1810Y392D01*
X0Y391D02*
X7Y391D01*
X1288Y391D02*
X1331Y391D01*
X1803Y391D02*
X1810Y391D01*
X0Y390D02*
X7Y390D01*
X1803Y390D02*
X1810Y390D01*
X0Y389D02*
X7Y389D01*
X1803Y389D02*
X1810Y389D01*
X0Y388D02*
X7Y388D01*
X1803Y388D02*
X1810Y388D01*
X0Y387D02*
X7Y387D01*
X1803Y387D02*
X1810Y387D01*
X0Y386D02*
X7Y386D01*
X1803Y386D02*
X1810Y386D01*
X0Y385D02*
X7Y385D01*
X1803Y385D02*
X1810Y385D01*
X0Y384D02*
X7Y384D01*
X1803Y384D02*
X1810Y384D01*
X0Y383D02*
X7Y383D01*
X1803Y383D02*
X1810Y383D01*
X0Y382D02*
X7Y382D01*
X1803Y382D02*
X1810Y382D01*
X0Y381D02*
X7Y381D01*
X491Y381D02*
X495Y381D01*
X528Y381D02*
X533Y381D01*
X1803Y381D02*
X1810Y381D01*
X0Y380D02*
X7Y380D01*
X489Y380D02*
X496Y380D01*
X526Y380D02*
X534Y380D01*
X1803Y380D02*
X1810Y380D01*
X0Y379D02*
X7Y379D01*
X488Y379D02*
X496Y379D01*
X525Y379D02*
X535Y379D01*
X1803Y379D02*
X1810Y379D01*
X0Y378D02*
X7Y378D01*
X487Y378D02*
X496Y378D01*
X523Y378D02*
X536Y378D01*
X1803Y378D02*
X1810Y378D01*
X0Y377D02*
X7Y377D01*
X486Y377D02*
X496Y377D01*
X522Y377D02*
X537Y377D01*
X1803Y377D02*
X1810Y377D01*
X0Y376D02*
X7Y376D01*
X485Y376D02*
X496Y376D01*
X521Y376D02*
X537Y376D01*
X1803Y376D02*
X1810Y376D01*
X0Y375D02*
X7Y375D01*
X485Y375D02*
X495Y375D01*
X520Y375D02*
X537Y375D01*
X1803Y375D02*
X1810Y375D01*
X0Y374D02*
X7Y374D01*
X485Y374D02*
X491Y374D01*
X518Y374D02*
X529Y374D01*
X531Y374D02*
X538Y374D01*
X1803Y374D02*
X1810Y374D01*
X0Y373D02*
X7Y373D01*
X485Y373D02*
X491Y373D01*
X517Y373D02*
X528Y373D01*
X532Y373D02*
X538Y373D01*
X1803Y373D02*
X1810Y373D01*
X0Y372D02*
X7Y372D01*
X484Y372D02*
X490Y372D01*
X516Y372D02*
X526Y372D01*
X532Y372D02*
X538Y372D01*
X1803Y372D02*
X1810Y372D01*
X0Y371D02*
X7Y371D01*
X484Y371D02*
X490Y371D01*
X514Y371D02*
X525Y371D01*
X532Y371D02*
X538Y371D01*
X1286Y371D02*
X1290Y371D01*
X1323Y371D02*
X1329Y371D01*
X1803Y371D02*
X1810Y371D01*
X0Y370D02*
X7Y370D01*
X484Y370D02*
X490Y370D01*
X513Y370D02*
X524Y370D01*
X532Y370D02*
X538Y370D01*
X1284Y370D02*
X1291Y370D01*
X1322Y370D02*
X1330Y370D01*
X1803Y370D02*
X1810Y370D01*
X0Y369D02*
X7Y369D01*
X484Y369D02*
X490Y369D01*
X512Y369D02*
X522Y369D01*
X532Y369D02*
X538Y369D01*
X1283Y369D02*
X1292Y369D01*
X1320Y369D02*
X1331Y369D01*
X1803Y369D02*
X1810Y369D01*
X0Y368D02*
X7Y368D01*
X484Y368D02*
X490Y368D01*
X510Y368D02*
X521Y368D01*
X532Y368D02*
X538Y368D01*
X1282Y368D02*
X1292Y368D01*
X1319Y368D02*
X1332Y368D01*
X1803Y368D02*
X1810Y368D01*
X0Y367D02*
X7Y367D01*
X484Y367D02*
X490Y367D01*
X509Y367D02*
X520Y367D01*
X532Y367D02*
X538Y367D01*
X1281Y367D02*
X1292Y367D01*
X1318Y367D02*
X1333Y367D01*
X1803Y367D02*
X1810Y367D01*
X0Y366D02*
X7Y366D01*
X484Y366D02*
X490Y366D01*
X508Y366D02*
X519Y366D01*
X532Y366D02*
X538Y366D01*
X1281Y366D02*
X1291Y366D01*
X1316Y366D02*
X1333Y366D01*
X1803Y366D02*
X1810Y366D01*
X0Y365D02*
X7Y365D01*
X484Y365D02*
X490Y365D01*
X507Y365D02*
X517Y365D01*
X532Y365D02*
X538Y365D01*
X1281Y365D02*
X1290Y365D01*
X1315Y365D02*
X1333Y365D01*
X1803Y365D02*
X1810Y365D01*
X0Y364D02*
X7Y364D01*
X484Y364D02*
X490Y364D01*
X505Y364D02*
X516Y364D01*
X532Y364D02*
X538Y364D01*
X1280Y364D02*
X1287Y364D01*
X1314Y364D02*
X1324Y364D01*
X1327Y364D02*
X1333Y364D01*
X1803Y364D02*
X1810Y364D01*
X0Y363D02*
X7Y363D01*
X484Y363D02*
X490Y363D01*
X504Y363D02*
X515Y363D01*
X532Y363D02*
X538Y363D01*
X1280Y363D02*
X1286Y363D01*
X1312Y363D02*
X1323Y363D01*
X1327Y363D02*
X1333Y363D01*
X1803Y363D02*
X1810Y363D01*
X0Y362D02*
X7Y362D01*
X484Y362D02*
X490Y362D01*
X503Y362D02*
X513Y362D01*
X532Y362D02*
X538Y362D01*
X1280Y362D02*
X1286Y362D01*
X1311Y362D02*
X1322Y362D01*
X1327Y362D02*
X1333Y362D01*
X1803Y362D02*
X1810Y362D01*
X0Y361D02*
X7Y361D01*
X484Y361D02*
X490Y361D01*
X501Y361D02*
X512Y361D01*
X532Y361D02*
X538Y361D01*
X1280Y361D02*
X1286Y361D01*
X1310Y361D02*
X1320Y361D01*
X1327Y361D02*
X1333Y361D01*
X1803Y361D02*
X1810Y361D01*
X0Y360D02*
X7Y360D01*
X484Y360D02*
X490Y360D01*
X500Y360D02*
X511Y360D01*
X532Y360D02*
X538Y360D01*
X1280Y360D02*
X1286Y360D01*
X1309Y360D02*
X1319Y360D01*
X1327Y360D02*
X1333Y360D01*
X1803Y360D02*
X1810Y360D01*
X0Y359D02*
X7Y359D01*
X484Y359D02*
X490Y359D01*
X499Y359D02*
X510Y359D01*
X532Y359D02*
X538Y359D01*
X1280Y359D02*
X1286Y359D01*
X1307Y359D02*
X1318Y359D01*
X1327Y359D02*
X1333Y359D01*
X1803Y359D02*
X1810Y359D01*
X0Y358D02*
X7Y358D01*
X484Y358D02*
X490Y358D01*
X498Y358D02*
X508Y358D01*
X532Y358D02*
X538Y358D01*
X1280Y358D02*
X1286Y358D01*
X1306Y358D02*
X1317Y358D01*
X1327Y358D02*
X1333Y358D01*
X1803Y358D02*
X1810Y358D01*
X0Y357D02*
X7Y357D01*
X484Y357D02*
X490Y357D01*
X496Y357D02*
X507Y357D01*
X532Y357D02*
X538Y357D01*
X1280Y357D02*
X1286Y357D01*
X1305Y357D02*
X1315Y357D01*
X1327Y357D02*
X1333Y357D01*
X1803Y357D02*
X1810Y357D01*
X0Y356D02*
X7Y356D01*
X484Y356D02*
X490Y356D01*
X495Y356D02*
X506Y356D01*
X532Y356D02*
X538Y356D01*
X1280Y356D02*
X1286Y356D01*
X1303Y356D02*
X1314Y356D01*
X1327Y356D02*
X1333Y356D01*
X1803Y356D02*
X1810Y356D01*
X0Y355D02*
X7Y355D01*
X484Y355D02*
X490Y355D01*
X494Y355D02*
X504Y355D01*
X531Y355D02*
X538Y355D01*
X1280Y355D02*
X1286Y355D01*
X1302Y355D02*
X1313Y355D01*
X1327Y355D02*
X1333Y355D01*
X1803Y355D02*
X1810Y355D01*
X0Y354D02*
X7Y354D01*
X485Y354D02*
X503Y354D01*
X530Y354D02*
X537Y354D01*
X1280Y354D02*
X1286Y354D01*
X1301Y354D02*
X1311Y354D01*
X1327Y354D02*
X1333Y354D01*
X1803Y354D02*
X1810Y354D01*
X0Y353D02*
X7Y353D01*
X485Y353D02*
X502Y353D01*
X527Y353D02*
X537Y353D01*
X1280Y353D02*
X1286Y353D01*
X1300Y353D02*
X1310Y353D01*
X1327Y353D02*
X1333Y353D01*
X1803Y353D02*
X1810Y353D01*
X0Y352D02*
X7Y352D01*
X485Y352D02*
X501Y352D01*
X526Y352D02*
X537Y352D01*
X1280Y352D02*
X1286Y352D01*
X1298Y352D02*
X1309Y352D01*
X1327Y352D02*
X1333Y352D01*
X1803Y352D02*
X1810Y352D01*
X0Y351D02*
X7Y351D01*
X485Y351D02*
X499Y351D01*
X526Y351D02*
X536Y351D01*
X1280Y351D02*
X1286Y351D01*
X1297Y351D02*
X1308Y351D01*
X1327Y351D02*
X1333Y351D01*
X1803Y351D02*
X1810Y351D01*
X0Y350D02*
X7Y350D01*
X486Y350D02*
X498Y350D01*
X526Y350D02*
X535Y350D01*
X1280Y350D02*
X1286Y350D01*
X1296Y350D02*
X1306Y350D01*
X1327Y350D02*
X1333Y350D01*
X1803Y350D02*
X1810Y350D01*
X0Y349D02*
X7Y349D01*
X487Y349D02*
X497Y349D01*
X526Y349D02*
X534Y349D01*
X1280Y349D02*
X1286Y349D01*
X1294Y349D02*
X1305Y349D01*
X1327Y349D02*
X1333Y349D01*
X1803Y349D02*
X1810Y349D01*
X0Y348D02*
X7Y348D01*
X489Y348D02*
X495Y348D01*
X527Y348D02*
X532Y348D01*
X1280Y348D02*
X1286Y348D01*
X1293Y348D02*
X1304Y348D01*
X1327Y348D02*
X1333Y348D01*
X1803Y348D02*
X1810Y348D01*
X0Y347D02*
X7Y347D01*
X492Y347D02*
X492Y347D01*
X529Y347D02*
X529Y347D01*
X1280Y347D02*
X1286Y347D01*
X1292Y347D02*
X1302Y347D01*
X1327Y347D02*
X1333Y347D01*
X1803Y347D02*
X1810Y347D01*
X0Y346D02*
X7Y346D01*
X1280Y346D02*
X1286Y346D01*
X1291Y346D02*
X1301Y346D01*
X1327Y346D02*
X1333Y346D01*
X1803Y346D02*
X1810Y346D01*
X0Y345D02*
X7Y345D01*
X1280Y345D02*
X1286Y345D01*
X1289Y345D02*
X1300Y345D01*
X1327Y345D02*
X1333Y345D01*
X1803Y345D02*
X1810Y345D01*
X0Y344D02*
X7Y344D01*
X1280Y344D02*
X1299Y344D01*
X1325Y344D02*
X1333Y344D01*
X1803Y344D02*
X1810Y344D01*
X0Y343D02*
X7Y343D01*
X1280Y343D02*
X1297Y343D01*
X1322Y343D02*
X1333Y343D01*
X1803Y343D02*
X1810Y343D01*
X0Y342D02*
X7Y342D01*
X1281Y342D02*
X1296Y342D01*
X1322Y342D02*
X1332Y342D01*
X1803Y342D02*
X1810Y342D01*
X0Y341D02*
X7Y341D01*
X1281Y341D02*
X1295Y341D01*
X1321Y341D02*
X1331Y341D01*
X1803Y341D02*
X1810Y341D01*
X0Y340D02*
X7Y340D01*
X1282Y340D02*
X1293Y340D01*
X1322Y340D02*
X1331Y340D01*
X1803Y340D02*
X1810Y340D01*
X0Y339D02*
X7Y339D01*
X1283Y339D02*
X1292Y339D01*
X1322Y339D02*
X1330Y339D01*
X1803Y339D02*
X1810Y339D01*
X0Y338D02*
X7Y338D01*
X1285Y338D02*
X1291Y338D01*
X1323Y338D02*
X1328Y338D01*
X1803Y338D02*
X1810Y338D01*
X0Y337D02*
X7Y337D01*
X1803Y337D02*
X1810Y337D01*
X0Y336D02*
X7Y336D01*
X1803Y336D02*
X1810Y336D01*
X0Y335D02*
X7Y335D01*
X1803Y335D02*
X1810Y335D01*
X0Y334D02*
X7Y334D01*
X1803Y334D02*
X1810Y334D01*
X0Y333D02*
X7Y333D01*
X1803Y333D02*
X1810Y333D01*
X0Y332D02*
X7Y332D01*
X1803Y332D02*
X1810Y332D01*
X0Y331D02*
X7Y331D01*
X486Y331D02*
X538Y331D01*
X1803Y331D02*
X1810Y331D01*
X0Y330D02*
X7Y330D01*
X485Y330D02*
X538Y330D01*
X1803Y330D02*
X1810Y330D01*
X0Y329D02*
X7Y329D01*
X485Y329D02*
X538Y329D01*
X1803Y329D02*
X1810Y329D01*
X0Y328D02*
X7Y328D01*
X485Y328D02*
X538Y328D01*
X1803Y328D02*
X1810Y328D01*
X0Y327D02*
X7Y327D01*
X485Y327D02*
X538Y327D01*
X1803Y327D02*
X1810Y327D01*
X0Y326D02*
X7Y326D01*
X485Y326D02*
X538Y326D01*
X1803Y326D02*
X1810Y326D01*
X0Y325D02*
X7Y325D01*
X486Y325D02*
X538Y325D01*
X1803Y325D02*
X1810Y325D01*
X0Y324D02*
X7Y324D01*
X528Y324D02*
X538Y324D01*
X1803Y324D02*
X1810Y324D01*
X0Y323D02*
X7Y323D01*
X527Y323D02*
X538Y323D01*
X1803Y323D02*
X1810Y323D01*
X0Y322D02*
X7Y322D01*
X525Y322D02*
X537Y322D01*
X1803Y322D02*
X1810Y322D01*
X0Y321D02*
X7Y321D01*
X524Y321D02*
X535Y321D01*
X1282Y321D02*
X1333Y321D01*
X1803Y321D02*
X1810Y321D01*
X0Y320D02*
X7Y320D01*
X522Y320D02*
X534Y320D01*
X1281Y320D02*
X1333Y320D01*
X1803Y320D02*
X1810Y320D01*
X0Y319D02*
X7Y319D01*
X521Y319D02*
X532Y319D01*
X1280Y319D02*
X1333Y319D01*
X1803Y319D02*
X1810Y319D01*
X0Y318D02*
X7Y318D01*
X520Y318D02*
X531Y318D01*
X1280Y318D02*
X1333Y318D01*
X1803Y318D02*
X1810Y318D01*
X0Y317D02*
X7Y317D01*
X515Y317D02*
X529Y317D01*
X1280Y317D02*
X1333Y317D01*
X1803Y317D02*
X1810Y317D01*
X0Y316D02*
X7Y316D01*
X514Y316D02*
X528Y316D01*
X1281Y316D02*
X1333Y316D01*
X1803Y316D02*
X1810Y316D01*
X0Y315D02*
X7Y315D01*
X514Y315D02*
X527Y315D01*
X1282Y315D02*
X1333Y315D01*
X1803Y315D02*
X1810Y315D01*
X0Y314D02*
X7Y314D01*
X514Y314D02*
X526Y314D01*
X1310Y314D02*
X1316Y314D01*
X1327Y314D02*
X1333Y314D01*
X1803Y314D02*
X1810Y314D01*
X0Y313D02*
X7Y313D01*
X514Y313D02*
X527Y313D01*
X1310Y313D02*
X1316Y313D01*
X1327Y313D02*
X1333Y313D01*
X1803Y313D02*
X1810Y313D01*
X0Y312D02*
X7Y312D01*
X515Y312D02*
X529Y312D01*
X1310Y312D02*
X1316Y312D01*
X1327Y312D02*
X1333Y312D01*
X1803Y312D02*
X1810Y312D01*
X0Y311D02*
X7Y311D01*
X516Y311D02*
X530Y311D01*
X1310Y311D02*
X1316Y311D01*
X1327Y311D02*
X1333Y311D01*
X1803Y311D02*
X1810Y311D01*
X0Y310D02*
X7Y310D01*
X520Y310D02*
X532Y310D01*
X1310Y310D02*
X1316Y310D01*
X1327Y310D02*
X1333Y310D01*
X1803Y310D02*
X1810Y310D01*
X0Y309D02*
X7Y309D01*
X522Y309D02*
X533Y309D01*
X1310Y309D02*
X1316Y309D01*
X1327Y309D02*
X1333Y309D01*
X1803Y309D02*
X1810Y309D01*
X0Y308D02*
X7Y308D01*
X523Y308D02*
X534Y308D01*
X1310Y308D02*
X1316Y308D01*
X1327Y308D02*
X1333Y308D01*
X1803Y308D02*
X1810Y308D01*
X0Y307D02*
X7Y307D01*
X525Y307D02*
X536Y307D01*
X1310Y307D02*
X1316Y307D01*
X1327Y307D02*
X1333Y307D01*
X1803Y307D02*
X1810Y307D01*
X0Y306D02*
X7Y306D01*
X526Y306D02*
X537Y306D01*
X1310Y306D02*
X1316Y306D01*
X1327Y306D02*
X1333Y306D01*
X1803Y306D02*
X1810Y306D01*
X0Y305D02*
X7Y305D01*
X527Y305D02*
X538Y305D01*
X1310Y305D02*
X1316Y305D01*
X1327Y305D02*
X1333Y305D01*
X1803Y305D02*
X1810Y305D01*
X0Y304D02*
X7Y304D01*
X528Y304D02*
X538Y304D01*
X1310Y304D02*
X1316Y304D01*
X1327Y304D02*
X1333Y304D01*
X1803Y304D02*
X1810Y304D01*
X0Y303D02*
X7Y303D01*
X486Y303D02*
X538Y303D01*
X1310Y303D02*
X1316Y303D01*
X1327Y303D02*
X1333Y303D01*
X1803Y303D02*
X1810Y303D01*
X0Y302D02*
X7Y302D01*
X485Y302D02*
X538Y302D01*
X1310Y302D02*
X1316Y302D01*
X1327Y302D02*
X1333Y302D01*
X1803Y302D02*
X1810Y302D01*
X0Y301D02*
X7Y301D01*
X485Y301D02*
X538Y301D01*
X1310Y301D02*
X1316Y301D01*
X1327Y301D02*
X1333Y301D01*
X1803Y301D02*
X1810Y301D01*
X0Y300D02*
X7Y300D01*
X485Y300D02*
X538Y300D01*
X1310Y300D02*
X1316Y300D01*
X1327Y300D02*
X1333Y300D01*
X1803Y300D02*
X1810Y300D01*
X0Y299D02*
X7Y299D01*
X485Y299D02*
X538Y299D01*
X1310Y299D02*
X1316Y299D01*
X1327Y299D02*
X1333Y299D01*
X1803Y299D02*
X1810Y299D01*
X0Y298D02*
X7Y298D01*
X486Y298D02*
X538Y298D01*
X1310Y298D02*
X1316Y298D01*
X1327Y298D02*
X1333Y298D01*
X1803Y298D02*
X1810Y298D01*
X0Y297D02*
X7Y297D01*
X488Y297D02*
X537Y297D01*
X1310Y297D02*
X1316Y297D01*
X1327Y297D02*
X1333Y297D01*
X1803Y297D02*
X1810Y297D01*
X0Y296D02*
X7Y296D01*
X1310Y296D02*
X1315Y296D01*
X1327Y296D02*
X1333Y296D01*
X1803Y296D02*
X1810Y296D01*
X0Y295D02*
X7Y295D01*
X1311Y295D02*
X1315Y295D01*
X1327Y295D02*
X1333Y295D01*
X1803Y295D02*
X1810Y295D01*
X0Y294D02*
X7Y294D01*
X1327Y294D02*
X1333Y294D01*
X1803Y294D02*
X1810Y294D01*
X0Y293D02*
X7Y293D01*
X1327Y293D02*
X1333Y293D01*
X1803Y293D02*
X1810Y293D01*
X0Y292D02*
X7Y292D01*
X1327Y292D02*
X1333Y292D01*
X1803Y292D02*
X1810Y292D01*
X0Y291D02*
X7Y291D01*
X1327Y291D02*
X1333Y291D01*
X1803Y291D02*
X1810Y291D01*
X0Y290D02*
X7Y290D01*
X1327Y290D02*
X1333Y290D01*
X1803Y290D02*
X1810Y290D01*
X0Y289D02*
X7Y289D01*
X1328Y289D02*
X1333Y289D01*
X1803Y289D02*
X1810Y289D01*
X0Y288D02*
X7Y288D01*
X1329Y288D02*
X1332Y288D01*
X1803Y288D02*
X1810Y288D01*
X0Y287D02*
X7Y287D01*
X1803Y287D02*
X1810Y287D01*
X0Y286D02*
X7Y286D01*
X1803Y286D02*
X1810Y286D01*
X0Y285D02*
X7Y285D01*
X1803Y285D02*
X1810Y285D01*
X0Y284D02*
X7Y284D01*
X1803Y284D02*
X1810Y284D01*
X0Y283D02*
X7Y283D01*
X1803Y283D02*
X1810Y283D01*
X0Y282D02*
X7Y282D01*
X1803Y282D02*
X1810Y282D01*
X0Y281D02*
X7Y281D01*
X486Y281D02*
X489Y281D01*
X533Y281D02*
X536Y281D01*
X1803Y281D02*
X1810Y281D01*
X0Y280D02*
X7Y280D01*
X485Y280D02*
X490Y280D01*
X532Y280D02*
X537Y280D01*
X1803Y280D02*
X1810Y280D01*
X0Y279D02*
X7Y279D01*
X485Y279D02*
X490Y279D01*
X532Y279D02*
X537Y279D01*
X1803Y279D02*
X1810Y279D01*
X0Y278D02*
X7Y278D01*
X484Y278D02*
X490Y278D01*
X532Y278D02*
X538Y278D01*
X1803Y278D02*
X1810Y278D01*
X0Y277D02*
X7Y277D01*
X484Y277D02*
X490Y277D01*
X532Y277D02*
X538Y277D01*
X1803Y277D02*
X1810Y277D01*
X0Y276D02*
X7Y276D01*
X484Y276D02*
X490Y276D01*
X532Y276D02*
X538Y276D01*
X1803Y276D02*
X1810Y276D01*
X0Y275D02*
X7Y275D01*
X484Y275D02*
X490Y275D01*
X532Y275D02*
X538Y275D01*
X1803Y275D02*
X1810Y275D01*
X0Y274D02*
X7Y274D01*
X484Y274D02*
X490Y274D01*
X532Y274D02*
X538Y274D01*
X1803Y274D02*
X1810Y274D01*
X0Y273D02*
X7Y273D01*
X484Y273D02*
X490Y273D01*
X532Y273D02*
X538Y273D01*
X1803Y273D02*
X1810Y273D01*
X0Y272D02*
X7Y272D01*
X484Y272D02*
X490Y272D01*
X532Y272D02*
X538Y272D01*
X1803Y272D02*
X1810Y272D01*
X0Y271D02*
X7Y271D01*
X484Y271D02*
X490Y271D01*
X532Y271D02*
X538Y271D01*
X1282Y271D02*
X1285Y271D01*
X1329Y271D02*
X1332Y271D01*
X1803Y271D02*
X1810Y271D01*
X0Y270D02*
X7Y270D01*
X484Y270D02*
X490Y270D01*
X532Y270D02*
X538Y270D01*
X1281Y270D02*
X1286Y270D01*
X1328Y270D02*
X1333Y270D01*
X1803Y270D02*
X1810Y270D01*
X0Y269D02*
X7Y269D01*
X484Y269D02*
X490Y269D01*
X532Y269D02*
X538Y269D01*
X1280Y269D02*
X1286Y269D01*
X1327Y269D02*
X1333Y269D01*
X1803Y269D02*
X1810Y269D01*
X0Y268D02*
X7Y268D01*
X484Y268D02*
X491Y268D01*
X531Y268D02*
X538Y268D01*
X1280Y268D02*
X1286Y268D01*
X1327Y268D02*
X1333Y268D01*
X1803Y268D02*
X1810Y268D01*
X0Y267D02*
X7Y267D01*
X484Y267D02*
X538Y267D01*
X1280Y267D02*
X1286Y267D01*
X1327Y267D02*
X1333Y267D01*
X1803Y267D02*
X1810Y267D01*
X0Y266D02*
X7Y266D01*
X484Y266D02*
X538Y266D01*
X1280Y266D02*
X1286Y266D01*
X1327Y266D02*
X1333Y266D01*
X1803Y266D02*
X1810Y266D01*
X0Y265D02*
X7Y265D01*
X484Y265D02*
X538Y265D01*
X1280Y265D02*
X1286Y265D01*
X1327Y265D02*
X1333Y265D01*
X1803Y265D02*
X1810Y265D01*
X0Y264D02*
X7Y264D01*
X484Y264D02*
X538Y264D01*
X1280Y264D02*
X1286Y264D01*
X1327Y264D02*
X1333Y264D01*
X1803Y264D02*
X1810Y264D01*
X0Y263D02*
X7Y263D01*
X484Y263D02*
X538Y263D01*
X1280Y263D02*
X1286Y263D01*
X1327Y263D02*
X1333Y263D01*
X1803Y263D02*
X1810Y263D01*
X0Y262D02*
X7Y262D01*
X484Y262D02*
X538Y262D01*
X1280Y262D02*
X1286Y262D01*
X1327Y262D02*
X1333Y262D01*
X1803Y262D02*
X1810Y262D01*
X0Y261D02*
X7Y261D01*
X484Y261D02*
X537Y261D01*
X1280Y261D02*
X1286Y261D01*
X1327Y261D02*
X1333Y261D01*
X1803Y261D02*
X1810Y261D01*
X0Y260D02*
X7Y260D01*
X484Y260D02*
X490Y260D01*
X1280Y260D02*
X1286Y260D01*
X1327Y260D02*
X1333Y260D01*
X1803Y260D02*
X1810Y260D01*
X0Y259D02*
X7Y259D01*
X484Y259D02*
X490Y259D01*
X1280Y259D02*
X1286Y259D01*
X1327Y259D02*
X1333Y259D01*
X1803Y259D02*
X1810Y259D01*
X0Y258D02*
X7Y258D01*
X484Y258D02*
X490Y258D01*
X1280Y258D02*
X1286Y258D01*
X1327Y258D02*
X1333Y258D01*
X1803Y258D02*
X1810Y258D01*
X0Y257D02*
X7Y257D01*
X484Y257D02*
X490Y257D01*
X1280Y257D02*
X1333Y257D01*
X1803Y257D02*
X1810Y257D01*
X0Y256D02*
X7Y256D01*
X484Y256D02*
X490Y256D01*
X1280Y256D02*
X1333Y256D01*
X1803Y256D02*
X1810Y256D01*
X0Y255D02*
X7Y255D01*
X484Y255D02*
X490Y255D01*
X1280Y255D02*
X1333Y255D01*
X1803Y255D02*
X1810Y255D01*
X0Y254D02*
X7Y254D01*
X484Y254D02*
X491Y254D01*
X1280Y254D02*
X1333Y254D01*
X1803Y254D02*
X1810Y254D01*
X0Y253D02*
X7Y253D01*
X484Y253D02*
X507Y253D01*
X1280Y253D02*
X1333Y253D01*
X1803Y253D02*
X1810Y253D01*
X0Y252D02*
X7Y252D01*
X484Y252D02*
X508Y252D01*
X1280Y252D02*
X1333Y252D01*
X1803Y252D02*
X1810Y252D01*
X0Y251D02*
X7Y251D01*
X484Y251D02*
X508Y251D01*
X1280Y251D02*
X1333Y251D01*
X1803Y251D02*
X1810Y251D01*
X0Y250D02*
X7Y250D01*
X485Y250D02*
X508Y250D01*
X1280Y250D02*
X1286Y250D01*
X1803Y250D02*
X1810Y250D01*
X0Y249D02*
X7Y249D01*
X485Y249D02*
X508Y249D01*
X1280Y249D02*
X1286Y249D01*
X1803Y249D02*
X1810Y249D01*
X0Y248D02*
X7Y248D01*
X486Y248D02*
X507Y248D01*
X1280Y248D02*
X1286Y248D01*
X1803Y248D02*
X1810Y248D01*
X0Y247D02*
X7Y247D01*
X488Y247D02*
X505Y247D01*
X1280Y247D02*
X1286Y247D01*
X1803Y247D02*
X1810Y247D01*
X0Y246D02*
X7Y246D01*
X1280Y246D02*
X1286Y246D01*
X1803Y246D02*
X1810Y246D01*
X0Y245D02*
X7Y245D01*
X1280Y245D02*
X1286Y245D01*
X1803Y245D02*
X1810Y245D01*
X0Y244D02*
X7Y244D01*
X1280Y244D02*
X1301Y244D01*
X1803Y244D02*
X1810Y244D01*
X0Y243D02*
X7Y243D01*
X1280Y243D02*
X1303Y243D01*
X1803Y243D02*
X1810Y243D01*
X0Y242D02*
X7Y242D01*
X1280Y242D02*
X1304Y242D01*
X1803Y242D02*
X1810Y242D01*
X0Y241D02*
X7Y241D01*
X1280Y241D02*
X1304Y241D01*
X1803Y241D02*
X1810Y241D01*
X0Y240D02*
X7Y240D01*
X1280Y240D02*
X1304Y240D01*
X1803Y240D02*
X1810Y240D01*
X0Y239D02*
X7Y239D01*
X1281Y239D02*
X1303Y239D01*
X1803Y239D02*
X1810Y239D01*
X0Y238D02*
X7Y238D01*
X1281Y238D02*
X1303Y238D01*
X1803Y238D02*
X1810Y238D01*
X0Y237D02*
X7Y237D01*
X1803Y237D02*
X1810Y237D01*
X0Y236D02*
X7Y236D01*
X1803Y236D02*
X1810Y236D01*
X0Y235D02*
X7Y235D01*
X1803Y235D02*
X1810Y235D01*
X0Y234D02*
X7Y234D01*
X1803Y234D02*
X1810Y234D01*
X0Y233D02*
X7Y233D01*
X1803Y233D02*
X1810Y233D01*
X0Y232D02*
X7Y232D01*
X1803Y232D02*
X1810Y232D01*
X0Y231D02*
X7Y231D01*
X1803Y231D02*
X1810Y231D01*
X0Y230D02*
X7Y230D01*
X1803Y230D02*
X1810Y230D01*
X0Y229D02*
X7Y229D01*
X1803Y229D02*
X1810Y229D01*
X0Y228D02*
X7Y228D01*
X1803Y228D02*
X1810Y228D01*
X0Y227D02*
X7Y227D01*
X1803Y227D02*
X1810Y227D01*
X0Y226D02*
X7Y226D01*
X1803Y226D02*
X1810Y226D01*
X0Y225D02*
X7Y225D01*
X1803Y225D02*
X1810Y225D01*
X0Y224D02*
X7Y224D01*
X1803Y224D02*
X1810Y224D01*
X0Y223D02*
X7Y223D01*
X1803Y223D02*
X1810Y223D01*
X0Y222D02*
X7Y222D01*
X1803Y222D02*
X1810Y222D01*
X0Y221D02*
X7Y221D01*
X1803Y221D02*
X1810Y221D01*
X0Y220D02*
X7Y220D01*
X1803Y220D02*
X1810Y220D01*
X0Y219D02*
X7Y219D01*
X1803Y219D02*
X1810Y219D01*
X0Y218D02*
X7Y218D01*
X1803Y218D02*
X1810Y218D01*
X0Y217D02*
X7Y217D01*
X1803Y217D02*
X1810Y217D01*
X0Y216D02*
X7Y216D01*
X1803Y216D02*
X1810Y216D01*
X0Y215D02*
X7Y215D01*
X1803Y215D02*
X1810Y215D01*
X0Y214D02*
X7Y214D01*
X1803Y214D02*
X1810Y214D01*
X0Y213D02*
X7Y213D01*
X1803Y213D02*
X1810Y213D01*
X0Y212D02*
X7Y212D01*
X1803Y212D02*
X1810Y212D01*
X0Y211D02*
X7Y211D01*
X1803Y211D02*
X1810Y211D01*
X0Y210D02*
X7Y210D01*
X1803Y210D02*
X1810Y210D01*
X0Y209D02*
X7Y209D01*
X1803Y209D02*
X1810Y209D01*
X0Y208D02*
X7Y208D01*
X1803Y208D02*
X1810Y208D01*
X0Y207D02*
X7Y207D01*
X1803Y207D02*
X1810Y207D01*
X0Y206D02*
X7Y206D01*
X1803Y206D02*
X1810Y206D01*
X0Y205D02*
X7Y205D01*
X1803Y205D02*
X1810Y205D01*
X0Y204D02*
X7Y204D01*
X1803Y204D02*
X1810Y204D01*
X0Y203D02*
X7Y203D01*
X1803Y203D02*
X1810Y203D01*
X0Y202D02*
X7Y202D01*
X1803Y202D02*
X1810Y202D01*
X0Y201D02*
X7Y201D01*
X1803Y201D02*
X1810Y201D01*
X0Y200D02*
X7Y200D01*
X1803Y200D02*
X1810Y200D01*
X0Y199D02*
X7Y199D01*
X1803Y199D02*
X1810Y199D01*
X0Y198D02*
X7Y198D01*
X1803Y198D02*
X1810Y198D01*
X0Y197D02*
X7Y197D01*
X1803Y197D02*
X1810Y197D01*
X0Y196D02*
X7Y196D01*
X1803Y196D02*
X1810Y196D01*
X0Y195D02*
X7Y195D01*
X1803Y195D02*
X1810Y195D01*
X0Y194D02*
X7Y194D01*
X1803Y194D02*
X1810Y194D01*
X0Y193D02*
X7Y193D01*
X1803Y193D02*
X1810Y193D01*
X0Y192D02*
X7Y192D01*
X1803Y192D02*
X1810Y192D01*
X0Y191D02*
X7Y191D01*
X1803Y191D02*
X1810Y191D01*
X0Y190D02*
X7Y190D01*
X1803Y190D02*
X1810Y190D01*
X0Y189D02*
X7Y189D01*
X1803Y189D02*
X1810Y189D01*
X0Y188D02*
X7Y188D01*
X1803Y188D02*
X1810Y188D01*
X0Y187D02*
X7Y187D01*
X1803Y187D02*
X1810Y187D01*
X0Y186D02*
X7Y186D01*
X1803Y186D02*
X1810Y186D01*
X0Y185D02*
X7Y185D01*
X1803Y185D02*
X1810Y185D01*
X0Y184D02*
X7Y184D01*
X1803Y184D02*
X1810Y184D01*
X0Y183D02*
X7Y183D01*
X1803Y183D02*
X1810Y183D01*
X0Y182D02*
X7Y182D01*
X1803Y182D02*
X1810Y182D01*
X0Y181D02*
X7Y181D01*
X1803Y181D02*
X1810Y181D01*
X0Y180D02*
X7Y180D01*
X1803Y180D02*
X1810Y180D01*
X0Y179D02*
X7Y179D01*
X1803Y179D02*
X1810Y179D01*
X0Y178D02*
X7Y178D01*
X1803Y178D02*
X1810Y178D01*
X0Y177D02*
X7Y177D01*
X1803Y177D02*
X1810Y177D01*
X0Y176D02*
X7Y176D01*
X1803Y176D02*
X1810Y176D01*
X0Y175D02*
X7Y175D01*
X1803Y175D02*
X1810Y175D01*
X0Y174D02*
X7Y174D01*
X1803Y174D02*
X1810Y174D01*
X0Y173D02*
X7Y173D01*
X1803Y173D02*
X1810Y173D01*
X0Y172D02*
X7Y172D01*
X1803Y172D02*
X1810Y172D01*
X0Y171D02*
X7Y171D01*
X1803Y171D02*
X1810Y171D01*
X0Y170D02*
X7Y170D01*
X1803Y170D02*
X1810Y170D01*
X0Y169D02*
X7Y169D01*
X1803Y169D02*
X1810Y169D01*
X0Y168D02*
X7Y168D01*
X1803Y168D02*
X1810Y168D01*
X0Y167D02*
X7Y167D01*
X1803Y167D02*
X1810Y167D01*
X0Y166D02*
X7Y166D01*
X1803Y166D02*
X1810Y166D01*
X0Y165D02*
X7Y165D01*
X1803Y165D02*
X1810Y165D01*
X0Y164D02*
X7Y164D01*
X1803Y164D02*
X1810Y164D01*
X0Y163D02*
X7Y163D01*
X1803Y163D02*
X1810Y163D01*
X0Y162D02*
X7Y162D01*
X1803Y162D02*
X1810Y162D01*
X0Y161D02*
X7Y161D01*
X1803Y161D02*
X1810Y161D01*
X0Y160D02*
X7Y160D01*
X1803Y160D02*
X1810Y160D01*
X0Y159D02*
X7Y159D01*
X1803Y159D02*
X1810Y159D01*
X0Y158D02*
X7Y158D01*
X1803Y158D02*
X1810Y158D01*
X0Y157D02*
X7Y157D01*
X1803Y157D02*
X1810Y157D01*
X0Y156D02*
X7Y156D01*
X1803Y156D02*
X1810Y156D01*
X0Y155D02*
X7Y155D01*
X1803Y155D02*
X1810Y155D01*
X0Y154D02*
X7Y154D01*
X1803Y154D02*
X1810Y154D01*
X0Y153D02*
X7Y153D01*
X1803Y153D02*
X1810Y153D01*
X0Y152D02*
X7Y152D01*
X1803Y152D02*
X1810Y152D01*
X0Y151D02*
X7Y151D01*
X1803Y151D02*
X1810Y151D01*
X0Y150D02*
X7Y150D01*
X1803Y150D02*
X1810Y150D01*
X0Y149D02*
X7Y149D01*
X1803Y149D02*
X1810Y149D01*
X0Y148D02*
X7Y148D01*
X1803Y148D02*
X1810Y148D01*
X0Y147D02*
X7Y147D01*
X1803Y147D02*
X1810Y147D01*
X0Y146D02*
X7Y146D01*
X1803Y146D02*
X1810Y146D01*
X0Y145D02*
X7Y145D01*
X1803Y145D02*
X1810Y145D01*
X0Y144D02*
X7Y144D01*
X1803Y144D02*
X1810Y144D01*
X0Y143D02*
X7Y143D01*
X1803Y143D02*
X1810Y143D01*
X0Y142D02*
X7Y142D01*
X1803Y142D02*
X1810Y142D01*
X0Y141D02*
X7Y141D01*
X1803Y141D02*
X1810Y141D01*
X0Y140D02*
X7Y140D01*
X1803Y140D02*
X1810Y140D01*
X0Y139D02*
X7Y139D01*
X1803Y139D02*
X1810Y139D01*
X0Y138D02*
X7Y138D01*
X1803Y138D02*
X1810Y138D01*
X0Y137D02*
X7Y137D01*
X1803Y137D02*
X1810Y137D01*
X0Y136D02*
X7Y136D01*
X1803Y136D02*
X1810Y136D01*
X0Y135D02*
X7Y135D01*
X1803Y135D02*
X1810Y135D01*
X0Y134D02*
X7Y134D01*
X1803Y134D02*
X1810Y134D01*
X0Y133D02*
X7Y133D01*
X1803Y133D02*
X1810Y133D01*
X0Y132D02*
X7Y132D01*
X1803Y132D02*
X1810Y132D01*
X0Y131D02*
X7Y131D01*
X1803Y131D02*
X1810Y131D01*
X0Y130D02*
X7Y130D01*
X1803Y130D02*
X1810Y130D01*
X0Y129D02*
X7Y129D01*
X1803Y129D02*
X1810Y129D01*
X0Y128D02*
X7Y128D01*
X1803Y128D02*
X1810Y128D01*
X0Y127D02*
X7Y127D01*
X1803Y127D02*
X1810Y127D01*
X0Y126D02*
X7Y126D01*
X1803Y126D02*
X1810Y126D01*
X0Y125D02*
X7Y125D01*
X1803Y125D02*
X1810Y125D01*
X0Y124D02*
X7Y124D01*
X1803Y124D02*
X1810Y124D01*
X0Y123D02*
X7Y123D01*
X1803Y123D02*
X1810Y123D01*
X0Y122D02*
X7Y122D01*
X1803Y122D02*
X1810Y122D01*
X0Y121D02*
X7Y121D01*
X1803Y121D02*
X1810Y121D01*
X0Y120D02*
X7Y120D01*
X1803Y120D02*
X1810Y120D01*
X0Y119D02*
X7Y119D01*
X1803Y119D02*
X1810Y119D01*
X0Y118D02*
X7Y118D01*
X1803Y118D02*
X1810Y118D01*
X0Y117D02*
X7Y117D01*
X1803Y117D02*
X1810Y117D01*
X0Y116D02*
X7Y116D01*
X1803Y116D02*
X1810Y116D01*
X0Y115D02*
X7Y115D01*
X1803Y115D02*
X1810Y115D01*
X0Y114D02*
X7Y114D01*
X1803Y114D02*
X1810Y114D01*
X0Y113D02*
X7Y113D01*
X1803Y113D02*
X1810Y113D01*
X0Y112D02*
X7Y112D01*
X1803Y112D02*
X1810Y112D01*
X0Y111D02*
X7Y111D01*
X1803Y111D02*
X1810Y111D01*
X0Y110D02*
X7Y110D01*
X1803Y110D02*
X1810Y110D01*
X0Y109D02*
X7Y109D01*
X1803Y109D02*
X1810Y109D01*
X0Y108D02*
X7Y108D01*
X1803Y108D02*
X1810Y108D01*
X0Y107D02*
X7Y107D01*
X1803Y107D02*
X1810Y107D01*
X0Y106D02*
X7Y106D01*
X1803Y106D02*
X1810Y106D01*
X0Y105D02*
X7Y105D01*
X1803Y105D02*
X1810Y105D01*
X0Y104D02*
X7Y104D01*
X1803Y104D02*
X1810Y104D01*
X0Y103D02*
X7Y103D01*
X1803Y103D02*
X1810Y103D01*
X0Y102D02*
X7Y102D01*
X1803Y102D02*
X1810Y102D01*
X0Y101D02*
X7Y101D01*
X1803Y101D02*
X1810Y101D01*
X0Y100D02*
X7Y100D01*
X1803Y100D02*
X1810Y100D01*
X0Y99D02*
X7Y99D01*
X1803Y99D02*
X1810Y99D01*
X0Y98D02*
X7Y98D01*
X1803Y98D02*
X1810Y98D01*
X0Y97D02*
X7Y97D01*
X1803Y97D02*
X1810Y97D01*
X0Y96D02*
X7Y96D01*
X1803Y96D02*
X1810Y96D01*
X0Y95D02*
X7Y95D01*
X1803Y95D02*
X1810Y95D01*
X0Y94D02*
X7Y94D01*
X1803Y94D02*
X1810Y94D01*
X0Y93D02*
X7Y93D01*
X1803Y93D02*
X1810Y93D01*
X0Y92D02*
X7Y92D01*
X1803Y92D02*
X1810Y92D01*
X0Y91D02*
X7Y91D01*
X1803Y91D02*
X1810Y91D01*
X0Y90D02*
X7Y90D01*
X1803Y90D02*
X1810Y90D01*
X0Y89D02*
X7Y89D01*
X1803Y89D02*
X1810Y89D01*
X0Y88D02*
X7Y88D01*
X1803Y88D02*
X1810Y88D01*
X0Y87D02*
X7Y87D01*
X1803Y87D02*
X1810Y87D01*
X0Y86D02*
X7Y86D01*
X1803Y86D02*
X1810Y86D01*
X0Y85D02*
X7Y85D01*
X1803Y85D02*
X1810Y85D01*
X0Y84D02*
X7Y84D01*
X1803Y84D02*
X1810Y84D01*
X0Y83D02*
X7Y83D01*
X1803Y83D02*
X1810Y83D01*
X0Y82D02*
X7Y82D01*
X1803Y82D02*
X1810Y82D01*
X0Y81D02*
X7Y81D01*
X1803Y81D02*
X1810Y81D01*
X0Y80D02*
X7Y80D01*
X1803Y80D02*
X1810Y80D01*
X0Y79D02*
X7Y79D01*
X1803Y79D02*
X1810Y79D01*
X0Y78D02*
X7Y78D01*
X1803Y78D02*
X1810Y78D01*
X0Y77D02*
X7Y77D01*
X1803Y77D02*
X1810Y77D01*
X0Y76D02*
X7Y76D01*
X1803Y76D02*
X1810Y76D01*
X0Y75D02*
X7Y75D01*
X1803Y75D02*
X1810Y75D01*
X0Y74D02*
X7Y74D01*
X1803Y74D02*
X1810Y74D01*
X0Y73D02*
X7Y73D01*
X1803Y73D02*
X1810Y73D01*
X0Y72D02*
X7Y72D01*
X1803Y72D02*
X1810Y72D01*
X0Y71D02*
X7Y71D01*
X1803Y71D02*
X1810Y71D01*
X0Y70D02*
X7Y70D01*
X1803Y70D02*
X1810Y70D01*
X0Y69D02*
X7Y69D01*
X1803Y69D02*
X1810Y69D01*
X0Y68D02*
X7Y68D01*
X1803Y68D02*
X1810Y68D01*
X0Y67D02*
X7Y67D01*
X1803Y67D02*
X1810Y67D01*
X0Y66D02*
X7Y66D01*
X1803Y66D02*
X1810Y66D01*
X0Y65D02*
X7Y65D01*
X1803Y65D02*
X1810Y65D01*
X0Y64D02*
X7Y64D01*
X1803Y64D02*
X1810Y64D01*
X0Y63D02*
X7Y63D01*
X1803Y63D02*
X1810Y63D01*
X0Y62D02*
X7Y62D01*
X1803Y62D02*
X1810Y62D01*
X0Y61D02*
X7Y61D01*
X1803Y61D02*
X1810Y61D01*
X0Y60D02*
X7Y60D01*
X1803Y60D02*
X1810Y60D01*
X0Y59D02*
X7Y59D01*
X1803Y59D02*
X1810Y59D01*
X0Y58D02*
X7Y58D01*
X1803Y58D02*
X1810Y58D01*
X0Y57D02*
X7Y57D01*
X1803Y57D02*
X1810Y57D01*
X0Y56D02*
X7Y56D01*
X1803Y56D02*
X1810Y56D01*
X0Y55D02*
X7Y55D01*
X1803Y55D02*
X1810Y55D01*
X0Y54D02*
X7Y54D01*
X1803Y54D02*
X1810Y54D01*
X0Y53D02*
X7Y53D01*
X1803Y53D02*
X1810Y53D01*
X0Y52D02*
X7Y52D01*
X1803Y52D02*
X1810Y52D01*
X0Y51D02*
X7Y51D01*
X1803Y51D02*
X1810Y51D01*
X0Y50D02*
X7Y50D01*
X1803Y50D02*
X1810Y50D01*
X0Y49D02*
X7Y49D01*
X1803Y49D02*
X1810Y49D01*
X0Y48D02*
X7Y48D01*
X1803Y48D02*
X1810Y48D01*
X0Y47D02*
X7Y47D01*
X1803Y47D02*
X1810Y47D01*
X0Y46D02*
X7Y46D01*
X1803Y46D02*
X1810Y46D01*
X0Y45D02*
X7Y45D01*
X1803Y45D02*
X1810Y45D01*
X0Y44D02*
X7Y44D01*
X1803Y44D02*
X1810Y44D01*
X0Y43D02*
X7Y43D01*
X1803Y43D02*
X1810Y43D01*
X0Y42D02*
X7Y42D01*
X1803Y42D02*
X1810Y42D01*
X0Y41D02*
X7Y41D01*
X1803Y41D02*
X1810Y41D01*
X0Y40D02*
X7Y40D01*
X1803Y40D02*
X1810Y40D01*
X0Y39D02*
X7Y39D01*
X1803Y39D02*
X1810Y39D01*
X0Y38D02*
X7Y38D01*
X1803Y38D02*
X1810Y38D01*
X0Y37D02*
X7Y37D01*
X1803Y37D02*
X1810Y37D01*
X0Y36D02*
X7Y36D01*
X1803Y36D02*
X1810Y36D01*
X0Y35D02*
X7Y35D01*
X1803Y35D02*
X1810Y35D01*
X0Y34D02*
X7Y34D01*
X1803Y34D02*
X1810Y34D01*
X0Y33D02*
X7Y33D01*
X1803Y33D02*
X1810Y33D01*
X0Y32D02*
X7Y32D01*
X1803Y32D02*
X1810Y32D01*
X0Y31D02*
X7Y31D01*
X1803Y31D02*
X1810Y31D01*
X0Y30D02*
X7Y30D01*
X1803Y30D02*
X1810Y30D01*
X0Y29D02*
X7Y29D01*
X1803Y29D02*
X1810Y29D01*
X0Y28D02*
X7Y28D01*
X1803Y28D02*
X1810Y28D01*
X0Y27D02*
X7Y27D01*
X1803Y27D02*
X1810Y27D01*
X0Y26D02*
X7Y26D01*
X1803Y26D02*
X1810Y26D01*
X0Y25D02*
X7Y25D01*
X1803Y25D02*
X1810Y25D01*
X0Y24D02*
X7Y24D01*
X1803Y24D02*
X1810Y24D01*
X0Y23D02*
X7Y23D01*
X1803Y23D02*
X1810Y23D01*
X0Y22D02*
X7Y22D01*
X1803Y22D02*
X1810Y22D01*
X0Y21D02*
X7Y21D01*
X1803Y21D02*
X1810Y21D01*
X0Y20D02*
X7Y20D01*
X1803Y20D02*
X1810Y20D01*
X0Y19D02*
X7Y19D01*
X1803Y19D02*
X1810Y19D01*
X0Y18D02*
X7Y18D01*
X1803Y18D02*
X1810Y18D01*
X0Y17D02*
X7Y17D01*
X1803Y17D02*
X1810Y17D01*
X0Y16D02*
X7Y16D01*
X1803Y16D02*
X1810Y16D01*
X0Y15D02*
X7Y15D01*
X1803Y15D02*
X1810Y15D01*
X0Y14D02*
X7Y14D01*
X1803Y14D02*
X1810Y14D01*
X0Y13D02*
X7Y13D01*
X1803Y13D02*
X1810Y13D01*
X0Y12D02*
X7Y12D01*
X1803Y12D02*
X1810Y12D01*
X0Y11D02*
X7Y11D01*
X1803Y11D02*
X1810Y11D01*
X0Y10D02*
X7Y10D01*
X1803Y10D02*
X1810Y10D01*
X0Y9D02*
X7Y9D01*
X1803Y9D02*
X1810Y9D01*
X0Y8D02*
X1810Y8D01*
X0Y7D02*
X1810Y7D01*
X0Y6D02*
X1810Y6D01*
X0Y5D02*
X1810Y5D01*
X0Y4D02*
X1810Y4D01*
X0Y3D02*
X1810Y3D01*
X0Y2D02*
X1810Y2D01*
X0Y1D02*
X1810Y1D01*
D02*
G04 End of Silk1*
M02*