; NON-PLATED HOLES START AT T1
; THROUGH (PLATED) HOLES START AT T100
M48
INCH
T1C0.086614
T100C0.038000
T101C0.035000
%
T1
X001992Y016110
X001992Y002110
T100
X014992Y006110
X002992Y012110
X003992Y012110
X013992Y006110
X007992Y014110
X014992Y007110
X014992Y011110
X010992Y008110
X002992Y006110
X009992Y014110
X010992Y010110
X006992Y015110
X003992Y010110
X006992Y014110
X005992Y015110
X013992Y012110
X010992Y004110
X011992Y004110
X014992Y012110
X003992Y006110
X006992Y004110
X003992Y008110
X005992Y014110
X013992Y007110
X003992Y007110
X009992Y004110
X002992Y011110
X007992Y003110
X007992Y015110
X009992Y015110
X011992Y014110
X013992Y011110
X011992Y003110
X014992Y010110
X003992Y011110
X002992Y007110
X007992Y004110
X011992Y015110
X010992Y015110
X005992Y004110
X002992Y008110
X013992Y010110
X005992Y003110
X002992Y010110
X010992Y003110
X010992Y014110
X013992Y008110
X014992Y008110
X010992Y007110
X006992Y003110
X009992Y003110
X010992Y009110
T101
X006992Y007110
X009992Y009110
X009992Y010110
X006992Y009110
X009992Y008110
X006992Y010110
X009992Y007110
X006992Y008110
T00
M30
