G04 MADE WITH FRITZING*
G04 WWW.FRITZING.ORG*
G04 DOUBLE SIDED*
G04 HOLES PLATED*
G04 CONTOUR ON CENTER OF CONTOUR VECTOR*
%ASAXBY*%
%FSLAX23Y23*%
%MOIN*%
%OFA0B0*%
%SFA1.0B1.0*%
%ADD10C,0.075000*%
%ADD11C,0.078000*%
%ADD12C,0.107087*%
%ADD13R,0.078000X0.078000*%
%LNCOPPER0*%
G90*
G70*
G54D10*
X3463Y3514D03*
G54D11*
X2700Y2522D03*
X2700Y2522D03*
X1500Y1322D03*
X1500Y1322D03*
X2800Y922D03*
X2800Y922D03*
X2800Y1122D03*
X2800Y1122D03*
G54D12*
X2999Y2170D03*
X2999Y2048D03*
X2999Y1721D03*
X2300Y2171D03*
X2300Y2049D03*
X2300Y1722D03*
X1600Y2171D03*
X1600Y2049D03*
X1600Y1722D03*
X900Y2171D03*
X900Y2049D03*
X900Y1722D03*
G54D11*
X2999Y2321D03*
X2799Y2321D03*
X2599Y2321D03*
X2300Y2322D03*
X2100Y2322D03*
X1900Y2322D03*
X1600Y2322D03*
X1400Y2322D03*
X1200Y2322D03*
X900Y2322D03*
X700Y2322D03*
X500Y2322D03*
X1400Y1322D03*
X1400Y1122D03*
X1400Y922D03*
G54D12*
X1700Y673D03*
X1700Y795D03*
X1700Y1122D03*
X3100Y673D03*
X3100Y795D03*
X3100Y1122D03*
G54D11*
X2100Y1222D03*
X2100Y1122D03*
X2100Y1022D03*
X2100Y922D03*
X2100Y1222D03*
X2100Y1122D03*
X2100Y1022D03*
X2100Y922D03*
G54D13*
X2999Y2321D03*
X2300Y2322D03*
X1600Y2322D03*
X900Y2322D03*
X1400Y1322D03*
G36*
X40Y3582D02*
X40Y3482D01*
X3412Y3482D01*
X3412Y3480D01*
X3420Y3480D01*
X3420Y3478D01*
X3424Y3478D01*
X3424Y3476D01*
X3428Y3476D01*
X3428Y3474D01*
X3432Y3474D01*
X3432Y3472D01*
X3434Y3472D01*
X3434Y3470D01*
X3438Y3470D01*
X3438Y3468D01*
X3440Y3468D01*
X3440Y3466D01*
X3442Y3466D01*
X3442Y3464D01*
X3444Y3464D01*
X3444Y3462D01*
X3446Y3462D01*
X3446Y3460D01*
X3448Y3460D01*
X3448Y3456D01*
X3450Y3456D01*
X3450Y3454D01*
X3452Y3454D01*
X3452Y3450D01*
X3454Y3450D01*
X3454Y3446D01*
X3456Y3446D01*
X3456Y3442D01*
X3458Y3442D01*
X3458Y3434D01*
X3460Y3434D01*
X3460Y3410D01*
X3458Y3410D01*
X3458Y3402D01*
X3456Y3402D01*
X3456Y3398D01*
X3454Y3398D01*
X3454Y3394D01*
X3452Y3394D01*
X3452Y3390D01*
X3450Y3390D01*
X3450Y3388D01*
X3448Y3388D01*
X3448Y3384D01*
X3446Y3384D01*
X3446Y3382D01*
X3444Y3382D01*
X3444Y3380D01*
X3442Y3380D01*
X3442Y3378D01*
X3440Y3378D01*
X3440Y3376D01*
X3438Y3376D01*
X3438Y3374D01*
X3434Y3374D01*
X3434Y3372D01*
X3432Y3372D01*
X3432Y3370D01*
X3428Y3370D01*
X3428Y3368D01*
X3424Y3368D01*
X3424Y3366D01*
X3420Y3366D01*
X3420Y3364D01*
X3412Y3364D01*
X3412Y3362D01*
X3582Y3362D01*
X3582Y3582D01*
X40Y3582D01*
G37*
D02*
G36*
X40Y3482D02*
X40Y3362D01*
X188Y3362D01*
X188Y3364D01*
X180Y3364D01*
X180Y3366D01*
X176Y3366D01*
X176Y3368D01*
X172Y3368D01*
X172Y3370D01*
X168Y3370D01*
X168Y3372D01*
X166Y3372D01*
X166Y3374D01*
X162Y3374D01*
X162Y3376D01*
X160Y3376D01*
X160Y3378D01*
X158Y3378D01*
X158Y3380D01*
X156Y3380D01*
X156Y3382D01*
X154Y3382D01*
X154Y3384D01*
X152Y3384D01*
X152Y3388D01*
X150Y3388D01*
X150Y3390D01*
X148Y3390D01*
X148Y3394D01*
X146Y3394D01*
X146Y3398D01*
X144Y3398D01*
X144Y3402D01*
X142Y3402D01*
X142Y3410D01*
X140Y3410D01*
X140Y3434D01*
X142Y3434D01*
X142Y3442D01*
X144Y3442D01*
X144Y3446D01*
X146Y3446D01*
X146Y3450D01*
X148Y3450D01*
X148Y3454D01*
X150Y3454D01*
X150Y3456D01*
X152Y3456D01*
X152Y3460D01*
X154Y3460D01*
X154Y3462D01*
X156Y3462D01*
X156Y3464D01*
X158Y3464D01*
X158Y3466D01*
X160Y3466D01*
X160Y3468D01*
X162Y3468D01*
X162Y3470D01*
X166Y3470D01*
X166Y3472D01*
X168Y3472D01*
X168Y3474D01*
X172Y3474D01*
X172Y3476D01*
X176Y3476D01*
X176Y3478D01*
X180Y3478D01*
X180Y3480D01*
X188Y3480D01*
X188Y3482D01*
X40Y3482D01*
G37*
D02*
G36*
X212Y3482D02*
X212Y3480D01*
X220Y3480D01*
X220Y3478D01*
X224Y3478D01*
X224Y3476D01*
X228Y3476D01*
X228Y3474D01*
X232Y3474D01*
X232Y3472D01*
X234Y3472D01*
X234Y3470D01*
X238Y3470D01*
X238Y3468D01*
X240Y3468D01*
X240Y3466D01*
X242Y3466D01*
X242Y3464D01*
X244Y3464D01*
X244Y3462D01*
X246Y3462D01*
X246Y3460D01*
X248Y3460D01*
X248Y3458D01*
X250Y3458D01*
X250Y3454D01*
X252Y3454D01*
X252Y3450D01*
X254Y3450D01*
X254Y3446D01*
X256Y3446D01*
X256Y3442D01*
X258Y3442D01*
X258Y3434D01*
X260Y3434D01*
X260Y3410D01*
X258Y3410D01*
X258Y3402D01*
X256Y3402D01*
X256Y3398D01*
X254Y3398D01*
X254Y3394D01*
X252Y3394D01*
X252Y3390D01*
X250Y3390D01*
X250Y3386D01*
X248Y3386D01*
X248Y3384D01*
X246Y3384D01*
X246Y3382D01*
X244Y3382D01*
X244Y3380D01*
X242Y3380D01*
X242Y3378D01*
X240Y3378D01*
X240Y3376D01*
X238Y3376D01*
X238Y3374D01*
X234Y3374D01*
X234Y3372D01*
X232Y3372D01*
X232Y3370D01*
X228Y3370D01*
X228Y3368D01*
X224Y3368D01*
X224Y3366D01*
X220Y3366D01*
X220Y3364D01*
X212Y3364D01*
X212Y3362D01*
X3388Y3362D01*
X3388Y3364D01*
X3380Y3364D01*
X3380Y3366D01*
X3376Y3366D01*
X3376Y3368D01*
X3372Y3368D01*
X3372Y3370D01*
X3368Y3370D01*
X3368Y3372D01*
X3366Y3372D01*
X3366Y3374D01*
X3362Y3374D01*
X3362Y3376D01*
X3360Y3376D01*
X3360Y3378D01*
X3358Y3378D01*
X3358Y3380D01*
X3356Y3380D01*
X3356Y3382D01*
X3354Y3382D01*
X3354Y3384D01*
X3352Y3384D01*
X3352Y3388D01*
X3350Y3388D01*
X3350Y3390D01*
X3348Y3390D01*
X3348Y3394D01*
X3346Y3394D01*
X3346Y3398D01*
X3344Y3398D01*
X3344Y3402D01*
X3342Y3402D01*
X3342Y3410D01*
X3340Y3410D01*
X3340Y3434D01*
X3342Y3434D01*
X3342Y3442D01*
X3344Y3442D01*
X3344Y3446D01*
X3346Y3446D01*
X3346Y3450D01*
X3348Y3450D01*
X3348Y3454D01*
X3350Y3454D01*
X3350Y3456D01*
X3352Y3456D01*
X3352Y3460D01*
X3354Y3460D01*
X3354Y3462D01*
X3356Y3462D01*
X3356Y3464D01*
X3358Y3464D01*
X3358Y3466D01*
X3360Y3466D01*
X3360Y3468D01*
X3362Y3468D01*
X3362Y3470D01*
X3366Y3470D01*
X3366Y3472D01*
X3368Y3472D01*
X3368Y3474D01*
X3372Y3474D01*
X3372Y3476D01*
X3376Y3476D01*
X3376Y3478D01*
X3380Y3478D01*
X3380Y3480D01*
X3388Y3480D01*
X3388Y3482D01*
X212Y3482D01*
G37*
D02*
G36*
X40Y3362D02*
X40Y3360D01*
X3582Y3360D01*
X3582Y3362D01*
X40Y3362D01*
G37*
D02*
G36*
X40Y3362D02*
X40Y3360D01*
X3582Y3360D01*
X3582Y3362D01*
X40Y3362D01*
G37*
D02*
G36*
X40Y3362D02*
X40Y3360D01*
X3582Y3360D01*
X3582Y3362D01*
X40Y3362D01*
G37*
D02*
G36*
X40Y3360D02*
X40Y2578D01*
X2710Y2578D01*
X2710Y2576D01*
X2718Y2576D01*
X2718Y2574D01*
X2722Y2574D01*
X2722Y2572D01*
X2726Y2572D01*
X2726Y2570D01*
X2730Y2570D01*
X2730Y2568D01*
X2732Y2568D01*
X2732Y2566D01*
X2736Y2566D01*
X2736Y2564D01*
X2738Y2564D01*
X2738Y2562D01*
X2740Y2562D01*
X2740Y2560D01*
X2742Y2560D01*
X2742Y2558D01*
X2744Y2558D01*
X2744Y2554D01*
X2746Y2554D01*
X2746Y2552D01*
X2748Y2552D01*
X2748Y2548D01*
X2750Y2548D01*
X2750Y2544D01*
X2752Y2544D01*
X2752Y2540D01*
X2754Y2540D01*
X2754Y2532D01*
X2756Y2532D01*
X2756Y2512D01*
X2754Y2512D01*
X2754Y2504D01*
X2752Y2504D01*
X2752Y2500D01*
X2750Y2500D01*
X2750Y2496D01*
X2748Y2496D01*
X2748Y2492D01*
X2746Y2492D01*
X2746Y2490D01*
X2744Y2490D01*
X2744Y2486D01*
X2742Y2486D01*
X2742Y2484D01*
X2740Y2484D01*
X2740Y2482D01*
X2738Y2482D01*
X2738Y2480D01*
X2736Y2480D01*
X2736Y2478D01*
X2732Y2478D01*
X2732Y2476D01*
X2730Y2476D01*
X2730Y2474D01*
X2726Y2474D01*
X2726Y2472D01*
X2722Y2472D01*
X2722Y2470D01*
X2718Y2470D01*
X2718Y2468D01*
X2710Y2468D01*
X2710Y2466D01*
X3582Y2466D01*
X3582Y3360D01*
X40Y3360D01*
G37*
D02*
G36*
X40Y2578D02*
X40Y2466D01*
X2690Y2466D01*
X2690Y2468D01*
X2682Y2468D01*
X2682Y2470D01*
X2678Y2470D01*
X2678Y2472D01*
X2674Y2472D01*
X2674Y2474D01*
X2670Y2474D01*
X2670Y2476D01*
X2668Y2476D01*
X2668Y2478D01*
X2664Y2478D01*
X2664Y2480D01*
X2662Y2480D01*
X2662Y2482D01*
X2660Y2482D01*
X2660Y2484D01*
X2658Y2484D01*
X2658Y2486D01*
X2656Y2486D01*
X2656Y2490D01*
X2654Y2490D01*
X2654Y2492D01*
X2652Y2492D01*
X2652Y2496D01*
X2650Y2496D01*
X2650Y2500D01*
X2648Y2500D01*
X2648Y2504D01*
X2646Y2504D01*
X2646Y2512D01*
X2644Y2512D01*
X2644Y2532D01*
X2646Y2532D01*
X2646Y2540D01*
X2648Y2540D01*
X2648Y2544D01*
X2650Y2544D01*
X2650Y2548D01*
X2652Y2548D01*
X2652Y2552D01*
X2654Y2552D01*
X2654Y2554D01*
X2656Y2554D01*
X2656Y2558D01*
X2658Y2558D01*
X2658Y2560D01*
X2660Y2560D01*
X2660Y2562D01*
X2662Y2562D01*
X2662Y2564D01*
X2664Y2564D01*
X2664Y2566D01*
X2668Y2566D01*
X2668Y2568D01*
X2670Y2568D01*
X2670Y2570D01*
X2674Y2570D01*
X2674Y2572D01*
X2678Y2572D01*
X2678Y2574D01*
X2682Y2574D01*
X2682Y2576D01*
X2690Y2576D01*
X2690Y2578D01*
X40Y2578D01*
G37*
D02*
G36*
X40Y2466D02*
X40Y2464D01*
X3582Y2464D01*
X3582Y2466D01*
X40Y2466D01*
G37*
D02*
G36*
X40Y2466D02*
X40Y2464D01*
X3582Y2464D01*
X3582Y2466D01*
X40Y2466D01*
G37*
D02*
G36*
X40Y2464D02*
X40Y2378D01*
X3054Y2378D01*
X3054Y2376D01*
X3056Y2376D01*
X3056Y2266D01*
X3582Y2266D01*
X3582Y2464D01*
X40Y2464D01*
G37*
D02*
G36*
X40Y2378D02*
X40Y2266D01*
X490Y2266D01*
X490Y2268D01*
X482Y2268D01*
X482Y2270D01*
X478Y2270D01*
X478Y2272D01*
X474Y2272D01*
X474Y2274D01*
X470Y2274D01*
X470Y2276D01*
X468Y2276D01*
X468Y2278D01*
X464Y2278D01*
X464Y2280D01*
X462Y2280D01*
X462Y2282D01*
X460Y2282D01*
X460Y2284D01*
X458Y2284D01*
X458Y2286D01*
X456Y2286D01*
X456Y2290D01*
X454Y2290D01*
X454Y2292D01*
X452Y2292D01*
X452Y2296D01*
X450Y2296D01*
X450Y2300D01*
X448Y2300D01*
X448Y2304D01*
X446Y2304D01*
X446Y2312D01*
X444Y2312D01*
X444Y2332D01*
X446Y2332D01*
X446Y2340D01*
X448Y2340D01*
X448Y2344D01*
X450Y2344D01*
X450Y2348D01*
X452Y2348D01*
X452Y2352D01*
X454Y2352D01*
X454Y2354D01*
X456Y2354D01*
X456Y2358D01*
X458Y2358D01*
X458Y2360D01*
X460Y2360D01*
X460Y2362D01*
X462Y2362D01*
X462Y2364D01*
X464Y2364D01*
X464Y2366D01*
X468Y2366D01*
X468Y2368D01*
X470Y2368D01*
X470Y2370D01*
X474Y2370D01*
X474Y2372D01*
X478Y2372D01*
X478Y2374D01*
X482Y2374D01*
X482Y2376D01*
X490Y2376D01*
X490Y2378D01*
X40Y2378D01*
G37*
D02*
G36*
X510Y2378D02*
X510Y2376D01*
X518Y2376D01*
X518Y2374D01*
X522Y2374D01*
X522Y2372D01*
X526Y2372D01*
X526Y2370D01*
X530Y2370D01*
X530Y2368D01*
X532Y2368D01*
X532Y2366D01*
X536Y2366D01*
X536Y2364D01*
X538Y2364D01*
X538Y2362D01*
X540Y2362D01*
X540Y2360D01*
X542Y2360D01*
X542Y2358D01*
X544Y2358D01*
X544Y2354D01*
X546Y2354D01*
X546Y2352D01*
X548Y2352D01*
X548Y2348D01*
X550Y2348D01*
X550Y2344D01*
X552Y2344D01*
X552Y2340D01*
X554Y2340D01*
X554Y2332D01*
X556Y2332D01*
X556Y2312D01*
X554Y2312D01*
X554Y2304D01*
X552Y2304D01*
X552Y2300D01*
X550Y2300D01*
X550Y2296D01*
X548Y2296D01*
X548Y2292D01*
X546Y2292D01*
X546Y2290D01*
X544Y2290D01*
X544Y2286D01*
X542Y2286D01*
X542Y2284D01*
X540Y2284D01*
X540Y2282D01*
X538Y2282D01*
X538Y2280D01*
X536Y2280D01*
X536Y2278D01*
X532Y2278D01*
X532Y2276D01*
X530Y2276D01*
X530Y2274D01*
X526Y2274D01*
X526Y2272D01*
X522Y2272D01*
X522Y2270D01*
X518Y2270D01*
X518Y2268D01*
X510Y2268D01*
X510Y2266D01*
X690Y2266D01*
X690Y2268D01*
X682Y2268D01*
X682Y2270D01*
X678Y2270D01*
X678Y2272D01*
X674Y2272D01*
X674Y2274D01*
X670Y2274D01*
X670Y2276D01*
X668Y2276D01*
X668Y2278D01*
X664Y2278D01*
X664Y2280D01*
X662Y2280D01*
X662Y2282D01*
X660Y2282D01*
X660Y2284D01*
X658Y2284D01*
X658Y2286D01*
X656Y2286D01*
X656Y2290D01*
X654Y2290D01*
X654Y2292D01*
X652Y2292D01*
X652Y2296D01*
X650Y2296D01*
X650Y2300D01*
X648Y2300D01*
X648Y2304D01*
X646Y2304D01*
X646Y2312D01*
X644Y2312D01*
X644Y2332D01*
X646Y2332D01*
X646Y2340D01*
X648Y2340D01*
X648Y2344D01*
X650Y2344D01*
X650Y2348D01*
X652Y2348D01*
X652Y2352D01*
X654Y2352D01*
X654Y2354D01*
X656Y2354D01*
X656Y2358D01*
X658Y2358D01*
X658Y2360D01*
X660Y2360D01*
X660Y2362D01*
X662Y2362D01*
X662Y2364D01*
X664Y2364D01*
X664Y2366D01*
X668Y2366D01*
X668Y2368D01*
X670Y2368D01*
X670Y2370D01*
X674Y2370D01*
X674Y2372D01*
X678Y2372D01*
X678Y2374D01*
X682Y2374D01*
X682Y2376D01*
X690Y2376D01*
X690Y2378D01*
X510Y2378D01*
G37*
D02*
G36*
X710Y2378D02*
X710Y2376D01*
X718Y2376D01*
X718Y2374D01*
X722Y2374D01*
X722Y2372D01*
X726Y2372D01*
X726Y2370D01*
X730Y2370D01*
X730Y2368D01*
X732Y2368D01*
X732Y2366D01*
X736Y2366D01*
X736Y2364D01*
X738Y2364D01*
X738Y2362D01*
X740Y2362D01*
X740Y2360D01*
X742Y2360D01*
X742Y2358D01*
X744Y2358D01*
X744Y2354D01*
X746Y2354D01*
X746Y2352D01*
X748Y2352D01*
X748Y2348D01*
X750Y2348D01*
X750Y2344D01*
X752Y2344D01*
X752Y2340D01*
X754Y2340D01*
X754Y2332D01*
X756Y2332D01*
X756Y2312D01*
X754Y2312D01*
X754Y2304D01*
X752Y2304D01*
X752Y2300D01*
X750Y2300D01*
X750Y2296D01*
X748Y2296D01*
X748Y2292D01*
X746Y2292D01*
X746Y2290D01*
X744Y2290D01*
X744Y2286D01*
X742Y2286D01*
X742Y2284D01*
X740Y2284D01*
X740Y2282D01*
X738Y2282D01*
X738Y2280D01*
X736Y2280D01*
X736Y2278D01*
X732Y2278D01*
X732Y2276D01*
X730Y2276D01*
X730Y2274D01*
X726Y2274D01*
X726Y2272D01*
X722Y2272D01*
X722Y2270D01*
X718Y2270D01*
X718Y2268D01*
X710Y2268D01*
X710Y2266D01*
X844Y2266D01*
X844Y2378D01*
X710Y2378D01*
G37*
D02*
G36*
X956Y2378D02*
X956Y2266D01*
X1190Y2266D01*
X1190Y2268D01*
X1182Y2268D01*
X1182Y2270D01*
X1178Y2270D01*
X1178Y2272D01*
X1174Y2272D01*
X1174Y2274D01*
X1170Y2274D01*
X1170Y2276D01*
X1168Y2276D01*
X1168Y2278D01*
X1164Y2278D01*
X1164Y2280D01*
X1162Y2280D01*
X1162Y2282D01*
X1160Y2282D01*
X1160Y2284D01*
X1158Y2284D01*
X1158Y2286D01*
X1156Y2286D01*
X1156Y2290D01*
X1154Y2290D01*
X1154Y2292D01*
X1152Y2292D01*
X1152Y2296D01*
X1150Y2296D01*
X1150Y2300D01*
X1148Y2300D01*
X1148Y2304D01*
X1146Y2304D01*
X1146Y2312D01*
X1144Y2312D01*
X1144Y2332D01*
X1146Y2332D01*
X1146Y2340D01*
X1148Y2340D01*
X1148Y2344D01*
X1150Y2344D01*
X1150Y2348D01*
X1152Y2348D01*
X1152Y2352D01*
X1154Y2352D01*
X1154Y2354D01*
X1156Y2354D01*
X1156Y2358D01*
X1158Y2358D01*
X1158Y2360D01*
X1160Y2360D01*
X1160Y2362D01*
X1162Y2362D01*
X1162Y2364D01*
X1164Y2364D01*
X1164Y2366D01*
X1168Y2366D01*
X1168Y2368D01*
X1170Y2368D01*
X1170Y2370D01*
X1174Y2370D01*
X1174Y2372D01*
X1178Y2372D01*
X1178Y2374D01*
X1182Y2374D01*
X1182Y2376D01*
X1190Y2376D01*
X1190Y2378D01*
X956Y2378D01*
G37*
D02*
G36*
X1210Y2378D02*
X1210Y2376D01*
X1218Y2376D01*
X1218Y2374D01*
X1222Y2374D01*
X1222Y2372D01*
X1226Y2372D01*
X1226Y2370D01*
X1230Y2370D01*
X1230Y2368D01*
X1232Y2368D01*
X1232Y2366D01*
X1236Y2366D01*
X1236Y2364D01*
X1238Y2364D01*
X1238Y2362D01*
X1240Y2362D01*
X1240Y2360D01*
X1242Y2360D01*
X1242Y2358D01*
X1244Y2358D01*
X1244Y2354D01*
X1246Y2354D01*
X1246Y2352D01*
X1248Y2352D01*
X1248Y2348D01*
X1250Y2348D01*
X1250Y2344D01*
X1252Y2344D01*
X1252Y2340D01*
X1254Y2340D01*
X1254Y2332D01*
X1256Y2332D01*
X1256Y2312D01*
X1254Y2312D01*
X1254Y2304D01*
X1252Y2304D01*
X1252Y2300D01*
X1250Y2300D01*
X1250Y2296D01*
X1248Y2296D01*
X1248Y2292D01*
X1246Y2292D01*
X1246Y2290D01*
X1244Y2290D01*
X1244Y2286D01*
X1242Y2286D01*
X1242Y2284D01*
X1240Y2284D01*
X1240Y2282D01*
X1238Y2282D01*
X1238Y2280D01*
X1236Y2280D01*
X1236Y2278D01*
X1232Y2278D01*
X1232Y2276D01*
X1230Y2276D01*
X1230Y2274D01*
X1226Y2274D01*
X1226Y2272D01*
X1222Y2272D01*
X1222Y2270D01*
X1218Y2270D01*
X1218Y2268D01*
X1210Y2268D01*
X1210Y2266D01*
X1390Y2266D01*
X1390Y2268D01*
X1382Y2268D01*
X1382Y2270D01*
X1378Y2270D01*
X1378Y2272D01*
X1374Y2272D01*
X1374Y2274D01*
X1370Y2274D01*
X1370Y2276D01*
X1368Y2276D01*
X1368Y2278D01*
X1364Y2278D01*
X1364Y2280D01*
X1362Y2280D01*
X1362Y2282D01*
X1360Y2282D01*
X1360Y2284D01*
X1358Y2284D01*
X1358Y2286D01*
X1356Y2286D01*
X1356Y2290D01*
X1354Y2290D01*
X1354Y2292D01*
X1352Y2292D01*
X1352Y2296D01*
X1350Y2296D01*
X1350Y2300D01*
X1348Y2300D01*
X1348Y2304D01*
X1346Y2304D01*
X1346Y2312D01*
X1344Y2312D01*
X1344Y2332D01*
X1346Y2332D01*
X1346Y2340D01*
X1348Y2340D01*
X1348Y2344D01*
X1350Y2344D01*
X1350Y2348D01*
X1352Y2348D01*
X1352Y2352D01*
X1354Y2352D01*
X1354Y2354D01*
X1356Y2354D01*
X1356Y2358D01*
X1358Y2358D01*
X1358Y2360D01*
X1360Y2360D01*
X1360Y2362D01*
X1362Y2362D01*
X1362Y2364D01*
X1364Y2364D01*
X1364Y2366D01*
X1368Y2366D01*
X1368Y2368D01*
X1370Y2368D01*
X1370Y2370D01*
X1374Y2370D01*
X1374Y2372D01*
X1378Y2372D01*
X1378Y2374D01*
X1382Y2374D01*
X1382Y2376D01*
X1390Y2376D01*
X1390Y2378D01*
X1210Y2378D01*
G37*
D02*
G36*
X1410Y2378D02*
X1410Y2376D01*
X1418Y2376D01*
X1418Y2374D01*
X1422Y2374D01*
X1422Y2372D01*
X1426Y2372D01*
X1426Y2370D01*
X1430Y2370D01*
X1430Y2368D01*
X1432Y2368D01*
X1432Y2366D01*
X1436Y2366D01*
X1436Y2364D01*
X1438Y2364D01*
X1438Y2362D01*
X1440Y2362D01*
X1440Y2360D01*
X1442Y2360D01*
X1442Y2358D01*
X1444Y2358D01*
X1444Y2354D01*
X1446Y2354D01*
X1446Y2352D01*
X1448Y2352D01*
X1448Y2348D01*
X1450Y2348D01*
X1450Y2344D01*
X1452Y2344D01*
X1452Y2340D01*
X1454Y2340D01*
X1454Y2332D01*
X1456Y2332D01*
X1456Y2312D01*
X1454Y2312D01*
X1454Y2304D01*
X1452Y2304D01*
X1452Y2300D01*
X1450Y2300D01*
X1450Y2296D01*
X1448Y2296D01*
X1448Y2292D01*
X1446Y2292D01*
X1446Y2290D01*
X1444Y2290D01*
X1444Y2286D01*
X1442Y2286D01*
X1442Y2284D01*
X1440Y2284D01*
X1440Y2282D01*
X1438Y2282D01*
X1438Y2280D01*
X1436Y2280D01*
X1436Y2278D01*
X1432Y2278D01*
X1432Y2276D01*
X1430Y2276D01*
X1430Y2274D01*
X1426Y2274D01*
X1426Y2272D01*
X1422Y2272D01*
X1422Y2270D01*
X1418Y2270D01*
X1418Y2268D01*
X1410Y2268D01*
X1410Y2266D01*
X1544Y2266D01*
X1544Y2378D01*
X1410Y2378D01*
G37*
D02*
G36*
X1656Y2378D02*
X1656Y2266D01*
X1890Y2266D01*
X1890Y2268D01*
X1882Y2268D01*
X1882Y2270D01*
X1878Y2270D01*
X1878Y2272D01*
X1874Y2272D01*
X1874Y2274D01*
X1870Y2274D01*
X1870Y2276D01*
X1868Y2276D01*
X1868Y2278D01*
X1864Y2278D01*
X1864Y2280D01*
X1862Y2280D01*
X1862Y2282D01*
X1860Y2282D01*
X1860Y2284D01*
X1858Y2284D01*
X1858Y2286D01*
X1856Y2286D01*
X1856Y2290D01*
X1854Y2290D01*
X1854Y2292D01*
X1852Y2292D01*
X1852Y2296D01*
X1850Y2296D01*
X1850Y2300D01*
X1848Y2300D01*
X1848Y2304D01*
X1846Y2304D01*
X1846Y2312D01*
X1844Y2312D01*
X1844Y2332D01*
X1846Y2332D01*
X1846Y2340D01*
X1848Y2340D01*
X1848Y2344D01*
X1850Y2344D01*
X1850Y2348D01*
X1852Y2348D01*
X1852Y2352D01*
X1854Y2352D01*
X1854Y2354D01*
X1856Y2354D01*
X1856Y2358D01*
X1858Y2358D01*
X1858Y2360D01*
X1860Y2360D01*
X1860Y2362D01*
X1862Y2362D01*
X1862Y2364D01*
X1864Y2364D01*
X1864Y2366D01*
X1868Y2366D01*
X1868Y2368D01*
X1870Y2368D01*
X1870Y2370D01*
X1874Y2370D01*
X1874Y2372D01*
X1878Y2372D01*
X1878Y2374D01*
X1882Y2374D01*
X1882Y2376D01*
X1890Y2376D01*
X1890Y2378D01*
X1656Y2378D01*
G37*
D02*
G36*
X1910Y2378D02*
X1910Y2376D01*
X1918Y2376D01*
X1918Y2374D01*
X1922Y2374D01*
X1922Y2372D01*
X1926Y2372D01*
X1926Y2370D01*
X1930Y2370D01*
X1930Y2368D01*
X1932Y2368D01*
X1932Y2366D01*
X1936Y2366D01*
X1936Y2364D01*
X1938Y2364D01*
X1938Y2362D01*
X1940Y2362D01*
X1940Y2360D01*
X1942Y2360D01*
X1942Y2358D01*
X1944Y2358D01*
X1944Y2354D01*
X1946Y2354D01*
X1946Y2352D01*
X1948Y2352D01*
X1948Y2348D01*
X1950Y2348D01*
X1950Y2344D01*
X1952Y2344D01*
X1952Y2340D01*
X1954Y2340D01*
X1954Y2332D01*
X1956Y2332D01*
X1956Y2312D01*
X1954Y2312D01*
X1954Y2304D01*
X1952Y2304D01*
X1952Y2300D01*
X1950Y2300D01*
X1950Y2296D01*
X1948Y2296D01*
X1948Y2292D01*
X1946Y2292D01*
X1946Y2290D01*
X1944Y2290D01*
X1944Y2286D01*
X1942Y2286D01*
X1942Y2284D01*
X1940Y2284D01*
X1940Y2282D01*
X1938Y2282D01*
X1938Y2280D01*
X1936Y2280D01*
X1936Y2278D01*
X1932Y2278D01*
X1932Y2276D01*
X1930Y2276D01*
X1930Y2274D01*
X1926Y2274D01*
X1926Y2272D01*
X1922Y2272D01*
X1922Y2270D01*
X1918Y2270D01*
X1918Y2268D01*
X1910Y2268D01*
X1910Y2266D01*
X2090Y2266D01*
X2090Y2268D01*
X2082Y2268D01*
X2082Y2270D01*
X2078Y2270D01*
X2078Y2272D01*
X2074Y2272D01*
X2074Y2274D01*
X2070Y2274D01*
X2070Y2276D01*
X2068Y2276D01*
X2068Y2278D01*
X2064Y2278D01*
X2064Y2280D01*
X2062Y2280D01*
X2062Y2282D01*
X2060Y2282D01*
X2060Y2284D01*
X2058Y2284D01*
X2058Y2286D01*
X2056Y2286D01*
X2056Y2290D01*
X2054Y2290D01*
X2054Y2292D01*
X2052Y2292D01*
X2052Y2296D01*
X2050Y2296D01*
X2050Y2300D01*
X2048Y2300D01*
X2048Y2304D01*
X2046Y2304D01*
X2046Y2312D01*
X2044Y2312D01*
X2044Y2332D01*
X2046Y2332D01*
X2046Y2340D01*
X2048Y2340D01*
X2048Y2344D01*
X2050Y2344D01*
X2050Y2348D01*
X2052Y2348D01*
X2052Y2352D01*
X2054Y2352D01*
X2054Y2354D01*
X2056Y2354D01*
X2056Y2358D01*
X2058Y2358D01*
X2058Y2360D01*
X2060Y2360D01*
X2060Y2362D01*
X2062Y2362D01*
X2062Y2364D01*
X2064Y2364D01*
X2064Y2366D01*
X2068Y2366D01*
X2068Y2368D01*
X2070Y2368D01*
X2070Y2370D01*
X2074Y2370D01*
X2074Y2372D01*
X2078Y2372D01*
X2078Y2374D01*
X2082Y2374D01*
X2082Y2376D01*
X2090Y2376D01*
X2090Y2378D01*
X1910Y2378D01*
G37*
D02*
G36*
X2110Y2378D02*
X2110Y2376D01*
X2118Y2376D01*
X2118Y2374D01*
X2122Y2374D01*
X2122Y2372D01*
X2126Y2372D01*
X2126Y2370D01*
X2130Y2370D01*
X2130Y2368D01*
X2132Y2368D01*
X2132Y2366D01*
X2136Y2366D01*
X2136Y2364D01*
X2138Y2364D01*
X2138Y2362D01*
X2140Y2362D01*
X2140Y2360D01*
X2142Y2360D01*
X2142Y2358D01*
X2144Y2358D01*
X2144Y2354D01*
X2146Y2354D01*
X2146Y2352D01*
X2148Y2352D01*
X2148Y2348D01*
X2150Y2348D01*
X2150Y2344D01*
X2152Y2344D01*
X2152Y2340D01*
X2154Y2340D01*
X2154Y2332D01*
X2156Y2332D01*
X2156Y2312D01*
X2154Y2312D01*
X2154Y2304D01*
X2152Y2304D01*
X2152Y2300D01*
X2150Y2300D01*
X2150Y2296D01*
X2148Y2296D01*
X2148Y2292D01*
X2146Y2292D01*
X2146Y2290D01*
X2144Y2290D01*
X2144Y2286D01*
X2142Y2286D01*
X2142Y2284D01*
X2140Y2284D01*
X2140Y2282D01*
X2138Y2282D01*
X2138Y2280D01*
X2136Y2280D01*
X2136Y2278D01*
X2132Y2278D01*
X2132Y2276D01*
X2130Y2276D01*
X2130Y2274D01*
X2126Y2274D01*
X2126Y2272D01*
X2122Y2272D01*
X2122Y2270D01*
X2118Y2270D01*
X2118Y2268D01*
X2110Y2268D01*
X2110Y2266D01*
X2244Y2266D01*
X2244Y2378D01*
X2110Y2378D01*
G37*
D02*
G36*
X2356Y2378D02*
X2356Y2266D01*
X2586Y2266D01*
X2586Y2268D01*
X2580Y2268D01*
X2580Y2270D01*
X2576Y2270D01*
X2576Y2272D01*
X2572Y2272D01*
X2572Y2274D01*
X2568Y2274D01*
X2568Y2276D01*
X2566Y2276D01*
X2566Y2278D01*
X2564Y2278D01*
X2564Y2280D01*
X2560Y2280D01*
X2560Y2282D01*
X2558Y2282D01*
X2558Y2286D01*
X2556Y2286D01*
X2556Y2288D01*
X2554Y2288D01*
X2554Y2290D01*
X2552Y2290D01*
X2552Y2294D01*
X2550Y2294D01*
X2550Y2298D01*
X2548Y2298D01*
X2548Y2302D01*
X2546Y2302D01*
X2546Y2308D01*
X2544Y2308D01*
X2544Y2334D01*
X2546Y2334D01*
X2546Y2342D01*
X2548Y2342D01*
X2548Y2346D01*
X2550Y2346D01*
X2550Y2350D01*
X2552Y2350D01*
X2552Y2352D01*
X2554Y2352D01*
X2554Y2356D01*
X2556Y2356D01*
X2556Y2358D01*
X2558Y2358D01*
X2558Y2360D01*
X2560Y2360D01*
X2560Y2362D01*
X2562Y2362D01*
X2562Y2364D01*
X2564Y2364D01*
X2564Y2366D01*
X2568Y2366D01*
X2568Y2368D01*
X2570Y2368D01*
X2570Y2370D01*
X2574Y2370D01*
X2574Y2372D01*
X2578Y2372D01*
X2578Y2374D01*
X2584Y2374D01*
X2584Y2376D01*
X2594Y2376D01*
X2594Y2378D01*
X2356Y2378D01*
G37*
D02*
G36*
X2604Y2378D02*
X2604Y2376D01*
X2614Y2376D01*
X2614Y2374D01*
X2620Y2374D01*
X2620Y2372D01*
X2624Y2372D01*
X2624Y2370D01*
X2628Y2370D01*
X2628Y2368D01*
X2632Y2368D01*
X2632Y2366D01*
X2634Y2366D01*
X2634Y2364D01*
X2636Y2364D01*
X2636Y2362D01*
X2638Y2362D01*
X2638Y2360D01*
X2640Y2360D01*
X2640Y2358D01*
X2642Y2358D01*
X2642Y2356D01*
X2644Y2356D01*
X2644Y2354D01*
X2646Y2354D01*
X2646Y2350D01*
X2648Y2350D01*
X2648Y2346D01*
X2650Y2346D01*
X2650Y2342D01*
X2652Y2342D01*
X2652Y2336D01*
X2654Y2336D01*
X2654Y2326D01*
X2656Y2326D01*
X2656Y2316D01*
X2654Y2316D01*
X2654Y2306D01*
X2652Y2306D01*
X2652Y2300D01*
X2650Y2300D01*
X2650Y2296D01*
X2648Y2296D01*
X2648Y2292D01*
X2646Y2292D01*
X2646Y2290D01*
X2644Y2290D01*
X2644Y2286D01*
X2642Y2286D01*
X2642Y2284D01*
X2640Y2284D01*
X2640Y2282D01*
X2638Y2282D01*
X2638Y2280D01*
X2636Y2280D01*
X2636Y2278D01*
X2634Y2278D01*
X2634Y2276D01*
X2630Y2276D01*
X2630Y2274D01*
X2626Y2274D01*
X2626Y2272D01*
X2624Y2272D01*
X2624Y2270D01*
X2618Y2270D01*
X2618Y2268D01*
X2612Y2268D01*
X2612Y2266D01*
X2786Y2266D01*
X2786Y2268D01*
X2780Y2268D01*
X2780Y2270D01*
X2776Y2270D01*
X2776Y2272D01*
X2772Y2272D01*
X2772Y2274D01*
X2768Y2274D01*
X2768Y2276D01*
X2766Y2276D01*
X2766Y2278D01*
X2764Y2278D01*
X2764Y2280D01*
X2760Y2280D01*
X2760Y2282D01*
X2758Y2282D01*
X2758Y2286D01*
X2756Y2286D01*
X2756Y2288D01*
X2754Y2288D01*
X2754Y2290D01*
X2752Y2290D01*
X2752Y2294D01*
X2750Y2294D01*
X2750Y2298D01*
X2748Y2298D01*
X2748Y2302D01*
X2746Y2302D01*
X2746Y2308D01*
X2744Y2308D01*
X2744Y2334D01*
X2746Y2334D01*
X2746Y2342D01*
X2748Y2342D01*
X2748Y2346D01*
X2750Y2346D01*
X2750Y2350D01*
X2752Y2350D01*
X2752Y2352D01*
X2754Y2352D01*
X2754Y2356D01*
X2756Y2356D01*
X2756Y2358D01*
X2758Y2358D01*
X2758Y2360D01*
X2760Y2360D01*
X2760Y2362D01*
X2762Y2362D01*
X2762Y2364D01*
X2764Y2364D01*
X2764Y2366D01*
X2768Y2366D01*
X2768Y2368D01*
X2770Y2368D01*
X2770Y2370D01*
X2774Y2370D01*
X2774Y2372D01*
X2778Y2372D01*
X2778Y2374D01*
X2784Y2374D01*
X2784Y2376D01*
X2794Y2376D01*
X2794Y2378D01*
X2604Y2378D01*
G37*
D02*
G36*
X2804Y2378D02*
X2804Y2376D01*
X2814Y2376D01*
X2814Y2374D01*
X2820Y2374D01*
X2820Y2372D01*
X2824Y2372D01*
X2824Y2370D01*
X2828Y2370D01*
X2828Y2368D01*
X2832Y2368D01*
X2832Y2366D01*
X2834Y2366D01*
X2834Y2364D01*
X2836Y2364D01*
X2836Y2362D01*
X2838Y2362D01*
X2838Y2360D01*
X2840Y2360D01*
X2840Y2358D01*
X2842Y2358D01*
X2842Y2356D01*
X2844Y2356D01*
X2844Y2354D01*
X2846Y2354D01*
X2846Y2350D01*
X2848Y2350D01*
X2848Y2346D01*
X2850Y2346D01*
X2850Y2342D01*
X2852Y2342D01*
X2852Y2336D01*
X2854Y2336D01*
X2854Y2326D01*
X2856Y2326D01*
X2856Y2316D01*
X2854Y2316D01*
X2854Y2306D01*
X2852Y2306D01*
X2852Y2300D01*
X2850Y2300D01*
X2850Y2296D01*
X2848Y2296D01*
X2848Y2292D01*
X2846Y2292D01*
X2846Y2290D01*
X2844Y2290D01*
X2844Y2286D01*
X2842Y2286D01*
X2842Y2284D01*
X2840Y2284D01*
X2840Y2282D01*
X2838Y2282D01*
X2838Y2280D01*
X2836Y2280D01*
X2836Y2278D01*
X2834Y2278D01*
X2834Y2276D01*
X2830Y2276D01*
X2830Y2274D01*
X2826Y2274D01*
X2826Y2272D01*
X2824Y2272D01*
X2824Y2270D01*
X2818Y2270D01*
X2818Y2268D01*
X2812Y2268D01*
X2812Y2266D01*
X2944Y2266D01*
X2944Y2378D01*
X2804Y2378D01*
G37*
D02*
G36*
X40Y2266D02*
X40Y2264D01*
X3582Y2264D01*
X3582Y2266D01*
X40Y2266D01*
G37*
D02*
G36*
X40Y2266D02*
X40Y2264D01*
X3582Y2264D01*
X3582Y2266D01*
X40Y2266D01*
G37*
D02*
G36*
X40Y2266D02*
X40Y2264D01*
X3582Y2264D01*
X3582Y2266D01*
X40Y2266D01*
G37*
D02*
G36*
X40Y2266D02*
X40Y2264D01*
X3582Y2264D01*
X3582Y2266D01*
X40Y2266D01*
G37*
D02*
G36*
X40Y2266D02*
X40Y2264D01*
X3582Y2264D01*
X3582Y2266D01*
X40Y2266D01*
G37*
D02*
G36*
X40Y2266D02*
X40Y2264D01*
X3582Y2264D01*
X3582Y2266D01*
X40Y2266D01*
G37*
D02*
G36*
X40Y2266D02*
X40Y2264D01*
X3582Y2264D01*
X3582Y2266D01*
X40Y2266D01*
G37*
D02*
G36*
X40Y2266D02*
X40Y2264D01*
X3582Y2264D01*
X3582Y2266D01*
X40Y2266D01*
G37*
D02*
G36*
X40Y2266D02*
X40Y2264D01*
X3582Y2264D01*
X3582Y2266D01*
X40Y2266D01*
G37*
D02*
G36*
X40Y2266D02*
X40Y2264D01*
X3582Y2264D01*
X3582Y2266D01*
X40Y2266D01*
G37*
D02*
G36*
X40Y2266D02*
X40Y2264D01*
X3582Y2264D01*
X3582Y2266D01*
X40Y2266D01*
G37*
D02*
G36*
X40Y2266D02*
X40Y2264D01*
X3582Y2264D01*
X3582Y2266D01*
X40Y2266D01*
G37*
D02*
G36*
X40Y2266D02*
X40Y2264D01*
X3582Y2264D01*
X3582Y2266D01*
X40Y2266D01*
G37*
D02*
G36*
X40Y2264D02*
X40Y2242D01*
X2306Y2242D01*
X2306Y2240D01*
X3014Y2240D01*
X3014Y2238D01*
X3022Y2238D01*
X3022Y2236D01*
X3028Y2236D01*
X3028Y2234D01*
X3032Y2234D01*
X3032Y2232D01*
X3034Y2232D01*
X3034Y2230D01*
X3038Y2230D01*
X3038Y2228D01*
X3040Y2228D01*
X3040Y2226D01*
X3044Y2226D01*
X3044Y2224D01*
X3046Y2224D01*
X3046Y2222D01*
X3048Y2222D01*
X3048Y2220D01*
X3050Y2220D01*
X3050Y2218D01*
X3052Y2218D01*
X3052Y2216D01*
X3054Y2216D01*
X3054Y2214D01*
X3056Y2214D01*
X3056Y2210D01*
X3058Y2210D01*
X3058Y2208D01*
X3060Y2208D01*
X3060Y2204D01*
X3062Y2204D01*
X3062Y2200D01*
X3064Y2200D01*
X3064Y2196D01*
X3066Y2196D01*
X3066Y2190D01*
X3068Y2190D01*
X3068Y2180D01*
X3070Y2180D01*
X3070Y2160D01*
X3068Y2160D01*
X3068Y2150D01*
X3066Y2150D01*
X3066Y2144D01*
X3064Y2144D01*
X3064Y2140D01*
X3062Y2140D01*
X3062Y2136D01*
X3060Y2136D01*
X3060Y2132D01*
X3058Y2132D01*
X3058Y2130D01*
X3056Y2130D01*
X3056Y2128D01*
X3054Y2128D01*
X3054Y2124D01*
X3052Y2124D01*
X3052Y2122D01*
X3050Y2122D01*
X3050Y2120D01*
X3048Y2120D01*
X3048Y2098D01*
X3050Y2098D01*
X3050Y2096D01*
X3052Y2096D01*
X3052Y2094D01*
X3054Y2094D01*
X3054Y2092D01*
X3056Y2092D01*
X3056Y2088D01*
X3058Y2088D01*
X3058Y2086D01*
X3060Y2086D01*
X3060Y2082D01*
X3062Y2082D01*
X3062Y2078D01*
X3064Y2078D01*
X3064Y2074D01*
X3066Y2074D01*
X3066Y2068D01*
X3068Y2068D01*
X3068Y2058D01*
X3070Y2058D01*
X3070Y2038D01*
X3068Y2038D01*
X3068Y2028D01*
X3066Y2028D01*
X3066Y2022D01*
X3064Y2022D01*
X3064Y2018D01*
X3062Y2018D01*
X3062Y2014D01*
X3060Y2014D01*
X3060Y2010D01*
X3058Y2010D01*
X3058Y2008D01*
X3056Y2008D01*
X3056Y2006D01*
X3054Y2006D01*
X3054Y2002D01*
X3052Y2002D01*
X3052Y1982D01*
X3054Y1982D01*
X3054Y1980D01*
X3056Y1980D01*
X3056Y1978D01*
X3058Y1978D01*
X3058Y1976D01*
X3060Y1976D01*
X3060Y1974D01*
X3062Y1974D01*
X3062Y1972D01*
X3064Y1972D01*
X3064Y1968D01*
X3066Y1968D01*
X3066Y1966D01*
X3068Y1966D01*
X3068Y1962D01*
X3070Y1962D01*
X3070Y1958D01*
X3072Y1958D01*
X3072Y1954D01*
X3074Y1954D01*
X3074Y1950D01*
X3076Y1950D01*
X3076Y1944D01*
X3078Y1944D01*
X3078Y1934D01*
X3080Y1934D01*
X3080Y1910D01*
X3078Y1910D01*
X3078Y1900D01*
X3076Y1900D01*
X3076Y1894D01*
X3074Y1894D01*
X3074Y1890D01*
X3072Y1890D01*
X3072Y1886D01*
X3070Y1886D01*
X3070Y1882D01*
X3068Y1882D01*
X3068Y1878D01*
X3066Y1878D01*
X3066Y1876D01*
X3064Y1876D01*
X3064Y1872D01*
X3062Y1872D01*
X3062Y1870D01*
X3060Y1870D01*
X3060Y1868D01*
X3058Y1868D01*
X3058Y1866D01*
X3056Y1866D01*
X3056Y1864D01*
X3054Y1864D01*
X3054Y1860D01*
X3050Y1860D01*
X3050Y1858D01*
X3048Y1858D01*
X3048Y1856D01*
X3046Y1856D01*
X3046Y1854D01*
X3044Y1854D01*
X3044Y1852D01*
X3040Y1852D01*
X3040Y1850D01*
X3038Y1850D01*
X3038Y1848D01*
X3034Y1848D01*
X3034Y1846D01*
X3030Y1846D01*
X3030Y1844D01*
X3024Y1844D01*
X3024Y1842D01*
X3016Y1842D01*
X3016Y1840D01*
X3582Y1840D01*
X3582Y2264D01*
X40Y2264D01*
G37*
D02*
G36*
X40Y2242D02*
X40Y1840D01*
X886Y1840D01*
X886Y1842D01*
X878Y1842D01*
X878Y1844D01*
X872Y1844D01*
X872Y1846D01*
X868Y1846D01*
X868Y1848D01*
X864Y1848D01*
X864Y1850D01*
X860Y1850D01*
X860Y1852D01*
X858Y1852D01*
X858Y1854D01*
X854Y1854D01*
X854Y1856D01*
X852Y1856D01*
X852Y1858D01*
X850Y1858D01*
X850Y1860D01*
X848Y1860D01*
X848Y1862D01*
X846Y1862D01*
X846Y1864D01*
X844Y1864D01*
X844Y1866D01*
X842Y1866D01*
X842Y1868D01*
X840Y1868D01*
X840Y1870D01*
X838Y1870D01*
X838Y1872D01*
X836Y1872D01*
X836Y1876D01*
X834Y1876D01*
X834Y1878D01*
X832Y1878D01*
X832Y1882D01*
X830Y1882D01*
X830Y1886D01*
X828Y1886D01*
X828Y1890D01*
X826Y1890D01*
X826Y1894D01*
X824Y1894D01*
X824Y1900D01*
X822Y1900D01*
X822Y1910D01*
X820Y1910D01*
X820Y1934D01*
X822Y1934D01*
X822Y1944D01*
X824Y1944D01*
X824Y1950D01*
X826Y1950D01*
X826Y1954D01*
X828Y1954D01*
X828Y1958D01*
X830Y1958D01*
X830Y1962D01*
X832Y1962D01*
X832Y1966D01*
X834Y1966D01*
X834Y1968D01*
X836Y1968D01*
X836Y1972D01*
X838Y1972D01*
X838Y1974D01*
X840Y1974D01*
X840Y1976D01*
X842Y1976D01*
X842Y1978D01*
X844Y1978D01*
X844Y1980D01*
X846Y1980D01*
X846Y1982D01*
X848Y1982D01*
X848Y2002D01*
X846Y2002D01*
X846Y2004D01*
X844Y2004D01*
X844Y2008D01*
X842Y2008D01*
X842Y2010D01*
X840Y2010D01*
X840Y2014D01*
X838Y2014D01*
X838Y2018D01*
X836Y2018D01*
X836Y2022D01*
X834Y2022D01*
X834Y2028D01*
X832Y2028D01*
X832Y2036D01*
X830Y2036D01*
X830Y2062D01*
X832Y2062D01*
X832Y2070D01*
X834Y2070D01*
X834Y2076D01*
X836Y2076D01*
X836Y2080D01*
X838Y2080D01*
X838Y2084D01*
X840Y2084D01*
X840Y2088D01*
X842Y2088D01*
X842Y2090D01*
X844Y2090D01*
X844Y2092D01*
X846Y2092D01*
X846Y2096D01*
X848Y2096D01*
X848Y2098D01*
X850Y2098D01*
X850Y2100D01*
X852Y2100D01*
X852Y2120D01*
X850Y2120D01*
X850Y2122D01*
X848Y2122D01*
X848Y2124D01*
X846Y2124D01*
X846Y2126D01*
X844Y2126D01*
X844Y2130D01*
X842Y2130D01*
X842Y2132D01*
X840Y2132D01*
X840Y2136D01*
X838Y2136D01*
X838Y2140D01*
X836Y2140D01*
X836Y2144D01*
X834Y2144D01*
X834Y2150D01*
X832Y2150D01*
X832Y2158D01*
X830Y2158D01*
X830Y2184D01*
X832Y2184D01*
X832Y2192D01*
X834Y2192D01*
X834Y2198D01*
X836Y2198D01*
X836Y2202D01*
X838Y2202D01*
X838Y2206D01*
X840Y2206D01*
X840Y2210D01*
X842Y2210D01*
X842Y2212D01*
X844Y2212D01*
X844Y2214D01*
X846Y2214D01*
X846Y2218D01*
X848Y2218D01*
X848Y2220D01*
X850Y2220D01*
X850Y2222D01*
X852Y2222D01*
X852Y2224D01*
X854Y2224D01*
X854Y2226D01*
X858Y2226D01*
X858Y2228D01*
X860Y2228D01*
X860Y2230D01*
X864Y2230D01*
X864Y2232D01*
X866Y2232D01*
X866Y2234D01*
X870Y2234D01*
X870Y2236D01*
X876Y2236D01*
X876Y2238D01*
X882Y2238D01*
X882Y2240D01*
X894Y2240D01*
X894Y2242D01*
X40Y2242D01*
G37*
D02*
G36*
X906Y2242D02*
X906Y2240D01*
X918Y2240D01*
X918Y2238D01*
X924Y2238D01*
X924Y2236D01*
X930Y2236D01*
X930Y2234D01*
X934Y2234D01*
X934Y2232D01*
X936Y2232D01*
X936Y2230D01*
X940Y2230D01*
X940Y2228D01*
X942Y2228D01*
X942Y2226D01*
X946Y2226D01*
X946Y2224D01*
X948Y2224D01*
X948Y2222D01*
X950Y2222D01*
X950Y2220D01*
X952Y2220D01*
X952Y2218D01*
X954Y2218D01*
X954Y2214D01*
X956Y2214D01*
X956Y2212D01*
X958Y2212D01*
X958Y2210D01*
X960Y2210D01*
X960Y2206D01*
X962Y2206D01*
X962Y2202D01*
X964Y2202D01*
X964Y2198D01*
X966Y2198D01*
X966Y2192D01*
X968Y2192D01*
X968Y2184D01*
X970Y2184D01*
X970Y2156D01*
X968Y2156D01*
X968Y2148D01*
X966Y2148D01*
X966Y2144D01*
X964Y2144D01*
X964Y2140D01*
X962Y2140D01*
X962Y2136D01*
X960Y2136D01*
X960Y2132D01*
X958Y2132D01*
X958Y2130D01*
X956Y2130D01*
X956Y2126D01*
X954Y2126D01*
X954Y2124D01*
X952Y2124D01*
X952Y2122D01*
X950Y2122D01*
X950Y2120D01*
X948Y2120D01*
X948Y2100D01*
X950Y2100D01*
X950Y2098D01*
X952Y2098D01*
X952Y2096D01*
X954Y2096D01*
X954Y2092D01*
X956Y2092D01*
X956Y2090D01*
X958Y2090D01*
X958Y2088D01*
X960Y2088D01*
X960Y2084D01*
X962Y2084D01*
X962Y2080D01*
X964Y2080D01*
X964Y2076D01*
X966Y2076D01*
X966Y2070D01*
X968Y2070D01*
X968Y2062D01*
X970Y2062D01*
X970Y2034D01*
X968Y2034D01*
X968Y2026D01*
X966Y2026D01*
X966Y2022D01*
X964Y2022D01*
X964Y2018D01*
X962Y2018D01*
X962Y2014D01*
X960Y2014D01*
X960Y2010D01*
X958Y2010D01*
X958Y2008D01*
X956Y2008D01*
X956Y2004D01*
X954Y2004D01*
X954Y2002D01*
X952Y2002D01*
X952Y1982D01*
X954Y1982D01*
X954Y1980D01*
X956Y1980D01*
X956Y1978D01*
X958Y1978D01*
X958Y1976D01*
X960Y1976D01*
X960Y1974D01*
X962Y1974D01*
X962Y1972D01*
X964Y1972D01*
X964Y1968D01*
X966Y1968D01*
X966Y1966D01*
X968Y1966D01*
X968Y1962D01*
X970Y1962D01*
X970Y1958D01*
X972Y1958D01*
X972Y1954D01*
X974Y1954D01*
X974Y1950D01*
X976Y1950D01*
X976Y1944D01*
X978Y1944D01*
X978Y1934D01*
X980Y1934D01*
X980Y1910D01*
X978Y1910D01*
X978Y1900D01*
X976Y1900D01*
X976Y1894D01*
X974Y1894D01*
X974Y1890D01*
X972Y1890D01*
X972Y1886D01*
X970Y1886D01*
X970Y1882D01*
X968Y1882D01*
X968Y1878D01*
X966Y1878D01*
X966Y1876D01*
X964Y1876D01*
X964Y1872D01*
X962Y1872D01*
X962Y1870D01*
X960Y1870D01*
X960Y1868D01*
X958Y1868D01*
X958Y1866D01*
X956Y1866D01*
X956Y1862D01*
X954Y1862D01*
X954Y1860D01*
X950Y1860D01*
X950Y1858D01*
X948Y1858D01*
X948Y1856D01*
X946Y1856D01*
X946Y1854D01*
X944Y1854D01*
X944Y1852D01*
X940Y1852D01*
X940Y1850D01*
X936Y1850D01*
X936Y1848D01*
X932Y1848D01*
X932Y1846D01*
X928Y1846D01*
X928Y1844D01*
X922Y1844D01*
X922Y1842D01*
X914Y1842D01*
X914Y1840D01*
X1586Y1840D01*
X1586Y1842D01*
X1578Y1842D01*
X1578Y1844D01*
X1572Y1844D01*
X1572Y1846D01*
X1568Y1846D01*
X1568Y1848D01*
X1564Y1848D01*
X1564Y1850D01*
X1560Y1850D01*
X1560Y1852D01*
X1558Y1852D01*
X1558Y1854D01*
X1554Y1854D01*
X1554Y1856D01*
X1552Y1856D01*
X1552Y1858D01*
X1550Y1858D01*
X1550Y1860D01*
X1548Y1860D01*
X1548Y1862D01*
X1546Y1862D01*
X1546Y1864D01*
X1544Y1864D01*
X1544Y1866D01*
X1542Y1866D01*
X1542Y1868D01*
X1540Y1868D01*
X1540Y1870D01*
X1538Y1870D01*
X1538Y1872D01*
X1536Y1872D01*
X1536Y1876D01*
X1534Y1876D01*
X1534Y1878D01*
X1532Y1878D01*
X1532Y1882D01*
X1530Y1882D01*
X1530Y1886D01*
X1528Y1886D01*
X1528Y1890D01*
X1526Y1890D01*
X1526Y1894D01*
X1524Y1894D01*
X1524Y1900D01*
X1522Y1900D01*
X1522Y1910D01*
X1520Y1910D01*
X1520Y1934D01*
X1522Y1934D01*
X1522Y1944D01*
X1524Y1944D01*
X1524Y1950D01*
X1526Y1950D01*
X1526Y1954D01*
X1528Y1954D01*
X1528Y1958D01*
X1530Y1958D01*
X1530Y1962D01*
X1532Y1962D01*
X1532Y1966D01*
X1534Y1966D01*
X1534Y1968D01*
X1536Y1968D01*
X1536Y1972D01*
X1538Y1972D01*
X1538Y1974D01*
X1540Y1974D01*
X1540Y1976D01*
X1542Y1976D01*
X1542Y1978D01*
X1544Y1978D01*
X1544Y1980D01*
X1546Y1980D01*
X1546Y1982D01*
X1548Y1982D01*
X1548Y2002D01*
X1546Y2002D01*
X1546Y2004D01*
X1544Y2004D01*
X1544Y2008D01*
X1542Y2008D01*
X1542Y2010D01*
X1540Y2010D01*
X1540Y2014D01*
X1538Y2014D01*
X1538Y2018D01*
X1536Y2018D01*
X1536Y2022D01*
X1534Y2022D01*
X1534Y2028D01*
X1532Y2028D01*
X1532Y2036D01*
X1530Y2036D01*
X1530Y2062D01*
X1532Y2062D01*
X1532Y2070D01*
X1534Y2070D01*
X1534Y2076D01*
X1536Y2076D01*
X1536Y2080D01*
X1538Y2080D01*
X1538Y2084D01*
X1540Y2084D01*
X1540Y2088D01*
X1542Y2088D01*
X1542Y2090D01*
X1544Y2090D01*
X1544Y2092D01*
X1546Y2092D01*
X1546Y2096D01*
X1548Y2096D01*
X1548Y2098D01*
X1550Y2098D01*
X1550Y2100D01*
X1552Y2100D01*
X1552Y2120D01*
X1550Y2120D01*
X1550Y2122D01*
X1548Y2122D01*
X1548Y2124D01*
X1546Y2124D01*
X1546Y2126D01*
X1544Y2126D01*
X1544Y2130D01*
X1542Y2130D01*
X1542Y2132D01*
X1540Y2132D01*
X1540Y2136D01*
X1538Y2136D01*
X1538Y2140D01*
X1536Y2140D01*
X1536Y2144D01*
X1534Y2144D01*
X1534Y2150D01*
X1532Y2150D01*
X1532Y2158D01*
X1530Y2158D01*
X1530Y2184D01*
X1532Y2184D01*
X1532Y2192D01*
X1534Y2192D01*
X1534Y2198D01*
X1536Y2198D01*
X1536Y2202D01*
X1538Y2202D01*
X1538Y2206D01*
X1540Y2206D01*
X1540Y2210D01*
X1542Y2210D01*
X1542Y2212D01*
X1544Y2212D01*
X1544Y2214D01*
X1546Y2214D01*
X1546Y2218D01*
X1548Y2218D01*
X1548Y2220D01*
X1550Y2220D01*
X1550Y2222D01*
X1552Y2222D01*
X1552Y2224D01*
X1554Y2224D01*
X1554Y2226D01*
X1558Y2226D01*
X1558Y2228D01*
X1560Y2228D01*
X1560Y2230D01*
X1564Y2230D01*
X1564Y2232D01*
X1566Y2232D01*
X1566Y2234D01*
X1570Y2234D01*
X1570Y2236D01*
X1576Y2236D01*
X1576Y2238D01*
X1582Y2238D01*
X1582Y2240D01*
X1594Y2240D01*
X1594Y2242D01*
X906Y2242D01*
G37*
D02*
G36*
X1606Y2242D02*
X1606Y2240D01*
X1618Y2240D01*
X1618Y2238D01*
X1624Y2238D01*
X1624Y2236D01*
X1630Y2236D01*
X1630Y2234D01*
X1634Y2234D01*
X1634Y2232D01*
X1636Y2232D01*
X1636Y2230D01*
X1640Y2230D01*
X1640Y2228D01*
X1642Y2228D01*
X1642Y2226D01*
X1646Y2226D01*
X1646Y2224D01*
X1648Y2224D01*
X1648Y2222D01*
X1650Y2222D01*
X1650Y2220D01*
X1652Y2220D01*
X1652Y2218D01*
X1654Y2218D01*
X1654Y2214D01*
X1656Y2214D01*
X1656Y2212D01*
X1658Y2212D01*
X1658Y2210D01*
X1660Y2210D01*
X1660Y2206D01*
X1662Y2206D01*
X1662Y2202D01*
X1664Y2202D01*
X1664Y2198D01*
X1666Y2198D01*
X1666Y2192D01*
X1668Y2192D01*
X1668Y2184D01*
X1670Y2184D01*
X1670Y2156D01*
X1668Y2156D01*
X1668Y2148D01*
X1666Y2148D01*
X1666Y2144D01*
X1664Y2144D01*
X1664Y2140D01*
X1662Y2140D01*
X1662Y2136D01*
X1660Y2136D01*
X1660Y2132D01*
X1658Y2132D01*
X1658Y2130D01*
X1656Y2130D01*
X1656Y2126D01*
X1654Y2126D01*
X1654Y2124D01*
X1652Y2124D01*
X1652Y2122D01*
X1650Y2122D01*
X1650Y2120D01*
X1648Y2120D01*
X1648Y2100D01*
X1650Y2100D01*
X1650Y2098D01*
X1652Y2098D01*
X1652Y2096D01*
X1654Y2096D01*
X1654Y2092D01*
X1656Y2092D01*
X1656Y2090D01*
X1658Y2090D01*
X1658Y2088D01*
X1660Y2088D01*
X1660Y2084D01*
X1662Y2084D01*
X1662Y2080D01*
X1664Y2080D01*
X1664Y2076D01*
X1666Y2076D01*
X1666Y2070D01*
X1668Y2070D01*
X1668Y2062D01*
X1670Y2062D01*
X1670Y2034D01*
X1668Y2034D01*
X1668Y2026D01*
X1666Y2026D01*
X1666Y2022D01*
X1664Y2022D01*
X1664Y2018D01*
X1662Y2018D01*
X1662Y2014D01*
X1660Y2014D01*
X1660Y2010D01*
X1658Y2010D01*
X1658Y2008D01*
X1656Y2008D01*
X1656Y2004D01*
X1654Y2004D01*
X1654Y2002D01*
X1652Y2002D01*
X1652Y1982D01*
X1654Y1982D01*
X1654Y1980D01*
X1656Y1980D01*
X1656Y1978D01*
X1658Y1978D01*
X1658Y1976D01*
X1660Y1976D01*
X1660Y1974D01*
X1662Y1974D01*
X1662Y1972D01*
X1664Y1972D01*
X1664Y1968D01*
X1666Y1968D01*
X1666Y1966D01*
X1668Y1966D01*
X1668Y1962D01*
X1670Y1962D01*
X1670Y1958D01*
X1672Y1958D01*
X1672Y1954D01*
X1674Y1954D01*
X1674Y1950D01*
X1676Y1950D01*
X1676Y1944D01*
X1678Y1944D01*
X1678Y1934D01*
X1680Y1934D01*
X1680Y1910D01*
X1678Y1910D01*
X1678Y1900D01*
X1676Y1900D01*
X1676Y1894D01*
X1674Y1894D01*
X1674Y1890D01*
X1672Y1890D01*
X1672Y1886D01*
X1670Y1886D01*
X1670Y1882D01*
X1668Y1882D01*
X1668Y1878D01*
X1666Y1878D01*
X1666Y1876D01*
X1664Y1876D01*
X1664Y1872D01*
X1662Y1872D01*
X1662Y1870D01*
X1660Y1870D01*
X1660Y1868D01*
X1658Y1868D01*
X1658Y1866D01*
X1656Y1866D01*
X1656Y1862D01*
X1654Y1862D01*
X1654Y1860D01*
X1650Y1860D01*
X1650Y1858D01*
X1648Y1858D01*
X1648Y1856D01*
X1646Y1856D01*
X1646Y1854D01*
X1644Y1854D01*
X1644Y1852D01*
X1640Y1852D01*
X1640Y1850D01*
X1636Y1850D01*
X1636Y1848D01*
X1632Y1848D01*
X1632Y1846D01*
X1628Y1846D01*
X1628Y1844D01*
X1622Y1844D01*
X1622Y1842D01*
X1614Y1842D01*
X1614Y1840D01*
X2286Y1840D01*
X2286Y1842D01*
X2278Y1842D01*
X2278Y1844D01*
X2272Y1844D01*
X2272Y1846D01*
X2268Y1846D01*
X2268Y1848D01*
X2264Y1848D01*
X2264Y1850D01*
X2260Y1850D01*
X2260Y1852D01*
X2258Y1852D01*
X2258Y1854D01*
X2254Y1854D01*
X2254Y1856D01*
X2252Y1856D01*
X2252Y1858D01*
X2250Y1858D01*
X2250Y1860D01*
X2248Y1860D01*
X2248Y1862D01*
X2246Y1862D01*
X2246Y1864D01*
X2244Y1864D01*
X2244Y1866D01*
X2242Y1866D01*
X2242Y1868D01*
X2240Y1868D01*
X2240Y1870D01*
X2238Y1870D01*
X2238Y1872D01*
X2236Y1872D01*
X2236Y1876D01*
X2234Y1876D01*
X2234Y1878D01*
X2232Y1878D01*
X2232Y1882D01*
X2230Y1882D01*
X2230Y1886D01*
X2228Y1886D01*
X2228Y1890D01*
X2226Y1890D01*
X2226Y1894D01*
X2224Y1894D01*
X2224Y1900D01*
X2222Y1900D01*
X2222Y1910D01*
X2220Y1910D01*
X2220Y1934D01*
X2222Y1934D01*
X2222Y1944D01*
X2224Y1944D01*
X2224Y1950D01*
X2226Y1950D01*
X2226Y1954D01*
X2228Y1954D01*
X2228Y1958D01*
X2230Y1958D01*
X2230Y1962D01*
X2232Y1962D01*
X2232Y1966D01*
X2234Y1966D01*
X2234Y1968D01*
X2236Y1968D01*
X2236Y1972D01*
X2238Y1972D01*
X2238Y1974D01*
X2240Y1974D01*
X2240Y1976D01*
X2242Y1976D01*
X2242Y1978D01*
X2244Y1978D01*
X2244Y1980D01*
X2246Y1980D01*
X2246Y1982D01*
X2248Y1982D01*
X2248Y2002D01*
X2246Y2002D01*
X2246Y2004D01*
X2244Y2004D01*
X2244Y2008D01*
X2242Y2008D01*
X2242Y2010D01*
X2240Y2010D01*
X2240Y2014D01*
X2238Y2014D01*
X2238Y2018D01*
X2236Y2018D01*
X2236Y2022D01*
X2234Y2022D01*
X2234Y2028D01*
X2232Y2028D01*
X2232Y2036D01*
X2230Y2036D01*
X2230Y2062D01*
X2232Y2062D01*
X2232Y2070D01*
X2234Y2070D01*
X2234Y2076D01*
X2236Y2076D01*
X2236Y2080D01*
X2238Y2080D01*
X2238Y2084D01*
X2240Y2084D01*
X2240Y2088D01*
X2242Y2088D01*
X2242Y2090D01*
X2244Y2090D01*
X2244Y2092D01*
X2246Y2092D01*
X2246Y2096D01*
X2248Y2096D01*
X2248Y2098D01*
X2250Y2098D01*
X2250Y2100D01*
X2252Y2100D01*
X2252Y2120D01*
X2250Y2120D01*
X2250Y2122D01*
X2248Y2122D01*
X2248Y2124D01*
X2246Y2124D01*
X2246Y2126D01*
X2244Y2126D01*
X2244Y2130D01*
X2242Y2130D01*
X2242Y2132D01*
X2240Y2132D01*
X2240Y2136D01*
X2238Y2136D01*
X2238Y2140D01*
X2236Y2140D01*
X2236Y2144D01*
X2234Y2144D01*
X2234Y2150D01*
X2232Y2150D01*
X2232Y2158D01*
X2230Y2158D01*
X2230Y2184D01*
X2232Y2184D01*
X2232Y2192D01*
X2234Y2192D01*
X2234Y2198D01*
X2236Y2198D01*
X2236Y2202D01*
X2238Y2202D01*
X2238Y2206D01*
X2240Y2206D01*
X2240Y2210D01*
X2242Y2210D01*
X2242Y2212D01*
X2244Y2212D01*
X2244Y2214D01*
X2246Y2214D01*
X2246Y2218D01*
X2248Y2218D01*
X2248Y2220D01*
X2250Y2220D01*
X2250Y2222D01*
X2252Y2222D01*
X2252Y2224D01*
X2254Y2224D01*
X2254Y2226D01*
X2258Y2226D01*
X2258Y2228D01*
X2260Y2228D01*
X2260Y2230D01*
X2264Y2230D01*
X2264Y2232D01*
X2266Y2232D01*
X2266Y2234D01*
X2270Y2234D01*
X2270Y2236D01*
X2276Y2236D01*
X2276Y2238D01*
X2282Y2238D01*
X2282Y2240D01*
X2294Y2240D01*
X2294Y2242D01*
X1606Y2242D01*
G37*
D02*
G36*
X2318Y2240D02*
X2318Y2238D01*
X2324Y2238D01*
X2324Y2236D01*
X2330Y2236D01*
X2330Y2234D01*
X2334Y2234D01*
X2334Y2232D01*
X2336Y2232D01*
X2336Y2230D01*
X2340Y2230D01*
X2340Y2228D01*
X2342Y2228D01*
X2342Y2226D01*
X2346Y2226D01*
X2346Y2224D01*
X2348Y2224D01*
X2348Y2222D01*
X2350Y2222D01*
X2350Y2220D01*
X2352Y2220D01*
X2352Y2218D01*
X2354Y2218D01*
X2354Y2214D01*
X2356Y2214D01*
X2356Y2212D01*
X2358Y2212D01*
X2358Y2210D01*
X2360Y2210D01*
X2360Y2206D01*
X2362Y2206D01*
X2362Y2202D01*
X2364Y2202D01*
X2364Y2198D01*
X2366Y2198D01*
X2366Y2192D01*
X2368Y2192D01*
X2368Y2184D01*
X2370Y2184D01*
X2370Y2156D01*
X2368Y2156D01*
X2368Y2148D01*
X2366Y2148D01*
X2366Y2144D01*
X2364Y2144D01*
X2364Y2140D01*
X2362Y2140D01*
X2362Y2136D01*
X2360Y2136D01*
X2360Y2132D01*
X2358Y2132D01*
X2358Y2130D01*
X2356Y2130D01*
X2356Y2126D01*
X2354Y2126D01*
X2354Y2124D01*
X2352Y2124D01*
X2352Y2122D01*
X2350Y2122D01*
X2350Y2120D01*
X2348Y2120D01*
X2348Y2100D01*
X2350Y2100D01*
X2350Y2098D01*
X2352Y2098D01*
X2352Y2096D01*
X2354Y2096D01*
X2354Y2092D01*
X2356Y2092D01*
X2356Y2090D01*
X2358Y2090D01*
X2358Y2088D01*
X2360Y2088D01*
X2360Y2084D01*
X2362Y2084D01*
X2362Y2080D01*
X2364Y2080D01*
X2364Y2076D01*
X2366Y2076D01*
X2366Y2070D01*
X2368Y2070D01*
X2368Y2062D01*
X2370Y2062D01*
X2370Y2034D01*
X2368Y2034D01*
X2368Y2026D01*
X2366Y2026D01*
X2366Y2022D01*
X2364Y2022D01*
X2364Y2018D01*
X2362Y2018D01*
X2362Y2014D01*
X2360Y2014D01*
X2360Y2010D01*
X2358Y2010D01*
X2358Y2008D01*
X2356Y2008D01*
X2356Y2004D01*
X2354Y2004D01*
X2354Y2002D01*
X2352Y2002D01*
X2352Y1982D01*
X2354Y1982D01*
X2354Y1980D01*
X2356Y1980D01*
X2356Y1978D01*
X2358Y1978D01*
X2358Y1976D01*
X2360Y1976D01*
X2360Y1974D01*
X2362Y1974D01*
X2362Y1972D01*
X2364Y1972D01*
X2364Y1968D01*
X2366Y1968D01*
X2366Y1966D01*
X2368Y1966D01*
X2368Y1962D01*
X2370Y1962D01*
X2370Y1958D01*
X2372Y1958D01*
X2372Y1954D01*
X2374Y1954D01*
X2374Y1950D01*
X2376Y1950D01*
X2376Y1944D01*
X2378Y1944D01*
X2378Y1934D01*
X2380Y1934D01*
X2380Y1910D01*
X2378Y1910D01*
X2378Y1900D01*
X2376Y1900D01*
X2376Y1894D01*
X2374Y1894D01*
X2374Y1890D01*
X2372Y1890D01*
X2372Y1886D01*
X2370Y1886D01*
X2370Y1882D01*
X2368Y1882D01*
X2368Y1878D01*
X2366Y1878D01*
X2366Y1876D01*
X2364Y1876D01*
X2364Y1872D01*
X2362Y1872D01*
X2362Y1870D01*
X2360Y1870D01*
X2360Y1868D01*
X2358Y1868D01*
X2358Y1866D01*
X2356Y1866D01*
X2356Y1862D01*
X2354Y1862D01*
X2354Y1860D01*
X2350Y1860D01*
X2350Y1858D01*
X2348Y1858D01*
X2348Y1856D01*
X2346Y1856D01*
X2346Y1854D01*
X2344Y1854D01*
X2344Y1852D01*
X2340Y1852D01*
X2340Y1850D01*
X2336Y1850D01*
X2336Y1848D01*
X2332Y1848D01*
X2332Y1846D01*
X2328Y1846D01*
X2328Y1844D01*
X2322Y1844D01*
X2322Y1842D01*
X2314Y1842D01*
X2314Y1840D01*
X2982Y1840D01*
X2982Y1842D01*
X2976Y1842D01*
X2976Y1844D01*
X2970Y1844D01*
X2970Y1846D01*
X2966Y1846D01*
X2966Y1848D01*
X2962Y1848D01*
X2962Y1850D01*
X2958Y1850D01*
X2958Y1852D01*
X2956Y1852D01*
X2956Y1854D01*
X2954Y1854D01*
X2954Y1856D01*
X2950Y1856D01*
X2950Y1858D01*
X2948Y1858D01*
X2948Y1860D01*
X2946Y1860D01*
X2946Y1862D01*
X2944Y1862D01*
X2944Y1864D01*
X2942Y1864D01*
X2942Y1866D01*
X2940Y1866D01*
X2940Y1870D01*
X2938Y1870D01*
X2938Y1872D01*
X2936Y1872D01*
X2936Y1876D01*
X2934Y1876D01*
X2934Y1878D01*
X2932Y1878D01*
X2932Y1882D01*
X2930Y1882D01*
X2930Y1886D01*
X2928Y1886D01*
X2928Y1890D01*
X2926Y1890D01*
X2926Y1894D01*
X2924Y1894D01*
X2924Y1900D01*
X2922Y1900D01*
X2922Y1910D01*
X2920Y1910D01*
X2920Y1934D01*
X2922Y1934D01*
X2922Y1944D01*
X2924Y1944D01*
X2924Y1950D01*
X2926Y1950D01*
X2926Y1954D01*
X2928Y1954D01*
X2928Y1958D01*
X2930Y1958D01*
X2930Y1962D01*
X2932Y1962D01*
X2932Y1966D01*
X2934Y1966D01*
X2934Y1968D01*
X2936Y1968D01*
X2936Y1972D01*
X2938Y1972D01*
X2938Y1974D01*
X2940Y1974D01*
X2940Y1976D01*
X2942Y1976D01*
X2942Y1978D01*
X2944Y1978D01*
X2944Y1980D01*
X2946Y1980D01*
X2946Y1982D01*
X2948Y1982D01*
X2948Y2002D01*
X2946Y2002D01*
X2946Y2004D01*
X2944Y2004D01*
X2944Y2006D01*
X2942Y2006D01*
X2942Y2008D01*
X2940Y2008D01*
X2940Y2012D01*
X2938Y2012D01*
X2938Y2016D01*
X2936Y2016D01*
X2936Y2020D01*
X2934Y2020D01*
X2934Y2024D01*
X2932Y2024D01*
X2932Y2032D01*
X2930Y2032D01*
X2930Y2044D01*
X2928Y2044D01*
X2928Y2052D01*
X2930Y2052D01*
X2930Y2064D01*
X2932Y2064D01*
X2932Y2072D01*
X2934Y2072D01*
X2934Y2076D01*
X2936Y2076D01*
X2936Y2080D01*
X2938Y2080D01*
X2938Y2084D01*
X2940Y2084D01*
X2940Y2088D01*
X2942Y2088D01*
X2942Y2090D01*
X2944Y2090D01*
X2944Y2092D01*
X2946Y2092D01*
X2946Y2096D01*
X2948Y2096D01*
X2948Y2098D01*
X2950Y2098D01*
X2950Y2120D01*
X2948Y2120D01*
X2948Y2124D01*
X2946Y2124D01*
X2946Y2126D01*
X2944Y2126D01*
X2944Y2128D01*
X2942Y2128D01*
X2942Y2130D01*
X2940Y2130D01*
X2940Y2134D01*
X2938Y2134D01*
X2938Y2138D01*
X2936Y2138D01*
X2936Y2142D01*
X2934Y2142D01*
X2934Y2146D01*
X2932Y2146D01*
X2932Y2154D01*
X2930Y2154D01*
X2930Y2166D01*
X2928Y2166D01*
X2928Y2174D01*
X2930Y2174D01*
X2930Y2186D01*
X2932Y2186D01*
X2932Y2194D01*
X2934Y2194D01*
X2934Y2200D01*
X2936Y2200D01*
X2936Y2204D01*
X2938Y2204D01*
X2938Y2206D01*
X2940Y2206D01*
X2940Y2210D01*
X2942Y2210D01*
X2942Y2212D01*
X2944Y2212D01*
X2944Y2216D01*
X2946Y2216D01*
X2946Y2218D01*
X2948Y2218D01*
X2948Y2220D01*
X2950Y2220D01*
X2950Y2222D01*
X2952Y2222D01*
X2952Y2224D01*
X2956Y2224D01*
X2956Y2226D01*
X2958Y2226D01*
X2958Y2228D01*
X2960Y2228D01*
X2960Y2230D01*
X2964Y2230D01*
X2964Y2232D01*
X2968Y2232D01*
X2968Y2234D01*
X2972Y2234D01*
X2972Y2236D01*
X2978Y2236D01*
X2978Y2238D01*
X2984Y2238D01*
X2984Y2240D01*
X2318Y2240D01*
G37*
D02*
G36*
X40Y1840D02*
X40Y1838D01*
X3582Y1838D01*
X3582Y1840D01*
X40Y1840D01*
G37*
D02*
G36*
X40Y1840D02*
X40Y1838D01*
X3582Y1838D01*
X3582Y1840D01*
X40Y1840D01*
G37*
D02*
G36*
X40Y1840D02*
X40Y1838D01*
X3582Y1838D01*
X3582Y1840D01*
X40Y1840D01*
G37*
D02*
G36*
X40Y1840D02*
X40Y1838D01*
X3582Y1838D01*
X3582Y1840D01*
X40Y1840D01*
G37*
D02*
G36*
X40Y1840D02*
X40Y1838D01*
X3582Y1838D01*
X3582Y1840D01*
X40Y1840D01*
G37*
D02*
G36*
X40Y1838D02*
X40Y1792D01*
X3010Y1792D01*
X3010Y1790D01*
X3018Y1790D01*
X3018Y1788D01*
X3024Y1788D01*
X3024Y1786D01*
X3030Y1786D01*
X3030Y1784D01*
X3034Y1784D01*
X3034Y1782D01*
X3036Y1782D01*
X3036Y1780D01*
X3040Y1780D01*
X3040Y1778D01*
X3042Y1778D01*
X3042Y1776D01*
X3046Y1776D01*
X3046Y1774D01*
X3048Y1774D01*
X3048Y1772D01*
X3050Y1772D01*
X3050Y1770D01*
X3052Y1770D01*
X3052Y1768D01*
X3054Y1768D01*
X3054Y1764D01*
X3056Y1764D01*
X3056Y1762D01*
X3058Y1762D01*
X3058Y1758D01*
X3060Y1758D01*
X3060Y1756D01*
X3062Y1756D01*
X3062Y1752D01*
X3064Y1752D01*
X3064Y1746D01*
X3066Y1746D01*
X3066Y1740D01*
X3068Y1740D01*
X3068Y1732D01*
X3070Y1732D01*
X3070Y1712D01*
X3068Y1712D01*
X3068Y1702D01*
X3066Y1702D01*
X3066Y1696D01*
X3064Y1696D01*
X3064Y1692D01*
X3062Y1692D01*
X3062Y1688D01*
X3060Y1688D01*
X3060Y1684D01*
X3058Y1684D01*
X3058Y1682D01*
X3056Y1682D01*
X3056Y1678D01*
X3054Y1678D01*
X3054Y1676D01*
X3052Y1676D01*
X3052Y1674D01*
X3050Y1674D01*
X3050Y1672D01*
X3048Y1672D01*
X3048Y1670D01*
X3046Y1670D01*
X3046Y1668D01*
X3044Y1668D01*
X3044Y1666D01*
X3042Y1666D01*
X3042Y1664D01*
X3038Y1664D01*
X3038Y1662D01*
X3036Y1662D01*
X3036Y1660D01*
X3032Y1660D01*
X3032Y1658D01*
X3028Y1658D01*
X3028Y1656D01*
X3022Y1656D01*
X3022Y1654D01*
X3016Y1654D01*
X3016Y1652D01*
X3002Y1652D01*
X3002Y1650D01*
X3582Y1650D01*
X3582Y1838D01*
X40Y1838D01*
G37*
D02*
G36*
X40Y1792D02*
X40Y1652D01*
X886Y1652D01*
X886Y1654D01*
X878Y1654D01*
X878Y1656D01*
X872Y1656D01*
X872Y1658D01*
X868Y1658D01*
X868Y1660D01*
X864Y1660D01*
X864Y1662D01*
X862Y1662D01*
X862Y1664D01*
X858Y1664D01*
X858Y1666D01*
X856Y1666D01*
X856Y1668D01*
X854Y1668D01*
X854Y1670D01*
X852Y1670D01*
X852Y1672D01*
X850Y1672D01*
X850Y1674D01*
X848Y1674D01*
X848Y1676D01*
X846Y1676D01*
X846Y1678D01*
X844Y1678D01*
X844Y1680D01*
X842Y1680D01*
X842Y1684D01*
X840Y1684D01*
X840Y1686D01*
X838Y1686D01*
X838Y1690D01*
X836Y1690D01*
X836Y1694D01*
X834Y1694D01*
X834Y1700D01*
X832Y1700D01*
X832Y1708D01*
X830Y1708D01*
X830Y1736D01*
X832Y1736D01*
X832Y1744D01*
X834Y1744D01*
X834Y1750D01*
X836Y1750D01*
X836Y1754D01*
X838Y1754D01*
X838Y1758D01*
X840Y1758D01*
X840Y1760D01*
X842Y1760D01*
X842Y1764D01*
X844Y1764D01*
X844Y1766D01*
X846Y1766D01*
X846Y1768D01*
X848Y1768D01*
X848Y1770D01*
X850Y1770D01*
X850Y1772D01*
X852Y1772D01*
X852Y1774D01*
X854Y1774D01*
X854Y1776D01*
X856Y1776D01*
X856Y1778D01*
X858Y1778D01*
X858Y1780D01*
X862Y1780D01*
X862Y1782D01*
X864Y1782D01*
X864Y1784D01*
X868Y1784D01*
X868Y1786D01*
X872Y1786D01*
X872Y1788D01*
X878Y1788D01*
X878Y1790D01*
X886Y1790D01*
X886Y1792D01*
X40Y1792D01*
G37*
D02*
G36*
X914Y1792D02*
X914Y1790D01*
X922Y1790D01*
X922Y1788D01*
X928Y1788D01*
X928Y1786D01*
X932Y1786D01*
X932Y1784D01*
X936Y1784D01*
X936Y1782D01*
X938Y1782D01*
X938Y1780D01*
X942Y1780D01*
X942Y1778D01*
X944Y1778D01*
X944Y1776D01*
X946Y1776D01*
X946Y1774D01*
X948Y1774D01*
X948Y1772D01*
X950Y1772D01*
X950Y1770D01*
X952Y1770D01*
X952Y1768D01*
X954Y1768D01*
X954Y1766D01*
X956Y1766D01*
X956Y1764D01*
X958Y1764D01*
X958Y1760D01*
X960Y1760D01*
X960Y1758D01*
X962Y1758D01*
X962Y1754D01*
X964Y1754D01*
X964Y1750D01*
X966Y1750D01*
X966Y1744D01*
X968Y1744D01*
X968Y1736D01*
X970Y1736D01*
X970Y1708D01*
X968Y1708D01*
X968Y1700D01*
X966Y1700D01*
X966Y1694D01*
X964Y1694D01*
X964Y1690D01*
X962Y1690D01*
X962Y1686D01*
X960Y1686D01*
X960Y1684D01*
X958Y1684D01*
X958Y1680D01*
X956Y1680D01*
X956Y1678D01*
X954Y1678D01*
X954Y1676D01*
X952Y1676D01*
X952Y1674D01*
X950Y1674D01*
X950Y1672D01*
X948Y1672D01*
X948Y1670D01*
X946Y1670D01*
X946Y1668D01*
X944Y1668D01*
X944Y1666D01*
X942Y1666D01*
X942Y1664D01*
X938Y1664D01*
X938Y1662D01*
X936Y1662D01*
X936Y1660D01*
X932Y1660D01*
X932Y1658D01*
X928Y1658D01*
X928Y1656D01*
X922Y1656D01*
X922Y1654D01*
X914Y1654D01*
X914Y1652D01*
X1586Y1652D01*
X1586Y1654D01*
X1578Y1654D01*
X1578Y1656D01*
X1572Y1656D01*
X1572Y1658D01*
X1568Y1658D01*
X1568Y1660D01*
X1564Y1660D01*
X1564Y1662D01*
X1562Y1662D01*
X1562Y1664D01*
X1558Y1664D01*
X1558Y1666D01*
X1556Y1666D01*
X1556Y1668D01*
X1554Y1668D01*
X1554Y1670D01*
X1552Y1670D01*
X1552Y1672D01*
X1550Y1672D01*
X1550Y1674D01*
X1548Y1674D01*
X1548Y1676D01*
X1546Y1676D01*
X1546Y1678D01*
X1544Y1678D01*
X1544Y1680D01*
X1542Y1680D01*
X1542Y1684D01*
X1540Y1684D01*
X1540Y1686D01*
X1538Y1686D01*
X1538Y1690D01*
X1536Y1690D01*
X1536Y1694D01*
X1534Y1694D01*
X1534Y1700D01*
X1532Y1700D01*
X1532Y1708D01*
X1530Y1708D01*
X1530Y1736D01*
X1532Y1736D01*
X1532Y1744D01*
X1534Y1744D01*
X1534Y1750D01*
X1536Y1750D01*
X1536Y1754D01*
X1538Y1754D01*
X1538Y1758D01*
X1540Y1758D01*
X1540Y1760D01*
X1542Y1760D01*
X1542Y1764D01*
X1544Y1764D01*
X1544Y1766D01*
X1546Y1766D01*
X1546Y1768D01*
X1548Y1768D01*
X1548Y1770D01*
X1550Y1770D01*
X1550Y1772D01*
X1552Y1772D01*
X1552Y1774D01*
X1554Y1774D01*
X1554Y1776D01*
X1556Y1776D01*
X1556Y1778D01*
X1558Y1778D01*
X1558Y1780D01*
X1562Y1780D01*
X1562Y1782D01*
X1564Y1782D01*
X1564Y1784D01*
X1568Y1784D01*
X1568Y1786D01*
X1572Y1786D01*
X1572Y1788D01*
X1578Y1788D01*
X1578Y1790D01*
X1586Y1790D01*
X1586Y1792D01*
X914Y1792D01*
G37*
D02*
G36*
X1614Y1792D02*
X1614Y1790D01*
X1622Y1790D01*
X1622Y1788D01*
X1628Y1788D01*
X1628Y1786D01*
X1632Y1786D01*
X1632Y1784D01*
X1636Y1784D01*
X1636Y1782D01*
X1638Y1782D01*
X1638Y1780D01*
X1642Y1780D01*
X1642Y1778D01*
X1644Y1778D01*
X1644Y1776D01*
X1646Y1776D01*
X1646Y1774D01*
X1648Y1774D01*
X1648Y1772D01*
X1650Y1772D01*
X1650Y1770D01*
X1652Y1770D01*
X1652Y1768D01*
X1654Y1768D01*
X1654Y1766D01*
X1656Y1766D01*
X1656Y1764D01*
X1658Y1764D01*
X1658Y1760D01*
X1660Y1760D01*
X1660Y1758D01*
X1662Y1758D01*
X1662Y1754D01*
X1664Y1754D01*
X1664Y1750D01*
X1666Y1750D01*
X1666Y1744D01*
X1668Y1744D01*
X1668Y1736D01*
X1670Y1736D01*
X1670Y1708D01*
X1668Y1708D01*
X1668Y1700D01*
X1666Y1700D01*
X1666Y1694D01*
X1664Y1694D01*
X1664Y1690D01*
X1662Y1690D01*
X1662Y1686D01*
X1660Y1686D01*
X1660Y1684D01*
X1658Y1684D01*
X1658Y1680D01*
X1656Y1680D01*
X1656Y1678D01*
X1654Y1678D01*
X1654Y1676D01*
X1652Y1676D01*
X1652Y1674D01*
X1650Y1674D01*
X1650Y1672D01*
X1648Y1672D01*
X1648Y1670D01*
X1646Y1670D01*
X1646Y1668D01*
X1644Y1668D01*
X1644Y1666D01*
X1642Y1666D01*
X1642Y1664D01*
X1638Y1664D01*
X1638Y1662D01*
X1636Y1662D01*
X1636Y1660D01*
X1632Y1660D01*
X1632Y1658D01*
X1628Y1658D01*
X1628Y1656D01*
X1622Y1656D01*
X1622Y1654D01*
X1614Y1654D01*
X1614Y1652D01*
X2286Y1652D01*
X2286Y1654D01*
X2278Y1654D01*
X2278Y1656D01*
X2272Y1656D01*
X2272Y1658D01*
X2268Y1658D01*
X2268Y1660D01*
X2264Y1660D01*
X2264Y1662D01*
X2262Y1662D01*
X2262Y1664D01*
X2258Y1664D01*
X2258Y1666D01*
X2256Y1666D01*
X2256Y1668D01*
X2254Y1668D01*
X2254Y1670D01*
X2252Y1670D01*
X2252Y1672D01*
X2250Y1672D01*
X2250Y1674D01*
X2248Y1674D01*
X2248Y1676D01*
X2246Y1676D01*
X2246Y1678D01*
X2244Y1678D01*
X2244Y1680D01*
X2242Y1680D01*
X2242Y1684D01*
X2240Y1684D01*
X2240Y1686D01*
X2238Y1686D01*
X2238Y1690D01*
X2236Y1690D01*
X2236Y1694D01*
X2234Y1694D01*
X2234Y1700D01*
X2232Y1700D01*
X2232Y1708D01*
X2230Y1708D01*
X2230Y1736D01*
X2232Y1736D01*
X2232Y1744D01*
X2234Y1744D01*
X2234Y1750D01*
X2236Y1750D01*
X2236Y1754D01*
X2238Y1754D01*
X2238Y1758D01*
X2240Y1758D01*
X2240Y1760D01*
X2242Y1760D01*
X2242Y1764D01*
X2244Y1764D01*
X2244Y1766D01*
X2246Y1766D01*
X2246Y1768D01*
X2248Y1768D01*
X2248Y1770D01*
X2250Y1770D01*
X2250Y1772D01*
X2252Y1772D01*
X2252Y1774D01*
X2254Y1774D01*
X2254Y1776D01*
X2256Y1776D01*
X2256Y1778D01*
X2258Y1778D01*
X2258Y1780D01*
X2262Y1780D01*
X2262Y1782D01*
X2264Y1782D01*
X2264Y1784D01*
X2268Y1784D01*
X2268Y1786D01*
X2272Y1786D01*
X2272Y1788D01*
X2278Y1788D01*
X2278Y1790D01*
X2286Y1790D01*
X2286Y1792D01*
X1614Y1792D01*
G37*
D02*
G36*
X2314Y1792D02*
X2314Y1790D01*
X2322Y1790D01*
X2322Y1788D01*
X2328Y1788D01*
X2328Y1786D01*
X2332Y1786D01*
X2332Y1784D01*
X2336Y1784D01*
X2336Y1782D01*
X2338Y1782D01*
X2338Y1780D01*
X2342Y1780D01*
X2342Y1778D01*
X2344Y1778D01*
X2344Y1776D01*
X2346Y1776D01*
X2346Y1774D01*
X2348Y1774D01*
X2348Y1772D01*
X2350Y1772D01*
X2350Y1770D01*
X2352Y1770D01*
X2352Y1768D01*
X2354Y1768D01*
X2354Y1766D01*
X2356Y1766D01*
X2356Y1764D01*
X2358Y1764D01*
X2358Y1760D01*
X2360Y1760D01*
X2360Y1758D01*
X2362Y1758D01*
X2362Y1754D01*
X2364Y1754D01*
X2364Y1750D01*
X2366Y1750D01*
X2366Y1744D01*
X2368Y1744D01*
X2368Y1736D01*
X2370Y1736D01*
X2370Y1708D01*
X2368Y1708D01*
X2368Y1700D01*
X2366Y1700D01*
X2366Y1694D01*
X2364Y1694D01*
X2364Y1690D01*
X2362Y1690D01*
X2362Y1686D01*
X2360Y1686D01*
X2360Y1684D01*
X2358Y1684D01*
X2358Y1680D01*
X2356Y1680D01*
X2356Y1678D01*
X2354Y1678D01*
X2354Y1676D01*
X2352Y1676D01*
X2352Y1674D01*
X2350Y1674D01*
X2350Y1672D01*
X2348Y1672D01*
X2348Y1670D01*
X2346Y1670D01*
X2346Y1668D01*
X2344Y1668D01*
X2344Y1666D01*
X2342Y1666D01*
X2342Y1664D01*
X2338Y1664D01*
X2338Y1662D01*
X2336Y1662D01*
X2336Y1660D01*
X2332Y1660D01*
X2332Y1658D01*
X2328Y1658D01*
X2328Y1656D01*
X2322Y1656D01*
X2322Y1654D01*
X2314Y1654D01*
X2314Y1652D01*
X2982Y1652D01*
X2982Y1654D01*
X2976Y1654D01*
X2976Y1656D01*
X2970Y1656D01*
X2970Y1658D01*
X2966Y1658D01*
X2966Y1660D01*
X2964Y1660D01*
X2964Y1662D01*
X2960Y1662D01*
X2960Y1664D01*
X2958Y1664D01*
X2958Y1666D01*
X2954Y1666D01*
X2954Y1668D01*
X2952Y1668D01*
X2952Y1670D01*
X2950Y1670D01*
X2950Y1672D01*
X2948Y1672D01*
X2948Y1674D01*
X2946Y1674D01*
X2946Y1676D01*
X2944Y1676D01*
X2944Y1680D01*
X2942Y1680D01*
X2942Y1682D01*
X2940Y1682D01*
X2940Y1686D01*
X2938Y1686D01*
X2938Y1688D01*
X2936Y1688D01*
X2936Y1692D01*
X2934Y1692D01*
X2934Y1698D01*
X2932Y1698D01*
X2932Y1704D01*
X2930Y1704D01*
X2930Y1718D01*
X2928Y1718D01*
X2928Y1726D01*
X2930Y1726D01*
X2930Y1738D01*
X2932Y1738D01*
X2932Y1746D01*
X2934Y1746D01*
X2934Y1750D01*
X2936Y1750D01*
X2936Y1754D01*
X2938Y1754D01*
X2938Y1758D01*
X2940Y1758D01*
X2940Y1760D01*
X2942Y1760D01*
X2942Y1764D01*
X2944Y1764D01*
X2944Y1766D01*
X2946Y1766D01*
X2946Y1768D01*
X2948Y1768D01*
X2948Y1770D01*
X2950Y1770D01*
X2950Y1772D01*
X2952Y1772D01*
X2952Y1774D01*
X2954Y1774D01*
X2954Y1776D01*
X2956Y1776D01*
X2956Y1778D01*
X2958Y1778D01*
X2958Y1780D01*
X2962Y1780D01*
X2962Y1782D01*
X2966Y1782D01*
X2966Y1784D01*
X2970Y1784D01*
X2970Y1786D01*
X2974Y1786D01*
X2974Y1788D01*
X2980Y1788D01*
X2980Y1790D01*
X2990Y1790D01*
X2990Y1792D01*
X2314Y1792D01*
G37*
D02*
G36*
X40Y1652D02*
X40Y1650D01*
X2996Y1650D01*
X2996Y1652D01*
X40Y1652D01*
G37*
D02*
G36*
X40Y1652D02*
X40Y1650D01*
X2996Y1650D01*
X2996Y1652D01*
X40Y1652D01*
G37*
D02*
G36*
X40Y1652D02*
X40Y1650D01*
X2996Y1650D01*
X2996Y1652D01*
X40Y1652D01*
G37*
D02*
G36*
X40Y1652D02*
X40Y1650D01*
X2996Y1650D01*
X2996Y1652D01*
X40Y1652D01*
G37*
D02*
G36*
X40Y1650D02*
X40Y1648D01*
X3582Y1648D01*
X3582Y1650D01*
X40Y1650D01*
G37*
D02*
G36*
X40Y1650D02*
X40Y1648D01*
X3582Y1648D01*
X3582Y1650D01*
X40Y1650D01*
G37*
D02*
G36*
X40Y1648D02*
X40Y1378D01*
X1510Y1378D01*
X1510Y1376D01*
X1518Y1376D01*
X1518Y1374D01*
X1522Y1374D01*
X1522Y1372D01*
X1526Y1372D01*
X1526Y1370D01*
X1530Y1370D01*
X1530Y1368D01*
X1532Y1368D01*
X1532Y1366D01*
X1536Y1366D01*
X1536Y1364D01*
X1538Y1364D01*
X1538Y1362D01*
X1540Y1362D01*
X1540Y1360D01*
X1542Y1360D01*
X1542Y1358D01*
X1544Y1358D01*
X1544Y1354D01*
X1546Y1354D01*
X1546Y1352D01*
X1548Y1352D01*
X1548Y1348D01*
X1550Y1348D01*
X1550Y1344D01*
X1552Y1344D01*
X1552Y1340D01*
X1554Y1340D01*
X1554Y1332D01*
X1556Y1332D01*
X1556Y1312D01*
X1554Y1312D01*
X1554Y1304D01*
X1552Y1304D01*
X1552Y1300D01*
X1550Y1300D01*
X1550Y1296D01*
X1548Y1296D01*
X1548Y1292D01*
X1546Y1292D01*
X1546Y1290D01*
X1544Y1290D01*
X1544Y1286D01*
X1542Y1286D01*
X1542Y1284D01*
X1540Y1284D01*
X1540Y1282D01*
X1538Y1282D01*
X1538Y1280D01*
X1536Y1280D01*
X1536Y1278D01*
X2110Y1278D01*
X2110Y1276D01*
X2118Y1276D01*
X2118Y1274D01*
X2122Y1274D01*
X2122Y1272D01*
X2126Y1272D01*
X2126Y1270D01*
X2130Y1270D01*
X2130Y1268D01*
X2132Y1268D01*
X2132Y1266D01*
X2136Y1266D01*
X2136Y1264D01*
X2138Y1264D01*
X2138Y1262D01*
X2140Y1262D01*
X2140Y1260D01*
X2142Y1260D01*
X2142Y1258D01*
X2144Y1258D01*
X2144Y1254D01*
X2146Y1254D01*
X2146Y1252D01*
X2148Y1252D01*
X2148Y1248D01*
X2150Y1248D01*
X2150Y1244D01*
X2152Y1244D01*
X2152Y1240D01*
X2154Y1240D01*
X2154Y1232D01*
X2156Y1232D01*
X2156Y1212D01*
X2154Y1212D01*
X2154Y1204D01*
X2152Y1204D01*
X2152Y1200D01*
X2150Y1200D01*
X2150Y1196D01*
X2148Y1196D01*
X2148Y1192D01*
X3114Y1192D01*
X3114Y1190D01*
X3122Y1190D01*
X3122Y1188D01*
X3128Y1188D01*
X3128Y1186D01*
X3132Y1186D01*
X3132Y1184D01*
X3136Y1184D01*
X3136Y1182D01*
X3138Y1182D01*
X3138Y1180D01*
X3142Y1180D01*
X3142Y1178D01*
X3144Y1178D01*
X3144Y1176D01*
X3146Y1176D01*
X3146Y1174D01*
X3148Y1174D01*
X3148Y1172D01*
X3150Y1172D01*
X3150Y1170D01*
X3152Y1170D01*
X3152Y1168D01*
X3154Y1168D01*
X3154Y1166D01*
X3156Y1166D01*
X3156Y1164D01*
X3158Y1164D01*
X3158Y1160D01*
X3160Y1160D01*
X3160Y1158D01*
X3162Y1158D01*
X3162Y1154D01*
X3164Y1154D01*
X3164Y1150D01*
X3166Y1150D01*
X3166Y1144D01*
X3168Y1144D01*
X3168Y1136D01*
X3170Y1136D01*
X3170Y1108D01*
X3168Y1108D01*
X3168Y1100D01*
X3166Y1100D01*
X3166Y1094D01*
X3164Y1094D01*
X3164Y1090D01*
X3162Y1090D01*
X3162Y1086D01*
X3160Y1086D01*
X3160Y1084D01*
X3158Y1084D01*
X3158Y1080D01*
X3156Y1080D01*
X3156Y1078D01*
X3154Y1078D01*
X3154Y1076D01*
X3152Y1076D01*
X3152Y1074D01*
X3150Y1074D01*
X3150Y1072D01*
X3148Y1072D01*
X3148Y1070D01*
X3146Y1070D01*
X3146Y1068D01*
X3144Y1068D01*
X3144Y1066D01*
X3142Y1066D01*
X3142Y1064D01*
X3138Y1064D01*
X3138Y1062D01*
X3136Y1062D01*
X3136Y1060D01*
X3132Y1060D01*
X3132Y1058D01*
X3128Y1058D01*
X3128Y1056D01*
X3122Y1056D01*
X3122Y1054D01*
X3114Y1054D01*
X3114Y1052D01*
X3582Y1052D01*
X3582Y1648D01*
X40Y1648D01*
G37*
D02*
G36*
X40Y1378D02*
X40Y1266D01*
X1344Y1266D01*
X1344Y1378D01*
X40Y1378D01*
G37*
D02*
G36*
X1456Y1378D02*
X1456Y1372D01*
X1478Y1372D01*
X1478Y1374D01*
X1482Y1374D01*
X1482Y1376D01*
X1490Y1376D01*
X1490Y1378D01*
X1456Y1378D01*
G37*
D02*
G36*
X1532Y1278D02*
X1532Y1276D01*
X1530Y1276D01*
X1530Y1274D01*
X1526Y1274D01*
X1526Y1272D01*
X1522Y1272D01*
X1522Y1270D01*
X1518Y1270D01*
X1518Y1268D01*
X1510Y1268D01*
X1510Y1266D01*
X2068Y1266D01*
X2068Y1268D01*
X2070Y1268D01*
X2070Y1270D01*
X2074Y1270D01*
X2074Y1272D01*
X2078Y1272D01*
X2078Y1274D01*
X2082Y1274D01*
X2082Y1276D01*
X2090Y1276D01*
X2090Y1278D01*
X1532Y1278D01*
G37*
D02*
G36*
X1456Y1272D02*
X1456Y1266D01*
X1490Y1266D01*
X1490Y1268D01*
X1482Y1268D01*
X1482Y1270D01*
X1478Y1270D01*
X1478Y1272D01*
X1456Y1272D01*
G37*
D02*
G36*
X40Y1266D02*
X40Y1264D01*
X2064Y1264D01*
X2064Y1266D01*
X40Y1266D01*
G37*
D02*
G36*
X40Y1266D02*
X40Y1264D01*
X2064Y1264D01*
X2064Y1266D01*
X40Y1266D01*
G37*
D02*
G36*
X40Y1266D02*
X40Y1264D01*
X2064Y1264D01*
X2064Y1266D01*
X40Y1266D01*
G37*
D02*
G36*
X40Y1264D02*
X40Y1192D01*
X1714Y1192D01*
X1714Y1190D01*
X1722Y1190D01*
X1722Y1188D01*
X1728Y1188D01*
X1728Y1186D01*
X1732Y1186D01*
X1732Y1184D01*
X1736Y1184D01*
X1736Y1182D01*
X1738Y1182D01*
X1738Y1180D01*
X1742Y1180D01*
X1742Y1178D01*
X1744Y1178D01*
X1744Y1176D01*
X1746Y1176D01*
X1746Y1174D01*
X1748Y1174D01*
X1748Y1172D01*
X1750Y1172D01*
X1750Y1170D01*
X1752Y1170D01*
X1752Y1168D01*
X1754Y1168D01*
X1754Y1166D01*
X1756Y1166D01*
X1756Y1164D01*
X1758Y1164D01*
X1758Y1160D01*
X1760Y1160D01*
X1760Y1158D01*
X1762Y1158D01*
X1762Y1154D01*
X1764Y1154D01*
X1764Y1150D01*
X1766Y1150D01*
X1766Y1144D01*
X1768Y1144D01*
X1768Y1136D01*
X1770Y1136D01*
X1770Y1108D01*
X1768Y1108D01*
X1768Y1100D01*
X1766Y1100D01*
X1766Y1094D01*
X1764Y1094D01*
X1764Y1090D01*
X1762Y1090D01*
X1762Y1086D01*
X1760Y1086D01*
X1760Y1084D01*
X1758Y1084D01*
X1758Y1080D01*
X1756Y1080D01*
X1756Y1078D01*
X1754Y1078D01*
X1754Y1076D01*
X1752Y1076D01*
X1752Y1074D01*
X1750Y1074D01*
X1750Y1072D01*
X1748Y1072D01*
X1748Y1070D01*
X1746Y1070D01*
X1746Y1068D01*
X1744Y1068D01*
X1744Y1066D01*
X1742Y1066D01*
X1742Y1064D01*
X1738Y1064D01*
X1738Y1062D01*
X1736Y1062D01*
X1736Y1060D01*
X1732Y1060D01*
X1732Y1058D01*
X1728Y1058D01*
X1728Y1056D01*
X1722Y1056D01*
X1722Y1054D01*
X1714Y1054D01*
X1714Y1052D01*
X2054Y1052D01*
X2054Y1054D01*
X2056Y1054D01*
X2056Y1058D01*
X2058Y1058D01*
X2058Y1060D01*
X2060Y1060D01*
X2060Y1062D01*
X2062Y1062D01*
X2062Y1082D01*
X2060Y1082D01*
X2060Y1084D01*
X2058Y1084D01*
X2058Y1086D01*
X2056Y1086D01*
X2056Y1090D01*
X2054Y1090D01*
X2054Y1092D01*
X2052Y1092D01*
X2052Y1096D01*
X2050Y1096D01*
X2050Y1100D01*
X2048Y1100D01*
X2048Y1104D01*
X2046Y1104D01*
X2046Y1112D01*
X2044Y1112D01*
X2044Y1132D01*
X2046Y1132D01*
X2046Y1140D01*
X2048Y1140D01*
X2048Y1144D01*
X2050Y1144D01*
X2050Y1148D01*
X2052Y1148D01*
X2052Y1152D01*
X2054Y1152D01*
X2054Y1154D01*
X2056Y1154D01*
X2056Y1158D01*
X2058Y1158D01*
X2058Y1160D01*
X2060Y1160D01*
X2060Y1162D01*
X2062Y1162D01*
X2062Y1182D01*
X2060Y1182D01*
X2060Y1184D01*
X2058Y1184D01*
X2058Y1186D01*
X2056Y1186D01*
X2056Y1190D01*
X2054Y1190D01*
X2054Y1192D01*
X2052Y1192D01*
X2052Y1196D01*
X2050Y1196D01*
X2050Y1200D01*
X2048Y1200D01*
X2048Y1204D01*
X2046Y1204D01*
X2046Y1212D01*
X2044Y1212D01*
X2044Y1232D01*
X2046Y1232D01*
X2046Y1240D01*
X2048Y1240D01*
X2048Y1244D01*
X2050Y1244D01*
X2050Y1248D01*
X2052Y1248D01*
X2052Y1252D01*
X2054Y1252D01*
X2054Y1254D01*
X2056Y1254D01*
X2056Y1258D01*
X2058Y1258D01*
X2058Y1260D01*
X2060Y1260D01*
X2060Y1262D01*
X2062Y1262D01*
X2062Y1264D01*
X40Y1264D01*
G37*
D02*
G36*
X40Y1192D02*
X40Y1178D01*
X1410Y1178D01*
X1410Y1176D01*
X1418Y1176D01*
X1418Y1174D01*
X1422Y1174D01*
X1422Y1172D01*
X1426Y1172D01*
X1426Y1170D01*
X1430Y1170D01*
X1430Y1168D01*
X1432Y1168D01*
X1432Y1166D01*
X1436Y1166D01*
X1436Y1164D01*
X1438Y1164D01*
X1438Y1162D01*
X1440Y1162D01*
X1440Y1160D01*
X1442Y1160D01*
X1442Y1158D01*
X1444Y1158D01*
X1444Y1154D01*
X1446Y1154D01*
X1446Y1152D01*
X1448Y1152D01*
X1448Y1148D01*
X1450Y1148D01*
X1450Y1144D01*
X1452Y1144D01*
X1452Y1140D01*
X1454Y1140D01*
X1454Y1132D01*
X1456Y1132D01*
X1456Y1112D01*
X1454Y1112D01*
X1454Y1104D01*
X1452Y1104D01*
X1452Y1100D01*
X1450Y1100D01*
X1450Y1096D01*
X1448Y1096D01*
X1448Y1092D01*
X1446Y1092D01*
X1446Y1090D01*
X1444Y1090D01*
X1444Y1086D01*
X1442Y1086D01*
X1442Y1084D01*
X1440Y1084D01*
X1440Y1082D01*
X1438Y1082D01*
X1438Y1080D01*
X1436Y1080D01*
X1436Y1078D01*
X1432Y1078D01*
X1432Y1076D01*
X1430Y1076D01*
X1430Y1074D01*
X1426Y1074D01*
X1426Y1072D01*
X1422Y1072D01*
X1422Y1070D01*
X1418Y1070D01*
X1418Y1068D01*
X1410Y1068D01*
X1410Y1066D01*
X1656Y1066D01*
X1656Y1068D01*
X1654Y1068D01*
X1654Y1070D01*
X1652Y1070D01*
X1652Y1072D01*
X1650Y1072D01*
X1650Y1074D01*
X1648Y1074D01*
X1648Y1076D01*
X1646Y1076D01*
X1646Y1078D01*
X1644Y1078D01*
X1644Y1080D01*
X1642Y1080D01*
X1642Y1084D01*
X1640Y1084D01*
X1640Y1086D01*
X1638Y1086D01*
X1638Y1090D01*
X1636Y1090D01*
X1636Y1094D01*
X1634Y1094D01*
X1634Y1100D01*
X1632Y1100D01*
X1632Y1108D01*
X1630Y1108D01*
X1630Y1136D01*
X1632Y1136D01*
X1632Y1144D01*
X1634Y1144D01*
X1634Y1150D01*
X1636Y1150D01*
X1636Y1154D01*
X1638Y1154D01*
X1638Y1158D01*
X1640Y1158D01*
X1640Y1160D01*
X1642Y1160D01*
X1642Y1164D01*
X1644Y1164D01*
X1644Y1166D01*
X1646Y1166D01*
X1646Y1168D01*
X1648Y1168D01*
X1648Y1170D01*
X1650Y1170D01*
X1650Y1172D01*
X1652Y1172D01*
X1652Y1174D01*
X1654Y1174D01*
X1654Y1176D01*
X1656Y1176D01*
X1656Y1178D01*
X1658Y1178D01*
X1658Y1180D01*
X1662Y1180D01*
X1662Y1182D01*
X1664Y1182D01*
X1664Y1184D01*
X1668Y1184D01*
X1668Y1186D01*
X1672Y1186D01*
X1672Y1188D01*
X1678Y1188D01*
X1678Y1190D01*
X1686Y1190D01*
X1686Y1192D01*
X40Y1192D01*
G37*
D02*
G36*
X2146Y1192D02*
X2146Y1190D01*
X2144Y1190D01*
X2144Y1186D01*
X2142Y1186D01*
X2142Y1184D01*
X2140Y1184D01*
X2140Y1182D01*
X2138Y1182D01*
X2138Y1178D01*
X2810Y1178D01*
X2810Y1176D01*
X2818Y1176D01*
X2818Y1174D01*
X2822Y1174D01*
X2822Y1172D01*
X2826Y1172D01*
X2826Y1170D01*
X2830Y1170D01*
X2830Y1168D01*
X2832Y1168D01*
X2832Y1166D01*
X2836Y1166D01*
X2836Y1164D01*
X2838Y1164D01*
X2838Y1162D01*
X2840Y1162D01*
X2840Y1160D01*
X2842Y1160D01*
X2842Y1158D01*
X2844Y1158D01*
X2844Y1154D01*
X2846Y1154D01*
X2846Y1152D01*
X2848Y1152D01*
X2848Y1148D01*
X2850Y1148D01*
X2850Y1144D01*
X2852Y1144D01*
X2852Y1140D01*
X2854Y1140D01*
X2854Y1132D01*
X2856Y1132D01*
X2856Y1112D01*
X2854Y1112D01*
X2854Y1104D01*
X2852Y1104D01*
X2852Y1100D01*
X2850Y1100D01*
X2850Y1096D01*
X2848Y1096D01*
X2848Y1092D01*
X2846Y1092D01*
X2846Y1090D01*
X2844Y1090D01*
X2844Y1086D01*
X2842Y1086D01*
X2842Y1084D01*
X2840Y1084D01*
X2840Y1082D01*
X2838Y1082D01*
X2838Y1080D01*
X2836Y1080D01*
X2836Y1078D01*
X2832Y1078D01*
X2832Y1076D01*
X2830Y1076D01*
X2830Y1074D01*
X2826Y1074D01*
X2826Y1072D01*
X2822Y1072D01*
X2822Y1070D01*
X2818Y1070D01*
X2818Y1068D01*
X2810Y1068D01*
X2810Y1066D01*
X3056Y1066D01*
X3056Y1068D01*
X3054Y1068D01*
X3054Y1070D01*
X3052Y1070D01*
X3052Y1072D01*
X3050Y1072D01*
X3050Y1074D01*
X3048Y1074D01*
X3048Y1076D01*
X3046Y1076D01*
X3046Y1078D01*
X3044Y1078D01*
X3044Y1080D01*
X3042Y1080D01*
X3042Y1084D01*
X3040Y1084D01*
X3040Y1086D01*
X3038Y1086D01*
X3038Y1090D01*
X3036Y1090D01*
X3036Y1094D01*
X3034Y1094D01*
X3034Y1100D01*
X3032Y1100D01*
X3032Y1108D01*
X3030Y1108D01*
X3030Y1136D01*
X3032Y1136D01*
X3032Y1144D01*
X3034Y1144D01*
X3034Y1150D01*
X3036Y1150D01*
X3036Y1154D01*
X3038Y1154D01*
X3038Y1158D01*
X3040Y1158D01*
X3040Y1160D01*
X3042Y1160D01*
X3042Y1164D01*
X3044Y1164D01*
X3044Y1166D01*
X3046Y1166D01*
X3046Y1168D01*
X3048Y1168D01*
X3048Y1170D01*
X3050Y1170D01*
X3050Y1172D01*
X3052Y1172D01*
X3052Y1174D01*
X3054Y1174D01*
X3054Y1176D01*
X3056Y1176D01*
X3056Y1178D01*
X3058Y1178D01*
X3058Y1180D01*
X3062Y1180D01*
X3062Y1182D01*
X3064Y1182D01*
X3064Y1184D01*
X3068Y1184D01*
X3068Y1186D01*
X3072Y1186D01*
X3072Y1188D01*
X3078Y1188D01*
X3078Y1190D01*
X3086Y1190D01*
X3086Y1192D01*
X2146Y1192D01*
G37*
D02*
G36*
X40Y1178D02*
X40Y1066D01*
X1390Y1066D01*
X1390Y1068D01*
X1382Y1068D01*
X1382Y1070D01*
X1378Y1070D01*
X1378Y1072D01*
X1374Y1072D01*
X1374Y1074D01*
X1370Y1074D01*
X1370Y1076D01*
X1368Y1076D01*
X1368Y1078D01*
X1364Y1078D01*
X1364Y1080D01*
X1362Y1080D01*
X1362Y1082D01*
X1360Y1082D01*
X1360Y1084D01*
X1358Y1084D01*
X1358Y1086D01*
X1356Y1086D01*
X1356Y1090D01*
X1354Y1090D01*
X1354Y1092D01*
X1352Y1092D01*
X1352Y1096D01*
X1350Y1096D01*
X1350Y1100D01*
X1348Y1100D01*
X1348Y1104D01*
X1346Y1104D01*
X1346Y1112D01*
X1344Y1112D01*
X1344Y1132D01*
X1346Y1132D01*
X1346Y1140D01*
X1348Y1140D01*
X1348Y1144D01*
X1350Y1144D01*
X1350Y1148D01*
X1352Y1148D01*
X1352Y1152D01*
X1354Y1152D01*
X1354Y1154D01*
X1356Y1154D01*
X1356Y1158D01*
X1358Y1158D01*
X1358Y1160D01*
X1360Y1160D01*
X1360Y1162D01*
X1362Y1162D01*
X1362Y1164D01*
X1364Y1164D01*
X1364Y1166D01*
X1368Y1166D01*
X1368Y1168D01*
X1370Y1168D01*
X1370Y1170D01*
X1374Y1170D01*
X1374Y1172D01*
X1378Y1172D01*
X1378Y1174D01*
X1382Y1174D01*
X1382Y1176D01*
X1390Y1176D01*
X1390Y1178D01*
X40Y1178D01*
G37*
D02*
G36*
X2138Y1178D02*
X2138Y1162D01*
X2140Y1162D01*
X2140Y1160D01*
X2142Y1160D01*
X2142Y1158D01*
X2144Y1158D01*
X2144Y1154D01*
X2146Y1154D01*
X2146Y1152D01*
X2148Y1152D01*
X2148Y1148D01*
X2150Y1148D01*
X2150Y1144D01*
X2152Y1144D01*
X2152Y1140D01*
X2154Y1140D01*
X2154Y1132D01*
X2156Y1132D01*
X2156Y1112D01*
X2154Y1112D01*
X2154Y1104D01*
X2152Y1104D01*
X2152Y1100D01*
X2150Y1100D01*
X2150Y1096D01*
X2148Y1096D01*
X2148Y1092D01*
X2146Y1092D01*
X2146Y1090D01*
X2144Y1090D01*
X2144Y1086D01*
X2142Y1086D01*
X2142Y1084D01*
X2140Y1084D01*
X2140Y1082D01*
X2138Y1082D01*
X2138Y1066D01*
X2790Y1066D01*
X2790Y1068D01*
X2782Y1068D01*
X2782Y1070D01*
X2778Y1070D01*
X2778Y1072D01*
X2774Y1072D01*
X2774Y1074D01*
X2770Y1074D01*
X2770Y1076D01*
X2768Y1076D01*
X2768Y1078D01*
X2764Y1078D01*
X2764Y1080D01*
X2762Y1080D01*
X2762Y1082D01*
X2760Y1082D01*
X2760Y1084D01*
X2758Y1084D01*
X2758Y1086D01*
X2756Y1086D01*
X2756Y1090D01*
X2754Y1090D01*
X2754Y1092D01*
X2752Y1092D01*
X2752Y1096D01*
X2750Y1096D01*
X2750Y1100D01*
X2748Y1100D01*
X2748Y1104D01*
X2746Y1104D01*
X2746Y1112D01*
X2744Y1112D01*
X2744Y1132D01*
X2746Y1132D01*
X2746Y1140D01*
X2748Y1140D01*
X2748Y1144D01*
X2750Y1144D01*
X2750Y1148D01*
X2752Y1148D01*
X2752Y1152D01*
X2754Y1152D01*
X2754Y1154D01*
X2756Y1154D01*
X2756Y1158D01*
X2758Y1158D01*
X2758Y1160D01*
X2760Y1160D01*
X2760Y1162D01*
X2762Y1162D01*
X2762Y1164D01*
X2764Y1164D01*
X2764Y1166D01*
X2768Y1166D01*
X2768Y1168D01*
X2770Y1168D01*
X2770Y1170D01*
X2774Y1170D01*
X2774Y1172D01*
X2778Y1172D01*
X2778Y1174D01*
X2782Y1174D01*
X2782Y1176D01*
X2790Y1176D01*
X2790Y1178D01*
X2138Y1178D01*
G37*
D02*
G36*
X40Y1066D02*
X40Y1064D01*
X1658Y1064D01*
X1658Y1066D01*
X40Y1066D01*
G37*
D02*
G36*
X40Y1066D02*
X40Y1064D01*
X1658Y1064D01*
X1658Y1066D01*
X40Y1066D01*
G37*
D02*
G36*
X2138Y1066D02*
X2138Y1064D01*
X3058Y1064D01*
X3058Y1066D01*
X2138Y1066D01*
G37*
D02*
G36*
X2138Y1066D02*
X2138Y1064D01*
X3058Y1064D01*
X3058Y1066D01*
X2138Y1066D01*
G37*
D02*
G36*
X40Y1064D02*
X40Y1052D01*
X1686Y1052D01*
X1686Y1054D01*
X1678Y1054D01*
X1678Y1056D01*
X1672Y1056D01*
X1672Y1058D01*
X1668Y1058D01*
X1668Y1060D01*
X1664Y1060D01*
X1664Y1062D01*
X1662Y1062D01*
X1662Y1064D01*
X40Y1064D01*
G37*
D02*
G36*
X2138Y1064D02*
X2138Y1062D01*
X2140Y1062D01*
X2140Y1060D01*
X2142Y1060D01*
X2142Y1058D01*
X2144Y1058D01*
X2144Y1054D01*
X2146Y1054D01*
X2146Y1052D01*
X3086Y1052D01*
X3086Y1054D01*
X3078Y1054D01*
X3078Y1056D01*
X3072Y1056D01*
X3072Y1058D01*
X3068Y1058D01*
X3068Y1060D01*
X3064Y1060D01*
X3064Y1062D01*
X3062Y1062D01*
X3062Y1064D01*
X2138Y1064D01*
G37*
D02*
G36*
X40Y1052D02*
X40Y1050D01*
X2052Y1050D01*
X2052Y1052D01*
X40Y1052D01*
G37*
D02*
G36*
X40Y1052D02*
X40Y1050D01*
X2052Y1050D01*
X2052Y1052D01*
X40Y1052D01*
G37*
D02*
G36*
X2148Y1052D02*
X2148Y1050D01*
X3582Y1050D01*
X3582Y1052D01*
X2148Y1052D01*
G37*
D02*
G36*
X2148Y1052D02*
X2148Y1050D01*
X3582Y1050D01*
X3582Y1052D01*
X2148Y1052D01*
G37*
D02*
G36*
X40Y1050D02*
X40Y1004D01*
X1714Y1004D01*
X1714Y1002D01*
X1722Y1002D01*
X1722Y1000D01*
X1728Y1000D01*
X1728Y998D01*
X1732Y998D01*
X1732Y996D01*
X1736Y996D01*
X1736Y994D01*
X1740Y994D01*
X1740Y992D01*
X1742Y992D01*
X1742Y990D01*
X1746Y990D01*
X1746Y988D01*
X1748Y988D01*
X1748Y986D01*
X1750Y986D01*
X1750Y984D01*
X1752Y984D01*
X1752Y982D01*
X1754Y982D01*
X1754Y980D01*
X1756Y980D01*
X1756Y978D01*
X1758Y978D01*
X1758Y976D01*
X1760Y976D01*
X1760Y974D01*
X1762Y974D01*
X1762Y972D01*
X1764Y972D01*
X1764Y968D01*
X1766Y968D01*
X1766Y966D01*
X1768Y966D01*
X1768Y962D01*
X1770Y962D01*
X1770Y958D01*
X1772Y958D01*
X1772Y954D01*
X1774Y954D01*
X1774Y950D01*
X1776Y950D01*
X1776Y944D01*
X1778Y944D01*
X1778Y934D01*
X1780Y934D01*
X1780Y910D01*
X1778Y910D01*
X1778Y900D01*
X1776Y900D01*
X1776Y894D01*
X1774Y894D01*
X1774Y890D01*
X1772Y890D01*
X1772Y886D01*
X1770Y886D01*
X1770Y882D01*
X1768Y882D01*
X1768Y878D01*
X1766Y878D01*
X1766Y876D01*
X1764Y876D01*
X1764Y872D01*
X1762Y872D01*
X1762Y870D01*
X1760Y870D01*
X1760Y868D01*
X1758Y868D01*
X1758Y866D01*
X2090Y866D01*
X2090Y868D01*
X2082Y868D01*
X2082Y870D01*
X2078Y870D01*
X2078Y872D01*
X2074Y872D01*
X2074Y874D01*
X2070Y874D01*
X2070Y876D01*
X2068Y876D01*
X2068Y878D01*
X2064Y878D01*
X2064Y880D01*
X2062Y880D01*
X2062Y882D01*
X2060Y882D01*
X2060Y884D01*
X2058Y884D01*
X2058Y886D01*
X2056Y886D01*
X2056Y890D01*
X2054Y890D01*
X2054Y892D01*
X2052Y892D01*
X2052Y896D01*
X2050Y896D01*
X2050Y900D01*
X2048Y900D01*
X2048Y904D01*
X2046Y904D01*
X2046Y912D01*
X2044Y912D01*
X2044Y932D01*
X2046Y932D01*
X2046Y940D01*
X2048Y940D01*
X2048Y944D01*
X2050Y944D01*
X2050Y948D01*
X2052Y948D01*
X2052Y952D01*
X2054Y952D01*
X2054Y954D01*
X2056Y954D01*
X2056Y958D01*
X2058Y958D01*
X2058Y960D01*
X2060Y960D01*
X2060Y962D01*
X2062Y962D01*
X2062Y982D01*
X2060Y982D01*
X2060Y984D01*
X2058Y984D01*
X2058Y986D01*
X2056Y986D01*
X2056Y990D01*
X2054Y990D01*
X2054Y992D01*
X2052Y992D01*
X2052Y996D01*
X2050Y996D01*
X2050Y1000D01*
X2048Y1000D01*
X2048Y1004D01*
X2046Y1004D01*
X2046Y1012D01*
X2044Y1012D01*
X2044Y1032D01*
X2046Y1032D01*
X2046Y1040D01*
X2048Y1040D01*
X2048Y1044D01*
X2050Y1044D01*
X2050Y1048D01*
X2052Y1048D01*
X2052Y1050D01*
X40Y1050D01*
G37*
D02*
G36*
X2148Y1050D02*
X2148Y1048D01*
X2150Y1048D01*
X2150Y1044D01*
X2152Y1044D01*
X2152Y1040D01*
X2154Y1040D01*
X2154Y1032D01*
X2156Y1032D01*
X2156Y1012D01*
X2154Y1012D01*
X2154Y1004D01*
X3114Y1004D01*
X3114Y1002D01*
X3122Y1002D01*
X3122Y1000D01*
X3128Y1000D01*
X3128Y998D01*
X3132Y998D01*
X3132Y996D01*
X3136Y996D01*
X3136Y994D01*
X3140Y994D01*
X3140Y992D01*
X3142Y992D01*
X3142Y990D01*
X3146Y990D01*
X3146Y988D01*
X3148Y988D01*
X3148Y986D01*
X3150Y986D01*
X3150Y984D01*
X3152Y984D01*
X3152Y982D01*
X3154Y982D01*
X3154Y980D01*
X3156Y980D01*
X3156Y978D01*
X3158Y978D01*
X3158Y976D01*
X3160Y976D01*
X3160Y974D01*
X3162Y974D01*
X3162Y972D01*
X3164Y972D01*
X3164Y968D01*
X3166Y968D01*
X3166Y966D01*
X3168Y966D01*
X3168Y962D01*
X3170Y962D01*
X3170Y958D01*
X3172Y958D01*
X3172Y954D01*
X3174Y954D01*
X3174Y950D01*
X3176Y950D01*
X3176Y944D01*
X3178Y944D01*
X3178Y934D01*
X3180Y934D01*
X3180Y910D01*
X3178Y910D01*
X3178Y900D01*
X3176Y900D01*
X3176Y894D01*
X3174Y894D01*
X3174Y890D01*
X3172Y890D01*
X3172Y886D01*
X3170Y886D01*
X3170Y882D01*
X3168Y882D01*
X3168Y878D01*
X3166Y878D01*
X3166Y876D01*
X3164Y876D01*
X3164Y872D01*
X3162Y872D01*
X3162Y870D01*
X3160Y870D01*
X3160Y868D01*
X3158Y868D01*
X3158Y866D01*
X3156Y866D01*
X3156Y864D01*
X3154Y864D01*
X3154Y862D01*
X3152Y862D01*
X3152Y842D01*
X3154Y842D01*
X3154Y840D01*
X3156Y840D01*
X3156Y836D01*
X3158Y836D01*
X3158Y834D01*
X3160Y834D01*
X3160Y830D01*
X3162Y830D01*
X3162Y826D01*
X3164Y826D01*
X3164Y822D01*
X3166Y822D01*
X3166Y818D01*
X3168Y818D01*
X3168Y810D01*
X3170Y810D01*
X3170Y782D01*
X3168Y782D01*
X3168Y774D01*
X3166Y774D01*
X3166Y768D01*
X3164Y768D01*
X3164Y764D01*
X3162Y764D01*
X3162Y760D01*
X3160Y760D01*
X3160Y756D01*
X3158Y756D01*
X3158Y754D01*
X3156Y754D01*
X3156Y752D01*
X3154Y752D01*
X3154Y748D01*
X3152Y748D01*
X3152Y746D01*
X3150Y746D01*
X3150Y744D01*
X3148Y744D01*
X3148Y724D01*
X3150Y724D01*
X3150Y722D01*
X3152Y722D01*
X3152Y720D01*
X3154Y720D01*
X3154Y718D01*
X3156Y718D01*
X3156Y714D01*
X3158Y714D01*
X3158Y712D01*
X3160Y712D01*
X3160Y708D01*
X3162Y708D01*
X3162Y704D01*
X3164Y704D01*
X3164Y700D01*
X3166Y700D01*
X3166Y696D01*
X3168Y696D01*
X3168Y688D01*
X3170Y688D01*
X3170Y660D01*
X3168Y660D01*
X3168Y652D01*
X3166Y652D01*
X3166Y646D01*
X3164Y646D01*
X3164Y642D01*
X3162Y642D01*
X3162Y638D01*
X3160Y638D01*
X3160Y634D01*
X3158Y634D01*
X3158Y632D01*
X3156Y632D01*
X3156Y630D01*
X3154Y630D01*
X3154Y626D01*
X3152Y626D01*
X3152Y624D01*
X3150Y624D01*
X3150Y622D01*
X3148Y622D01*
X3148Y620D01*
X3146Y620D01*
X3146Y618D01*
X3142Y618D01*
X3142Y616D01*
X3140Y616D01*
X3140Y614D01*
X3136Y614D01*
X3136Y612D01*
X3134Y612D01*
X3134Y610D01*
X3130Y610D01*
X3130Y608D01*
X3124Y608D01*
X3124Y606D01*
X3118Y606D01*
X3118Y604D01*
X3106Y604D01*
X3106Y602D01*
X3582Y602D01*
X3582Y1050D01*
X2148Y1050D01*
G37*
D02*
G36*
X40Y1004D02*
X40Y978D01*
X1410Y978D01*
X1410Y976D01*
X1418Y976D01*
X1418Y974D01*
X1422Y974D01*
X1422Y972D01*
X1426Y972D01*
X1426Y970D01*
X1430Y970D01*
X1430Y968D01*
X1432Y968D01*
X1432Y966D01*
X1436Y966D01*
X1436Y964D01*
X1438Y964D01*
X1438Y962D01*
X1440Y962D01*
X1440Y960D01*
X1442Y960D01*
X1442Y958D01*
X1444Y958D01*
X1444Y954D01*
X1446Y954D01*
X1446Y952D01*
X1448Y952D01*
X1448Y948D01*
X1450Y948D01*
X1450Y944D01*
X1452Y944D01*
X1452Y940D01*
X1454Y940D01*
X1454Y932D01*
X1456Y932D01*
X1456Y912D01*
X1454Y912D01*
X1454Y904D01*
X1452Y904D01*
X1452Y900D01*
X1450Y900D01*
X1450Y896D01*
X1448Y896D01*
X1448Y892D01*
X1446Y892D01*
X1446Y890D01*
X1444Y890D01*
X1444Y886D01*
X1442Y886D01*
X1442Y884D01*
X1440Y884D01*
X1440Y882D01*
X1438Y882D01*
X1438Y880D01*
X1436Y880D01*
X1436Y878D01*
X1432Y878D01*
X1432Y876D01*
X1430Y876D01*
X1430Y874D01*
X1426Y874D01*
X1426Y872D01*
X1422Y872D01*
X1422Y870D01*
X1418Y870D01*
X1418Y868D01*
X1410Y868D01*
X1410Y866D01*
X1642Y866D01*
X1642Y868D01*
X1640Y868D01*
X1640Y870D01*
X1638Y870D01*
X1638Y872D01*
X1636Y872D01*
X1636Y876D01*
X1634Y876D01*
X1634Y878D01*
X1632Y878D01*
X1632Y882D01*
X1630Y882D01*
X1630Y886D01*
X1628Y886D01*
X1628Y890D01*
X1626Y890D01*
X1626Y894D01*
X1624Y894D01*
X1624Y900D01*
X1622Y900D01*
X1622Y910D01*
X1620Y910D01*
X1620Y934D01*
X1622Y934D01*
X1622Y944D01*
X1624Y944D01*
X1624Y950D01*
X1626Y950D01*
X1626Y954D01*
X1628Y954D01*
X1628Y958D01*
X1630Y958D01*
X1630Y962D01*
X1632Y962D01*
X1632Y966D01*
X1634Y966D01*
X1634Y968D01*
X1636Y968D01*
X1636Y972D01*
X1638Y972D01*
X1638Y974D01*
X1640Y974D01*
X1640Y976D01*
X1642Y976D01*
X1642Y978D01*
X1644Y978D01*
X1644Y982D01*
X1646Y982D01*
X1646Y984D01*
X1650Y984D01*
X1650Y986D01*
X1652Y986D01*
X1652Y988D01*
X1654Y988D01*
X1654Y990D01*
X1656Y990D01*
X1656Y992D01*
X1660Y992D01*
X1660Y994D01*
X1664Y994D01*
X1664Y996D01*
X1668Y996D01*
X1668Y998D01*
X1672Y998D01*
X1672Y1000D01*
X1678Y1000D01*
X1678Y1002D01*
X1686Y1002D01*
X1686Y1004D01*
X40Y1004D01*
G37*
D02*
G36*
X2152Y1004D02*
X2152Y1000D01*
X2150Y1000D01*
X2150Y996D01*
X2148Y996D01*
X2148Y992D01*
X2146Y992D01*
X2146Y990D01*
X2144Y990D01*
X2144Y986D01*
X2142Y986D01*
X2142Y984D01*
X2140Y984D01*
X2140Y982D01*
X2138Y982D01*
X2138Y978D01*
X2810Y978D01*
X2810Y976D01*
X2818Y976D01*
X2818Y974D01*
X2822Y974D01*
X2822Y972D01*
X2826Y972D01*
X2826Y970D01*
X2830Y970D01*
X2830Y968D01*
X2832Y968D01*
X2832Y966D01*
X2836Y966D01*
X2836Y964D01*
X2838Y964D01*
X2838Y962D01*
X2840Y962D01*
X2840Y960D01*
X2842Y960D01*
X2842Y958D01*
X2844Y958D01*
X2844Y954D01*
X2846Y954D01*
X2846Y952D01*
X2848Y952D01*
X2848Y948D01*
X2850Y948D01*
X2850Y944D01*
X2852Y944D01*
X2852Y940D01*
X2854Y940D01*
X2854Y932D01*
X2856Y932D01*
X2856Y912D01*
X2854Y912D01*
X2854Y904D01*
X2852Y904D01*
X2852Y900D01*
X2850Y900D01*
X2850Y896D01*
X2848Y896D01*
X2848Y892D01*
X2846Y892D01*
X2846Y890D01*
X2844Y890D01*
X2844Y886D01*
X2842Y886D01*
X2842Y884D01*
X2840Y884D01*
X2840Y882D01*
X2838Y882D01*
X2838Y880D01*
X2836Y880D01*
X2836Y878D01*
X2832Y878D01*
X2832Y876D01*
X2830Y876D01*
X2830Y874D01*
X2826Y874D01*
X2826Y872D01*
X2822Y872D01*
X2822Y870D01*
X2818Y870D01*
X2818Y868D01*
X2810Y868D01*
X2810Y866D01*
X3042Y866D01*
X3042Y868D01*
X3040Y868D01*
X3040Y870D01*
X3038Y870D01*
X3038Y872D01*
X3036Y872D01*
X3036Y876D01*
X3034Y876D01*
X3034Y878D01*
X3032Y878D01*
X3032Y882D01*
X3030Y882D01*
X3030Y886D01*
X3028Y886D01*
X3028Y890D01*
X3026Y890D01*
X3026Y894D01*
X3024Y894D01*
X3024Y900D01*
X3022Y900D01*
X3022Y910D01*
X3020Y910D01*
X3020Y934D01*
X3022Y934D01*
X3022Y944D01*
X3024Y944D01*
X3024Y950D01*
X3026Y950D01*
X3026Y954D01*
X3028Y954D01*
X3028Y958D01*
X3030Y958D01*
X3030Y962D01*
X3032Y962D01*
X3032Y966D01*
X3034Y966D01*
X3034Y968D01*
X3036Y968D01*
X3036Y972D01*
X3038Y972D01*
X3038Y974D01*
X3040Y974D01*
X3040Y976D01*
X3042Y976D01*
X3042Y978D01*
X3044Y978D01*
X3044Y982D01*
X3046Y982D01*
X3046Y984D01*
X3050Y984D01*
X3050Y986D01*
X3052Y986D01*
X3052Y988D01*
X3054Y988D01*
X3054Y990D01*
X3056Y990D01*
X3056Y992D01*
X3060Y992D01*
X3060Y994D01*
X3064Y994D01*
X3064Y996D01*
X3068Y996D01*
X3068Y998D01*
X3072Y998D01*
X3072Y1000D01*
X3078Y1000D01*
X3078Y1002D01*
X3086Y1002D01*
X3086Y1004D01*
X2152Y1004D01*
G37*
D02*
G36*
X40Y978D02*
X40Y866D01*
X1390Y866D01*
X1390Y868D01*
X1382Y868D01*
X1382Y870D01*
X1378Y870D01*
X1378Y872D01*
X1374Y872D01*
X1374Y874D01*
X1370Y874D01*
X1370Y876D01*
X1368Y876D01*
X1368Y878D01*
X1364Y878D01*
X1364Y880D01*
X1362Y880D01*
X1362Y882D01*
X1360Y882D01*
X1360Y884D01*
X1358Y884D01*
X1358Y886D01*
X1356Y886D01*
X1356Y890D01*
X1354Y890D01*
X1354Y892D01*
X1352Y892D01*
X1352Y896D01*
X1350Y896D01*
X1350Y900D01*
X1348Y900D01*
X1348Y904D01*
X1346Y904D01*
X1346Y912D01*
X1344Y912D01*
X1344Y932D01*
X1346Y932D01*
X1346Y940D01*
X1348Y940D01*
X1348Y944D01*
X1350Y944D01*
X1350Y948D01*
X1352Y948D01*
X1352Y952D01*
X1354Y952D01*
X1354Y954D01*
X1356Y954D01*
X1356Y958D01*
X1358Y958D01*
X1358Y960D01*
X1360Y960D01*
X1360Y962D01*
X1362Y962D01*
X1362Y964D01*
X1364Y964D01*
X1364Y966D01*
X1368Y966D01*
X1368Y968D01*
X1370Y968D01*
X1370Y970D01*
X1374Y970D01*
X1374Y972D01*
X1378Y972D01*
X1378Y974D01*
X1382Y974D01*
X1382Y976D01*
X1390Y976D01*
X1390Y978D01*
X40Y978D01*
G37*
D02*
G36*
X2138Y978D02*
X2138Y962D01*
X2140Y962D01*
X2140Y960D01*
X2142Y960D01*
X2142Y958D01*
X2144Y958D01*
X2144Y954D01*
X2146Y954D01*
X2146Y952D01*
X2148Y952D01*
X2148Y948D01*
X2150Y948D01*
X2150Y944D01*
X2152Y944D01*
X2152Y940D01*
X2154Y940D01*
X2154Y932D01*
X2156Y932D01*
X2156Y912D01*
X2154Y912D01*
X2154Y904D01*
X2152Y904D01*
X2152Y900D01*
X2150Y900D01*
X2150Y896D01*
X2148Y896D01*
X2148Y892D01*
X2146Y892D01*
X2146Y890D01*
X2144Y890D01*
X2144Y886D01*
X2142Y886D01*
X2142Y884D01*
X2140Y884D01*
X2140Y882D01*
X2138Y882D01*
X2138Y880D01*
X2136Y880D01*
X2136Y878D01*
X2132Y878D01*
X2132Y876D01*
X2130Y876D01*
X2130Y874D01*
X2126Y874D01*
X2126Y872D01*
X2122Y872D01*
X2122Y870D01*
X2118Y870D01*
X2118Y868D01*
X2110Y868D01*
X2110Y866D01*
X2790Y866D01*
X2790Y868D01*
X2782Y868D01*
X2782Y870D01*
X2778Y870D01*
X2778Y872D01*
X2774Y872D01*
X2774Y874D01*
X2770Y874D01*
X2770Y876D01*
X2768Y876D01*
X2768Y878D01*
X2764Y878D01*
X2764Y880D01*
X2762Y880D01*
X2762Y882D01*
X2760Y882D01*
X2760Y884D01*
X2758Y884D01*
X2758Y886D01*
X2756Y886D01*
X2756Y890D01*
X2754Y890D01*
X2754Y892D01*
X2752Y892D01*
X2752Y896D01*
X2750Y896D01*
X2750Y900D01*
X2748Y900D01*
X2748Y904D01*
X2746Y904D01*
X2746Y912D01*
X2744Y912D01*
X2744Y932D01*
X2746Y932D01*
X2746Y940D01*
X2748Y940D01*
X2748Y944D01*
X2750Y944D01*
X2750Y948D01*
X2752Y948D01*
X2752Y952D01*
X2754Y952D01*
X2754Y954D01*
X2756Y954D01*
X2756Y958D01*
X2758Y958D01*
X2758Y960D01*
X2760Y960D01*
X2760Y962D01*
X2762Y962D01*
X2762Y964D01*
X2764Y964D01*
X2764Y966D01*
X2768Y966D01*
X2768Y968D01*
X2770Y968D01*
X2770Y970D01*
X2774Y970D01*
X2774Y972D01*
X2778Y972D01*
X2778Y974D01*
X2782Y974D01*
X2782Y976D01*
X2790Y976D01*
X2790Y978D01*
X2138Y978D01*
G37*
D02*
G36*
X40Y866D02*
X40Y864D01*
X1644Y864D01*
X1644Y866D01*
X40Y866D01*
G37*
D02*
G36*
X40Y866D02*
X40Y864D01*
X1644Y864D01*
X1644Y866D01*
X40Y866D01*
G37*
D02*
G36*
X1756Y866D02*
X1756Y864D01*
X3044Y864D01*
X3044Y866D01*
X1756Y866D01*
G37*
D02*
G36*
X1756Y866D02*
X1756Y864D01*
X3044Y864D01*
X3044Y866D01*
X1756Y866D01*
G37*
D02*
G36*
X1756Y866D02*
X1756Y864D01*
X3044Y864D01*
X3044Y866D01*
X1756Y866D01*
G37*
D02*
G36*
X40Y864D02*
X40Y602D01*
X1694Y602D01*
X1694Y604D01*
X1682Y604D01*
X1682Y606D01*
X1676Y606D01*
X1676Y608D01*
X1670Y608D01*
X1670Y610D01*
X1666Y610D01*
X1666Y612D01*
X1664Y612D01*
X1664Y614D01*
X1660Y614D01*
X1660Y616D01*
X1658Y616D01*
X1658Y618D01*
X1656Y618D01*
X1656Y620D01*
X1652Y620D01*
X1652Y622D01*
X1650Y622D01*
X1650Y624D01*
X1648Y624D01*
X1648Y626D01*
X1646Y626D01*
X1646Y630D01*
X1644Y630D01*
X1644Y632D01*
X1642Y632D01*
X1642Y634D01*
X1640Y634D01*
X1640Y638D01*
X1638Y638D01*
X1638Y642D01*
X1636Y642D01*
X1636Y646D01*
X1634Y646D01*
X1634Y652D01*
X1632Y652D01*
X1632Y660D01*
X1630Y660D01*
X1630Y688D01*
X1632Y688D01*
X1632Y694D01*
X1634Y694D01*
X1634Y700D01*
X1636Y700D01*
X1636Y704D01*
X1638Y704D01*
X1638Y708D01*
X1640Y708D01*
X1640Y712D01*
X1642Y712D01*
X1642Y714D01*
X1644Y714D01*
X1644Y718D01*
X1646Y718D01*
X1646Y720D01*
X1648Y720D01*
X1648Y722D01*
X1650Y722D01*
X1650Y724D01*
X1652Y724D01*
X1652Y744D01*
X1650Y744D01*
X1650Y746D01*
X1648Y746D01*
X1648Y748D01*
X1646Y748D01*
X1646Y752D01*
X1644Y752D01*
X1644Y754D01*
X1642Y754D01*
X1642Y756D01*
X1640Y756D01*
X1640Y760D01*
X1638Y760D01*
X1638Y764D01*
X1636Y764D01*
X1636Y768D01*
X1634Y768D01*
X1634Y774D01*
X1632Y774D01*
X1632Y782D01*
X1630Y782D01*
X1630Y810D01*
X1632Y810D01*
X1632Y818D01*
X1634Y818D01*
X1634Y822D01*
X1636Y822D01*
X1636Y826D01*
X1638Y826D01*
X1638Y830D01*
X1640Y830D01*
X1640Y834D01*
X1642Y834D01*
X1642Y836D01*
X1644Y836D01*
X1644Y840D01*
X1646Y840D01*
X1646Y842D01*
X1648Y842D01*
X1648Y862D01*
X1646Y862D01*
X1646Y864D01*
X40Y864D01*
G37*
D02*
G36*
X1754Y864D02*
X1754Y862D01*
X1752Y862D01*
X1752Y842D01*
X1754Y842D01*
X1754Y840D01*
X1756Y840D01*
X1756Y836D01*
X1758Y836D01*
X1758Y834D01*
X1760Y834D01*
X1760Y830D01*
X1762Y830D01*
X1762Y826D01*
X1764Y826D01*
X1764Y822D01*
X1766Y822D01*
X1766Y818D01*
X1768Y818D01*
X1768Y810D01*
X1770Y810D01*
X1770Y782D01*
X1768Y782D01*
X1768Y774D01*
X1766Y774D01*
X1766Y768D01*
X1764Y768D01*
X1764Y764D01*
X1762Y764D01*
X1762Y760D01*
X1760Y760D01*
X1760Y756D01*
X1758Y756D01*
X1758Y754D01*
X1756Y754D01*
X1756Y752D01*
X1754Y752D01*
X1754Y748D01*
X1752Y748D01*
X1752Y746D01*
X1750Y746D01*
X1750Y744D01*
X1748Y744D01*
X1748Y724D01*
X1750Y724D01*
X1750Y722D01*
X1752Y722D01*
X1752Y720D01*
X1754Y720D01*
X1754Y718D01*
X1756Y718D01*
X1756Y714D01*
X1758Y714D01*
X1758Y712D01*
X1760Y712D01*
X1760Y708D01*
X1762Y708D01*
X1762Y704D01*
X1764Y704D01*
X1764Y700D01*
X1766Y700D01*
X1766Y696D01*
X1768Y696D01*
X1768Y688D01*
X1770Y688D01*
X1770Y660D01*
X1768Y660D01*
X1768Y652D01*
X1766Y652D01*
X1766Y646D01*
X1764Y646D01*
X1764Y642D01*
X1762Y642D01*
X1762Y638D01*
X1760Y638D01*
X1760Y634D01*
X1758Y634D01*
X1758Y632D01*
X1756Y632D01*
X1756Y630D01*
X1754Y630D01*
X1754Y626D01*
X1752Y626D01*
X1752Y624D01*
X1750Y624D01*
X1750Y622D01*
X1748Y622D01*
X1748Y620D01*
X1746Y620D01*
X1746Y618D01*
X1742Y618D01*
X1742Y616D01*
X1740Y616D01*
X1740Y614D01*
X1736Y614D01*
X1736Y612D01*
X1734Y612D01*
X1734Y610D01*
X1730Y610D01*
X1730Y608D01*
X1724Y608D01*
X1724Y606D01*
X1718Y606D01*
X1718Y604D01*
X1706Y604D01*
X1706Y602D01*
X3094Y602D01*
X3094Y604D01*
X3082Y604D01*
X3082Y606D01*
X3076Y606D01*
X3076Y608D01*
X3070Y608D01*
X3070Y610D01*
X3066Y610D01*
X3066Y612D01*
X3064Y612D01*
X3064Y614D01*
X3060Y614D01*
X3060Y616D01*
X3058Y616D01*
X3058Y618D01*
X3056Y618D01*
X3056Y620D01*
X3052Y620D01*
X3052Y622D01*
X3050Y622D01*
X3050Y624D01*
X3048Y624D01*
X3048Y626D01*
X3046Y626D01*
X3046Y630D01*
X3044Y630D01*
X3044Y632D01*
X3042Y632D01*
X3042Y634D01*
X3040Y634D01*
X3040Y638D01*
X3038Y638D01*
X3038Y642D01*
X3036Y642D01*
X3036Y646D01*
X3034Y646D01*
X3034Y652D01*
X3032Y652D01*
X3032Y660D01*
X3030Y660D01*
X3030Y688D01*
X3032Y688D01*
X3032Y694D01*
X3034Y694D01*
X3034Y700D01*
X3036Y700D01*
X3036Y704D01*
X3038Y704D01*
X3038Y708D01*
X3040Y708D01*
X3040Y712D01*
X3042Y712D01*
X3042Y714D01*
X3044Y714D01*
X3044Y718D01*
X3046Y718D01*
X3046Y720D01*
X3048Y720D01*
X3048Y722D01*
X3050Y722D01*
X3050Y724D01*
X3052Y724D01*
X3052Y744D01*
X3050Y744D01*
X3050Y746D01*
X3048Y746D01*
X3048Y748D01*
X3046Y748D01*
X3046Y752D01*
X3044Y752D01*
X3044Y754D01*
X3042Y754D01*
X3042Y756D01*
X3040Y756D01*
X3040Y760D01*
X3038Y760D01*
X3038Y764D01*
X3036Y764D01*
X3036Y768D01*
X3034Y768D01*
X3034Y774D01*
X3032Y774D01*
X3032Y782D01*
X3030Y782D01*
X3030Y810D01*
X3032Y810D01*
X3032Y818D01*
X3034Y818D01*
X3034Y822D01*
X3036Y822D01*
X3036Y826D01*
X3038Y826D01*
X3038Y830D01*
X3040Y830D01*
X3040Y834D01*
X3042Y834D01*
X3042Y836D01*
X3044Y836D01*
X3044Y840D01*
X3046Y840D01*
X3046Y842D01*
X3048Y842D01*
X3048Y862D01*
X3046Y862D01*
X3046Y864D01*
X1754Y864D01*
G37*
D02*
G36*
X40Y602D02*
X40Y600D01*
X3582Y600D01*
X3582Y602D01*
X40Y602D01*
G37*
D02*
G36*
X40Y602D02*
X40Y600D01*
X3582Y600D01*
X3582Y602D01*
X40Y602D01*
G37*
D02*
G36*
X40Y602D02*
X40Y600D01*
X3582Y600D01*
X3582Y602D01*
X40Y602D01*
G37*
D02*
G36*
X40Y600D02*
X40Y282D01*
X3412Y282D01*
X3412Y280D01*
X3420Y280D01*
X3420Y278D01*
X3424Y278D01*
X3424Y276D01*
X3428Y276D01*
X3428Y274D01*
X3432Y274D01*
X3432Y272D01*
X3434Y272D01*
X3434Y270D01*
X3438Y270D01*
X3438Y268D01*
X3440Y268D01*
X3440Y266D01*
X3442Y266D01*
X3442Y264D01*
X3444Y264D01*
X3444Y262D01*
X3446Y262D01*
X3446Y260D01*
X3448Y260D01*
X3448Y256D01*
X3450Y256D01*
X3450Y254D01*
X3452Y254D01*
X3452Y250D01*
X3454Y250D01*
X3454Y246D01*
X3456Y246D01*
X3456Y242D01*
X3458Y242D01*
X3458Y234D01*
X3460Y234D01*
X3460Y210D01*
X3458Y210D01*
X3458Y202D01*
X3456Y202D01*
X3456Y198D01*
X3454Y198D01*
X3454Y194D01*
X3452Y194D01*
X3452Y190D01*
X3450Y190D01*
X3450Y188D01*
X3448Y188D01*
X3448Y184D01*
X3446Y184D01*
X3446Y182D01*
X3444Y182D01*
X3444Y180D01*
X3442Y180D01*
X3442Y178D01*
X3440Y178D01*
X3440Y176D01*
X3438Y176D01*
X3438Y174D01*
X3434Y174D01*
X3434Y172D01*
X3432Y172D01*
X3432Y170D01*
X3428Y170D01*
X3428Y168D01*
X3424Y168D01*
X3424Y166D01*
X3420Y166D01*
X3420Y164D01*
X3412Y164D01*
X3412Y162D01*
X3582Y162D01*
X3582Y600D01*
X40Y600D01*
G37*
D02*
G36*
X40Y282D02*
X40Y162D01*
X188Y162D01*
X188Y164D01*
X180Y164D01*
X180Y166D01*
X176Y166D01*
X176Y168D01*
X172Y168D01*
X172Y170D01*
X168Y170D01*
X168Y172D01*
X166Y172D01*
X166Y174D01*
X162Y174D01*
X162Y176D01*
X160Y176D01*
X160Y178D01*
X158Y178D01*
X158Y180D01*
X156Y180D01*
X156Y182D01*
X154Y182D01*
X154Y184D01*
X152Y184D01*
X152Y188D01*
X150Y188D01*
X150Y190D01*
X148Y190D01*
X148Y194D01*
X146Y194D01*
X146Y198D01*
X144Y198D01*
X144Y202D01*
X142Y202D01*
X142Y210D01*
X140Y210D01*
X140Y234D01*
X142Y234D01*
X142Y242D01*
X144Y242D01*
X144Y246D01*
X146Y246D01*
X146Y250D01*
X148Y250D01*
X148Y254D01*
X150Y254D01*
X150Y256D01*
X152Y256D01*
X152Y260D01*
X154Y260D01*
X154Y262D01*
X156Y262D01*
X156Y264D01*
X158Y264D01*
X158Y266D01*
X160Y266D01*
X160Y268D01*
X162Y268D01*
X162Y270D01*
X166Y270D01*
X166Y272D01*
X168Y272D01*
X168Y274D01*
X172Y274D01*
X172Y276D01*
X176Y276D01*
X176Y278D01*
X180Y278D01*
X180Y280D01*
X188Y280D01*
X188Y282D01*
X40Y282D01*
G37*
D02*
G36*
X212Y282D02*
X212Y280D01*
X220Y280D01*
X220Y278D01*
X224Y278D01*
X224Y276D01*
X228Y276D01*
X228Y274D01*
X232Y274D01*
X232Y272D01*
X234Y272D01*
X234Y270D01*
X238Y270D01*
X238Y268D01*
X240Y268D01*
X240Y266D01*
X242Y266D01*
X242Y264D01*
X244Y264D01*
X244Y262D01*
X246Y262D01*
X246Y260D01*
X248Y260D01*
X248Y258D01*
X250Y258D01*
X250Y254D01*
X252Y254D01*
X252Y250D01*
X254Y250D01*
X254Y246D01*
X256Y246D01*
X256Y242D01*
X258Y242D01*
X258Y234D01*
X260Y234D01*
X260Y210D01*
X258Y210D01*
X258Y202D01*
X256Y202D01*
X256Y198D01*
X254Y198D01*
X254Y194D01*
X252Y194D01*
X252Y190D01*
X250Y190D01*
X250Y186D01*
X248Y186D01*
X248Y184D01*
X246Y184D01*
X246Y182D01*
X244Y182D01*
X244Y180D01*
X242Y180D01*
X242Y178D01*
X240Y178D01*
X240Y176D01*
X238Y176D01*
X238Y174D01*
X234Y174D01*
X234Y172D01*
X232Y172D01*
X232Y170D01*
X228Y170D01*
X228Y168D01*
X224Y168D01*
X224Y166D01*
X220Y166D01*
X220Y164D01*
X212Y164D01*
X212Y162D01*
X3388Y162D01*
X3388Y164D01*
X3380Y164D01*
X3380Y166D01*
X3376Y166D01*
X3376Y168D01*
X3372Y168D01*
X3372Y170D01*
X3368Y170D01*
X3368Y172D01*
X3366Y172D01*
X3366Y174D01*
X3362Y174D01*
X3362Y176D01*
X3360Y176D01*
X3360Y178D01*
X3358Y178D01*
X3358Y180D01*
X3356Y180D01*
X3356Y182D01*
X3354Y182D01*
X3354Y184D01*
X3352Y184D01*
X3352Y188D01*
X3350Y188D01*
X3350Y190D01*
X3348Y190D01*
X3348Y194D01*
X3346Y194D01*
X3346Y198D01*
X3344Y198D01*
X3344Y202D01*
X3342Y202D01*
X3342Y210D01*
X3340Y210D01*
X3340Y234D01*
X3342Y234D01*
X3342Y242D01*
X3344Y242D01*
X3344Y246D01*
X3346Y246D01*
X3346Y250D01*
X3348Y250D01*
X3348Y254D01*
X3350Y254D01*
X3350Y256D01*
X3352Y256D01*
X3352Y260D01*
X3354Y260D01*
X3354Y262D01*
X3356Y262D01*
X3356Y264D01*
X3358Y264D01*
X3358Y266D01*
X3360Y266D01*
X3360Y268D01*
X3362Y268D01*
X3362Y270D01*
X3366Y270D01*
X3366Y272D01*
X3368Y272D01*
X3368Y274D01*
X3372Y274D01*
X3372Y276D01*
X3376Y276D01*
X3376Y278D01*
X3380Y278D01*
X3380Y280D01*
X3388Y280D01*
X3388Y282D01*
X212Y282D01*
G37*
D02*
G36*
X40Y162D02*
X40Y160D01*
X3582Y160D01*
X3582Y162D01*
X40Y162D01*
G37*
D02*
G36*
X40Y162D02*
X40Y160D01*
X3582Y160D01*
X3582Y162D01*
X40Y162D01*
G37*
D02*
G36*
X40Y162D02*
X40Y160D01*
X3582Y160D01*
X3582Y162D01*
X40Y162D01*
G37*
D02*
G36*
X40Y160D02*
X40Y40D01*
X3582Y40D01*
X3582Y160D01*
X40Y160D01*
G37*
D02*
G36*
X3068Y646D02*
X3127Y646D01*
X3127Y602D01*
X3068Y602D01*
X3068Y646D01*
G37*
D02*
G36*
X3026Y704D02*
X3068Y704D01*
X3068Y645D01*
X3026Y645D01*
X3026Y704D01*
G37*
D02*
G36*
X3126Y704D02*
X3170Y704D01*
X3170Y645D01*
X3126Y645D01*
X3126Y704D01*
G37*
D02*
G36*
X1668Y646D02*
X1727Y646D01*
X1727Y602D01*
X1668Y602D01*
X1668Y646D01*
G37*
D02*
G36*
X1626Y704D02*
X1668Y704D01*
X1668Y645D01*
X1626Y645D01*
X1626Y704D01*
G37*
D02*
G36*
X1726Y704D02*
X1770Y704D01*
X1770Y645D01*
X1726Y645D01*
X1726Y704D01*
G37*
D02*
G36*
X1377Y982D02*
X1422Y982D01*
X1422Y944D01*
X1377Y944D01*
X1377Y982D01*
G37*
D02*
G36*
X1377Y906D02*
X1422Y906D01*
X1422Y866D01*
X1377Y866D01*
X1377Y906D01*
G37*
D02*
G36*
X1340Y947D02*
X1380Y947D01*
X1380Y902D01*
X1340Y902D01*
X1340Y947D01*
G37*
D02*
G36*
X1418Y947D02*
X1456Y947D01*
X1456Y902D01*
X1418Y902D01*
X1418Y947D01*
G37*
D02*
G36*
X477Y2382D02*
X522Y2382D01*
X522Y2344D01*
X477Y2344D01*
X477Y2382D01*
G37*
D02*
G36*
X477Y2306D02*
X522Y2306D01*
X522Y2266D01*
X477Y2266D01*
X477Y2306D01*
G37*
D02*
G36*
X440Y2347D02*
X480Y2347D01*
X480Y2302D01*
X440Y2302D01*
X440Y2347D01*
G37*
D02*
G36*
X518Y2347D02*
X556Y2347D01*
X556Y2302D01*
X518Y2302D01*
X518Y2347D01*
G37*
D02*
G36*
X1177Y2382D02*
X1222Y2382D01*
X1222Y2344D01*
X1177Y2344D01*
X1177Y2382D01*
G37*
D02*
G36*
X1177Y2306D02*
X1222Y2306D01*
X1222Y2266D01*
X1177Y2266D01*
X1177Y2306D01*
G37*
D02*
G36*
X1140Y2347D02*
X1180Y2347D01*
X1180Y2302D01*
X1140Y2302D01*
X1140Y2347D01*
G37*
D02*
G36*
X1218Y2347D02*
X1256Y2347D01*
X1256Y2302D01*
X1218Y2302D01*
X1218Y2347D01*
G37*
D02*
G36*
X1877Y2382D02*
X1922Y2382D01*
X1922Y2344D01*
X1877Y2344D01*
X1877Y2382D01*
G37*
D02*
G36*
X1877Y2306D02*
X1922Y2306D01*
X1922Y2266D01*
X1877Y2266D01*
X1877Y2306D01*
G37*
D02*
G36*
X1840Y2347D02*
X1880Y2347D01*
X1880Y2302D01*
X1840Y2302D01*
X1840Y2347D01*
G37*
D02*
G36*
X1918Y2347D02*
X1956Y2347D01*
X1956Y2302D01*
X1918Y2302D01*
X1918Y2347D01*
G37*
D02*
G36*
X2575Y2382D02*
X2620Y2382D01*
X2620Y2342D01*
X2575Y2342D01*
X2575Y2382D01*
G37*
D02*
G36*
X2575Y2304D02*
X2620Y2304D01*
X2620Y2266D01*
X2575Y2266D01*
X2575Y2304D01*
G37*
D02*
G36*
X2540Y2345D02*
X2578Y2345D01*
X2578Y2300D01*
X2540Y2300D01*
X2540Y2345D01*
G37*
D02*
G36*
X2616Y2345D02*
X2656Y2345D01*
X2656Y2300D01*
X2616Y2300D01*
X2616Y2345D01*
G37*
D02*
G36*
X826Y2202D02*
X870Y2202D01*
X870Y2143D01*
X826Y2143D01*
X826Y2202D01*
G37*
D02*
G36*
X928Y2202D02*
X970Y2202D01*
X970Y2143D01*
X928Y2143D01*
X928Y2202D01*
G37*
D02*
G36*
X1526Y2202D02*
X1570Y2202D01*
X1570Y2143D01*
X1526Y2143D01*
X1526Y2202D01*
G37*
D02*
G36*
X1628Y2202D02*
X1670Y2202D01*
X1670Y2143D01*
X1628Y2143D01*
X1628Y2202D01*
G37*
D02*
G36*
X2226Y2202D02*
X2270Y2202D01*
X2270Y2143D01*
X2226Y2143D01*
X2226Y2202D01*
G37*
D02*
G36*
X2328Y2202D02*
X2370Y2202D01*
X2370Y2143D01*
X2328Y2143D01*
X2328Y2202D01*
G37*
D02*
G36*
X2924Y2202D02*
X2968Y2202D01*
X2968Y2143D01*
X2924Y2143D01*
X2924Y2202D01*
G37*
D02*
G36*
X3026Y2202D02*
X3070Y2202D01*
X3070Y2143D01*
X3026Y2143D01*
X3026Y2202D01*
G37*
D02*
G04 End of Copper0*
M02*