; NON-PLATED HOLES START AT T1
; THROUGH (PLATED) HOLES START AT T100
M48
INCH
T1C0.086614
T2C0.118110
T3C0.125984
T100C0.059842
T101C0.038000
%
T1
X034000Y002220
X002000Y034220
X002000Y002220
X034000Y034220
T2
X016997Y009283
X029996Y019151
X030997Y009283
X009003Y019157
X023003Y019157
X016003Y019157
T3
X009000Y019220
X017000Y009220
X023000Y019220
X031000Y009220
X030000Y019220
X016000Y019220
T100
X017000Y006732
X016000Y017220
X016000Y021708
X023000Y021708
X029993Y021702
X031000Y007952
X009000Y021708
X009000Y017220
X023000Y017220
X029993Y020481
X017000Y011220
X016000Y020488
X023000Y020488
X031000Y011220
X017000Y007952
X029993Y017214
X031000Y006732
X009000Y020488
T101
X029993Y023214
X007000Y023220
X021000Y011220
X023000Y023220
X027000Y025220
X021000Y009220
X014000Y011220
X012000Y023220
X016000Y023220
X025993Y023214
X014000Y023220
X019000Y023220
X021000Y023220
X028000Y009220
X014000Y009220
X005000Y023220
X027993Y023214
X021000Y012220
X009000Y023220
X014000Y013220
X028000Y011220
X015000Y013220
X021000Y010220
T00
M30
