G04 MADE WITH FRITZING*
G04 WWW.FRITZING.ORG*
G04 DOUBLE SIDED*
G04 HOLES PLATED*
G04 CONTOUR ON CENTER OF CONTOUR VECTOR*
%ASAXBY*%
%FSLAX23Y23*%
%MOIN*%
%OFA0B0*%
%SFA1.0B1.0*%
%ADD10C,0.075000*%
%ADD11C,0.078000*%
%ADD12C,0.107087*%
%ADD13C,0.062992*%
%ADD14R,0.078000X0.078000*%
%ADD15C,0.015748*%
%LNCOPPER0*%
G90*
G70*
G54D10*
X1511Y1701D03*
G54D11*
X1099Y1010D03*
X1099Y910D03*
X1099Y810D03*
X1099Y710D03*
X1099Y1010D03*
X1099Y910D03*
X1099Y810D03*
X1099Y710D03*
G54D12*
X1399Y1161D03*
X1399Y1283D03*
X1399Y1610D03*
G54D11*
X1299Y1110D03*
X1299Y910D03*
X1299Y710D03*
G54D13*
X363Y1447D03*
X432Y1377D03*
G54D12*
X1399Y659D03*
X1399Y537D03*
X1399Y210D03*
G54D14*
X1299Y1110D03*
G36*
X40Y1771D02*
X40Y1683D01*
X1414Y1683D01*
X1414Y1681D01*
X1422Y1681D01*
X1422Y1679D01*
X1428Y1679D01*
X1428Y1677D01*
X1432Y1677D01*
X1432Y1675D01*
X1436Y1675D01*
X1436Y1673D01*
X1438Y1673D01*
X1438Y1671D01*
X1442Y1671D01*
X1442Y1669D01*
X1444Y1669D01*
X1444Y1667D01*
X1446Y1667D01*
X1446Y1665D01*
X1450Y1665D01*
X1450Y1663D01*
X1452Y1663D01*
X1452Y1661D01*
X1454Y1661D01*
X1454Y1657D01*
X1456Y1657D01*
X1456Y1655D01*
X1458Y1655D01*
X1458Y1653D01*
X1460Y1653D01*
X1460Y1649D01*
X1462Y1649D01*
X1462Y1647D01*
X1464Y1647D01*
X1464Y1643D01*
X1466Y1643D01*
X1466Y1639D01*
X1468Y1639D01*
X1468Y1633D01*
X1470Y1633D01*
X1470Y1625D01*
X1472Y1625D01*
X1472Y1595D01*
X1470Y1595D01*
X1470Y1587D01*
X1468Y1587D01*
X1468Y1581D01*
X1466Y1581D01*
X1466Y1577D01*
X1464Y1577D01*
X1464Y1573D01*
X1462Y1573D01*
X1462Y1571D01*
X1460Y1571D01*
X1460Y1567D01*
X1458Y1567D01*
X1458Y1565D01*
X1456Y1565D01*
X1456Y1563D01*
X1454Y1563D01*
X1454Y1561D01*
X1452Y1561D01*
X1452Y1557D01*
X1448Y1557D01*
X1448Y1555D01*
X1446Y1555D01*
X1446Y1553D01*
X1444Y1553D01*
X1444Y1551D01*
X1442Y1551D01*
X1442Y1549D01*
X1438Y1549D01*
X1438Y1547D01*
X1434Y1547D01*
X1434Y1545D01*
X1432Y1545D01*
X1432Y1543D01*
X1426Y1543D01*
X1426Y1541D01*
X1422Y1541D01*
X1422Y1539D01*
X1412Y1539D01*
X1412Y1537D01*
X1770Y1537D01*
X1770Y1771D01*
X40Y1771D01*
G37*
D02*
G36*
X40Y1683D02*
X40Y1673D01*
X212Y1673D01*
X212Y1671D01*
X220Y1671D01*
X220Y1669D01*
X224Y1669D01*
X224Y1667D01*
X228Y1667D01*
X228Y1665D01*
X232Y1665D01*
X232Y1663D01*
X236Y1663D01*
X236Y1661D01*
X238Y1661D01*
X238Y1659D01*
X240Y1659D01*
X240Y1657D01*
X242Y1657D01*
X242Y1655D01*
X244Y1655D01*
X244Y1653D01*
X246Y1653D01*
X246Y1651D01*
X248Y1651D01*
X248Y1649D01*
X250Y1649D01*
X250Y1647D01*
X252Y1647D01*
X252Y1643D01*
X254Y1643D01*
X254Y1639D01*
X256Y1639D01*
X256Y1635D01*
X258Y1635D01*
X258Y1631D01*
X260Y1631D01*
X260Y1623D01*
X262Y1623D01*
X262Y1597D01*
X260Y1597D01*
X260Y1589D01*
X258Y1589D01*
X258Y1585D01*
X256Y1585D01*
X256Y1581D01*
X254Y1581D01*
X254Y1577D01*
X252Y1577D01*
X252Y1573D01*
X250Y1573D01*
X250Y1571D01*
X248Y1571D01*
X248Y1569D01*
X246Y1569D01*
X246Y1567D01*
X244Y1567D01*
X244Y1565D01*
X242Y1565D01*
X242Y1563D01*
X240Y1563D01*
X240Y1561D01*
X238Y1561D01*
X238Y1559D01*
X234Y1559D01*
X234Y1557D01*
X232Y1557D01*
X232Y1555D01*
X228Y1555D01*
X228Y1553D01*
X224Y1553D01*
X224Y1551D01*
X218Y1551D01*
X218Y1549D01*
X210Y1549D01*
X210Y1547D01*
X1360Y1547D01*
X1360Y1549D01*
X1358Y1549D01*
X1358Y1551D01*
X1354Y1551D01*
X1354Y1553D01*
X1352Y1553D01*
X1352Y1555D01*
X1350Y1555D01*
X1350Y1557D01*
X1348Y1557D01*
X1348Y1559D01*
X1346Y1559D01*
X1346Y1561D01*
X1344Y1561D01*
X1344Y1563D01*
X1342Y1563D01*
X1342Y1565D01*
X1340Y1565D01*
X1340Y1569D01*
X1338Y1569D01*
X1338Y1571D01*
X1336Y1571D01*
X1336Y1575D01*
X1334Y1575D01*
X1334Y1579D01*
X1332Y1579D01*
X1332Y1583D01*
X1330Y1583D01*
X1330Y1589D01*
X1328Y1589D01*
X1328Y1597D01*
X1326Y1597D01*
X1326Y1623D01*
X1328Y1623D01*
X1328Y1631D01*
X1330Y1631D01*
X1330Y1637D01*
X1332Y1637D01*
X1332Y1641D01*
X1334Y1641D01*
X1334Y1645D01*
X1336Y1645D01*
X1336Y1649D01*
X1338Y1649D01*
X1338Y1653D01*
X1340Y1653D01*
X1340Y1655D01*
X1342Y1655D01*
X1342Y1657D01*
X1344Y1657D01*
X1344Y1659D01*
X1346Y1659D01*
X1346Y1661D01*
X1348Y1661D01*
X1348Y1663D01*
X1350Y1663D01*
X1350Y1665D01*
X1352Y1665D01*
X1352Y1667D01*
X1354Y1667D01*
X1354Y1669D01*
X1356Y1669D01*
X1356Y1671D01*
X1360Y1671D01*
X1360Y1673D01*
X1364Y1673D01*
X1364Y1675D01*
X1366Y1675D01*
X1366Y1677D01*
X1370Y1677D01*
X1370Y1679D01*
X1376Y1679D01*
X1376Y1681D01*
X1384Y1681D01*
X1384Y1683D01*
X40Y1683D01*
G37*
D02*
G36*
X40Y1673D02*
X40Y1547D01*
X188Y1547D01*
X188Y1549D01*
X180Y1549D01*
X180Y1551D01*
X174Y1551D01*
X174Y1553D01*
X170Y1553D01*
X170Y1555D01*
X166Y1555D01*
X166Y1557D01*
X164Y1557D01*
X164Y1559D01*
X160Y1559D01*
X160Y1561D01*
X158Y1561D01*
X158Y1563D01*
X156Y1563D01*
X156Y1565D01*
X154Y1565D01*
X154Y1567D01*
X152Y1567D01*
X152Y1569D01*
X150Y1569D01*
X150Y1571D01*
X148Y1571D01*
X148Y1575D01*
X146Y1575D01*
X146Y1577D01*
X144Y1577D01*
X144Y1581D01*
X142Y1581D01*
X142Y1585D01*
X140Y1585D01*
X140Y1591D01*
X138Y1591D01*
X138Y1599D01*
X136Y1599D01*
X136Y1621D01*
X138Y1621D01*
X138Y1629D01*
X140Y1629D01*
X140Y1635D01*
X142Y1635D01*
X142Y1639D01*
X144Y1639D01*
X144Y1643D01*
X146Y1643D01*
X146Y1645D01*
X148Y1645D01*
X148Y1649D01*
X150Y1649D01*
X150Y1651D01*
X152Y1651D01*
X152Y1653D01*
X154Y1653D01*
X154Y1655D01*
X156Y1655D01*
X156Y1657D01*
X158Y1657D01*
X158Y1659D01*
X160Y1659D01*
X160Y1661D01*
X164Y1661D01*
X164Y1663D01*
X166Y1663D01*
X166Y1665D01*
X170Y1665D01*
X170Y1667D01*
X174Y1667D01*
X174Y1669D01*
X178Y1669D01*
X178Y1671D01*
X186Y1671D01*
X186Y1673D01*
X40Y1673D01*
G37*
D02*
G36*
X40Y1547D02*
X40Y1545D01*
X1364Y1545D01*
X1364Y1547D01*
X40Y1547D01*
G37*
D02*
G36*
X40Y1547D02*
X40Y1545D01*
X1364Y1545D01*
X1364Y1547D01*
X40Y1547D01*
G37*
D02*
G36*
X40Y1545D02*
X40Y1537D01*
X1386Y1537D01*
X1386Y1539D01*
X1378Y1539D01*
X1378Y1541D01*
X1372Y1541D01*
X1372Y1543D01*
X1368Y1543D01*
X1368Y1545D01*
X40Y1545D01*
G37*
D02*
G36*
X40Y1537D02*
X40Y1535D01*
X1770Y1535D01*
X1770Y1537D01*
X40Y1537D01*
G37*
D02*
G36*
X40Y1537D02*
X40Y1535D01*
X1770Y1535D01*
X1770Y1537D01*
X40Y1537D01*
G37*
D02*
G36*
X40Y1535D02*
X40Y1519D01*
X364Y1519D01*
X364Y1517D01*
X366Y1517D01*
X366Y1515D01*
X368Y1515D01*
X368Y1513D01*
X370Y1513D01*
X370Y1511D01*
X372Y1511D01*
X372Y1509D01*
X374Y1509D01*
X374Y1507D01*
X376Y1507D01*
X376Y1505D01*
X378Y1505D01*
X378Y1503D01*
X380Y1503D01*
X380Y1501D01*
X382Y1501D01*
X382Y1499D01*
X384Y1499D01*
X384Y1497D01*
X386Y1497D01*
X386Y1495D01*
X1414Y1495D01*
X1414Y1493D01*
X1422Y1493D01*
X1422Y1491D01*
X1428Y1491D01*
X1428Y1489D01*
X1432Y1489D01*
X1432Y1487D01*
X1436Y1487D01*
X1436Y1485D01*
X1440Y1485D01*
X1440Y1483D01*
X1442Y1483D01*
X1442Y1481D01*
X1446Y1481D01*
X1446Y1479D01*
X1448Y1479D01*
X1448Y1477D01*
X1450Y1477D01*
X1450Y1475D01*
X1452Y1475D01*
X1452Y1473D01*
X1456Y1473D01*
X1456Y1469D01*
X1458Y1469D01*
X1458Y1467D01*
X1460Y1467D01*
X1460Y1465D01*
X1462Y1465D01*
X1462Y1463D01*
X1464Y1463D01*
X1464Y1461D01*
X1466Y1461D01*
X1466Y1457D01*
X1468Y1457D01*
X1468Y1455D01*
X1470Y1455D01*
X1470Y1451D01*
X1472Y1451D01*
X1472Y1447D01*
X1474Y1447D01*
X1474Y1443D01*
X1476Y1443D01*
X1476Y1439D01*
X1478Y1439D01*
X1478Y1433D01*
X1480Y1433D01*
X1480Y1423D01*
X1482Y1423D01*
X1482Y1397D01*
X1480Y1397D01*
X1480Y1387D01*
X1478Y1387D01*
X1478Y1381D01*
X1476Y1381D01*
X1476Y1377D01*
X1474Y1377D01*
X1474Y1373D01*
X1472Y1373D01*
X1472Y1369D01*
X1470Y1369D01*
X1470Y1365D01*
X1468Y1365D01*
X1468Y1363D01*
X1466Y1363D01*
X1466Y1359D01*
X1464Y1359D01*
X1464Y1357D01*
X1462Y1357D01*
X1462Y1355D01*
X1460Y1355D01*
X1460Y1353D01*
X1458Y1353D01*
X1458Y1351D01*
X1456Y1351D01*
X1456Y1329D01*
X1458Y1329D01*
X1458Y1325D01*
X1460Y1325D01*
X1460Y1323D01*
X1462Y1323D01*
X1462Y1319D01*
X1464Y1319D01*
X1464Y1315D01*
X1466Y1315D01*
X1466Y1311D01*
X1468Y1311D01*
X1468Y1307D01*
X1470Y1307D01*
X1470Y1299D01*
X1472Y1299D01*
X1472Y1269D01*
X1470Y1269D01*
X1470Y1261D01*
X1468Y1261D01*
X1468Y1255D01*
X1466Y1255D01*
X1466Y1251D01*
X1464Y1251D01*
X1464Y1247D01*
X1462Y1247D01*
X1462Y1243D01*
X1460Y1243D01*
X1460Y1241D01*
X1458Y1241D01*
X1458Y1239D01*
X1456Y1239D01*
X1456Y1235D01*
X1454Y1235D01*
X1454Y1233D01*
X1452Y1233D01*
X1452Y1211D01*
X1454Y1211D01*
X1454Y1209D01*
X1456Y1209D01*
X1456Y1207D01*
X1458Y1207D01*
X1458Y1203D01*
X1460Y1203D01*
X1460Y1201D01*
X1462Y1201D01*
X1462Y1197D01*
X1464Y1197D01*
X1464Y1193D01*
X1466Y1193D01*
X1466Y1189D01*
X1468Y1189D01*
X1468Y1185D01*
X1470Y1185D01*
X1470Y1177D01*
X1472Y1177D01*
X1472Y1147D01*
X1470Y1147D01*
X1470Y1139D01*
X1468Y1139D01*
X1468Y1133D01*
X1466Y1133D01*
X1466Y1129D01*
X1464Y1129D01*
X1464Y1125D01*
X1462Y1125D01*
X1462Y1121D01*
X1460Y1121D01*
X1460Y1119D01*
X1458Y1119D01*
X1458Y1117D01*
X1456Y1117D01*
X1456Y1113D01*
X1454Y1113D01*
X1454Y1111D01*
X1452Y1111D01*
X1452Y1109D01*
X1450Y1109D01*
X1450Y1107D01*
X1448Y1107D01*
X1448Y1105D01*
X1446Y1105D01*
X1446Y1103D01*
X1442Y1103D01*
X1442Y1101D01*
X1440Y1101D01*
X1440Y1099D01*
X1436Y1099D01*
X1436Y1097D01*
X1432Y1097D01*
X1432Y1095D01*
X1428Y1095D01*
X1428Y1093D01*
X1424Y1093D01*
X1424Y1091D01*
X1416Y1091D01*
X1416Y1089D01*
X1404Y1089D01*
X1404Y1087D01*
X1770Y1087D01*
X1770Y1535D01*
X40Y1535D01*
G37*
D02*
G36*
X40Y1519D02*
X40Y1325D01*
X428Y1325D01*
X428Y1327D01*
X418Y1327D01*
X418Y1329D01*
X412Y1329D01*
X412Y1331D01*
X408Y1331D01*
X408Y1333D01*
X404Y1333D01*
X404Y1335D01*
X402Y1335D01*
X402Y1337D01*
X398Y1337D01*
X398Y1339D01*
X396Y1339D01*
X396Y1341D01*
X394Y1341D01*
X394Y1343D01*
X392Y1343D01*
X392Y1347D01*
X390Y1347D01*
X390Y1349D01*
X388Y1349D01*
X388Y1353D01*
X386Y1353D01*
X386Y1357D01*
X384Y1357D01*
X384Y1363D01*
X382Y1363D01*
X382Y1375D01*
X360Y1375D01*
X360Y1377D01*
X358Y1377D01*
X358Y1379D01*
X356Y1379D01*
X356Y1381D01*
X354Y1381D01*
X354Y1383D01*
X352Y1383D01*
X352Y1385D01*
X350Y1385D01*
X350Y1387D01*
X348Y1387D01*
X348Y1389D01*
X346Y1389D01*
X346Y1391D01*
X344Y1391D01*
X344Y1393D01*
X342Y1393D01*
X342Y1395D01*
X340Y1395D01*
X340Y1397D01*
X338Y1397D01*
X338Y1399D01*
X336Y1399D01*
X336Y1401D01*
X334Y1401D01*
X334Y1403D01*
X332Y1403D01*
X332Y1405D01*
X330Y1405D01*
X330Y1407D01*
X328Y1407D01*
X328Y1409D01*
X326Y1409D01*
X326Y1411D01*
X324Y1411D01*
X324Y1413D01*
X322Y1413D01*
X322Y1415D01*
X320Y1415D01*
X320Y1417D01*
X318Y1417D01*
X318Y1419D01*
X316Y1419D01*
X316Y1421D01*
X314Y1421D01*
X314Y1423D01*
X312Y1423D01*
X312Y1425D01*
X310Y1425D01*
X310Y1427D01*
X308Y1427D01*
X308Y1429D01*
X306Y1429D01*
X306Y1431D01*
X304Y1431D01*
X304Y1433D01*
X302Y1433D01*
X302Y1435D01*
X300Y1435D01*
X300Y1437D01*
X298Y1437D01*
X298Y1439D01*
X296Y1439D01*
X296Y1441D01*
X294Y1441D01*
X294Y1443D01*
X292Y1443D01*
X292Y1445D01*
X290Y1445D01*
X290Y1447D01*
X292Y1447D01*
X292Y1449D01*
X294Y1449D01*
X294Y1451D01*
X296Y1451D01*
X296Y1453D01*
X298Y1453D01*
X298Y1455D01*
X300Y1455D01*
X300Y1457D01*
X302Y1457D01*
X302Y1459D01*
X304Y1459D01*
X304Y1461D01*
X306Y1461D01*
X306Y1463D01*
X308Y1463D01*
X308Y1465D01*
X310Y1465D01*
X310Y1467D01*
X312Y1467D01*
X312Y1469D01*
X314Y1469D01*
X314Y1471D01*
X316Y1471D01*
X316Y1473D01*
X318Y1473D01*
X318Y1475D01*
X320Y1475D01*
X320Y1477D01*
X322Y1477D01*
X322Y1479D01*
X324Y1479D01*
X324Y1481D01*
X326Y1481D01*
X326Y1483D01*
X328Y1483D01*
X328Y1485D01*
X330Y1485D01*
X330Y1487D01*
X332Y1487D01*
X332Y1489D01*
X334Y1489D01*
X334Y1491D01*
X336Y1491D01*
X336Y1493D01*
X338Y1493D01*
X338Y1495D01*
X340Y1495D01*
X340Y1497D01*
X342Y1497D01*
X342Y1499D01*
X344Y1499D01*
X344Y1501D01*
X346Y1501D01*
X346Y1503D01*
X348Y1503D01*
X348Y1505D01*
X350Y1505D01*
X350Y1507D01*
X352Y1507D01*
X352Y1509D01*
X354Y1509D01*
X354Y1511D01*
X356Y1511D01*
X356Y1513D01*
X358Y1513D01*
X358Y1515D01*
X360Y1515D01*
X360Y1517D01*
X362Y1517D01*
X362Y1519D01*
X40Y1519D01*
G37*
D02*
G36*
X388Y1495D02*
X388Y1493D01*
X390Y1493D01*
X390Y1491D01*
X392Y1491D01*
X392Y1489D01*
X394Y1489D01*
X394Y1487D01*
X396Y1487D01*
X396Y1485D01*
X398Y1485D01*
X398Y1483D01*
X400Y1483D01*
X400Y1481D01*
X402Y1481D01*
X402Y1479D01*
X404Y1479D01*
X404Y1477D01*
X406Y1477D01*
X406Y1475D01*
X408Y1475D01*
X408Y1473D01*
X410Y1473D01*
X410Y1471D01*
X412Y1471D01*
X412Y1469D01*
X414Y1469D01*
X414Y1467D01*
X416Y1467D01*
X416Y1465D01*
X418Y1465D01*
X418Y1463D01*
X420Y1463D01*
X420Y1461D01*
X422Y1461D01*
X422Y1459D01*
X424Y1459D01*
X424Y1457D01*
X426Y1457D01*
X426Y1455D01*
X428Y1455D01*
X428Y1453D01*
X430Y1453D01*
X430Y1451D01*
X432Y1451D01*
X432Y1449D01*
X434Y1449D01*
X434Y1429D01*
X436Y1429D01*
X436Y1427D01*
X448Y1427D01*
X448Y1425D01*
X454Y1425D01*
X454Y1423D01*
X458Y1423D01*
X458Y1421D01*
X460Y1421D01*
X460Y1419D01*
X464Y1419D01*
X464Y1417D01*
X466Y1417D01*
X466Y1415D01*
X468Y1415D01*
X468Y1413D01*
X470Y1413D01*
X470Y1411D01*
X472Y1411D01*
X472Y1409D01*
X474Y1409D01*
X474Y1405D01*
X476Y1405D01*
X476Y1403D01*
X478Y1403D01*
X478Y1399D01*
X480Y1399D01*
X480Y1393D01*
X482Y1393D01*
X482Y1385D01*
X484Y1385D01*
X484Y1369D01*
X482Y1369D01*
X482Y1361D01*
X480Y1361D01*
X480Y1355D01*
X478Y1355D01*
X478Y1351D01*
X476Y1351D01*
X476Y1349D01*
X474Y1349D01*
X474Y1345D01*
X472Y1345D01*
X472Y1343D01*
X470Y1343D01*
X470Y1341D01*
X468Y1341D01*
X468Y1339D01*
X466Y1339D01*
X466Y1337D01*
X464Y1337D01*
X464Y1335D01*
X460Y1335D01*
X460Y1333D01*
X458Y1333D01*
X458Y1331D01*
X454Y1331D01*
X454Y1329D01*
X448Y1329D01*
X448Y1327D01*
X438Y1327D01*
X438Y1325D01*
X1340Y1325D01*
X1340Y1329D01*
X1342Y1329D01*
X1342Y1351D01*
X1340Y1351D01*
X1340Y1353D01*
X1338Y1353D01*
X1338Y1355D01*
X1336Y1355D01*
X1336Y1357D01*
X1334Y1357D01*
X1334Y1361D01*
X1332Y1361D01*
X1332Y1363D01*
X1330Y1363D01*
X1330Y1367D01*
X1328Y1367D01*
X1328Y1369D01*
X1326Y1369D01*
X1326Y1373D01*
X1324Y1373D01*
X1324Y1377D01*
X1322Y1377D01*
X1322Y1383D01*
X1320Y1383D01*
X1320Y1389D01*
X1318Y1389D01*
X1318Y1399D01*
X1316Y1399D01*
X1316Y1421D01*
X1318Y1421D01*
X1318Y1431D01*
X1320Y1431D01*
X1320Y1437D01*
X1322Y1437D01*
X1322Y1443D01*
X1324Y1443D01*
X1324Y1447D01*
X1326Y1447D01*
X1326Y1451D01*
X1328Y1451D01*
X1328Y1455D01*
X1330Y1455D01*
X1330Y1457D01*
X1332Y1457D01*
X1332Y1459D01*
X1334Y1459D01*
X1334Y1463D01*
X1336Y1463D01*
X1336Y1465D01*
X1338Y1465D01*
X1338Y1467D01*
X1340Y1467D01*
X1340Y1471D01*
X1342Y1471D01*
X1342Y1473D01*
X1344Y1473D01*
X1344Y1475D01*
X1348Y1475D01*
X1348Y1477D01*
X1350Y1477D01*
X1350Y1479D01*
X1352Y1479D01*
X1352Y1481D01*
X1354Y1481D01*
X1354Y1483D01*
X1358Y1483D01*
X1358Y1485D01*
X1362Y1485D01*
X1362Y1487D01*
X1366Y1487D01*
X1366Y1489D01*
X1370Y1489D01*
X1370Y1491D01*
X1376Y1491D01*
X1376Y1493D01*
X1384Y1493D01*
X1384Y1495D01*
X388Y1495D01*
G37*
D02*
G36*
X40Y1325D02*
X40Y1323D01*
X1338Y1323D01*
X1338Y1325D01*
X40Y1325D01*
G37*
D02*
G36*
X40Y1325D02*
X40Y1323D01*
X1338Y1323D01*
X1338Y1325D01*
X40Y1325D01*
G37*
D02*
G36*
X40Y1323D02*
X40Y1069D01*
X1110Y1069D01*
X1110Y1067D01*
X1118Y1067D01*
X1118Y1065D01*
X1124Y1065D01*
X1124Y1063D01*
X1128Y1063D01*
X1128Y1061D01*
X1130Y1061D01*
X1130Y1059D01*
X1134Y1059D01*
X1134Y1057D01*
X1136Y1057D01*
X1136Y1055D01*
X1138Y1055D01*
X1138Y1053D01*
X1140Y1053D01*
X1140Y1051D01*
X1240Y1051D01*
X1240Y1169D01*
X1326Y1169D01*
X1326Y1175D01*
X1328Y1175D01*
X1328Y1183D01*
X1330Y1183D01*
X1330Y1189D01*
X1332Y1189D01*
X1332Y1193D01*
X1334Y1193D01*
X1334Y1197D01*
X1336Y1197D01*
X1336Y1201D01*
X1338Y1201D01*
X1338Y1203D01*
X1340Y1203D01*
X1340Y1205D01*
X1342Y1205D01*
X1342Y1209D01*
X1344Y1209D01*
X1344Y1211D01*
X1346Y1211D01*
X1346Y1233D01*
X1344Y1233D01*
X1344Y1237D01*
X1342Y1237D01*
X1342Y1239D01*
X1340Y1239D01*
X1340Y1241D01*
X1338Y1241D01*
X1338Y1245D01*
X1336Y1245D01*
X1336Y1247D01*
X1334Y1247D01*
X1334Y1251D01*
X1332Y1251D01*
X1332Y1255D01*
X1330Y1255D01*
X1330Y1261D01*
X1328Y1261D01*
X1328Y1271D01*
X1326Y1271D01*
X1326Y1297D01*
X1328Y1297D01*
X1328Y1305D01*
X1330Y1305D01*
X1330Y1311D01*
X1332Y1311D01*
X1332Y1315D01*
X1334Y1315D01*
X1334Y1319D01*
X1336Y1319D01*
X1336Y1323D01*
X40Y1323D01*
G37*
D02*
G36*
X1358Y1091D02*
X1358Y1087D01*
X1396Y1087D01*
X1396Y1089D01*
X1382Y1089D01*
X1382Y1091D01*
X1358Y1091D01*
G37*
D02*
G36*
X1358Y1087D02*
X1358Y1085D01*
X1770Y1085D01*
X1770Y1087D01*
X1358Y1087D01*
G37*
D02*
G36*
X1358Y1087D02*
X1358Y1085D01*
X1770Y1085D01*
X1770Y1087D01*
X1358Y1087D01*
G37*
D02*
G36*
X1358Y1085D02*
X1358Y1051D01*
X1770Y1051D01*
X1770Y1085D01*
X1358Y1085D01*
G37*
D02*
G36*
X40Y1069D02*
X40Y651D01*
X1090Y651D01*
X1090Y653D01*
X1082Y653D01*
X1082Y655D01*
X1076Y655D01*
X1076Y657D01*
X1072Y657D01*
X1072Y659D01*
X1068Y659D01*
X1068Y661D01*
X1066Y661D01*
X1066Y663D01*
X1062Y663D01*
X1062Y665D01*
X1060Y665D01*
X1060Y667D01*
X1058Y667D01*
X1058Y669D01*
X1056Y669D01*
X1056Y671D01*
X1054Y671D01*
X1054Y673D01*
X1052Y673D01*
X1052Y677D01*
X1050Y677D01*
X1050Y679D01*
X1048Y679D01*
X1048Y683D01*
X1046Y683D01*
X1046Y687D01*
X1044Y687D01*
X1044Y693D01*
X1042Y693D01*
X1042Y701D01*
X1040Y701D01*
X1040Y719D01*
X1042Y719D01*
X1042Y727D01*
X1044Y727D01*
X1044Y733D01*
X1046Y733D01*
X1046Y737D01*
X1048Y737D01*
X1048Y741D01*
X1050Y741D01*
X1050Y743D01*
X1052Y743D01*
X1052Y747D01*
X1054Y747D01*
X1054Y749D01*
X1056Y749D01*
X1056Y771D01*
X1054Y771D01*
X1054Y773D01*
X1052Y773D01*
X1052Y777D01*
X1050Y777D01*
X1050Y779D01*
X1048Y779D01*
X1048Y783D01*
X1046Y783D01*
X1046Y787D01*
X1044Y787D01*
X1044Y793D01*
X1042Y793D01*
X1042Y801D01*
X1040Y801D01*
X1040Y819D01*
X1042Y819D01*
X1042Y827D01*
X1044Y827D01*
X1044Y833D01*
X1046Y833D01*
X1046Y837D01*
X1048Y837D01*
X1048Y841D01*
X1050Y841D01*
X1050Y843D01*
X1052Y843D01*
X1052Y847D01*
X1054Y847D01*
X1054Y849D01*
X1056Y849D01*
X1056Y871D01*
X1054Y871D01*
X1054Y873D01*
X1052Y873D01*
X1052Y877D01*
X1050Y877D01*
X1050Y879D01*
X1048Y879D01*
X1048Y883D01*
X1046Y883D01*
X1046Y887D01*
X1044Y887D01*
X1044Y893D01*
X1042Y893D01*
X1042Y901D01*
X1040Y901D01*
X1040Y919D01*
X1042Y919D01*
X1042Y927D01*
X1044Y927D01*
X1044Y933D01*
X1046Y933D01*
X1046Y937D01*
X1048Y937D01*
X1048Y941D01*
X1050Y941D01*
X1050Y943D01*
X1052Y943D01*
X1052Y947D01*
X1054Y947D01*
X1054Y949D01*
X1056Y949D01*
X1056Y971D01*
X1054Y971D01*
X1054Y973D01*
X1052Y973D01*
X1052Y977D01*
X1050Y977D01*
X1050Y979D01*
X1048Y979D01*
X1048Y983D01*
X1046Y983D01*
X1046Y987D01*
X1044Y987D01*
X1044Y993D01*
X1042Y993D01*
X1042Y1001D01*
X1040Y1001D01*
X1040Y1019D01*
X1042Y1019D01*
X1042Y1027D01*
X1044Y1027D01*
X1044Y1033D01*
X1046Y1033D01*
X1046Y1037D01*
X1048Y1037D01*
X1048Y1041D01*
X1050Y1041D01*
X1050Y1043D01*
X1052Y1043D01*
X1052Y1047D01*
X1054Y1047D01*
X1054Y1049D01*
X1056Y1049D01*
X1056Y1051D01*
X1058Y1051D01*
X1058Y1053D01*
X1060Y1053D01*
X1060Y1055D01*
X1062Y1055D01*
X1062Y1057D01*
X1066Y1057D01*
X1066Y1059D01*
X1068Y1059D01*
X1068Y1061D01*
X1072Y1061D01*
X1072Y1063D01*
X1076Y1063D01*
X1076Y1065D01*
X1080Y1065D01*
X1080Y1067D01*
X1088Y1067D01*
X1088Y1069D01*
X40Y1069D01*
G37*
D02*
G36*
X1142Y1051D02*
X1142Y1049D01*
X1770Y1049D01*
X1770Y1051D01*
X1142Y1051D01*
G37*
D02*
G36*
X1142Y1051D02*
X1142Y1049D01*
X1770Y1049D01*
X1770Y1051D01*
X1142Y1051D01*
G37*
D02*
G36*
X1144Y1049D02*
X1144Y1047D01*
X1146Y1047D01*
X1146Y1045D01*
X1148Y1045D01*
X1148Y1041D01*
X1150Y1041D01*
X1150Y1039D01*
X1152Y1039D01*
X1152Y1035D01*
X1154Y1035D01*
X1154Y1029D01*
X1156Y1029D01*
X1156Y1021D01*
X1158Y1021D01*
X1158Y999D01*
X1156Y999D01*
X1156Y991D01*
X1154Y991D01*
X1154Y987D01*
X1152Y987D01*
X1152Y983D01*
X1150Y983D01*
X1150Y979D01*
X1148Y979D01*
X1148Y975D01*
X1146Y975D01*
X1146Y973D01*
X1144Y973D01*
X1144Y971D01*
X1142Y971D01*
X1142Y969D01*
X1310Y969D01*
X1310Y967D01*
X1318Y967D01*
X1318Y965D01*
X1324Y965D01*
X1324Y963D01*
X1328Y963D01*
X1328Y961D01*
X1330Y961D01*
X1330Y959D01*
X1334Y959D01*
X1334Y957D01*
X1336Y957D01*
X1336Y955D01*
X1338Y955D01*
X1338Y953D01*
X1340Y953D01*
X1340Y951D01*
X1342Y951D01*
X1342Y949D01*
X1344Y949D01*
X1344Y947D01*
X1346Y947D01*
X1346Y945D01*
X1348Y945D01*
X1348Y941D01*
X1350Y941D01*
X1350Y939D01*
X1352Y939D01*
X1352Y935D01*
X1354Y935D01*
X1354Y929D01*
X1356Y929D01*
X1356Y921D01*
X1358Y921D01*
X1358Y899D01*
X1356Y899D01*
X1356Y891D01*
X1354Y891D01*
X1354Y887D01*
X1352Y887D01*
X1352Y883D01*
X1350Y883D01*
X1350Y879D01*
X1348Y879D01*
X1348Y875D01*
X1346Y875D01*
X1346Y873D01*
X1344Y873D01*
X1344Y871D01*
X1342Y871D01*
X1342Y869D01*
X1340Y869D01*
X1340Y867D01*
X1338Y867D01*
X1338Y865D01*
X1336Y865D01*
X1336Y863D01*
X1332Y863D01*
X1332Y861D01*
X1330Y861D01*
X1330Y859D01*
X1326Y859D01*
X1326Y857D01*
X1322Y857D01*
X1322Y855D01*
X1318Y855D01*
X1318Y853D01*
X1308Y853D01*
X1308Y851D01*
X1770Y851D01*
X1770Y1049D01*
X1144Y1049D01*
G37*
D02*
G36*
X1142Y969D02*
X1142Y949D01*
X1144Y949D01*
X1144Y947D01*
X1146Y947D01*
X1146Y945D01*
X1148Y945D01*
X1148Y941D01*
X1150Y941D01*
X1150Y939D01*
X1152Y939D01*
X1152Y935D01*
X1154Y935D01*
X1154Y929D01*
X1156Y929D01*
X1156Y921D01*
X1158Y921D01*
X1158Y899D01*
X1156Y899D01*
X1156Y891D01*
X1154Y891D01*
X1154Y887D01*
X1152Y887D01*
X1152Y883D01*
X1150Y883D01*
X1150Y879D01*
X1148Y879D01*
X1148Y875D01*
X1146Y875D01*
X1146Y873D01*
X1144Y873D01*
X1144Y871D01*
X1142Y871D01*
X1142Y851D01*
X1290Y851D01*
X1290Y853D01*
X1282Y853D01*
X1282Y855D01*
X1276Y855D01*
X1276Y857D01*
X1272Y857D01*
X1272Y859D01*
X1268Y859D01*
X1268Y861D01*
X1266Y861D01*
X1266Y863D01*
X1262Y863D01*
X1262Y865D01*
X1260Y865D01*
X1260Y867D01*
X1258Y867D01*
X1258Y869D01*
X1256Y869D01*
X1256Y871D01*
X1254Y871D01*
X1254Y873D01*
X1252Y873D01*
X1252Y877D01*
X1250Y877D01*
X1250Y879D01*
X1248Y879D01*
X1248Y883D01*
X1246Y883D01*
X1246Y887D01*
X1244Y887D01*
X1244Y893D01*
X1242Y893D01*
X1242Y901D01*
X1240Y901D01*
X1240Y919D01*
X1242Y919D01*
X1242Y927D01*
X1244Y927D01*
X1244Y933D01*
X1246Y933D01*
X1246Y937D01*
X1248Y937D01*
X1248Y941D01*
X1250Y941D01*
X1250Y943D01*
X1252Y943D01*
X1252Y947D01*
X1254Y947D01*
X1254Y949D01*
X1256Y949D01*
X1256Y951D01*
X1258Y951D01*
X1258Y953D01*
X1260Y953D01*
X1260Y955D01*
X1262Y955D01*
X1262Y957D01*
X1266Y957D01*
X1266Y959D01*
X1268Y959D01*
X1268Y961D01*
X1272Y961D01*
X1272Y963D01*
X1276Y963D01*
X1276Y965D01*
X1280Y965D01*
X1280Y967D01*
X1288Y967D01*
X1288Y969D01*
X1142Y969D01*
G37*
D02*
G36*
X1142Y851D02*
X1142Y849D01*
X1770Y849D01*
X1770Y851D01*
X1142Y851D01*
G37*
D02*
G36*
X1142Y851D02*
X1142Y849D01*
X1770Y849D01*
X1770Y851D01*
X1142Y851D01*
G37*
D02*
G36*
X1144Y849D02*
X1144Y847D01*
X1146Y847D01*
X1146Y845D01*
X1148Y845D01*
X1148Y841D01*
X1150Y841D01*
X1150Y839D01*
X1152Y839D01*
X1152Y835D01*
X1154Y835D01*
X1154Y829D01*
X1156Y829D01*
X1156Y821D01*
X1158Y821D01*
X1158Y799D01*
X1156Y799D01*
X1156Y791D01*
X1154Y791D01*
X1154Y787D01*
X1152Y787D01*
X1152Y783D01*
X1150Y783D01*
X1150Y779D01*
X1148Y779D01*
X1148Y775D01*
X1146Y775D01*
X1146Y773D01*
X1144Y773D01*
X1144Y771D01*
X1142Y771D01*
X1142Y769D01*
X1310Y769D01*
X1310Y767D01*
X1318Y767D01*
X1318Y765D01*
X1324Y765D01*
X1324Y763D01*
X1328Y763D01*
X1328Y761D01*
X1330Y761D01*
X1330Y759D01*
X1334Y759D01*
X1334Y757D01*
X1336Y757D01*
X1336Y755D01*
X1338Y755D01*
X1338Y753D01*
X1340Y753D01*
X1340Y751D01*
X1342Y751D01*
X1342Y749D01*
X1344Y749D01*
X1344Y747D01*
X1346Y747D01*
X1346Y745D01*
X1348Y745D01*
X1348Y741D01*
X1350Y741D01*
X1350Y739D01*
X1352Y739D01*
X1352Y735D01*
X1354Y735D01*
X1354Y733D01*
X1406Y733D01*
X1406Y731D01*
X1418Y731D01*
X1418Y729D01*
X1424Y729D01*
X1424Y727D01*
X1430Y727D01*
X1430Y725D01*
X1434Y725D01*
X1434Y723D01*
X1436Y723D01*
X1436Y721D01*
X1440Y721D01*
X1440Y719D01*
X1442Y719D01*
X1442Y717D01*
X1446Y717D01*
X1446Y715D01*
X1448Y715D01*
X1448Y713D01*
X1450Y713D01*
X1450Y711D01*
X1452Y711D01*
X1452Y709D01*
X1454Y709D01*
X1454Y707D01*
X1456Y707D01*
X1456Y705D01*
X1458Y705D01*
X1458Y701D01*
X1460Y701D01*
X1460Y699D01*
X1462Y699D01*
X1462Y695D01*
X1464Y695D01*
X1464Y691D01*
X1466Y691D01*
X1466Y687D01*
X1468Y687D01*
X1468Y681D01*
X1470Y681D01*
X1470Y675D01*
X1472Y675D01*
X1472Y643D01*
X1470Y643D01*
X1470Y637D01*
X1468Y637D01*
X1468Y631D01*
X1466Y631D01*
X1466Y627D01*
X1464Y627D01*
X1464Y623D01*
X1462Y623D01*
X1462Y619D01*
X1460Y619D01*
X1460Y617D01*
X1458Y617D01*
X1458Y613D01*
X1456Y613D01*
X1456Y611D01*
X1454Y611D01*
X1454Y609D01*
X1452Y609D01*
X1452Y587D01*
X1454Y587D01*
X1454Y585D01*
X1456Y585D01*
X1456Y583D01*
X1458Y583D01*
X1458Y579D01*
X1460Y579D01*
X1460Y577D01*
X1462Y577D01*
X1462Y573D01*
X1464Y573D01*
X1464Y569D01*
X1466Y569D01*
X1466Y565D01*
X1468Y565D01*
X1468Y559D01*
X1470Y559D01*
X1470Y553D01*
X1472Y553D01*
X1472Y521D01*
X1470Y521D01*
X1470Y515D01*
X1468Y515D01*
X1468Y509D01*
X1466Y509D01*
X1466Y505D01*
X1464Y505D01*
X1464Y501D01*
X1462Y501D01*
X1462Y497D01*
X1460Y497D01*
X1460Y495D01*
X1458Y495D01*
X1458Y491D01*
X1456Y491D01*
X1456Y469D01*
X1458Y469D01*
X1458Y467D01*
X1460Y467D01*
X1460Y465D01*
X1462Y465D01*
X1462Y463D01*
X1464Y463D01*
X1464Y461D01*
X1466Y461D01*
X1466Y457D01*
X1468Y457D01*
X1468Y455D01*
X1470Y455D01*
X1470Y451D01*
X1472Y451D01*
X1472Y447D01*
X1474Y447D01*
X1474Y443D01*
X1476Y443D01*
X1476Y439D01*
X1478Y439D01*
X1478Y433D01*
X1480Y433D01*
X1480Y423D01*
X1482Y423D01*
X1482Y397D01*
X1480Y397D01*
X1480Y387D01*
X1478Y387D01*
X1478Y381D01*
X1476Y381D01*
X1476Y377D01*
X1474Y377D01*
X1474Y373D01*
X1472Y373D01*
X1472Y369D01*
X1470Y369D01*
X1470Y365D01*
X1468Y365D01*
X1468Y363D01*
X1466Y363D01*
X1466Y359D01*
X1464Y359D01*
X1464Y357D01*
X1462Y357D01*
X1462Y355D01*
X1460Y355D01*
X1460Y351D01*
X1458Y351D01*
X1458Y349D01*
X1456Y349D01*
X1456Y347D01*
X1454Y347D01*
X1454Y345D01*
X1452Y345D01*
X1452Y343D01*
X1448Y343D01*
X1448Y341D01*
X1446Y341D01*
X1446Y339D01*
X1444Y339D01*
X1444Y337D01*
X1440Y337D01*
X1440Y335D01*
X1436Y335D01*
X1436Y333D01*
X1432Y333D01*
X1432Y331D01*
X1428Y331D01*
X1428Y329D01*
X1422Y329D01*
X1422Y327D01*
X1412Y327D01*
X1412Y325D01*
X1770Y325D01*
X1770Y849D01*
X1144Y849D01*
G37*
D02*
G36*
X1142Y769D02*
X1142Y749D01*
X1144Y749D01*
X1144Y747D01*
X1146Y747D01*
X1146Y745D01*
X1148Y745D01*
X1148Y741D01*
X1150Y741D01*
X1150Y739D01*
X1152Y739D01*
X1152Y735D01*
X1154Y735D01*
X1154Y729D01*
X1156Y729D01*
X1156Y721D01*
X1158Y721D01*
X1158Y699D01*
X1156Y699D01*
X1156Y691D01*
X1154Y691D01*
X1154Y687D01*
X1152Y687D01*
X1152Y683D01*
X1150Y683D01*
X1150Y679D01*
X1148Y679D01*
X1148Y675D01*
X1146Y675D01*
X1146Y673D01*
X1144Y673D01*
X1144Y671D01*
X1142Y671D01*
X1142Y669D01*
X1140Y669D01*
X1140Y667D01*
X1138Y667D01*
X1138Y665D01*
X1136Y665D01*
X1136Y663D01*
X1132Y663D01*
X1132Y661D01*
X1130Y661D01*
X1130Y659D01*
X1126Y659D01*
X1126Y657D01*
X1122Y657D01*
X1122Y655D01*
X1118Y655D01*
X1118Y653D01*
X1108Y653D01*
X1108Y651D01*
X1290Y651D01*
X1290Y653D01*
X1282Y653D01*
X1282Y655D01*
X1276Y655D01*
X1276Y657D01*
X1272Y657D01*
X1272Y659D01*
X1268Y659D01*
X1268Y661D01*
X1266Y661D01*
X1266Y663D01*
X1262Y663D01*
X1262Y665D01*
X1260Y665D01*
X1260Y667D01*
X1258Y667D01*
X1258Y669D01*
X1256Y669D01*
X1256Y671D01*
X1254Y671D01*
X1254Y673D01*
X1252Y673D01*
X1252Y677D01*
X1250Y677D01*
X1250Y679D01*
X1248Y679D01*
X1248Y683D01*
X1246Y683D01*
X1246Y687D01*
X1244Y687D01*
X1244Y693D01*
X1242Y693D01*
X1242Y701D01*
X1240Y701D01*
X1240Y719D01*
X1242Y719D01*
X1242Y727D01*
X1244Y727D01*
X1244Y733D01*
X1246Y733D01*
X1246Y737D01*
X1248Y737D01*
X1248Y741D01*
X1250Y741D01*
X1250Y743D01*
X1252Y743D01*
X1252Y747D01*
X1254Y747D01*
X1254Y749D01*
X1256Y749D01*
X1256Y751D01*
X1258Y751D01*
X1258Y753D01*
X1260Y753D01*
X1260Y755D01*
X1262Y755D01*
X1262Y757D01*
X1266Y757D01*
X1266Y759D01*
X1268Y759D01*
X1268Y761D01*
X1272Y761D01*
X1272Y763D01*
X1276Y763D01*
X1276Y765D01*
X1280Y765D01*
X1280Y767D01*
X1288Y767D01*
X1288Y769D01*
X1142Y769D01*
G37*
D02*
G36*
X1354Y733D02*
X1354Y729D01*
X1382Y729D01*
X1382Y731D01*
X1392Y731D01*
X1392Y733D01*
X1354Y733D01*
G37*
D02*
G36*
X40Y651D02*
X40Y649D01*
X1326Y649D01*
X1326Y651D01*
X40Y651D01*
G37*
D02*
G36*
X40Y651D02*
X40Y649D01*
X1326Y649D01*
X1326Y651D01*
X40Y651D01*
G37*
D02*
G36*
X40Y649D02*
X40Y325D01*
X1386Y325D01*
X1386Y327D01*
X1378Y327D01*
X1378Y329D01*
X1372Y329D01*
X1372Y331D01*
X1366Y331D01*
X1366Y333D01*
X1362Y333D01*
X1362Y335D01*
X1360Y335D01*
X1360Y337D01*
X1356Y337D01*
X1356Y339D01*
X1354Y339D01*
X1354Y341D01*
X1350Y341D01*
X1350Y343D01*
X1348Y343D01*
X1348Y345D01*
X1346Y345D01*
X1346Y347D01*
X1344Y347D01*
X1344Y349D01*
X1342Y349D01*
X1342Y351D01*
X1340Y351D01*
X1340Y353D01*
X1338Y353D01*
X1338Y355D01*
X1336Y355D01*
X1336Y357D01*
X1334Y357D01*
X1334Y361D01*
X1332Y361D01*
X1332Y363D01*
X1330Y363D01*
X1330Y367D01*
X1328Y367D01*
X1328Y369D01*
X1326Y369D01*
X1326Y373D01*
X1324Y373D01*
X1324Y377D01*
X1322Y377D01*
X1322Y383D01*
X1320Y383D01*
X1320Y389D01*
X1318Y389D01*
X1318Y399D01*
X1316Y399D01*
X1316Y421D01*
X1318Y421D01*
X1318Y431D01*
X1320Y431D01*
X1320Y437D01*
X1322Y437D01*
X1322Y443D01*
X1324Y443D01*
X1324Y447D01*
X1326Y447D01*
X1326Y451D01*
X1328Y451D01*
X1328Y455D01*
X1330Y455D01*
X1330Y457D01*
X1332Y457D01*
X1332Y459D01*
X1334Y459D01*
X1334Y463D01*
X1336Y463D01*
X1336Y465D01*
X1338Y465D01*
X1338Y467D01*
X1340Y467D01*
X1340Y469D01*
X1342Y469D01*
X1342Y493D01*
X1340Y493D01*
X1340Y495D01*
X1338Y495D01*
X1338Y499D01*
X1336Y499D01*
X1336Y501D01*
X1334Y501D01*
X1334Y505D01*
X1332Y505D01*
X1332Y509D01*
X1330Y509D01*
X1330Y515D01*
X1328Y515D01*
X1328Y525D01*
X1326Y525D01*
X1326Y549D01*
X1328Y549D01*
X1328Y559D01*
X1330Y559D01*
X1330Y565D01*
X1332Y565D01*
X1332Y569D01*
X1334Y569D01*
X1334Y573D01*
X1336Y573D01*
X1336Y575D01*
X1338Y575D01*
X1338Y579D01*
X1340Y579D01*
X1340Y581D01*
X1342Y581D01*
X1342Y585D01*
X1344Y585D01*
X1344Y587D01*
X1346Y587D01*
X1346Y609D01*
X1344Y609D01*
X1344Y611D01*
X1342Y611D01*
X1342Y615D01*
X1340Y615D01*
X1340Y617D01*
X1338Y617D01*
X1338Y621D01*
X1336Y621D01*
X1336Y623D01*
X1334Y623D01*
X1334Y627D01*
X1332Y627D01*
X1332Y631D01*
X1330Y631D01*
X1330Y637D01*
X1328Y637D01*
X1328Y647D01*
X1326Y647D01*
X1326Y649D01*
X40Y649D01*
G37*
D02*
G36*
X40Y325D02*
X40Y323D01*
X1770Y323D01*
X1770Y325D01*
X40Y325D01*
G37*
D02*
G36*
X40Y325D02*
X40Y323D01*
X1770Y323D01*
X1770Y325D01*
X40Y325D01*
G37*
D02*
G36*
X40Y323D02*
X40Y283D01*
X1414Y283D01*
X1414Y281D01*
X1422Y281D01*
X1422Y279D01*
X1428Y279D01*
X1428Y277D01*
X1432Y277D01*
X1432Y275D01*
X1436Y275D01*
X1436Y273D01*
X1438Y273D01*
X1438Y271D01*
X1442Y271D01*
X1442Y269D01*
X1444Y269D01*
X1444Y267D01*
X1446Y267D01*
X1446Y265D01*
X1450Y265D01*
X1450Y263D01*
X1452Y263D01*
X1452Y261D01*
X1454Y261D01*
X1454Y257D01*
X1456Y257D01*
X1456Y255D01*
X1458Y255D01*
X1458Y253D01*
X1460Y253D01*
X1460Y249D01*
X1462Y249D01*
X1462Y247D01*
X1464Y247D01*
X1464Y243D01*
X1466Y243D01*
X1466Y239D01*
X1468Y239D01*
X1468Y233D01*
X1470Y233D01*
X1470Y225D01*
X1472Y225D01*
X1472Y195D01*
X1470Y195D01*
X1470Y187D01*
X1468Y187D01*
X1468Y181D01*
X1466Y181D01*
X1466Y177D01*
X1464Y177D01*
X1464Y173D01*
X1462Y173D01*
X1462Y171D01*
X1460Y171D01*
X1460Y167D01*
X1458Y167D01*
X1458Y165D01*
X1456Y165D01*
X1456Y163D01*
X1454Y163D01*
X1454Y161D01*
X1452Y161D01*
X1452Y157D01*
X1448Y157D01*
X1448Y155D01*
X1446Y155D01*
X1446Y153D01*
X1444Y153D01*
X1444Y151D01*
X1442Y151D01*
X1442Y149D01*
X1438Y149D01*
X1438Y147D01*
X1434Y147D01*
X1434Y145D01*
X1432Y145D01*
X1432Y143D01*
X1426Y143D01*
X1426Y141D01*
X1422Y141D01*
X1422Y139D01*
X1412Y139D01*
X1412Y137D01*
X1770Y137D01*
X1770Y323D01*
X40Y323D01*
G37*
D02*
G36*
X40Y283D02*
X40Y273D01*
X212Y273D01*
X212Y271D01*
X220Y271D01*
X220Y269D01*
X224Y269D01*
X224Y267D01*
X228Y267D01*
X228Y265D01*
X232Y265D01*
X232Y263D01*
X236Y263D01*
X236Y261D01*
X238Y261D01*
X238Y259D01*
X240Y259D01*
X240Y257D01*
X242Y257D01*
X242Y255D01*
X244Y255D01*
X244Y253D01*
X246Y253D01*
X246Y251D01*
X248Y251D01*
X248Y249D01*
X250Y249D01*
X250Y247D01*
X252Y247D01*
X252Y243D01*
X254Y243D01*
X254Y239D01*
X256Y239D01*
X256Y235D01*
X258Y235D01*
X258Y231D01*
X260Y231D01*
X260Y223D01*
X262Y223D01*
X262Y197D01*
X260Y197D01*
X260Y189D01*
X258Y189D01*
X258Y185D01*
X256Y185D01*
X256Y181D01*
X254Y181D01*
X254Y177D01*
X252Y177D01*
X252Y173D01*
X250Y173D01*
X250Y171D01*
X248Y171D01*
X248Y169D01*
X246Y169D01*
X246Y167D01*
X244Y167D01*
X244Y165D01*
X242Y165D01*
X242Y163D01*
X240Y163D01*
X240Y161D01*
X238Y161D01*
X238Y159D01*
X234Y159D01*
X234Y157D01*
X232Y157D01*
X232Y155D01*
X228Y155D01*
X228Y153D01*
X224Y153D01*
X224Y151D01*
X218Y151D01*
X218Y149D01*
X210Y149D01*
X210Y147D01*
X1360Y147D01*
X1360Y149D01*
X1358Y149D01*
X1358Y151D01*
X1354Y151D01*
X1354Y153D01*
X1352Y153D01*
X1352Y155D01*
X1350Y155D01*
X1350Y157D01*
X1348Y157D01*
X1348Y159D01*
X1346Y159D01*
X1346Y161D01*
X1344Y161D01*
X1344Y163D01*
X1342Y163D01*
X1342Y165D01*
X1340Y165D01*
X1340Y169D01*
X1338Y169D01*
X1338Y171D01*
X1336Y171D01*
X1336Y175D01*
X1334Y175D01*
X1334Y179D01*
X1332Y179D01*
X1332Y183D01*
X1330Y183D01*
X1330Y189D01*
X1328Y189D01*
X1328Y197D01*
X1326Y197D01*
X1326Y223D01*
X1328Y223D01*
X1328Y231D01*
X1330Y231D01*
X1330Y237D01*
X1332Y237D01*
X1332Y241D01*
X1334Y241D01*
X1334Y245D01*
X1336Y245D01*
X1336Y249D01*
X1338Y249D01*
X1338Y253D01*
X1340Y253D01*
X1340Y255D01*
X1342Y255D01*
X1342Y257D01*
X1344Y257D01*
X1344Y259D01*
X1346Y259D01*
X1346Y261D01*
X1348Y261D01*
X1348Y263D01*
X1350Y263D01*
X1350Y265D01*
X1352Y265D01*
X1352Y267D01*
X1354Y267D01*
X1354Y269D01*
X1356Y269D01*
X1356Y271D01*
X1360Y271D01*
X1360Y273D01*
X1364Y273D01*
X1364Y275D01*
X1366Y275D01*
X1366Y277D01*
X1370Y277D01*
X1370Y279D01*
X1376Y279D01*
X1376Y281D01*
X1384Y281D01*
X1384Y283D01*
X40Y283D01*
G37*
D02*
G36*
X40Y273D02*
X40Y147D01*
X188Y147D01*
X188Y149D01*
X180Y149D01*
X180Y151D01*
X174Y151D01*
X174Y153D01*
X170Y153D01*
X170Y155D01*
X166Y155D01*
X166Y157D01*
X164Y157D01*
X164Y159D01*
X160Y159D01*
X160Y161D01*
X158Y161D01*
X158Y163D01*
X156Y163D01*
X156Y165D01*
X154Y165D01*
X154Y167D01*
X152Y167D01*
X152Y169D01*
X150Y169D01*
X150Y171D01*
X148Y171D01*
X148Y175D01*
X146Y175D01*
X146Y177D01*
X144Y177D01*
X144Y181D01*
X142Y181D01*
X142Y185D01*
X140Y185D01*
X140Y191D01*
X138Y191D01*
X138Y199D01*
X136Y199D01*
X136Y221D01*
X138Y221D01*
X138Y229D01*
X140Y229D01*
X140Y235D01*
X142Y235D01*
X142Y239D01*
X144Y239D01*
X144Y243D01*
X146Y243D01*
X146Y245D01*
X148Y245D01*
X148Y249D01*
X150Y249D01*
X150Y251D01*
X152Y251D01*
X152Y253D01*
X154Y253D01*
X154Y255D01*
X156Y255D01*
X156Y257D01*
X158Y257D01*
X158Y259D01*
X160Y259D01*
X160Y261D01*
X164Y261D01*
X164Y263D01*
X166Y263D01*
X166Y265D01*
X170Y265D01*
X170Y267D01*
X174Y267D01*
X174Y269D01*
X178Y269D01*
X178Y271D01*
X186Y271D01*
X186Y273D01*
X40Y273D01*
G37*
D02*
G36*
X40Y147D02*
X40Y145D01*
X1364Y145D01*
X1364Y147D01*
X40Y147D01*
G37*
D02*
G36*
X40Y147D02*
X40Y145D01*
X1364Y145D01*
X1364Y147D01*
X40Y147D01*
G37*
D02*
G36*
X40Y145D02*
X40Y137D01*
X1386Y137D01*
X1386Y139D01*
X1378Y139D01*
X1378Y141D01*
X1372Y141D01*
X1372Y143D01*
X1368Y143D01*
X1368Y145D01*
X40Y145D01*
G37*
D02*
G36*
X40Y137D02*
X40Y135D01*
X1770Y135D01*
X1770Y137D01*
X40Y137D01*
G37*
D02*
G36*
X40Y137D02*
X40Y135D01*
X1770Y135D01*
X1770Y137D01*
X40Y137D01*
G37*
D02*
G36*
X40Y135D02*
X40Y41D01*
X1770Y41D01*
X1770Y135D01*
X40Y135D01*
G37*
D02*
G36*
X1075Y693D02*
X1120Y693D01*
X1120Y651D01*
X1075Y651D01*
X1075Y693D01*
G37*
D02*
G36*
X1036Y734D02*
X1078Y734D01*
X1078Y689D01*
X1036Y689D01*
X1036Y734D01*
G37*
D02*
G36*
X1116Y734D02*
X1158Y734D01*
X1158Y689D01*
X1116Y689D01*
X1116Y734D01*
G37*
D02*
G36*
X1426Y691D02*
X1472Y691D01*
X1472Y632D01*
X1426Y632D01*
X1426Y691D01*
G37*
D02*
G36*
X335Y1523D02*
X388Y1523D01*
X388Y1463D01*
X335Y1463D01*
X335Y1523D01*
G37*
D02*
G36*
X286Y1474D02*
X346Y1474D01*
X346Y1421D01*
X286Y1421D01*
X286Y1474D01*
G37*
D02*
G36*
X1275Y773D02*
X1320Y773D01*
X1320Y731D01*
X1275Y731D01*
X1275Y773D01*
G37*
D02*
G36*
X1236Y734D02*
X1278Y734D01*
X1278Y689D01*
X1236Y689D01*
X1236Y734D01*
G37*
D02*
G36*
X1426Y1193D02*
X1472Y1193D01*
X1472Y1134D01*
X1426Y1134D01*
X1426Y1193D01*
G37*
D02*
G54D15*
X363Y1413D02*
X329Y1447D01*
X363Y1480D01*
X396Y1447D01*
X363Y1413D01*
D02*
G04 End of Copper0*
M02*