; NON-PLATED HOLES START AT T1
; THROUGH (PLATED) HOLES START AT T100
M48
INCH
T1C0.118110
T2C0.086614
T3C0.125984
T100C0.059842
T101C0.038000
T102C0.031497
%
T1
X013995Y004038
X013988Y014164
T2
X001991Y002101
X001991Y016101
T3
X013991Y004101
X013991Y014101
T100
X013991Y012833
X013992Y005369
X013992Y002101
X013991Y016101
X013992Y006589
X013991Y011613
T101
X012991Y011101
X010991Y007101
X012991Y009101
X010991Y009101
X010991Y008101
X012991Y007101
X010991Y010101
T102
X003627Y014465
X004323Y013769
T00
M30
