M48
;DRILL file {KiCad (5.0.2)-1} date 5/2/2019 12:03:53 AM
;FORMAT={-:-/ absolute / inch / decimal}
FMAT,2
INCH,TZ
T1C0.0276
T2C0.0315
T3C0.0394
%
G90
G05
T1
X5.05Y-3.6
X6.45Y-3.8
X6.55Y-3.4
X6.55Y-3.7
X5.85Y-3.95
X6.15Y-3.95
X5.85Y-4.05
X6.15Y-4.05
X5.85Y-4.15
X6.15Y-4.15
X6.55Y-3.8
X6.55Y-4.1
X5.05Y-3.9
X5.15Y-3.8
X5.15Y-4.1
X6.45Y-4.1
T2
X6.35Y-3.9031
X6.35Y-4.1
X5.85Y-3.75
X6.15Y-3.75
X5.85Y-3.85
X6.15Y-3.85
X5.25Y-3.6
X5.25Y-3.7
X5.25Y-3.8
X5.25Y-3.9
X5.55Y-3.6
X5.55Y-3.7
X5.55Y-3.8
X5.55Y-3.9
X5.8Y-3.3
X5.8Y-3.4
X5.8Y-3.5
X5.8Y-3.6
X6.1Y-3.3
X6.1Y-3.4
X6.1Y-3.5
X6.1Y-3.6
T3
X4.95Y-4.3
X4.95Y-4.4
X5.05Y-4.3
X5.05Y-4.4
X5.15Y-4.3
X5.15Y-4.4
X5.25Y-3.4
X6.75Y-4.3
X6.75Y-4.4
X6.85Y-4.3
X6.85Y-4.4
X6.95Y-4.3
X6.95Y-4.4
X6.25Y-3.4
X5.35Y-3.4
X4.55Y-4.3
X4.55Y-4.4
X4.65Y-4.3
X4.65Y-4.4
X4.75Y-4.3
X4.75Y-4.4
X5.85Y-4.45
X4.95Y-3.2
X4.95Y-3.3
X5.05Y-3.2
X5.05Y-3.3
X5.15Y-3.2
X5.15Y-3.3
X4.55Y-3.2
X4.55Y-3.3
X4.65Y-3.2
X4.65Y-3.3
X4.75Y-3.2
X4.75Y-3.3
X6.35Y-3.2
X6.35Y-3.3
X6.45Y-3.2
X6.45Y-3.3
X6.55Y-3.2
X6.55Y-3.3
X4.25Y-3.9
X4.25Y-4.
X4.25Y-4.1
X4.35Y-3.9
X4.35Y-4.
X4.35Y-4.1
X6.75Y-3.2
X6.75Y-3.3
X6.85Y-3.2
X6.85Y-3.3
X6.95Y-3.2
X6.95Y-3.3
X6.35Y-4.3
X6.35Y-4.4
X6.45Y-4.3
X6.45Y-4.4
X6.55Y-4.3
X6.55Y-4.4
X5.75Y-4.45
X7.15Y-3.9
X7.15Y-4.
X7.15Y-4.1
X7.25Y-3.9
X7.25Y-4.
X7.25Y-4.1
X5.95Y-4.45
X6.35Y-3.4
X4.25Y-3.5
X4.25Y-3.6
X4.25Y-3.7
X4.35Y-3.5
X4.35Y-3.6
X4.35Y-3.7
X7.15Y-3.5
X7.15Y-3.6
X7.15Y-3.7
X7.25Y-3.5
X7.25Y-3.6
X7.25Y-3.7
T0
M30
