%TF.GenerationSoftware,KiCad,Pcbnew,(5.0.2)-1*%
%TF.CreationDate,2019-05-02T00:01:05-05:00*%
%TF.ProjectId,vcaMain,7663614d-6169-46e2-9e6b-696361645f70,rev?*%
%TF.SameCoordinates,Original*%
%TF.FileFunction,Soldermask,Bot*%
%TF.FilePolarity,Negative*%
%FSLAX46Y46*%
G04 Gerber Fmt 4.6, Leading zero omitted, Abs format (unit mm)*
G04 Created by KiCad (PCBNEW (5.0.2)-1) date 5/2/2019 12:01:05 AM*
%MOMM*%
%LPD*%
G01*
G04 APERTURE LIST*
%ADD10C,0.010000*%
%ADD11C,0.100000*%
G04 APERTURE END LIST*
D10*
G36*
X119899779Y-102127678D02*
X119910889Y-102121999D01*
X120002456Y-102047908D01*
X120055260Y-101945169D01*
X120065800Y-101866333D01*
X120045172Y-101743899D01*
X119981679Y-101633836D01*
X119872905Y-101533394D01*
X119716432Y-101439821D01*
X119672539Y-101418559D01*
X119563883Y-101372525D01*
X119466570Y-101344978D01*
X119356501Y-101330216D01*
X119278430Y-101325318D01*
X119163343Y-101321965D01*
X119078506Y-101327093D01*
X119003649Y-101343832D01*
X118918506Y-101375313D01*
X118897064Y-101384242D01*
X118793963Y-101423377D01*
X118709362Y-101441975D01*
X118617542Y-101444510D01*
X118567273Y-101441621D01*
X118403284Y-101412116D01*
X118249411Y-101351914D01*
X118122066Y-101268109D01*
X118085888Y-101233540D01*
X118023677Y-101166851D01*
X118143038Y-101057265D01*
X118209816Y-100992003D01*
X118245842Y-100941604D01*
X118260262Y-100889486D01*
X118262400Y-100840779D01*
X118239111Y-100703375D01*
X118168757Y-100581777D01*
X118050609Y-100475021D01*
X117932200Y-100405121D01*
X117712467Y-100319118D01*
X117494598Y-100282106D01*
X117281710Y-100294308D01*
X117101141Y-100345860D01*
X116994894Y-100383839D01*
X116906474Y-100401438D01*
X116809322Y-100402989D01*
X116766609Y-100400417D01*
X116598876Y-100370364D01*
X116442977Y-100309006D01*
X116314631Y-100223121D01*
X116281574Y-100191167D01*
X116218448Y-100123504D01*
X116324268Y-100035605D01*
X116421858Y-99930844D01*
X116468963Y-99821672D01*
X116465542Y-99709693D01*
X116411553Y-99596510D01*
X116337953Y-99511896D01*
X116196815Y-99404555D01*
X116028510Y-99321328D01*
X115845827Y-99265409D01*
X115661559Y-99239992D01*
X115488496Y-99248270D01*
X115385609Y-99274105D01*
X115313782Y-99304137D01*
X115258928Y-99334564D01*
X115252259Y-99339600D01*
X115218073Y-99396429D01*
X115222580Y-99463775D01*
X115263544Y-99522063D01*
X115273969Y-99529661D01*
X115317453Y-99552525D01*
X115359450Y-99553315D01*
X115421989Y-99531701D01*
X115432667Y-99527275D01*
X115558697Y-99498160D01*
X115706486Y-99500500D01*
X115860932Y-99530794D01*
X116006936Y-99585537D01*
X116129397Y-99661228D01*
X116170087Y-99698328D01*
X116242747Y-99774168D01*
X116136729Y-99862232D01*
X116038673Y-99966238D01*
X115991304Y-100073290D01*
X115994623Y-100183443D01*
X116048632Y-100296755D01*
X116153334Y-100413281D01*
X116157124Y-100416707D01*
X116319445Y-100532133D01*
X116508744Y-100609159D01*
X116729743Y-100649589D01*
X116776853Y-100653358D01*
X116889648Y-100658165D01*
X116974252Y-100652968D01*
X117052813Y-100634570D01*
X117147146Y-100599907D01*
X117293785Y-100553327D01*
X117427270Y-100533544D01*
X117444290Y-100533201D01*
X117588752Y-100550242D01*
X117737648Y-100596391D01*
X117871610Y-100664186D01*
X117956581Y-100730551D01*
X118007786Y-100783700D01*
X118026498Y-100814680D01*
X118016766Y-100836610D01*
X117994681Y-100853973D01*
X117877295Y-100954445D01*
X117808374Y-101052995D01*
X117789671Y-101110842D01*
X117793331Y-101224128D01*
X117843777Y-101336926D01*
X117937153Y-101444794D01*
X118069598Y-101543289D01*
X118237255Y-101627967D01*
X118239622Y-101628946D01*
X118371126Y-101667583D01*
X118523720Y-101688131D01*
X118681263Y-101690566D01*
X118827612Y-101674867D01*
X118946626Y-101641013D01*
X118969794Y-101629936D01*
X119115820Y-101579546D01*
X119279150Y-101570445D01*
X119449205Y-101601459D01*
X119615407Y-101671414D01*
X119675850Y-101708296D01*
X119764141Y-101778123D01*
X119803920Y-101837838D01*
X119796011Y-101889445D01*
X119763312Y-101921279D01*
X119719734Y-101978941D01*
X119714355Y-102051105D01*
X119748542Y-102117286D01*
X119750114Y-102118886D01*
X119791922Y-102151185D01*
X119835545Y-102153995D01*
X119899779Y-102127678D01*
X119899779Y-102127678D01*
G37*
X119899779Y-102127678D02*
X119910889Y-102121999D01*
X120002456Y-102047908D01*
X120055260Y-101945169D01*
X120065800Y-101866333D01*
X120045172Y-101743899D01*
X119981679Y-101633836D01*
X119872905Y-101533394D01*
X119716432Y-101439821D01*
X119672539Y-101418559D01*
X119563883Y-101372525D01*
X119466570Y-101344978D01*
X119356501Y-101330216D01*
X119278430Y-101325318D01*
X119163343Y-101321965D01*
X119078506Y-101327093D01*
X119003649Y-101343832D01*
X118918506Y-101375313D01*
X118897064Y-101384242D01*
X118793963Y-101423377D01*
X118709362Y-101441975D01*
X118617542Y-101444510D01*
X118567273Y-101441621D01*
X118403284Y-101412116D01*
X118249411Y-101351914D01*
X118122066Y-101268109D01*
X118085888Y-101233540D01*
X118023677Y-101166851D01*
X118143038Y-101057265D01*
X118209816Y-100992003D01*
X118245842Y-100941604D01*
X118260262Y-100889486D01*
X118262400Y-100840779D01*
X118239111Y-100703375D01*
X118168757Y-100581777D01*
X118050609Y-100475021D01*
X117932200Y-100405121D01*
X117712467Y-100319118D01*
X117494598Y-100282106D01*
X117281710Y-100294308D01*
X117101141Y-100345860D01*
X116994894Y-100383839D01*
X116906474Y-100401438D01*
X116809322Y-100402989D01*
X116766609Y-100400417D01*
X116598876Y-100370364D01*
X116442977Y-100309006D01*
X116314631Y-100223121D01*
X116281574Y-100191167D01*
X116218448Y-100123504D01*
X116324268Y-100035605D01*
X116421858Y-99930844D01*
X116468963Y-99821672D01*
X116465542Y-99709693D01*
X116411553Y-99596510D01*
X116337953Y-99511896D01*
X116196815Y-99404555D01*
X116028510Y-99321328D01*
X115845827Y-99265409D01*
X115661559Y-99239992D01*
X115488496Y-99248270D01*
X115385609Y-99274105D01*
X115313782Y-99304137D01*
X115258928Y-99334564D01*
X115252259Y-99339600D01*
X115218073Y-99396429D01*
X115222580Y-99463775D01*
X115263544Y-99522063D01*
X115273969Y-99529661D01*
X115317453Y-99552525D01*
X115359450Y-99553315D01*
X115421989Y-99531701D01*
X115432667Y-99527275D01*
X115558697Y-99498160D01*
X115706486Y-99500500D01*
X115860932Y-99530794D01*
X116006936Y-99585537D01*
X116129397Y-99661228D01*
X116170087Y-99698328D01*
X116242747Y-99774168D01*
X116136729Y-99862232D01*
X116038673Y-99966238D01*
X115991304Y-100073290D01*
X115994623Y-100183443D01*
X116048632Y-100296755D01*
X116153334Y-100413281D01*
X116157124Y-100416707D01*
X116319445Y-100532133D01*
X116508744Y-100609159D01*
X116729743Y-100649589D01*
X116776853Y-100653358D01*
X116889648Y-100658165D01*
X116974252Y-100652968D01*
X117052813Y-100634570D01*
X117147146Y-100599907D01*
X117293785Y-100553327D01*
X117427270Y-100533544D01*
X117444290Y-100533201D01*
X117588752Y-100550242D01*
X117737648Y-100596391D01*
X117871610Y-100664186D01*
X117956581Y-100730551D01*
X118007786Y-100783700D01*
X118026498Y-100814680D01*
X118016766Y-100836610D01*
X117994681Y-100853973D01*
X117877295Y-100954445D01*
X117808374Y-101052995D01*
X117789671Y-101110842D01*
X117793331Y-101224128D01*
X117843777Y-101336926D01*
X117937153Y-101444794D01*
X118069598Y-101543289D01*
X118237255Y-101627967D01*
X118239622Y-101628946D01*
X118371126Y-101667583D01*
X118523720Y-101688131D01*
X118681263Y-101690566D01*
X118827612Y-101674867D01*
X118946626Y-101641013D01*
X118969794Y-101629936D01*
X119115820Y-101579546D01*
X119279150Y-101570445D01*
X119449205Y-101601459D01*
X119615407Y-101671414D01*
X119675850Y-101708296D01*
X119764141Y-101778123D01*
X119803920Y-101837838D01*
X119796011Y-101889445D01*
X119763312Y-101921279D01*
X119719734Y-101978941D01*
X119714355Y-102051105D01*
X119748542Y-102117286D01*
X119750114Y-102118886D01*
X119791922Y-102151185D01*
X119835545Y-102153995D01*
X119899779Y-102127678D01*
G36*
X121216011Y-101368795D02*
X121248421Y-101357098D01*
X121272444Y-101330488D01*
X121289325Y-101283142D01*
X121300313Y-101209240D01*
X121306655Y-101102959D01*
X121309598Y-100958478D01*
X121310389Y-100769974D01*
X121310400Y-100734586D01*
X121310143Y-100551743D01*
X121308990Y-100412846D01*
X121306370Y-100311044D01*
X121301709Y-100239485D01*
X121294434Y-100191317D01*
X121283973Y-100159688D01*
X121269752Y-100137746D01*
X121259600Y-100126800D01*
X121243888Y-100113036D01*
X121223638Y-100102008D01*
X121193475Y-100093416D01*
X121148022Y-100086956D01*
X121081904Y-100082325D01*
X120989743Y-100079221D01*
X120866165Y-100077339D01*
X120705793Y-100076379D01*
X120503251Y-100076036D01*
X120357900Y-100076000D01*
X119507000Y-100076000D01*
X119507000Y-99598480D01*
X119505763Y-99408852D01*
X119501913Y-99266478D01*
X119495241Y-99167869D01*
X119485537Y-99109536D01*
X119476520Y-99090480D01*
X119452966Y-99081638D01*
X119399430Y-99074489D01*
X119312410Y-99068915D01*
X119188408Y-99064798D01*
X119023923Y-99062018D01*
X118815456Y-99060459D01*
X118574820Y-99060000D01*
X117703600Y-99060000D01*
X117703600Y-98569780D01*
X117702414Y-98377908D01*
X117698719Y-98233245D01*
X117692308Y-98132253D01*
X117682974Y-98071394D01*
X117673120Y-98049080D01*
X117616835Y-98021661D01*
X117548241Y-98022324D01*
X117491097Y-98048824D01*
X117475893Y-98067731D01*
X117466980Y-98109903D01*
X117459899Y-98193381D01*
X117454649Y-98308706D01*
X117451231Y-98446417D01*
X117449644Y-98597054D01*
X117449889Y-98751156D01*
X117451965Y-98899263D01*
X117455873Y-99031915D01*
X117461613Y-99139651D01*
X117469184Y-99213012D01*
X117475893Y-99239470D01*
X117484893Y-99252608D01*
X117499779Y-99263170D01*
X117525693Y-99271438D01*
X117567777Y-99277692D01*
X117631172Y-99282211D01*
X117721019Y-99285276D01*
X117842459Y-99287167D01*
X118000634Y-99288164D01*
X118200686Y-99288547D01*
X118377593Y-99288600D01*
X119253000Y-99288600D01*
X119253000Y-99760170D01*
X119254418Y-99927307D01*
X119258430Y-100070542D01*
X119264668Y-100182600D01*
X119272764Y-100256207D01*
X119279293Y-100280870D01*
X119288293Y-100294008D01*
X119303179Y-100304570D01*
X119329093Y-100312838D01*
X119371177Y-100319092D01*
X119434572Y-100323611D01*
X119524419Y-100326676D01*
X119645859Y-100328567D01*
X119804034Y-100329564D01*
X120004086Y-100329947D01*
X120180993Y-100330000D01*
X121056400Y-100330000D01*
X121056400Y-100820221D01*
X121057002Y-101001234D01*
X121059697Y-101137704D01*
X121065819Y-101235881D01*
X121076701Y-101302016D01*
X121093676Y-101342358D01*
X121118077Y-101363159D01*
X121151238Y-101370670D01*
X121173965Y-101371401D01*
X121216011Y-101368795D01*
X121216011Y-101368795D01*
G37*
X121216011Y-101368795D02*
X121248421Y-101357098D01*
X121272444Y-101330488D01*
X121289325Y-101283142D01*
X121300313Y-101209240D01*
X121306655Y-101102959D01*
X121309598Y-100958478D01*
X121310389Y-100769974D01*
X121310400Y-100734586D01*
X121310143Y-100551743D01*
X121308990Y-100412846D01*
X121306370Y-100311044D01*
X121301709Y-100239485D01*
X121294434Y-100191317D01*
X121283973Y-100159688D01*
X121269752Y-100137746D01*
X121259600Y-100126800D01*
X121243888Y-100113036D01*
X121223638Y-100102008D01*
X121193475Y-100093416D01*
X121148022Y-100086956D01*
X121081904Y-100082325D01*
X120989743Y-100079221D01*
X120866165Y-100077339D01*
X120705793Y-100076379D01*
X120503251Y-100076036D01*
X120357900Y-100076000D01*
X119507000Y-100076000D01*
X119507000Y-99598480D01*
X119505763Y-99408852D01*
X119501913Y-99266478D01*
X119495241Y-99167869D01*
X119485537Y-99109536D01*
X119476520Y-99090480D01*
X119452966Y-99081638D01*
X119399430Y-99074489D01*
X119312410Y-99068915D01*
X119188408Y-99064798D01*
X119023923Y-99062018D01*
X118815456Y-99060459D01*
X118574820Y-99060000D01*
X117703600Y-99060000D01*
X117703600Y-98569780D01*
X117702414Y-98377908D01*
X117698719Y-98233245D01*
X117692308Y-98132253D01*
X117682974Y-98071394D01*
X117673120Y-98049080D01*
X117616835Y-98021661D01*
X117548241Y-98022324D01*
X117491097Y-98048824D01*
X117475893Y-98067731D01*
X117466980Y-98109903D01*
X117459899Y-98193381D01*
X117454649Y-98308706D01*
X117451231Y-98446417D01*
X117449644Y-98597054D01*
X117449889Y-98751156D01*
X117451965Y-98899263D01*
X117455873Y-99031915D01*
X117461613Y-99139651D01*
X117469184Y-99213012D01*
X117475893Y-99239470D01*
X117484893Y-99252608D01*
X117499779Y-99263170D01*
X117525693Y-99271438D01*
X117567777Y-99277692D01*
X117631172Y-99282211D01*
X117721019Y-99285276D01*
X117842459Y-99287167D01*
X118000634Y-99288164D01*
X118200686Y-99288547D01*
X118377593Y-99288600D01*
X119253000Y-99288600D01*
X119253000Y-99760170D01*
X119254418Y-99927307D01*
X119258430Y-100070542D01*
X119264668Y-100182600D01*
X119272764Y-100256207D01*
X119279293Y-100280870D01*
X119288293Y-100294008D01*
X119303179Y-100304570D01*
X119329093Y-100312838D01*
X119371177Y-100319092D01*
X119434572Y-100323611D01*
X119524419Y-100326676D01*
X119645859Y-100328567D01*
X119804034Y-100329564D01*
X120004086Y-100329947D01*
X120180993Y-100330000D01*
X121056400Y-100330000D01*
X121056400Y-100820221D01*
X121057002Y-101001234D01*
X121059697Y-101137704D01*
X121065819Y-101235881D01*
X121076701Y-101302016D01*
X121093676Y-101342358D01*
X121118077Y-101363159D01*
X121151238Y-101370670D01*
X121173965Y-101371401D01*
X121216011Y-101368795D01*
G36*
X123015050Y-100317540D02*
X123087650Y-100283265D01*
X123187187Y-100231832D01*
X123305455Y-100167902D01*
X123434242Y-100096132D01*
X123565341Y-100021180D01*
X123690542Y-99947705D01*
X123801637Y-99880365D01*
X123890415Y-99823819D01*
X123948668Y-99782725D01*
X123961683Y-99771561D01*
X123992159Y-99735570D01*
X124003602Y-99700549D01*
X123992194Y-99662794D01*
X123954121Y-99618600D01*
X123885566Y-99564261D01*
X123782713Y-99496072D01*
X123641746Y-99410328D01*
X123510052Y-99333050D01*
X123368041Y-99251888D01*
X123238035Y-99180323D01*
X123127353Y-99122166D01*
X123043309Y-99081226D01*
X122993222Y-99061311D01*
X122985566Y-99060000D01*
X122946969Y-99072191D01*
X122872385Y-99106126D01*
X122769647Y-99157854D01*
X122646590Y-99223424D01*
X122511047Y-99298882D01*
X122503076Y-99303417D01*
X122075731Y-99546834D01*
X121762915Y-99364398D01*
X121650861Y-99298928D01*
X121555818Y-99243169D01*
X121485748Y-99201811D01*
X121448614Y-99179543D01*
X121444801Y-99177066D01*
X121463787Y-99163391D01*
X121519708Y-99128611D01*
X121605489Y-99076995D01*
X121714056Y-99012812D01*
X121806607Y-98958746D01*
X121953604Y-98871658D01*
X122060698Y-98803365D01*
X122133025Y-98749167D01*
X122175721Y-98704361D01*
X122193920Y-98664245D01*
X122192760Y-98624117D01*
X122188653Y-98608957D01*
X122163179Y-98583479D01*
X122100973Y-98538377D01*
X122009920Y-98478313D01*
X121897908Y-98407949D01*
X121772823Y-98331947D01*
X121642551Y-98254970D01*
X121514979Y-98181679D01*
X121397993Y-98116735D01*
X121299479Y-98064802D01*
X121227325Y-98030540D01*
X121189970Y-98018600D01*
X121153831Y-98030734D01*
X121081514Y-98064507D01*
X120980727Y-98115977D01*
X120859180Y-98181200D01*
X120724583Y-98256234D01*
X120718128Y-98259900D01*
X120585646Y-98334820D01*
X120468612Y-98400265D01*
X120374043Y-98452373D01*
X120308958Y-98487279D01*
X120280376Y-98501119D01*
X120279874Y-98501200D01*
X120254149Y-98489107D01*
X120192820Y-98455875D01*
X120104098Y-98406074D01*
X119996195Y-98344274D01*
X119952452Y-98318934D01*
X119638783Y-98136667D01*
X120011041Y-97918593D01*
X120146832Y-97838660D01*
X120244820Y-97779166D01*
X120311163Y-97735099D01*
X120352023Y-97701442D01*
X120373559Y-97673183D01*
X120381930Y-97645308D01*
X120383300Y-97615571D01*
X120381958Y-97586782D01*
X120374283Y-97561230D01*
X120354800Y-97534717D01*
X120318034Y-97503047D01*
X120258510Y-97462022D01*
X120170753Y-97407446D01*
X120049289Y-97335121D01*
X119913400Y-97255353D01*
X119771370Y-97173563D01*
X119641280Y-97101303D01*
X119530436Y-97042419D01*
X119446140Y-97000755D01*
X119395699Y-96980158D01*
X119387790Y-96978641D01*
X119331204Y-96997077D01*
X119294444Y-97030934D01*
X119272488Y-97073696D01*
X119272631Y-97114948D01*
X119299235Y-97159269D01*
X119356663Y-97211238D01*
X119449281Y-97275433D01*
X119581451Y-97356433D01*
X119634295Y-97387516D01*
X119752707Y-97457233D01*
X119855797Y-97518926D01*
X119935448Y-97567661D01*
X119983543Y-97598502D01*
X119993459Y-97605900D01*
X119979563Y-97624703D01*
X119928138Y-97663828D01*
X119845941Y-97718712D01*
X119739732Y-97784789D01*
X119648128Y-97839097D01*
X119505361Y-97923364D01*
X119401807Y-97988527D01*
X119331936Y-98039540D01*
X119290220Y-98081355D01*
X119271128Y-98118928D01*
X119269133Y-98157212D01*
X119272300Y-98175810D01*
X119295736Y-98199339D01*
X119355795Y-98243053D01*
X119444776Y-98302320D01*
X119554977Y-98372505D01*
X119678699Y-98448973D01*
X119808241Y-98527090D01*
X119935901Y-98602222D01*
X120053979Y-98669735D01*
X120154775Y-98724993D01*
X120230587Y-98763363D01*
X120273715Y-98780210D01*
X120277260Y-98780600D01*
X120309511Y-98768549D01*
X120378299Y-98734994D01*
X120476172Y-98683839D01*
X120595675Y-98618984D01*
X120729353Y-98544332D01*
X120738237Y-98539300D01*
X120871792Y-98464299D01*
X120990803Y-98398798D01*
X121088028Y-98346674D01*
X121156226Y-98311806D01*
X121188154Y-98298071D01*
X121188881Y-98298000D01*
X121218369Y-98310097D01*
X121281831Y-98342770D01*
X121369598Y-98390593D01*
X121472004Y-98448138D01*
X121579380Y-98509979D01*
X121682060Y-98570690D01*
X121763898Y-98620775D01*
X121784414Y-98635523D01*
X121791382Y-98650585D01*
X121779594Y-98670221D01*
X121743839Y-98698689D01*
X121678906Y-98740249D01*
X121579587Y-98799159D01*
X121462903Y-98866827D01*
X121339763Y-98939755D01*
X121231613Y-99007081D01*
X121146485Y-99063546D01*
X121092414Y-99103892D01*
X121077705Y-99119018D01*
X121064273Y-99179429D01*
X121068695Y-99211126D01*
X121093549Y-99235548D01*
X121154888Y-99280275D01*
X121244978Y-99340612D01*
X121356082Y-99411862D01*
X121480464Y-99489331D01*
X121610389Y-99568322D01*
X121738121Y-99644139D01*
X121855923Y-99712087D01*
X121956061Y-99767470D01*
X122030798Y-99805592D01*
X122072398Y-99821756D01*
X122075041Y-99822001D01*
X122105309Y-99809882D01*
X122172311Y-99776095D01*
X122268857Y-99724494D01*
X122387758Y-99658933D01*
X122521825Y-99583264D01*
X122542934Y-99571203D01*
X122981157Y-99320406D01*
X123282385Y-99494875D01*
X123392684Y-99559853D01*
X123485836Y-99616808D01*
X123553601Y-99660541D01*
X123587736Y-99685855D01*
X123590145Y-99688936D01*
X123571675Y-99707812D01*
X123516456Y-99746649D01*
X123432034Y-99800535D01*
X123325954Y-99864557D01*
X123272687Y-99895639D01*
X123154164Y-99964949D01*
X123048710Y-100028213D01*
X122965518Y-100079799D01*
X122913783Y-100114070D01*
X122904250Y-100121412D01*
X122863812Y-100182820D01*
X122863645Y-100248219D01*
X122898315Y-100302158D01*
X122962388Y-100329183D01*
X122977598Y-100330001D01*
X123015050Y-100317540D01*
X123015050Y-100317540D01*
G37*
X123015050Y-100317540D02*
X123087650Y-100283265D01*
X123187187Y-100231832D01*
X123305455Y-100167902D01*
X123434242Y-100096132D01*
X123565341Y-100021180D01*
X123690542Y-99947705D01*
X123801637Y-99880365D01*
X123890415Y-99823819D01*
X123948668Y-99782725D01*
X123961683Y-99771561D01*
X123992159Y-99735570D01*
X124003602Y-99700549D01*
X123992194Y-99662794D01*
X123954121Y-99618600D01*
X123885566Y-99564261D01*
X123782713Y-99496072D01*
X123641746Y-99410328D01*
X123510052Y-99333050D01*
X123368041Y-99251888D01*
X123238035Y-99180323D01*
X123127353Y-99122166D01*
X123043309Y-99081226D01*
X122993222Y-99061311D01*
X122985566Y-99060000D01*
X122946969Y-99072191D01*
X122872385Y-99106126D01*
X122769647Y-99157854D01*
X122646590Y-99223424D01*
X122511047Y-99298882D01*
X122503076Y-99303417D01*
X122075731Y-99546834D01*
X121762915Y-99364398D01*
X121650861Y-99298928D01*
X121555818Y-99243169D01*
X121485748Y-99201811D01*
X121448614Y-99179543D01*
X121444801Y-99177066D01*
X121463787Y-99163391D01*
X121519708Y-99128611D01*
X121605489Y-99076995D01*
X121714056Y-99012812D01*
X121806607Y-98958746D01*
X121953604Y-98871658D01*
X122060698Y-98803365D01*
X122133025Y-98749167D01*
X122175721Y-98704361D01*
X122193920Y-98664245D01*
X122192760Y-98624117D01*
X122188653Y-98608957D01*
X122163179Y-98583479D01*
X122100973Y-98538377D01*
X122009920Y-98478313D01*
X121897908Y-98407949D01*
X121772823Y-98331947D01*
X121642551Y-98254970D01*
X121514979Y-98181679D01*
X121397993Y-98116735D01*
X121299479Y-98064802D01*
X121227325Y-98030540D01*
X121189970Y-98018600D01*
X121153831Y-98030734D01*
X121081514Y-98064507D01*
X120980727Y-98115977D01*
X120859180Y-98181200D01*
X120724583Y-98256234D01*
X120718128Y-98259900D01*
X120585646Y-98334820D01*
X120468612Y-98400265D01*
X120374043Y-98452373D01*
X120308958Y-98487279D01*
X120280376Y-98501119D01*
X120279874Y-98501200D01*
X120254149Y-98489107D01*
X120192820Y-98455875D01*
X120104098Y-98406074D01*
X119996195Y-98344274D01*
X119952452Y-98318934D01*
X119638783Y-98136667D01*
X120011041Y-97918593D01*
X120146832Y-97838660D01*
X120244820Y-97779166D01*
X120311163Y-97735099D01*
X120352023Y-97701442D01*
X120373559Y-97673183D01*
X120381930Y-97645308D01*
X120383300Y-97615571D01*
X120381958Y-97586782D01*
X120374283Y-97561230D01*
X120354800Y-97534717D01*
X120318034Y-97503047D01*
X120258510Y-97462022D01*
X120170753Y-97407446D01*
X120049289Y-97335121D01*
X119913400Y-97255353D01*
X119771370Y-97173563D01*
X119641280Y-97101303D01*
X119530436Y-97042419D01*
X119446140Y-97000755D01*
X119395699Y-96980158D01*
X119387790Y-96978641D01*
X119331204Y-96997077D01*
X119294444Y-97030934D01*
X119272488Y-97073696D01*
X119272631Y-97114948D01*
X119299235Y-97159269D01*
X119356663Y-97211238D01*
X119449281Y-97275433D01*
X119581451Y-97356433D01*
X119634295Y-97387516D01*
X119752707Y-97457233D01*
X119855797Y-97518926D01*
X119935448Y-97567661D01*
X119983543Y-97598502D01*
X119993459Y-97605900D01*
X119979563Y-97624703D01*
X119928138Y-97663828D01*
X119845941Y-97718712D01*
X119739732Y-97784789D01*
X119648128Y-97839097D01*
X119505361Y-97923364D01*
X119401807Y-97988527D01*
X119331936Y-98039540D01*
X119290220Y-98081355D01*
X119271128Y-98118928D01*
X119269133Y-98157212D01*
X119272300Y-98175810D01*
X119295736Y-98199339D01*
X119355795Y-98243053D01*
X119444776Y-98302320D01*
X119554977Y-98372505D01*
X119678699Y-98448973D01*
X119808241Y-98527090D01*
X119935901Y-98602222D01*
X120053979Y-98669735D01*
X120154775Y-98724993D01*
X120230587Y-98763363D01*
X120273715Y-98780210D01*
X120277260Y-98780600D01*
X120309511Y-98768549D01*
X120378299Y-98734994D01*
X120476172Y-98683839D01*
X120595675Y-98618984D01*
X120729353Y-98544332D01*
X120738237Y-98539300D01*
X120871792Y-98464299D01*
X120990803Y-98398798D01*
X121088028Y-98346674D01*
X121156226Y-98311806D01*
X121188154Y-98298071D01*
X121188881Y-98298000D01*
X121218369Y-98310097D01*
X121281831Y-98342770D01*
X121369598Y-98390593D01*
X121472004Y-98448138D01*
X121579380Y-98509979D01*
X121682060Y-98570690D01*
X121763898Y-98620775D01*
X121784414Y-98635523D01*
X121791382Y-98650585D01*
X121779594Y-98670221D01*
X121743839Y-98698689D01*
X121678906Y-98740249D01*
X121579587Y-98799159D01*
X121462903Y-98866827D01*
X121339763Y-98939755D01*
X121231613Y-99007081D01*
X121146485Y-99063546D01*
X121092414Y-99103892D01*
X121077705Y-99119018D01*
X121064273Y-99179429D01*
X121068695Y-99211126D01*
X121093549Y-99235548D01*
X121154888Y-99280275D01*
X121244978Y-99340612D01*
X121356082Y-99411862D01*
X121480464Y-99489331D01*
X121610389Y-99568322D01*
X121738121Y-99644139D01*
X121855923Y-99712087D01*
X121956061Y-99767470D01*
X122030798Y-99805592D01*
X122072398Y-99821756D01*
X122075041Y-99822001D01*
X122105309Y-99809882D01*
X122172311Y-99776095D01*
X122268857Y-99724494D01*
X122387758Y-99658933D01*
X122521825Y-99583264D01*
X122542934Y-99571203D01*
X122981157Y-99320406D01*
X123282385Y-99494875D01*
X123392684Y-99559853D01*
X123485836Y-99616808D01*
X123553601Y-99660541D01*
X123587736Y-99685855D01*
X123590145Y-99688936D01*
X123571675Y-99707812D01*
X123516456Y-99746649D01*
X123432034Y-99800535D01*
X123325954Y-99864557D01*
X123272687Y-99895639D01*
X123154164Y-99964949D01*
X123048710Y-100028213D01*
X122965518Y-100079799D01*
X122913783Y-100114070D01*
X122904250Y-100121412D01*
X122863812Y-100182820D01*
X122863645Y-100248219D01*
X122898315Y-100302158D01*
X122962388Y-100329183D01*
X122977598Y-100330001D01*
X123015050Y-100317540D01*
G36*
X115372294Y-98233655D02*
X115448029Y-98196153D01*
X115563387Y-98135145D01*
X115716302Y-98051783D01*
X115904710Y-97947221D01*
X116126543Y-97822609D01*
X116379736Y-97679100D01*
X116662224Y-97517847D01*
X116971941Y-97340002D01*
X117221000Y-97196339D01*
X119037100Y-96146879D01*
X119037100Y-94933724D01*
X118972408Y-94910973D01*
X118956233Y-94908906D01*
X118931983Y-94913017D01*
X118896683Y-94924919D01*
X118847356Y-94946225D01*
X118781026Y-94978549D01*
X118694716Y-95023504D01*
X118585451Y-95082703D01*
X118450253Y-95157760D01*
X118286147Y-95250288D01*
X118090156Y-95361901D01*
X117859304Y-95494211D01*
X117590615Y-95648832D01*
X117281111Y-95827377D01*
X117270608Y-95833441D01*
X117004007Y-95987407D01*
X116748698Y-96134925D01*
X116508331Y-96273883D01*
X116286552Y-96402168D01*
X116087009Y-96517668D01*
X115913350Y-96618272D01*
X115769224Y-96701866D01*
X115658277Y-96766338D01*
X115584159Y-96809576D01*
X115550950Y-96829202D01*
X115468400Y-96879744D01*
X115469776Y-96126300D01*
X116794819Y-95363759D01*
X118119863Y-94601218D01*
X118584831Y-93930358D01*
X119049800Y-93259498D01*
X119049800Y-92556886D01*
X119049557Y-92347984D01*
X119048598Y-92184050D01*
X119046571Y-92059253D01*
X119043127Y-91967761D01*
X119037917Y-91903743D01*
X119030590Y-91861369D01*
X119020798Y-91834807D01*
X119008190Y-91818227D01*
X119005350Y-91815639D01*
X118964933Y-91786991D01*
X118890777Y-91740369D01*
X118790915Y-91680333D01*
X118673379Y-91611445D01*
X118546202Y-91538264D01*
X118417416Y-91465353D01*
X118295053Y-91397272D01*
X118187147Y-91338582D01*
X118101728Y-91293844D01*
X118046831Y-91267619D01*
X118031471Y-91262656D01*
X118004454Y-91275158D01*
X117936816Y-91311269D01*
X117831877Y-91369107D01*
X117692960Y-91446788D01*
X117523383Y-91542433D01*
X117326470Y-91654158D01*
X117105539Y-91780081D01*
X116863913Y-91918321D01*
X116604912Y-92066997D01*
X116331856Y-92224225D01*
X116179600Y-92312098D01*
X115815255Y-92522949D01*
X115494033Y-92709717D01*
X115214724Y-92873131D01*
X114976119Y-93013916D01*
X114777012Y-93132800D01*
X114616191Y-93230508D01*
X114492450Y-93307768D01*
X114404580Y-93365307D01*
X114351372Y-93403850D01*
X114332124Y-93422893D01*
X114322786Y-93466590D01*
X114315066Y-93551308D01*
X114309049Y-93667288D01*
X114304817Y-93804775D01*
X114302454Y-93954011D01*
X114302044Y-94105239D01*
X114303670Y-94248703D01*
X114307415Y-94374646D01*
X114313363Y-94473311D01*
X114321597Y-94534941D01*
X114322580Y-94538800D01*
X114330860Y-94565734D01*
X114341512Y-94587286D01*
X114357386Y-94602082D01*
X114381334Y-94608747D01*
X114416206Y-94605907D01*
X114464855Y-94592187D01*
X114530131Y-94566214D01*
X114614886Y-94526612D01*
X114721971Y-94472008D01*
X114854237Y-94401027D01*
X115014536Y-94312294D01*
X115205718Y-94204435D01*
X115430636Y-94076077D01*
X115692140Y-93925843D01*
X115993082Y-93752361D01*
X116190583Y-93638376D01*
X116459733Y-93483092D01*
X116715992Y-93335397D01*
X116955978Y-93197229D01*
X117176313Y-93070528D01*
X117373616Y-92957232D01*
X117544506Y-92859280D01*
X117685604Y-92778611D01*
X117793530Y-92717165D01*
X117864904Y-92676880D01*
X117896344Y-92659695D01*
X117897539Y-92659200D01*
X117900831Y-92683108D01*
X117902748Y-92748891D01*
X117903202Y-92847642D01*
X117902108Y-92970453D01*
X117901129Y-93029009D01*
X117894100Y-93398817D01*
X116566718Y-94165659D01*
X115239337Y-94932500D01*
X114776018Y-95732600D01*
X114312700Y-96532700D01*
X114305758Y-97066100D01*
X114304143Y-97263712D01*
X114305229Y-97415757D01*
X114309235Y-97527408D01*
X114316384Y-97603837D01*
X114326897Y-97650218D01*
X114331158Y-97659840D01*
X114364368Y-97693165D01*
X114434369Y-97744983D01*
X114532831Y-97810443D01*
X114651426Y-97884692D01*
X114781826Y-97962879D01*
X114915702Y-98040153D01*
X115044726Y-98111662D01*
X115160569Y-98172555D01*
X115254904Y-98217979D01*
X115319401Y-98243084D01*
X115338249Y-98246500D01*
X115372294Y-98233655D01*
X115372294Y-98233655D01*
G37*
X115372294Y-98233655D02*
X115448029Y-98196153D01*
X115563387Y-98135145D01*
X115716302Y-98051783D01*
X115904710Y-97947221D01*
X116126543Y-97822609D01*
X116379736Y-97679100D01*
X116662224Y-97517847D01*
X116971941Y-97340002D01*
X117221000Y-97196339D01*
X119037100Y-96146879D01*
X119037100Y-94933724D01*
X118972408Y-94910973D01*
X118956233Y-94908906D01*
X118931983Y-94913017D01*
X118896683Y-94924919D01*
X118847356Y-94946225D01*
X118781026Y-94978549D01*
X118694716Y-95023504D01*
X118585451Y-95082703D01*
X118450253Y-95157760D01*
X118286147Y-95250288D01*
X118090156Y-95361901D01*
X117859304Y-95494211D01*
X117590615Y-95648832D01*
X117281111Y-95827377D01*
X117270608Y-95833441D01*
X117004007Y-95987407D01*
X116748698Y-96134925D01*
X116508331Y-96273883D01*
X116286552Y-96402168D01*
X116087009Y-96517668D01*
X115913350Y-96618272D01*
X115769224Y-96701866D01*
X115658277Y-96766338D01*
X115584159Y-96809576D01*
X115550950Y-96829202D01*
X115468400Y-96879744D01*
X115469776Y-96126300D01*
X116794819Y-95363759D01*
X118119863Y-94601218D01*
X118584831Y-93930358D01*
X119049800Y-93259498D01*
X119049800Y-92556886D01*
X119049557Y-92347984D01*
X119048598Y-92184050D01*
X119046571Y-92059253D01*
X119043127Y-91967761D01*
X119037917Y-91903743D01*
X119030590Y-91861369D01*
X119020798Y-91834807D01*
X119008190Y-91818227D01*
X119005350Y-91815639D01*
X118964933Y-91786991D01*
X118890777Y-91740369D01*
X118790915Y-91680333D01*
X118673379Y-91611445D01*
X118546202Y-91538264D01*
X118417416Y-91465353D01*
X118295053Y-91397272D01*
X118187147Y-91338582D01*
X118101728Y-91293844D01*
X118046831Y-91267619D01*
X118031471Y-91262656D01*
X118004454Y-91275158D01*
X117936816Y-91311269D01*
X117831877Y-91369107D01*
X117692960Y-91446788D01*
X117523383Y-91542433D01*
X117326470Y-91654158D01*
X117105539Y-91780081D01*
X116863913Y-91918321D01*
X116604912Y-92066997D01*
X116331856Y-92224225D01*
X116179600Y-92312098D01*
X115815255Y-92522949D01*
X115494033Y-92709717D01*
X115214724Y-92873131D01*
X114976119Y-93013916D01*
X114777012Y-93132800D01*
X114616191Y-93230508D01*
X114492450Y-93307768D01*
X114404580Y-93365307D01*
X114351372Y-93403850D01*
X114332124Y-93422893D01*
X114322786Y-93466590D01*
X114315066Y-93551308D01*
X114309049Y-93667288D01*
X114304817Y-93804775D01*
X114302454Y-93954011D01*
X114302044Y-94105239D01*
X114303670Y-94248703D01*
X114307415Y-94374646D01*
X114313363Y-94473311D01*
X114321597Y-94534941D01*
X114322580Y-94538800D01*
X114330860Y-94565734D01*
X114341512Y-94587286D01*
X114357386Y-94602082D01*
X114381334Y-94608747D01*
X114416206Y-94605907D01*
X114464855Y-94592187D01*
X114530131Y-94566214D01*
X114614886Y-94526612D01*
X114721971Y-94472008D01*
X114854237Y-94401027D01*
X115014536Y-94312294D01*
X115205718Y-94204435D01*
X115430636Y-94076077D01*
X115692140Y-93925843D01*
X115993082Y-93752361D01*
X116190583Y-93638376D01*
X116459733Y-93483092D01*
X116715992Y-93335397D01*
X116955978Y-93197229D01*
X117176313Y-93070528D01*
X117373616Y-92957232D01*
X117544506Y-92859280D01*
X117685604Y-92778611D01*
X117793530Y-92717165D01*
X117864904Y-92676880D01*
X117896344Y-92659695D01*
X117897539Y-92659200D01*
X117900831Y-92683108D01*
X117902748Y-92748891D01*
X117903202Y-92847642D01*
X117902108Y-92970453D01*
X117901129Y-93029009D01*
X117894100Y-93398817D01*
X116566718Y-94165659D01*
X115239337Y-94932500D01*
X114776018Y-95732600D01*
X114312700Y-96532700D01*
X114305758Y-97066100D01*
X114304143Y-97263712D01*
X114305229Y-97415757D01*
X114309235Y-97527408D01*
X114316384Y-97603837D01*
X114326897Y-97650218D01*
X114331158Y-97659840D01*
X114364368Y-97693165D01*
X114434369Y-97744983D01*
X114532831Y-97810443D01*
X114651426Y-97884692D01*
X114781826Y-97962879D01*
X114915702Y-98040153D01*
X115044726Y-98111662D01*
X115160569Y-98172555D01*
X115254904Y-98217979D01*
X115319401Y-98243084D01*
X115338249Y-98246500D01*
X115372294Y-98233655D01*
G36*
X123461778Y-98234972D02*
X123534319Y-98201365D01*
X123633855Y-98150999D01*
X123752064Y-98088490D01*
X123880620Y-98018458D01*
X124011201Y-97945521D01*
X124135481Y-97874297D01*
X124245136Y-97809404D01*
X124331843Y-97755460D01*
X124387277Y-97717085D01*
X124399788Y-97706140D01*
X124411088Y-97668841D01*
X124421621Y-97583302D01*
X124431189Y-97452080D01*
X124439594Y-97277734D01*
X124444991Y-97121045D01*
X124461506Y-96566390D01*
X124256634Y-96208712D01*
X124176672Y-96066603D01*
X124121723Y-95962476D01*
X124089566Y-95891431D01*
X124077977Y-95848568D01*
X124084431Y-95829185D01*
X124121935Y-95806214D01*
X124189324Y-95766689D01*
X124272243Y-95719027D01*
X124275022Y-95717445D01*
X124362438Y-95663957D01*
X124413971Y-95620485D01*
X124440226Y-95576564D01*
X124448058Y-95546727D01*
X124452340Y-95496755D01*
X124455338Y-95405296D01*
X124456938Y-95281648D01*
X124457028Y-95135111D01*
X124455494Y-94974983D01*
X124455236Y-94957900D01*
X124447300Y-94449900D01*
X124005401Y-93687900D01*
X123899699Y-93506681D01*
X123799971Y-93337695D01*
X123709556Y-93186450D01*
X123631796Y-93058458D01*
X123570030Y-92959227D01*
X123527599Y-92894268D01*
X123510101Y-92870962D01*
X123477612Y-92847383D01*
X123405509Y-92801523D01*
X123297803Y-92735687D01*
X123158508Y-92652180D01*
X122991636Y-92553306D01*
X122801200Y-92441370D01*
X122591212Y-92318677D01*
X122365686Y-92187532D01*
X122128634Y-92050240D01*
X121884069Y-91909106D01*
X121636003Y-91766433D01*
X121388449Y-91624528D01*
X121145420Y-91485694D01*
X120910929Y-91352238D01*
X120688988Y-91226462D01*
X120483610Y-91110673D01*
X120298808Y-91007176D01*
X120138594Y-90918274D01*
X120006981Y-90846273D01*
X119907982Y-90793477D01*
X119845609Y-90762192D01*
X119824789Y-90754200D01*
X119766369Y-90768477D01*
X119738592Y-90788695D01*
X119733672Y-90809866D01*
X119729360Y-90861979D01*
X119725641Y-90946840D01*
X119722500Y-91066251D01*
X119719924Y-91222018D01*
X119717896Y-91415944D01*
X119716403Y-91649834D01*
X119715428Y-91925492D01*
X119714958Y-92244721D01*
X119714978Y-92609327D01*
X119715472Y-93021113D01*
X119716237Y-93390800D01*
X120853200Y-93390800D01*
X120853200Y-93025000D01*
X120853895Y-92895255D01*
X120855807Y-92785758D01*
X120858675Y-92705471D01*
X120862238Y-92663355D01*
X120863837Y-92659200D01*
X120887203Y-92671535D01*
X120950489Y-92706994D01*
X121049644Y-92763260D01*
X121180619Y-92838013D01*
X121339365Y-92928937D01*
X121521830Y-93033713D01*
X121723966Y-93150023D01*
X121941721Y-93275549D01*
X122063638Y-93345921D01*
X122288603Y-93475987D01*
X122500396Y-93598734D01*
X122694916Y-93711765D01*
X122868065Y-93812684D01*
X123015741Y-93899093D01*
X123133845Y-93968596D01*
X123218276Y-94018797D01*
X123264934Y-94047299D01*
X123272924Y-94052765D01*
X123279687Y-94084177D01*
X123284463Y-94156637D01*
X123286917Y-94260424D01*
X123286715Y-94385811D01*
X123285973Y-94432019D01*
X123278900Y-94791150D01*
X120853200Y-93390800D01*
X119716237Y-93390800D01*
X119716426Y-93481883D01*
X119716432Y-93484412D01*
X119721250Y-95467139D01*
X120853200Y-95467139D01*
X120853200Y-95104570D01*
X120854279Y-94975438D01*
X120857248Y-94866595D01*
X120861699Y-94787040D01*
X120867225Y-94745773D01*
X120869583Y-94742000D01*
X120894055Y-94754320D01*
X120958460Y-94789742D01*
X121058744Y-94845962D01*
X121190849Y-94920677D01*
X121350721Y-95011583D01*
X121534303Y-95116374D01*
X121737539Y-95232748D01*
X121956373Y-95358401D01*
X122088026Y-95434150D01*
X123290085Y-96126300D01*
X123290842Y-96502390D01*
X123291600Y-96878480D01*
X123183650Y-96813847D01*
X123140617Y-96788559D01*
X123058272Y-96740623D01*
X122941315Y-96672759D01*
X122794446Y-96587690D01*
X122622365Y-96488134D01*
X122429772Y-96376812D01*
X122221367Y-96256446D01*
X122001851Y-96129754D01*
X121964450Y-96108177D01*
X120853200Y-95467139D01*
X119721250Y-95467139D01*
X119722900Y-96145635D01*
X120599200Y-96651897D01*
X120832513Y-96786680D01*
X121097544Y-96939772D01*
X121382016Y-97104083D01*
X121673654Y-97272522D01*
X121960180Y-97437999D01*
X122229319Y-97593423D01*
X122418528Y-97702680D01*
X122629532Y-97823682D01*
X122825038Y-97934170D01*
X123000627Y-98031754D01*
X123151881Y-98114041D01*
X123274381Y-98178640D01*
X123363709Y-98223160D01*
X123415446Y-98245208D01*
X123424558Y-98247200D01*
X123461778Y-98234972D01*
X123461778Y-98234972D01*
G37*
X123461778Y-98234972D02*
X123534319Y-98201365D01*
X123633855Y-98150999D01*
X123752064Y-98088490D01*
X123880620Y-98018458D01*
X124011201Y-97945521D01*
X124135481Y-97874297D01*
X124245136Y-97809404D01*
X124331843Y-97755460D01*
X124387277Y-97717085D01*
X124399788Y-97706140D01*
X124411088Y-97668841D01*
X124421621Y-97583302D01*
X124431189Y-97452080D01*
X124439594Y-97277734D01*
X124444991Y-97121045D01*
X124461506Y-96566390D01*
X124256634Y-96208712D01*
X124176672Y-96066603D01*
X124121723Y-95962476D01*
X124089566Y-95891431D01*
X124077977Y-95848568D01*
X124084431Y-95829185D01*
X124121935Y-95806214D01*
X124189324Y-95766689D01*
X124272243Y-95719027D01*
X124275022Y-95717445D01*
X124362438Y-95663957D01*
X124413971Y-95620485D01*
X124440226Y-95576564D01*
X124448058Y-95546727D01*
X124452340Y-95496755D01*
X124455338Y-95405296D01*
X124456938Y-95281648D01*
X124457028Y-95135111D01*
X124455494Y-94974983D01*
X124455236Y-94957900D01*
X124447300Y-94449900D01*
X124005401Y-93687900D01*
X123899699Y-93506681D01*
X123799971Y-93337695D01*
X123709556Y-93186450D01*
X123631796Y-93058458D01*
X123570030Y-92959227D01*
X123527599Y-92894268D01*
X123510101Y-92870962D01*
X123477612Y-92847383D01*
X123405509Y-92801523D01*
X123297803Y-92735687D01*
X123158508Y-92652180D01*
X122991636Y-92553306D01*
X122801200Y-92441370D01*
X122591212Y-92318677D01*
X122365686Y-92187532D01*
X122128634Y-92050240D01*
X121884069Y-91909106D01*
X121636003Y-91766433D01*
X121388449Y-91624528D01*
X121145420Y-91485694D01*
X120910929Y-91352238D01*
X120688988Y-91226462D01*
X120483610Y-91110673D01*
X120298808Y-91007176D01*
X120138594Y-90918274D01*
X120006981Y-90846273D01*
X119907982Y-90793477D01*
X119845609Y-90762192D01*
X119824789Y-90754200D01*
X119766369Y-90768477D01*
X119738592Y-90788695D01*
X119733672Y-90809866D01*
X119729360Y-90861979D01*
X119725641Y-90946840D01*
X119722500Y-91066251D01*
X119719924Y-91222018D01*
X119717896Y-91415944D01*
X119716403Y-91649834D01*
X119715428Y-91925492D01*
X119714958Y-92244721D01*
X119714978Y-92609327D01*
X119715472Y-93021113D01*
X119716237Y-93390800D01*
X120853200Y-93390800D01*
X120853200Y-93025000D01*
X120853895Y-92895255D01*
X120855807Y-92785758D01*
X120858675Y-92705471D01*
X120862238Y-92663355D01*
X120863837Y-92659200D01*
X120887203Y-92671535D01*
X120950489Y-92706994D01*
X121049644Y-92763260D01*
X121180619Y-92838013D01*
X121339365Y-92928937D01*
X121521830Y-93033713D01*
X121723966Y-93150023D01*
X121941721Y-93275549D01*
X122063638Y-93345921D01*
X122288603Y-93475987D01*
X122500396Y-93598734D01*
X122694916Y-93711765D01*
X122868065Y-93812684D01*
X123015741Y-93899093D01*
X123133845Y-93968596D01*
X123218276Y-94018797D01*
X123264934Y-94047299D01*
X123272924Y-94052765D01*
X123279687Y-94084177D01*
X123284463Y-94156637D01*
X123286917Y-94260424D01*
X123286715Y-94385811D01*
X123285973Y-94432019D01*
X123278900Y-94791150D01*
X120853200Y-93390800D01*
X119716237Y-93390800D01*
X119716426Y-93481883D01*
X119716432Y-93484412D01*
X119721250Y-95467139D01*
X120853200Y-95467139D01*
X120853200Y-95104570D01*
X120854279Y-94975438D01*
X120857248Y-94866595D01*
X120861699Y-94787040D01*
X120867225Y-94745773D01*
X120869583Y-94742000D01*
X120894055Y-94754320D01*
X120958460Y-94789742D01*
X121058744Y-94845962D01*
X121190849Y-94920677D01*
X121350721Y-95011583D01*
X121534303Y-95116374D01*
X121737539Y-95232748D01*
X121956373Y-95358401D01*
X122088026Y-95434150D01*
X123290085Y-96126300D01*
X123290842Y-96502390D01*
X123291600Y-96878480D01*
X123183650Y-96813847D01*
X123140617Y-96788559D01*
X123058272Y-96740623D01*
X122941315Y-96672759D01*
X122794446Y-96587690D01*
X122622365Y-96488134D01*
X122429772Y-96376812D01*
X122221367Y-96256446D01*
X122001851Y-96129754D01*
X121964450Y-96108177D01*
X120853200Y-95467139D01*
X119721250Y-95467139D01*
X119722900Y-96145635D01*
X120599200Y-96651897D01*
X120832513Y-96786680D01*
X121097544Y-96939772D01*
X121382016Y-97104083D01*
X121673654Y-97272522D01*
X121960180Y-97437999D01*
X122229319Y-97593423D01*
X122418528Y-97702680D01*
X122629532Y-97823682D01*
X122825038Y-97934170D01*
X123000627Y-98031754D01*
X123151881Y-98114041D01*
X123274381Y-98178640D01*
X123363709Y-98223160D01*
X123415446Y-98245208D01*
X123424558Y-98247200D01*
X123461778Y-98234972D01*
D11*
G36*
X187054612Y-113098037D02*
X187282096Y-113192264D01*
X187486831Y-113329064D01*
X187660936Y-113503169D01*
X187797736Y-113707904D01*
X187891963Y-113935388D01*
X187940000Y-114176885D01*
X187940000Y-114423115D01*
X187891963Y-114664612D01*
X187797736Y-114892096D01*
X187660936Y-115096831D01*
X187486831Y-115270936D01*
X187282096Y-115407736D01*
X187054612Y-115501963D01*
X186813115Y-115550000D01*
X186566885Y-115550000D01*
X186325388Y-115501963D01*
X186097904Y-115407736D01*
X185893169Y-115270936D01*
X185719064Y-115096831D01*
X185582264Y-114892096D01*
X185488037Y-114664612D01*
X185440000Y-114423115D01*
X185440000Y-114176885D01*
X185488037Y-113935388D01*
X185582264Y-113707904D01*
X185719064Y-113503169D01*
X185893169Y-113329064D01*
X186097904Y-113192264D01*
X186325388Y-113098037D01*
X186566885Y-113050000D01*
X186813115Y-113050000D01*
X187054612Y-113098037D01*
X187054612Y-113098037D01*
G37*
G36*
X105774612Y-113098037D02*
X106002096Y-113192264D01*
X106206831Y-113329064D01*
X106380936Y-113503169D01*
X106517736Y-113707904D01*
X106611963Y-113935388D01*
X106660000Y-114176885D01*
X106660000Y-114423115D01*
X106611963Y-114664612D01*
X106517736Y-114892096D01*
X106380936Y-115096831D01*
X106206831Y-115270936D01*
X106002096Y-115407736D01*
X105774612Y-115501963D01*
X105533115Y-115550000D01*
X105286885Y-115550000D01*
X105045388Y-115501963D01*
X104817904Y-115407736D01*
X104613169Y-115270936D01*
X104439064Y-115096831D01*
X104302264Y-114892096D01*
X104208037Y-114664612D01*
X104160000Y-114423115D01*
X104160000Y-114176885D01*
X104208037Y-113935388D01*
X104302264Y-113707904D01*
X104439064Y-113503169D01*
X104613169Y-113329064D01*
X104817904Y-113192264D01*
X105045388Y-113098037D01*
X105286885Y-113050000D01*
X105533115Y-113050000D01*
X105774612Y-113098037D01*
X105774612Y-113098037D01*
G37*
G36*
X151980000Y-113880000D02*
X150280000Y-113880000D01*
X150280000Y-112180000D01*
X151980000Y-112180000D01*
X151980000Y-113880000D01*
X151980000Y-113880000D01*
G37*
G36*
X146900000Y-113880000D02*
X145200000Y-113880000D01*
X145200000Y-112180000D01*
X146900000Y-112180000D01*
X146900000Y-113880000D01*
X146900000Y-113880000D01*
G37*
G36*
X149440000Y-113880000D02*
X147740000Y-113880000D01*
X147740000Y-112180000D01*
X149440000Y-112180000D01*
X149440000Y-113880000D01*
X149440000Y-113880000D01*
G37*
G36*
X125896630Y-110922299D02*
X126056855Y-110970903D01*
X126204520Y-111049831D01*
X126333949Y-111156051D01*
X126440169Y-111285480D01*
X126519097Y-111433145D01*
X126567701Y-111593370D01*
X126584112Y-111760000D01*
X126567701Y-111926630D01*
X126519097Y-112086855D01*
X126440169Y-112234520D01*
X126333949Y-112363949D01*
X126204520Y-112470169D01*
X126056855Y-112549097D01*
X125896630Y-112597701D01*
X125771752Y-112610000D01*
X125688248Y-112610000D01*
X125563370Y-112597701D01*
X125403145Y-112549097D01*
X125255480Y-112470169D01*
X125126051Y-112363949D01*
X125019831Y-112234520D01*
X124940903Y-112086855D01*
X124892299Y-111926630D01*
X124875888Y-111760000D01*
X124892299Y-111593370D01*
X124940903Y-111433145D01*
X125019831Y-111285480D01*
X125126051Y-111156051D01*
X125255480Y-111049831D01*
X125403145Y-110970903D01*
X125563370Y-110922299D01*
X125688248Y-110910000D01*
X125771752Y-110910000D01*
X125896630Y-110922299D01*
X125896630Y-110922299D01*
G37*
G36*
X120816630Y-110922299D02*
X120976855Y-110970903D01*
X121124520Y-111049831D01*
X121253949Y-111156051D01*
X121360169Y-111285480D01*
X121439097Y-111433145D01*
X121487701Y-111593370D01*
X121504112Y-111760000D01*
X121487701Y-111926630D01*
X121439097Y-112086855D01*
X121360169Y-112234520D01*
X121253949Y-112363949D01*
X121124520Y-112470169D01*
X120976855Y-112549097D01*
X120816630Y-112597701D01*
X120691752Y-112610000D01*
X120608248Y-112610000D01*
X120483370Y-112597701D01*
X120323145Y-112549097D01*
X120175480Y-112470169D01*
X120046051Y-112363949D01*
X119939831Y-112234520D01*
X119860903Y-112086855D01*
X119812299Y-111926630D01*
X119795888Y-111760000D01*
X119812299Y-111593370D01*
X119860903Y-111433145D01*
X119939831Y-111285480D01*
X120046051Y-111156051D01*
X120175480Y-111049831D01*
X120323145Y-110970903D01*
X120483370Y-110922299D01*
X120608248Y-110910000D01*
X120691752Y-110910000D01*
X120816630Y-110922299D01*
X120816630Y-110922299D01*
G37*
G36*
X118276630Y-110922299D02*
X118436855Y-110970903D01*
X118584520Y-111049831D01*
X118713949Y-111156051D01*
X118820169Y-111285480D01*
X118899097Y-111433145D01*
X118947701Y-111593370D01*
X118964112Y-111760000D01*
X118947701Y-111926630D01*
X118899097Y-112086855D01*
X118820169Y-112234520D01*
X118713949Y-112363949D01*
X118584520Y-112470169D01*
X118436855Y-112549097D01*
X118276630Y-112597701D01*
X118151752Y-112610000D01*
X118068248Y-112610000D01*
X117943370Y-112597701D01*
X117783145Y-112549097D01*
X117635480Y-112470169D01*
X117506051Y-112363949D01*
X117399831Y-112234520D01*
X117320903Y-112086855D01*
X117272299Y-111926630D01*
X117255888Y-111760000D01*
X117272299Y-111593370D01*
X117320903Y-111433145D01*
X117399831Y-111285480D01*
X117506051Y-111156051D01*
X117635480Y-111049831D01*
X117783145Y-110970903D01*
X117943370Y-110922299D01*
X118068248Y-110910000D01*
X118151752Y-110910000D01*
X118276630Y-110922299D01*
X118276630Y-110922299D01*
G37*
G36*
X171616630Y-110922299D02*
X171776855Y-110970903D01*
X171924520Y-111049831D01*
X172053949Y-111156051D01*
X172160169Y-111285480D01*
X172239097Y-111433145D01*
X172287701Y-111593370D01*
X172304112Y-111760000D01*
X172287701Y-111926630D01*
X172239097Y-112086855D01*
X172160169Y-112234520D01*
X172053949Y-112363949D01*
X171924520Y-112470169D01*
X171776855Y-112549097D01*
X171616630Y-112597701D01*
X171491752Y-112610000D01*
X171408248Y-112610000D01*
X171283370Y-112597701D01*
X171123145Y-112549097D01*
X170975480Y-112470169D01*
X170846051Y-112363949D01*
X170739831Y-112234520D01*
X170660903Y-112086855D01*
X170612299Y-111926630D01*
X170595888Y-111760000D01*
X170612299Y-111593370D01*
X170660903Y-111433145D01*
X170739831Y-111285480D01*
X170846051Y-111156051D01*
X170975480Y-111049831D01*
X171123145Y-110970903D01*
X171283370Y-110922299D01*
X171408248Y-110910000D01*
X171491752Y-110910000D01*
X171616630Y-110922299D01*
X171616630Y-110922299D01*
G37*
G36*
X174156630Y-110922299D02*
X174316855Y-110970903D01*
X174464520Y-111049831D01*
X174593949Y-111156051D01*
X174700169Y-111285480D01*
X174779097Y-111433145D01*
X174827701Y-111593370D01*
X174844112Y-111760000D01*
X174827701Y-111926630D01*
X174779097Y-112086855D01*
X174700169Y-112234520D01*
X174593949Y-112363949D01*
X174464520Y-112470169D01*
X174316855Y-112549097D01*
X174156630Y-112597701D01*
X174031752Y-112610000D01*
X173948248Y-112610000D01*
X173823370Y-112597701D01*
X173663145Y-112549097D01*
X173515480Y-112470169D01*
X173386051Y-112363949D01*
X173279831Y-112234520D01*
X173200903Y-112086855D01*
X173152299Y-111926630D01*
X173135888Y-111760000D01*
X173152299Y-111593370D01*
X173200903Y-111433145D01*
X173279831Y-111285480D01*
X173386051Y-111156051D01*
X173515480Y-111049831D01*
X173663145Y-110970903D01*
X173823370Y-110922299D01*
X173948248Y-110910000D01*
X174031752Y-110910000D01*
X174156630Y-110922299D01*
X174156630Y-110922299D01*
G37*
G36*
X128436630Y-110922299D02*
X128596855Y-110970903D01*
X128744520Y-111049831D01*
X128873949Y-111156051D01*
X128980169Y-111285480D01*
X129059097Y-111433145D01*
X129107701Y-111593370D01*
X129124112Y-111760000D01*
X129107701Y-111926630D01*
X129059097Y-112086855D01*
X128980169Y-112234520D01*
X128873949Y-112363949D01*
X128744520Y-112470169D01*
X128596855Y-112549097D01*
X128436630Y-112597701D01*
X128311752Y-112610000D01*
X128228248Y-112610000D01*
X128103370Y-112597701D01*
X127943145Y-112549097D01*
X127795480Y-112470169D01*
X127666051Y-112363949D01*
X127559831Y-112234520D01*
X127480903Y-112086855D01*
X127432299Y-111926630D01*
X127415888Y-111760000D01*
X127432299Y-111593370D01*
X127480903Y-111433145D01*
X127559831Y-111285480D01*
X127666051Y-111156051D01*
X127795480Y-111049831D01*
X127943145Y-110970903D01*
X128103370Y-110922299D01*
X128228248Y-110910000D01*
X128311752Y-110910000D01*
X128436630Y-110922299D01*
X128436630Y-110922299D01*
G37*
G36*
X130976630Y-110922299D02*
X131136855Y-110970903D01*
X131284520Y-111049831D01*
X131413949Y-111156051D01*
X131520169Y-111285480D01*
X131599097Y-111433145D01*
X131647701Y-111593370D01*
X131664112Y-111760000D01*
X131647701Y-111926630D01*
X131599097Y-112086855D01*
X131520169Y-112234520D01*
X131413949Y-112363949D01*
X131284520Y-112470169D01*
X131136855Y-112549097D01*
X130976630Y-112597701D01*
X130851752Y-112610000D01*
X130768248Y-112610000D01*
X130643370Y-112597701D01*
X130483145Y-112549097D01*
X130335480Y-112470169D01*
X130206051Y-112363949D01*
X130099831Y-112234520D01*
X130020903Y-112086855D01*
X129972299Y-111926630D01*
X129955888Y-111760000D01*
X129972299Y-111593370D01*
X130020903Y-111433145D01*
X130099831Y-111285480D01*
X130206051Y-111156051D01*
X130335480Y-111049831D01*
X130483145Y-110970903D01*
X130643370Y-110922299D01*
X130768248Y-110910000D01*
X130851752Y-110910000D01*
X130976630Y-110922299D01*
X130976630Y-110922299D01*
G37*
G36*
X161456630Y-110922299D02*
X161616855Y-110970903D01*
X161764520Y-111049831D01*
X161893949Y-111156051D01*
X162000169Y-111285480D01*
X162079097Y-111433145D01*
X162127701Y-111593370D01*
X162144112Y-111760000D01*
X162127701Y-111926630D01*
X162079097Y-112086855D01*
X162000169Y-112234520D01*
X161893949Y-112363949D01*
X161764520Y-112470169D01*
X161616855Y-112549097D01*
X161456630Y-112597701D01*
X161331752Y-112610000D01*
X161248248Y-112610000D01*
X161123370Y-112597701D01*
X160963145Y-112549097D01*
X160815480Y-112470169D01*
X160686051Y-112363949D01*
X160579831Y-112234520D01*
X160500903Y-112086855D01*
X160452299Y-111926630D01*
X160435888Y-111760000D01*
X160452299Y-111593370D01*
X160500903Y-111433145D01*
X160579831Y-111285480D01*
X160686051Y-111156051D01*
X160815480Y-111049831D01*
X160963145Y-110970903D01*
X161123370Y-110922299D01*
X161248248Y-110910000D01*
X161331752Y-110910000D01*
X161456630Y-110922299D01*
X161456630Y-110922299D01*
G37*
G36*
X163996630Y-110922299D02*
X164156855Y-110970903D01*
X164304520Y-111049831D01*
X164433949Y-111156051D01*
X164540169Y-111285480D01*
X164619097Y-111433145D01*
X164667701Y-111593370D01*
X164684112Y-111760000D01*
X164667701Y-111926630D01*
X164619097Y-112086855D01*
X164540169Y-112234520D01*
X164433949Y-112363949D01*
X164304520Y-112470169D01*
X164156855Y-112549097D01*
X163996630Y-112597701D01*
X163871752Y-112610000D01*
X163788248Y-112610000D01*
X163663370Y-112597701D01*
X163503145Y-112549097D01*
X163355480Y-112470169D01*
X163226051Y-112363949D01*
X163119831Y-112234520D01*
X163040903Y-112086855D01*
X162992299Y-111926630D01*
X162975888Y-111760000D01*
X162992299Y-111593370D01*
X163040903Y-111433145D01*
X163119831Y-111285480D01*
X163226051Y-111156051D01*
X163355480Y-111049831D01*
X163503145Y-110970903D01*
X163663370Y-110922299D01*
X163788248Y-110910000D01*
X163871752Y-110910000D01*
X163996630Y-110922299D01*
X163996630Y-110922299D01*
G37*
G36*
X166536630Y-110922299D02*
X166696855Y-110970903D01*
X166844520Y-111049831D01*
X166973949Y-111156051D01*
X167080169Y-111285480D01*
X167159097Y-111433145D01*
X167207701Y-111593370D01*
X167224112Y-111760000D01*
X167207701Y-111926630D01*
X167159097Y-112086855D01*
X167080169Y-112234520D01*
X166973949Y-112363949D01*
X166844520Y-112470169D01*
X166696855Y-112549097D01*
X166536630Y-112597701D01*
X166411752Y-112610000D01*
X166328248Y-112610000D01*
X166203370Y-112597701D01*
X166043145Y-112549097D01*
X165895480Y-112470169D01*
X165766051Y-112363949D01*
X165659831Y-112234520D01*
X165580903Y-112086855D01*
X165532299Y-111926630D01*
X165515888Y-111760000D01*
X165532299Y-111593370D01*
X165580903Y-111433145D01*
X165659831Y-111285480D01*
X165766051Y-111156051D01*
X165895480Y-111049831D01*
X166043145Y-110970903D01*
X166203370Y-110922299D01*
X166328248Y-110910000D01*
X166411752Y-110910000D01*
X166536630Y-110922299D01*
X166536630Y-110922299D01*
G37*
G36*
X176696630Y-110922299D02*
X176856855Y-110970903D01*
X177004520Y-111049831D01*
X177133949Y-111156051D01*
X177240169Y-111285480D01*
X177319097Y-111433145D01*
X177367701Y-111593370D01*
X177384112Y-111760000D01*
X177367701Y-111926630D01*
X177319097Y-112086855D01*
X177240169Y-112234520D01*
X177133949Y-112363949D01*
X177004520Y-112470169D01*
X176856855Y-112549097D01*
X176696630Y-112597701D01*
X176571752Y-112610000D01*
X176488248Y-112610000D01*
X176363370Y-112597701D01*
X176203145Y-112549097D01*
X176055480Y-112470169D01*
X175926051Y-112363949D01*
X175819831Y-112234520D01*
X175740903Y-112086855D01*
X175692299Y-111926630D01*
X175675888Y-111760000D01*
X175692299Y-111593370D01*
X175740903Y-111433145D01*
X175819831Y-111285480D01*
X175926051Y-111156051D01*
X176055480Y-111049831D01*
X176203145Y-110970903D01*
X176363370Y-110922299D01*
X176488248Y-110910000D01*
X176571752Y-110910000D01*
X176696630Y-110922299D01*
X176696630Y-110922299D01*
G37*
G36*
X115736630Y-110922299D02*
X115896855Y-110970903D01*
X116044520Y-111049831D01*
X116173949Y-111156051D01*
X116280169Y-111285480D01*
X116359097Y-111433145D01*
X116407701Y-111593370D01*
X116424112Y-111760000D01*
X116407701Y-111926630D01*
X116359097Y-112086855D01*
X116280169Y-112234520D01*
X116173949Y-112363949D01*
X116044520Y-112470169D01*
X115896855Y-112549097D01*
X115736630Y-112597701D01*
X115611752Y-112610000D01*
X115528248Y-112610000D01*
X115403370Y-112597701D01*
X115243145Y-112549097D01*
X115095480Y-112470169D01*
X114966051Y-112363949D01*
X114859831Y-112234520D01*
X114780903Y-112086855D01*
X114732299Y-111926630D01*
X114715888Y-111760000D01*
X114732299Y-111593370D01*
X114780903Y-111433145D01*
X114859831Y-111285480D01*
X114966051Y-111156051D01*
X115095480Y-111049831D01*
X115243145Y-110970903D01*
X115403370Y-110922299D01*
X115528248Y-110910000D01*
X115611752Y-110910000D01*
X115736630Y-110922299D01*
X115736630Y-110922299D01*
G37*
G36*
X130976630Y-108382299D02*
X131136855Y-108430903D01*
X131284520Y-108509831D01*
X131413949Y-108616051D01*
X131520169Y-108745480D01*
X131599097Y-108893145D01*
X131647701Y-109053370D01*
X131664112Y-109220000D01*
X131647701Y-109386630D01*
X131599097Y-109546855D01*
X131520169Y-109694520D01*
X131413949Y-109823949D01*
X131284520Y-109930169D01*
X131136855Y-110009097D01*
X130976630Y-110057701D01*
X130851752Y-110070000D01*
X130768248Y-110070000D01*
X130643370Y-110057701D01*
X130483145Y-110009097D01*
X130335480Y-109930169D01*
X130206051Y-109823949D01*
X130099831Y-109694520D01*
X130020903Y-109546855D01*
X129972299Y-109386630D01*
X129955888Y-109220000D01*
X129972299Y-109053370D01*
X130020903Y-108893145D01*
X130099831Y-108745480D01*
X130206051Y-108616051D01*
X130335480Y-108509831D01*
X130483145Y-108430903D01*
X130643370Y-108382299D01*
X130768248Y-108370000D01*
X130851752Y-108370000D01*
X130976630Y-108382299D01*
X130976630Y-108382299D01*
G37*
G36*
X121500000Y-110070000D02*
X119800000Y-110070000D01*
X119800000Y-108370000D01*
X121500000Y-108370000D01*
X121500000Y-110070000D01*
X121500000Y-110070000D01*
G37*
G36*
X115736630Y-108382299D02*
X115896855Y-108430903D01*
X116044520Y-108509831D01*
X116173949Y-108616051D01*
X116280169Y-108745480D01*
X116359097Y-108893145D01*
X116407701Y-109053370D01*
X116424112Y-109220000D01*
X116407701Y-109386630D01*
X116359097Y-109546855D01*
X116280169Y-109694520D01*
X116173949Y-109823949D01*
X116044520Y-109930169D01*
X115896855Y-110009097D01*
X115736630Y-110057701D01*
X115611752Y-110070000D01*
X115528248Y-110070000D01*
X115403370Y-110057701D01*
X115243145Y-110009097D01*
X115095480Y-109930169D01*
X114966051Y-109823949D01*
X114859831Y-109694520D01*
X114780903Y-109546855D01*
X114732299Y-109386630D01*
X114715888Y-109220000D01*
X114732299Y-109053370D01*
X114780903Y-108893145D01*
X114859831Y-108745480D01*
X114966051Y-108616051D01*
X115095480Y-108509831D01*
X115243145Y-108430903D01*
X115403370Y-108382299D01*
X115528248Y-108370000D01*
X115611752Y-108370000D01*
X115736630Y-108382299D01*
X115736630Y-108382299D01*
G37*
G36*
X167220000Y-110070000D02*
X165520000Y-110070000D01*
X165520000Y-108370000D01*
X167220000Y-108370000D01*
X167220000Y-110070000D01*
X167220000Y-110070000D01*
G37*
G36*
X172300000Y-110070000D02*
X170600000Y-110070000D01*
X170600000Y-108370000D01*
X172300000Y-108370000D01*
X172300000Y-110070000D01*
X172300000Y-110070000D01*
G37*
G36*
X118276630Y-108382299D02*
X118436855Y-108430903D01*
X118584520Y-108509831D01*
X118713949Y-108616051D01*
X118820169Y-108745480D01*
X118899097Y-108893145D01*
X118947701Y-109053370D01*
X118964112Y-109220000D01*
X118947701Y-109386630D01*
X118899097Y-109546855D01*
X118820169Y-109694520D01*
X118713949Y-109823949D01*
X118584520Y-109930169D01*
X118436855Y-110009097D01*
X118276630Y-110057701D01*
X118151752Y-110070000D01*
X118068248Y-110070000D01*
X117943370Y-110057701D01*
X117783145Y-110009097D01*
X117635480Y-109930169D01*
X117506051Y-109823949D01*
X117399831Y-109694520D01*
X117320903Y-109546855D01*
X117272299Y-109386630D01*
X117255888Y-109220000D01*
X117272299Y-109053370D01*
X117320903Y-108893145D01*
X117399831Y-108745480D01*
X117506051Y-108616051D01*
X117635480Y-108509831D01*
X117783145Y-108430903D01*
X117943370Y-108382299D01*
X118068248Y-108370000D01*
X118151752Y-108370000D01*
X118276630Y-108382299D01*
X118276630Y-108382299D01*
G37*
G36*
X174156630Y-108382299D02*
X174316855Y-108430903D01*
X174464520Y-108509831D01*
X174593949Y-108616051D01*
X174700169Y-108745480D01*
X174779097Y-108893145D01*
X174827701Y-109053370D01*
X174844112Y-109220000D01*
X174827701Y-109386630D01*
X174779097Y-109546855D01*
X174700169Y-109694520D01*
X174593949Y-109823949D01*
X174464520Y-109930169D01*
X174316855Y-110009097D01*
X174156630Y-110057701D01*
X174031752Y-110070000D01*
X173948248Y-110070000D01*
X173823370Y-110057701D01*
X173663145Y-110009097D01*
X173515480Y-109930169D01*
X173386051Y-109823949D01*
X173279831Y-109694520D01*
X173200903Y-109546855D01*
X173152299Y-109386630D01*
X173135888Y-109220000D01*
X173152299Y-109053370D01*
X173200903Y-108893145D01*
X173279831Y-108745480D01*
X173386051Y-108616051D01*
X173515480Y-108509831D01*
X173663145Y-108430903D01*
X173823370Y-108382299D01*
X173948248Y-108370000D01*
X174031752Y-108370000D01*
X174156630Y-108382299D01*
X174156630Y-108382299D01*
G37*
G36*
X163996630Y-108382299D02*
X164156855Y-108430903D01*
X164304520Y-108509831D01*
X164433949Y-108616051D01*
X164540169Y-108745480D01*
X164619097Y-108893145D01*
X164667701Y-109053370D01*
X164684112Y-109220000D01*
X164667701Y-109386630D01*
X164619097Y-109546855D01*
X164540169Y-109694520D01*
X164433949Y-109823949D01*
X164304520Y-109930169D01*
X164156855Y-110009097D01*
X163996630Y-110057701D01*
X163871752Y-110070000D01*
X163788248Y-110070000D01*
X163663370Y-110057701D01*
X163503145Y-110009097D01*
X163355480Y-109930169D01*
X163226051Y-109823949D01*
X163119831Y-109694520D01*
X163040903Y-109546855D01*
X162992299Y-109386630D01*
X162975888Y-109220000D01*
X162992299Y-109053370D01*
X163040903Y-108893145D01*
X163119831Y-108745480D01*
X163226051Y-108616051D01*
X163355480Y-108509831D01*
X163503145Y-108430903D01*
X163663370Y-108382299D01*
X163788248Y-108370000D01*
X163871752Y-108370000D01*
X163996630Y-108382299D01*
X163996630Y-108382299D01*
G37*
G36*
X176696630Y-108382299D02*
X176856855Y-108430903D01*
X177004520Y-108509831D01*
X177133949Y-108616051D01*
X177240169Y-108745480D01*
X177319097Y-108893145D01*
X177367701Y-109053370D01*
X177384112Y-109220000D01*
X177367701Y-109386630D01*
X177319097Y-109546855D01*
X177240169Y-109694520D01*
X177133949Y-109823949D01*
X177004520Y-109930169D01*
X176856855Y-110009097D01*
X176696630Y-110057701D01*
X176571752Y-110070000D01*
X176488248Y-110070000D01*
X176363370Y-110057701D01*
X176203145Y-110009097D01*
X176055480Y-109930169D01*
X175926051Y-109823949D01*
X175819831Y-109694520D01*
X175740903Y-109546855D01*
X175692299Y-109386630D01*
X175675888Y-109220000D01*
X175692299Y-109053370D01*
X175740903Y-108893145D01*
X175819831Y-108745480D01*
X175926051Y-108616051D01*
X176055480Y-108509831D01*
X176203145Y-108430903D01*
X176363370Y-108382299D01*
X176488248Y-108370000D01*
X176571752Y-108370000D01*
X176696630Y-108382299D01*
X176696630Y-108382299D01*
G37*
G36*
X126580000Y-110070000D02*
X124880000Y-110070000D01*
X124880000Y-108370000D01*
X126580000Y-108370000D01*
X126580000Y-110070000D01*
X126580000Y-110070000D01*
G37*
G36*
X161456630Y-108382299D02*
X161616855Y-108430903D01*
X161764520Y-108509831D01*
X161893949Y-108616051D01*
X162000169Y-108745480D01*
X162079097Y-108893145D01*
X162127701Y-109053370D01*
X162144112Y-109220000D01*
X162127701Y-109386630D01*
X162079097Y-109546855D01*
X162000169Y-109694520D01*
X161893949Y-109823949D01*
X161764520Y-109930169D01*
X161616855Y-110009097D01*
X161456630Y-110057701D01*
X161331752Y-110070000D01*
X161248248Y-110070000D01*
X161123370Y-110057701D01*
X160963145Y-110009097D01*
X160815480Y-109930169D01*
X160686051Y-109823949D01*
X160579831Y-109694520D01*
X160500903Y-109546855D01*
X160452299Y-109386630D01*
X160435888Y-109220000D01*
X160452299Y-109053370D01*
X160500903Y-108893145D01*
X160579831Y-108745480D01*
X160686051Y-108616051D01*
X160815480Y-108509831D01*
X160963145Y-108430903D01*
X161123370Y-108382299D01*
X161248248Y-108370000D01*
X161331752Y-108370000D01*
X161456630Y-108382299D01*
X161456630Y-108382299D01*
G37*
G36*
X128436630Y-108382299D02*
X128596855Y-108430903D01*
X128744520Y-108509831D01*
X128873949Y-108616051D01*
X128980169Y-108745480D01*
X129059097Y-108893145D01*
X129107701Y-109053370D01*
X129124112Y-109220000D01*
X129107701Y-109386630D01*
X129059097Y-109546855D01*
X128980169Y-109694520D01*
X128873949Y-109823949D01*
X128744520Y-109930169D01*
X128596855Y-110009097D01*
X128436630Y-110057701D01*
X128311752Y-110070000D01*
X128228248Y-110070000D01*
X128103370Y-110057701D01*
X127943145Y-110009097D01*
X127795480Y-109930169D01*
X127666051Y-109823949D01*
X127559831Y-109694520D01*
X127480903Y-109546855D01*
X127432299Y-109386630D01*
X127415888Y-109220000D01*
X127432299Y-109053370D01*
X127480903Y-108893145D01*
X127559831Y-108745480D01*
X127666051Y-108616051D01*
X127795480Y-108509831D01*
X127943145Y-108430903D01*
X128103370Y-108382299D01*
X128228248Y-108370000D01*
X128311752Y-108370000D01*
X128436630Y-108382299D01*
X128436630Y-108382299D01*
G37*
G36*
X148794183Y-104736900D02*
X148921574Y-104789668D01*
X149036224Y-104866274D01*
X149133726Y-104963776D01*
X149143030Y-104977701D01*
X149210332Y-105078426D01*
X149263100Y-105205817D01*
X149290000Y-105341055D01*
X149290000Y-105478945D01*
X149263100Y-105614183D01*
X149210332Y-105741574D01*
X149133726Y-105856224D01*
X149036224Y-105953726D01*
X148921574Y-106030332D01*
X148794183Y-106083100D01*
X148658945Y-106110000D01*
X148521055Y-106110000D01*
X148385817Y-106083100D01*
X148258426Y-106030332D01*
X148143776Y-105953726D01*
X148046274Y-105856224D01*
X147969668Y-105741574D01*
X147916900Y-105614183D01*
X147890000Y-105478945D01*
X147890000Y-105341055D01*
X147916900Y-105205817D01*
X147969668Y-105078426D01*
X148036970Y-104977701D01*
X148046274Y-104963776D01*
X148143776Y-104866274D01*
X148258426Y-104789668D01*
X148385817Y-104736900D01*
X148521055Y-104710000D01*
X148658945Y-104710000D01*
X148794183Y-104736900D01*
X148794183Y-104736900D01*
G37*
G36*
X156347224Y-104720128D02*
X156479175Y-104760155D01*
X156600781Y-104825155D01*
X156707370Y-104912630D01*
X156794845Y-105019219D01*
X156859845Y-105140825D01*
X156899872Y-105272776D01*
X156913387Y-105410000D01*
X156899872Y-105547224D01*
X156859845Y-105679175D01*
X156794845Y-105800781D01*
X156707370Y-105907370D01*
X156600781Y-105994845D01*
X156479175Y-106059845D01*
X156347224Y-106099872D01*
X156244390Y-106110000D01*
X156175610Y-106110000D01*
X156072776Y-106099872D01*
X155940825Y-106059845D01*
X155819219Y-105994845D01*
X155712630Y-105907370D01*
X155625155Y-105800781D01*
X155560155Y-105679175D01*
X155520128Y-105547224D01*
X155506613Y-105410000D01*
X155520128Y-105272776D01*
X155560155Y-105140825D01*
X155625155Y-105019219D01*
X155712630Y-104912630D01*
X155819219Y-104825155D01*
X155940825Y-104760155D01*
X156072776Y-104720128D01*
X156175610Y-104710000D01*
X156244390Y-104710000D01*
X156347224Y-104720128D01*
X156347224Y-104720128D01*
G37*
G36*
X181776630Y-103302299D02*
X181936855Y-103350903D01*
X182084520Y-103429831D01*
X182213949Y-103536051D01*
X182320169Y-103665480D01*
X182399097Y-103813145D01*
X182447701Y-103973370D01*
X182464112Y-104140000D01*
X182447701Y-104306630D01*
X182399097Y-104466855D01*
X182320169Y-104614520D01*
X182213949Y-104743949D01*
X182084520Y-104850169D01*
X181936855Y-104929097D01*
X181776630Y-104977701D01*
X181651752Y-104990000D01*
X181568248Y-104990000D01*
X181443370Y-104977701D01*
X181283145Y-104929097D01*
X181135480Y-104850169D01*
X181006051Y-104743949D01*
X180899831Y-104614520D01*
X180820903Y-104466855D01*
X180772299Y-104306630D01*
X180755888Y-104140000D01*
X180772299Y-103973370D01*
X180820903Y-103813145D01*
X180899831Y-103665480D01*
X181006051Y-103536051D01*
X181135480Y-103429831D01*
X181283145Y-103350903D01*
X181443370Y-103302299D01*
X181568248Y-103290000D01*
X181651752Y-103290000D01*
X181776630Y-103302299D01*
X181776630Y-103302299D01*
G37*
G36*
X110656630Y-103302299D02*
X110816855Y-103350903D01*
X110964520Y-103429831D01*
X111093949Y-103536051D01*
X111200169Y-103665480D01*
X111279097Y-103813145D01*
X111327701Y-103973370D01*
X111344112Y-104140000D01*
X111327701Y-104306630D01*
X111279097Y-104466855D01*
X111200169Y-104614520D01*
X111093949Y-104743949D01*
X110964520Y-104850169D01*
X110816855Y-104929097D01*
X110656630Y-104977701D01*
X110531752Y-104990000D01*
X110448248Y-104990000D01*
X110323370Y-104977701D01*
X110163145Y-104929097D01*
X110015480Y-104850169D01*
X109886051Y-104743949D01*
X109779831Y-104614520D01*
X109700903Y-104466855D01*
X109652299Y-104306630D01*
X109635888Y-104140000D01*
X109652299Y-103973370D01*
X109700903Y-103813145D01*
X109779831Y-103665480D01*
X109886051Y-103536051D01*
X110015480Y-103429831D01*
X110163145Y-103350903D01*
X110323370Y-103302299D01*
X110448248Y-103290000D01*
X110531752Y-103290000D01*
X110656630Y-103302299D01*
X110656630Y-103302299D01*
G37*
G36*
X184316630Y-103302299D02*
X184476855Y-103350903D01*
X184624520Y-103429831D01*
X184753949Y-103536051D01*
X184860169Y-103665480D01*
X184939097Y-103813145D01*
X184987701Y-103973370D01*
X185004112Y-104140000D01*
X184987701Y-104306630D01*
X184939097Y-104466855D01*
X184860169Y-104614520D01*
X184753949Y-104743949D01*
X184624520Y-104850169D01*
X184476855Y-104929097D01*
X184316630Y-104977701D01*
X184191752Y-104990000D01*
X184108248Y-104990000D01*
X183983370Y-104977701D01*
X183823145Y-104929097D01*
X183675480Y-104850169D01*
X183546051Y-104743949D01*
X183439831Y-104614520D01*
X183360903Y-104466855D01*
X183312299Y-104306630D01*
X183295888Y-104140000D01*
X183312299Y-103973370D01*
X183360903Y-103813145D01*
X183439831Y-103665480D01*
X183546051Y-103536051D01*
X183675480Y-103429831D01*
X183823145Y-103350903D01*
X183983370Y-103302299D01*
X184108248Y-103290000D01*
X184191752Y-103290000D01*
X184316630Y-103302299D01*
X184316630Y-103302299D01*
G37*
G36*
X108116630Y-103302299D02*
X108276855Y-103350903D01*
X108424520Y-103429831D01*
X108553949Y-103536051D01*
X108660169Y-103665480D01*
X108739097Y-103813145D01*
X108787701Y-103973370D01*
X108804112Y-104140000D01*
X108787701Y-104306630D01*
X108739097Y-104466855D01*
X108660169Y-104614520D01*
X108553949Y-104743949D01*
X108424520Y-104850169D01*
X108276855Y-104929097D01*
X108116630Y-104977701D01*
X107991752Y-104990000D01*
X107908248Y-104990000D01*
X107783370Y-104977701D01*
X107623145Y-104929097D01*
X107475480Y-104850169D01*
X107346051Y-104743949D01*
X107239831Y-104614520D01*
X107160903Y-104466855D01*
X107112299Y-104306630D01*
X107095888Y-104140000D01*
X107112299Y-103973370D01*
X107160903Y-103813145D01*
X107239831Y-103665480D01*
X107346051Y-103536051D01*
X107475480Y-103429831D01*
X107623145Y-103350903D01*
X107783370Y-103302299D01*
X107908248Y-103290000D01*
X107991752Y-103290000D01*
X108116630Y-103302299D01*
X108116630Y-103302299D01*
G37*
G36*
X161523352Y-103370743D02*
X161668941Y-103431048D01*
X161799973Y-103518601D01*
X161911399Y-103630027D01*
X161998952Y-103761059D01*
X162059257Y-103906648D01*
X162090000Y-104061205D01*
X162090000Y-104218795D01*
X162059257Y-104373352D01*
X161998952Y-104518941D01*
X161911399Y-104649973D01*
X161799973Y-104761399D01*
X161668941Y-104848952D01*
X161523352Y-104909257D01*
X161368795Y-104940000D01*
X161211205Y-104940000D01*
X161056648Y-104909257D01*
X160911059Y-104848952D01*
X160780027Y-104761399D01*
X160668601Y-104649973D01*
X160581048Y-104518941D01*
X160520743Y-104373352D01*
X160490000Y-104218795D01*
X160490000Y-104061205D01*
X160520743Y-103906648D01*
X160581048Y-103761059D01*
X160668601Y-103630027D01*
X160780027Y-103518601D01*
X160911059Y-103431048D01*
X161056648Y-103370743D01*
X161211205Y-103340000D01*
X161368795Y-103340000D01*
X161523352Y-103370743D01*
X161523352Y-103370743D01*
G37*
G36*
X166574183Y-103466900D02*
X166698993Y-103518599D01*
X166701574Y-103519668D01*
X166761743Y-103559871D01*
X166816225Y-103596275D01*
X166913725Y-103693775D01*
X166990332Y-103808426D01*
X167043100Y-103935817D01*
X167070000Y-104071055D01*
X167070000Y-104208945D01*
X167043100Y-104344183D01*
X166992287Y-104466855D01*
X166990332Y-104471574D01*
X166913726Y-104586224D01*
X166816224Y-104683726D01*
X166736643Y-104736900D01*
X166701574Y-104760332D01*
X166574183Y-104813100D01*
X166438945Y-104840000D01*
X166301055Y-104840000D01*
X166165817Y-104813100D01*
X166038426Y-104760332D01*
X166003357Y-104736900D01*
X165923776Y-104683726D01*
X165826274Y-104586224D01*
X165749668Y-104471574D01*
X165747713Y-104466855D01*
X165696900Y-104344183D01*
X165670000Y-104208945D01*
X165670000Y-104071055D01*
X165696900Y-103935817D01*
X165749668Y-103808426D01*
X165826275Y-103693775D01*
X165923775Y-103596275D01*
X165978258Y-103559871D01*
X166038426Y-103519668D01*
X166041007Y-103518599D01*
X166165817Y-103466900D01*
X166301055Y-103440000D01*
X166438945Y-103440000D01*
X166574183Y-103466900D01*
X166574183Y-103466900D01*
G37*
G36*
X131014183Y-103466900D02*
X131138993Y-103518599D01*
X131141574Y-103519668D01*
X131201743Y-103559871D01*
X131256225Y-103596275D01*
X131353725Y-103693775D01*
X131430332Y-103808426D01*
X131483100Y-103935817D01*
X131510000Y-104071055D01*
X131510000Y-104208945D01*
X131483100Y-104344183D01*
X131432287Y-104466855D01*
X131430332Y-104471574D01*
X131353726Y-104586224D01*
X131256224Y-104683726D01*
X131176643Y-104736900D01*
X131141574Y-104760332D01*
X131014183Y-104813100D01*
X130878945Y-104840000D01*
X130741055Y-104840000D01*
X130605817Y-104813100D01*
X130478426Y-104760332D01*
X130443357Y-104736900D01*
X130363776Y-104683726D01*
X130266274Y-104586224D01*
X130189668Y-104471574D01*
X130187713Y-104466855D01*
X130136900Y-104344183D01*
X130110000Y-104208945D01*
X130110000Y-104071055D01*
X130136900Y-103935817D01*
X130189668Y-103808426D01*
X130266275Y-103693775D01*
X130363775Y-103596275D01*
X130418258Y-103559871D01*
X130478426Y-103519668D01*
X130481007Y-103518599D01*
X130605817Y-103466900D01*
X130741055Y-103440000D01*
X130878945Y-103440000D01*
X131014183Y-103466900D01*
X131014183Y-103466900D01*
G37*
G36*
X164034183Y-103466900D02*
X164158993Y-103518599D01*
X164161574Y-103519668D01*
X164221743Y-103559871D01*
X164276225Y-103596275D01*
X164373725Y-103693775D01*
X164450332Y-103808426D01*
X164503100Y-103935817D01*
X164530000Y-104071055D01*
X164530000Y-104208945D01*
X164503100Y-104344183D01*
X164452287Y-104466855D01*
X164450332Y-104471574D01*
X164373726Y-104586224D01*
X164276224Y-104683726D01*
X164196643Y-104736900D01*
X164161574Y-104760332D01*
X164034183Y-104813100D01*
X163898945Y-104840000D01*
X163761055Y-104840000D01*
X163625817Y-104813100D01*
X163498426Y-104760332D01*
X163463357Y-104736900D01*
X163383776Y-104683726D01*
X163286274Y-104586224D01*
X163209668Y-104471574D01*
X163207713Y-104466855D01*
X163156900Y-104344183D01*
X163130000Y-104208945D01*
X163130000Y-104071055D01*
X163156900Y-103935817D01*
X163209668Y-103808426D01*
X163286275Y-103693775D01*
X163383775Y-103596275D01*
X163438258Y-103559871D01*
X163498426Y-103519668D01*
X163501007Y-103518599D01*
X163625817Y-103466900D01*
X163761055Y-103440000D01*
X163898945Y-103440000D01*
X164034183Y-103466900D01*
X164034183Y-103466900D01*
G37*
G36*
X148794183Y-102196900D02*
X148921574Y-102249668D01*
X149036224Y-102326274D01*
X149133726Y-102423776D01*
X149143030Y-102437701D01*
X149210332Y-102538426D01*
X149263100Y-102665817D01*
X149290000Y-102801055D01*
X149290000Y-102938945D01*
X149263100Y-103074183D01*
X149210332Y-103201574D01*
X149133726Y-103316224D01*
X149036224Y-103413726D01*
X148956643Y-103466900D01*
X148921574Y-103490332D01*
X148794183Y-103543100D01*
X148658945Y-103570000D01*
X148521055Y-103570000D01*
X148385817Y-103543100D01*
X148258426Y-103490332D01*
X148223357Y-103466900D01*
X148143776Y-103413726D01*
X148046274Y-103316224D01*
X147969668Y-103201574D01*
X147916900Y-103074183D01*
X147890000Y-102938945D01*
X147890000Y-102801055D01*
X147916900Y-102665817D01*
X147969668Y-102538426D01*
X148036970Y-102437701D01*
X148046274Y-102423776D01*
X148143776Y-102326274D01*
X148258426Y-102249668D01*
X148385817Y-102196900D01*
X148521055Y-102170000D01*
X148658945Y-102170000D01*
X148794183Y-102196900D01*
X148794183Y-102196900D01*
G37*
G36*
X156347224Y-102180128D02*
X156479175Y-102220155D01*
X156600781Y-102285155D01*
X156707370Y-102372630D01*
X156794845Y-102479219D01*
X156859845Y-102600825D01*
X156899872Y-102732776D01*
X156913387Y-102870000D01*
X156899872Y-103007224D01*
X156859845Y-103139175D01*
X156794845Y-103260781D01*
X156707370Y-103367370D01*
X156600781Y-103454845D01*
X156479175Y-103519845D01*
X156347224Y-103559872D01*
X156244390Y-103570000D01*
X156175610Y-103570000D01*
X156072776Y-103559872D01*
X155940825Y-103519845D01*
X155819219Y-103454845D01*
X155712630Y-103367370D01*
X155625155Y-103260781D01*
X155560155Y-103139175D01*
X155520128Y-103007224D01*
X155506613Y-102870000D01*
X155520128Y-102732776D01*
X155560155Y-102600825D01*
X155625155Y-102479219D01*
X155712630Y-102372630D01*
X155819219Y-102285155D01*
X155940825Y-102220155D01*
X156072776Y-102180128D01*
X156175610Y-102170000D01*
X156244390Y-102170000D01*
X156347224Y-102180128D01*
X156347224Y-102180128D01*
G37*
G36*
X108116630Y-100762299D02*
X108276855Y-100810903D01*
X108424520Y-100889831D01*
X108553949Y-100996051D01*
X108660169Y-101125480D01*
X108739097Y-101273145D01*
X108787701Y-101433370D01*
X108804112Y-101600000D01*
X108787701Y-101766630D01*
X108739097Y-101926855D01*
X108660169Y-102074520D01*
X108553949Y-102203949D01*
X108424520Y-102310169D01*
X108276855Y-102389097D01*
X108116630Y-102437701D01*
X107991752Y-102450000D01*
X107908248Y-102450000D01*
X107783370Y-102437701D01*
X107623145Y-102389097D01*
X107475480Y-102310169D01*
X107346051Y-102203949D01*
X107239831Y-102074520D01*
X107160903Y-101926855D01*
X107112299Y-101766630D01*
X107095888Y-101600000D01*
X107112299Y-101433370D01*
X107160903Y-101273145D01*
X107239831Y-101125480D01*
X107346051Y-100996051D01*
X107475480Y-100889831D01*
X107623145Y-100810903D01*
X107783370Y-100762299D01*
X107908248Y-100750000D01*
X107991752Y-100750000D01*
X108116630Y-100762299D01*
X108116630Y-100762299D01*
G37*
G36*
X110656630Y-100762299D02*
X110816855Y-100810903D01*
X110964520Y-100889831D01*
X111093949Y-100996051D01*
X111200169Y-101125480D01*
X111279097Y-101273145D01*
X111327701Y-101433370D01*
X111344112Y-101600000D01*
X111327701Y-101766630D01*
X111279097Y-101926855D01*
X111200169Y-102074520D01*
X111093949Y-102203949D01*
X110964520Y-102310169D01*
X110816855Y-102389097D01*
X110656630Y-102437701D01*
X110531752Y-102450000D01*
X110448248Y-102450000D01*
X110323370Y-102437701D01*
X110163145Y-102389097D01*
X110015480Y-102310169D01*
X109886051Y-102203949D01*
X109779831Y-102074520D01*
X109700903Y-101926855D01*
X109652299Y-101766630D01*
X109635888Y-101600000D01*
X109652299Y-101433370D01*
X109700903Y-101273145D01*
X109779831Y-101125480D01*
X109886051Y-100996051D01*
X110015480Y-100889831D01*
X110163145Y-100810903D01*
X110323370Y-100762299D01*
X110448248Y-100750000D01*
X110531752Y-100750000D01*
X110656630Y-100762299D01*
X110656630Y-100762299D01*
G37*
G36*
X181776630Y-100762299D02*
X181936855Y-100810903D01*
X182084520Y-100889831D01*
X182213949Y-100996051D01*
X182320169Y-101125480D01*
X182399097Y-101273145D01*
X182447701Y-101433370D01*
X182464112Y-101600000D01*
X182447701Y-101766630D01*
X182399097Y-101926855D01*
X182320169Y-102074520D01*
X182213949Y-102203949D01*
X182084520Y-102310169D01*
X181936855Y-102389097D01*
X181776630Y-102437701D01*
X181651752Y-102450000D01*
X181568248Y-102450000D01*
X181443370Y-102437701D01*
X181283145Y-102389097D01*
X181135480Y-102310169D01*
X181006051Y-102203949D01*
X180899831Y-102074520D01*
X180820903Y-101926855D01*
X180772299Y-101766630D01*
X180755888Y-101600000D01*
X180772299Y-101433370D01*
X180820903Y-101273145D01*
X180899831Y-101125480D01*
X181006051Y-100996051D01*
X181135480Y-100889831D01*
X181283145Y-100810903D01*
X181443370Y-100762299D01*
X181568248Y-100750000D01*
X181651752Y-100750000D01*
X181776630Y-100762299D01*
X181776630Y-100762299D01*
G37*
G36*
X184316630Y-100762299D02*
X184476855Y-100810903D01*
X184624520Y-100889831D01*
X184753949Y-100996051D01*
X184860169Y-101125480D01*
X184939097Y-101273145D01*
X184987701Y-101433370D01*
X185004112Y-101600000D01*
X184987701Y-101766630D01*
X184939097Y-101926855D01*
X184860169Y-102074520D01*
X184753949Y-102203949D01*
X184624520Y-102310169D01*
X184476855Y-102389097D01*
X184316630Y-102437701D01*
X184191752Y-102450000D01*
X184108248Y-102450000D01*
X183983370Y-102437701D01*
X183823145Y-102389097D01*
X183675480Y-102310169D01*
X183546051Y-102203949D01*
X183439831Y-102074520D01*
X183360903Y-101926855D01*
X183312299Y-101766630D01*
X183295888Y-101600000D01*
X183312299Y-101433370D01*
X183360903Y-101273145D01*
X183439831Y-101125480D01*
X183546051Y-100996051D01*
X183675480Y-100889831D01*
X183823145Y-100810903D01*
X183983370Y-100762299D01*
X184108248Y-100750000D01*
X184191752Y-100750000D01*
X184316630Y-100762299D01*
X184316630Y-100762299D01*
G37*
G36*
X156347224Y-99640128D02*
X156479175Y-99680155D01*
X156600781Y-99745155D01*
X156707370Y-99832630D01*
X156794845Y-99939219D01*
X156859845Y-100060825D01*
X156899872Y-100192776D01*
X156913387Y-100330000D01*
X156899872Y-100467224D01*
X156859845Y-100599175D01*
X156794845Y-100720781D01*
X156707370Y-100827370D01*
X156600781Y-100914845D01*
X156479175Y-100979845D01*
X156347224Y-101019872D01*
X156244390Y-101030000D01*
X156175610Y-101030000D01*
X156072776Y-101019872D01*
X155940825Y-100979845D01*
X155819219Y-100914845D01*
X155712630Y-100827370D01*
X155625155Y-100720781D01*
X155560155Y-100599175D01*
X155520128Y-100467224D01*
X155506613Y-100330000D01*
X155520128Y-100192776D01*
X155560155Y-100060825D01*
X155625155Y-99939219D01*
X155712630Y-99832630D01*
X155819219Y-99745155D01*
X155940825Y-99680155D01*
X156072776Y-99640128D01*
X156175610Y-99630000D01*
X156244390Y-99630000D01*
X156347224Y-99640128D01*
X156347224Y-99640128D01*
G37*
G36*
X148794183Y-99656900D02*
X148921574Y-99709668D01*
X149036224Y-99786274D01*
X149133726Y-99883776D01*
X149151248Y-99910000D01*
X149210332Y-99998426D01*
X149263100Y-100125817D01*
X149290000Y-100261055D01*
X149290000Y-100398945D01*
X149263100Y-100534183D01*
X149210332Y-100661574D01*
X149133726Y-100776224D01*
X149036224Y-100873726D01*
X148921574Y-100950332D01*
X148794183Y-101003100D01*
X148658945Y-101030000D01*
X148521055Y-101030000D01*
X148385817Y-101003100D01*
X148258426Y-100950332D01*
X148143776Y-100873726D01*
X148046274Y-100776224D01*
X147969668Y-100661574D01*
X147916900Y-100534183D01*
X147890000Y-100398945D01*
X147890000Y-100261055D01*
X147916900Y-100125817D01*
X147969668Y-99998426D01*
X148028752Y-99910000D01*
X148046274Y-99883776D01*
X148143776Y-99786274D01*
X148258426Y-99709668D01*
X148385817Y-99656900D01*
X148521055Y-99630000D01*
X148658945Y-99630000D01*
X148794183Y-99656900D01*
X148794183Y-99656900D01*
G37*
G36*
X161523352Y-98370743D02*
X161668941Y-98431048D01*
X161799973Y-98518601D01*
X161911399Y-98630027D01*
X161998952Y-98761059D01*
X162059257Y-98906648D01*
X162090000Y-99061205D01*
X162090000Y-99218795D01*
X162059257Y-99373352D01*
X161998952Y-99518941D01*
X161911399Y-99649973D01*
X161799973Y-99761399D01*
X161668941Y-99848952D01*
X161523352Y-99909257D01*
X161368795Y-99940000D01*
X161211205Y-99940000D01*
X161056648Y-99909257D01*
X160911059Y-99848952D01*
X160780027Y-99761399D01*
X160668601Y-99649973D01*
X160581048Y-99518941D01*
X160520743Y-99373352D01*
X160490000Y-99218795D01*
X160490000Y-99061205D01*
X160520743Y-98906648D01*
X160581048Y-98761059D01*
X160668601Y-98630027D01*
X160780027Y-98518601D01*
X160911059Y-98431048D01*
X161056648Y-98370743D01*
X161211205Y-98340000D01*
X161368795Y-98340000D01*
X161523352Y-98370743D01*
X161523352Y-98370743D01*
G37*
G36*
X111340000Y-99910000D02*
X109640000Y-99910000D01*
X109640000Y-98210000D01*
X111340000Y-98210000D01*
X111340000Y-99910000D01*
X111340000Y-99910000D01*
G37*
G36*
X108116630Y-98222299D02*
X108276855Y-98270903D01*
X108424520Y-98349831D01*
X108553949Y-98456051D01*
X108660169Y-98585480D01*
X108739097Y-98733145D01*
X108787701Y-98893370D01*
X108804112Y-99060000D01*
X108787701Y-99226630D01*
X108739097Y-99386855D01*
X108660169Y-99534520D01*
X108553949Y-99663949D01*
X108424520Y-99770169D01*
X108276855Y-99849097D01*
X108116630Y-99897701D01*
X107991752Y-99910000D01*
X107908248Y-99910000D01*
X107783370Y-99897701D01*
X107623145Y-99849097D01*
X107475480Y-99770169D01*
X107346051Y-99663949D01*
X107239831Y-99534520D01*
X107160903Y-99386855D01*
X107112299Y-99226630D01*
X107095888Y-99060000D01*
X107112299Y-98893370D01*
X107160903Y-98733145D01*
X107239831Y-98585480D01*
X107346051Y-98456051D01*
X107475480Y-98349831D01*
X107623145Y-98270903D01*
X107783370Y-98222299D01*
X107908248Y-98210000D01*
X107991752Y-98210000D01*
X108116630Y-98222299D01*
X108116630Y-98222299D01*
G37*
G36*
X184316630Y-98222299D02*
X184476855Y-98270903D01*
X184624520Y-98349831D01*
X184753949Y-98456051D01*
X184860169Y-98585480D01*
X184939097Y-98733145D01*
X184987701Y-98893370D01*
X185004112Y-99060000D01*
X184987701Y-99226630D01*
X184939097Y-99386855D01*
X184860169Y-99534520D01*
X184753949Y-99663949D01*
X184624520Y-99770169D01*
X184476855Y-99849097D01*
X184316630Y-99897701D01*
X184191752Y-99910000D01*
X184108248Y-99910000D01*
X183983370Y-99897701D01*
X183823145Y-99849097D01*
X183675480Y-99770169D01*
X183546051Y-99663949D01*
X183439831Y-99534520D01*
X183360903Y-99386855D01*
X183312299Y-99226630D01*
X183295888Y-99060000D01*
X183312299Y-98893370D01*
X183360903Y-98733145D01*
X183439831Y-98585480D01*
X183546051Y-98456051D01*
X183675480Y-98349831D01*
X183823145Y-98270903D01*
X183983370Y-98222299D01*
X184108248Y-98210000D01*
X184191752Y-98210000D01*
X184316630Y-98222299D01*
X184316630Y-98222299D01*
G37*
G36*
X182460000Y-99910000D02*
X180760000Y-99910000D01*
X180760000Y-98210000D01*
X182460000Y-98210000D01*
X182460000Y-99910000D01*
X182460000Y-99910000D01*
G37*
G36*
X133467649Y-98267717D02*
X133506827Y-98271576D01*
X133582228Y-98294449D01*
X133657629Y-98317321D01*
X133796608Y-98391608D01*
X133918422Y-98491578D01*
X134018392Y-98613392D01*
X134092679Y-98752371D01*
X134092679Y-98752372D01*
X134138424Y-98903173D01*
X134153870Y-99060000D01*
X134138424Y-99216827D01*
X134135450Y-99226630D01*
X134092679Y-99367629D01*
X134018392Y-99506608D01*
X133918422Y-99628422D01*
X133796608Y-99728392D01*
X133657629Y-99802679D01*
X133582228Y-99825551D01*
X133506827Y-99848424D01*
X133467649Y-99852283D01*
X133389295Y-99860000D01*
X133310705Y-99860000D01*
X133232351Y-99852283D01*
X133193173Y-99848424D01*
X133117772Y-99825551D01*
X133042371Y-99802679D01*
X132903392Y-99728392D01*
X132781578Y-99628422D01*
X132681608Y-99506608D01*
X132607321Y-99367629D01*
X132564550Y-99226630D01*
X132561576Y-99216827D01*
X132546130Y-99060000D01*
X132561576Y-98903173D01*
X132607321Y-98752372D01*
X132607321Y-98752371D01*
X132681608Y-98613392D01*
X132781578Y-98491578D01*
X132903392Y-98391608D01*
X133042371Y-98317321D01*
X133117772Y-98294449D01*
X133193173Y-98271576D01*
X133232351Y-98267717D01*
X133310705Y-98260000D01*
X133389295Y-98260000D01*
X133467649Y-98267717D01*
X133467649Y-98267717D01*
G37*
G36*
X141087649Y-98267717D02*
X141126827Y-98271576D01*
X141202228Y-98294449D01*
X141277629Y-98317321D01*
X141416608Y-98391608D01*
X141538422Y-98491578D01*
X141638392Y-98613392D01*
X141712679Y-98752371D01*
X141712679Y-98752372D01*
X141758424Y-98903173D01*
X141773870Y-99060000D01*
X141758424Y-99216827D01*
X141755450Y-99226630D01*
X141712679Y-99367629D01*
X141638392Y-99506608D01*
X141538422Y-99628422D01*
X141416608Y-99728392D01*
X141277629Y-99802679D01*
X141202228Y-99825551D01*
X141126827Y-99848424D01*
X141087649Y-99852283D01*
X141009295Y-99860000D01*
X140930705Y-99860000D01*
X140852351Y-99852283D01*
X140813173Y-99848424D01*
X140737772Y-99825551D01*
X140662371Y-99802679D01*
X140523392Y-99728392D01*
X140401578Y-99628422D01*
X140301608Y-99506608D01*
X140227321Y-99367629D01*
X140184550Y-99226630D01*
X140181576Y-99216827D01*
X140166130Y-99060000D01*
X140181576Y-98903173D01*
X140227321Y-98752372D01*
X140227321Y-98752371D01*
X140301608Y-98613392D01*
X140401578Y-98491578D01*
X140523392Y-98391608D01*
X140662371Y-98317321D01*
X140737772Y-98294449D01*
X140813173Y-98271576D01*
X140852351Y-98267717D01*
X140930705Y-98260000D01*
X141009295Y-98260000D01*
X141087649Y-98267717D01*
X141087649Y-98267717D01*
G37*
G36*
X128474183Y-98386900D02*
X128601574Y-98439668D01*
X128716225Y-98516275D01*
X128813725Y-98613775D01*
X128890332Y-98728426D01*
X128943100Y-98855817D01*
X128970000Y-98991055D01*
X128970000Y-99128945D01*
X128943100Y-99264183D01*
X128897880Y-99373351D01*
X128890332Y-99391574D01*
X128813726Y-99506224D01*
X128716224Y-99603726D01*
X128647014Y-99649970D01*
X128601574Y-99680332D01*
X128474183Y-99733100D01*
X128338945Y-99760000D01*
X128201055Y-99760000D01*
X128065817Y-99733100D01*
X127938426Y-99680332D01*
X127892986Y-99649970D01*
X127823776Y-99603726D01*
X127726274Y-99506224D01*
X127649668Y-99391574D01*
X127642120Y-99373351D01*
X127596900Y-99264183D01*
X127570000Y-99128945D01*
X127570000Y-98991055D01*
X127596900Y-98855817D01*
X127649668Y-98728426D01*
X127726275Y-98613775D01*
X127823775Y-98516275D01*
X127938426Y-98439668D01*
X128065817Y-98386900D01*
X128201055Y-98360000D01*
X128338945Y-98360000D01*
X128474183Y-98386900D01*
X128474183Y-98386900D01*
G37*
G36*
X149390000Y-98590000D02*
X147790000Y-98590000D01*
X147790000Y-96990000D01*
X149390000Y-96990000D01*
X149390000Y-98590000D01*
X149390000Y-98590000D01*
G37*
G36*
X156327649Y-96997717D02*
X156366827Y-97001576D01*
X156418893Y-97017370D01*
X156517629Y-97047321D01*
X156656608Y-97121608D01*
X156778422Y-97221578D01*
X156878392Y-97343392D01*
X156952679Y-97482371D01*
X156998424Y-97633174D01*
X157013870Y-97790000D01*
X156998424Y-97946826D01*
X156952679Y-98097629D01*
X156878392Y-98236608D01*
X156778422Y-98358422D01*
X156656608Y-98458392D01*
X156517629Y-98532679D01*
X156442227Y-98555552D01*
X156366827Y-98578424D01*
X156327649Y-98582283D01*
X156249295Y-98590000D01*
X156170705Y-98590000D01*
X156092351Y-98582283D01*
X156053173Y-98578424D01*
X155977773Y-98555552D01*
X155902371Y-98532679D01*
X155763392Y-98458392D01*
X155641578Y-98358422D01*
X155541608Y-98236608D01*
X155467321Y-98097629D01*
X155421576Y-97946826D01*
X155406130Y-97790000D01*
X155421576Y-97633174D01*
X155467321Y-97482371D01*
X155541608Y-97343392D01*
X155641578Y-97221578D01*
X155763392Y-97121608D01*
X155902371Y-97047321D01*
X156001107Y-97017370D01*
X156053173Y-97001576D01*
X156092351Y-96997717D01*
X156170705Y-96990000D01*
X156249295Y-96990000D01*
X156327649Y-96997717D01*
X156327649Y-96997717D01*
G37*
G36*
X133467649Y-95727717D02*
X133506827Y-95731576D01*
X133582227Y-95754448D01*
X133657629Y-95777321D01*
X133796608Y-95851608D01*
X133918422Y-95951578D01*
X134018392Y-96073392D01*
X134092679Y-96212371D01*
X134138424Y-96363174D01*
X134153870Y-96520000D01*
X134138424Y-96676826D01*
X134092679Y-96827629D01*
X134018392Y-96966608D01*
X133918422Y-97088422D01*
X133796608Y-97188392D01*
X133657629Y-97262679D01*
X133582228Y-97285551D01*
X133506827Y-97308424D01*
X133467649Y-97312283D01*
X133389295Y-97320000D01*
X133310705Y-97320000D01*
X133232351Y-97312283D01*
X133193173Y-97308424D01*
X133117772Y-97285551D01*
X133042371Y-97262679D01*
X132903392Y-97188392D01*
X132781578Y-97088422D01*
X132681608Y-96966608D01*
X132607321Y-96827629D01*
X132561576Y-96676826D01*
X132546130Y-96520000D01*
X132561576Y-96363174D01*
X132607321Y-96212371D01*
X132681608Y-96073392D01*
X132781578Y-95951578D01*
X132903392Y-95851608D01*
X133042371Y-95777321D01*
X133117773Y-95754448D01*
X133193173Y-95731576D01*
X133232351Y-95727717D01*
X133310705Y-95720000D01*
X133389295Y-95720000D01*
X133467649Y-95727717D01*
X133467649Y-95727717D01*
G37*
G36*
X141087649Y-95727717D02*
X141126827Y-95731576D01*
X141202227Y-95754448D01*
X141277629Y-95777321D01*
X141416608Y-95851608D01*
X141538422Y-95951578D01*
X141638392Y-96073392D01*
X141712679Y-96212371D01*
X141758424Y-96363174D01*
X141773870Y-96520000D01*
X141758424Y-96676826D01*
X141712679Y-96827629D01*
X141638392Y-96966608D01*
X141538422Y-97088422D01*
X141416608Y-97188392D01*
X141277629Y-97262679D01*
X141202228Y-97285551D01*
X141126827Y-97308424D01*
X141087649Y-97312283D01*
X141009295Y-97320000D01*
X140930705Y-97320000D01*
X140852351Y-97312283D01*
X140813173Y-97308424D01*
X140737772Y-97285551D01*
X140662371Y-97262679D01*
X140523392Y-97188392D01*
X140401578Y-97088422D01*
X140301608Y-96966608D01*
X140227321Y-96827629D01*
X140181576Y-96676826D01*
X140166130Y-96520000D01*
X140181576Y-96363174D01*
X140227321Y-96212371D01*
X140301608Y-96073392D01*
X140401578Y-95951578D01*
X140523392Y-95851608D01*
X140662371Y-95777321D01*
X140737773Y-95754448D01*
X140813173Y-95731576D01*
X140852351Y-95727717D01*
X140930705Y-95720000D01*
X141009295Y-95720000D01*
X141087649Y-95727717D01*
X141087649Y-95727717D01*
G37*
G36*
X130947224Y-95830128D02*
X131079175Y-95870155D01*
X131200781Y-95935155D01*
X131307370Y-96022630D01*
X131394845Y-96129219D01*
X131459845Y-96250825D01*
X131499872Y-96382776D01*
X131513387Y-96520000D01*
X131499872Y-96657224D01*
X131459845Y-96789175D01*
X131394845Y-96910781D01*
X131307370Y-97017370D01*
X131200781Y-97104845D01*
X131079175Y-97169845D01*
X130947224Y-97209872D01*
X130844390Y-97220000D01*
X130775610Y-97220000D01*
X130672776Y-97209872D01*
X130540825Y-97169845D01*
X130419219Y-97104845D01*
X130312630Y-97017370D01*
X130225155Y-96910781D01*
X130160155Y-96789175D01*
X130120128Y-96657224D01*
X130106613Y-96520000D01*
X130120128Y-96382776D01*
X130160155Y-96250825D01*
X130225155Y-96129219D01*
X130312630Y-96022630D01*
X130419219Y-95935155D01*
X130540825Y-95870155D01*
X130672776Y-95830128D01*
X130775610Y-95820000D01*
X130844390Y-95820000D01*
X130947224Y-95830128D01*
X130947224Y-95830128D01*
G37*
G36*
X163967224Y-95830128D02*
X164099175Y-95870155D01*
X164220781Y-95935155D01*
X164327370Y-96022630D01*
X164414845Y-96129219D01*
X164479845Y-96250825D01*
X164519872Y-96382776D01*
X164533387Y-96520000D01*
X164519872Y-96657224D01*
X164479845Y-96789175D01*
X164414845Y-96910781D01*
X164327370Y-97017370D01*
X164220781Y-97104845D01*
X164099175Y-97169845D01*
X163967224Y-97209872D01*
X163864390Y-97220000D01*
X163795610Y-97220000D01*
X163692776Y-97209872D01*
X163560825Y-97169845D01*
X163439219Y-97104845D01*
X163332630Y-97017370D01*
X163245155Y-96910781D01*
X163180155Y-96789175D01*
X163140128Y-96657224D01*
X163126613Y-96520000D01*
X163140128Y-96382776D01*
X163180155Y-96250825D01*
X163245155Y-96129219D01*
X163332630Y-96022630D01*
X163439219Y-95935155D01*
X163560825Y-95870155D01*
X163692776Y-95830128D01*
X163795610Y-95820000D01*
X163864390Y-95820000D01*
X163967224Y-95830128D01*
X163967224Y-95830128D01*
G37*
G36*
X166507224Y-95830128D02*
X166639175Y-95870155D01*
X166760781Y-95935155D01*
X166867370Y-96022630D01*
X166954845Y-96129219D01*
X167019845Y-96250825D01*
X167059872Y-96382776D01*
X167073387Y-96520000D01*
X167059872Y-96657224D01*
X167019845Y-96789175D01*
X166954845Y-96910781D01*
X166867370Y-97017370D01*
X166760781Y-97104845D01*
X166639175Y-97169845D01*
X166507224Y-97209872D01*
X166404390Y-97220000D01*
X166335610Y-97220000D01*
X166232776Y-97209872D01*
X166100825Y-97169845D01*
X165979219Y-97104845D01*
X165872630Y-97017370D01*
X165785155Y-96910781D01*
X165720155Y-96789175D01*
X165680128Y-96657224D01*
X165666613Y-96520000D01*
X165680128Y-96382776D01*
X165720155Y-96250825D01*
X165785155Y-96129219D01*
X165872630Y-96022630D01*
X165979219Y-95935155D01*
X166100825Y-95870155D01*
X166232776Y-95830128D01*
X166335610Y-95820000D01*
X166404390Y-95820000D01*
X166507224Y-95830128D01*
X166507224Y-95830128D01*
G37*
G36*
X148707649Y-94457717D02*
X148746827Y-94461576D01*
X148798893Y-94477370D01*
X148897629Y-94507321D01*
X149036608Y-94581608D01*
X149158422Y-94681578D01*
X149258392Y-94803392D01*
X149332679Y-94942371D01*
X149378424Y-95093174D01*
X149393870Y-95250000D01*
X149378424Y-95406826D01*
X149332679Y-95557629D01*
X149258392Y-95696608D01*
X149158422Y-95818422D01*
X149036608Y-95918392D01*
X148897629Y-95992679D01*
X148822228Y-96015551D01*
X148746827Y-96038424D01*
X148707649Y-96042283D01*
X148629295Y-96050000D01*
X148550705Y-96050000D01*
X148472351Y-96042283D01*
X148433173Y-96038424D01*
X148357772Y-96015551D01*
X148282371Y-95992679D01*
X148143392Y-95918392D01*
X148021578Y-95818422D01*
X147921608Y-95696608D01*
X147847321Y-95557629D01*
X147801576Y-95406826D01*
X147786130Y-95250000D01*
X147801576Y-95093174D01*
X147847321Y-94942371D01*
X147921608Y-94803392D01*
X148021578Y-94681578D01*
X148143392Y-94581608D01*
X148282371Y-94507321D01*
X148381107Y-94477370D01*
X148433173Y-94461576D01*
X148472351Y-94457717D01*
X148550705Y-94450000D01*
X148629295Y-94450000D01*
X148707649Y-94457717D01*
X148707649Y-94457717D01*
G37*
G36*
X157010000Y-96050000D02*
X155410000Y-96050000D01*
X155410000Y-94450000D01*
X157010000Y-94450000D01*
X157010000Y-96050000D01*
X157010000Y-96050000D01*
G37*
G36*
X108116630Y-93142299D02*
X108276855Y-93190903D01*
X108424520Y-93269831D01*
X108553949Y-93376051D01*
X108660169Y-93505480D01*
X108739097Y-93653145D01*
X108787701Y-93813370D01*
X108804112Y-93980000D01*
X108787701Y-94146630D01*
X108739097Y-94306855D01*
X108660169Y-94454520D01*
X108553949Y-94583949D01*
X108424520Y-94690169D01*
X108276855Y-94769097D01*
X108116630Y-94817701D01*
X107991752Y-94830000D01*
X107908248Y-94830000D01*
X107783370Y-94817701D01*
X107623145Y-94769097D01*
X107475480Y-94690169D01*
X107346051Y-94583949D01*
X107239831Y-94454520D01*
X107160903Y-94306855D01*
X107112299Y-94146630D01*
X107095888Y-93980000D01*
X107112299Y-93813370D01*
X107160903Y-93653145D01*
X107239831Y-93505480D01*
X107346051Y-93376051D01*
X107475480Y-93269831D01*
X107623145Y-93190903D01*
X107783370Y-93142299D01*
X107908248Y-93130000D01*
X107991752Y-93130000D01*
X108116630Y-93142299D01*
X108116630Y-93142299D01*
G37*
G36*
X111340000Y-94830000D02*
X109640000Y-94830000D01*
X109640000Y-93130000D01*
X111340000Y-93130000D01*
X111340000Y-94830000D01*
X111340000Y-94830000D01*
G37*
G36*
X184316630Y-93142299D02*
X184476855Y-93190903D01*
X184624520Y-93269831D01*
X184753949Y-93376051D01*
X184860169Y-93505480D01*
X184939097Y-93653145D01*
X184987701Y-93813370D01*
X185004112Y-93980000D01*
X184987701Y-94146630D01*
X184939097Y-94306855D01*
X184860169Y-94454520D01*
X184753949Y-94583949D01*
X184624520Y-94690169D01*
X184476855Y-94769097D01*
X184316630Y-94817701D01*
X184191752Y-94830000D01*
X184108248Y-94830000D01*
X183983370Y-94817701D01*
X183823145Y-94769097D01*
X183675480Y-94690169D01*
X183546051Y-94583949D01*
X183439831Y-94454520D01*
X183360903Y-94306855D01*
X183312299Y-94146630D01*
X183295888Y-93980000D01*
X183312299Y-93813370D01*
X183360903Y-93653145D01*
X183439831Y-93505480D01*
X183546051Y-93376051D01*
X183675480Y-93269831D01*
X183823145Y-93190903D01*
X183983370Y-93142299D01*
X184108248Y-93130000D01*
X184191752Y-93130000D01*
X184316630Y-93142299D01*
X184316630Y-93142299D01*
G37*
G36*
X182460000Y-94830000D02*
X180760000Y-94830000D01*
X180760000Y-93130000D01*
X182460000Y-93130000D01*
X182460000Y-94830000D01*
X182460000Y-94830000D01*
G37*
G36*
X141087649Y-93187717D02*
X141126827Y-93191576D01*
X141202227Y-93214448D01*
X141277629Y-93237321D01*
X141416608Y-93311608D01*
X141538422Y-93411578D01*
X141638392Y-93533392D01*
X141712679Y-93672371D01*
X141712679Y-93672372D01*
X141758424Y-93823173D01*
X141773870Y-93980000D01*
X141758424Y-94136827D01*
X141755450Y-94146630D01*
X141712679Y-94287629D01*
X141638392Y-94426608D01*
X141538422Y-94548422D01*
X141416608Y-94648392D01*
X141277629Y-94722679D01*
X141202228Y-94745551D01*
X141126827Y-94768424D01*
X141087649Y-94772283D01*
X141009295Y-94780000D01*
X140930705Y-94780000D01*
X140852351Y-94772283D01*
X140813173Y-94768424D01*
X140737772Y-94745551D01*
X140662371Y-94722679D01*
X140523392Y-94648392D01*
X140401578Y-94548422D01*
X140301608Y-94426608D01*
X140227321Y-94287629D01*
X140184550Y-94146630D01*
X140181576Y-94136827D01*
X140166130Y-93980000D01*
X140181576Y-93823173D01*
X140227321Y-93672372D01*
X140227321Y-93672371D01*
X140301608Y-93533392D01*
X140401578Y-93411578D01*
X140523392Y-93311608D01*
X140662371Y-93237321D01*
X140737773Y-93214448D01*
X140813173Y-93191576D01*
X140852351Y-93187717D01*
X140930705Y-93180000D01*
X141009295Y-93180000D01*
X141087649Y-93187717D01*
X141087649Y-93187717D01*
G37*
G36*
X133467649Y-93187717D02*
X133506827Y-93191576D01*
X133582227Y-93214448D01*
X133657629Y-93237321D01*
X133796608Y-93311608D01*
X133918422Y-93411578D01*
X134018392Y-93533392D01*
X134092679Y-93672371D01*
X134092679Y-93672372D01*
X134138424Y-93823173D01*
X134153870Y-93980000D01*
X134138424Y-94136827D01*
X134135450Y-94146630D01*
X134092679Y-94287629D01*
X134018392Y-94426608D01*
X133918422Y-94548422D01*
X133796608Y-94648392D01*
X133657629Y-94722679D01*
X133582228Y-94745551D01*
X133506827Y-94768424D01*
X133467649Y-94772283D01*
X133389295Y-94780000D01*
X133310705Y-94780000D01*
X133232351Y-94772283D01*
X133193173Y-94768424D01*
X133117772Y-94745551D01*
X133042371Y-94722679D01*
X132903392Y-94648392D01*
X132781578Y-94548422D01*
X132681608Y-94426608D01*
X132607321Y-94287629D01*
X132564550Y-94146630D01*
X132561576Y-94136827D01*
X132546130Y-93980000D01*
X132561576Y-93823173D01*
X132607321Y-93672372D01*
X132607321Y-93672371D01*
X132681608Y-93533392D01*
X132781578Y-93411578D01*
X132903392Y-93311608D01*
X133042371Y-93237321D01*
X133117773Y-93214448D01*
X133193173Y-93191576D01*
X133232351Y-93187717D01*
X133310705Y-93180000D01*
X133389295Y-93180000D01*
X133467649Y-93187717D01*
X133467649Y-93187717D01*
G37*
G36*
X166507224Y-93290128D02*
X166639175Y-93330155D01*
X166760781Y-93395155D01*
X166867370Y-93482630D01*
X166954845Y-93589219D01*
X167019845Y-93710825D01*
X167059872Y-93842776D01*
X167073387Y-93980000D01*
X167059872Y-94117224D01*
X167019845Y-94249175D01*
X166954845Y-94370781D01*
X166867370Y-94477370D01*
X166760781Y-94564845D01*
X166639175Y-94629845D01*
X166507224Y-94669872D01*
X166404390Y-94680000D01*
X166335610Y-94680000D01*
X166232776Y-94669872D01*
X166100825Y-94629845D01*
X165979219Y-94564845D01*
X165872630Y-94477370D01*
X165785155Y-94370781D01*
X165720155Y-94249175D01*
X165680128Y-94117224D01*
X165666613Y-93980000D01*
X165680128Y-93842776D01*
X165720155Y-93710825D01*
X165785155Y-93589219D01*
X165872630Y-93482630D01*
X165979219Y-93395155D01*
X166100825Y-93330155D01*
X166232776Y-93290128D01*
X166335610Y-93280000D01*
X166404390Y-93280000D01*
X166507224Y-93290128D01*
X166507224Y-93290128D01*
G37*
G36*
X108116630Y-90602299D02*
X108276855Y-90650903D01*
X108424520Y-90729831D01*
X108553949Y-90836051D01*
X108660169Y-90965480D01*
X108739097Y-91113145D01*
X108787701Y-91273370D01*
X108804112Y-91440000D01*
X108787701Y-91606630D01*
X108739097Y-91766855D01*
X108660169Y-91914520D01*
X108553949Y-92043949D01*
X108424520Y-92150169D01*
X108276855Y-92229097D01*
X108116630Y-92277701D01*
X107991752Y-92290000D01*
X107908248Y-92290000D01*
X107783370Y-92277701D01*
X107623145Y-92229097D01*
X107475480Y-92150169D01*
X107346051Y-92043949D01*
X107239831Y-91914520D01*
X107160903Y-91766855D01*
X107112299Y-91606630D01*
X107095888Y-91440000D01*
X107112299Y-91273370D01*
X107160903Y-91113145D01*
X107239831Y-90965480D01*
X107346051Y-90836051D01*
X107475480Y-90729831D01*
X107623145Y-90650903D01*
X107783370Y-90602299D01*
X107908248Y-90590000D01*
X107991752Y-90590000D01*
X108116630Y-90602299D01*
X108116630Y-90602299D01*
G37*
G36*
X110656630Y-90602299D02*
X110816855Y-90650903D01*
X110964520Y-90729831D01*
X111093949Y-90836051D01*
X111200169Y-90965480D01*
X111279097Y-91113145D01*
X111327701Y-91273370D01*
X111344112Y-91440000D01*
X111327701Y-91606630D01*
X111279097Y-91766855D01*
X111200169Y-91914520D01*
X111093949Y-92043949D01*
X110964520Y-92150169D01*
X110816855Y-92229097D01*
X110656630Y-92277701D01*
X110531752Y-92290000D01*
X110448248Y-92290000D01*
X110323370Y-92277701D01*
X110163145Y-92229097D01*
X110015480Y-92150169D01*
X109886051Y-92043949D01*
X109779831Y-91914520D01*
X109700903Y-91766855D01*
X109652299Y-91606630D01*
X109635888Y-91440000D01*
X109652299Y-91273370D01*
X109700903Y-91113145D01*
X109779831Y-90965480D01*
X109886051Y-90836051D01*
X110015480Y-90729831D01*
X110163145Y-90650903D01*
X110323370Y-90602299D01*
X110448248Y-90590000D01*
X110531752Y-90590000D01*
X110656630Y-90602299D01*
X110656630Y-90602299D01*
G37*
G36*
X181776630Y-90602299D02*
X181936855Y-90650903D01*
X182084520Y-90729831D01*
X182213949Y-90836051D01*
X182320169Y-90965480D01*
X182399097Y-91113145D01*
X182447701Y-91273370D01*
X182464112Y-91440000D01*
X182447701Y-91606630D01*
X182399097Y-91766855D01*
X182320169Y-91914520D01*
X182213949Y-92043949D01*
X182084520Y-92150169D01*
X181936855Y-92229097D01*
X181776630Y-92277701D01*
X181651752Y-92290000D01*
X181568248Y-92290000D01*
X181443370Y-92277701D01*
X181283145Y-92229097D01*
X181135480Y-92150169D01*
X181006051Y-92043949D01*
X180899831Y-91914520D01*
X180820903Y-91766855D01*
X180772299Y-91606630D01*
X180755888Y-91440000D01*
X180772299Y-91273370D01*
X180820903Y-91113145D01*
X180899831Y-90965480D01*
X181006051Y-90836051D01*
X181135480Y-90729831D01*
X181283145Y-90650903D01*
X181443370Y-90602299D01*
X181568248Y-90590000D01*
X181651752Y-90590000D01*
X181776630Y-90602299D01*
X181776630Y-90602299D01*
G37*
G36*
X184316630Y-90602299D02*
X184476855Y-90650903D01*
X184624520Y-90729831D01*
X184753949Y-90836051D01*
X184860169Y-90965480D01*
X184939097Y-91113145D01*
X184987701Y-91273370D01*
X185004112Y-91440000D01*
X184987701Y-91606630D01*
X184939097Y-91766855D01*
X184860169Y-91914520D01*
X184753949Y-92043949D01*
X184624520Y-92150169D01*
X184476855Y-92229097D01*
X184316630Y-92277701D01*
X184191752Y-92290000D01*
X184108248Y-92290000D01*
X183983370Y-92277701D01*
X183823145Y-92229097D01*
X183675480Y-92150169D01*
X183546051Y-92043949D01*
X183439831Y-91914520D01*
X183360903Y-91766855D01*
X183312299Y-91606630D01*
X183295888Y-91440000D01*
X183312299Y-91273370D01*
X183360903Y-91113145D01*
X183439831Y-90965480D01*
X183546051Y-90836051D01*
X183675480Y-90729831D01*
X183823145Y-90650903D01*
X183983370Y-90602299D01*
X184108248Y-90590000D01*
X184191752Y-90590000D01*
X184316630Y-90602299D01*
X184316630Y-90602299D01*
G37*
G36*
X147437649Y-90647717D02*
X147476827Y-90651576D01*
X147552228Y-90674449D01*
X147627629Y-90697321D01*
X147766608Y-90771608D01*
X147888422Y-90871578D01*
X147988392Y-90993392D01*
X148062679Y-91132371D01*
X148062679Y-91132372D01*
X148108424Y-91283173D01*
X148123870Y-91440000D01*
X148108424Y-91596827D01*
X148105450Y-91606630D01*
X148062679Y-91747629D01*
X147988392Y-91886608D01*
X147888422Y-92008422D01*
X147766608Y-92108392D01*
X147627629Y-92182679D01*
X147552227Y-92205552D01*
X147476827Y-92228424D01*
X147437649Y-92232283D01*
X147359295Y-92240000D01*
X147280705Y-92240000D01*
X147202351Y-92232283D01*
X147163173Y-92228424D01*
X147087773Y-92205552D01*
X147012371Y-92182679D01*
X146873392Y-92108392D01*
X146751578Y-92008422D01*
X146651608Y-91886608D01*
X146577321Y-91747629D01*
X146534550Y-91606630D01*
X146531576Y-91596827D01*
X146516130Y-91440000D01*
X146531576Y-91283173D01*
X146577321Y-91132372D01*
X146577321Y-91132371D01*
X146651608Y-90993392D01*
X146751578Y-90871578D01*
X146873392Y-90771608D01*
X147012371Y-90697321D01*
X147087772Y-90674449D01*
X147163173Y-90651576D01*
X147202351Y-90647717D01*
X147280705Y-90640000D01*
X147359295Y-90640000D01*
X147437649Y-90647717D01*
X147437649Y-90647717D01*
G37*
G36*
X155057649Y-90647717D02*
X155096827Y-90651576D01*
X155172228Y-90674449D01*
X155247629Y-90697321D01*
X155386608Y-90771608D01*
X155508422Y-90871578D01*
X155608392Y-90993392D01*
X155682679Y-91132371D01*
X155682679Y-91132372D01*
X155728424Y-91283173D01*
X155743870Y-91440000D01*
X155728424Y-91596827D01*
X155725450Y-91606630D01*
X155682679Y-91747629D01*
X155608392Y-91886608D01*
X155508422Y-92008422D01*
X155386608Y-92108392D01*
X155247629Y-92182679D01*
X155172227Y-92205552D01*
X155096827Y-92228424D01*
X155057649Y-92232283D01*
X154979295Y-92240000D01*
X154900705Y-92240000D01*
X154822351Y-92232283D01*
X154783173Y-92228424D01*
X154707773Y-92205552D01*
X154632371Y-92182679D01*
X154493392Y-92108392D01*
X154371578Y-92008422D01*
X154271608Y-91886608D01*
X154197321Y-91747629D01*
X154154550Y-91606630D01*
X154151576Y-91596827D01*
X154136130Y-91440000D01*
X154151576Y-91283173D01*
X154197321Y-91132372D01*
X154197321Y-91132371D01*
X154271608Y-90993392D01*
X154371578Y-90871578D01*
X154493392Y-90771608D01*
X154632371Y-90697321D01*
X154707772Y-90674449D01*
X154783173Y-90651576D01*
X154822351Y-90647717D01*
X154900705Y-90640000D01*
X154979295Y-90640000D01*
X155057649Y-90647717D01*
X155057649Y-90647717D01*
G37*
G36*
X134150000Y-92240000D02*
X132550000Y-92240000D01*
X132550000Y-90640000D01*
X134150000Y-90640000D01*
X134150000Y-92240000D01*
X134150000Y-92240000D01*
G37*
G36*
X141087649Y-90647717D02*
X141126827Y-90651576D01*
X141202228Y-90674449D01*
X141277629Y-90697321D01*
X141416608Y-90771608D01*
X141538422Y-90871578D01*
X141638392Y-90993392D01*
X141712679Y-91132371D01*
X141712679Y-91132372D01*
X141758424Y-91283173D01*
X141773870Y-91440000D01*
X141758424Y-91596827D01*
X141755450Y-91606630D01*
X141712679Y-91747629D01*
X141638392Y-91886608D01*
X141538422Y-92008422D01*
X141416608Y-92108392D01*
X141277629Y-92182679D01*
X141202227Y-92205552D01*
X141126827Y-92228424D01*
X141087649Y-92232283D01*
X141009295Y-92240000D01*
X140930705Y-92240000D01*
X140852351Y-92232283D01*
X140813173Y-92228424D01*
X140737773Y-92205552D01*
X140662371Y-92182679D01*
X140523392Y-92108392D01*
X140401578Y-92008422D01*
X140301608Y-91886608D01*
X140227321Y-91747629D01*
X140184550Y-91606630D01*
X140181576Y-91596827D01*
X140166130Y-91440000D01*
X140181576Y-91283173D01*
X140227321Y-91132372D01*
X140227321Y-91132371D01*
X140301608Y-90993392D01*
X140401578Y-90871578D01*
X140523392Y-90771608D01*
X140662371Y-90697321D01*
X140737772Y-90674449D01*
X140813173Y-90651576D01*
X140852351Y-90647717D01*
X140930705Y-90640000D01*
X141009295Y-90640000D01*
X141087649Y-90647717D01*
X141087649Y-90647717D01*
G37*
G36*
X128407224Y-90750128D02*
X128539175Y-90790155D01*
X128660781Y-90855155D01*
X128767370Y-90942630D01*
X128854845Y-91049219D01*
X128919845Y-91170825D01*
X128959872Y-91302776D01*
X128973387Y-91440000D01*
X128959872Y-91577224D01*
X128919845Y-91709175D01*
X128854845Y-91830781D01*
X128767370Y-91937370D01*
X128660781Y-92024845D01*
X128539175Y-92089845D01*
X128407224Y-92129872D01*
X128304390Y-92140000D01*
X128235610Y-92140000D01*
X128132776Y-92129872D01*
X128000825Y-92089845D01*
X127879219Y-92024845D01*
X127772630Y-91937370D01*
X127685155Y-91830781D01*
X127620155Y-91709175D01*
X127580128Y-91577224D01*
X127566613Y-91440000D01*
X127580128Y-91302776D01*
X127620155Y-91170825D01*
X127685155Y-91049219D01*
X127772630Y-90942630D01*
X127879219Y-90855155D01*
X128000825Y-90790155D01*
X128132776Y-90750128D01*
X128235610Y-90740000D01*
X128304390Y-90740000D01*
X128407224Y-90750128D01*
X128407224Y-90750128D01*
G37*
G36*
X184316630Y-88062299D02*
X184476855Y-88110903D01*
X184624520Y-88189831D01*
X184753949Y-88296051D01*
X184860169Y-88425480D01*
X184939097Y-88573145D01*
X184987701Y-88733370D01*
X185004112Y-88900000D01*
X184987701Y-89066630D01*
X184939097Y-89226855D01*
X184860169Y-89374520D01*
X184753949Y-89503949D01*
X184624520Y-89610169D01*
X184476855Y-89689097D01*
X184316630Y-89737701D01*
X184191752Y-89750000D01*
X184108248Y-89750000D01*
X183983370Y-89737701D01*
X183823145Y-89689097D01*
X183675480Y-89610169D01*
X183546051Y-89503949D01*
X183439831Y-89374520D01*
X183360903Y-89226855D01*
X183312299Y-89066630D01*
X183295888Y-88900000D01*
X183312299Y-88733370D01*
X183360903Y-88573145D01*
X183439831Y-88425480D01*
X183546051Y-88296051D01*
X183675480Y-88189831D01*
X183823145Y-88110903D01*
X183983370Y-88062299D01*
X184108248Y-88050000D01*
X184191752Y-88050000D01*
X184316630Y-88062299D01*
X184316630Y-88062299D01*
G37*
G36*
X181776630Y-88062299D02*
X181936855Y-88110903D01*
X182084520Y-88189831D01*
X182213949Y-88296051D01*
X182320169Y-88425480D01*
X182399097Y-88573145D01*
X182447701Y-88733370D01*
X182464112Y-88900000D01*
X182447701Y-89066630D01*
X182399097Y-89226855D01*
X182320169Y-89374520D01*
X182213949Y-89503949D01*
X182084520Y-89610169D01*
X181936855Y-89689097D01*
X181776630Y-89737701D01*
X181651752Y-89750000D01*
X181568248Y-89750000D01*
X181443370Y-89737701D01*
X181283145Y-89689097D01*
X181135480Y-89610169D01*
X181006051Y-89503949D01*
X180899831Y-89374520D01*
X180820903Y-89226855D01*
X180772299Y-89066630D01*
X180755888Y-88900000D01*
X180772299Y-88733370D01*
X180820903Y-88573145D01*
X180899831Y-88425480D01*
X181006051Y-88296051D01*
X181135480Y-88189831D01*
X181283145Y-88110903D01*
X181443370Y-88062299D01*
X181568248Y-88050000D01*
X181651752Y-88050000D01*
X181776630Y-88062299D01*
X181776630Y-88062299D01*
G37*
G36*
X108116630Y-88062299D02*
X108276855Y-88110903D01*
X108424520Y-88189831D01*
X108553949Y-88296051D01*
X108660169Y-88425480D01*
X108739097Y-88573145D01*
X108787701Y-88733370D01*
X108804112Y-88900000D01*
X108787701Y-89066630D01*
X108739097Y-89226855D01*
X108660169Y-89374520D01*
X108553949Y-89503949D01*
X108424520Y-89610169D01*
X108276855Y-89689097D01*
X108116630Y-89737701D01*
X107991752Y-89750000D01*
X107908248Y-89750000D01*
X107783370Y-89737701D01*
X107623145Y-89689097D01*
X107475480Y-89610169D01*
X107346051Y-89503949D01*
X107239831Y-89374520D01*
X107160903Y-89226855D01*
X107112299Y-89066630D01*
X107095888Y-88900000D01*
X107112299Y-88733370D01*
X107160903Y-88573145D01*
X107239831Y-88425480D01*
X107346051Y-88296051D01*
X107475480Y-88189831D01*
X107623145Y-88110903D01*
X107783370Y-88062299D01*
X107908248Y-88050000D01*
X107991752Y-88050000D01*
X108116630Y-88062299D01*
X108116630Y-88062299D01*
G37*
G36*
X110656630Y-88062299D02*
X110816855Y-88110903D01*
X110964520Y-88189831D01*
X111093949Y-88296051D01*
X111200169Y-88425480D01*
X111279097Y-88573145D01*
X111327701Y-88733370D01*
X111344112Y-88900000D01*
X111327701Y-89066630D01*
X111279097Y-89226855D01*
X111200169Y-89374520D01*
X111093949Y-89503949D01*
X110964520Y-89610169D01*
X110816855Y-89689097D01*
X110656630Y-89737701D01*
X110531752Y-89750000D01*
X110448248Y-89750000D01*
X110323370Y-89737701D01*
X110163145Y-89689097D01*
X110015480Y-89610169D01*
X109886051Y-89503949D01*
X109779831Y-89374520D01*
X109700903Y-89226855D01*
X109652299Y-89066630D01*
X109635888Y-88900000D01*
X109652299Y-88733370D01*
X109700903Y-88573145D01*
X109779831Y-88425480D01*
X109886051Y-88296051D01*
X110015480Y-88189831D01*
X110163145Y-88110903D01*
X110323370Y-88062299D01*
X110448248Y-88050000D01*
X110531752Y-88050000D01*
X110656630Y-88062299D01*
X110656630Y-88062299D01*
G37*
G36*
X155057649Y-88107717D02*
X155096827Y-88111576D01*
X155172227Y-88134448D01*
X155247629Y-88157321D01*
X155386608Y-88231608D01*
X155508422Y-88331578D01*
X155608392Y-88453392D01*
X155682679Y-88592371D01*
X155682679Y-88592372D01*
X155728424Y-88743173D01*
X155743870Y-88900000D01*
X155728424Y-89056827D01*
X155725450Y-89066630D01*
X155682679Y-89207629D01*
X155608392Y-89346608D01*
X155508422Y-89468422D01*
X155386608Y-89568392D01*
X155247629Y-89642679D01*
X155172228Y-89665551D01*
X155096827Y-89688424D01*
X155057649Y-89692283D01*
X154979295Y-89700000D01*
X154900705Y-89700000D01*
X154822351Y-89692283D01*
X154783173Y-89688424D01*
X154707772Y-89665551D01*
X154632371Y-89642679D01*
X154493392Y-89568392D01*
X154371578Y-89468422D01*
X154271608Y-89346608D01*
X154197321Y-89207629D01*
X154154550Y-89066630D01*
X154151576Y-89056827D01*
X154136130Y-88900000D01*
X154151576Y-88743173D01*
X154197321Y-88592372D01*
X154197321Y-88592371D01*
X154271608Y-88453392D01*
X154371578Y-88331578D01*
X154493392Y-88231608D01*
X154632371Y-88157321D01*
X154707773Y-88134448D01*
X154783173Y-88111576D01*
X154822351Y-88107717D01*
X154900705Y-88100000D01*
X154979295Y-88100000D01*
X155057649Y-88107717D01*
X155057649Y-88107717D01*
G37*
G36*
X147437649Y-88107717D02*
X147476827Y-88111576D01*
X147552227Y-88134448D01*
X147627629Y-88157321D01*
X147766608Y-88231608D01*
X147888422Y-88331578D01*
X147988392Y-88453392D01*
X148062679Y-88592371D01*
X148062679Y-88592372D01*
X148108424Y-88743173D01*
X148123870Y-88900000D01*
X148108424Y-89056827D01*
X148105450Y-89066630D01*
X148062679Y-89207629D01*
X147988392Y-89346608D01*
X147888422Y-89468422D01*
X147766608Y-89568392D01*
X147627629Y-89642679D01*
X147552228Y-89665551D01*
X147476827Y-89688424D01*
X147437649Y-89692283D01*
X147359295Y-89700000D01*
X147280705Y-89700000D01*
X147202351Y-89692283D01*
X147163173Y-89688424D01*
X147087772Y-89665551D01*
X147012371Y-89642679D01*
X146873392Y-89568392D01*
X146751578Y-89468422D01*
X146651608Y-89346608D01*
X146577321Y-89207629D01*
X146534550Y-89066630D01*
X146531576Y-89056827D01*
X146516130Y-88900000D01*
X146531576Y-88743173D01*
X146577321Y-88592372D01*
X146577321Y-88592371D01*
X146651608Y-88453392D01*
X146751578Y-88331578D01*
X146873392Y-88231608D01*
X147012371Y-88157321D01*
X147087773Y-88134448D01*
X147163173Y-88111576D01*
X147202351Y-88107717D01*
X147280705Y-88100000D01*
X147359295Y-88100000D01*
X147437649Y-88107717D01*
X147437649Y-88107717D01*
G37*
G36*
X159600000Y-87210000D02*
X157900000Y-87210000D01*
X157900000Y-85510000D01*
X159600000Y-85510000D01*
X159600000Y-87210000D01*
X159600000Y-87210000D01*
G37*
G36*
X162140000Y-87210000D02*
X160440000Y-87210000D01*
X160440000Y-85510000D01*
X162140000Y-85510000D01*
X162140000Y-87210000D01*
X162140000Y-87210000D01*
G37*
G36*
X134200000Y-87210000D02*
X132500000Y-87210000D01*
X132500000Y-85510000D01*
X134200000Y-85510000D01*
X134200000Y-87210000D01*
X134200000Y-87210000D01*
G37*
G36*
X136740000Y-87210000D02*
X135040000Y-87210000D01*
X135040000Y-85510000D01*
X136740000Y-85510000D01*
X136740000Y-87210000D01*
X136740000Y-87210000D01*
G37*
G36*
X155057649Y-85567717D02*
X155096827Y-85571576D01*
X155172227Y-85594448D01*
X155247629Y-85617321D01*
X155386608Y-85691608D01*
X155508422Y-85791578D01*
X155608392Y-85913392D01*
X155682679Y-86052371D01*
X155728424Y-86203174D01*
X155743870Y-86360000D01*
X155728424Y-86516826D01*
X155682679Y-86667629D01*
X155608392Y-86806608D01*
X155508422Y-86928422D01*
X155386608Y-87028392D01*
X155247629Y-87102679D01*
X155172228Y-87125551D01*
X155096827Y-87148424D01*
X155057649Y-87152283D01*
X154979295Y-87160000D01*
X154900705Y-87160000D01*
X154822351Y-87152283D01*
X154783173Y-87148424D01*
X154707772Y-87125551D01*
X154632371Y-87102679D01*
X154493392Y-87028392D01*
X154371578Y-86928422D01*
X154271608Y-86806608D01*
X154197321Y-86667629D01*
X154151576Y-86516826D01*
X154136130Y-86360000D01*
X154151576Y-86203174D01*
X154197321Y-86052371D01*
X154271608Y-85913392D01*
X154371578Y-85791578D01*
X154493392Y-85691608D01*
X154632371Y-85617321D01*
X154707773Y-85594448D01*
X154783173Y-85571576D01*
X154822351Y-85567717D01*
X154900705Y-85560000D01*
X154979295Y-85560000D01*
X155057649Y-85567717D01*
X155057649Y-85567717D01*
G37*
G36*
X147437649Y-85567717D02*
X147476827Y-85571576D01*
X147552227Y-85594448D01*
X147627629Y-85617321D01*
X147766608Y-85691608D01*
X147888422Y-85791578D01*
X147988392Y-85913392D01*
X148062679Y-86052371D01*
X148108424Y-86203174D01*
X148123870Y-86360000D01*
X148108424Y-86516826D01*
X148062679Y-86667629D01*
X147988392Y-86806608D01*
X147888422Y-86928422D01*
X147766608Y-87028392D01*
X147627629Y-87102679D01*
X147552228Y-87125551D01*
X147476827Y-87148424D01*
X147437649Y-87152283D01*
X147359295Y-87160000D01*
X147280705Y-87160000D01*
X147202351Y-87152283D01*
X147163173Y-87148424D01*
X147087772Y-87125551D01*
X147012371Y-87102679D01*
X146873392Y-87028392D01*
X146751578Y-86928422D01*
X146651608Y-86806608D01*
X146577321Y-86667629D01*
X146531576Y-86516826D01*
X146516130Y-86360000D01*
X146531576Y-86203174D01*
X146577321Y-86052371D01*
X146651608Y-85913392D01*
X146751578Y-85791578D01*
X146873392Y-85691608D01*
X147012371Y-85617321D01*
X147087773Y-85594448D01*
X147163173Y-85571576D01*
X147202351Y-85567717D01*
X147280705Y-85560000D01*
X147359295Y-85560000D01*
X147437649Y-85567717D01*
X147437649Y-85567717D01*
G37*
G36*
X166574183Y-85686900D02*
X166701574Y-85739668D01*
X166816225Y-85816275D01*
X166913725Y-85913775D01*
X166990332Y-86028426D01*
X167043100Y-86155817D01*
X167070000Y-86291055D01*
X167070000Y-86428945D01*
X167043100Y-86564183D01*
X166990332Y-86691574D01*
X166913725Y-86806225D01*
X166816225Y-86903725D01*
X166701574Y-86980332D01*
X166574183Y-87033100D01*
X166438945Y-87060000D01*
X166301055Y-87060000D01*
X166165817Y-87033100D01*
X166038426Y-86980332D01*
X165923775Y-86903725D01*
X165826275Y-86806225D01*
X165749668Y-86691574D01*
X165696900Y-86564183D01*
X165670000Y-86428945D01*
X165670000Y-86291055D01*
X165696900Y-86155817D01*
X165749668Y-86028426D01*
X165826275Y-85913775D01*
X165923775Y-85816275D01*
X166038426Y-85739668D01*
X166165817Y-85686900D01*
X166301055Y-85660000D01*
X166438945Y-85660000D01*
X166574183Y-85686900D01*
X166574183Y-85686900D01*
G37*
G36*
X167220000Y-84670000D02*
X165520000Y-84670000D01*
X165520000Y-82970000D01*
X167220000Y-82970000D01*
X167220000Y-84670000D01*
X167220000Y-84670000D01*
G37*
G36*
X172300000Y-84670000D02*
X170600000Y-84670000D01*
X170600000Y-82970000D01*
X172300000Y-82970000D01*
X172300000Y-84670000D01*
X172300000Y-84670000D01*
G37*
G36*
X115736630Y-82982299D02*
X115896855Y-83030903D01*
X116044520Y-83109831D01*
X116173949Y-83216051D01*
X116280169Y-83345480D01*
X116359097Y-83493145D01*
X116407701Y-83653370D01*
X116424112Y-83820000D01*
X116407701Y-83986630D01*
X116359097Y-84146855D01*
X116280169Y-84294520D01*
X116173949Y-84423949D01*
X116044520Y-84530169D01*
X115896855Y-84609097D01*
X115736630Y-84657701D01*
X115611752Y-84670000D01*
X115528248Y-84670000D01*
X115403370Y-84657701D01*
X115243145Y-84609097D01*
X115095480Y-84530169D01*
X114966051Y-84423949D01*
X114859831Y-84294520D01*
X114780903Y-84146855D01*
X114732299Y-83986630D01*
X114715888Y-83820000D01*
X114732299Y-83653370D01*
X114780903Y-83493145D01*
X114859831Y-83345480D01*
X114966051Y-83216051D01*
X115095480Y-83109831D01*
X115243145Y-83030903D01*
X115403370Y-82982299D01*
X115528248Y-82970000D01*
X115611752Y-82970000D01*
X115736630Y-82982299D01*
X115736630Y-82982299D01*
G37*
G36*
X118276630Y-82982299D02*
X118436855Y-83030903D01*
X118584520Y-83109831D01*
X118713949Y-83216051D01*
X118820169Y-83345480D01*
X118899097Y-83493145D01*
X118947701Y-83653370D01*
X118964112Y-83820000D01*
X118947701Y-83986630D01*
X118899097Y-84146855D01*
X118820169Y-84294520D01*
X118713949Y-84423949D01*
X118584520Y-84530169D01*
X118436855Y-84609097D01*
X118276630Y-84657701D01*
X118151752Y-84670000D01*
X118068248Y-84670000D01*
X117943370Y-84657701D01*
X117783145Y-84609097D01*
X117635480Y-84530169D01*
X117506051Y-84423949D01*
X117399831Y-84294520D01*
X117320903Y-84146855D01*
X117272299Y-83986630D01*
X117255888Y-83820000D01*
X117272299Y-83653370D01*
X117320903Y-83493145D01*
X117399831Y-83345480D01*
X117506051Y-83216051D01*
X117635480Y-83109831D01*
X117783145Y-83030903D01*
X117943370Y-82982299D01*
X118068248Y-82970000D01*
X118151752Y-82970000D01*
X118276630Y-82982299D01*
X118276630Y-82982299D01*
G37*
G36*
X163996630Y-82982299D02*
X164156855Y-83030903D01*
X164304520Y-83109831D01*
X164433949Y-83216051D01*
X164540169Y-83345480D01*
X164619097Y-83493145D01*
X164667701Y-83653370D01*
X164684112Y-83820000D01*
X164667701Y-83986630D01*
X164619097Y-84146855D01*
X164540169Y-84294520D01*
X164433949Y-84423949D01*
X164304520Y-84530169D01*
X164156855Y-84609097D01*
X163996630Y-84657701D01*
X163871752Y-84670000D01*
X163788248Y-84670000D01*
X163663370Y-84657701D01*
X163503145Y-84609097D01*
X163355480Y-84530169D01*
X163226051Y-84423949D01*
X163119831Y-84294520D01*
X163040903Y-84146855D01*
X162992299Y-83986630D01*
X162975888Y-83820000D01*
X162992299Y-83653370D01*
X163040903Y-83493145D01*
X163119831Y-83345480D01*
X163226051Y-83216051D01*
X163355480Y-83109831D01*
X163503145Y-83030903D01*
X163663370Y-82982299D01*
X163788248Y-82970000D01*
X163871752Y-82970000D01*
X163996630Y-82982299D01*
X163996630Y-82982299D01*
G37*
G36*
X121500000Y-84670000D02*
X119800000Y-84670000D01*
X119800000Y-82970000D01*
X121500000Y-82970000D01*
X121500000Y-84670000D01*
X121500000Y-84670000D01*
G37*
G36*
X161456630Y-82982299D02*
X161616855Y-83030903D01*
X161764520Y-83109831D01*
X161893949Y-83216051D01*
X162000169Y-83345480D01*
X162079097Y-83493145D01*
X162127701Y-83653370D01*
X162144112Y-83820000D01*
X162127701Y-83986630D01*
X162079097Y-84146855D01*
X162000169Y-84294520D01*
X161893949Y-84423949D01*
X161764520Y-84530169D01*
X161616855Y-84609097D01*
X161456630Y-84657701D01*
X161331752Y-84670000D01*
X161248248Y-84670000D01*
X161123370Y-84657701D01*
X160963145Y-84609097D01*
X160815480Y-84530169D01*
X160686051Y-84423949D01*
X160579831Y-84294520D01*
X160500903Y-84146855D01*
X160452299Y-83986630D01*
X160435888Y-83820000D01*
X160452299Y-83653370D01*
X160500903Y-83493145D01*
X160579831Y-83345480D01*
X160686051Y-83216051D01*
X160815480Y-83109831D01*
X160963145Y-83030903D01*
X161123370Y-82982299D01*
X161248248Y-82970000D01*
X161331752Y-82970000D01*
X161456630Y-82982299D01*
X161456630Y-82982299D01*
G37*
G36*
X126580000Y-84670000D02*
X124880000Y-84670000D01*
X124880000Y-82970000D01*
X126580000Y-82970000D01*
X126580000Y-84670000D01*
X126580000Y-84670000D01*
G37*
G36*
X128436630Y-82982299D02*
X128596855Y-83030903D01*
X128744520Y-83109831D01*
X128873949Y-83216051D01*
X128980169Y-83345480D01*
X129059097Y-83493145D01*
X129107701Y-83653370D01*
X129124112Y-83820000D01*
X129107701Y-83986630D01*
X129059097Y-84146855D01*
X128980169Y-84294520D01*
X128873949Y-84423949D01*
X128744520Y-84530169D01*
X128596855Y-84609097D01*
X128436630Y-84657701D01*
X128311752Y-84670000D01*
X128228248Y-84670000D01*
X128103370Y-84657701D01*
X127943145Y-84609097D01*
X127795480Y-84530169D01*
X127666051Y-84423949D01*
X127559831Y-84294520D01*
X127480903Y-84146855D01*
X127432299Y-83986630D01*
X127415888Y-83820000D01*
X127432299Y-83653370D01*
X127480903Y-83493145D01*
X127559831Y-83345480D01*
X127666051Y-83216051D01*
X127795480Y-83109831D01*
X127943145Y-83030903D01*
X128103370Y-82982299D01*
X128228248Y-82970000D01*
X128311752Y-82970000D01*
X128436630Y-82982299D01*
X128436630Y-82982299D01*
G37*
G36*
X130976630Y-82982299D02*
X131136855Y-83030903D01*
X131284520Y-83109831D01*
X131413949Y-83216051D01*
X131520169Y-83345480D01*
X131599097Y-83493145D01*
X131647701Y-83653370D01*
X131664112Y-83820000D01*
X131647701Y-83986630D01*
X131599097Y-84146855D01*
X131520169Y-84294520D01*
X131413949Y-84423949D01*
X131284520Y-84530169D01*
X131136855Y-84609097D01*
X130976630Y-84657701D01*
X130851752Y-84670000D01*
X130768248Y-84670000D01*
X130643370Y-84657701D01*
X130483145Y-84609097D01*
X130335480Y-84530169D01*
X130206051Y-84423949D01*
X130099831Y-84294520D01*
X130020903Y-84146855D01*
X129972299Y-83986630D01*
X129955888Y-83820000D01*
X129972299Y-83653370D01*
X130020903Y-83493145D01*
X130099831Y-83345480D01*
X130206051Y-83216051D01*
X130335480Y-83109831D01*
X130483145Y-83030903D01*
X130643370Y-82982299D01*
X130768248Y-82970000D01*
X130851752Y-82970000D01*
X130976630Y-82982299D01*
X130976630Y-82982299D01*
G37*
G36*
X174156630Y-82982299D02*
X174316855Y-83030903D01*
X174464520Y-83109831D01*
X174593949Y-83216051D01*
X174700169Y-83345480D01*
X174779097Y-83493145D01*
X174827701Y-83653370D01*
X174844112Y-83820000D01*
X174827701Y-83986630D01*
X174779097Y-84146855D01*
X174700169Y-84294520D01*
X174593949Y-84423949D01*
X174464520Y-84530169D01*
X174316855Y-84609097D01*
X174156630Y-84657701D01*
X174031752Y-84670000D01*
X173948248Y-84670000D01*
X173823370Y-84657701D01*
X173663145Y-84609097D01*
X173515480Y-84530169D01*
X173386051Y-84423949D01*
X173279831Y-84294520D01*
X173200903Y-84146855D01*
X173152299Y-83986630D01*
X173135888Y-83820000D01*
X173152299Y-83653370D01*
X173200903Y-83493145D01*
X173279831Y-83345480D01*
X173386051Y-83216051D01*
X173515480Y-83109831D01*
X173663145Y-83030903D01*
X173823370Y-82982299D01*
X173948248Y-82970000D01*
X174031752Y-82970000D01*
X174156630Y-82982299D01*
X174156630Y-82982299D01*
G37*
G36*
X176696630Y-82982299D02*
X176856855Y-83030903D01*
X177004520Y-83109831D01*
X177133949Y-83216051D01*
X177240169Y-83345480D01*
X177319097Y-83493145D01*
X177367701Y-83653370D01*
X177384112Y-83820000D01*
X177367701Y-83986630D01*
X177319097Y-84146855D01*
X177240169Y-84294520D01*
X177133949Y-84423949D01*
X177004520Y-84530169D01*
X176856855Y-84609097D01*
X176696630Y-84657701D01*
X176571752Y-84670000D01*
X176488248Y-84670000D01*
X176363370Y-84657701D01*
X176203145Y-84609097D01*
X176055480Y-84530169D01*
X175926051Y-84423949D01*
X175819831Y-84294520D01*
X175740903Y-84146855D01*
X175692299Y-83986630D01*
X175675888Y-83820000D01*
X175692299Y-83653370D01*
X175740903Y-83493145D01*
X175819831Y-83345480D01*
X175926051Y-83216051D01*
X176055480Y-83109831D01*
X176203145Y-83030903D01*
X176363370Y-82982299D01*
X176488248Y-82970000D01*
X176571752Y-82970000D01*
X176696630Y-82982299D01*
X176696630Y-82982299D01*
G37*
G36*
X148120000Y-84620000D02*
X146520000Y-84620000D01*
X146520000Y-83020000D01*
X148120000Y-83020000D01*
X148120000Y-84620000D01*
X148120000Y-84620000D01*
G37*
G36*
X155057649Y-83027717D02*
X155096827Y-83031576D01*
X155172228Y-83054449D01*
X155247629Y-83077321D01*
X155386608Y-83151608D01*
X155508422Y-83251578D01*
X155608392Y-83373392D01*
X155682679Y-83512371D01*
X155682679Y-83512372D01*
X155728424Y-83663173D01*
X155743870Y-83820000D01*
X155728424Y-83976827D01*
X155725450Y-83986630D01*
X155682679Y-84127629D01*
X155608392Y-84266608D01*
X155508422Y-84388422D01*
X155386608Y-84488392D01*
X155247629Y-84562679D01*
X155172227Y-84585552D01*
X155096827Y-84608424D01*
X155057649Y-84612283D01*
X154979295Y-84620000D01*
X154900705Y-84620000D01*
X154822351Y-84612283D01*
X154783173Y-84608424D01*
X154707773Y-84585552D01*
X154632371Y-84562679D01*
X154493392Y-84488392D01*
X154371578Y-84388422D01*
X154271608Y-84266608D01*
X154197321Y-84127629D01*
X154154550Y-83986630D01*
X154151576Y-83976827D01*
X154136130Y-83820000D01*
X154151576Y-83663173D01*
X154197321Y-83512372D01*
X154197321Y-83512371D01*
X154271608Y-83373392D01*
X154371578Y-83251578D01*
X154493392Y-83151608D01*
X154632371Y-83077321D01*
X154707772Y-83054449D01*
X154783173Y-83031576D01*
X154822351Y-83027717D01*
X154900705Y-83020000D01*
X154979295Y-83020000D01*
X155057649Y-83027717D01*
X155057649Y-83027717D01*
G37*
G36*
X171616630Y-80442299D02*
X171776855Y-80490903D01*
X171924520Y-80569831D01*
X172053949Y-80676051D01*
X172160169Y-80805480D01*
X172239097Y-80953145D01*
X172287701Y-81113370D01*
X172304112Y-81280000D01*
X172287701Y-81446630D01*
X172239097Y-81606855D01*
X172160169Y-81754520D01*
X172053949Y-81883949D01*
X171924520Y-81990169D01*
X171776855Y-82069097D01*
X171616630Y-82117701D01*
X171491752Y-82130000D01*
X171408248Y-82130000D01*
X171283370Y-82117701D01*
X171123145Y-82069097D01*
X170975480Y-81990169D01*
X170846051Y-81883949D01*
X170739831Y-81754520D01*
X170660903Y-81606855D01*
X170612299Y-81446630D01*
X170595888Y-81280000D01*
X170612299Y-81113370D01*
X170660903Y-80953145D01*
X170739831Y-80805480D01*
X170846051Y-80676051D01*
X170975480Y-80569831D01*
X171123145Y-80490903D01*
X171283370Y-80442299D01*
X171408248Y-80430000D01*
X171491752Y-80430000D01*
X171616630Y-80442299D01*
X171616630Y-80442299D01*
G37*
G36*
X176696630Y-80442299D02*
X176856855Y-80490903D01*
X177004520Y-80569831D01*
X177133949Y-80676051D01*
X177240169Y-80805480D01*
X177319097Y-80953145D01*
X177367701Y-81113370D01*
X177384112Y-81280000D01*
X177367701Y-81446630D01*
X177319097Y-81606855D01*
X177240169Y-81754520D01*
X177133949Y-81883949D01*
X177004520Y-81990169D01*
X176856855Y-82069097D01*
X176696630Y-82117701D01*
X176571752Y-82130000D01*
X176488248Y-82130000D01*
X176363370Y-82117701D01*
X176203145Y-82069097D01*
X176055480Y-81990169D01*
X175926051Y-81883949D01*
X175819831Y-81754520D01*
X175740903Y-81606855D01*
X175692299Y-81446630D01*
X175675888Y-81280000D01*
X175692299Y-81113370D01*
X175740903Y-80953145D01*
X175819831Y-80805480D01*
X175926051Y-80676051D01*
X176055480Y-80569831D01*
X176203145Y-80490903D01*
X176363370Y-80442299D01*
X176488248Y-80430000D01*
X176571752Y-80430000D01*
X176696630Y-80442299D01*
X176696630Y-80442299D01*
G37*
G36*
X174156630Y-80442299D02*
X174316855Y-80490903D01*
X174464520Y-80569831D01*
X174593949Y-80676051D01*
X174700169Y-80805480D01*
X174779097Y-80953145D01*
X174827701Y-81113370D01*
X174844112Y-81280000D01*
X174827701Y-81446630D01*
X174779097Y-81606855D01*
X174700169Y-81754520D01*
X174593949Y-81883949D01*
X174464520Y-81990169D01*
X174316855Y-82069097D01*
X174156630Y-82117701D01*
X174031752Y-82130000D01*
X173948248Y-82130000D01*
X173823370Y-82117701D01*
X173663145Y-82069097D01*
X173515480Y-81990169D01*
X173386051Y-81883949D01*
X173279831Y-81754520D01*
X173200903Y-81606855D01*
X173152299Y-81446630D01*
X173135888Y-81280000D01*
X173152299Y-81113370D01*
X173200903Y-80953145D01*
X173279831Y-80805480D01*
X173386051Y-80676051D01*
X173515480Y-80569831D01*
X173663145Y-80490903D01*
X173823370Y-80442299D01*
X173948248Y-80430000D01*
X174031752Y-80430000D01*
X174156630Y-80442299D01*
X174156630Y-80442299D01*
G37*
G36*
X166536630Y-80442299D02*
X166696855Y-80490903D01*
X166844520Y-80569831D01*
X166973949Y-80676051D01*
X167080169Y-80805480D01*
X167159097Y-80953145D01*
X167207701Y-81113370D01*
X167224112Y-81280000D01*
X167207701Y-81446630D01*
X167159097Y-81606855D01*
X167080169Y-81754520D01*
X166973949Y-81883949D01*
X166844520Y-81990169D01*
X166696855Y-82069097D01*
X166536630Y-82117701D01*
X166411752Y-82130000D01*
X166328248Y-82130000D01*
X166203370Y-82117701D01*
X166043145Y-82069097D01*
X165895480Y-81990169D01*
X165766051Y-81883949D01*
X165659831Y-81754520D01*
X165580903Y-81606855D01*
X165532299Y-81446630D01*
X165515888Y-81280000D01*
X165532299Y-81113370D01*
X165580903Y-80953145D01*
X165659831Y-80805480D01*
X165766051Y-80676051D01*
X165895480Y-80569831D01*
X166043145Y-80490903D01*
X166203370Y-80442299D01*
X166328248Y-80430000D01*
X166411752Y-80430000D01*
X166536630Y-80442299D01*
X166536630Y-80442299D01*
G37*
G36*
X161456630Y-80442299D02*
X161616855Y-80490903D01*
X161764520Y-80569831D01*
X161893949Y-80676051D01*
X162000169Y-80805480D01*
X162079097Y-80953145D01*
X162127701Y-81113370D01*
X162144112Y-81280000D01*
X162127701Y-81446630D01*
X162079097Y-81606855D01*
X162000169Y-81754520D01*
X161893949Y-81883949D01*
X161764520Y-81990169D01*
X161616855Y-82069097D01*
X161456630Y-82117701D01*
X161331752Y-82130000D01*
X161248248Y-82130000D01*
X161123370Y-82117701D01*
X160963145Y-82069097D01*
X160815480Y-81990169D01*
X160686051Y-81883949D01*
X160579831Y-81754520D01*
X160500903Y-81606855D01*
X160452299Y-81446630D01*
X160435888Y-81280000D01*
X160452299Y-81113370D01*
X160500903Y-80953145D01*
X160579831Y-80805480D01*
X160686051Y-80676051D01*
X160815480Y-80569831D01*
X160963145Y-80490903D01*
X161123370Y-80442299D01*
X161248248Y-80430000D01*
X161331752Y-80430000D01*
X161456630Y-80442299D01*
X161456630Y-80442299D01*
G37*
G36*
X125896630Y-80442299D02*
X126056855Y-80490903D01*
X126204520Y-80569831D01*
X126333949Y-80676051D01*
X126440169Y-80805480D01*
X126519097Y-80953145D01*
X126567701Y-81113370D01*
X126584112Y-81280000D01*
X126567701Y-81446630D01*
X126519097Y-81606855D01*
X126440169Y-81754520D01*
X126333949Y-81883949D01*
X126204520Y-81990169D01*
X126056855Y-82069097D01*
X125896630Y-82117701D01*
X125771752Y-82130000D01*
X125688248Y-82130000D01*
X125563370Y-82117701D01*
X125403145Y-82069097D01*
X125255480Y-81990169D01*
X125126051Y-81883949D01*
X125019831Y-81754520D01*
X124940903Y-81606855D01*
X124892299Y-81446630D01*
X124875888Y-81280000D01*
X124892299Y-81113370D01*
X124940903Y-80953145D01*
X125019831Y-80805480D01*
X125126051Y-80676051D01*
X125255480Y-80569831D01*
X125403145Y-80490903D01*
X125563370Y-80442299D01*
X125688248Y-80430000D01*
X125771752Y-80430000D01*
X125896630Y-80442299D01*
X125896630Y-80442299D01*
G37*
G36*
X128436630Y-80442299D02*
X128596855Y-80490903D01*
X128744520Y-80569831D01*
X128873949Y-80676051D01*
X128980169Y-80805480D01*
X129059097Y-80953145D01*
X129107701Y-81113370D01*
X129124112Y-81280000D01*
X129107701Y-81446630D01*
X129059097Y-81606855D01*
X128980169Y-81754520D01*
X128873949Y-81883949D01*
X128744520Y-81990169D01*
X128596855Y-82069097D01*
X128436630Y-82117701D01*
X128311752Y-82130000D01*
X128228248Y-82130000D01*
X128103370Y-82117701D01*
X127943145Y-82069097D01*
X127795480Y-81990169D01*
X127666051Y-81883949D01*
X127559831Y-81754520D01*
X127480903Y-81606855D01*
X127432299Y-81446630D01*
X127415888Y-81280000D01*
X127432299Y-81113370D01*
X127480903Y-80953145D01*
X127559831Y-80805480D01*
X127666051Y-80676051D01*
X127795480Y-80569831D01*
X127943145Y-80490903D01*
X128103370Y-80442299D01*
X128228248Y-80430000D01*
X128311752Y-80430000D01*
X128436630Y-80442299D01*
X128436630Y-80442299D01*
G37*
G36*
X130976630Y-80442299D02*
X131136855Y-80490903D01*
X131284520Y-80569831D01*
X131413949Y-80676051D01*
X131520169Y-80805480D01*
X131599097Y-80953145D01*
X131647701Y-81113370D01*
X131664112Y-81280000D01*
X131647701Y-81446630D01*
X131599097Y-81606855D01*
X131520169Y-81754520D01*
X131413949Y-81883949D01*
X131284520Y-81990169D01*
X131136855Y-82069097D01*
X130976630Y-82117701D01*
X130851752Y-82130000D01*
X130768248Y-82130000D01*
X130643370Y-82117701D01*
X130483145Y-82069097D01*
X130335480Y-81990169D01*
X130206051Y-81883949D01*
X130099831Y-81754520D01*
X130020903Y-81606855D01*
X129972299Y-81446630D01*
X129955888Y-81280000D01*
X129972299Y-81113370D01*
X130020903Y-80953145D01*
X130099831Y-80805480D01*
X130206051Y-80676051D01*
X130335480Y-80569831D01*
X130483145Y-80490903D01*
X130643370Y-80442299D01*
X130768248Y-80430000D01*
X130851752Y-80430000D01*
X130976630Y-80442299D01*
X130976630Y-80442299D01*
G37*
G36*
X115736630Y-80442299D02*
X115896855Y-80490903D01*
X116044520Y-80569831D01*
X116173949Y-80676051D01*
X116280169Y-80805480D01*
X116359097Y-80953145D01*
X116407701Y-81113370D01*
X116424112Y-81280000D01*
X116407701Y-81446630D01*
X116359097Y-81606855D01*
X116280169Y-81754520D01*
X116173949Y-81883949D01*
X116044520Y-81990169D01*
X115896855Y-82069097D01*
X115736630Y-82117701D01*
X115611752Y-82130000D01*
X115528248Y-82130000D01*
X115403370Y-82117701D01*
X115243145Y-82069097D01*
X115095480Y-81990169D01*
X114966051Y-81883949D01*
X114859831Y-81754520D01*
X114780903Y-81606855D01*
X114732299Y-81446630D01*
X114715888Y-81280000D01*
X114732299Y-81113370D01*
X114780903Y-80953145D01*
X114859831Y-80805480D01*
X114966051Y-80676051D01*
X115095480Y-80569831D01*
X115243145Y-80490903D01*
X115403370Y-80442299D01*
X115528248Y-80430000D01*
X115611752Y-80430000D01*
X115736630Y-80442299D01*
X115736630Y-80442299D01*
G37*
G36*
X118276630Y-80442299D02*
X118436855Y-80490903D01*
X118584520Y-80569831D01*
X118713949Y-80676051D01*
X118820169Y-80805480D01*
X118899097Y-80953145D01*
X118947701Y-81113370D01*
X118964112Y-81280000D01*
X118947701Y-81446630D01*
X118899097Y-81606855D01*
X118820169Y-81754520D01*
X118713949Y-81883949D01*
X118584520Y-81990169D01*
X118436855Y-82069097D01*
X118276630Y-82117701D01*
X118151752Y-82130000D01*
X118068248Y-82130000D01*
X117943370Y-82117701D01*
X117783145Y-82069097D01*
X117635480Y-81990169D01*
X117506051Y-81883949D01*
X117399831Y-81754520D01*
X117320903Y-81606855D01*
X117272299Y-81446630D01*
X117255888Y-81280000D01*
X117272299Y-81113370D01*
X117320903Y-80953145D01*
X117399831Y-80805480D01*
X117506051Y-80676051D01*
X117635480Y-80569831D01*
X117783145Y-80490903D01*
X117943370Y-80442299D01*
X118068248Y-80430000D01*
X118151752Y-80430000D01*
X118276630Y-80442299D01*
X118276630Y-80442299D01*
G37*
G36*
X120816630Y-80442299D02*
X120976855Y-80490903D01*
X121124520Y-80569831D01*
X121253949Y-80676051D01*
X121360169Y-80805480D01*
X121439097Y-80953145D01*
X121487701Y-81113370D01*
X121504112Y-81280000D01*
X121487701Y-81446630D01*
X121439097Y-81606855D01*
X121360169Y-81754520D01*
X121253949Y-81883949D01*
X121124520Y-81990169D01*
X120976855Y-82069097D01*
X120816630Y-82117701D01*
X120691752Y-82130000D01*
X120608248Y-82130000D01*
X120483370Y-82117701D01*
X120323145Y-82069097D01*
X120175480Y-81990169D01*
X120046051Y-81883949D01*
X119939831Y-81754520D01*
X119860903Y-81606855D01*
X119812299Y-81446630D01*
X119795888Y-81280000D01*
X119812299Y-81113370D01*
X119860903Y-80953145D01*
X119939831Y-80805480D01*
X120046051Y-80676051D01*
X120175480Y-80569831D01*
X120323145Y-80490903D01*
X120483370Y-80442299D01*
X120608248Y-80430000D01*
X120691752Y-80430000D01*
X120816630Y-80442299D01*
X120816630Y-80442299D01*
G37*
G36*
X163996630Y-80442299D02*
X164156855Y-80490903D01*
X164304520Y-80569831D01*
X164433949Y-80676051D01*
X164540169Y-80805480D01*
X164619097Y-80953145D01*
X164667701Y-81113370D01*
X164684112Y-81280000D01*
X164667701Y-81446630D01*
X164619097Y-81606855D01*
X164540169Y-81754520D01*
X164433949Y-81883949D01*
X164304520Y-81990169D01*
X164156855Y-82069097D01*
X163996630Y-82117701D01*
X163871752Y-82130000D01*
X163788248Y-82130000D01*
X163663370Y-82117701D01*
X163503145Y-82069097D01*
X163355480Y-81990169D01*
X163226051Y-81883949D01*
X163119831Y-81754520D01*
X163040903Y-81606855D01*
X162992299Y-81446630D01*
X162975888Y-81280000D01*
X162992299Y-81113370D01*
X163040903Y-80953145D01*
X163119831Y-80805480D01*
X163226051Y-80676051D01*
X163355480Y-80569831D01*
X163503145Y-80490903D01*
X163663370Y-80442299D01*
X163788248Y-80430000D01*
X163871752Y-80430000D01*
X163996630Y-80442299D01*
X163996630Y-80442299D01*
G37*
G36*
X105774612Y-77538037D02*
X106002096Y-77632264D01*
X106206831Y-77769064D01*
X106380936Y-77943169D01*
X106517736Y-78147904D01*
X106611963Y-78375388D01*
X106660000Y-78616885D01*
X106660000Y-78863115D01*
X106611963Y-79104612D01*
X106517736Y-79332096D01*
X106380936Y-79536831D01*
X106206831Y-79710936D01*
X106002096Y-79847736D01*
X105774612Y-79941963D01*
X105533115Y-79990000D01*
X105286885Y-79990000D01*
X105045388Y-79941963D01*
X104817904Y-79847736D01*
X104613169Y-79710936D01*
X104439064Y-79536831D01*
X104302264Y-79332096D01*
X104208037Y-79104612D01*
X104160000Y-78863115D01*
X104160000Y-78616885D01*
X104208037Y-78375388D01*
X104302264Y-78147904D01*
X104439064Y-77943169D01*
X104613169Y-77769064D01*
X104817904Y-77632264D01*
X105045388Y-77538037D01*
X105286885Y-77490000D01*
X105533115Y-77490000D01*
X105774612Y-77538037D01*
X105774612Y-77538037D01*
G37*
G36*
X187054612Y-77538037D02*
X187282096Y-77632264D01*
X187486831Y-77769064D01*
X187660936Y-77943169D01*
X187797736Y-78147904D01*
X187891963Y-78375388D01*
X187940000Y-78616885D01*
X187940000Y-78863115D01*
X187891963Y-79104612D01*
X187797736Y-79332096D01*
X187660936Y-79536831D01*
X187486831Y-79710936D01*
X187282096Y-79847736D01*
X187054612Y-79941963D01*
X186813115Y-79990000D01*
X186566885Y-79990000D01*
X186325388Y-79941963D01*
X186097904Y-79847736D01*
X185893169Y-79710936D01*
X185719064Y-79536831D01*
X185582264Y-79332096D01*
X185488037Y-79104612D01*
X185440000Y-78863115D01*
X185440000Y-78616885D01*
X185488037Y-78375388D01*
X185582264Y-78147904D01*
X185719064Y-77943169D01*
X185893169Y-77769064D01*
X186097904Y-77632264D01*
X186325388Y-77538037D01*
X186566885Y-77490000D01*
X186813115Y-77490000D01*
X187054612Y-77538037D01*
X187054612Y-77538037D01*
G37*
M02*
