%TF.GenerationSoftware,KiCad,Pcbnew,(5.0.2)-1*%
%TF.CreationDate,2019-05-02T00:01:05-05:00*%
%TF.ProjectId,vcaMain,7663614d-6169-46e2-9e6b-696361645f70,rev?*%
%TF.SameCoordinates,Original*%
%TF.FileFunction,Copper,L1,Top*%
%TF.FilePolarity,Positive*%
%FSLAX46Y46*%
G04 Gerber Fmt 4.6, Leading zero omitted, Abs format (unit mm)*
G04 Created by KiCad (PCBNEW (5.0.2)-1) date 5/2/2019 12:01:05 AM*
%MOMM*%
%LPD*%
G01*
G04 APERTURE LIST*
%ADD10R,1.700000X1.700000*%
%ADD11O,1.700000X1.700000*%
%ADD12O,1.400000X1.400000*%
%ADD13C,1.400000*%
%ADD14C,1.600000*%
%ADD15R,1.600000X1.600000*%
%ADD16O,1.600000X1.600000*%
%ADD17C,0.250000*%
%ADD18C,0.254000*%
G04 APERTURE END LIST*
D10*
X166370000Y-83820000D03*
D11*
X166370000Y-81280000D03*
X163830000Y-83820000D03*
X163830000Y-81280000D03*
X161290000Y-83820000D03*
X161290000Y-81280000D03*
D10*
X181610000Y-93980000D03*
D11*
X184150000Y-93980000D03*
X181610000Y-91440000D03*
X184150000Y-91440000D03*
X181610000Y-88900000D03*
X184150000Y-88900000D03*
D10*
X171450000Y-109220000D03*
D11*
X171450000Y-111760000D03*
X173990000Y-109220000D03*
X173990000Y-111760000D03*
X176530000Y-109220000D03*
X176530000Y-111760000D03*
D10*
X125730000Y-109220000D03*
D11*
X125730000Y-111760000D03*
X128270000Y-109220000D03*
X128270000Y-111760000D03*
X130810000Y-109220000D03*
X130810000Y-111760000D03*
D10*
X110490000Y-99060000D03*
D11*
X107950000Y-99060000D03*
X110490000Y-101600000D03*
X107950000Y-101600000D03*
X110490000Y-104140000D03*
X107950000Y-104140000D03*
D10*
X120650000Y-83820000D03*
D11*
X120650000Y-81280000D03*
X118110000Y-83820000D03*
X118110000Y-81280000D03*
X115570000Y-83820000D03*
X115570000Y-81280000D03*
X130810000Y-81280000D03*
X130810000Y-83820000D03*
X128270000Y-81280000D03*
X128270000Y-83820000D03*
X125730000Y-81280000D03*
D10*
X125730000Y-83820000D03*
D11*
X176530000Y-81280000D03*
X176530000Y-83820000D03*
X173990000Y-81280000D03*
X173990000Y-83820000D03*
X171450000Y-81280000D03*
D10*
X171450000Y-83820000D03*
D11*
X184150000Y-104140000D03*
X181610000Y-104140000D03*
X184150000Y-101600000D03*
X181610000Y-101600000D03*
X184150000Y-99060000D03*
D10*
X181610000Y-99060000D03*
D11*
X161290000Y-111760000D03*
X161290000Y-109220000D03*
X163830000Y-111760000D03*
X163830000Y-109220000D03*
X166370000Y-111760000D03*
D10*
X166370000Y-109220000D03*
D11*
X115570000Y-111760000D03*
X115570000Y-109220000D03*
X118110000Y-111760000D03*
X118110000Y-109220000D03*
X120650000Y-111760000D03*
D10*
X120650000Y-109220000D03*
D11*
X107950000Y-88900000D03*
X110490000Y-88900000D03*
X107950000Y-91440000D03*
X110490000Y-91440000D03*
X107950000Y-93980000D03*
D10*
X110490000Y-93980000D03*
D12*
X130810000Y-96520000D03*
D13*
X130810000Y-104140000D03*
D14*
X161290000Y-104140000D03*
X161290000Y-99140000D03*
D15*
X148590000Y-97790000D03*
D16*
X156210000Y-97790000D03*
D15*
X156210000Y-95250000D03*
D16*
X148590000Y-95250000D03*
D10*
X151130000Y-113030000D03*
X148590000Y-113030000D03*
X135890000Y-86360000D03*
X158750000Y-86360000D03*
X161290000Y-86360000D03*
X133350000Y-86360000D03*
D13*
X148590000Y-102870000D03*
D12*
X156210000Y-102870000D03*
D13*
X148590000Y-105410000D03*
D12*
X156210000Y-105410000D03*
X156210000Y-100330000D03*
D13*
X148590000Y-100330000D03*
X128270000Y-99060000D03*
D12*
X128270000Y-91440000D03*
X166370000Y-93980000D03*
D13*
X166370000Y-86360000D03*
X163830000Y-104140000D03*
D12*
X163830000Y-96520000D03*
X166370000Y-96520000D03*
D13*
X166370000Y-104140000D03*
D15*
X147320000Y-83820000D03*
D16*
X154940000Y-91440000D03*
X147320000Y-86360000D03*
X154940000Y-88900000D03*
X147320000Y-88900000D03*
X154940000Y-86360000D03*
X147320000Y-91440000D03*
X154940000Y-83820000D03*
D10*
X146050000Y-113030000D03*
D15*
X133350000Y-91440000D03*
D16*
X140970000Y-99060000D03*
X133350000Y-93980000D03*
X140970000Y-96520000D03*
X133350000Y-96520000D03*
X140970000Y-93980000D03*
X133350000Y-99060000D03*
X140970000Y-91440000D03*
D17*
X161290000Y-104140000D02*
X163830000Y-104140000D01*
X163830000Y-99060000D02*
X166370000Y-96520000D01*
X163830000Y-104140000D02*
X163830000Y-99060000D01*
X156210000Y-109220000D02*
X161290000Y-104140000D01*
X148590000Y-109220000D02*
X156210000Y-109220000D01*
X139700000Y-93980000D02*
X140970000Y-93980000D01*
X138430000Y-95250000D02*
X139700000Y-93980000D01*
X148590000Y-109220000D02*
X138430000Y-99060000D01*
X138430000Y-99060000D02*
X138430000Y-95250000D01*
X163830000Y-96600000D02*
X163830000Y-96520000D01*
X161290000Y-99140000D02*
X163830000Y-96600000D01*
X163830000Y-96520000D02*
X163830000Y-95250000D01*
X163830000Y-95250000D02*
X157480000Y-88900000D01*
X157480000Y-88900000D02*
X156210000Y-88900000D01*
X158750000Y-105410000D02*
X156210000Y-107950000D01*
X161290000Y-99140000D02*
X158750000Y-101680000D01*
X158750000Y-101680000D02*
X158750000Y-105410000D01*
X156210000Y-88900000D02*
X154940000Y-88900000D01*
X156210000Y-107950000D02*
X148590000Y-107950000D01*
X148590000Y-107950000D02*
X140970000Y-100330000D01*
X140970000Y-100330000D02*
X140970000Y-99060000D01*
X148590000Y-95250000D02*
X148590000Y-97790000D01*
X148590000Y-97790000D02*
X148590000Y-100330000D01*
X148590000Y-100330000D02*
X148590000Y-102870000D01*
X148590000Y-102870000D02*
X148590000Y-105410000D01*
X148590000Y-95250000D02*
X142240000Y-88900000D01*
X140970000Y-88900000D02*
X133350000Y-96520000D01*
X142240000Y-88900000D02*
X140970000Y-88900000D01*
X148590000Y-91440000D02*
X154940000Y-97790000D01*
X154940000Y-97790000D02*
X156210000Y-97790000D01*
X142240000Y-87630000D02*
X146050000Y-91440000D01*
X146050000Y-91440000D02*
X148590000Y-91440000D01*
X135890000Y-91440000D02*
X133350000Y-91440000D01*
X139700000Y-87630000D02*
X135890000Y-91440000D01*
X139700000Y-87630000D02*
X142240000Y-87630000D01*
X156210000Y-92710000D02*
X154940000Y-91440000D01*
X156210000Y-92710000D02*
X156210000Y-95250000D01*
X158750000Y-87460000D02*
X160190000Y-88900000D01*
X158750000Y-86360000D02*
X158750000Y-87460000D01*
X163830000Y-88900000D02*
X166370000Y-86360000D01*
X160190000Y-88900000D02*
X163830000Y-88900000D01*
X128270000Y-91440000D02*
X133350000Y-86360000D01*
X128270000Y-99060000D02*
X130810000Y-101600000D01*
X130810000Y-101600000D02*
X130810000Y-104140000D01*
X128270000Y-99060000D02*
X128270000Y-93980000D01*
X135890000Y-88900000D02*
X133350000Y-88900000D01*
X138430000Y-86360000D02*
X135890000Y-88900000D01*
X128270000Y-93980000D02*
X133350000Y-88900000D01*
X138430000Y-86360000D02*
X147320000Y-86360000D01*
X166370000Y-81280000D02*
X167640000Y-80010000D01*
X167640000Y-80010000D02*
X170180000Y-80010000D01*
X170180000Y-80010000D02*
X171450000Y-81280000D01*
X184150000Y-93980000D02*
X185420000Y-95250000D01*
X185420000Y-95250000D02*
X185420000Y-97790000D01*
X185420000Y-97790000D02*
X184150000Y-99060000D01*
X166370000Y-111760000D02*
X167640000Y-113030000D01*
X167640000Y-113030000D02*
X170180000Y-113030000D01*
X170180000Y-113030000D02*
X171450000Y-111760000D01*
X120650000Y-111760000D02*
X121920000Y-113030000D01*
X121920000Y-113030000D02*
X124460000Y-113030000D01*
X124460000Y-113030000D02*
X125730000Y-111760000D01*
X107950000Y-99060000D02*
X106680000Y-97790000D01*
X106680000Y-97790000D02*
X106680000Y-95250000D01*
X106680000Y-95250000D02*
X107950000Y-93980000D01*
X120650000Y-81280000D02*
X121920000Y-80010000D01*
X121920000Y-80010000D02*
X124460000Y-80010000D01*
X124460000Y-80010000D02*
X125730000Y-81280000D01*
X110490000Y-93980000D02*
X107950000Y-93980000D01*
X110490000Y-99060000D02*
X107950000Y-99060000D01*
X120650000Y-111760000D02*
X120650000Y-109220000D01*
X125730000Y-111760000D02*
X125730000Y-109220000D01*
X166370000Y-111760000D02*
X166370000Y-109220000D01*
X171450000Y-111760000D02*
X171450000Y-109220000D01*
X181610000Y-99060000D02*
X184150000Y-99060000D01*
X184150000Y-93980000D02*
X181610000Y-93980000D01*
X171450000Y-81280000D02*
X171450000Y-83820000D01*
X166370000Y-83820000D02*
X166370000Y-81280000D01*
X125730000Y-81280000D02*
X125730000Y-83820000D01*
X120650000Y-83820000D02*
X120650000Y-81280000D01*
X163830000Y-93980000D02*
X166370000Y-93980000D01*
X156210000Y-86360000D02*
X163830000Y-93980000D01*
X156210000Y-86360000D02*
X154940000Y-86360000D01*
X175680001Y-80430001D02*
X176530000Y-81280000D01*
X174359981Y-79109981D02*
X175680001Y-80430001D01*
X163460019Y-79109981D02*
X174359981Y-79109981D01*
X161290000Y-81280000D02*
X163460019Y-79109981D01*
X184999999Y-103290001D02*
X184150000Y-104140000D01*
X186320019Y-101969981D02*
X184999999Y-103290001D01*
X186320019Y-91070019D02*
X186320019Y-101969981D01*
X184150000Y-88900000D02*
X186320019Y-91070019D01*
X175680001Y-112609999D02*
X176530000Y-111760000D01*
X174359982Y-113930018D02*
X175680001Y-112609999D01*
X163460018Y-113930018D02*
X174359982Y-113930018D01*
X161290000Y-111760000D02*
X163460018Y-113930018D01*
X117740020Y-113930020D02*
X115570000Y-111760000D01*
X130810000Y-111760000D02*
X128639980Y-113930020D01*
X128639980Y-113930020D02*
X117740020Y-113930020D01*
X105779980Y-91070020D02*
X105779980Y-101168982D01*
X107950000Y-88900000D02*
X105779980Y-91070020D01*
X105779980Y-101969980D02*
X105779980Y-101168982D01*
X107950000Y-104140000D02*
X105779980Y-101969980D01*
X107100001Y-103290001D02*
X107950000Y-104140000D01*
X105779981Y-101969981D02*
X107100001Y-103290001D01*
X105779981Y-91070019D02*
X105779981Y-101969981D01*
X107950000Y-88900000D02*
X105779981Y-91070019D01*
X117740020Y-79109980D02*
X115570000Y-81280000D01*
X130810000Y-81280000D02*
X128639980Y-79109980D01*
X128639980Y-79109980D02*
X117740020Y-79109980D01*
X110490000Y-88900000D02*
X107950000Y-88900000D01*
X110490000Y-104140000D02*
X107950000Y-104140000D01*
X115570000Y-109220000D02*
X115570000Y-111760000D01*
X130810000Y-111760000D02*
X130810000Y-109220000D01*
X161290000Y-111760000D02*
X161290000Y-109220000D01*
X176530000Y-111760000D02*
X176530000Y-109220000D01*
X181610000Y-104140000D02*
X184150000Y-104140000D01*
X184150000Y-88900000D02*
X181610000Y-88900000D01*
X176530000Y-83820000D02*
X176530000Y-81280000D01*
X161290000Y-83820000D02*
X161290000Y-81280000D01*
X130810000Y-81280000D02*
X130810000Y-83820000D01*
X115570000Y-83820000D02*
X115570000Y-81280000D01*
X156210000Y-86360000D02*
X158750000Y-83820000D01*
X158750000Y-83820000D02*
X161290000Y-83820000D01*
X137979991Y-94430009D02*
X140970000Y-91440000D01*
X137160000Y-95250000D02*
X137979991Y-94430009D01*
X130810000Y-109220000D02*
X137160000Y-102870000D01*
X137160000Y-102870000D02*
X137160000Y-95250000D01*
X172814999Y-80104999D02*
X173990000Y-81280000D01*
X172269990Y-79559990D02*
X172814999Y-80104999D01*
X163830000Y-81280000D02*
X165550010Y-79559990D01*
X165550010Y-79559990D02*
X172269990Y-79559990D01*
X184999999Y-100750001D02*
X184150000Y-101600000D01*
X185870010Y-99879990D02*
X184999999Y-100750001D01*
X185870010Y-93160010D02*
X185870010Y-99879990D01*
X184150000Y-91440000D02*
X185870010Y-93160010D01*
X164679999Y-112609999D02*
X163830000Y-111760000D01*
X165550009Y-113480009D02*
X164679999Y-112609999D01*
X172269991Y-113480009D02*
X165550009Y-113480009D01*
X173990000Y-111760000D02*
X172269991Y-113480009D01*
X127420001Y-112609999D02*
X128270000Y-111760000D01*
X126549990Y-113480010D02*
X127420001Y-112609999D01*
X119830010Y-113480010D02*
X126549990Y-113480010D01*
X118110000Y-111760000D02*
X119830010Y-113480010D01*
X107100001Y-92289999D02*
X107950000Y-91440000D01*
X106229990Y-93160010D02*
X107100001Y-92289999D01*
X106229990Y-99879990D02*
X106229990Y-93160010D01*
X107950000Y-101600000D02*
X106229990Y-99879990D01*
X118959999Y-80430001D02*
X118110000Y-81280000D01*
X119830010Y-79559990D02*
X118959999Y-80430001D01*
X126549990Y-79559990D02*
X119830010Y-79559990D01*
X128270000Y-81280000D02*
X126549990Y-79559990D01*
X110490000Y-91440000D02*
X107950000Y-91440000D01*
X110490000Y-101600000D02*
X107950000Y-101600000D01*
X118110000Y-111760000D02*
X118110000Y-109220000D01*
X128270000Y-111760000D02*
X128270000Y-109220000D01*
X163830000Y-111760000D02*
X163830000Y-109220000D01*
X173990000Y-111760000D02*
X173990000Y-109220000D01*
X184150000Y-101600000D02*
X181610000Y-101600000D01*
X181610000Y-91440000D02*
X184150000Y-91440000D01*
X173990000Y-83820000D02*
X173990000Y-81280000D01*
X163830000Y-81280000D02*
X163830000Y-83820000D01*
X128270000Y-83820000D02*
X128270000Y-81280000D01*
X118110000Y-81280000D02*
X118110000Y-83820000D01*
D18*
G36*
X145459670Y-91924472D02*
X145502071Y-91987929D01*
X145565527Y-92030329D01*
X145753462Y-92155904D01*
X145801605Y-92165480D01*
X145975148Y-92200000D01*
X145975152Y-92200000D01*
X146050000Y-92214888D01*
X146104642Y-92204019D01*
X146285423Y-92474577D01*
X146760091Y-92791740D01*
X147178667Y-92875000D01*
X147461333Y-92875000D01*
X147879909Y-92791740D01*
X148354577Y-92474577D01*
X148432763Y-92357564D01*
X154349671Y-98274473D01*
X154392071Y-98337929D01*
X154643463Y-98505904D01*
X154865148Y-98550000D01*
X154865152Y-98550000D01*
X154939999Y-98564888D01*
X154994642Y-98554019D01*
X155175423Y-98824577D01*
X155617756Y-99120134D01*
X155247519Y-99367519D01*
X154952458Y-99809109D01*
X154848846Y-100330000D01*
X154952458Y-100850891D01*
X155247519Y-101292481D01*
X155689109Y-101587542D01*
X155751739Y-101600000D01*
X155689109Y-101612458D01*
X155247519Y-101907519D01*
X154952458Y-102349109D01*
X154848846Y-102870000D01*
X154952458Y-103390891D01*
X155247519Y-103832481D01*
X155689109Y-104127542D01*
X155751739Y-104140000D01*
X155689109Y-104152458D01*
X155247519Y-104447519D01*
X154952458Y-104889109D01*
X154848846Y-105410000D01*
X154952458Y-105930891D01*
X155247519Y-106372481D01*
X155689109Y-106667542D01*
X156078515Y-106745000D01*
X156083000Y-106745000D01*
X156083000Y-107002199D01*
X155895199Y-107190000D01*
X148904803Y-107190000D01*
X148468359Y-106753556D01*
X148927440Y-106728664D01*
X149283831Y-106581042D01*
X149345669Y-106345275D01*
X148590000Y-105589605D01*
X148575858Y-105603748D01*
X148396252Y-105424142D01*
X148410395Y-105410000D01*
X148769605Y-105410000D01*
X149525275Y-106165669D01*
X149761042Y-106103831D01*
X149937419Y-105602878D01*
X149908664Y-105072560D01*
X149761042Y-104716169D01*
X149525275Y-104654331D01*
X148769605Y-105410000D01*
X148410395Y-105410000D01*
X147654725Y-104654331D01*
X147418958Y-104716169D01*
X147242581Y-105217122D01*
X147260391Y-105545589D01*
X145520077Y-103805275D01*
X147834331Y-103805275D01*
X147896169Y-104041042D01*
X148154445Y-104131977D01*
X147896169Y-104238958D01*
X147834331Y-104474725D01*
X148590000Y-105230395D01*
X149345669Y-104474725D01*
X149283831Y-104238958D01*
X149025555Y-104148023D01*
X149283831Y-104041042D01*
X149345669Y-103805275D01*
X148590000Y-103049605D01*
X147834331Y-103805275D01*
X145520077Y-103805275D01*
X144391924Y-102677122D01*
X147242581Y-102677122D01*
X147271336Y-103207440D01*
X147418958Y-103563831D01*
X147654725Y-103625669D01*
X148410395Y-102870000D01*
X148769605Y-102870000D01*
X149525275Y-103625669D01*
X149761042Y-103563831D01*
X149937419Y-103062878D01*
X149908664Y-102532560D01*
X149761042Y-102176169D01*
X149525275Y-102114331D01*
X148769605Y-102870000D01*
X148410395Y-102870000D01*
X147654725Y-102114331D01*
X147418958Y-102176169D01*
X147242581Y-102677122D01*
X144391924Y-102677122D01*
X142980077Y-101265275D01*
X147834331Y-101265275D01*
X147896169Y-101501042D01*
X148154445Y-101591977D01*
X147896169Y-101698958D01*
X147834331Y-101934725D01*
X148590000Y-102690395D01*
X149345669Y-101934725D01*
X149283831Y-101698958D01*
X149025555Y-101608023D01*
X149283831Y-101501042D01*
X149345669Y-101265275D01*
X148590000Y-100509605D01*
X147834331Y-101265275D01*
X142980077Y-101265275D01*
X141887564Y-100172763D01*
X141940904Y-100137122D01*
X147242581Y-100137122D01*
X147271336Y-100667440D01*
X147418958Y-101023831D01*
X147654725Y-101085669D01*
X148410395Y-100330000D01*
X148769605Y-100330000D01*
X149525275Y-101085669D01*
X149761042Y-101023831D01*
X149937419Y-100522878D01*
X149908664Y-99992560D01*
X149761042Y-99636169D01*
X149525275Y-99574331D01*
X148769605Y-100330000D01*
X148410395Y-100330000D01*
X147654725Y-99574331D01*
X147418958Y-99636169D01*
X147242581Y-100137122D01*
X141940904Y-100137122D01*
X142004577Y-100094577D01*
X142321740Y-99619909D01*
X142433113Y-99060000D01*
X142321740Y-98500091D01*
X142038205Y-98075750D01*
X147155000Y-98075750D01*
X147155000Y-98716310D01*
X147251673Y-98949699D01*
X147430302Y-99128327D01*
X147663691Y-99225000D01*
X147878847Y-99225000D01*
X147834331Y-99394725D01*
X148590000Y-100150395D01*
X149345669Y-99394725D01*
X149301153Y-99225000D01*
X149516309Y-99225000D01*
X149749698Y-99128327D01*
X149928327Y-98949699D01*
X150025000Y-98716310D01*
X150025000Y-98075750D01*
X149866250Y-97917000D01*
X148717000Y-97917000D01*
X148717000Y-97937000D01*
X148463000Y-97937000D01*
X148463000Y-97917000D01*
X147313750Y-97917000D01*
X147155000Y-98075750D01*
X142038205Y-98075750D01*
X142004577Y-98025423D01*
X141652242Y-97790000D01*
X142004577Y-97554577D01*
X142321740Y-97079909D01*
X142364748Y-96863690D01*
X147155000Y-96863690D01*
X147155000Y-97504250D01*
X147313750Y-97663000D01*
X148463000Y-97663000D01*
X148463000Y-95377000D01*
X148717000Y-95377000D01*
X148717000Y-97663000D01*
X149866250Y-97663000D01*
X150025000Y-97504250D01*
X150025000Y-96863690D01*
X149928327Y-96630301D01*
X149749698Y-96451673D01*
X149516309Y-96355000D01*
X149488062Y-96355000D01*
X149821041Y-95987423D01*
X149981904Y-95599039D01*
X149859915Y-95377000D01*
X148717000Y-95377000D01*
X148463000Y-95377000D01*
X147320085Y-95377000D01*
X147198096Y-95599039D01*
X147358959Y-95987423D01*
X147691938Y-96355000D01*
X147663691Y-96355000D01*
X147430302Y-96451673D01*
X147251673Y-96630301D01*
X147155000Y-96863690D01*
X142364748Y-96863690D01*
X142433113Y-96520000D01*
X142321740Y-95960091D01*
X142004577Y-95485423D01*
X141652242Y-95250000D01*
X142004577Y-95014577D01*
X142080492Y-94900961D01*
X147198096Y-94900961D01*
X147320085Y-95123000D01*
X148463000Y-95123000D01*
X148463000Y-93979371D01*
X148717000Y-93979371D01*
X148717000Y-95123000D01*
X149859915Y-95123000D01*
X149981904Y-94900961D01*
X149821041Y-94512577D01*
X149445134Y-94097611D01*
X148939041Y-93858086D01*
X148717000Y-93979371D01*
X148463000Y-93979371D01*
X148240959Y-93858086D01*
X147734866Y-94097611D01*
X147358959Y-94512577D01*
X147198096Y-94900961D01*
X142080492Y-94900961D01*
X142321740Y-94539909D01*
X142433113Y-93980000D01*
X142321740Y-93420091D01*
X142004577Y-92945423D01*
X141652242Y-92710000D01*
X142004577Y-92474577D01*
X142321740Y-91999909D01*
X142433113Y-91440000D01*
X142321740Y-90880091D01*
X142004577Y-90405423D01*
X141529909Y-90088260D01*
X141111333Y-90005000D01*
X141097000Y-90005000D01*
X141097000Y-88390000D01*
X141925199Y-88390000D01*
X145459670Y-91924472D01*
X145459670Y-91924472D01*
G37*
X145459670Y-91924472D02*
X145502071Y-91987929D01*
X145565527Y-92030329D01*
X145753462Y-92155904D01*
X145801605Y-92165480D01*
X145975148Y-92200000D01*
X145975152Y-92200000D01*
X146050000Y-92214888D01*
X146104642Y-92204019D01*
X146285423Y-92474577D01*
X146760091Y-92791740D01*
X147178667Y-92875000D01*
X147461333Y-92875000D01*
X147879909Y-92791740D01*
X148354577Y-92474577D01*
X148432763Y-92357564D01*
X154349671Y-98274473D01*
X154392071Y-98337929D01*
X154643463Y-98505904D01*
X154865148Y-98550000D01*
X154865152Y-98550000D01*
X154939999Y-98564888D01*
X154994642Y-98554019D01*
X155175423Y-98824577D01*
X155617756Y-99120134D01*
X155247519Y-99367519D01*
X154952458Y-99809109D01*
X154848846Y-100330000D01*
X154952458Y-100850891D01*
X155247519Y-101292481D01*
X155689109Y-101587542D01*
X155751739Y-101600000D01*
X155689109Y-101612458D01*
X155247519Y-101907519D01*
X154952458Y-102349109D01*
X154848846Y-102870000D01*
X154952458Y-103390891D01*
X155247519Y-103832481D01*
X155689109Y-104127542D01*
X155751739Y-104140000D01*
X155689109Y-104152458D01*
X155247519Y-104447519D01*
X154952458Y-104889109D01*
X154848846Y-105410000D01*
X154952458Y-105930891D01*
X155247519Y-106372481D01*
X155689109Y-106667542D01*
X156078515Y-106745000D01*
X156083000Y-106745000D01*
X156083000Y-107002199D01*
X155895199Y-107190000D01*
X148904803Y-107190000D01*
X148468359Y-106753556D01*
X148927440Y-106728664D01*
X149283831Y-106581042D01*
X149345669Y-106345275D01*
X148590000Y-105589605D01*
X148575858Y-105603748D01*
X148396252Y-105424142D01*
X148410395Y-105410000D01*
X148769605Y-105410000D01*
X149525275Y-106165669D01*
X149761042Y-106103831D01*
X149937419Y-105602878D01*
X149908664Y-105072560D01*
X149761042Y-104716169D01*
X149525275Y-104654331D01*
X148769605Y-105410000D01*
X148410395Y-105410000D01*
X147654725Y-104654331D01*
X147418958Y-104716169D01*
X147242581Y-105217122D01*
X147260391Y-105545589D01*
X145520077Y-103805275D01*
X147834331Y-103805275D01*
X147896169Y-104041042D01*
X148154445Y-104131977D01*
X147896169Y-104238958D01*
X147834331Y-104474725D01*
X148590000Y-105230395D01*
X149345669Y-104474725D01*
X149283831Y-104238958D01*
X149025555Y-104148023D01*
X149283831Y-104041042D01*
X149345669Y-103805275D01*
X148590000Y-103049605D01*
X147834331Y-103805275D01*
X145520077Y-103805275D01*
X144391924Y-102677122D01*
X147242581Y-102677122D01*
X147271336Y-103207440D01*
X147418958Y-103563831D01*
X147654725Y-103625669D01*
X148410395Y-102870000D01*
X148769605Y-102870000D01*
X149525275Y-103625669D01*
X149761042Y-103563831D01*
X149937419Y-103062878D01*
X149908664Y-102532560D01*
X149761042Y-102176169D01*
X149525275Y-102114331D01*
X148769605Y-102870000D01*
X148410395Y-102870000D01*
X147654725Y-102114331D01*
X147418958Y-102176169D01*
X147242581Y-102677122D01*
X144391924Y-102677122D01*
X142980077Y-101265275D01*
X147834331Y-101265275D01*
X147896169Y-101501042D01*
X148154445Y-101591977D01*
X147896169Y-101698958D01*
X147834331Y-101934725D01*
X148590000Y-102690395D01*
X149345669Y-101934725D01*
X149283831Y-101698958D01*
X149025555Y-101608023D01*
X149283831Y-101501042D01*
X149345669Y-101265275D01*
X148590000Y-100509605D01*
X147834331Y-101265275D01*
X142980077Y-101265275D01*
X141887564Y-100172763D01*
X141940904Y-100137122D01*
X147242581Y-100137122D01*
X147271336Y-100667440D01*
X147418958Y-101023831D01*
X147654725Y-101085669D01*
X148410395Y-100330000D01*
X148769605Y-100330000D01*
X149525275Y-101085669D01*
X149761042Y-101023831D01*
X149937419Y-100522878D01*
X149908664Y-99992560D01*
X149761042Y-99636169D01*
X149525275Y-99574331D01*
X148769605Y-100330000D01*
X148410395Y-100330000D01*
X147654725Y-99574331D01*
X147418958Y-99636169D01*
X147242581Y-100137122D01*
X141940904Y-100137122D01*
X142004577Y-100094577D01*
X142321740Y-99619909D01*
X142433113Y-99060000D01*
X142321740Y-98500091D01*
X142038205Y-98075750D01*
X147155000Y-98075750D01*
X147155000Y-98716310D01*
X147251673Y-98949699D01*
X147430302Y-99128327D01*
X147663691Y-99225000D01*
X147878847Y-99225000D01*
X147834331Y-99394725D01*
X148590000Y-100150395D01*
X149345669Y-99394725D01*
X149301153Y-99225000D01*
X149516309Y-99225000D01*
X149749698Y-99128327D01*
X149928327Y-98949699D01*
X150025000Y-98716310D01*
X150025000Y-98075750D01*
X149866250Y-97917000D01*
X148717000Y-97917000D01*
X148717000Y-97937000D01*
X148463000Y-97937000D01*
X148463000Y-97917000D01*
X147313750Y-97917000D01*
X147155000Y-98075750D01*
X142038205Y-98075750D01*
X142004577Y-98025423D01*
X141652242Y-97790000D01*
X142004577Y-97554577D01*
X142321740Y-97079909D01*
X142364748Y-96863690D01*
X147155000Y-96863690D01*
X147155000Y-97504250D01*
X147313750Y-97663000D01*
X148463000Y-97663000D01*
X148463000Y-95377000D01*
X148717000Y-95377000D01*
X148717000Y-97663000D01*
X149866250Y-97663000D01*
X150025000Y-97504250D01*
X150025000Y-96863690D01*
X149928327Y-96630301D01*
X149749698Y-96451673D01*
X149516309Y-96355000D01*
X149488062Y-96355000D01*
X149821041Y-95987423D01*
X149981904Y-95599039D01*
X149859915Y-95377000D01*
X148717000Y-95377000D01*
X148463000Y-95377000D01*
X147320085Y-95377000D01*
X147198096Y-95599039D01*
X147358959Y-95987423D01*
X147691938Y-96355000D01*
X147663691Y-96355000D01*
X147430302Y-96451673D01*
X147251673Y-96630301D01*
X147155000Y-96863690D01*
X142364748Y-96863690D01*
X142433113Y-96520000D01*
X142321740Y-95960091D01*
X142004577Y-95485423D01*
X141652242Y-95250000D01*
X142004577Y-95014577D01*
X142080492Y-94900961D01*
X147198096Y-94900961D01*
X147320085Y-95123000D01*
X148463000Y-95123000D01*
X148463000Y-93979371D01*
X148717000Y-93979371D01*
X148717000Y-95123000D01*
X149859915Y-95123000D01*
X149981904Y-94900961D01*
X149821041Y-94512577D01*
X149445134Y-94097611D01*
X148939041Y-93858086D01*
X148717000Y-93979371D01*
X148463000Y-93979371D01*
X148240959Y-93858086D01*
X147734866Y-94097611D01*
X147358959Y-94512577D01*
X147198096Y-94900961D01*
X142080492Y-94900961D01*
X142321740Y-94539909D01*
X142433113Y-93980000D01*
X142321740Y-93420091D01*
X142004577Y-92945423D01*
X141652242Y-92710000D01*
X142004577Y-92474577D01*
X142321740Y-91999909D01*
X142433113Y-91440000D01*
X142321740Y-90880091D01*
X142004577Y-90405423D01*
X141529909Y-90088260D01*
X141111333Y-90005000D01*
X141097000Y-90005000D01*
X141097000Y-88390000D01*
X141925199Y-88390000D01*
X145459670Y-91924472D01*
G36*
X163702998Y-95302604D02*
X163702998Y-95350625D01*
X163496671Y-95227284D01*
X163151604Y-95370203D01*
X162763236Y-95717337D01*
X162537273Y-96186669D01*
X162659794Y-96393000D01*
X163703000Y-96393000D01*
X163703000Y-96467394D01*
X163523394Y-96647000D01*
X162659794Y-96647000D01*
X162537273Y-96853331D01*
X162763236Y-97322663D01*
X162807852Y-97362542D01*
X162099620Y-98070774D01*
X162044005Y-97886136D01*
X161506777Y-97693035D01*
X160936546Y-97720222D01*
X160535995Y-97886136D01*
X160461861Y-98132255D01*
X161250000Y-98920394D01*
X161070394Y-99100000D01*
X160282255Y-98311861D01*
X160036136Y-98385995D01*
X159843035Y-98923223D01*
X159870222Y-99493454D01*
X160036136Y-99894005D01*
X160220774Y-99949620D01*
X158750000Y-101420394D01*
X157549191Y-100219585D01*
X157467542Y-99809109D01*
X157172481Y-99367519D01*
X156802244Y-99120134D01*
X157244577Y-98824577D01*
X157561740Y-98349909D01*
X157673113Y-97790000D01*
X157561740Y-97230091D01*
X157244577Y-96755423D01*
X157123894Y-96674785D01*
X157257765Y-96648157D01*
X157467809Y-96507809D01*
X157608157Y-96297765D01*
X157657440Y-96050000D01*
X157657440Y-94450000D01*
X157608157Y-94202235D01*
X157467809Y-93992191D01*
X157257765Y-93851843D01*
X157010000Y-93802560D01*
X156970000Y-93802560D01*
X156970000Y-92784846D01*
X156984888Y-92709999D01*
X156970000Y-92635152D01*
X156970000Y-92635148D01*
X156925904Y-92413463D01*
X156757929Y-92162071D01*
X156694473Y-92119671D01*
X156338688Y-91763886D01*
X156403113Y-91440000D01*
X156291740Y-90880091D01*
X155974577Y-90405423D01*
X155590892Y-90149053D01*
X155795134Y-90052389D01*
X156171041Y-89637423D01*
X156331904Y-89249039D01*
X156209916Y-89027002D01*
X156375000Y-89027002D01*
X156375000Y-89027000D01*
X157427394Y-89027000D01*
X163702998Y-95302604D01*
X163702998Y-95302604D01*
G37*
X163702998Y-95302604D02*
X163702998Y-95350625D01*
X163496671Y-95227284D01*
X163151604Y-95370203D01*
X162763236Y-95717337D01*
X162537273Y-96186669D01*
X162659794Y-96393000D01*
X163703000Y-96393000D01*
X163703000Y-96467394D01*
X163523394Y-96647000D01*
X162659794Y-96647000D01*
X162537273Y-96853331D01*
X162763236Y-97322663D01*
X162807852Y-97362542D01*
X162099620Y-98070774D01*
X162044005Y-97886136D01*
X161506777Y-97693035D01*
X160936546Y-97720222D01*
X160535995Y-97886136D01*
X160461861Y-98132255D01*
X161250000Y-98920394D01*
X161070394Y-99100000D01*
X160282255Y-98311861D01*
X160036136Y-98385995D01*
X159843035Y-98923223D01*
X159870222Y-99493454D01*
X160036136Y-99894005D01*
X160220774Y-99949620D01*
X158750000Y-101420394D01*
X157549191Y-100219585D01*
X157467542Y-99809109D01*
X157172481Y-99367519D01*
X156802244Y-99120134D01*
X157244577Y-98824577D01*
X157561740Y-98349909D01*
X157673113Y-97790000D01*
X157561740Y-97230091D01*
X157244577Y-96755423D01*
X157123894Y-96674785D01*
X157257765Y-96648157D01*
X157467809Y-96507809D01*
X157608157Y-96297765D01*
X157657440Y-96050000D01*
X157657440Y-94450000D01*
X157608157Y-94202235D01*
X157467809Y-93992191D01*
X157257765Y-93851843D01*
X157010000Y-93802560D01*
X156970000Y-93802560D01*
X156970000Y-92784846D01*
X156984888Y-92709999D01*
X156970000Y-92635152D01*
X156970000Y-92635148D01*
X156925904Y-92413463D01*
X156757929Y-92162071D01*
X156694473Y-92119671D01*
X156338688Y-91763886D01*
X156403113Y-91440000D01*
X156291740Y-90880091D01*
X155974577Y-90405423D01*
X155590892Y-90149053D01*
X155795134Y-90052389D01*
X156171041Y-89637423D01*
X156331904Y-89249039D01*
X156209916Y-89027002D01*
X156375000Y-89027002D01*
X156375000Y-89027000D01*
X157427394Y-89027000D01*
X163702998Y-95302604D01*
G36*
X190373000Y-117983000D02*
X101727000Y-117983000D01*
X101727000Y-113925050D01*
X103525000Y-113925050D01*
X103525000Y-114674950D01*
X103811974Y-115367767D01*
X104342233Y-115898026D01*
X105035050Y-116185000D01*
X105784950Y-116185000D01*
X106477767Y-115898026D01*
X107008026Y-115367767D01*
X107295000Y-114674950D01*
X107295000Y-113925050D01*
X107008026Y-113232233D01*
X106477767Y-112701974D01*
X105784950Y-112415000D01*
X105035050Y-112415000D01*
X104342233Y-112701974D01*
X103811974Y-113232233D01*
X103525000Y-113925050D01*
X101727000Y-113925050D01*
X101727000Y-109220000D01*
X114055908Y-109220000D01*
X114171161Y-109799418D01*
X114499375Y-110290625D01*
X114797761Y-110490000D01*
X114499375Y-110689375D01*
X114171161Y-111180582D01*
X114055908Y-111760000D01*
X114171161Y-112339418D01*
X114499375Y-112830625D01*
X114990582Y-113158839D01*
X115423744Y-113245000D01*
X115716256Y-113245000D01*
X115936408Y-113201209D01*
X117149691Y-114414493D01*
X117192091Y-114477949D01*
X117255547Y-114520349D01*
X117443482Y-114645924D01*
X117491625Y-114655500D01*
X117665168Y-114690020D01*
X117665172Y-114690020D01*
X117740020Y-114704908D01*
X117814868Y-114690020D01*
X128565133Y-114690020D01*
X128639980Y-114704908D01*
X128714827Y-114690020D01*
X128714832Y-114690020D01*
X128936517Y-114645924D01*
X129187909Y-114477949D01*
X129230311Y-114414490D01*
X130329051Y-113315750D01*
X144565000Y-113315750D01*
X144565000Y-114006310D01*
X144661673Y-114239699D01*
X144840302Y-114418327D01*
X145073691Y-114515000D01*
X145764250Y-114515000D01*
X145923000Y-114356250D01*
X145923000Y-113157000D01*
X144723750Y-113157000D01*
X144565000Y-113315750D01*
X130329051Y-113315750D01*
X130443592Y-113201209D01*
X130663744Y-113245000D01*
X130956256Y-113245000D01*
X131389418Y-113158839D01*
X131880625Y-112830625D01*
X132208839Y-112339418D01*
X132265673Y-112053690D01*
X144565000Y-112053690D01*
X144565000Y-112744250D01*
X144723750Y-112903000D01*
X145923000Y-112903000D01*
X145923000Y-111703750D01*
X146177000Y-111703750D01*
X146177000Y-112903000D01*
X146197000Y-112903000D01*
X146197000Y-113157000D01*
X146177000Y-113157000D01*
X146177000Y-114356250D01*
X146335750Y-114515000D01*
X147026309Y-114515000D01*
X147259698Y-114418327D01*
X147316975Y-114361051D01*
X147492235Y-114478157D01*
X147740000Y-114527440D01*
X149440000Y-114527440D01*
X149687765Y-114478157D01*
X149860000Y-114363072D01*
X150032235Y-114478157D01*
X150280000Y-114527440D01*
X151980000Y-114527440D01*
X152227765Y-114478157D01*
X152437809Y-114337809D01*
X152578157Y-114127765D01*
X152627440Y-113880000D01*
X152627440Y-112180000D01*
X152578157Y-111932235D01*
X152437809Y-111722191D01*
X152227765Y-111581843D01*
X151980000Y-111532560D01*
X150280000Y-111532560D01*
X150032235Y-111581843D01*
X149860000Y-111696928D01*
X149687765Y-111581843D01*
X149440000Y-111532560D01*
X147740000Y-111532560D01*
X147492235Y-111581843D01*
X147316975Y-111698949D01*
X147259698Y-111641673D01*
X147026309Y-111545000D01*
X146335750Y-111545000D01*
X146177000Y-111703750D01*
X145923000Y-111703750D01*
X145764250Y-111545000D01*
X145073691Y-111545000D01*
X144840302Y-111641673D01*
X144661673Y-111820301D01*
X144565000Y-112053690D01*
X132265673Y-112053690D01*
X132324092Y-111760000D01*
X132208839Y-111180582D01*
X131880625Y-110689375D01*
X131582239Y-110490000D01*
X131880625Y-110290625D01*
X132208839Y-109799418D01*
X132324092Y-109220000D01*
X132251209Y-108853592D01*
X137644473Y-103460329D01*
X137707929Y-103417929D01*
X137875904Y-103166537D01*
X137920000Y-102944852D01*
X137920000Y-102944848D01*
X137934888Y-102870001D01*
X137920000Y-102795154D01*
X137920000Y-99633272D01*
X137945530Y-99650331D01*
X147999671Y-109704473D01*
X148042071Y-109767929D01*
X148105527Y-109810329D01*
X148293462Y-109935904D01*
X148341605Y-109945480D01*
X148515148Y-109980000D01*
X148515152Y-109980000D01*
X148590000Y-109994888D01*
X148664848Y-109980000D01*
X156135153Y-109980000D01*
X156210000Y-109994888D01*
X156284847Y-109980000D01*
X156284852Y-109980000D01*
X156506537Y-109935904D01*
X156757929Y-109767929D01*
X156800331Y-109704470D01*
X157284801Y-109220000D01*
X159775908Y-109220000D01*
X159891161Y-109799418D01*
X160219375Y-110290625D01*
X160517761Y-110490000D01*
X160219375Y-110689375D01*
X159891161Y-111180582D01*
X159775908Y-111760000D01*
X159891161Y-112339418D01*
X160219375Y-112830625D01*
X160710582Y-113158839D01*
X161143744Y-113245000D01*
X161436256Y-113245000D01*
X161656408Y-113201209D01*
X162869689Y-114414491D01*
X162912089Y-114477947D01*
X163163481Y-114645922D01*
X163385166Y-114690018D01*
X163385171Y-114690018D01*
X163460018Y-114704906D01*
X163534865Y-114690018D01*
X174285135Y-114690018D01*
X174359982Y-114704906D01*
X174434829Y-114690018D01*
X174434834Y-114690018D01*
X174656519Y-114645922D01*
X174907911Y-114477947D01*
X174950313Y-114414488D01*
X175439751Y-113925050D01*
X184805000Y-113925050D01*
X184805000Y-114674950D01*
X185091974Y-115367767D01*
X185622233Y-115898026D01*
X186315050Y-116185000D01*
X187064950Y-116185000D01*
X187757767Y-115898026D01*
X188288026Y-115367767D01*
X188575000Y-114674950D01*
X188575000Y-113925050D01*
X188288026Y-113232233D01*
X187757767Y-112701974D01*
X187064950Y-112415000D01*
X186315050Y-112415000D01*
X185622233Y-112701974D01*
X185091974Y-113232233D01*
X184805000Y-113925050D01*
X175439751Y-113925050D01*
X176163593Y-113201209D01*
X176383744Y-113245000D01*
X176676256Y-113245000D01*
X177109418Y-113158839D01*
X177600625Y-112830625D01*
X177928839Y-112339418D01*
X178044092Y-111760000D01*
X177928839Y-111180582D01*
X177600625Y-110689375D01*
X177302239Y-110490000D01*
X177600625Y-110290625D01*
X177928839Y-109799418D01*
X178044092Y-109220000D01*
X177928839Y-108640582D01*
X177600625Y-108149375D01*
X177109418Y-107821161D01*
X176676256Y-107735000D01*
X176383744Y-107735000D01*
X175950582Y-107821161D01*
X175459375Y-108149375D01*
X175246157Y-108468478D01*
X175185183Y-108338642D01*
X174756924Y-107948355D01*
X174346890Y-107778524D01*
X174117000Y-107899845D01*
X174117000Y-109093000D01*
X174137000Y-109093000D01*
X174137000Y-109347000D01*
X174117000Y-109347000D01*
X174117000Y-111633000D01*
X174137000Y-111633000D01*
X174137000Y-111887000D01*
X174117000Y-111887000D01*
X174117000Y-111907000D01*
X173863000Y-111907000D01*
X173863000Y-111887000D01*
X173843000Y-111887000D01*
X173843000Y-111633000D01*
X173863000Y-111633000D01*
X173863000Y-109347000D01*
X173843000Y-109347000D01*
X173843000Y-109093000D01*
X173863000Y-109093000D01*
X173863000Y-107899845D01*
X173633110Y-107778524D01*
X173223076Y-107948355D01*
X172918739Y-108225708D01*
X172898157Y-108122235D01*
X172757809Y-107912191D01*
X172547765Y-107771843D01*
X172300000Y-107722560D01*
X170600000Y-107722560D01*
X170352235Y-107771843D01*
X170142191Y-107912191D01*
X170001843Y-108122235D01*
X169952560Y-108370000D01*
X169952560Y-110070000D01*
X170001843Y-110317765D01*
X170142191Y-110527809D01*
X170352235Y-110668157D01*
X170397619Y-110677184D01*
X170379375Y-110689375D01*
X170051161Y-111180582D01*
X169935908Y-111760000D01*
X170008791Y-112126408D01*
X169865199Y-112270000D01*
X167954802Y-112270000D01*
X167811209Y-112126408D01*
X167884092Y-111760000D01*
X167768839Y-111180582D01*
X167440625Y-110689375D01*
X167422381Y-110677184D01*
X167467765Y-110668157D01*
X167677809Y-110527809D01*
X167818157Y-110317765D01*
X167867440Y-110070000D01*
X167867440Y-108370000D01*
X167818157Y-108122235D01*
X167677809Y-107912191D01*
X167467765Y-107771843D01*
X167220000Y-107722560D01*
X165520000Y-107722560D01*
X165272235Y-107771843D01*
X165062191Y-107912191D01*
X164921843Y-108122235D01*
X164901261Y-108225708D01*
X164596924Y-107948355D01*
X164186890Y-107778524D01*
X163957000Y-107899845D01*
X163957000Y-109093000D01*
X163977000Y-109093000D01*
X163977000Y-109347000D01*
X163957000Y-109347000D01*
X163957000Y-111633000D01*
X163977000Y-111633000D01*
X163977000Y-111887000D01*
X163957000Y-111887000D01*
X163957000Y-111907000D01*
X163703000Y-111907000D01*
X163703000Y-111887000D01*
X163683000Y-111887000D01*
X163683000Y-111633000D01*
X163703000Y-111633000D01*
X163703000Y-109347000D01*
X163683000Y-109347000D01*
X163683000Y-109093000D01*
X163703000Y-109093000D01*
X163703000Y-107899845D01*
X163473110Y-107778524D01*
X163063076Y-107948355D01*
X162634817Y-108338642D01*
X162573843Y-108468478D01*
X162360625Y-108149375D01*
X161869418Y-107821161D01*
X161436256Y-107735000D01*
X161143744Y-107735000D01*
X160710582Y-107821161D01*
X160219375Y-108149375D01*
X159891161Y-108640582D01*
X159775908Y-109220000D01*
X157284801Y-109220000D01*
X160951698Y-105553104D01*
X161004561Y-105575000D01*
X161575439Y-105575000D01*
X162102862Y-105356534D01*
X162506534Y-104952862D01*
X162528430Y-104900000D01*
X162702025Y-104900000D01*
X163073783Y-105271758D01*
X163564452Y-105475000D01*
X164095548Y-105475000D01*
X164586217Y-105271758D01*
X164961758Y-104896217D01*
X165100000Y-104562472D01*
X165238242Y-104896217D01*
X165613783Y-105271758D01*
X166104452Y-105475000D01*
X166635548Y-105475000D01*
X167126217Y-105271758D01*
X167501758Y-104896217D01*
X167705000Y-104405548D01*
X167705000Y-103874452D01*
X167501758Y-103383783D01*
X167126217Y-103008242D01*
X166635548Y-102805000D01*
X166104452Y-102805000D01*
X165613783Y-103008242D01*
X165238242Y-103383783D01*
X165100000Y-103717528D01*
X164961758Y-103383783D01*
X164590000Y-103012025D01*
X164590000Y-99374801D01*
X166131157Y-97833645D01*
X166238515Y-97855000D01*
X166501485Y-97855000D01*
X166890891Y-97777542D01*
X167332481Y-97482481D01*
X167627542Y-97040891D01*
X167731154Y-96520000D01*
X167627542Y-95999109D01*
X167332481Y-95557519D01*
X166890891Y-95262458D01*
X166828261Y-95250000D01*
X166890891Y-95237542D01*
X167332481Y-94942481D01*
X167627542Y-94500891D01*
X167731154Y-93980000D01*
X167627542Y-93459109D01*
X167332481Y-93017519D01*
X166890891Y-92722458D01*
X166501485Y-92645000D01*
X166238515Y-92645000D01*
X165849109Y-92722458D01*
X165407519Y-93017519D01*
X165272226Y-93220000D01*
X164144803Y-93220000D01*
X160584802Y-89660000D01*
X163755153Y-89660000D01*
X163830000Y-89674888D01*
X163904847Y-89660000D01*
X163904852Y-89660000D01*
X164126537Y-89615904D01*
X164377929Y-89447929D01*
X164420331Y-89384470D01*
X164904801Y-88900000D01*
X180095908Y-88900000D01*
X180211161Y-89479418D01*
X180539375Y-89970625D01*
X180858478Y-90183843D01*
X180728642Y-90244817D01*
X180338355Y-90673076D01*
X180168524Y-91083110D01*
X180289845Y-91313000D01*
X181483000Y-91313000D01*
X181483000Y-91293000D01*
X181737000Y-91293000D01*
X181737000Y-91313000D01*
X184023000Y-91313000D01*
X184023000Y-91293000D01*
X184277000Y-91293000D01*
X184277000Y-91313000D01*
X184297000Y-91313000D01*
X184297000Y-91567000D01*
X184277000Y-91567000D01*
X184277000Y-91587000D01*
X184023000Y-91587000D01*
X184023000Y-91567000D01*
X181737000Y-91567000D01*
X181737000Y-91587000D01*
X181483000Y-91587000D01*
X181483000Y-91567000D01*
X180289845Y-91567000D01*
X180168524Y-91796890D01*
X180338355Y-92206924D01*
X180615708Y-92511261D01*
X180512235Y-92531843D01*
X180302191Y-92672191D01*
X180161843Y-92882235D01*
X180112560Y-93130000D01*
X180112560Y-94830000D01*
X180161843Y-95077765D01*
X180302191Y-95287809D01*
X180512235Y-95428157D01*
X180760000Y-95477440D01*
X182460000Y-95477440D01*
X182707765Y-95428157D01*
X182917809Y-95287809D01*
X183058157Y-95077765D01*
X183067184Y-95032381D01*
X183079375Y-95050625D01*
X183570582Y-95378839D01*
X184003744Y-95465000D01*
X184296256Y-95465000D01*
X184516408Y-95421209D01*
X184660000Y-95564802D01*
X184660001Y-97475197D01*
X184516408Y-97618791D01*
X184296256Y-97575000D01*
X184003744Y-97575000D01*
X183570582Y-97661161D01*
X183079375Y-97989375D01*
X183067184Y-98007619D01*
X183058157Y-97962235D01*
X182917809Y-97752191D01*
X182707765Y-97611843D01*
X182460000Y-97562560D01*
X180760000Y-97562560D01*
X180512235Y-97611843D01*
X180302191Y-97752191D01*
X180161843Y-97962235D01*
X180112560Y-98210000D01*
X180112560Y-99910000D01*
X180161843Y-100157765D01*
X180302191Y-100367809D01*
X180512235Y-100508157D01*
X180615708Y-100528739D01*
X180338355Y-100833076D01*
X180168524Y-101243110D01*
X180289845Y-101473000D01*
X181483000Y-101473000D01*
X181483000Y-101453000D01*
X181737000Y-101453000D01*
X181737000Y-101473000D01*
X184023000Y-101473000D01*
X184023000Y-101453000D01*
X184277000Y-101453000D01*
X184277000Y-101473000D01*
X184297000Y-101473000D01*
X184297000Y-101727000D01*
X184277000Y-101727000D01*
X184277000Y-101747000D01*
X184023000Y-101747000D01*
X184023000Y-101727000D01*
X181737000Y-101727000D01*
X181737000Y-101747000D01*
X181483000Y-101747000D01*
X181483000Y-101727000D01*
X180289845Y-101727000D01*
X180168524Y-101956890D01*
X180338355Y-102366924D01*
X180728642Y-102795183D01*
X180858478Y-102856157D01*
X180539375Y-103069375D01*
X180211161Y-103560582D01*
X180095908Y-104140000D01*
X180211161Y-104719418D01*
X180539375Y-105210625D01*
X181030582Y-105538839D01*
X181463744Y-105625000D01*
X181756256Y-105625000D01*
X182189418Y-105538839D01*
X182680625Y-105210625D01*
X182880000Y-104912239D01*
X183079375Y-105210625D01*
X183570582Y-105538839D01*
X184003744Y-105625000D01*
X184296256Y-105625000D01*
X184729418Y-105538839D01*
X185220625Y-105210625D01*
X185548839Y-104719418D01*
X185664092Y-104140000D01*
X185591209Y-103773592D01*
X186804492Y-102560310D01*
X186867948Y-102517910D01*
X187035923Y-102266518D01*
X187080019Y-102044833D01*
X187080019Y-102044829D01*
X187094907Y-101969982D01*
X187080019Y-101895135D01*
X187080019Y-91144865D01*
X187094907Y-91070018D01*
X187080019Y-90995169D01*
X187080019Y-90995167D01*
X187035923Y-90773482D01*
X186968834Y-90673076D01*
X186910348Y-90585545D01*
X186910346Y-90585543D01*
X186867948Y-90522090D01*
X186804495Y-90479692D01*
X185591209Y-89266407D01*
X185664092Y-88900000D01*
X185548839Y-88320582D01*
X185220625Y-87829375D01*
X184729418Y-87501161D01*
X184296256Y-87415000D01*
X184003744Y-87415000D01*
X183570582Y-87501161D01*
X183079375Y-87829375D01*
X182880000Y-88127761D01*
X182680625Y-87829375D01*
X182189418Y-87501161D01*
X181756256Y-87415000D01*
X181463744Y-87415000D01*
X181030582Y-87501161D01*
X180539375Y-87829375D01*
X180211161Y-88320582D01*
X180095908Y-88900000D01*
X164904801Y-88900000D01*
X166109802Y-87695000D01*
X166635548Y-87695000D01*
X167126217Y-87491758D01*
X167501758Y-87116217D01*
X167705000Y-86625548D01*
X167705000Y-86094452D01*
X167501758Y-85603783D01*
X167215415Y-85317440D01*
X167220000Y-85317440D01*
X167467765Y-85268157D01*
X167677809Y-85127809D01*
X167818157Y-84917765D01*
X167867440Y-84670000D01*
X167867440Y-82970000D01*
X167818157Y-82722235D01*
X167677809Y-82512191D01*
X167467765Y-82371843D01*
X167422381Y-82362816D01*
X167440625Y-82350625D01*
X167768839Y-81859418D01*
X167884092Y-81280000D01*
X167811209Y-80913592D01*
X167954802Y-80770000D01*
X169865199Y-80770000D01*
X170008791Y-80913592D01*
X169935908Y-81280000D01*
X170051161Y-81859418D01*
X170379375Y-82350625D01*
X170397619Y-82362816D01*
X170352235Y-82371843D01*
X170142191Y-82512191D01*
X170001843Y-82722235D01*
X169952560Y-82970000D01*
X169952560Y-84670000D01*
X170001843Y-84917765D01*
X170142191Y-85127809D01*
X170352235Y-85268157D01*
X170600000Y-85317440D01*
X172300000Y-85317440D01*
X172547765Y-85268157D01*
X172757809Y-85127809D01*
X172898157Y-84917765D01*
X172918739Y-84814292D01*
X173223076Y-85091645D01*
X173633110Y-85261476D01*
X173863000Y-85140155D01*
X173863000Y-83947000D01*
X173843000Y-83947000D01*
X173843000Y-83693000D01*
X173863000Y-83693000D01*
X173863000Y-81407000D01*
X173843000Y-81407000D01*
X173843000Y-81153000D01*
X173863000Y-81153000D01*
X173863000Y-81133000D01*
X174117000Y-81133000D01*
X174117000Y-81153000D01*
X174137000Y-81153000D01*
X174137000Y-81407000D01*
X174117000Y-81407000D01*
X174117000Y-83693000D01*
X174137000Y-83693000D01*
X174137000Y-83947000D01*
X174117000Y-83947000D01*
X174117000Y-85140155D01*
X174346890Y-85261476D01*
X174756924Y-85091645D01*
X175185183Y-84701358D01*
X175246157Y-84571522D01*
X175459375Y-84890625D01*
X175950582Y-85218839D01*
X176383744Y-85305000D01*
X176676256Y-85305000D01*
X177109418Y-85218839D01*
X177600625Y-84890625D01*
X177928839Y-84399418D01*
X178044092Y-83820000D01*
X177928839Y-83240582D01*
X177600625Y-82749375D01*
X177302239Y-82550000D01*
X177600625Y-82350625D01*
X177928839Y-81859418D01*
X178044092Y-81280000D01*
X177928839Y-80700582D01*
X177600625Y-80209375D01*
X177109418Y-79881161D01*
X176676256Y-79795000D01*
X176383744Y-79795000D01*
X176163593Y-79838791D01*
X174950312Y-78625511D01*
X174907910Y-78562052D01*
X174656518Y-78394077D01*
X174510590Y-78365050D01*
X184805000Y-78365050D01*
X184805000Y-79114950D01*
X185091974Y-79807767D01*
X185622233Y-80338026D01*
X186315050Y-80625000D01*
X187064950Y-80625000D01*
X187757767Y-80338026D01*
X188288026Y-79807767D01*
X188575000Y-79114950D01*
X188575000Y-78365050D01*
X188288026Y-77672233D01*
X187757767Y-77141974D01*
X187064950Y-76855000D01*
X186315050Y-76855000D01*
X185622233Y-77141974D01*
X185091974Y-77672233D01*
X184805000Y-78365050D01*
X174510590Y-78365050D01*
X174434833Y-78349981D01*
X174434828Y-78349981D01*
X174359981Y-78335093D01*
X174285134Y-78349981D01*
X163534865Y-78349981D01*
X163460018Y-78335093D01*
X163385171Y-78349981D01*
X163385167Y-78349981D01*
X163163482Y-78394077D01*
X163163480Y-78394078D01*
X163163481Y-78394078D01*
X162975545Y-78519652D01*
X162975543Y-78519654D01*
X162912090Y-78562052D01*
X162869692Y-78625505D01*
X161656407Y-79838791D01*
X161436256Y-79795000D01*
X161143744Y-79795000D01*
X160710582Y-79881161D01*
X160219375Y-80209375D01*
X159891161Y-80700582D01*
X159775908Y-81280000D01*
X159891161Y-81859418D01*
X160219375Y-82350625D01*
X160517761Y-82550000D01*
X160219375Y-82749375D01*
X160011822Y-83060000D01*
X158824846Y-83060000D01*
X158749999Y-83045112D01*
X158675152Y-83060000D01*
X158675148Y-83060000D01*
X158453463Y-83104096D01*
X158453461Y-83104097D01*
X158453462Y-83104097D01*
X158265526Y-83229671D01*
X158265524Y-83229673D01*
X158202071Y-83272071D01*
X158159673Y-83335524D01*
X156052763Y-85442436D01*
X155974577Y-85325423D01*
X155622242Y-85090000D01*
X155974577Y-84854577D01*
X156291740Y-84379909D01*
X156403113Y-83820000D01*
X156291740Y-83260091D01*
X155974577Y-82785423D01*
X155499909Y-82468260D01*
X155081333Y-82385000D01*
X154798667Y-82385000D01*
X154380091Y-82468260D01*
X153905423Y-82785423D01*
X153588260Y-83260091D01*
X153476887Y-83820000D01*
X153588260Y-84379909D01*
X153905423Y-84854577D01*
X154257758Y-85090000D01*
X153905423Y-85325423D01*
X153588260Y-85800091D01*
X153476887Y-86360000D01*
X153588260Y-86919909D01*
X153905423Y-87394577D01*
X154257758Y-87630000D01*
X153905423Y-87865423D01*
X153588260Y-88340091D01*
X153476887Y-88900000D01*
X153588260Y-89459909D01*
X153905423Y-89934577D01*
X154257758Y-90170000D01*
X153905423Y-90405423D01*
X153588260Y-90880091D01*
X153476887Y-91440000D01*
X153588260Y-91999909D01*
X153905423Y-92474577D01*
X154380091Y-92791740D01*
X154798667Y-92875000D01*
X155081333Y-92875000D01*
X155263886Y-92838688D01*
X155450000Y-93024802D01*
X155450000Y-93802560D01*
X155410000Y-93802560D01*
X155162235Y-93851843D01*
X154952191Y-93992191D01*
X154811843Y-94202235D01*
X154762560Y-94450000D01*
X154762560Y-96050000D01*
X154811843Y-96297765D01*
X154952191Y-96507809D01*
X155162235Y-96648157D01*
X155296106Y-96674785D01*
X155175423Y-96755423D01*
X155097238Y-96872436D01*
X149180331Y-90955530D01*
X149137929Y-90892071D01*
X148886537Y-90724096D01*
X148664852Y-90680000D01*
X148664847Y-90680000D01*
X148590000Y-90665112D01*
X148535358Y-90675981D01*
X148354577Y-90405423D01*
X147970892Y-90149053D01*
X148175134Y-90052389D01*
X148551041Y-89637423D01*
X148711904Y-89249039D01*
X148589915Y-89027000D01*
X147447000Y-89027000D01*
X147447000Y-89047000D01*
X147193000Y-89047000D01*
X147193000Y-89027000D01*
X146050085Y-89027000D01*
X145928096Y-89249039D01*
X146088959Y-89637423D01*
X146464866Y-90052389D01*
X146669108Y-90149053D01*
X146285423Y-90405423D01*
X146207238Y-90522436D01*
X142830331Y-87145530D01*
X142813272Y-87120000D01*
X146101957Y-87120000D01*
X146285423Y-87394577D01*
X146669108Y-87650947D01*
X146464866Y-87747611D01*
X146088959Y-88162577D01*
X145928096Y-88550961D01*
X146050085Y-88773000D01*
X147193000Y-88773000D01*
X147193000Y-88753000D01*
X147447000Y-88753000D01*
X147447000Y-88773000D01*
X148589915Y-88773000D01*
X148711904Y-88550961D01*
X148551041Y-88162577D01*
X148175134Y-87747611D01*
X147970892Y-87650947D01*
X148354577Y-87394577D01*
X148671740Y-86919909D01*
X148783113Y-86360000D01*
X148671740Y-85800091D01*
X148354577Y-85325423D01*
X148233894Y-85244785D01*
X148367765Y-85218157D01*
X148577809Y-85077809D01*
X148718157Y-84867765D01*
X148767440Y-84620000D01*
X148767440Y-83020000D01*
X148718157Y-82772235D01*
X148577809Y-82562191D01*
X148367765Y-82421843D01*
X148120000Y-82372560D01*
X146520000Y-82372560D01*
X146272235Y-82421843D01*
X146062191Y-82562191D01*
X145921843Y-82772235D01*
X145872560Y-83020000D01*
X145872560Y-84620000D01*
X145921843Y-84867765D01*
X146062191Y-85077809D01*
X146272235Y-85218157D01*
X146406106Y-85244785D01*
X146285423Y-85325423D01*
X146101957Y-85600000D01*
X138504846Y-85600000D01*
X138429999Y-85585112D01*
X138355152Y-85600000D01*
X138355148Y-85600000D01*
X138133463Y-85644096D01*
X138133461Y-85644097D01*
X138133462Y-85644097D01*
X137945526Y-85769671D01*
X137945524Y-85769673D01*
X137882071Y-85812071D01*
X137839673Y-85875524D01*
X137387440Y-86327757D01*
X137387440Y-85510000D01*
X137338157Y-85262235D01*
X137197809Y-85052191D01*
X136987765Y-84911843D01*
X136740000Y-84862560D01*
X135040000Y-84862560D01*
X134792235Y-84911843D01*
X134620000Y-85026928D01*
X134447765Y-84911843D01*
X134200000Y-84862560D01*
X132500000Y-84862560D01*
X132252235Y-84911843D01*
X132042191Y-85052191D01*
X131901843Y-85262235D01*
X131852560Y-85510000D01*
X131852560Y-86782638D01*
X128508844Y-90126355D01*
X128401485Y-90105000D01*
X128138515Y-90105000D01*
X127749109Y-90182458D01*
X127307519Y-90477519D01*
X127012458Y-90919109D01*
X126908846Y-91440000D01*
X127012458Y-91960891D01*
X127307519Y-92402481D01*
X127749109Y-92697542D01*
X128138515Y-92775000D01*
X128400199Y-92775000D01*
X127785528Y-93389671D01*
X127722072Y-93432071D01*
X127679673Y-93495526D01*
X127679671Y-93495528D01*
X127554097Y-93683463D01*
X127495112Y-93980000D01*
X127510001Y-94054852D01*
X127510000Y-97932025D01*
X127138242Y-98303783D01*
X126935000Y-98794452D01*
X126935000Y-99325548D01*
X127138242Y-99816217D01*
X127513783Y-100191758D01*
X128004452Y-100395000D01*
X128530198Y-100395000D01*
X130050000Y-101914803D01*
X130050001Y-103012024D01*
X129678242Y-103383783D01*
X129475000Y-103874452D01*
X129475000Y-104405548D01*
X129678242Y-104896217D01*
X130053783Y-105271758D01*
X130544452Y-105475000D01*
X131075548Y-105475000D01*
X131566217Y-105271758D01*
X131941758Y-104896217D01*
X132145000Y-104405548D01*
X132145000Y-103874452D01*
X131941758Y-103383783D01*
X131570000Y-103012025D01*
X131570000Y-101674846D01*
X131584888Y-101599999D01*
X131570000Y-101525152D01*
X131570000Y-101525148D01*
X131525904Y-101303463D01*
X131453784Y-101195528D01*
X131400329Y-101115526D01*
X131400327Y-101115524D01*
X131357929Y-101052071D01*
X131294476Y-101009673D01*
X129693842Y-99409039D01*
X131958096Y-99409039D01*
X132118959Y-99797423D01*
X132494866Y-100212389D01*
X133000959Y-100451914D01*
X133223000Y-100330629D01*
X133223000Y-99187000D01*
X133477000Y-99187000D01*
X133477000Y-100330629D01*
X133699041Y-100451914D01*
X134205134Y-100212389D01*
X134581041Y-99797423D01*
X134741904Y-99409039D01*
X134619915Y-99187000D01*
X133477000Y-99187000D01*
X133223000Y-99187000D01*
X132080085Y-99187000D01*
X131958096Y-99409039D01*
X129693842Y-99409039D01*
X129605000Y-99320198D01*
X129605000Y-98794452D01*
X129401758Y-98303783D01*
X129030000Y-97932025D01*
X129030000Y-96853331D01*
X129517273Y-96853331D01*
X129743236Y-97322663D01*
X130131604Y-97669797D01*
X130476671Y-97812716D01*
X130683000Y-97689374D01*
X130683000Y-96647000D01*
X129639794Y-96647000D01*
X129517273Y-96853331D01*
X129030000Y-96853331D01*
X129030000Y-96186669D01*
X129517273Y-96186669D01*
X129639794Y-96393000D01*
X130683000Y-96393000D01*
X130683000Y-95350626D01*
X130476671Y-95227284D01*
X130131604Y-95370203D01*
X129743236Y-95717337D01*
X129517273Y-96186669D01*
X129030000Y-96186669D01*
X129030000Y-94294801D01*
X131902560Y-91422242D01*
X131902560Y-92240000D01*
X131951843Y-92487765D01*
X132092191Y-92697809D01*
X132302235Y-92838157D01*
X132457361Y-92869013D01*
X132118959Y-93242577D01*
X131958096Y-93630961D01*
X132080085Y-93853000D01*
X133223000Y-93853000D01*
X133223000Y-93833000D01*
X133477000Y-93833000D01*
X133477000Y-93853000D01*
X134619915Y-93853000D01*
X134741904Y-93630961D01*
X134581041Y-93242577D01*
X134242639Y-92869013D01*
X134397765Y-92838157D01*
X134607809Y-92697809D01*
X134748157Y-92487765D01*
X134797440Y-92240000D01*
X134797440Y-92200000D01*
X135815153Y-92200000D01*
X135890000Y-92214888D01*
X135964847Y-92200000D01*
X135964852Y-92200000D01*
X136186537Y-92155904D01*
X136437929Y-91987929D01*
X136480331Y-91924470D01*
X140014802Y-88390000D01*
X140396728Y-88390000D01*
X140379673Y-88415524D01*
X134644128Y-94151071D01*
X134619915Y-94107000D01*
X133477000Y-94107000D01*
X133477000Y-94127000D01*
X133223000Y-94127000D01*
X133223000Y-94107000D01*
X132080085Y-94107000D01*
X131958096Y-94329039D01*
X132118959Y-94717423D01*
X132494866Y-95132389D01*
X132699108Y-95229053D01*
X132315423Y-95485423D01*
X131998260Y-95960091D01*
X131996909Y-95966882D01*
X131876764Y-95717337D01*
X131488396Y-95370203D01*
X131143329Y-95227284D01*
X130937000Y-95350626D01*
X130937000Y-96393000D01*
X130957000Y-96393000D01*
X130957000Y-96647000D01*
X130937000Y-96647000D01*
X130937000Y-97689374D01*
X131143329Y-97812716D01*
X131488396Y-97669797D01*
X131876764Y-97322663D01*
X131996909Y-97073118D01*
X131998260Y-97079909D01*
X132315423Y-97554577D01*
X132699108Y-97810947D01*
X132494866Y-97907611D01*
X132118959Y-98322577D01*
X131958096Y-98710961D01*
X132080085Y-98933000D01*
X133223000Y-98933000D01*
X133223000Y-98913000D01*
X133477000Y-98913000D01*
X133477000Y-98933000D01*
X134619915Y-98933000D01*
X134741904Y-98710961D01*
X134581041Y-98322577D01*
X134205134Y-97907611D01*
X134000892Y-97810947D01*
X134384577Y-97554577D01*
X134701740Y-97079909D01*
X134813113Y-96520000D01*
X134748688Y-96196113D01*
X139507405Y-91437398D01*
X139506887Y-91440000D01*
X139571312Y-91763886D01*
X137495523Y-93839676D01*
X137495517Y-93839680D01*
X136675527Y-94659671D01*
X136612072Y-94702071D01*
X136569672Y-94765527D01*
X136569671Y-94765528D01*
X136444097Y-94953463D01*
X136385112Y-95250000D01*
X136400001Y-95324852D01*
X136400000Y-102555198D01*
X131176408Y-107778791D01*
X130956256Y-107735000D01*
X130663744Y-107735000D01*
X130230582Y-107821161D01*
X129739375Y-108149375D01*
X129526157Y-108468478D01*
X129465183Y-108338642D01*
X129036924Y-107948355D01*
X128626890Y-107778524D01*
X128397000Y-107899845D01*
X128397000Y-109093000D01*
X128417000Y-109093000D01*
X128417000Y-109347000D01*
X128397000Y-109347000D01*
X128397000Y-111633000D01*
X128417000Y-111633000D01*
X128417000Y-111887000D01*
X128397000Y-111887000D01*
X128397000Y-111907000D01*
X128143000Y-111907000D01*
X128143000Y-111887000D01*
X128123000Y-111887000D01*
X128123000Y-111633000D01*
X128143000Y-111633000D01*
X128143000Y-109347000D01*
X128123000Y-109347000D01*
X128123000Y-109093000D01*
X128143000Y-109093000D01*
X128143000Y-107899845D01*
X127913110Y-107778524D01*
X127503076Y-107948355D01*
X127198739Y-108225708D01*
X127178157Y-108122235D01*
X127037809Y-107912191D01*
X126827765Y-107771843D01*
X126580000Y-107722560D01*
X124880000Y-107722560D01*
X124632235Y-107771843D01*
X124422191Y-107912191D01*
X124281843Y-108122235D01*
X124232560Y-108370000D01*
X124232560Y-110070000D01*
X124281843Y-110317765D01*
X124422191Y-110527809D01*
X124632235Y-110668157D01*
X124677619Y-110677184D01*
X124659375Y-110689375D01*
X124331161Y-111180582D01*
X124215908Y-111760000D01*
X124288791Y-112126408D01*
X124145199Y-112270000D01*
X122234802Y-112270000D01*
X122091209Y-112126408D01*
X122164092Y-111760000D01*
X122048839Y-111180582D01*
X121720625Y-110689375D01*
X121702381Y-110677184D01*
X121747765Y-110668157D01*
X121957809Y-110527809D01*
X122098157Y-110317765D01*
X122147440Y-110070000D01*
X122147440Y-108370000D01*
X122098157Y-108122235D01*
X121957809Y-107912191D01*
X121747765Y-107771843D01*
X121500000Y-107722560D01*
X119800000Y-107722560D01*
X119552235Y-107771843D01*
X119342191Y-107912191D01*
X119201843Y-108122235D01*
X119181261Y-108225708D01*
X118876924Y-107948355D01*
X118466890Y-107778524D01*
X118237000Y-107899845D01*
X118237000Y-109093000D01*
X118257000Y-109093000D01*
X118257000Y-109347000D01*
X118237000Y-109347000D01*
X118237000Y-111633000D01*
X118257000Y-111633000D01*
X118257000Y-111887000D01*
X118237000Y-111887000D01*
X118237000Y-111907000D01*
X117983000Y-111907000D01*
X117983000Y-111887000D01*
X117963000Y-111887000D01*
X117963000Y-111633000D01*
X117983000Y-111633000D01*
X117983000Y-109347000D01*
X117963000Y-109347000D01*
X117963000Y-109093000D01*
X117983000Y-109093000D01*
X117983000Y-107899845D01*
X117753110Y-107778524D01*
X117343076Y-107948355D01*
X116914817Y-108338642D01*
X116853843Y-108468478D01*
X116640625Y-108149375D01*
X116149418Y-107821161D01*
X115716256Y-107735000D01*
X115423744Y-107735000D01*
X114990582Y-107821161D01*
X114499375Y-108149375D01*
X114171161Y-108640582D01*
X114055908Y-109220000D01*
X101727000Y-109220000D01*
X101727000Y-91070020D01*
X105005092Y-91070020D01*
X105019980Y-91144867D01*
X105019981Y-101094125D01*
X105019980Y-101094130D01*
X105019980Y-101895133D01*
X105005092Y-101969980D01*
X105019980Y-102044827D01*
X105019980Y-102044831D01*
X105064076Y-102266516D01*
X105232051Y-102517909D01*
X105295510Y-102560311D01*
X106508791Y-103773592D01*
X106435908Y-104140000D01*
X106551161Y-104719418D01*
X106879375Y-105210625D01*
X107370582Y-105538839D01*
X107803744Y-105625000D01*
X108096256Y-105625000D01*
X108529418Y-105538839D01*
X109020625Y-105210625D01*
X109220000Y-104912239D01*
X109419375Y-105210625D01*
X109910582Y-105538839D01*
X110343744Y-105625000D01*
X110636256Y-105625000D01*
X111069418Y-105538839D01*
X111560625Y-105210625D01*
X111888839Y-104719418D01*
X112004092Y-104140000D01*
X111888839Y-103560582D01*
X111560625Y-103069375D01*
X111241522Y-102856157D01*
X111371358Y-102795183D01*
X111761645Y-102366924D01*
X111931476Y-101956890D01*
X111810155Y-101727000D01*
X110617000Y-101727000D01*
X110617000Y-101747000D01*
X110363000Y-101747000D01*
X110363000Y-101727000D01*
X108077000Y-101727000D01*
X108077000Y-101747000D01*
X107823000Y-101747000D01*
X107823000Y-101727000D01*
X107803000Y-101727000D01*
X107803000Y-101473000D01*
X107823000Y-101473000D01*
X107823000Y-101453000D01*
X108077000Y-101453000D01*
X108077000Y-101473000D01*
X110363000Y-101473000D01*
X110363000Y-101453000D01*
X110617000Y-101453000D01*
X110617000Y-101473000D01*
X111810155Y-101473000D01*
X111931476Y-101243110D01*
X111761645Y-100833076D01*
X111484292Y-100528739D01*
X111587765Y-100508157D01*
X111797809Y-100367809D01*
X111938157Y-100157765D01*
X111987440Y-99910000D01*
X111987440Y-98210000D01*
X111938157Y-97962235D01*
X111797809Y-97752191D01*
X111587765Y-97611843D01*
X111340000Y-97562560D01*
X109640000Y-97562560D01*
X109392235Y-97611843D01*
X109182191Y-97752191D01*
X109041843Y-97962235D01*
X109032816Y-98007619D01*
X109020625Y-97989375D01*
X108529418Y-97661161D01*
X108096256Y-97575000D01*
X107803744Y-97575000D01*
X107583592Y-97618791D01*
X107440000Y-97475199D01*
X107440000Y-95564801D01*
X107583592Y-95421209D01*
X107803744Y-95465000D01*
X108096256Y-95465000D01*
X108529418Y-95378839D01*
X109020625Y-95050625D01*
X109032816Y-95032381D01*
X109041843Y-95077765D01*
X109182191Y-95287809D01*
X109392235Y-95428157D01*
X109640000Y-95477440D01*
X111340000Y-95477440D01*
X111587765Y-95428157D01*
X111797809Y-95287809D01*
X111938157Y-95077765D01*
X111987440Y-94830000D01*
X111987440Y-93130000D01*
X111938157Y-92882235D01*
X111797809Y-92672191D01*
X111587765Y-92531843D01*
X111484292Y-92511261D01*
X111761645Y-92206924D01*
X111931476Y-91796890D01*
X111810155Y-91567000D01*
X110617000Y-91567000D01*
X110617000Y-91587000D01*
X110363000Y-91587000D01*
X110363000Y-91567000D01*
X108077000Y-91567000D01*
X108077000Y-91587000D01*
X107823000Y-91587000D01*
X107823000Y-91567000D01*
X107803000Y-91567000D01*
X107803000Y-91313000D01*
X107823000Y-91313000D01*
X107823000Y-91293000D01*
X108077000Y-91293000D01*
X108077000Y-91313000D01*
X110363000Y-91313000D01*
X110363000Y-91293000D01*
X110617000Y-91293000D01*
X110617000Y-91313000D01*
X111810155Y-91313000D01*
X111931476Y-91083110D01*
X111761645Y-90673076D01*
X111371358Y-90244817D01*
X111241522Y-90183843D01*
X111560625Y-89970625D01*
X111888839Y-89479418D01*
X112004092Y-88900000D01*
X111888839Y-88320582D01*
X111560625Y-87829375D01*
X111069418Y-87501161D01*
X110636256Y-87415000D01*
X110343744Y-87415000D01*
X109910582Y-87501161D01*
X109419375Y-87829375D01*
X109220000Y-88127761D01*
X109020625Y-87829375D01*
X108529418Y-87501161D01*
X108096256Y-87415000D01*
X107803744Y-87415000D01*
X107370582Y-87501161D01*
X106879375Y-87829375D01*
X106551161Y-88320582D01*
X106435908Y-88900000D01*
X106508791Y-89266407D01*
X105733356Y-90041843D01*
X105295511Y-90479688D01*
X105232052Y-90522090D01*
X105232051Y-90522091D01*
X105064076Y-90773484D01*
X105019980Y-90995169D01*
X105019980Y-90995173D01*
X105005092Y-91070020D01*
X101727000Y-91070020D01*
X101727000Y-81280000D01*
X114055908Y-81280000D01*
X114171161Y-81859418D01*
X114499375Y-82350625D01*
X114797761Y-82550000D01*
X114499375Y-82749375D01*
X114171161Y-83240582D01*
X114055908Y-83820000D01*
X114171161Y-84399418D01*
X114499375Y-84890625D01*
X114990582Y-85218839D01*
X115423744Y-85305000D01*
X115716256Y-85305000D01*
X116149418Y-85218839D01*
X116640625Y-84890625D01*
X116853843Y-84571522D01*
X116914817Y-84701358D01*
X117343076Y-85091645D01*
X117753110Y-85261476D01*
X117983000Y-85140155D01*
X117983000Y-83947000D01*
X117963000Y-83947000D01*
X117963000Y-83693000D01*
X117983000Y-83693000D01*
X117983000Y-81407000D01*
X117963000Y-81407000D01*
X117963000Y-81153000D01*
X117983000Y-81153000D01*
X117983000Y-81133000D01*
X118237000Y-81133000D01*
X118237000Y-81153000D01*
X118257000Y-81153000D01*
X118257000Y-81407000D01*
X118237000Y-81407000D01*
X118237000Y-83693000D01*
X118257000Y-83693000D01*
X118257000Y-83947000D01*
X118237000Y-83947000D01*
X118237000Y-85140155D01*
X118466890Y-85261476D01*
X118876924Y-85091645D01*
X119181261Y-84814292D01*
X119201843Y-84917765D01*
X119342191Y-85127809D01*
X119552235Y-85268157D01*
X119800000Y-85317440D01*
X121500000Y-85317440D01*
X121747765Y-85268157D01*
X121957809Y-85127809D01*
X122098157Y-84917765D01*
X122147440Y-84670000D01*
X122147440Y-82970000D01*
X122098157Y-82722235D01*
X121957809Y-82512191D01*
X121747765Y-82371843D01*
X121702381Y-82362816D01*
X121720625Y-82350625D01*
X122048839Y-81859418D01*
X122164092Y-81280000D01*
X122091209Y-80913592D01*
X122234802Y-80770000D01*
X124145199Y-80770000D01*
X124288791Y-80913592D01*
X124215908Y-81280000D01*
X124331161Y-81859418D01*
X124659375Y-82350625D01*
X124677619Y-82362816D01*
X124632235Y-82371843D01*
X124422191Y-82512191D01*
X124281843Y-82722235D01*
X124232560Y-82970000D01*
X124232560Y-84670000D01*
X124281843Y-84917765D01*
X124422191Y-85127809D01*
X124632235Y-85268157D01*
X124880000Y-85317440D01*
X126580000Y-85317440D01*
X126827765Y-85268157D01*
X127037809Y-85127809D01*
X127178157Y-84917765D01*
X127198739Y-84814292D01*
X127503076Y-85091645D01*
X127913110Y-85261476D01*
X128143000Y-85140155D01*
X128143000Y-83947000D01*
X128123000Y-83947000D01*
X128123000Y-83693000D01*
X128143000Y-83693000D01*
X128143000Y-81407000D01*
X128123000Y-81407000D01*
X128123000Y-81153000D01*
X128143000Y-81153000D01*
X128143000Y-81133000D01*
X128397000Y-81133000D01*
X128397000Y-81153000D01*
X128417000Y-81153000D01*
X128417000Y-81407000D01*
X128397000Y-81407000D01*
X128397000Y-83693000D01*
X128417000Y-83693000D01*
X128417000Y-83947000D01*
X128397000Y-83947000D01*
X128397000Y-85140155D01*
X128626890Y-85261476D01*
X129036924Y-85091645D01*
X129465183Y-84701358D01*
X129526157Y-84571522D01*
X129739375Y-84890625D01*
X130230582Y-85218839D01*
X130663744Y-85305000D01*
X130956256Y-85305000D01*
X131389418Y-85218839D01*
X131880625Y-84890625D01*
X132208839Y-84399418D01*
X132324092Y-83820000D01*
X132208839Y-83240582D01*
X131880625Y-82749375D01*
X131582239Y-82550000D01*
X131880625Y-82350625D01*
X132208839Y-81859418D01*
X132324092Y-81280000D01*
X132208839Y-80700582D01*
X131880625Y-80209375D01*
X131389418Y-79881161D01*
X130956256Y-79795000D01*
X130663744Y-79795000D01*
X130443592Y-79838791D01*
X129230311Y-78625510D01*
X129187909Y-78562051D01*
X128936517Y-78394076D01*
X128714832Y-78349980D01*
X128714827Y-78349980D01*
X128639980Y-78335092D01*
X128565133Y-78349980D01*
X117814868Y-78349980D01*
X117740020Y-78335092D01*
X117665172Y-78349980D01*
X117665168Y-78349980D01*
X117491625Y-78384500D01*
X117443482Y-78394076D01*
X117256438Y-78519056D01*
X117192091Y-78562051D01*
X117149691Y-78625507D01*
X115936408Y-79838791D01*
X115716256Y-79795000D01*
X115423744Y-79795000D01*
X114990582Y-79881161D01*
X114499375Y-80209375D01*
X114171161Y-80700582D01*
X114055908Y-81280000D01*
X101727000Y-81280000D01*
X101727000Y-78365050D01*
X103525000Y-78365050D01*
X103525000Y-79114950D01*
X103811974Y-79807767D01*
X104342233Y-80338026D01*
X105035050Y-80625000D01*
X105784950Y-80625000D01*
X106477767Y-80338026D01*
X107008026Y-79807767D01*
X107295000Y-79114950D01*
X107295000Y-78365050D01*
X107008026Y-77672233D01*
X106477767Y-77141974D01*
X105784950Y-76855000D01*
X105035050Y-76855000D01*
X104342233Y-77141974D01*
X103811974Y-77672233D01*
X103525000Y-78365050D01*
X101727000Y-78365050D01*
X101727000Y-75057000D01*
X190373000Y-75057000D01*
X190373000Y-117983000D01*
X190373000Y-117983000D01*
G37*
X190373000Y-117983000D02*
X101727000Y-117983000D01*
X101727000Y-113925050D01*
X103525000Y-113925050D01*
X103525000Y-114674950D01*
X103811974Y-115367767D01*
X104342233Y-115898026D01*
X105035050Y-116185000D01*
X105784950Y-116185000D01*
X106477767Y-115898026D01*
X107008026Y-115367767D01*
X107295000Y-114674950D01*
X107295000Y-113925050D01*
X107008026Y-113232233D01*
X106477767Y-112701974D01*
X105784950Y-112415000D01*
X105035050Y-112415000D01*
X104342233Y-112701974D01*
X103811974Y-113232233D01*
X103525000Y-113925050D01*
X101727000Y-113925050D01*
X101727000Y-109220000D01*
X114055908Y-109220000D01*
X114171161Y-109799418D01*
X114499375Y-110290625D01*
X114797761Y-110490000D01*
X114499375Y-110689375D01*
X114171161Y-111180582D01*
X114055908Y-111760000D01*
X114171161Y-112339418D01*
X114499375Y-112830625D01*
X114990582Y-113158839D01*
X115423744Y-113245000D01*
X115716256Y-113245000D01*
X115936408Y-113201209D01*
X117149691Y-114414493D01*
X117192091Y-114477949D01*
X117255547Y-114520349D01*
X117443482Y-114645924D01*
X117491625Y-114655500D01*
X117665168Y-114690020D01*
X117665172Y-114690020D01*
X117740020Y-114704908D01*
X117814868Y-114690020D01*
X128565133Y-114690020D01*
X128639980Y-114704908D01*
X128714827Y-114690020D01*
X128714832Y-114690020D01*
X128936517Y-114645924D01*
X129187909Y-114477949D01*
X129230311Y-114414490D01*
X130329051Y-113315750D01*
X144565000Y-113315750D01*
X144565000Y-114006310D01*
X144661673Y-114239699D01*
X144840302Y-114418327D01*
X145073691Y-114515000D01*
X145764250Y-114515000D01*
X145923000Y-114356250D01*
X145923000Y-113157000D01*
X144723750Y-113157000D01*
X144565000Y-113315750D01*
X130329051Y-113315750D01*
X130443592Y-113201209D01*
X130663744Y-113245000D01*
X130956256Y-113245000D01*
X131389418Y-113158839D01*
X131880625Y-112830625D01*
X132208839Y-112339418D01*
X132265673Y-112053690D01*
X144565000Y-112053690D01*
X144565000Y-112744250D01*
X144723750Y-112903000D01*
X145923000Y-112903000D01*
X145923000Y-111703750D01*
X146177000Y-111703750D01*
X146177000Y-112903000D01*
X146197000Y-112903000D01*
X146197000Y-113157000D01*
X146177000Y-113157000D01*
X146177000Y-114356250D01*
X146335750Y-114515000D01*
X147026309Y-114515000D01*
X147259698Y-114418327D01*
X147316975Y-114361051D01*
X147492235Y-114478157D01*
X147740000Y-114527440D01*
X149440000Y-114527440D01*
X149687765Y-114478157D01*
X149860000Y-114363072D01*
X150032235Y-114478157D01*
X150280000Y-114527440D01*
X151980000Y-114527440D01*
X152227765Y-114478157D01*
X152437809Y-114337809D01*
X152578157Y-114127765D01*
X152627440Y-113880000D01*
X152627440Y-112180000D01*
X152578157Y-111932235D01*
X152437809Y-111722191D01*
X152227765Y-111581843D01*
X151980000Y-111532560D01*
X150280000Y-111532560D01*
X150032235Y-111581843D01*
X149860000Y-111696928D01*
X149687765Y-111581843D01*
X149440000Y-111532560D01*
X147740000Y-111532560D01*
X147492235Y-111581843D01*
X147316975Y-111698949D01*
X147259698Y-111641673D01*
X147026309Y-111545000D01*
X146335750Y-111545000D01*
X146177000Y-111703750D01*
X145923000Y-111703750D01*
X145764250Y-111545000D01*
X145073691Y-111545000D01*
X144840302Y-111641673D01*
X144661673Y-111820301D01*
X144565000Y-112053690D01*
X132265673Y-112053690D01*
X132324092Y-111760000D01*
X132208839Y-111180582D01*
X131880625Y-110689375D01*
X131582239Y-110490000D01*
X131880625Y-110290625D01*
X132208839Y-109799418D01*
X132324092Y-109220000D01*
X132251209Y-108853592D01*
X137644473Y-103460329D01*
X137707929Y-103417929D01*
X137875904Y-103166537D01*
X137920000Y-102944852D01*
X137920000Y-102944848D01*
X137934888Y-102870001D01*
X137920000Y-102795154D01*
X137920000Y-99633272D01*
X137945530Y-99650331D01*
X147999671Y-109704473D01*
X148042071Y-109767929D01*
X148105527Y-109810329D01*
X148293462Y-109935904D01*
X148341605Y-109945480D01*
X148515148Y-109980000D01*
X148515152Y-109980000D01*
X148590000Y-109994888D01*
X148664848Y-109980000D01*
X156135153Y-109980000D01*
X156210000Y-109994888D01*
X156284847Y-109980000D01*
X156284852Y-109980000D01*
X156506537Y-109935904D01*
X156757929Y-109767929D01*
X156800331Y-109704470D01*
X157284801Y-109220000D01*
X159775908Y-109220000D01*
X159891161Y-109799418D01*
X160219375Y-110290625D01*
X160517761Y-110490000D01*
X160219375Y-110689375D01*
X159891161Y-111180582D01*
X159775908Y-111760000D01*
X159891161Y-112339418D01*
X160219375Y-112830625D01*
X160710582Y-113158839D01*
X161143744Y-113245000D01*
X161436256Y-113245000D01*
X161656408Y-113201209D01*
X162869689Y-114414491D01*
X162912089Y-114477947D01*
X163163481Y-114645922D01*
X163385166Y-114690018D01*
X163385171Y-114690018D01*
X163460018Y-114704906D01*
X163534865Y-114690018D01*
X174285135Y-114690018D01*
X174359982Y-114704906D01*
X174434829Y-114690018D01*
X174434834Y-114690018D01*
X174656519Y-114645922D01*
X174907911Y-114477947D01*
X174950313Y-114414488D01*
X175439751Y-113925050D01*
X184805000Y-113925050D01*
X184805000Y-114674950D01*
X185091974Y-115367767D01*
X185622233Y-115898026D01*
X186315050Y-116185000D01*
X187064950Y-116185000D01*
X187757767Y-115898026D01*
X188288026Y-115367767D01*
X188575000Y-114674950D01*
X188575000Y-113925050D01*
X188288026Y-113232233D01*
X187757767Y-112701974D01*
X187064950Y-112415000D01*
X186315050Y-112415000D01*
X185622233Y-112701974D01*
X185091974Y-113232233D01*
X184805000Y-113925050D01*
X175439751Y-113925050D01*
X176163593Y-113201209D01*
X176383744Y-113245000D01*
X176676256Y-113245000D01*
X177109418Y-113158839D01*
X177600625Y-112830625D01*
X177928839Y-112339418D01*
X178044092Y-111760000D01*
X177928839Y-111180582D01*
X177600625Y-110689375D01*
X177302239Y-110490000D01*
X177600625Y-110290625D01*
X177928839Y-109799418D01*
X178044092Y-109220000D01*
X177928839Y-108640582D01*
X177600625Y-108149375D01*
X177109418Y-107821161D01*
X176676256Y-107735000D01*
X176383744Y-107735000D01*
X175950582Y-107821161D01*
X175459375Y-108149375D01*
X175246157Y-108468478D01*
X175185183Y-108338642D01*
X174756924Y-107948355D01*
X174346890Y-107778524D01*
X174117000Y-107899845D01*
X174117000Y-109093000D01*
X174137000Y-109093000D01*
X174137000Y-109347000D01*
X174117000Y-109347000D01*
X174117000Y-111633000D01*
X174137000Y-111633000D01*
X174137000Y-111887000D01*
X174117000Y-111887000D01*
X174117000Y-111907000D01*
X173863000Y-111907000D01*
X173863000Y-111887000D01*
X173843000Y-111887000D01*
X173843000Y-111633000D01*
X173863000Y-111633000D01*
X173863000Y-109347000D01*
X173843000Y-109347000D01*
X173843000Y-109093000D01*
X173863000Y-109093000D01*
X173863000Y-107899845D01*
X173633110Y-107778524D01*
X173223076Y-107948355D01*
X172918739Y-108225708D01*
X172898157Y-108122235D01*
X172757809Y-107912191D01*
X172547765Y-107771843D01*
X172300000Y-107722560D01*
X170600000Y-107722560D01*
X170352235Y-107771843D01*
X170142191Y-107912191D01*
X170001843Y-108122235D01*
X169952560Y-108370000D01*
X169952560Y-110070000D01*
X170001843Y-110317765D01*
X170142191Y-110527809D01*
X170352235Y-110668157D01*
X170397619Y-110677184D01*
X170379375Y-110689375D01*
X170051161Y-111180582D01*
X169935908Y-111760000D01*
X170008791Y-112126408D01*
X169865199Y-112270000D01*
X167954802Y-112270000D01*
X167811209Y-112126408D01*
X167884092Y-111760000D01*
X167768839Y-111180582D01*
X167440625Y-110689375D01*
X167422381Y-110677184D01*
X167467765Y-110668157D01*
X167677809Y-110527809D01*
X167818157Y-110317765D01*
X167867440Y-110070000D01*
X167867440Y-108370000D01*
X167818157Y-108122235D01*
X167677809Y-107912191D01*
X167467765Y-107771843D01*
X167220000Y-107722560D01*
X165520000Y-107722560D01*
X165272235Y-107771843D01*
X165062191Y-107912191D01*
X164921843Y-108122235D01*
X164901261Y-108225708D01*
X164596924Y-107948355D01*
X164186890Y-107778524D01*
X163957000Y-107899845D01*
X163957000Y-109093000D01*
X163977000Y-109093000D01*
X163977000Y-109347000D01*
X163957000Y-109347000D01*
X163957000Y-111633000D01*
X163977000Y-111633000D01*
X163977000Y-111887000D01*
X163957000Y-111887000D01*
X163957000Y-111907000D01*
X163703000Y-111907000D01*
X163703000Y-111887000D01*
X163683000Y-111887000D01*
X163683000Y-111633000D01*
X163703000Y-111633000D01*
X163703000Y-109347000D01*
X163683000Y-109347000D01*
X163683000Y-109093000D01*
X163703000Y-109093000D01*
X163703000Y-107899845D01*
X163473110Y-107778524D01*
X163063076Y-107948355D01*
X162634817Y-108338642D01*
X162573843Y-108468478D01*
X162360625Y-108149375D01*
X161869418Y-107821161D01*
X161436256Y-107735000D01*
X161143744Y-107735000D01*
X160710582Y-107821161D01*
X160219375Y-108149375D01*
X159891161Y-108640582D01*
X159775908Y-109220000D01*
X157284801Y-109220000D01*
X160951698Y-105553104D01*
X161004561Y-105575000D01*
X161575439Y-105575000D01*
X162102862Y-105356534D01*
X162506534Y-104952862D01*
X162528430Y-104900000D01*
X162702025Y-104900000D01*
X163073783Y-105271758D01*
X163564452Y-105475000D01*
X164095548Y-105475000D01*
X164586217Y-105271758D01*
X164961758Y-104896217D01*
X165100000Y-104562472D01*
X165238242Y-104896217D01*
X165613783Y-105271758D01*
X166104452Y-105475000D01*
X166635548Y-105475000D01*
X167126217Y-105271758D01*
X167501758Y-104896217D01*
X167705000Y-104405548D01*
X167705000Y-103874452D01*
X167501758Y-103383783D01*
X167126217Y-103008242D01*
X166635548Y-102805000D01*
X166104452Y-102805000D01*
X165613783Y-103008242D01*
X165238242Y-103383783D01*
X165100000Y-103717528D01*
X164961758Y-103383783D01*
X164590000Y-103012025D01*
X164590000Y-99374801D01*
X166131157Y-97833645D01*
X166238515Y-97855000D01*
X166501485Y-97855000D01*
X166890891Y-97777542D01*
X167332481Y-97482481D01*
X167627542Y-97040891D01*
X167731154Y-96520000D01*
X167627542Y-95999109D01*
X167332481Y-95557519D01*
X166890891Y-95262458D01*
X166828261Y-95250000D01*
X166890891Y-95237542D01*
X167332481Y-94942481D01*
X167627542Y-94500891D01*
X167731154Y-93980000D01*
X167627542Y-93459109D01*
X167332481Y-93017519D01*
X166890891Y-92722458D01*
X166501485Y-92645000D01*
X166238515Y-92645000D01*
X165849109Y-92722458D01*
X165407519Y-93017519D01*
X165272226Y-93220000D01*
X164144803Y-93220000D01*
X160584802Y-89660000D01*
X163755153Y-89660000D01*
X163830000Y-89674888D01*
X163904847Y-89660000D01*
X163904852Y-89660000D01*
X164126537Y-89615904D01*
X164377929Y-89447929D01*
X164420331Y-89384470D01*
X164904801Y-88900000D01*
X180095908Y-88900000D01*
X180211161Y-89479418D01*
X180539375Y-89970625D01*
X180858478Y-90183843D01*
X180728642Y-90244817D01*
X180338355Y-90673076D01*
X180168524Y-91083110D01*
X180289845Y-91313000D01*
X181483000Y-91313000D01*
X181483000Y-91293000D01*
X181737000Y-91293000D01*
X181737000Y-91313000D01*
X184023000Y-91313000D01*
X184023000Y-91293000D01*
X184277000Y-91293000D01*
X184277000Y-91313000D01*
X184297000Y-91313000D01*
X184297000Y-91567000D01*
X184277000Y-91567000D01*
X184277000Y-91587000D01*
X184023000Y-91587000D01*
X184023000Y-91567000D01*
X181737000Y-91567000D01*
X181737000Y-91587000D01*
X181483000Y-91587000D01*
X181483000Y-91567000D01*
X180289845Y-91567000D01*
X180168524Y-91796890D01*
X180338355Y-92206924D01*
X180615708Y-92511261D01*
X180512235Y-92531843D01*
X180302191Y-92672191D01*
X180161843Y-92882235D01*
X180112560Y-93130000D01*
X180112560Y-94830000D01*
X180161843Y-95077765D01*
X180302191Y-95287809D01*
X180512235Y-95428157D01*
X180760000Y-95477440D01*
X182460000Y-95477440D01*
X182707765Y-95428157D01*
X182917809Y-95287809D01*
X183058157Y-95077765D01*
X183067184Y-95032381D01*
X183079375Y-95050625D01*
X183570582Y-95378839D01*
X184003744Y-95465000D01*
X184296256Y-95465000D01*
X184516408Y-95421209D01*
X184660000Y-95564802D01*
X184660001Y-97475197D01*
X184516408Y-97618791D01*
X184296256Y-97575000D01*
X184003744Y-97575000D01*
X183570582Y-97661161D01*
X183079375Y-97989375D01*
X183067184Y-98007619D01*
X183058157Y-97962235D01*
X182917809Y-97752191D01*
X182707765Y-97611843D01*
X182460000Y-97562560D01*
X180760000Y-97562560D01*
X180512235Y-97611843D01*
X180302191Y-97752191D01*
X180161843Y-97962235D01*
X180112560Y-98210000D01*
X180112560Y-99910000D01*
X180161843Y-100157765D01*
X180302191Y-100367809D01*
X180512235Y-100508157D01*
X180615708Y-100528739D01*
X180338355Y-100833076D01*
X180168524Y-101243110D01*
X180289845Y-101473000D01*
X181483000Y-101473000D01*
X181483000Y-101453000D01*
X181737000Y-101453000D01*
X181737000Y-101473000D01*
X184023000Y-101473000D01*
X184023000Y-101453000D01*
X184277000Y-101453000D01*
X184277000Y-101473000D01*
X184297000Y-101473000D01*
X184297000Y-101727000D01*
X184277000Y-101727000D01*
X184277000Y-101747000D01*
X184023000Y-101747000D01*
X184023000Y-101727000D01*
X181737000Y-101727000D01*
X181737000Y-101747000D01*
X181483000Y-101747000D01*
X181483000Y-101727000D01*
X180289845Y-101727000D01*
X180168524Y-101956890D01*
X180338355Y-102366924D01*
X180728642Y-102795183D01*
X180858478Y-102856157D01*
X180539375Y-103069375D01*
X180211161Y-103560582D01*
X180095908Y-104140000D01*
X180211161Y-104719418D01*
X180539375Y-105210625D01*
X181030582Y-105538839D01*
X181463744Y-105625000D01*
X181756256Y-105625000D01*
X182189418Y-105538839D01*
X182680625Y-105210625D01*
X182880000Y-104912239D01*
X183079375Y-105210625D01*
X183570582Y-105538839D01*
X184003744Y-105625000D01*
X184296256Y-105625000D01*
X184729418Y-105538839D01*
X185220625Y-105210625D01*
X185548839Y-104719418D01*
X185664092Y-104140000D01*
X185591209Y-103773592D01*
X186804492Y-102560310D01*
X186867948Y-102517910D01*
X187035923Y-102266518D01*
X187080019Y-102044833D01*
X187080019Y-102044829D01*
X187094907Y-101969982D01*
X187080019Y-101895135D01*
X187080019Y-91144865D01*
X187094907Y-91070018D01*
X187080019Y-90995169D01*
X187080019Y-90995167D01*
X187035923Y-90773482D01*
X186968834Y-90673076D01*
X186910348Y-90585545D01*
X186910346Y-90585543D01*
X186867948Y-90522090D01*
X186804495Y-90479692D01*
X185591209Y-89266407D01*
X185664092Y-88900000D01*
X185548839Y-88320582D01*
X185220625Y-87829375D01*
X184729418Y-87501161D01*
X184296256Y-87415000D01*
X184003744Y-87415000D01*
X183570582Y-87501161D01*
X183079375Y-87829375D01*
X182880000Y-88127761D01*
X182680625Y-87829375D01*
X182189418Y-87501161D01*
X181756256Y-87415000D01*
X181463744Y-87415000D01*
X181030582Y-87501161D01*
X180539375Y-87829375D01*
X180211161Y-88320582D01*
X180095908Y-88900000D01*
X164904801Y-88900000D01*
X166109802Y-87695000D01*
X166635548Y-87695000D01*
X167126217Y-87491758D01*
X167501758Y-87116217D01*
X167705000Y-86625548D01*
X167705000Y-86094452D01*
X167501758Y-85603783D01*
X167215415Y-85317440D01*
X167220000Y-85317440D01*
X167467765Y-85268157D01*
X167677809Y-85127809D01*
X167818157Y-84917765D01*
X167867440Y-84670000D01*
X167867440Y-82970000D01*
X167818157Y-82722235D01*
X167677809Y-82512191D01*
X167467765Y-82371843D01*
X167422381Y-82362816D01*
X167440625Y-82350625D01*
X167768839Y-81859418D01*
X167884092Y-81280000D01*
X167811209Y-80913592D01*
X167954802Y-80770000D01*
X169865199Y-80770000D01*
X170008791Y-80913592D01*
X169935908Y-81280000D01*
X170051161Y-81859418D01*
X170379375Y-82350625D01*
X170397619Y-82362816D01*
X170352235Y-82371843D01*
X170142191Y-82512191D01*
X170001843Y-82722235D01*
X169952560Y-82970000D01*
X169952560Y-84670000D01*
X170001843Y-84917765D01*
X170142191Y-85127809D01*
X170352235Y-85268157D01*
X170600000Y-85317440D01*
X172300000Y-85317440D01*
X172547765Y-85268157D01*
X172757809Y-85127809D01*
X172898157Y-84917765D01*
X172918739Y-84814292D01*
X173223076Y-85091645D01*
X173633110Y-85261476D01*
X173863000Y-85140155D01*
X173863000Y-83947000D01*
X173843000Y-83947000D01*
X173843000Y-83693000D01*
X173863000Y-83693000D01*
X173863000Y-81407000D01*
X173843000Y-81407000D01*
X173843000Y-81153000D01*
X173863000Y-81153000D01*
X173863000Y-81133000D01*
X174117000Y-81133000D01*
X174117000Y-81153000D01*
X174137000Y-81153000D01*
X174137000Y-81407000D01*
X174117000Y-81407000D01*
X174117000Y-83693000D01*
X174137000Y-83693000D01*
X174137000Y-83947000D01*
X174117000Y-83947000D01*
X174117000Y-85140155D01*
X174346890Y-85261476D01*
X174756924Y-85091645D01*
X175185183Y-84701358D01*
X175246157Y-84571522D01*
X175459375Y-84890625D01*
X175950582Y-85218839D01*
X176383744Y-85305000D01*
X176676256Y-85305000D01*
X177109418Y-85218839D01*
X177600625Y-84890625D01*
X177928839Y-84399418D01*
X178044092Y-83820000D01*
X177928839Y-83240582D01*
X177600625Y-82749375D01*
X177302239Y-82550000D01*
X177600625Y-82350625D01*
X177928839Y-81859418D01*
X178044092Y-81280000D01*
X177928839Y-80700582D01*
X177600625Y-80209375D01*
X177109418Y-79881161D01*
X176676256Y-79795000D01*
X176383744Y-79795000D01*
X176163593Y-79838791D01*
X174950312Y-78625511D01*
X174907910Y-78562052D01*
X174656518Y-78394077D01*
X174510590Y-78365050D01*
X184805000Y-78365050D01*
X184805000Y-79114950D01*
X185091974Y-79807767D01*
X185622233Y-80338026D01*
X186315050Y-80625000D01*
X187064950Y-80625000D01*
X187757767Y-80338026D01*
X188288026Y-79807767D01*
X188575000Y-79114950D01*
X188575000Y-78365050D01*
X188288026Y-77672233D01*
X187757767Y-77141974D01*
X187064950Y-76855000D01*
X186315050Y-76855000D01*
X185622233Y-77141974D01*
X185091974Y-77672233D01*
X184805000Y-78365050D01*
X174510590Y-78365050D01*
X174434833Y-78349981D01*
X174434828Y-78349981D01*
X174359981Y-78335093D01*
X174285134Y-78349981D01*
X163534865Y-78349981D01*
X163460018Y-78335093D01*
X163385171Y-78349981D01*
X163385167Y-78349981D01*
X163163482Y-78394077D01*
X163163480Y-78394078D01*
X163163481Y-78394078D01*
X162975545Y-78519652D01*
X162975543Y-78519654D01*
X162912090Y-78562052D01*
X162869692Y-78625505D01*
X161656407Y-79838791D01*
X161436256Y-79795000D01*
X161143744Y-79795000D01*
X160710582Y-79881161D01*
X160219375Y-80209375D01*
X159891161Y-80700582D01*
X159775908Y-81280000D01*
X159891161Y-81859418D01*
X160219375Y-82350625D01*
X160517761Y-82550000D01*
X160219375Y-82749375D01*
X160011822Y-83060000D01*
X158824846Y-83060000D01*
X158749999Y-83045112D01*
X158675152Y-83060000D01*
X158675148Y-83060000D01*
X158453463Y-83104096D01*
X158453461Y-83104097D01*
X158453462Y-83104097D01*
X158265526Y-83229671D01*
X158265524Y-83229673D01*
X158202071Y-83272071D01*
X158159673Y-83335524D01*
X156052763Y-85442436D01*
X155974577Y-85325423D01*
X155622242Y-85090000D01*
X155974577Y-84854577D01*
X156291740Y-84379909D01*
X156403113Y-83820000D01*
X156291740Y-83260091D01*
X155974577Y-82785423D01*
X155499909Y-82468260D01*
X155081333Y-82385000D01*
X154798667Y-82385000D01*
X154380091Y-82468260D01*
X153905423Y-82785423D01*
X153588260Y-83260091D01*
X153476887Y-83820000D01*
X153588260Y-84379909D01*
X153905423Y-84854577D01*
X154257758Y-85090000D01*
X153905423Y-85325423D01*
X153588260Y-85800091D01*
X153476887Y-86360000D01*
X153588260Y-86919909D01*
X153905423Y-87394577D01*
X154257758Y-87630000D01*
X153905423Y-87865423D01*
X153588260Y-88340091D01*
X153476887Y-88900000D01*
X153588260Y-89459909D01*
X153905423Y-89934577D01*
X154257758Y-90170000D01*
X153905423Y-90405423D01*
X153588260Y-90880091D01*
X153476887Y-91440000D01*
X153588260Y-91999909D01*
X153905423Y-92474577D01*
X154380091Y-92791740D01*
X154798667Y-92875000D01*
X155081333Y-92875000D01*
X155263886Y-92838688D01*
X155450000Y-93024802D01*
X155450000Y-93802560D01*
X155410000Y-93802560D01*
X155162235Y-93851843D01*
X154952191Y-93992191D01*
X154811843Y-94202235D01*
X154762560Y-94450000D01*
X154762560Y-96050000D01*
X154811843Y-96297765D01*
X154952191Y-96507809D01*
X155162235Y-96648157D01*
X155296106Y-96674785D01*
X155175423Y-96755423D01*
X155097238Y-96872436D01*
X149180331Y-90955530D01*
X149137929Y-90892071D01*
X148886537Y-90724096D01*
X148664852Y-90680000D01*
X148664847Y-90680000D01*
X148590000Y-90665112D01*
X148535358Y-90675981D01*
X148354577Y-90405423D01*
X147970892Y-90149053D01*
X148175134Y-90052389D01*
X148551041Y-89637423D01*
X148711904Y-89249039D01*
X148589915Y-89027000D01*
X147447000Y-89027000D01*
X147447000Y-89047000D01*
X147193000Y-89047000D01*
X147193000Y-89027000D01*
X146050085Y-89027000D01*
X145928096Y-89249039D01*
X146088959Y-89637423D01*
X146464866Y-90052389D01*
X146669108Y-90149053D01*
X146285423Y-90405423D01*
X146207238Y-90522436D01*
X142830331Y-87145530D01*
X142813272Y-87120000D01*
X146101957Y-87120000D01*
X146285423Y-87394577D01*
X146669108Y-87650947D01*
X146464866Y-87747611D01*
X146088959Y-88162577D01*
X145928096Y-88550961D01*
X146050085Y-88773000D01*
X147193000Y-88773000D01*
X147193000Y-88753000D01*
X147447000Y-88753000D01*
X147447000Y-88773000D01*
X148589915Y-88773000D01*
X148711904Y-88550961D01*
X148551041Y-88162577D01*
X148175134Y-87747611D01*
X147970892Y-87650947D01*
X148354577Y-87394577D01*
X148671740Y-86919909D01*
X148783113Y-86360000D01*
X148671740Y-85800091D01*
X148354577Y-85325423D01*
X148233894Y-85244785D01*
X148367765Y-85218157D01*
X148577809Y-85077809D01*
X148718157Y-84867765D01*
X148767440Y-84620000D01*
X148767440Y-83020000D01*
X148718157Y-82772235D01*
X148577809Y-82562191D01*
X148367765Y-82421843D01*
X148120000Y-82372560D01*
X146520000Y-82372560D01*
X146272235Y-82421843D01*
X146062191Y-82562191D01*
X145921843Y-82772235D01*
X145872560Y-83020000D01*
X145872560Y-84620000D01*
X145921843Y-84867765D01*
X146062191Y-85077809D01*
X146272235Y-85218157D01*
X146406106Y-85244785D01*
X146285423Y-85325423D01*
X146101957Y-85600000D01*
X138504846Y-85600000D01*
X138429999Y-85585112D01*
X138355152Y-85600000D01*
X138355148Y-85600000D01*
X138133463Y-85644096D01*
X138133461Y-85644097D01*
X138133462Y-85644097D01*
X137945526Y-85769671D01*
X137945524Y-85769673D01*
X137882071Y-85812071D01*
X137839673Y-85875524D01*
X137387440Y-86327757D01*
X137387440Y-85510000D01*
X137338157Y-85262235D01*
X137197809Y-85052191D01*
X136987765Y-84911843D01*
X136740000Y-84862560D01*
X135040000Y-84862560D01*
X134792235Y-84911843D01*
X134620000Y-85026928D01*
X134447765Y-84911843D01*
X134200000Y-84862560D01*
X132500000Y-84862560D01*
X132252235Y-84911843D01*
X132042191Y-85052191D01*
X131901843Y-85262235D01*
X131852560Y-85510000D01*
X131852560Y-86782638D01*
X128508844Y-90126355D01*
X128401485Y-90105000D01*
X128138515Y-90105000D01*
X127749109Y-90182458D01*
X127307519Y-90477519D01*
X127012458Y-90919109D01*
X126908846Y-91440000D01*
X127012458Y-91960891D01*
X127307519Y-92402481D01*
X127749109Y-92697542D01*
X128138515Y-92775000D01*
X128400199Y-92775000D01*
X127785528Y-93389671D01*
X127722072Y-93432071D01*
X127679673Y-93495526D01*
X127679671Y-93495528D01*
X127554097Y-93683463D01*
X127495112Y-93980000D01*
X127510001Y-94054852D01*
X127510000Y-97932025D01*
X127138242Y-98303783D01*
X126935000Y-98794452D01*
X126935000Y-99325548D01*
X127138242Y-99816217D01*
X127513783Y-100191758D01*
X128004452Y-100395000D01*
X128530198Y-100395000D01*
X130050000Y-101914803D01*
X130050001Y-103012024D01*
X129678242Y-103383783D01*
X129475000Y-103874452D01*
X129475000Y-104405548D01*
X129678242Y-104896217D01*
X130053783Y-105271758D01*
X130544452Y-105475000D01*
X131075548Y-105475000D01*
X131566217Y-105271758D01*
X131941758Y-104896217D01*
X132145000Y-104405548D01*
X132145000Y-103874452D01*
X131941758Y-103383783D01*
X131570000Y-103012025D01*
X131570000Y-101674846D01*
X131584888Y-101599999D01*
X131570000Y-101525152D01*
X131570000Y-101525148D01*
X131525904Y-101303463D01*
X131453784Y-101195528D01*
X131400329Y-101115526D01*
X131400327Y-101115524D01*
X131357929Y-101052071D01*
X131294476Y-101009673D01*
X129693842Y-99409039D01*
X131958096Y-99409039D01*
X132118959Y-99797423D01*
X132494866Y-100212389D01*
X133000959Y-100451914D01*
X133223000Y-100330629D01*
X133223000Y-99187000D01*
X133477000Y-99187000D01*
X133477000Y-100330629D01*
X133699041Y-100451914D01*
X134205134Y-100212389D01*
X134581041Y-99797423D01*
X134741904Y-99409039D01*
X134619915Y-99187000D01*
X133477000Y-99187000D01*
X133223000Y-99187000D01*
X132080085Y-99187000D01*
X131958096Y-99409039D01*
X129693842Y-99409039D01*
X129605000Y-99320198D01*
X129605000Y-98794452D01*
X129401758Y-98303783D01*
X129030000Y-97932025D01*
X129030000Y-96853331D01*
X129517273Y-96853331D01*
X129743236Y-97322663D01*
X130131604Y-97669797D01*
X130476671Y-97812716D01*
X130683000Y-97689374D01*
X130683000Y-96647000D01*
X129639794Y-96647000D01*
X129517273Y-96853331D01*
X129030000Y-96853331D01*
X129030000Y-96186669D01*
X129517273Y-96186669D01*
X129639794Y-96393000D01*
X130683000Y-96393000D01*
X130683000Y-95350626D01*
X130476671Y-95227284D01*
X130131604Y-95370203D01*
X129743236Y-95717337D01*
X129517273Y-96186669D01*
X129030000Y-96186669D01*
X129030000Y-94294801D01*
X131902560Y-91422242D01*
X131902560Y-92240000D01*
X131951843Y-92487765D01*
X132092191Y-92697809D01*
X132302235Y-92838157D01*
X132457361Y-92869013D01*
X132118959Y-93242577D01*
X131958096Y-93630961D01*
X132080085Y-93853000D01*
X133223000Y-93853000D01*
X133223000Y-93833000D01*
X133477000Y-93833000D01*
X133477000Y-93853000D01*
X134619915Y-93853000D01*
X134741904Y-93630961D01*
X134581041Y-93242577D01*
X134242639Y-92869013D01*
X134397765Y-92838157D01*
X134607809Y-92697809D01*
X134748157Y-92487765D01*
X134797440Y-92240000D01*
X134797440Y-92200000D01*
X135815153Y-92200000D01*
X135890000Y-92214888D01*
X135964847Y-92200000D01*
X135964852Y-92200000D01*
X136186537Y-92155904D01*
X136437929Y-91987929D01*
X136480331Y-91924470D01*
X140014802Y-88390000D01*
X140396728Y-88390000D01*
X140379673Y-88415524D01*
X134644128Y-94151071D01*
X134619915Y-94107000D01*
X133477000Y-94107000D01*
X133477000Y-94127000D01*
X133223000Y-94127000D01*
X133223000Y-94107000D01*
X132080085Y-94107000D01*
X131958096Y-94329039D01*
X132118959Y-94717423D01*
X132494866Y-95132389D01*
X132699108Y-95229053D01*
X132315423Y-95485423D01*
X131998260Y-95960091D01*
X131996909Y-95966882D01*
X131876764Y-95717337D01*
X131488396Y-95370203D01*
X131143329Y-95227284D01*
X130937000Y-95350626D01*
X130937000Y-96393000D01*
X130957000Y-96393000D01*
X130957000Y-96647000D01*
X130937000Y-96647000D01*
X130937000Y-97689374D01*
X131143329Y-97812716D01*
X131488396Y-97669797D01*
X131876764Y-97322663D01*
X131996909Y-97073118D01*
X131998260Y-97079909D01*
X132315423Y-97554577D01*
X132699108Y-97810947D01*
X132494866Y-97907611D01*
X132118959Y-98322577D01*
X131958096Y-98710961D01*
X132080085Y-98933000D01*
X133223000Y-98933000D01*
X133223000Y-98913000D01*
X133477000Y-98913000D01*
X133477000Y-98933000D01*
X134619915Y-98933000D01*
X134741904Y-98710961D01*
X134581041Y-98322577D01*
X134205134Y-97907611D01*
X134000892Y-97810947D01*
X134384577Y-97554577D01*
X134701740Y-97079909D01*
X134813113Y-96520000D01*
X134748688Y-96196113D01*
X139507405Y-91437398D01*
X139506887Y-91440000D01*
X139571312Y-91763886D01*
X137495523Y-93839676D01*
X137495517Y-93839680D01*
X136675527Y-94659671D01*
X136612072Y-94702071D01*
X136569672Y-94765527D01*
X136569671Y-94765528D01*
X136444097Y-94953463D01*
X136385112Y-95250000D01*
X136400001Y-95324852D01*
X136400000Y-102555198D01*
X131176408Y-107778791D01*
X130956256Y-107735000D01*
X130663744Y-107735000D01*
X130230582Y-107821161D01*
X129739375Y-108149375D01*
X129526157Y-108468478D01*
X129465183Y-108338642D01*
X129036924Y-107948355D01*
X128626890Y-107778524D01*
X128397000Y-107899845D01*
X128397000Y-109093000D01*
X128417000Y-109093000D01*
X128417000Y-109347000D01*
X128397000Y-109347000D01*
X128397000Y-111633000D01*
X128417000Y-111633000D01*
X128417000Y-111887000D01*
X128397000Y-111887000D01*
X128397000Y-111907000D01*
X128143000Y-111907000D01*
X128143000Y-111887000D01*
X128123000Y-111887000D01*
X128123000Y-111633000D01*
X128143000Y-111633000D01*
X128143000Y-109347000D01*
X128123000Y-109347000D01*
X128123000Y-109093000D01*
X128143000Y-109093000D01*
X128143000Y-107899845D01*
X127913110Y-107778524D01*
X127503076Y-107948355D01*
X127198739Y-108225708D01*
X127178157Y-108122235D01*
X127037809Y-107912191D01*
X126827765Y-107771843D01*
X126580000Y-107722560D01*
X124880000Y-107722560D01*
X124632235Y-107771843D01*
X124422191Y-107912191D01*
X124281843Y-108122235D01*
X124232560Y-108370000D01*
X124232560Y-110070000D01*
X124281843Y-110317765D01*
X124422191Y-110527809D01*
X124632235Y-110668157D01*
X124677619Y-110677184D01*
X124659375Y-110689375D01*
X124331161Y-111180582D01*
X124215908Y-111760000D01*
X124288791Y-112126408D01*
X124145199Y-112270000D01*
X122234802Y-112270000D01*
X122091209Y-112126408D01*
X122164092Y-111760000D01*
X122048839Y-111180582D01*
X121720625Y-110689375D01*
X121702381Y-110677184D01*
X121747765Y-110668157D01*
X121957809Y-110527809D01*
X122098157Y-110317765D01*
X122147440Y-110070000D01*
X122147440Y-108370000D01*
X122098157Y-108122235D01*
X121957809Y-107912191D01*
X121747765Y-107771843D01*
X121500000Y-107722560D01*
X119800000Y-107722560D01*
X119552235Y-107771843D01*
X119342191Y-107912191D01*
X119201843Y-108122235D01*
X119181261Y-108225708D01*
X118876924Y-107948355D01*
X118466890Y-107778524D01*
X118237000Y-107899845D01*
X118237000Y-109093000D01*
X118257000Y-109093000D01*
X118257000Y-109347000D01*
X118237000Y-109347000D01*
X118237000Y-111633000D01*
X118257000Y-111633000D01*
X118257000Y-111887000D01*
X118237000Y-111887000D01*
X118237000Y-111907000D01*
X117983000Y-111907000D01*
X117983000Y-111887000D01*
X117963000Y-111887000D01*
X117963000Y-111633000D01*
X117983000Y-111633000D01*
X117983000Y-109347000D01*
X117963000Y-109347000D01*
X117963000Y-109093000D01*
X117983000Y-109093000D01*
X117983000Y-107899845D01*
X117753110Y-107778524D01*
X117343076Y-107948355D01*
X116914817Y-108338642D01*
X116853843Y-108468478D01*
X116640625Y-108149375D01*
X116149418Y-107821161D01*
X115716256Y-107735000D01*
X115423744Y-107735000D01*
X114990582Y-107821161D01*
X114499375Y-108149375D01*
X114171161Y-108640582D01*
X114055908Y-109220000D01*
X101727000Y-109220000D01*
X101727000Y-91070020D01*
X105005092Y-91070020D01*
X105019980Y-91144867D01*
X105019981Y-101094125D01*
X105019980Y-101094130D01*
X105019980Y-101895133D01*
X105005092Y-101969980D01*
X105019980Y-102044827D01*
X105019980Y-102044831D01*
X105064076Y-102266516D01*
X105232051Y-102517909D01*
X105295510Y-102560311D01*
X106508791Y-103773592D01*
X106435908Y-104140000D01*
X106551161Y-104719418D01*
X106879375Y-105210625D01*
X107370582Y-105538839D01*
X107803744Y-105625000D01*
X108096256Y-105625000D01*
X108529418Y-105538839D01*
X109020625Y-105210625D01*
X109220000Y-104912239D01*
X109419375Y-105210625D01*
X109910582Y-105538839D01*
X110343744Y-105625000D01*
X110636256Y-105625000D01*
X111069418Y-105538839D01*
X111560625Y-105210625D01*
X111888839Y-104719418D01*
X112004092Y-104140000D01*
X111888839Y-103560582D01*
X111560625Y-103069375D01*
X111241522Y-102856157D01*
X111371358Y-102795183D01*
X111761645Y-102366924D01*
X111931476Y-101956890D01*
X111810155Y-101727000D01*
X110617000Y-101727000D01*
X110617000Y-101747000D01*
X110363000Y-101747000D01*
X110363000Y-101727000D01*
X108077000Y-101727000D01*
X108077000Y-101747000D01*
X107823000Y-101747000D01*
X107823000Y-101727000D01*
X107803000Y-101727000D01*
X107803000Y-101473000D01*
X107823000Y-101473000D01*
X107823000Y-101453000D01*
X108077000Y-101453000D01*
X108077000Y-101473000D01*
X110363000Y-101473000D01*
X110363000Y-101453000D01*
X110617000Y-101453000D01*
X110617000Y-101473000D01*
X111810155Y-101473000D01*
X111931476Y-101243110D01*
X111761645Y-100833076D01*
X111484292Y-100528739D01*
X111587765Y-100508157D01*
X111797809Y-100367809D01*
X111938157Y-100157765D01*
X111987440Y-99910000D01*
X111987440Y-98210000D01*
X111938157Y-97962235D01*
X111797809Y-97752191D01*
X111587765Y-97611843D01*
X111340000Y-97562560D01*
X109640000Y-97562560D01*
X109392235Y-97611843D01*
X109182191Y-97752191D01*
X109041843Y-97962235D01*
X109032816Y-98007619D01*
X109020625Y-97989375D01*
X108529418Y-97661161D01*
X108096256Y-97575000D01*
X107803744Y-97575000D01*
X107583592Y-97618791D01*
X107440000Y-97475199D01*
X107440000Y-95564801D01*
X107583592Y-95421209D01*
X107803744Y-95465000D01*
X108096256Y-95465000D01*
X108529418Y-95378839D01*
X109020625Y-95050625D01*
X109032816Y-95032381D01*
X109041843Y-95077765D01*
X109182191Y-95287809D01*
X109392235Y-95428157D01*
X109640000Y-95477440D01*
X111340000Y-95477440D01*
X111587765Y-95428157D01*
X111797809Y-95287809D01*
X111938157Y-95077765D01*
X111987440Y-94830000D01*
X111987440Y-93130000D01*
X111938157Y-92882235D01*
X111797809Y-92672191D01*
X111587765Y-92531843D01*
X111484292Y-92511261D01*
X111761645Y-92206924D01*
X111931476Y-91796890D01*
X111810155Y-91567000D01*
X110617000Y-91567000D01*
X110617000Y-91587000D01*
X110363000Y-91587000D01*
X110363000Y-91567000D01*
X108077000Y-91567000D01*
X108077000Y-91587000D01*
X107823000Y-91587000D01*
X107823000Y-91567000D01*
X107803000Y-91567000D01*
X107803000Y-91313000D01*
X107823000Y-91313000D01*
X107823000Y-91293000D01*
X108077000Y-91293000D01*
X108077000Y-91313000D01*
X110363000Y-91313000D01*
X110363000Y-91293000D01*
X110617000Y-91293000D01*
X110617000Y-91313000D01*
X111810155Y-91313000D01*
X111931476Y-91083110D01*
X111761645Y-90673076D01*
X111371358Y-90244817D01*
X111241522Y-90183843D01*
X111560625Y-89970625D01*
X111888839Y-89479418D01*
X112004092Y-88900000D01*
X111888839Y-88320582D01*
X111560625Y-87829375D01*
X111069418Y-87501161D01*
X110636256Y-87415000D01*
X110343744Y-87415000D01*
X109910582Y-87501161D01*
X109419375Y-87829375D01*
X109220000Y-88127761D01*
X109020625Y-87829375D01*
X108529418Y-87501161D01*
X108096256Y-87415000D01*
X107803744Y-87415000D01*
X107370582Y-87501161D01*
X106879375Y-87829375D01*
X106551161Y-88320582D01*
X106435908Y-88900000D01*
X106508791Y-89266407D01*
X105733356Y-90041843D01*
X105295511Y-90479688D01*
X105232052Y-90522090D01*
X105232051Y-90522091D01*
X105064076Y-90773484D01*
X105019980Y-90995169D01*
X105019980Y-90995173D01*
X105005092Y-91070020D01*
X101727000Y-91070020D01*
X101727000Y-81280000D01*
X114055908Y-81280000D01*
X114171161Y-81859418D01*
X114499375Y-82350625D01*
X114797761Y-82550000D01*
X114499375Y-82749375D01*
X114171161Y-83240582D01*
X114055908Y-83820000D01*
X114171161Y-84399418D01*
X114499375Y-84890625D01*
X114990582Y-85218839D01*
X115423744Y-85305000D01*
X115716256Y-85305000D01*
X116149418Y-85218839D01*
X116640625Y-84890625D01*
X116853843Y-84571522D01*
X116914817Y-84701358D01*
X117343076Y-85091645D01*
X117753110Y-85261476D01*
X117983000Y-85140155D01*
X117983000Y-83947000D01*
X117963000Y-83947000D01*
X117963000Y-83693000D01*
X117983000Y-83693000D01*
X117983000Y-81407000D01*
X117963000Y-81407000D01*
X117963000Y-81153000D01*
X117983000Y-81153000D01*
X117983000Y-81133000D01*
X118237000Y-81133000D01*
X118237000Y-81153000D01*
X118257000Y-81153000D01*
X118257000Y-81407000D01*
X118237000Y-81407000D01*
X118237000Y-83693000D01*
X118257000Y-83693000D01*
X118257000Y-83947000D01*
X118237000Y-83947000D01*
X118237000Y-85140155D01*
X118466890Y-85261476D01*
X118876924Y-85091645D01*
X119181261Y-84814292D01*
X119201843Y-84917765D01*
X119342191Y-85127809D01*
X119552235Y-85268157D01*
X119800000Y-85317440D01*
X121500000Y-85317440D01*
X121747765Y-85268157D01*
X121957809Y-85127809D01*
X122098157Y-84917765D01*
X122147440Y-84670000D01*
X122147440Y-82970000D01*
X122098157Y-82722235D01*
X121957809Y-82512191D01*
X121747765Y-82371843D01*
X121702381Y-82362816D01*
X121720625Y-82350625D01*
X122048839Y-81859418D01*
X122164092Y-81280000D01*
X122091209Y-80913592D01*
X122234802Y-80770000D01*
X124145199Y-80770000D01*
X124288791Y-80913592D01*
X124215908Y-81280000D01*
X124331161Y-81859418D01*
X124659375Y-82350625D01*
X124677619Y-82362816D01*
X124632235Y-82371843D01*
X124422191Y-82512191D01*
X124281843Y-82722235D01*
X124232560Y-82970000D01*
X124232560Y-84670000D01*
X124281843Y-84917765D01*
X124422191Y-85127809D01*
X124632235Y-85268157D01*
X124880000Y-85317440D01*
X126580000Y-85317440D01*
X126827765Y-85268157D01*
X127037809Y-85127809D01*
X127178157Y-84917765D01*
X127198739Y-84814292D01*
X127503076Y-85091645D01*
X127913110Y-85261476D01*
X128143000Y-85140155D01*
X128143000Y-83947000D01*
X128123000Y-83947000D01*
X128123000Y-83693000D01*
X128143000Y-83693000D01*
X128143000Y-81407000D01*
X128123000Y-81407000D01*
X128123000Y-81153000D01*
X128143000Y-81153000D01*
X128143000Y-81133000D01*
X128397000Y-81133000D01*
X128397000Y-81153000D01*
X128417000Y-81153000D01*
X128417000Y-81407000D01*
X128397000Y-81407000D01*
X128397000Y-83693000D01*
X128417000Y-83693000D01*
X128417000Y-83947000D01*
X128397000Y-83947000D01*
X128397000Y-85140155D01*
X128626890Y-85261476D01*
X129036924Y-85091645D01*
X129465183Y-84701358D01*
X129526157Y-84571522D01*
X129739375Y-84890625D01*
X130230582Y-85218839D01*
X130663744Y-85305000D01*
X130956256Y-85305000D01*
X131389418Y-85218839D01*
X131880625Y-84890625D01*
X132208839Y-84399418D01*
X132324092Y-83820000D01*
X132208839Y-83240582D01*
X131880625Y-82749375D01*
X131582239Y-82550000D01*
X131880625Y-82350625D01*
X132208839Y-81859418D01*
X132324092Y-81280000D01*
X132208839Y-80700582D01*
X131880625Y-80209375D01*
X131389418Y-79881161D01*
X130956256Y-79795000D01*
X130663744Y-79795000D01*
X130443592Y-79838791D01*
X129230311Y-78625510D01*
X129187909Y-78562051D01*
X128936517Y-78394076D01*
X128714832Y-78349980D01*
X128714827Y-78349980D01*
X128639980Y-78335092D01*
X128565133Y-78349980D01*
X117814868Y-78349980D01*
X117740020Y-78335092D01*
X117665172Y-78349980D01*
X117665168Y-78349980D01*
X117491625Y-78384500D01*
X117443482Y-78394076D01*
X117256438Y-78519056D01*
X117192091Y-78562051D01*
X117149691Y-78625507D01*
X115936408Y-79838791D01*
X115716256Y-79795000D01*
X115423744Y-79795000D01*
X114990582Y-79881161D01*
X114499375Y-80209375D01*
X114171161Y-80700582D01*
X114055908Y-81280000D01*
X101727000Y-81280000D01*
X101727000Y-78365050D01*
X103525000Y-78365050D01*
X103525000Y-79114950D01*
X103811974Y-79807767D01*
X104342233Y-80338026D01*
X105035050Y-80625000D01*
X105784950Y-80625000D01*
X106477767Y-80338026D01*
X107008026Y-79807767D01*
X107295000Y-79114950D01*
X107295000Y-78365050D01*
X107008026Y-77672233D01*
X106477767Y-77141974D01*
X105784950Y-76855000D01*
X105035050Y-76855000D01*
X104342233Y-77141974D01*
X103811974Y-77672233D01*
X103525000Y-78365050D01*
X101727000Y-78365050D01*
X101727000Y-75057000D01*
X190373000Y-75057000D01*
X190373000Y-117983000D01*
G36*
X147191312Y-94926114D02*
X147126887Y-95250000D01*
X147238260Y-95809909D01*
X147555423Y-96284577D01*
X147676106Y-96365215D01*
X147542235Y-96391843D01*
X147332191Y-96532191D01*
X147191843Y-96742235D01*
X147142560Y-96990000D01*
X147142560Y-98590000D01*
X147191843Y-98837765D01*
X147332191Y-99047809D01*
X147542235Y-99188157D01*
X147790000Y-99237440D01*
X147794585Y-99237440D01*
X147458242Y-99573783D01*
X147255000Y-100064452D01*
X147255000Y-100595548D01*
X147458242Y-101086217D01*
X147830000Y-101457975D01*
X147830001Y-101742024D01*
X147458242Y-102113783D01*
X147255000Y-102604452D01*
X147255000Y-103135548D01*
X147458242Y-103626217D01*
X147830000Y-103997975D01*
X147830001Y-104282024D01*
X147458242Y-104653783D01*
X147255000Y-105144452D01*
X147255000Y-105540197D01*
X141887564Y-100172763D01*
X142004577Y-100094577D01*
X142321740Y-99619909D01*
X142433113Y-99060000D01*
X142321740Y-98500091D01*
X142004577Y-98025423D01*
X141620892Y-97769053D01*
X141825134Y-97672389D01*
X142201041Y-97257423D01*
X142361904Y-96869039D01*
X142239915Y-96647000D01*
X141097000Y-96647000D01*
X141097000Y-96667000D01*
X140843000Y-96667000D01*
X140843000Y-96647000D01*
X139700085Y-96647000D01*
X139578096Y-96869039D01*
X139738959Y-97257423D01*
X140114866Y-97672389D01*
X140319108Y-97769053D01*
X139935423Y-98025423D01*
X139618260Y-98500091D01*
X139506887Y-99060000D01*
X139507405Y-99062604D01*
X139190000Y-98745199D01*
X139190000Y-95564801D01*
X139857238Y-94897564D01*
X139935423Y-95014577D01*
X140319108Y-95270947D01*
X140114866Y-95367611D01*
X139738959Y-95782577D01*
X139578096Y-96170961D01*
X139700085Y-96393000D01*
X140843000Y-96393000D01*
X140843000Y-96373000D01*
X141097000Y-96373000D01*
X141097000Y-96393000D01*
X142239915Y-96393000D01*
X142361904Y-96170961D01*
X142201041Y-95782577D01*
X141825134Y-95367611D01*
X141620892Y-95270947D01*
X142004577Y-95014577D01*
X142321740Y-94539909D01*
X142433113Y-93980000D01*
X142321740Y-93420091D01*
X142004577Y-92945423D01*
X141652242Y-92710000D01*
X142004577Y-92474577D01*
X142321740Y-91999909D01*
X142433113Y-91440000D01*
X142321740Y-90880091D01*
X142004577Y-90405423D01*
X141529909Y-90088260D01*
X141111333Y-90005000D01*
X140939803Y-90005000D01*
X141284803Y-89660000D01*
X141925199Y-89660000D01*
X147191312Y-94926114D01*
X147191312Y-94926114D01*
G37*
X147191312Y-94926114D02*
X147126887Y-95250000D01*
X147238260Y-95809909D01*
X147555423Y-96284577D01*
X147676106Y-96365215D01*
X147542235Y-96391843D01*
X147332191Y-96532191D01*
X147191843Y-96742235D01*
X147142560Y-96990000D01*
X147142560Y-98590000D01*
X147191843Y-98837765D01*
X147332191Y-99047809D01*
X147542235Y-99188157D01*
X147790000Y-99237440D01*
X147794585Y-99237440D01*
X147458242Y-99573783D01*
X147255000Y-100064452D01*
X147255000Y-100595548D01*
X147458242Y-101086217D01*
X147830000Y-101457975D01*
X147830001Y-101742024D01*
X147458242Y-102113783D01*
X147255000Y-102604452D01*
X147255000Y-103135548D01*
X147458242Y-103626217D01*
X147830000Y-103997975D01*
X147830001Y-104282024D01*
X147458242Y-104653783D01*
X147255000Y-105144452D01*
X147255000Y-105540197D01*
X141887564Y-100172763D01*
X142004577Y-100094577D01*
X142321740Y-99619909D01*
X142433113Y-99060000D01*
X142321740Y-98500091D01*
X142004577Y-98025423D01*
X141620892Y-97769053D01*
X141825134Y-97672389D01*
X142201041Y-97257423D01*
X142361904Y-96869039D01*
X142239915Y-96647000D01*
X141097000Y-96647000D01*
X141097000Y-96667000D01*
X140843000Y-96667000D01*
X140843000Y-96647000D01*
X139700085Y-96647000D01*
X139578096Y-96869039D01*
X139738959Y-97257423D01*
X140114866Y-97672389D01*
X140319108Y-97769053D01*
X139935423Y-98025423D01*
X139618260Y-98500091D01*
X139506887Y-99060000D01*
X139507405Y-99062604D01*
X139190000Y-98745199D01*
X139190000Y-95564801D01*
X139857238Y-94897564D01*
X139935423Y-95014577D01*
X140319108Y-95270947D01*
X140114866Y-95367611D01*
X139738959Y-95782577D01*
X139578096Y-96170961D01*
X139700085Y-96393000D01*
X140843000Y-96393000D01*
X140843000Y-96373000D01*
X141097000Y-96373000D01*
X141097000Y-96393000D01*
X142239915Y-96393000D01*
X142361904Y-96170961D01*
X142201041Y-95782577D01*
X141825134Y-95367611D01*
X141620892Y-95270947D01*
X142004577Y-95014577D01*
X142321740Y-94539909D01*
X142433113Y-93980000D01*
X142321740Y-93420091D01*
X142004577Y-92945423D01*
X141652242Y-92710000D01*
X142004577Y-92474577D01*
X142321740Y-91999909D01*
X142433113Y-91440000D01*
X142321740Y-90880091D01*
X142004577Y-90405423D01*
X141529909Y-90088260D01*
X141111333Y-90005000D01*
X140939803Y-90005000D01*
X141284803Y-89660000D01*
X141925199Y-89660000D01*
X147191312Y-94926114D01*
G36*
X163957000Y-81153000D02*
X163977000Y-81153000D01*
X163977000Y-81407000D01*
X163957000Y-81407000D01*
X163957000Y-83693000D01*
X163977000Y-83693000D01*
X163977000Y-83947000D01*
X163957000Y-83947000D01*
X163957000Y-85140155D01*
X164186890Y-85261476D01*
X164596924Y-85091645D01*
X164901261Y-84814292D01*
X164921843Y-84917765D01*
X165062191Y-85127809D01*
X165272235Y-85268157D01*
X165520000Y-85317440D01*
X165524585Y-85317440D01*
X165238242Y-85603783D01*
X165035000Y-86094452D01*
X165035000Y-86620198D01*
X163515199Y-88140000D01*
X160504802Y-88140000D01*
X160134141Y-87769340D01*
X160192235Y-87808157D01*
X160440000Y-87857440D01*
X162140000Y-87857440D01*
X162387765Y-87808157D01*
X162597809Y-87667809D01*
X162738157Y-87457765D01*
X162787440Y-87210000D01*
X162787440Y-85510000D01*
X162738157Y-85262235D01*
X162597809Y-85052191D01*
X162387765Y-84911843D01*
X162342381Y-84902816D01*
X162360625Y-84890625D01*
X162573843Y-84571522D01*
X162634817Y-84701358D01*
X163063076Y-85091645D01*
X163473110Y-85261476D01*
X163703000Y-85140155D01*
X163703000Y-83947000D01*
X163683000Y-83947000D01*
X163683000Y-83693000D01*
X163703000Y-83693000D01*
X163703000Y-81407000D01*
X163683000Y-81407000D01*
X163683000Y-81153000D01*
X163703000Y-81153000D01*
X163703000Y-81133000D01*
X163957000Y-81133000D01*
X163957000Y-81153000D01*
X163957000Y-81153000D01*
G37*
X163957000Y-81153000D02*
X163977000Y-81153000D01*
X163977000Y-81407000D01*
X163957000Y-81407000D01*
X163957000Y-83693000D01*
X163977000Y-83693000D01*
X163977000Y-83947000D01*
X163957000Y-83947000D01*
X163957000Y-85140155D01*
X164186890Y-85261476D01*
X164596924Y-85091645D01*
X164901261Y-84814292D01*
X164921843Y-84917765D01*
X165062191Y-85127809D01*
X165272235Y-85268157D01*
X165520000Y-85317440D01*
X165524585Y-85317440D01*
X165238242Y-85603783D01*
X165035000Y-86094452D01*
X165035000Y-86620198D01*
X163515199Y-88140000D01*
X160504802Y-88140000D01*
X160134141Y-87769340D01*
X160192235Y-87808157D01*
X160440000Y-87857440D01*
X162140000Y-87857440D01*
X162387765Y-87808157D01*
X162597809Y-87667809D01*
X162738157Y-87457765D01*
X162787440Y-87210000D01*
X162787440Y-85510000D01*
X162738157Y-85262235D01*
X162597809Y-85052191D01*
X162387765Y-84911843D01*
X162342381Y-84902816D01*
X162360625Y-84890625D01*
X162573843Y-84571522D01*
X162634817Y-84701358D01*
X163063076Y-85091645D01*
X163473110Y-85261476D01*
X163703000Y-85140155D01*
X163703000Y-83947000D01*
X163683000Y-83947000D01*
X163683000Y-83693000D01*
X163703000Y-83693000D01*
X163703000Y-81407000D01*
X163683000Y-81407000D01*
X163683000Y-81153000D01*
X163703000Y-81153000D01*
X163703000Y-81133000D01*
X163957000Y-81133000D01*
X163957000Y-81153000D01*
M02*
