%TF.GenerationSoftware,KiCad,Pcbnew,(5.0.2)-1*%
%TF.CreationDate,2019-05-02T00:01:05-05:00*%
%TF.ProjectId,vcaMain,7663614d-6169-46e2-9e6b-696361645f70,rev?*%
%TF.SameCoordinates,Original*%
%TF.FileFunction,Copper,L2,Bot*%
%TF.FilePolarity,Positive*%
%FSLAX46Y46*%
G04 Gerber Fmt 4.6, Leading zero omitted, Abs format (unit mm)*
G04 Created by KiCad (PCBNEW (5.0.2)-1) date 5/2/2019 12:01:05 AM*
%MOMM*%
%LPD*%
G01*
G04 APERTURE LIST*
%ADD10R,1.700000X1.700000*%
%ADD11O,1.700000X1.700000*%
%ADD12O,1.400000X1.400000*%
%ADD13C,1.400000*%
%ADD14C,1.600000*%
%ADD15R,1.600000X1.600000*%
%ADD16O,1.600000X1.600000*%
%ADD17C,0.250000*%
%ADD18C,0.254000*%
G04 APERTURE END LIST*
D10*
X166370000Y-83820000D03*
D11*
X166370000Y-81280000D03*
X163830000Y-83820000D03*
X163830000Y-81280000D03*
X161290000Y-83820000D03*
X161290000Y-81280000D03*
D10*
X181610000Y-93980000D03*
D11*
X184150000Y-93980000D03*
X181610000Y-91440000D03*
X184150000Y-91440000D03*
X181610000Y-88900000D03*
X184150000Y-88900000D03*
D10*
X171450000Y-109220000D03*
D11*
X171450000Y-111760000D03*
X173990000Y-109220000D03*
X173990000Y-111760000D03*
X176530000Y-109220000D03*
X176530000Y-111760000D03*
D10*
X125730000Y-109220000D03*
D11*
X125730000Y-111760000D03*
X128270000Y-109220000D03*
X128270000Y-111760000D03*
X130810000Y-109220000D03*
X130810000Y-111760000D03*
D10*
X110490000Y-99060000D03*
D11*
X107950000Y-99060000D03*
X110490000Y-101600000D03*
X107950000Y-101600000D03*
X110490000Y-104140000D03*
X107950000Y-104140000D03*
D10*
X120650000Y-83820000D03*
D11*
X120650000Y-81280000D03*
X118110000Y-83820000D03*
X118110000Y-81280000D03*
X115570000Y-83820000D03*
X115570000Y-81280000D03*
X130810000Y-81280000D03*
X130810000Y-83820000D03*
X128270000Y-81280000D03*
X128270000Y-83820000D03*
X125730000Y-81280000D03*
D10*
X125730000Y-83820000D03*
D11*
X176530000Y-81280000D03*
X176530000Y-83820000D03*
X173990000Y-81280000D03*
X173990000Y-83820000D03*
X171450000Y-81280000D03*
D10*
X171450000Y-83820000D03*
D11*
X184150000Y-104140000D03*
X181610000Y-104140000D03*
X184150000Y-101600000D03*
X181610000Y-101600000D03*
X184150000Y-99060000D03*
D10*
X181610000Y-99060000D03*
D11*
X161290000Y-111760000D03*
X161290000Y-109220000D03*
X163830000Y-111760000D03*
X163830000Y-109220000D03*
X166370000Y-111760000D03*
D10*
X166370000Y-109220000D03*
D11*
X115570000Y-111760000D03*
X115570000Y-109220000D03*
X118110000Y-111760000D03*
X118110000Y-109220000D03*
X120650000Y-111760000D03*
D10*
X120650000Y-109220000D03*
D11*
X107950000Y-88900000D03*
X110490000Y-88900000D03*
X107950000Y-91440000D03*
X110490000Y-91440000D03*
X107950000Y-93980000D03*
D10*
X110490000Y-93980000D03*
D12*
X130810000Y-96520000D03*
D13*
X130810000Y-104140000D03*
D14*
X161290000Y-104140000D03*
X161290000Y-99140000D03*
D15*
X148590000Y-97790000D03*
D16*
X156210000Y-97790000D03*
D15*
X156210000Y-95250000D03*
D16*
X148590000Y-95250000D03*
D10*
X151130000Y-113030000D03*
X148590000Y-113030000D03*
X135890000Y-86360000D03*
X158750000Y-86360000D03*
X161290000Y-86360000D03*
X133350000Y-86360000D03*
D13*
X148590000Y-102870000D03*
D12*
X156210000Y-102870000D03*
D13*
X148590000Y-105410000D03*
D12*
X156210000Y-105410000D03*
X156210000Y-100330000D03*
D13*
X148590000Y-100330000D03*
X128270000Y-99060000D03*
D12*
X128270000Y-91440000D03*
X166370000Y-93980000D03*
D13*
X166370000Y-86360000D03*
X163830000Y-104140000D03*
D12*
X163830000Y-96520000D03*
X166370000Y-96520000D03*
D13*
X166370000Y-104140000D03*
D15*
X147320000Y-83820000D03*
D16*
X154940000Y-91440000D03*
X147320000Y-86360000D03*
X154940000Y-88900000D03*
X147320000Y-88900000D03*
X154940000Y-86360000D03*
X147320000Y-91440000D03*
X154940000Y-83820000D03*
D10*
X146050000Y-113030000D03*
D15*
X133350000Y-91440000D03*
D16*
X140970000Y-99060000D03*
X133350000Y-93980000D03*
X140970000Y-96520000D03*
X133350000Y-96520000D03*
X140970000Y-93980000D03*
X133350000Y-99060000D03*
X140970000Y-91440000D03*
D17*
X153670000Y-113030000D02*
X160020000Y-106680000D01*
X163830000Y-106680000D02*
X166370000Y-104140000D01*
X160020000Y-106680000D02*
X163830000Y-106680000D01*
X153670000Y-113030000D02*
X151130000Y-113030000D01*
X157480000Y-102870000D02*
X158750000Y-104140000D01*
X158750000Y-104140000D02*
X158750000Y-106680000D01*
X158750000Y-106680000D02*
X154940000Y-110490000D01*
X156210000Y-102870000D02*
X157480000Y-102870000D01*
X151130000Y-110490000D02*
X148590000Y-113030000D01*
X154940000Y-110490000D02*
X151130000Y-110490000D01*
X135890000Y-85090000D02*
X135890000Y-86360000D01*
X156210000Y-105410000D02*
X152400000Y-101600000D01*
X152400000Y-83820000D02*
X149860000Y-81280000D01*
X152400000Y-101600000D02*
X152400000Y-83820000D01*
X149860000Y-81280000D02*
X139530000Y-81280000D01*
X139530000Y-81280000D02*
X135890000Y-84920000D01*
X135890000Y-84920000D02*
X135890000Y-85090000D01*
X161290000Y-95250000D02*
X161290000Y-86360000D01*
X156210000Y-100330000D02*
X161290000Y-95250000D01*
X110490000Y-93980000D02*
X111760000Y-92710000D01*
X165520001Y-80430001D02*
X166370000Y-81280000D01*
X164294981Y-79204981D02*
X165520001Y-80430001D01*
X127805019Y-79204981D02*
X164294981Y-79204981D01*
X125730000Y-81280000D02*
X127805019Y-79204981D01*
X126579999Y-112609999D02*
X125730000Y-111760000D01*
X131260009Y-117290009D02*
X126579999Y-112609999D01*
X160839991Y-117290009D02*
X131260009Y-117290009D01*
X166370000Y-111760000D02*
X160839991Y-117290009D01*
X120650000Y-109220000D02*
X110490000Y-99060000D01*
X111760000Y-92710000D02*
X120650000Y-83820000D01*
X171450000Y-109220000D02*
X181610000Y-99060000D01*
X181610000Y-93980000D02*
X180340000Y-92710000D01*
X180340000Y-92710000D02*
X171450000Y-83820000D01*
X160440001Y-80430001D02*
X161290000Y-81280000D01*
X160114999Y-80104999D02*
X160440001Y-80430001D01*
X131985001Y-80104999D02*
X160114999Y-80104999D01*
X130810000Y-81280000D02*
X131985001Y-80104999D01*
X110490000Y-104140000D02*
X115570000Y-109220000D01*
X110490000Y-88900000D02*
X115570000Y-83820000D01*
X134620000Y-115570000D02*
X130810000Y-111760000D01*
X135439990Y-116389990D02*
X134620000Y-115570000D01*
X161290000Y-111760000D02*
X156660010Y-116389990D01*
X156660010Y-116389990D02*
X135439990Y-116389990D01*
X176530000Y-109220000D02*
X181610000Y-104140000D01*
X181610000Y-88900000D02*
X176530000Y-83820000D01*
X162980001Y-80430001D02*
X163830000Y-81280000D01*
X162204990Y-79654990D02*
X162980001Y-80430001D01*
X129895010Y-79654990D02*
X162204990Y-79654990D01*
X128270000Y-81280000D02*
X129895010Y-79654990D01*
X162980001Y-112609999D02*
X163830000Y-111760000D01*
X158750000Y-116840000D02*
X162980001Y-112609999D01*
X133350000Y-116840000D02*
X158750000Y-116840000D01*
X128270000Y-111760000D02*
X133350000Y-116840000D01*
X110490000Y-101600000D02*
X118110000Y-109220000D01*
X110490000Y-91440000D02*
X118110000Y-83820000D01*
X175165001Y-108044999D02*
X181610000Y-101600000D01*
X173990000Y-109220000D02*
X175165001Y-108044999D01*
X173990000Y-83820000D02*
X181610000Y-91440000D01*
X130810000Y-86360000D02*
X128270000Y-83820000D01*
X138430000Y-88900000D02*
X133350000Y-93980000D01*
X147320000Y-88900000D02*
X138430000Y-88900000D01*
X133350000Y-93980000D02*
X130810000Y-93980000D01*
X130810000Y-96520000D02*
X130810000Y-93980000D01*
X130810000Y-93980000D02*
X130810000Y-86360000D01*
X133350000Y-99060000D02*
X130810000Y-96520000D01*
X135890000Y-96520000D02*
X133350000Y-93980000D01*
X140970000Y-96520000D02*
X135890000Y-96520000D01*
X146050000Y-111760000D02*
X146050000Y-113030000D01*
X133350000Y-99060000D02*
X146050000Y-111760000D01*
D18*
G36*
X190373000Y-117983000D02*
X161170820Y-117983000D01*
X161387920Y-117837938D01*
X161430322Y-117774479D01*
X165279751Y-113925050D01*
X184805000Y-113925050D01*
X184805000Y-114674950D01*
X185091974Y-115367767D01*
X185622233Y-115898026D01*
X186315050Y-116185000D01*
X187064950Y-116185000D01*
X187757767Y-115898026D01*
X188288026Y-115367767D01*
X188575000Y-114674950D01*
X188575000Y-113925050D01*
X188288026Y-113232233D01*
X187757767Y-112701974D01*
X187064950Y-112415000D01*
X186315050Y-112415000D01*
X185622233Y-112701974D01*
X185091974Y-113232233D01*
X184805000Y-113925050D01*
X165279751Y-113925050D01*
X166003593Y-113201209D01*
X166223744Y-113245000D01*
X166516256Y-113245000D01*
X166949418Y-113158839D01*
X167440625Y-112830625D01*
X167768839Y-112339418D01*
X167884092Y-111760000D01*
X169935908Y-111760000D01*
X170051161Y-112339418D01*
X170379375Y-112830625D01*
X170870582Y-113158839D01*
X171303744Y-113245000D01*
X171596256Y-113245000D01*
X172029418Y-113158839D01*
X172520625Y-112830625D01*
X172733843Y-112511522D01*
X172794817Y-112641358D01*
X173223076Y-113031645D01*
X173633110Y-113201476D01*
X173863000Y-113080155D01*
X173863000Y-111887000D01*
X173843000Y-111887000D01*
X173843000Y-111633000D01*
X173863000Y-111633000D01*
X173863000Y-109347000D01*
X174117000Y-109347000D01*
X174117000Y-111633000D01*
X174137000Y-111633000D01*
X174137000Y-111887000D01*
X174117000Y-111887000D01*
X174117000Y-113080155D01*
X174346890Y-113201476D01*
X174756924Y-113031645D01*
X175185183Y-112641358D01*
X175246157Y-112511522D01*
X175459375Y-112830625D01*
X175950582Y-113158839D01*
X176383744Y-113245000D01*
X176676256Y-113245000D01*
X177109418Y-113158839D01*
X177600625Y-112830625D01*
X177928839Y-112339418D01*
X178044092Y-111760000D01*
X177928839Y-111180582D01*
X177600625Y-110689375D01*
X177302239Y-110490000D01*
X177600625Y-110290625D01*
X177928839Y-109799418D01*
X178044092Y-109220000D01*
X177971209Y-108853592D01*
X181243593Y-105581209D01*
X181463744Y-105625000D01*
X181756256Y-105625000D01*
X182189418Y-105538839D01*
X182680625Y-105210625D01*
X182880000Y-104912239D01*
X183079375Y-105210625D01*
X183570582Y-105538839D01*
X184003744Y-105625000D01*
X184296256Y-105625000D01*
X184729418Y-105538839D01*
X185220625Y-105210625D01*
X185548839Y-104719418D01*
X185664092Y-104140000D01*
X185548839Y-103560582D01*
X185220625Y-103069375D01*
X184901522Y-102856157D01*
X185031358Y-102795183D01*
X185421645Y-102366924D01*
X185591476Y-101956890D01*
X185470155Y-101727000D01*
X184277000Y-101727000D01*
X184277000Y-101747000D01*
X184023000Y-101747000D01*
X184023000Y-101727000D01*
X181737000Y-101727000D01*
X181737000Y-101473000D01*
X184023000Y-101473000D01*
X184023000Y-101453000D01*
X184277000Y-101453000D01*
X184277000Y-101473000D01*
X185470155Y-101473000D01*
X185591476Y-101243110D01*
X185421645Y-100833076D01*
X185031358Y-100404817D01*
X184901522Y-100343843D01*
X185220625Y-100130625D01*
X185548839Y-99639418D01*
X185664092Y-99060000D01*
X185548839Y-98480582D01*
X185220625Y-97989375D01*
X184729418Y-97661161D01*
X184296256Y-97575000D01*
X184003744Y-97575000D01*
X183570582Y-97661161D01*
X183079375Y-97989375D01*
X183067184Y-98007619D01*
X183058157Y-97962235D01*
X182917809Y-97752191D01*
X182707765Y-97611843D01*
X182460000Y-97562560D01*
X180760000Y-97562560D01*
X180512235Y-97611843D01*
X180302191Y-97752191D01*
X180161843Y-97962235D01*
X180112560Y-98210000D01*
X180112560Y-99482638D01*
X171872639Y-107722560D01*
X170600000Y-107722560D01*
X170352235Y-107771843D01*
X170142191Y-107912191D01*
X170001843Y-108122235D01*
X169952560Y-108370000D01*
X169952560Y-110070000D01*
X170001843Y-110317765D01*
X170142191Y-110527809D01*
X170352235Y-110668157D01*
X170397619Y-110677184D01*
X170379375Y-110689375D01*
X170051161Y-111180582D01*
X169935908Y-111760000D01*
X167884092Y-111760000D01*
X167768839Y-111180582D01*
X167440625Y-110689375D01*
X167422381Y-110677184D01*
X167467765Y-110668157D01*
X167677809Y-110527809D01*
X167818157Y-110317765D01*
X167867440Y-110070000D01*
X167867440Y-108370000D01*
X167818157Y-108122235D01*
X167677809Y-107912191D01*
X167467765Y-107771843D01*
X167220000Y-107722560D01*
X165520000Y-107722560D01*
X165272235Y-107771843D01*
X165062191Y-107912191D01*
X164921843Y-108122235D01*
X164901261Y-108225708D01*
X164596924Y-107948355D01*
X164186890Y-107778524D01*
X163957000Y-107899845D01*
X163957000Y-109093000D01*
X163977000Y-109093000D01*
X163977000Y-109347000D01*
X163957000Y-109347000D01*
X163957000Y-111633000D01*
X163977000Y-111633000D01*
X163977000Y-111887000D01*
X163957000Y-111887000D01*
X163957000Y-111907000D01*
X163703000Y-111907000D01*
X163703000Y-111887000D01*
X163683000Y-111887000D01*
X163683000Y-111633000D01*
X163703000Y-111633000D01*
X163703000Y-109347000D01*
X163683000Y-109347000D01*
X163683000Y-109093000D01*
X163703000Y-109093000D01*
X163703000Y-107899845D01*
X163473110Y-107778524D01*
X163063076Y-107948355D01*
X162634817Y-108338642D01*
X162573843Y-108468478D01*
X162360625Y-108149375D01*
X161869418Y-107821161D01*
X161436256Y-107735000D01*
X161143744Y-107735000D01*
X160710582Y-107821161D01*
X160219375Y-108149375D01*
X159891161Y-108640582D01*
X159775908Y-109220000D01*
X159891161Y-109799418D01*
X160219375Y-110290625D01*
X160517761Y-110490000D01*
X160219375Y-110689375D01*
X159891161Y-111180582D01*
X159775908Y-111760000D01*
X159848791Y-112126407D01*
X156345209Y-115629990D01*
X135754792Y-115629990D01*
X135210331Y-115085530D01*
X135210329Y-115085527D01*
X133440552Y-113315750D01*
X144565000Y-113315750D01*
X144565000Y-114006310D01*
X144661673Y-114239699D01*
X144840302Y-114418327D01*
X145073691Y-114515000D01*
X145764250Y-114515000D01*
X145923000Y-114356250D01*
X145923000Y-113157000D01*
X144723750Y-113157000D01*
X144565000Y-113315750D01*
X133440552Y-113315750D01*
X132251209Y-112126408D01*
X132265673Y-112053690D01*
X144565000Y-112053690D01*
X144565000Y-112744250D01*
X144723750Y-112903000D01*
X145923000Y-112903000D01*
X145923000Y-111703750D01*
X145764250Y-111545000D01*
X145073691Y-111545000D01*
X144840302Y-111641673D01*
X144661673Y-111820301D01*
X144565000Y-112053690D01*
X132265673Y-112053690D01*
X132324092Y-111760000D01*
X132208839Y-111180582D01*
X131880625Y-110689375D01*
X131582239Y-110490000D01*
X131880625Y-110290625D01*
X132208839Y-109799418D01*
X132324092Y-109220000D01*
X132208839Y-108640582D01*
X131880625Y-108149375D01*
X131389418Y-107821161D01*
X130956256Y-107735000D01*
X130663744Y-107735000D01*
X130230582Y-107821161D01*
X129739375Y-108149375D01*
X129526157Y-108468478D01*
X129465183Y-108338642D01*
X129036924Y-107948355D01*
X128626890Y-107778524D01*
X128397000Y-107899845D01*
X128397000Y-109093000D01*
X128417000Y-109093000D01*
X128417000Y-109347000D01*
X128397000Y-109347000D01*
X128397000Y-111633000D01*
X128417000Y-111633000D01*
X128417000Y-111887000D01*
X128397000Y-111887000D01*
X128397000Y-111907000D01*
X128143000Y-111907000D01*
X128143000Y-111887000D01*
X128123000Y-111887000D01*
X128123000Y-111633000D01*
X128143000Y-111633000D01*
X128143000Y-109347000D01*
X128123000Y-109347000D01*
X128123000Y-109093000D01*
X128143000Y-109093000D01*
X128143000Y-107899845D01*
X127913110Y-107778524D01*
X127503076Y-107948355D01*
X127198739Y-108225708D01*
X127178157Y-108122235D01*
X127037809Y-107912191D01*
X126827765Y-107771843D01*
X126580000Y-107722560D01*
X124880000Y-107722560D01*
X124632235Y-107771843D01*
X124422191Y-107912191D01*
X124281843Y-108122235D01*
X124232560Y-108370000D01*
X124232560Y-110070000D01*
X124281843Y-110317765D01*
X124422191Y-110527809D01*
X124632235Y-110668157D01*
X124677619Y-110677184D01*
X124659375Y-110689375D01*
X124331161Y-111180582D01*
X124215908Y-111760000D01*
X124331161Y-112339418D01*
X124659375Y-112830625D01*
X125150582Y-113158839D01*
X125583744Y-113245000D01*
X125876256Y-113245000D01*
X126096408Y-113201209D01*
X130669680Y-117774482D01*
X130712080Y-117837938D01*
X130929180Y-117983000D01*
X101727000Y-117983000D01*
X101727000Y-113925050D01*
X103525000Y-113925050D01*
X103525000Y-114674950D01*
X103811974Y-115367767D01*
X104342233Y-115898026D01*
X105035050Y-116185000D01*
X105784950Y-116185000D01*
X106477767Y-115898026D01*
X107008026Y-115367767D01*
X107295000Y-114674950D01*
X107295000Y-113925050D01*
X107008026Y-113232233D01*
X106477767Y-112701974D01*
X105784950Y-112415000D01*
X105035050Y-112415000D01*
X104342233Y-112701974D01*
X103811974Y-113232233D01*
X103525000Y-113925050D01*
X101727000Y-113925050D01*
X101727000Y-99060000D01*
X106435908Y-99060000D01*
X106551161Y-99639418D01*
X106879375Y-100130625D01*
X107198478Y-100343843D01*
X107068642Y-100404817D01*
X106678355Y-100833076D01*
X106508524Y-101243110D01*
X106629845Y-101473000D01*
X107823000Y-101473000D01*
X107823000Y-101453000D01*
X108077000Y-101453000D01*
X108077000Y-101473000D01*
X110363000Y-101473000D01*
X110363000Y-101453000D01*
X110617000Y-101453000D01*
X110617000Y-101473000D01*
X110637000Y-101473000D01*
X110637000Y-101727000D01*
X110617000Y-101727000D01*
X110617000Y-101747000D01*
X110363000Y-101747000D01*
X110363000Y-101727000D01*
X108077000Y-101727000D01*
X108077000Y-101747000D01*
X107823000Y-101747000D01*
X107823000Y-101727000D01*
X106629845Y-101727000D01*
X106508524Y-101956890D01*
X106678355Y-102366924D01*
X107068642Y-102795183D01*
X107198478Y-102856157D01*
X106879375Y-103069375D01*
X106551161Y-103560582D01*
X106435908Y-104140000D01*
X106551161Y-104719418D01*
X106879375Y-105210625D01*
X107370582Y-105538839D01*
X107803744Y-105625000D01*
X108096256Y-105625000D01*
X108529418Y-105538839D01*
X109020625Y-105210625D01*
X109220000Y-104912239D01*
X109419375Y-105210625D01*
X109910582Y-105538839D01*
X110343744Y-105625000D01*
X110636256Y-105625000D01*
X110856408Y-105581209D01*
X114128791Y-108853593D01*
X114055908Y-109220000D01*
X114171161Y-109799418D01*
X114499375Y-110290625D01*
X114797761Y-110490000D01*
X114499375Y-110689375D01*
X114171161Y-111180582D01*
X114055908Y-111760000D01*
X114171161Y-112339418D01*
X114499375Y-112830625D01*
X114990582Y-113158839D01*
X115423744Y-113245000D01*
X115716256Y-113245000D01*
X116149418Y-113158839D01*
X116640625Y-112830625D01*
X116853843Y-112511522D01*
X116914817Y-112641358D01*
X117343076Y-113031645D01*
X117753110Y-113201476D01*
X117983000Y-113080155D01*
X117983000Y-111887000D01*
X117963000Y-111887000D01*
X117963000Y-111633000D01*
X117983000Y-111633000D01*
X117983000Y-109347000D01*
X117963000Y-109347000D01*
X117963000Y-109093000D01*
X117983000Y-109093000D01*
X117983000Y-109073000D01*
X118237000Y-109073000D01*
X118237000Y-109093000D01*
X118257000Y-109093000D01*
X118257000Y-109347000D01*
X118237000Y-109347000D01*
X118237000Y-111633000D01*
X118257000Y-111633000D01*
X118257000Y-111887000D01*
X118237000Y-111887000D01*
X118237000Y-113080155D01*
X118466890Y-113201476D01*
X118876924Y-113031645D01*
X119305183Y-112641358D01*
X119366157Y-112511522D01*
X119579375Y-112830625D01*
X120070582Y-113158839D01*
X120503744Y-113245000D01*
X120796256Y-113245000D01*
X121229418Y-113158839D01*
X121720625Y-112830625D01*
X122048839Y-112339418D01*
X122164092Y-111760000D01*
X122048839Y-111180582D01*
X121720625Y-110689375D01*
X121702381Y-110677184D01*
X121747765Y-110668157D01*
X121957809Y-110527809D01*
X122098157Y-110317765D01*
X122147440Y-110070000D01*
X122147440Y-108370000D01*
X122098157Y-108122235D01*
X121957809Y-107912191D01*
X121747765Y-107771843D01*
X121500000Y-107722560D01*
X120227362Y-107722560D01*
X116379254Y-103874452D01*
X129475000Y-103874452D01*
X129475000Y-104405548D01*
X129678242Y-104896217D01*
X130053783Y-105271758D01*
X130544452Y-105475000D01*
X131075548Y-105475000D01*
X131566217Y-105271758D01*
X131941758Y-104896217D01*
X132145000Y-104405548D01*
X132145000Y-103874452D01*
X131941758Y-103383783D01*
X131566217Y-103008242D01*
X131075548Y-102805000D01*
X130544452Y-102805000D01*
X130053783Y-103008242D01*
X129678242Y-103383783D01*
X129475000Y-103874452D01*
X116379254Y-103874452D01*
X111987440Y-99482639D01*
X111987440Y-98794452D01*
X126935000Y-98794452D01*
X126935000Y-99325548D01*
X127138242Y-99816217D01*
X127513783Y-100191758D01*
X128004452Y-100395000D01*
X128535548Y-100395000D01*
X129026217Y-100191758D01*
X129401758Y-99816217D01*
X129570416Y-99409039D01*
X131958096Y-99409039D01*
X132118959Y-99797423D01*
X132494866Y-100212389D01*
X133000959Y-100451914D01*
X133223000Y-100330629D01*
X133223000Y-99187000D01*
X133477000Y-99187000D01*
X133477000Y-100330629D01*
X133699041Y-100451914D01*
X134205134Y-100212389D01*
X134581041Y-99797423D01*
X134741904Y-99409039D01*
X134619915Y-99187000D01*
X133477000Y-99187000D01*
X133223000Y-99187000D01*
X132080085Y-99187000D01*
X131958096Y-99409039D01*
X129570416Y-99409039D01*
X129605000Y-99325548D01*
X129605000Y-99060000D01*
X139506887Y-99060000D01*
X139618260Y-99619909D01*
X139935423Y-100094577D01*
X140410091Y-100411740D01*
X140828667Y-100495000D01*
X141111333Y-100495000D01*
X141529909Y-100411740D01*
X142004577Y-100094577D01*
X142321740Y-99619909D01*
X142433113Y-99060000D01*
X142321740Y-98500091D01*
X142004577Y-98025423D01*
X141620892Y-97769053D01*
X141825134Y-97672389D01*
X142201041Y-97257423D01*
X142361904Y-96869039D01*
X142239915Y-96647000D01*
X141097000Y-96647000D01*
X141097000Y-96667000D01*
X140843000Y-96667000D01*
X140843000Y-96647000D01*
X139700085Y-96647000D01*
X139578096Y-96869039D01*
X139738959Y-97257423D01*
X140114866Y-97672389D01*
X140319108Y-97769053D01*
X139935423Y-98025423D01*
X139618260Y-98500091D01*
X139506887Y-99060000D01*
X129605000Y-99060000D01*
X129605000Y-98794452D01*
X129401758Y-98303783D01*
X129026217Y-97928242D01*
X128535548Y-97725000D01*
X128004452Y-97725000D01*
X127513783Y-97928242D01*
X127138242Y-98303783D01*
X126935000Y-98794452D01*
X111987440Y-98794452D01*
X111987440Y-98210000D01*
X111938157Y-97962235D01*
X111797809Y-97752191D01*
X111587765Y-97611843D01*
X111340000Y-97562560D01*
X109640000Y-97562560D01*
X109392235Y-97611843D01*
X109182191Y-97752191D01*
X109041843Y-97962235D01*
X109032816Y-98007619D01*
X109020625Y-97989375D01*
X108529418Y-97661161D01*
X108096256Y-97575000D01*
X107803744Y-97575000D01*
X107370582Y-97661161D01*
X106879375Y-97989375D01*
X106551161Y-98480582D01*
X106435908Y-99060000D01*
X101727000Y-99060000D01*
X101727000Y-96853331D01*
X129517273Y-96853331D01*
X129743236Y-97322663D01*
X130131604Y-97669797D01*
X130476671Y-97812716D01*
X130683000Y-97689374D01*
X130683000Y-96647000D01*
X129639794Y-96647000D01*
X129517273Y-96853331D01*
X101727000Y-96853331D01*
X101727000Y-96186669D01*
X129517273Y-96186669D01*
X129639794Y-96393000D01*
X130683000Y-96393000D01*
X130683000Y-95350626D01*
X130937000Y-95350626D01*
X130937000Y-96393000D01*
X130957000Y-96393000D01*
X130957000Y-96647000D01*
X130937000Y-96647000D01*
X130937000Y-97689374D01*
X131143329Y-97812716D01*
X131488396Y-97669797D01*
X131876764Y-97322663D01*
X131996909Y-97073118D01*
X131998260Y-97079909D01*
X132315423Y-97554577D01*
X132699108Y-97810947D01*
X132494866Y-97907611D01*
X132118959Y-98322577D01*
X131958096Y-98710961D01*
X132080085Y-98933000D01*
X133223000Y-98933000D01*
X133223000Y-98913000D01*
X133477000Y-98913000D01*
X133477000Y-98933000D01*
X134619915Y-98933000D01*
X134741904Y-98710961D01*
X134581041Y-98322577D01*
X134205134Y-97907611D01*
X134000892Y-97810947D01*
X134384577Y-97554577D01*
X134701740Y-97079909D01*
X134813113Y-96520000D01*
X134701740Y-95960091D01*
X134384577Y-95485423D01*
X134000892Y-95229053D01*
X134205134Y-95132389D01*
X134581041Y-94717423D01*
X134741904Y-94329039D01*
X134619915Y-94107000D01*
X133477000Y-94107000D01*
X133477000Y-94127000D01*
X133223000Y-94127000D01*
X133223000Y-94107000D01*
X132080085Y-94107000D01*
X131958096Y-94329039D01*
X132118959Y-94717423D01*
X132494866Y-95132389D01*
X132699108Y-95229053D01*
X132315423Y-95485423D01*
X131998260Y-95960091D01*
X131996909Y-95966882D01*
X131876764Y-95717337D01*
X131488396Y-95370203D01*
X131143329Y-95227284D01*
X130937000Y-95350626D01*
X130683000Y-95350626D01*
X130476671Y-95227284D01*
X130131604Y-95370203D01*
X129743236Y-95717337D01*
X129517273Y-96186669D01*
X101727000Y-96186669D01*
X101727000Y-88900000D01*
X106435908Y-88900000D01*
X106551161Y-89479418D01*
X106879375Y-89970625D01*
X107198478Y-90183843D01*
X107068642Y-90244817D01*
X106678355Y-90673076D01*
X106508524Y-91083110D01*
X106629845Y-91313000D01*
X107823000Y-91313000D01*
X107823000Y-91293000D01*
X108077000Y-91293000D01*
X108077000Y-91313000D01*
X110363000Y-91313000D01*
X110363000Y-91293000D01*
X110617000Y-91293000D01*
X110617000Y-91313000D01*
X110637000Y-91313000D01*
X110637000Y-91567000D01*
X110617000Y-91567000D01*
X110617000Y-91587000D01*
X110363000Y-91587000D01*
X110363000Y-91567000D01*
X108077000Y-91567000D01*
X108077000Y-91587000D01*
X107823000Y-91587000D01*
X107823000Y-91567000D01*
X106629845Y-91567000D01*
X106508524Y-91796890D01*
X106678355Y-92206924D01*
X107068642Y-92635183D01*
X107198478Y-92696157D01*
X106879375Y-92909375D01*
X106551161Y-93400582D01*
X106435908Y-93980000D01*
X106551161Y-94559418D01*
X106879375Y-95050625D01*
X107370582Y-95378839D01*
X107803744Y-95465000D01*
X108096256Y-95465000D01*
X108529418Y-95378839D01*
X109020625Y-95050625D01*
X109032816Y-95032381D01*
X109041843Y-95077765D01*
X109182191Y-95287809D01*
X109392235Y-95428157D01*
X109640000Y-95477440D01*
X111340000Y-95477440D01*
X111587765Y-95428157D01*
X111797809Y-95287809D01*
X111938157Y-95077765D01*
X111987440Y-94830000D01*
X111987440Y-93557362D01*
X112350329Y-93194473D01*
X112350331Y-93194470D01*
X114104801Y-91440000D01*
X126908846Y-91440000D01*
X127012458Y-91960891D01*
X127307519Y-92402481D01*
X127749109Y-92697542D01*
X128138515Y-92775000D01*
X128401485Y-92775000D01*
X128790891Y-92697542D01*
X129232481Y-92402481D01*
X129527542Y-91960891D01*
X129631154Y-91440000D01*
X129527542Y-90919109D01*
X129341048Y-90640000D01*
X131902560Y-90640000D01*
X131902560Y-92240000D01*
X131951843Y-92487765D01*
X132092191Y-92697809D01*
X132302235Y-92838157D01*
X132457361Y-92869013D01*
X132118959Y-93242577D01*
X131958096Y-93630961D01*
X132080085Y-93853000D01*
X133223000Y-93853000D01*
X133223000Y-93833000D01*
X133477000Y-93833000D01*
X133477000Y-93853000D01*
X134619915Y-93853000D01*
X134741904Y-93630961D01*
X134581041Y-93242577D01*
X134242639Y-92869013D01*
X134397765Y-92838157D01*
X134607809Y-92697809D01*
X134748157Y-92487765D01*
X134797440Y-92240000D01*
X134797440Y-91440000D01*
X139506887Y-91440000D01*
X139618260Y-91999909D01*
X139935423Y-92474577D01*
X140287758Y-92710000D01*
X139935423Y-92945423D01*
X139618260Y-93420091D01*
X139506887Y-93980000D01*
X139618260Y-94539909D01*
X139935423Y-95014577D01*
X140319108Y-95270947D01*
X140114866Y-95367611D01*
X139738959Y-95782577D01*
X139578096Y-96170961D01*
X139700085Y-96393000D01*
X140843000Y-96393000D01*
X140843000Y-96373000D01*
X141097000Y-96373000D01*
X141097000Y-96393000D01*
X142239915Y-96393000D01*
X142361904Y-96170961D01*
X142201041Y-95782577D01*
X141825134Y-95367611D01*
X141620892Y-95270947D01*
X141652241Y-95250000D01*
X147126887Y-95250000D01*
X147238260Y-95809909D01*
X147555423Y-96284577D01*
X147676106Y-96365215D01*
X147542235Y-96391843D01*
X147332191Y-96532191D01*
X147191843Y-96742235D01*
X147142560Y-96990000D01*
X147142560Y-98590000D01*
X147191843Y-98837765D01*
X147332191Y-99047809D01*
X147542235Y-99188157D01*
X147790000Y-99237440D01*
X147794585Y-99237440D01*
X147458242Y-99573783D01*
X147255000Y-100064452D01*
X147255000Y-100595548D01*
X147458242Y-101086217D01*
X147833783Y-101461758D01*
X148167528Y-101600000D01*
X147833783Y-101738242D01*
X147458242Y-102113783D01*
X147255000Y-102604452D01*
X147255000Y-103135548D01*
X147458242Y-103626217D01*
X147833783Y-104001758D01*
X148167528Y-104140000D01*
X147833783Y-104278242D01*
X147458242Y-104653783D01*
X147255000Y-105144452D01*
X147255000Y-105675548D01*
X147458242Y-106166217D01*
X147833783Y-106541758D01*
X148324452Y-106745000D01*
X148855548Y-106745000D01*
X149346217Y-106541758D01*
X149721758Y-106166217D01*
X149925000Y-105675548D01*
X149925000Y-105144452D01*
X149721758Y-104653783D01*
X149346217Y-104278242D01*
X149012472Y-104140000D01*
X149346217Y-104001758D01*
X149721758Y-103626217D01*
X149925000Y-103135548D01*
X149925000Y-102604452D01*
X149721758Y-102113783D01*
X149346217Y-101738242D01*
X149012472Y-101600000D01*
X149346217Y-101461758D01*
X149721758Y-101086217D01*
X149925000Y-100595548D01*
X149925000Y-100064452D01*
X149721758Y-99573783D01*
X149385415Y-99237440D01*
X149390000Y-99237440D01*
X149637765Y-99188157D01*
X149847809Y-99047809D01*
X149988157Y-98837765D01*
X150037440Y-98590000D01*
X150037440Y-96990000D01*
X149988157Y-96742235D01*
X149847809Y-96532191D01*
X149637765Y-96391843D01*
X149503894Y-96365215D01*
X149624577Y-96284577D01*
X149941740Y-95809909D01*
X150053113Y-95250000D01*
X149941740Y-94690091D01*
X149624577Y-94215423D01*
X149149909Y-93898260D01*
X148731333Y-93815000D01*
X148448667Y-93815000D01*
X148030091Y-93898260D01*
X147555423Y-94215423D01*
X147238260Y-94690091D01*
X147126887Y-95250000D01*
X141652241Y-95250000D01*
X142004577Y-95014577D01*
X142321740Y-94539909D01*
X142433113Y-93980000D01*
X142321740Y-93420091D01*
X142004577Y-92945423D01*
X141652242Y-92710000D01*
X142004577Y-92474577D01*
X142321740Y-91999909D01*
X142433113Y-91440000D01*
X145856887Y-91440000D01*
X145968260Y-91999909D01*
X146285423Y-92474577D01*
X146760091Y-92791740D01*
X147178667Y-92875000D01*
X147461333Y-92875000D01*
X147879909Y-92791740D01*
X148354577Y-92474577D01*
X148671740Y-91999909D01*
X148783113Y-91440000D01*
X148671740Y-90880091D01*
X148354577Y-90405423D01*
X147970892Y-90149053D01*
X148175134Y-90052389D01*
X148551041Y-89637423D01*
X148711904Y-89249039D01*
X148589915Y-89027000D01*
X147447000Y-89027000D01*
X147447000Y-89047000D01*
X147193000Y-89047000D01*
X147193000Y-89027000D01*
X146050085Y-89027000D01*
X145928096Y-89249039D01*
X146088959Y-89637423D01*
X146464866Y-90052389D01*
X146669108Y-90149053D01*
X146285423Y-90405423D01*
X145968260Y-90880091D01*
X145856887Y-91440000D01*
X142433113Y-91440000D01*
X142321740Y-90880091D01*
X142004577Y-90405423D01*
X141529909Y-90088260D01*
X141111333Y-90005000D01*
X140828667Y-90005000D01*
X140410091Y-90088260D01*
X139935423Y-90405423D01*
X139618260Y-90880091D01*
X139506887Y-91440000D01*
X134797440Y-91440000D01*
X134797440Y-90640000D01*
X134748157Y-90392235D01*
X134607809Y-90182191D01*
X134397765Y-90041843D01*
X134150000Y-89992560D01*
X132550000Y-89992560D01*
X132302235Y-90041843D01*
X132092191Y-90182191D01*
X131951843Y-90392235D01*
X131902560Y-90640000D01*
X129341048Y-90640000D01*
X129232481Y-90477519D01*
X128790891Y-90182458D01*
X128401485Y-90105000D01*
X128138515Y-90105000D01*
X127749109Y-90182458D01*
X127307519Y-90477519D01*
X127012458Y-90919109D01*
X126908846Y-91440000D01*
X114104801Y-91440000D01*
X120227362Y-85317440D01*
X121500000Y-85317440D01*
X121747765Y-85268157D01*
X121957809Y-85127809D01*
X122098157Y-84917765D01*
X122147440Y-84670000D01*
X122147440Y-82970000D01*
X122098157Y-82722235D01*
X121957809Y-82512191D01*
X121747765Y-82371843D01*
X121702381Y-82362816D01*
X121720625Y-82350625D01*
X122048839Y-81859418D01*
X122164092Y-81280000D01*
X124215908Y-81280000D01*
X124331161Y-81859418D01*
X124659375Y-82350625D01*
X124677619Y-82362816D01*
X124632235Y-82371843D01*
X124422191Y-82512191D01*
X124281843Y-82722235D01*
X124232560Y-82970000D01*
X124232560Y-84670000D01*
X124281843Y-84917765D01*
X124422191Y-85127809D01*
X124632235Y-85268157D01*
X124880000Y-85317440D01*
X126580000Y-85317440D01*
X126827765Y-85268157D01*
X127037809Y-85127809D01*
X127178157Y-84917765D01*
X127198739Y-84814292D01*
X127503076Y-85091645D01*
X127913110Y-85261476D01*
X128143000Y-85140155D01*
X128143000Y-83947000D01*
X128123000Y-83947000D01*
X128123000Y-83693000D01*
X128143000Y-83693000D01*
X128143000Y-81407000D01*
X128123000Y-81407000D01*
X128123000Y-81153000D01*
X128143000Y-81153000D01*
X128143000Y-81133000D01*
X128397000Y-81133000D01*
X128397000Y-81153000D01*
X128417000Y-81153000D01*
X128417000Y-81407000D01*
X128397000Y-81407000D01*
X128397000Y-83693000D01*
X128417000Y-83693000D01*
X128417000Y-83947000D01*
X128397000Y-83947000D01*
X128397000Y-85140155D01*
X128626890Y-85261476D01*
X129036924Y-85091645D01*
X129465183Y-84701358D01*
X129526157Y-84571522D01*
X129739375Y-84890625D01*
X130230582Y-85218839D01*
X130663744Y-85305000D01*
X130956256Y-85305000D01*
X131389418Y-85218839D01*
X131880625Y-84890625D01*
X132208839Y-84399418D01*
X132324092Y-83820000D01*
X132208839Y-83240582D01*
X131880625Y-82749375D01*
X131582239Y-82550000D01*
X131880625Y-82350625D01*
X132208839Y-81859418D01*
X132324092Y-81280000D01*
X132251209Y-80913593D01*
X132299804Y-80864999D01*
X138870198Y-80864999D01*
X135405530Y-84329669D01*
X135342071Y-84372071D01*
X135174096Y-84623464D01*
X135130000Y-84845149D01*
X135130000Y-84845153D01*
X135126538Y-84862560D01*
X135040000Y-84862560D01*
X134792235Y-84911843D01*
X134620000Y-85026928D01*
X134447765Y-84911843D01*
X134200000Y-84862560D01*
X132500000Y-84862560D01*
X132252235Y-84911843D01*
X132042191Y-85052191D01*
X131901843Y-85262235D01*
X131852560Y-85510000D01*
X131852560Y-87210000D01*
X131901843Y-87457765D01*
X132042191Y-87667809D01*
X132252235Y-87808157D01*
X132500000Y-87857440D01*
X134200000Y-87857440D01*
X134447765Y-87808157D01*
X134620000Y-87693072D01*
X134792235Y-87808157D01*
X135040000Y-87857440D01*
X136740000Y-87857440D01*
X136987765Y-87808157D01*
X137197809Y-87667809D01*
X137338157Y-87457765D01*
X137387440Y-87210000D01*
X137387440Y-86360000D01*
X145856887Y-86360000D01*
X145968260Y-86919909D01*
X146285423Y-87394577D01*
X146669108Y-87650947D01*
X146464866Y-87747611D01*
X146088959Y-88162577D01*
X145928096Y-88550961D01*
X146050085Y-88773000D01*
X147193000Y-88773000D01*
X147193000Y-88753000D01*
X147447000Y-88753000D01*
X147447000Y-88773000D01*
X148589915Y-88773000D01*
X148711904Y-88550961D01*
X148551041Y-88162577D01*
X148175134Y-87747611D01*
X147970892Y-87650947D01*
X148354577Y-87394577D01*
X148671740Y-86919909D01*
X148783113Y-86360000D01*
X148671740Y-85800091D01*
X148354577Y-85325423D01*
X148233894Y-85244785D01*
X148367765Y-85218157D01*
X148577809Y-85077809D01*
X148718157Y-84867765D01*
X148767440Y-84620000D01*
X148767440Y-83020000D01*
X148718157Y-82772235D01*
X148577809Y-82562191D01*
X148367765Y-82421843D01*
X148120000Y-82372560D01*
X146520000Y-82372560D01*
X146272235Y-82421843D01*
X146062191Y-82562191D01*
X145921843Y-82772235D01*
X145872560Y-83020000D01*
X145872560Y-84620000D01*
X145921843Y-84867765D01*
X146062191Y-85077809D01*
X146272235Y-85218157D01*
X146406106Y-85244785D01*
X146285423Y-85325423D01*
X145968260Y-85800091D01*
X145856887Y-86360000D01*
X137387440Y-86360000D01*
X137387440Y-85510000D01*
X137338157Y-85262235D01*
X137197809Y-85052191D01*
X136987765Y-84911843D01*
X136975415Y-84909386D01*
X139844803Y-82040000D01*
X149545199Y-82040000D01*
X151640001Y-84134804D01*
X151640000Y-101525153D01*
X151625112Y-101600000D01*
X151640000Y-101674847D01*
X151640000Y-101674851D01*
X151684096Y-101896536D01*
X151852071Y-102147929D01*
X151915530Y-102190331D01*
X154896355Y-105171157D01*
X154848846Y-105410000D01*
X154952458Y-105930891D01*
X155247519Y-106372481D01*
X155689109Y-106667542D01*
X156078515Y-106745000D01*
X156341485Y-106745000D01*
X156730891Y-106667542D01*
X157172481Y-106372481D01*
X157467542Y-105930891D01*
X157571154Y-105410000D01*
X157467542Y-104889109D01*
X157172481Y-104447519D01*
X156730891Y-104152458D01*
X156668261Y-104140000D01*
X156730891Y-104127542D01*
X157172481Y-103832481D01*
X157250667Y-103715468D01*
X157990000Y-104454802D01*
X157990001Y-106365197D01*
X154625199Y-109730000D01*
X151204846Y-109730000D01*
X151129999Y-109715112D01*
X151055152Y-109730000D01*
X151055148Y-109730000D01*
X150833463Y-109774096D01*
X150833461Y-109774097D01*
X150833462Y-109774097D01*
X150645526Y-109899671D01*
X150645524Y-109899673D01*
X150582071Y-109942071D01*
X150539673Y-110005524D01*
X149012638Y-111532560D01*
X147740000Y-111532560D01*
X147492235Y-111581843D01*
X147316975Y-111698949D01*
X147259698Y-111641673D01*
X147026309Y-111545000D01*
X146335750Y-111545000D01*
X146177000Y-111703750D01*
X146177000Y-112903000D01*
X146197000Y-112903000D01*
X146197000Y-113157000D01*
X146177000Y-113157000D01*
X146177000Y-114356250D01*
X146335750Y-114515000D01*
X147026309Y-114515000D01*
X147259698Y-114418327D01*
X147316975Y-114361051D01*
X147492235Y-114478157D01*
X147740000Y-114527440D01*
X149440000Y-114527440D01*
X149687765Y-114478157D01*
X149860000Y-114363072D01*
X150032235Y-114478157D01*
X150280000Y-114527440D01*
X151980000Y-114527440D01*
X152227765Y-114478157D01*
X152437809Y-114337809D01*
X152578157Y-114127765D01*
X152627440Y-113880000D01*
X152627440Y-113790000D01*
X153595153Y-113790000D01*
X153670000Y-113804888D01*
X153744847Y-113790000D01*
X153744852Y-113790000D01*
X153966537Y-113745904D01*
X154217929Y-113577929D01*
X154260331Y-113514470D01*
X160334802Y-107440000D01*
X163755153Y-107440000D01*
X163830000Y-107454888D01*
X163904847Y-107440000D01*
X163904852Y-107440000D01*
X164126537Y-107395904D01*
X164377929Y-107227929D01*
X164420331Y-107164470D01*
X166109802Y-105475000D01*
X166635548Y-105475000D01*
X167126217Y-105271758D01*
X167501758Y-104896217D01*
X167705000Y-104405548D01*
X167705000Y-103874452D01*
X167501758Y-103383783D01*
X167126217Y-103008242D01*
X166635548Y-102805000D01*
X166104452Y-102805000D01*
X165613783Y-103008242D01*
X165238242Y-103383783D01*
X165100000Y-103717528D01*
X164961758Y-103383783D01*
X164586217Y-103008242D01*
X164095548Y-102805000D01*
X163564452Y-102805000D01*
X163073783Y-103008242D01*
X162698242Y-103383783D01*
X162614120Y-103586872D01*
X162506534Y-103327138D01*
X162102862Y-102923466D01*
X161575439Y-102705000D01*
X161004561Y-102705000D01*
X160477138Y-102923466D01*
X160073466Y-103327138D01*
X159855000Y-103854561D01*
X159855000Y-104425439D01*
X160073466Y-104952862D01*
X160477138Y-105356534D01*
X161004561Y-105575000D01*
X161575439Y-105575000D01*
X162102862Y-105356534D01*
X162506534Y-104952862D01*
X162614120Y-104693128D01*
X162698242Y-104896217D01*
X163073783Y-105271758D01*
X163564452Y-105475000D01*
X163960198Y-105475000D01*
X163515199Y-105920000D01*
X160094846Y-105920000D01*
X160019999Y-105905112D01*
X159945152Y-105920000D01*
X159945148Y-105920000D01*
X159723463Y-105964096D01*
X159510000Y-106106728D01*
X159510000Y-104214846D01*
X159524888Y-104139999D01*
X159510000Y-104065152D01*
X159510000Y-104065148D01*
X159465904Y-103843463D01*
X159297929Y-103592071D01*
X159234473Y-103549671D01*
X158070331Y-102385530D01*
X158027929Y-102322071D01*
X157776537Y-102154096D01*
X157554852Y-102110000D01*
X157554847Y-102110000D01*
X157480000Y-102095112D01*
X157405153Y-102110000D01*
X157307774Y-102110000D01*
X157172481Y-101907519D01*
X156730891Y-101612458D01*
X156668261Y-101600000D01*
X156730891Y-101587542D01*
X157172481Y-101292481D01*
X157467542Y-100850891D01*
X157571154Y-100330000D01*
X157523645Y-100091156D01*
X158760240Y-98854561D01*
X159855000Y-98854561D01*
X159855000Y-99425439D01*
X160073466Y-99952862D01*
X160477138Y-100356534D01*
X161004561Y-100575000D01*
X161575439Y-100575000D01*
X162102862Y-100356534D01*
X162506534Y-99952862D01*
X162725000Y-99425439D01*
X162725000Y-98854561D01*
X162506534Y-98327138D01*
X162102862Y-97923466D01*
X161575439Y-97705000D01*
X161004561Y-97705000D01*
X160477138Y-97923466D01*
X160073466Y-98327138D01*
X159855000Y-98854561D01*
X158760240Y-98854561D01*
X161094801Y-96520000D01*
X162468846Y-96520000D01*
X162572458Y-97040891D01*
X162867519Y-97482481D01*
X163309109Y-97777542D01*
X163698515Y-97855000D01*
X163961485Y-97855000D01*
X164350891Y-97777542D01*
X164792481Y-97482481D01*
X165087542Y-97040891D01*
X165100000Y-96978261D01*
X165112458Y-97040891D01*
X165407519Y-97482481D01*
X165849109Y-97777542D01*
X166238515Y-97855000D01*
X166501485Y-97855000D01*
X166890891Y-97777542D01*
X167332481Y-97482481D01*
X167627542Y-97040891D01*
X167731154Y-96520000D01*
X167627542Y-95999109D01*
X167332481Y-95557519D01*
X166890891Y-95262458D01*
X166828261Y-95250000D01*
X166890891Y-95237542D01*
X167332481Y-94942481D01*
X167627542Y-94500891D01*
X167731154Y-93980000D01*
X167627542Y-93459109D01*
X167332481Y-93017519D01*
X166890891Y-92722458D01*
X166501485Y-92645000D01*
X166238515Y-92645000D01*
X165849109Y-92722458D01*
X165407519Y-93017519D01*
X165112458Y-93459109D01*
X165008846Y-93980000D01*
X165112458Y-94500891D01*
X165407519Y-94942481D01*
X165849109Y-95237542D01*
X165911739Y-95250000D01*
X165849109Y-95262458D01*
X165407519Y-95557519D01*
X165112458Y-95999109D01*
X165100000Y-96061739D01*
X165087542Y-95999109D01*
X164792481Y-95557519D01*
X164350891Y-95262458D01*
X163961485Y-95185000D01*
X163698515Y-95185000D01*
X163309109Y-95262458D01*
X162867519Y-95557519D01*
X162572458Y-95999109D01*
X162468846Y-96520000D01*
X161094801Y-96520000D01*
X161774473Y-95840329D01*
X161837929Y-95797929D01*
X162005904Y-95546537D01*
X162050000Y-95324852D01*
X162050000Y-95324847D01*
X162064888Y-95250000D01*
X162050000Y-95175153D01*
X162050000Y-87857440D01*
X162140000Y-87857440D01*
X162387765Y-87808157D01*
X162597809Y-87667809D01*
X162738157Y-87457765D01*
X162787440Y-87210000D01*
X162787440Y-85510000D01*
X162738157Y-85262235D01*
X162597809Y-85052191D01*
X162387765Y-84911843D01*
X162342381Y-84902816D01*
X162360625Y-84890625D01*
X162573843Y-84571522D01*
X162634817Y-84701358D01*
X163063076Y-85091645D01*
X163473110Y-85261476D01*
X163703000Y-85140155D01*
X163703000Y-83947000D01*
X163683000Y-83947000D01*
X163683000Y-83693000D01*
X163703000Y-83693000D01*
X163703000Y-81407000D01*
X163683000Y-81407000D01*
X163683000Y-81153000D01*
X163703000Y-81153000D01*
X163703000Y-81133000D01*
X163957000Y-81133000D01*
X163957000Y-81153000D01*
X163977000Y-81153000D01*
X163977000Y-81407000D01*
X163957000Y-81407000D01*
X163957000Y-83693000D01*
X163977000Y-83693000D01*
X163977000Y-83947000D01*
X163957000Y-83947000D01*
X163957000Y-85140155D01*
X164186890Y-85261476D01*
X164596924Y-85091645D01*
X164901261Y-84814292D01*
X164921843Y-84917765D01*
X165062191Y-85127809D01*
X165272235Y-85268157D01*
X165520000Y-85317440D01*
X165524585Y-85317440D01*
X165238242Y-85603783D01*
X165035000Y-86094452D01*
X165035000Y-86625548D01*
X165238242Y-87116217D01*
X165613783Y-87491758D01*
X166104452Y-87695000D01*
X166635548Y-87695000D01*
X167126217Y-87491758D01*
X167501758Y-87116217D01*
X167705000Y-86625548D01*
X167705000Y-86094452D01*
X167501758Y-85603783D01*
X167215415Y-85317440D01*
X167220000Y-85317440D01*
X167467765Y-85268157D01*
X167677809Y-85127809D01*
X167818157Y-84917765D01*
X167867440Y-84670000D01*
X167867440Y-82970000D01*
X167818157Y-82722235D01*
X167677809Y-82512191D01*
X167467765Y-82371843D01*
X167422381Y-82362816D01*
X167440625Y-82350625D01*
X167768839Y-81859418D01*
X167884092Y-81280000D01*
X169935908Y-81280000D01*
X170051161Y-81859418D01*
X170379375Y-82350625D01*
X170397619Y-82362816D01*
X170352235Y-82371843D01*
X170142191Y-82512191D01*
X170001843Y-82722235D01*
X169952560Y-82970000D01*
X169952560Y-84670000D01*
X170001843Y-84917765D01*
X170142191Y-85127809D01*
X170352235Y-85268157D01*
X170600000Y-85317440D01*
X171872639Y-85317440D01*
X179855527Y-93300329D01*
X179855530Y-93300331D01*
X180112560Y-93557361D01*
X180112560Y-94830000D01*
X180161843Y-95077765D01*
X180302191Y-95287809D01*
X180512235Y-95428157D01*
X180760000Y-95477440D01*
X182460000Y-95477440D01*
X182707765Y-95428157D01*
X182917809Y-95287809D01*
X183058157Y-95077765D01*
X183067184Y-95032381D01*
X183079375Y-95050625D01*
X183570582Y-95378839D01*
X184003744Y-95465000D01*
X184296256Y-95465000D01*
X184729418Y-95378839D01*
X185220625Y-95050625D01*
X185548839Y-94559418D01*
X185664092Y-93980000D01*
X185548839Y-93400582D01*
X185220625Y-92909375D01*
X184901522Y-92696157D01*
X185031358Y-92635183D01*
X185421645Y-92206924D01*
X185591476Y-91796890D01*
X185470155Y-91567000D01*
X184277000Y-91567000D01*
X184277000Y-91587000D01*
X184023000Y-91587000D01*
X184023000Y-91567000D01*
X181737000Y-91567000D01*
X181737000Y-91587000D01*
X181483000Y-91587000D01*
X181483000Y-91567000D01*
X181463000Y-91567000D01*
X181463000Y-91313000D01*
X181483000Y-91313000D01*
X181483000Y-91293000D01*
X181737000Y-91293000D01*
X181737000Y-91313000D01*
X184023000Y-91313000D01*
X184023000Y-91293000D01*
X184277000Y-91293000D01*
X184277000Y-91313000D01*
X185470155Y-91313000D01*
X185591476Y-91083110D01*
X185421645Y-90673076D01*
X185031358Y-90244817D01*
X184901522Y-90183843D01*
X185220625Y-89970625D01*
X185548839Y-89479418D01*
X185664092Y-88900000D01*
X185548839Y-88320582D01*
X185220625Y-87829375D01*
X184729418Y-87501161D01*
X184296256Y-87415000D01*
X184003744Y-87415000D01*
X183570582Y-87501161D01*
X183079375Y-87829375D01*
X182880000Y-88127761D01*
X182680625Y-87829375D01*
X182189418Y-87501161D01*
X181756256Y-87415000D01*
X181463744Y-87415000D01*
X181243593Y-87458791D01*
X177971209Y-84186408D01*
X178044092Y-83820000D01*
X177928839Y-83240582D01*
X177600625Y-82749375D01*
X177302239Y-82550000D01*
X177600625Y-82350625D01*
X177928839Y-81859418D01*
X178044092Y-81280000D01*
X177928839Y-80700582D01*
X177600625Y-80209375D01*
X177109418Y-79881161D01*
X176676256Y-79795000D01*
X176383744Y-79795000D01*
X175950582Y-79881161D01*
X175459375Y-80209375D01*
X175246157Y-80528478D01*
X175185183Y-80398642D01*
X174756924Y-80008355D01*
X174346890Y-79838524D01*
X174117000Y-79959845D01*
X174117000Y-81153000D01*
X174137000Y-81153000D01*
X174137000Y-81407000D01*
X174117000Y-81407000D01*
X174117000Y-83693000D01*
X174137000Y-83693000D01*
X174137000Y-83947000D01*
X174117000Y-83947000D01*
X174117000Y-83967000D01*
X173863000Y-83967000D01*
X173863000Y-83947000D01*
X173843000Y-83947000D01*
X173843000Y-83693000D01*
X173863000Y-83693000D01*
X173863000Y-81407000D01*
X173843000Y-81407000D01*
X173843000Y-81153000D01*
X173863000Y-81153000D01*
X173863000Y-79959845D01*
X173633110Y-79838524D01*
X173223076Y-80008355D01*
X172794817Y-80398642D01*
X172733843Y-80528478D01*
X172520625Y-80209375D01*
X172029418Y-79881161D01*
X171596256Y-79795000D01*
X171303744Y-79795000D01*
X170870582Y-79881161D01*
X170379375Y-80209375D01*
X170051161Y-80700582D01*
X169935908Y-81280000D01*
X167884092Y-81280000D01*
X167768839Y-80700582D01*
X167440625Y-80209375D01*
X166949418Y-79881161D01*
X166516256Y-79795000D01*
X166223744Y-79795000D01*
X166003593Y-79838791D01*
X164885312Y-78720511D01*
X164842910Y-78657052D01*
X164591518Y-78489077D01*
X164369833Y-78444981D01*
X164369828Y-78444981D01*
X164294981Y-78430093D01*
X164220134Y-78444981D01*
X127879865Y-78444981D01*
X127805018Y-78430093D01*
X127730171Y-78444981D01*
X127730167Y-78444981D01*
X127508482Y-78489077D01*
X127257090Y-78657052D01*
X127214690Y-78720508D01*
X126096408Y-79838791D01*
X125876256Y-79795000D01*
X125583744Y-79795000D01*
X125150582Y-79881161D01*
X124659375Y-80209375D01*
X124331161Y-80700582D01*
X124215908Y-81280000D01*
X122164092Y-81280000D01*
X122048839Y-80700582D01*
X121720625Y-80209375D01*
X121229418Y-79881161D01*
X120796256Y-79795000D01*
X120503744Y-79795000D01*
X120070582Y-79881161D01*
X119579375Y-80209375D01*
X119366157Y-80528478D01*
X119305183Y-80398642D01*
X118876924Y-80008355D01*
X118466890Y-79838524D01*
X118237000Y-79959845D01*
X118237000Y-81153000D01*
X118257000Y-81153000D01*
X118257000Y-81407000D01*
X118237000Y-81407000D01*
X118237000Y-83693000D01*
X118257000Y-83693000D01*
X118257000Y-83947000D01*
X118237000Y-83947000D01*
X118237000Y-83967000D01*
X117983000Y-83967000D01*
X117983000Y-83947000D01*
X117963000Y-83947000D01*
X117963000Y-83693000D01*
X117983000Y-83693000D01*
X117983000Y-81407000D01*
X117963000Y-81407000D01*
X117963000Y-81153000D01*
X117983000Y-81153000D01*
X117983000Y-79959845D01*
X117753110Y-79838524D01*
X117343076Y-80008355D01*
X116914817Y-80398642D01*
X116853843Y-80528478D01*
X116640625Y-80209375D01*
X116149418Y-79881161D01*
X115716256Y-79795000D01*
X115423744Y-79795000D01*
X114990582Y-79881161D01*
X114499375Y-80209375D01*
X114171161Y-80700582D01*
X114055908Y-81280000D01*
X114171161Y-81859418D01*
X114499375Y-82350625D01*
X114797761Y-82550000D01*
X114499375Y-82749375D01*
X114171161Y-83240582D01*
X114055908Y-83820000D01*
X114128791Y-84186407D01*
X110856408Y-87458791D01*
X110636256Y-87415000D01*
X110343744Y-87415000D01*
X109910582Y-87501161D01*
X109419375Y-87829375D01*
X109220000Y-88127761D01*
X109020625Y-87829375D01*
X108529418Y-87501161D01*
X108096256Y-87415000D01*
X107803744Y-87415000D01*
X107370582Y-87501161D01*
X106879375Y-87829375D01*
X106551161Y-88320582D01*
X106435908Y-88900000D01*
X101727000Y-88900000D01*
X101727000Y-78365050D01*
X103525000Y-78365050D01*
X103525000Y-79114950D01*
X103811974Y-79807767D01*
X104342233Y-80338026D01*
X105035050Y-80625000D01*
X105784950Y-80625000D01*
X106477767Y-80338026D01*
X107008026Y-79807767D01*
X107295000Y-79114950D01*
X107295000Y-78365050D01*
X184805000Y-78365050D01*
X184805000Y-79114950D01*
X185091974Y-79807767D01*
X185622233Y-80338026D01*
X186315050Y-80625000D01*
X187064950Y-80625000D01*
X187757767Y-80338026D01*
X188288026Y-79807767D01*
X188575000Y-79114950D01*
X188575000Y-78365050D01*
X188288026Y-77672233D01*
X187757767Y-77141974D01*
X187064950Y-76855000D01*
X186315050Y-76855000D01*
X185622233Y-77141974D01*
X185091974Y-77672233D01*
X184805000Y-78365050D01*
X107295000Y-78365050D01*
X107008026Y-77672233D01*
X106477767Y-77141974D01*
X105784950Y-76855000D01*
X105035050Y-76855000D01*
X104342233Y-77141974D01*
X103811974Y-77672233D01*
X103525000Y-78365050D01*
X101727000Y-78365050D01*
X101727000Y-75057000D01*
X190373000Y-75057000D01*
X190373000Y-117983000D01*
X190373000Y-117983000D01*
G37*
X190373000Y-117983000D02*
X161170820Y-117983000D01*
X161387920Y-117837938D01*
X161430322Y-117774479D01*
X165279751Y-113925050D01*
X184805000Y-113925050D01*
X184805000Y-114674950D01*
X185091974Y-115367767D01*
X185622233Y-115898026D01*
X186315050Y-116185000D01*
X187064950Y-116185000D01*
X187757767Y-115898026D01*
X188288026Y-115367767D01*
X188575000Y-114674950D01*
X188575000Y-113925050D01*
X188288026Y-113232233D01*
X187757767Y-112701974D01*
X187064950Y-112415000D01*
X186315050Y-112415000D01*
X185622233Y-112701974D01*
X185091974Y-113232233D01*
X184805000Y-113925050D01*
X165279751Y-113925050D01*
X166003593Y-113201209D01*
X166223744Y-113245000D01*
X166516256Y-113245000D01*
X166949418Y-113158839D01*
X167440625Y-112830625D01*
X167768839Y-112339418D01*
X167884092Y-111760000D01*
X169935908Y-111760000D01*
X170051161Y-112339418D01*
X170379375Y-112830625D01*
X170870582Y-113158839D01*
X171303744Y-113245000D01*
X171596256Y-113245000D01*
X172029418Y-113158839D01*
X172520625Y-112830625D01*
X172733843Y-112511522D01*
X172794817Y-112641358D01*
X173223076Y-113031645D01*
X173633110Y-113201476D01*
X173863000Y-113080155D01*
X173863000Y-111887000D01*
X173843000Y-111887000D01*
X173843000Y-111633000D01*
X173863000Y-111633000D01*
X173863000Y-109347000D01*
X174117000Y-109347000D01*
X174117000Y-111633000D01*
X174137000Y-111633000D01*
X174137000Y-111887000D01*
X174117000Y-111887000D01*
X174117000Y-113080155D01*
X174346890Y-113201476D01*
X174756924Y-113031645D01*
X175185183Y-112641358D01*
X175246157Y-112511522D01*
X175459375Y-112830625D01*
X175950582Y-113158839D01*
X176383744Y-113245000D01*
X176676256Y-113245000D01*
X177109418Y-113158839D01*
X177600625Y-112830625D01*
X177928839Y-112339418D01*
X178044092Y-111760000D01*
X177928839Y-111180582D01*
X177600625Y-110689375D01*
X177302239Y-110490000D01*
X177600625Y-110290625D01*
X177928839Y-109799418D01*
X178044092Y-109220000D01*
X177971209Y-108853592D01*
X181243593Y-105581209D01*
X181463744Y-105625000D01*
X181756256Y-105625000D01*
X182189418Y-105538839D01*
X182680625Y-105210625D01*
X182880000Y-104912239D01*
X183079375Y-105210625D01*
X183570582Y-105538839D01*
X184003744Y-105625000D01*
X184296256Y-105625000D01*
X184729418Y-105538839D01*
X185220625Y-105210625D01*
X185548839Y-104719418D01*
X185664092Y-104140000D01*
X185548839Y-103560582D01*
X185220625Y-103069375D01*
X184901522Y-102856157D01*
X185031358Y-102795183D01*
X185421645Y-102366924D01*
X185591476Y-101956890D01*
X185470155Y-101727000D01*
X184277000Y-101727000D01*
X184277000Y-101747000D01*
X184023000Y-101747000D01*
X184023000Y-101727000D01*
X181737000Y-101727000D01*
X181737000Y-101473000D01*
X184023000Y-101473000D01*
X184023000Y-101453000D01*
X184277000Y-101453000D01*
X184277000Y-101473000D01*
X185470155Y-101473000D01*
X185591476Y-101243110D01*
X185421645Y-100833076D01*
X185031358Y-100404817D01*
X184901522Y-100343843D01*
X185220625Y-100130625D01*
X185548839Y-99639418D01*
X185664092Y-99060000D01*
X185548839Y-98480582D01*
X185220625Y-97989375D01*
X184729418Y-97661161D01*
X184296256Y-97575000D01*
X184003744Y-97575000D01*
X183570582Y-97661161D01*
X183079375Y-97989375D01*
X183067184Y-98007619D01*
X183058157Y-97962235D01*
X182917809Y-97752191D01*
X182707765Y-97611843D01*
X182460000Y-97562560D01*
X180760000Y-97562560D01*
X180512235Y-97611843D01*
X180302191Y-97752191D01*
X180161843Y-97962235D01*
X180112560Y-98210000D01*
X180112560Y-99482638D01*
X171872639Y-107722560D01*
X170600000Y-107722560D01*
X170352235Y-107771843D01*
X170142191Y-107912191D01*
X170001843Y-108122235D01*
X169952560Y-108370000D01*
X169952560Y-110070000D01*
X170001843Y-110317765D01*
X170142191Y-110527809D01*
X170352235Y-110668157D01*
X170397619Y-110677184D01*
X170379375Y-110689375D01*
X170051161Y-111180582D01*
X169935908Y-111760000D01*
X167884092Y-111760000D01*
X167768839Y-111180582D01*
X167440625Y-110689375D01*
X167422381Y-110677184D01*
X167467765Y-110668157D01*
X167677809Y-110527809D01*
X167818157Y-110317765D01*
X167867440Y-110070000D01*
X167867440Y-108370000D01*
X167818157Y-108122235D01*
X167677809Y-107912191D01*
X167467765Y-107771843D01*
X167220000Y-107722560D01*
X165520000Y-107722560D01*
X165272235Y-107771843D01*
X165062191Y-107912191D01*
X164921843Y-108122235D01*
X164901261Y-108225708D01*
X164596924Y-107948355D01*
X164186890Y-107778524D01*
X163957000Y-107899845D01*
X163957000Y-109093000D01*
X163977000Y-109093000D01*
X163977000Y-109347000D01*
X163957000Y-109347000D01*
X163957000Y-111633000D01*
X163977000Y-111633000D01*
X163977000Y-111887000D01*
X163957000Y-111887000D01*
X163957000Y-111907000D01*
X163703000Y-111907000D01*
X163703000Y-111887000D01*
X163683000Y-111887000D01*
X163683000Y-111633000D01*
X163703000Y-111633000D01*
X163703000Y-109347000D01*
X163683000Y-109347000D01*
X163683000Y-109093000D01*
X163703000Y-109093000D01*
X163703000Y-107899845D01*
X163473110Y-107778524D01*
X163063076Y-107948355D01*
X162634817Y-108338642D01*
X162573843Y-108468478D01*
X162360625Y-108149375D01*
X161869418Y-107821161D01*
X161436256Y-107735000D01*
X161143744Y-107735000D01*
X160710582Y-107821161D01*
X160219375Y-108149375D01*
X159891161Y-108640582D01*
X159775908Y-109220000D01*
X159891161Y-109799418D01*
X160219375Y-110290625D01*
X160517761Y-110490000D01*
X160219375Y-110689375D01*
X159891161Y-111180582D01*
X159775908Y-111760000D01*
X159848791Y-112126407D01*
X156345209Y-115629990D01*
X135754792Y-115629990D01*
X135210331Y-115085530D01*
X135210329Y-115085527D01*
X133440552Y-113315750D01*
X144565000Y-113315750D01*
X144565000Y-114006310D01*
X144661673Y-114239699D01*
X144840302Y-114418327D01*
X145073691Y-114515000D01*
X145764250Y-114515000D01*
X145923000Y-114356250D01*
X145923000Y-113157000D01*
X144723750Y-113157000D01*
X144565000Y-113315750D01*
X133440552Y-113315750D01*
X132251209Y-112126408D01*
X132265673Y-112053690D01*
X144565000Y-112053690D01*
X144565000Y-112744250D01*
X144723750Y-112903000D01*
X145923000Y-112903000D01*
X145923000Y-111703750D01*
X145764250Y-111545000D01*
X145073691Y-111545000D01*
X144840302Y-111641673D01*
X144661673Y-111820301D01*
X144565000Y-112053690D01*
X132265673Y-112053690D01*
X132324092Y-111760000D01*
X132208839Y-111180582D01*
X131880625Y-110689375D01*
X131582239Y-110490000D01*
X131880625Y-110290625D01*
X132208839Y-109799418D01*
X132324092Y-109220000D01*
X132208839Y-108640582D01*
X131880625Y-108149375D01*
X131389418Y-107821161D01*
X130956256Y-107735000D01*
X130663744Y-107735000D01*
X130230582Y-107821161D01*
X129739375Y-108149375D01*
X129526157Y-108468478D01*
X129465183Y-108338642D01*
X129036924Y-107948355D01*
X128626890Y-107778524D01*
X128397000Y-107899845D01*
X128397000Y-109093000D01*
X128417000Y-109093000D01*
X128417000Y-109347000D01*
X128397000Y-109347000D01*
X128397000Y-111633000D01*
X128417000Y-111633000D01*
X128417000Y-111887000D01*
X128397000Y-111887000D01*
X128397000Y-111907000D01*
X128143000Y-111907000D01*
X128143000Y-111887000D01*
X128123000Y-111887000D01*
X128123000Y-111633000D01*
X128143000Y-111633000D01*
X128143000Y-109347000D01*
X128123000Y-109347000D01*
X128123000Y-109093000D01*
X128143000Y-109093000D01*
X128143000Y-107899845D01*
X127913110Y-107778524D01*
X127503076Y-107948355D01*
X127198739Y-108225708D01*
X127178157Y-108122235D01*
X127037809Y-107912191D01*
X126827765Y-107771843D01*
X126580000Y-107722560D01*
X124880000Y-107722560D01*
X124632235Y-107771843D01*
X124422191Y-107912191D01*
X124281843Y-108122235D01*
X124232560Y-108370000D01*
X124232560Y-110070000D01*
X124281843Y-110317765D01*
X124422191Y-110527809D01*
X124632235Y-110668157D01*
X124677619Y-110677184D01*
X124659375Y-110689375D01*
X124331161Y-111180582D01*
X124215908Y-111760000D01*
X124331161Y-112339418D01*
X124659375Y-112830625D01*
X125150582Y-113158839D01*
X125583744Y-113245000D01*
X125876256Y-113245000D01*
X126096408Y-113201209D01*
X130669680Y-117774482D01*
X130712080Y-117837938D01*
X130929180Y-117983000D01*
X101727000Y-117983000D01*
X101727000Y-113925050D01*
X103525000Y-113925050D01*
X103525000Y-114674950D01*
X103811974Y-115367767D01*
X104342233Y-115898026D01*
X105035050Y-116185000D01*
X105784950Y-116185000D01*
X106477767Y-115898026D01*
X107008026Y-115367767D01*
X107295000Y-114674950D01*
X107295000Y-113925050D01*
X107008026Y-113232233D01*
X106477767Y-112701974D01*
X105784950Y-112415000D01*
X105035050Y-112415000D01*
X104342233Y-112701974D01*
X103811974Y-113232233D01*
X103525000Y-113925050D01*
X101727000Y-113925050D01*
X101727000Y-99060000D01*
X106435908Y-99060000D01*
X106551161Y-99639418D01*
X106879375Y-100130625D01*
X107198478Y-100343843D01*
X107068642Y-100404817D01*
X106678355Y-100833076D01*
X106508524Y-101243110D01*
X106629845Y-101473000D01*
X107823000Y-101473000D01*
X107823000Y-101453000D01*
X108077000Y-101453000D01*
X108077000Y-101473000D01*
X110363000Y-101473000D01*
X110363000Y-101453000D01*
X110617000Y-101453000D01*
X110617000Y-101473000D01*
X110637000Y-101473000D01*
X110637000Y-101727000D01*
X110617000Y-101727000D01*
X110617000Y-101747000D01*
X110363000Y-101747000D01*
X110363000Y-101727000D01*
X108077000Y-101727000D01*
X108077000Y-101747000D01*
X107823000Y-101747000D01*
X107823000Y-101727000D01*
X106629845Y-101727000D01*
X106508524Y-101956890D01*
X106678355Y-102366924D01*
X107068642Y-102795183D01*
X107198478Y-102856157D01*
X106879375Y-103069375D01*
X106551161Y-103560582D01*
X106435908Y-104140000D01*
X106551161Y-104719418D01*
X106879375Y-105210625D01*
X107370582Y-105538839D01*
X107803744Y-105625000D01*
X108096256Y-105625000D01*
X108529418Y-105538839D01*
X109020625Y-105210625D01*
X109220000Y-104912239D01*
X109419375Y-105210625D01*
X109910582Y-105538839D01*
X110343744Y-105625000D01*
X110636256Y-105625000D01*
X110856408Y-105581209D01*
X114128791Y-108853593D01*
X114055908Y-109220000D01*
X114171161Y-109799418D01*
X114499375Y-110290625D01*
X114797761Y-110490000D01*
X114499375Y-110689375D01*
X114171161Y-111180582D01*
X114055908Y-111760000D01*
X114171161Y-112339418D01*
X114499375Y-112830625D01*
X114990582Y-113158839D01*
X115423744Y-113245000D01*
X115716256Y-113245000D01*
X116149418Y-113158839D01*
X116640625Y-112830625D01*
X116853843Y-112511522D01*
X116914817Y-112641358D01*
X117343076Y-113031645D01*
X117753110Y-113201476D01*
X117983000Y-113080155D01*
X117983000Y-111887000D01*
X117963000Y-111887000D01*
X117963000Y-111633000D01*
X117983000Y-111633000D01*
X117983000Y-109347000D01*
X117963000Y-109347000D01*
X117963000Y-109093000D01*
X117983000Y-109093000D01*
X117983000Y-109073000D01*
X118237000Y-109073000D01*
X118237000Y-109093000D01*
X118257000Y-109093000D01*
X118257000Y-109347000D01*
X118237000Y-109347000D01*
X118237000Y-111633000D01*
X118257000Y-111633000D01*
X118257000Y-111887000D01*
X118237000Y-111887000D01*
X118237000Y-113080155D01*
X118466890Y-113201476D01*
X118876924Y-113031645D01*
X119305183Y-112641358D01*
X119366157Y-112511522D01*
X119579375Y-112830625D01*
X120070582Y-113158839D01*
X120503744Y-113245000D01*
X120796256Y-113245000D01*
X121229418Y-113158839D01*
X121720625Y-112830625D01*
X122048839Y-112339418D01*
X122164092Y-111760000D01*
X122048839Y-111180582D01*
X121720625Y-110689375D01*
X121702381Y-110677184D01*
X121747765Y-110668157D01*
X121957809Y-110527809D01*
X122098157Y-110317765D01*
X122147440Y-110070000D01*
X122147440Y-108370000D01*
X122098157Y-108122235D01*
X121957809Y-107912191D01*
X121747765Y-107771843D01*
X121500000Y-107722560D01*
X120227362Y-107722560D01*
X116379254Y-103874452D01*
X129475000Y-103874452D01*
X129475000Y-104405548D01*
X129678242Y-104896217D01*
X130053783Y-105271758D01*
X130544452Y-105475000D01*
X131075548Y-105475000D01*
X131566217Y-105271758D01*
X131941758Y-104896217D01*
X132145000Y-104405548D01*
X132145000Y-103874452D01*
X131941758Y-103383783D01*
X131566217Y-103008242D01*
X131075548Y-102805000D01*
X130544452Y-102805000D01*
X130053783Y-103008242D01*
X129678242Y-103383783D01*
X129475000Y-103874452D01*
X116379254Y-103874452D01*
X111987440Y-99482639D01*
X111987440Y-98794452D01*
X126935000Y-98794452D01*
X126935000Y-99325548D01*
X127138242Y-99816217D01*
X127513783Y-100191758D01*
X128004452Y-100395000D01*
X128535548Y-100395000D01*
X129026217Y-100191758D01*
X129401758Y-99816217D01*
X129570416Y-99409039D01*
X131958096Y-99409039D01*
X132118959Y-99797423D01*
X132494866Y-100212389D01*
X133000959Y-100451914D01*
X133223000Y-100330629D01*
X133223000Y-99187000D01*
X133477000Y-99187000D01*
X133477000Y-100330629D01*
X133699041Y-100451914D01*
X134205134Y-100212389D01*
X134581041Y-99797423D01*
X134741904Y-99409039D01*
X134619915Y-99187000D01*
X133477000Y-99187000D01*
X133223000Y-99187000D01*
X132080085Y-99187000D01*
X131958096Y-99409039D01*
X129570416Y-99409039D01*
X129605000Y-99325548D01*
X129605000Y-99060000D01*
X139506887Y-99060000D01*
X139618260Y-99619909D01*
X139935423Y-100094577D01*
X140410091Y-100411740D01*
X140828667Y-100495000D01*
X141111333Y-100495000D01*
X141529909Y-100411740D01*
X142004577Y-100094577D01*
X142321740Y-99619909D01*
X142433113Y-99060000D01*
X142321740Y-98500091D01*
X142004577Y-98025423D01*
X141620892Y-97769053D01*
X141825134Y-97672389D01*
X142201041Y-97257423D01*
X142361904Y-96869039D01*
X142239915Y-96647000D01*
X141097000Y-96647000D01*
X141097000Y-96667000D01*
X140843000Y-96667000D01*
X140843000Y-96647000D01*
X139700085Y-96647000D01*
X139578096Y-96869039D01*
X139738959Y-97257423D01*
X140114866Y-97672389D01*
X140319108Y-97769053D01*
X139935423Y-98025423D01*
X139618260Y-98500091D01*
X139506887Y-99060000D01*
X129605000Y-99060000D01*
X129605000Y-98794452D01*
X129401758Y-98303783D01*
X129026217Y-97928242D01*
X128535548Y-97725000D01*
X128004452Y-97725000D01*
X127513783Y-97928242D01*
X127138242Y-98303783D01*
X126935000Y-98794452D01*
X111987440Y-98794452D01*
X111987440Y-98210000D01*
X111938157Y-97962235D01*
X111797809Y-97752191D01*
X111587765Y-97611843D01*
X111340000Y-97562560D01*
X109640000Y-97562560D01*
X109392235Y-97611843D01*
X109182191Y-97752191D01*
X109041843Y-97962235D01*
X109032816Y-98007619D01*
X109020625Y-97989375D01*
X108529418Y-97661161D01*
X108096256Y-97575000D01*
X107803744Y-97575000D01*
X107370582Y-97661161D01*
X106879375Y-97989375D01*
X106551161Y-98480582D01*
X106435908Y-99060000D01*
X101727000Y-99060000D01*
X101727000Y-96853331D01*
X129517273Y-96853331D01*
X129743236Y-97322663D01*
X130131604Y-97669797D01*
X130476671Y-97812716D01*
X130683000Y-97689374D01*
X130683000Y-96647000D01*
X129639794Y-96647000D01*
X129517273Y-96853331D01*
X101727000Y-96853331D01*
X101727000Y-96186669D01*
X129517273Y-96186669D01*
X129639794Y-96393000D01*
X130683000Y-96393000D01*
X130683000Y-95350626D01*
X130937000Y-95350626D01*
X130937000Y-96393000D01*
X130957000Y-96393000D01*
X130957000Y-96647000D01*
X130937000Y-96647000D01*
X130937000Y-97689374D01*
X131143329Y-97812716D01*
X131488396Y-97669797D01*
X131876764Y-97322663D01*
X131996909Y-97073118D01*
X131998260Y-97079909D01*
X132315423Y-97554577D01*
X132699108Y-97810947D01*
X132494866Y-97907611D01*
X132118959Y-98322577D01*
X131958096Y-98710961D01*
X132080085Y-98933000D01*
X133223000Y-98933000D01*
X133223000Y-98913000D01*
X133477000Y-98913000D01*
X133477000Y-98933000D01*
X134619915Y-98933000D01*
X134741904Y-98710961D01*
X134581041Y-98322577D01*
X134205134Y-97907611D01*
X134000892Y-97810947D01*
X134384577Y-97554577D01*
X134701740Y-97079909D01*
X134813113Y-96520000D01*
X134701740Y-95960091D01*
X134384577Y-95485423D01*
X134000892Y-95229053D01*
X134205134Y-95132389D01*
X134581041Y-94717423D01*
X134741904Y-94329039D01*
X134619915Y-94107000D01*
X133477000Y-94107000D01*
X133477000Y-94127000D01*
X133223000Y-94127000D01*
X133223000Y-94107000D01*
X132080085Y-94107000D01*
X131958096Y-94329039D01*
X132118959Y-94717423D01*
X132494866Y-95132389D01*
X132699108Y-95229053D01*
X132315423Y-95485423D01*
X131998260Y-95960091D01*
X131996909Y-95966882D01*
X131876764Y-95717337D01*
X131488396Y-95370203D01*
X131143329Y-95227284D01*
X130937000Y-95350626D01*
X130683000Y-95350626D01*
X130476671Y-95227284D01*
X130131604Y-95370203D01*
X129743236Y-95717337D01*
X129517273Y-96186669D01*
X101727000Y-96186669D01*
X101727000Y-88900000D01*
X106435908Y-88900000D01*
X106551161Y-89479418D01*
X106879375Y-89970625D01*
X107198478Y-90183843D01*
X107068642Y-90244817D01*
X106678355Y-90673076D01*
X106508524Y-91083110D01*
X106629845Y-91313000D01*
X107823000Y-91313000D01*
X107823000Y-91293000D01*
X108077000Y-91293000D01*
X108077000Y-91313000D01*
X110363000Y-91313000D01*
X110363000Y-91293000D01*
X110617000Y-91293000D01*
X110617000Y-91313000D01*
X110637000Y-91313000D01*
X110637000Y-91567000D01*
X110617000Y-91567000D01*
X110617000Y-91587000D01*
X110363000Y-91587000D01*
X110363000Y-91567000D01*
X108077000Y-91567000D01*
X108077000Y-91587000D01*
X107823000Y-91587000D01*
X107823000Y-91567000D01*
X106629845Y-91567000D01*
X106508524Y-91796890D01*
X106678355Y-92206924D01*
X107068642Y-92635183D01*
X107198478Y-92696157D01*
X106879375Y-92909375D01*
X106551161Y-93400582D01*
X106435908Y-93980000D01*
X106551161Y-94559418D01*
X106879375Y-95050625D01*
X107370582Y-95378839D01*
X107803744Y-95465000D01*
X108096256Y-95465000D01*
X108529418Y-95378839D01*
X109020625Y-95050625D01*
X109032816Y-95032381D01*
X109041843Y-95077765D01*
X109182191Y-95287809D01*
X109392235Y-95428157D01*
X109640000Y-95477440D01*
X111340000Y-95477440D01*
X111587765Y-95428157D01*
X111797809Y-95287809D01*
X111938157Y-95077765D01*
X111987440Y-94830000D01*
X111987440Y-93557362D01*
X112350329Y-93194473D01*
X112350331Y-93194470D01*
X114104801Y-91440000D01*
X126908846Y-91440000D01*
X127012458Y-91960891D01*
X127307519Y-92402481D01*
X127749109Y-92697542D01*
X128138515Y-92775000D01*
X128401485Y-92775000D01*
X128790891Y-92697542D01*
X129232481Y-92402481D01*
X129527542Y-91960891D01*
X129631154Y-91440000D01*
X129527542Y-90919109D01*
X129341048Y-90640000D01*
X131902560Y-90640000D01*
X131902560Y-92240000D01*
X131951843Y-92487765D01*
X132092191Y-92697809D01*
X132302235Y-92838157D01*
X132457361Y-92869013D01*
X132118959Y-93242577D01*
X131958096Y-93630961D01*
X132080085Y-93853000D01*
X133223000Y-93853000D01*
X133223000Y-93833000D01*
X133477000Y-93833000D01*
X133477000Y-93853000D01*
X134619915Y-93853000D01*
X134741904Y-93630961D01*
X134581041Y-93242577D01*
X134242639Y-92869013D01*
X134397765Y-92838157D01*
X134607809Y-92697809D01*
X134748157Y-92487765D01*
X134797440Y-92240000D01*
X134797440Y-91440000D01*
X139506887Y-91440000D01*
X139618260Y-91999909D01*
X139935423Y-92474577D01*
X140287758Y-92710000D01*
X139935423Y-92945423D01*
X139618260Y-93420091D01*
X139506887Y-93980000D01*
X139618260Y-94539909D01*
X139935423Y-95014577D01*
X140319108Y-95270947D01*
X140114866Y-95367611D01*
X139738959Y-95782577D01*
X139578096Y-96170961D01*
X139700085Y-96393000D01*
X140843000Y-96393000D01*
X140843000Y-96373000D01*
X141097000Y-96373000D01*
X141097000Y-96393000D01*
X142239915Y-96393000D01*
X142361904Y-96170961D01*
X142201041Y-95782577D01*
X141825134Y-95367611D01*
X141620892Y-95270947D01*
X141652241Y-95250000D01*
X147126887Y-95250000D01*
X147238260Y-95809909D01*
X147555423Y-96284577D01*
X147676106Y-96365215D01*
X147542235Y-96391843D01*
X147332191Y-96532191D01*
X147191843Y-96742235D01*
X147142560Y-96990000D01*
X147142560Y-98590000D01*
X147191843Y-98837765D01*
X147332191Y-99047809D01*
X147542235Y-99188157D01*
X147790000Y-99237440D01*
X147794585Y-99237440D01*
X147458242Y-99573783D01*
X147255000Y-100064452D01*
X147255000Y-100595548D01*
X147458242Y-101086217D01*
X147833783Y-101461758D01*
X148167528Y-101600000D01*
X147833783Y-101738242D01*
X147458242Y-102113783D01*
X147255000Y-102604452D01*
X147255000Y-103135548D01*
X147458242Y-103626217D01*
X147833783Y-104001758D01*
X148167528Y-104140000D01*
X147833783Y-104278242D01*
X147458242Y-104653783D01*
X147255000Y-105144452D01*
X147255000Y-105675548D01*
X147458242Y-106166217D01*
X147833783Y-106541758D01*
X148324452Y-106745000D01*
X148855548Y-106745000D01*
X149346217Y-106541758D01*
X149721758Y-106166217D01*
X149925000Y-105675548D01*
X149925000Y-105144452D01*
X149721758Y-104653783D01*
X149346217Y-104278242D01*
X149012472Y-104140000D01*
X149346217Y-104001758D01*
X149721758Y-103626217D01*
X149925000Y-103135548D01*
X149925000Y-102604452D01*
X149721758Y-102113783D01*
X149346217Y-101738242D01*
X149012472Y-101600000D01*
X149346217Y-101461758D01*
X149721758Y-101086217D01*
X149925000Y-100595548D01*
X149925000Y-100064452D01*
X149721758Y-99573783D01*
X149385415Y-99237440D01*
X149390000Y-99237440D01*
X149637765Y-99188157D01*
X149847809Y-99047809D01*
X149988157Y-98837765D01*
X150037440Y-98590000D01*
X150037440Y-96990000D01*
X149988157Y-96742235D01*
X149847809Y-96532191D01*
X149637765Y-96391843D01*
X149503894Y-96365215D01*
X149624577Y-96284577D01*
X149941740Y-95809909D01*
X150053113Y-95250000D01*
X149941740Y-94690091D01*
X149624577Y-94215423D01*
X149149909Y-93898260D01*
X148731333Y-93815000D01*
X148448667Y-93815000D01*
X148030091Y-93898260D01*
X147555423Y-94215423D01*
X147238260Y-94690091D01*
X147126887Y-95250000D01*
X141652241Y-95250000D01*
X142004577Y-95014577D01*
X142321740Y-94539909D01*
X142433113Y-93980000D01*
X142321740Y-93420091D01*
X142004577Y-92945423D01*
X141652242Y-92710000D01*
X142004577Y-92474577D01*
X142321740Y-91999909D01*
X142433113Y-91440000D01*
X145856887Y-91440000D01*
X145968260Y-91999909D01*
X146285423Y-92474577D01*
X146760091Y-92791740D01*
X147178667Y-92875000D01*
X147461333Y-92875000D01*
X147879909Y-92791740D01*
X148354577Y-92474577D01*
X148671740Y-91999909D01*
X148783113Y-91440000D01*
X148671740Y-90880091D01*
X148354577Y-90405423D01*
X147970892Y-90149053D01*
X148175134Y-90052389D01*
X148551041Y-89637423D01*
X148711904Y-89249039D01*
X148589915Y-89027000D01*
X147447000Y-89027000D01*
X147447000Y-89047000D01*
X147193000Y-89047000D01*
X147193000Y-89027000D01*
X146050085Y-89027000D01*
X145928096Y-89249039D01*
X146088959Y-89637423D01*
X146464866Y-90052389D01*
X146669108Y-90149053D01*
X146285423Y-90405423D01*
X145968260Y-90880091D01*
X145856887Y-91440000D01*
X142433113Y-91440000D01*
X142321740Y-90880091D01*
X142004577Y-90405423D01*
X141529909Y-90088260D01*
X141111333Y-90005000D01*
X140828667Y-90005000D01*
X140410091Y-90088260D01*
X139935423Y-90405423D01*
X139618260Y-90880091D01*
X139506887Y-91440000D01*
X134797440Y-91440000D01*
X134797440Y-90640000D01*
X134748157Y-90392235D01*
X134607809Y-90182191D01*
X134397765Y-90041843D01*
X134150000Y-89992560D01*
X132550000Y-89992560D01*
X132302235Y-90041843D01*
X132092191Y-90182191D01*
X131951843Y-90392235D01*
X131902560Y-90640000D01*
X129341048Y-90640000D01*
X129232481Y-90477519D01*
X128790891Y-90182458D01*
X128401485Y-90105000D01*
X128138515Y-90105000D01*
X127749109Y-90182458D01*
X127307519Y-90477519D01*
X127012458Y-90919109D01*
X126908846Y-91440000D01*
X114104801Y-91440000D01*
X120227362Y-85317440D01*
X121500000Y-85317440D01*
X121747765Y-85268157D01*
X121957809Y-85127809D01*
X122098157Y-84917765D01*
X122147440Y-84670000D01*
X122147440Y-82970000D01*
X122098157Y-82722235D01*
X121957809Y-82512191D01*
X121747765Y-82371843D01*
X121702381Y-82362816D01*
X121720625Y-82350625D01*
X122048839Y-81859418D01*
X122164092Y-81280000D01*
X124215908Y-81280000D01*
X124331161Y-81859418D01*
X124659375Y-82350625D01*
X124677619Y-82362816D01*
X124632235Y-82371843D01*
X124422191Y-82512191D01*
X124281843Y-82722235D01*
X124232560Y-82970000D01*
X124232560Y-84670000D01*
X124281843Y-84917765D01*
X124422191Y-85127809D01*
X124632235Y-85268157D01*
X124880000Y-85317440D01*
X126580000Y-85317440D01*
X126827765Y-85268157D01*
X127037809Y-85127809D01*
X127178157Y-84917765D01*
X127198739Y-84814292D01*
X127503076Y-85091645D01*
X127913110Y-85261476D01*
X128143000Y-85140155D01*
X128143000Y-83947000D01*
X128123000Y-83947000D01*
X128123000Y-83693000D01*
X128143000Y-83693000D01*
X128143000Y-81407000D01*
X128123000Y-81407000D01*
X128123000Y-81153000D01*
X128143000Y-81153000D01*
X128143000Y-81133000D01*
X128397000Y-81133000D01*
X128397000Y-81153000D01*
X128417000Y-81153000D01*
X128417000Y-81407000D01*
X128397000Y-81407000D01*
X128397000Y-83693000D01*
X128417000Y-83693000D01*
X128417000Y-83947000D01*
X128397000Y-83947000D01*
X128397000Y-85140155D01*
X128626890Y-85261476D01*
X129036924Y-85091645D01*
X129465183Y-84701358D01*
X129526157Y-84571522D01*
X129739375Y-84890625D01*
X130230582Y-85218839D01*
X130663744Y-85305000D01*
X130956256Y-85305000D01*
X131389418Y-85218839D01*
X131880625Y-84890625D01*
X132208839Y-84399418D01*
X132324092Y-83820000D01*
X132208839Y-83240582D01*
X131880625Y-82749375D01*
X131582239Y-82550000D01*
X131880625Y-82350625D01*
X132208839Y-81859418D01*
X132324092Y-81280000D01*
X132251209Y-80913593D01*
X132299804Y-80864999D01*
X138870198Y-80864999D01*
X135405530Y-84329669D01*
X135342071Y-84372071D01*
X135174096Y-84623464D01*
X135130000Y-84845149D01*
X135130000Y-84845153D01*
X135126538Y-84862560D01*
X135040000Y-84862560D01*
X134792235Y-84911843D01*
X134620000Y-85026928D01*
X134447765Y-84911843D01*
X134200000Y-84862560D01*
X132500000Y-84862560D01*
X132252235Y-84911843D01*
X132042191Y-85052191D01*
X131901843Y-85262235D01*
X131852560Y-85510000D01*
X131852560Y-87210000D01*
X131901843Y-87457765D01*
X132042191Y-87667809D01*
X132252235Y-87808157D01*
X132500000Y-87857440D01*
X134200000Y-87857440D01*
X134447765Y-87808157D01*
X134620000Y-87693072D01*
X134792235Y-87808157D01*
X135040000Y-87857440D01*
X136740000Y-87857440D01*
X136987765Y-87808157D01*
X137197809Y-87667809D01*
X137338157Y-87457765D01*
X137387440Y-87210000D01*
X137387440Y-86360000D01*
X145856887Y-86360000D01*
X145968260Y-86919909D01*
X146285423Y-87394577D01*
X146669108Y-87650947D01*
X146464866Y-87747611D01*
X146088959Y-88162577D01*
X145928096Y-88550961D01*
X146050085Y-88773000D01*
X147193000Y-88773000D01*
X147193000Y-88753000D01*
X147447000Y-88753000D01*
X147447000Y-88773000D01*
X148589915Y-88773000D01*
X148711904Y-88550961D01*
X148551041Y-88162577D01*
X148175134Y-87747611D01*
X147970892Y-87650947D01*
X148354577Y-87394577D01*
X148671740Y-86919909D01*
X148783113Y-86360000D01*
X148671740Y-85800091D01*
X148354577Y-85325423D01*
X148233894Y-85244785D01*
X148367765Y-85218157D01*
X148577809Y-85077809D01*
X148718157Y-84867765D01*
X148767440Y-84620000D01*
X148767440Y-83020000D01*
X148718157Y-82772235D01*
X148577809Y-82562191D01*
X148367765Y-82421843D01*
X148120000Y-82372560D01*
X146520000Y-82372560D01*
X146272235Y-82421843D01*
X146062191Y-82562191D01*
X145921843Y-82772235D01*
X145872560Y-83020000D01*
X145872560Y-84620000D01*
X145921843Y-84867765D01*
X146062191Y-85077809D01*
X146272235Y-85218157D01*
X146406106Y-85244785D01*
X146285423Y-85325423D01*
X145968260Y-85800091D01*
X145856887Y-86360000D01*
X137387440Y-86360000D01*
X137387440Y-85510000D01*
X137338157Y-85262235D01*
X137197809Y-85052191D01*
X136987765Y-84911843D01*
X136975415Y-84909386D01*
X139844803Y-82040000D01*
X149545199Y-82040000D01*
X151640001Y-84134804D01*
X151640000Y-101525153D01*
X151625112Y-101600000D01*
X151640000Y-101674847D01*
X151640000Y-101674851D01*
X151684096Y-101896536D01*
X151852071Y-102147929D01*
X151915530Y-102190331D01*
X154896355Y-105171157D01*
X154848846Y-105410000D01*
X154952458Y-105930891D01*
X155247519Y-106372481D01*
X155689109Y-106667542D01*
X156078515Y-106745000D01*
X156341485Y-106745000D01*
X156730891Y-106667542D01*
X157172481Y-106372481D01*
X157467542Y-105930891D01*
X157571154Y-105410000D01*
X157467542Y-104889109D01*
X157172481Y-104447519D01*
X156730891Y-104152458D01*
X156668261Y-104140000D01*
X156730891Y-104127542D01*
X157172481Y-103832481D01*
X157250667Y-103715468D01*
X157990000Y-104454802D01*
X157990001Y-106365197D01*
X154625199Y-109730000D01*
X151204846Y-109730000D01*
X151129999Y-109715112D01*
X151055152Y-109730000D01*
X151055148Y-109730000D01*
X150833463Y-109774096D01*
X150833461Y-109774097D01*
X150833462Y-109774097D01*
X150645526Y-109899671D01*
X150645524Y-109899673D01*
X150582071Y-109942071D01*
X150539673Y-110005524D01*
X149012638Y-111532560D01*
X147740000Y-111532560D01*
X147492235Y-111581843D01*
X147316975Y-111698949D01*
X147259698Y-111641673D01*
X147026309Y-111545000D01*
X146335750Y-111545000D01*
X146177000Y-111703750D01*
X146177000Y-112903000D01*
X146197000Y-112903000D01*
X146197000Y-113157000D01*
X146177000Y-113157000D01*
X146177000Y-114356250D01*
X146335750Y-114515000D01*
X147026309Y-114515000D01*
X147259698Y-114418327D01*
X147316975Y-114361051D01*
X147492235Y-114478157D01*
X147740000Y-114527440D01*
X149440000Y-114527440D01*
X149687765Y-114478157D01*
X149860000Y-114363072D01*
X150032235Y-114478157D01*
X150280000Y-114527440D01*
X151980000Y-114527440D01*
X152227765Y-114478157D01*
X152437809Y-114337809D01*
X152578157Y-114127765D01*
X152627440Y-113880000D01*
X152627440Y-113790000D01*
X153595153Y-113790000D01*
X153670000Y-113804888D01*
X153744847Y-113790000D01*
X153744852Y-113790000D01*
X153966537Y-113745904D01*
X154217929Y-113577929D01*
X154260331Y-113514470D01*
X160334802Y-107440000D01*
X163755153Y-107440000D01*
X163830000Y-107454888D01*
X163904847Y-107440000D01*
X163904852Y-107440000D01*
X164126537Y-107395904D01*
X164377929Y-107227929D01*
X164420331Y-107164470D01*
X166109802Y-105475000D01*
X166635548Y-105475000D01*
X167126217Y-105271758D01*
X167501758Y-104896217D01*
X167705000Y-104405548D01*
X167705000Y-103874452D01*
X167501758Y-103383783D01*
X167126217Y-103008242D01*
X166635548Y-102805000D01*
X166104452Y-102805000D01*
X165613783Y-103008242D01*
X165238242Y-103383783D01*
X165100000Y-103717528D01*
X164961758Y-103383783D01*
X164586217Y-103008242D01*
X164095548Y-102805000D01*
X163564452Y-102805000D01*
X163073783Y-103008242D01*
X162698242Y-103383783D01*
X162614120Y-103586872D01*
X162506534Y-103327138D01*
X162102862Y-102923466D01*
X161575439Y-102705000D01*
X161004561Y-102705000D01*
X160477138Y-102923466D01*
X160073466Y-103327138D01*
X159855000Y-103854561D01*
X159855000Y-104425439D01*
X160073466Y-104952862D01*
X160477138Y-105356534D01*
X161004561Y-105575000D01*
X161575439Y-105575000D01*
X162102862Y-105356534D01*
X162506534Y-104952862D01*
X162614120Y-104693128D01*
X162698242Y-104896217D01*
X163073783Y-105271758D01*
X163564452Y-105475000D01*
X163960198Y-105475000D01*
X163515199Y-105920000D01*
X160094846Y-105920000D01*
X160019999Y-105905112D01*
X159945152Y-105920000D01*
X159945148Y-105920000D01*
X159723463Y-105964096D01*
X159510000Y-106106728D01*
X159510000Y-104214846D01*
X159524888Y-104139999D01*
X159510000Y-104065152D01*
X159510000Y-104065148D01*
X159465904Y-103843463D01*
X159297929Y-103592071D01*
X159234473Y-103549671D01*
X158070331Y-102385530D01*
X158027929Y-102322071D01*
X157776537Y-102154096D01*
X157554852Y-102110000D01*
X157554847Y-102110000D01*
X157480000Y-102095112D01*
X157405153Y-102110000D01*
X157307774Y-102110000D01*
X157172481Y-101907519D01*
X156730891Y-101612458D01*
X156668261Y-101600000D01*
X156730891Y-101587542D01*
X157172481Y-101292481D01*
X157467542Y-100850891D01*
X157571154Y-100330000D01*
X157523645Y-100091156D01*
X158760240Y-98854561D01*
X159855000Y-98854561D01*
X159855000Y-99425439D01*
X160073466Y-99952862D01*
X160477138Y-100356534D01*
X161004561Y-100575000D01*
X161575439Y-100575000D01*
X162102862Y-100356534D01*
X162506534Y-99952862D01*
X162725000Y-99425439D01*
X162725000Y-98854561D01*
X162506534Y-98327138D01*
X162102862Y-97923466D01*
X161575439Y-97705000D01*
X161004561Y-97705000D01*
X160477138Y-97923466D01*
X160073466Y-98327138D01*
X159855000Y-98854561D01*
X158760240Y-98854561D01*
X161094801Y-96520000D01*
X162468846Y-96520000D01*
X162572458Y-97040891D01*
X162867519Y-97482481D01*
X163309109Y-97777542D01*
X163698515Y-97855000D01*
X163961485Y-97855000D01*
X164350891Y-97777542D01*
X164792481Y-97482481D01*
X165087542Y-97040891D01*
X165100000Y-96978261D01*
X165112458Y-97040891D01*
X165407519Y-97482481D01*
X165849109Y-97777542D01*
X166238515Y-97855000D01*
X166501485Y-97855000D01*
X166890891Y-97777542D01*
X167332481Y-97482481D01*
X167627542Y-97040891D01*
X167731154Y-96520000D01*
X167627542Y-95999109D01*
X167332481Y-95557519D01*
X166890891Y-95262458D01*
X166828261Y-95250000D01*
X166890891Y-95237542D01*
X167332481Y-94942481D01*
X167627542Y-94500891D01*
X167731154Y-93980000D01*
X167627542Y-93459109D01*
X167332481Y-93017519D01*
X166890891Y-92722458D01*
X166501485Y-92645000D01*
X166238515Y-92645000D01*
X165849109Y-92722458D01*
X165407519Y-93017519D01*
X165112458Y-93459109D01*
X165008846Y-93980000D01*
X165112458Y-94500891D01*
X165407519Y-94942481D01*
X165849109Y-95237542D01*
X165911739Y-95250000D01*
X165849109Y-95262458D01*
X165407519Y-95557519D01*
X165112458Y-95999109D01*
X165100000Y-96061739D01*
X165087542Y-95999109D01*
X164792481Y-95557519D01*
X164350891Y-95262458D01*
X163961485Y-95185000D01*
X163698515Y-95185000D01*
X163309109Y-95262458D01*
X162867519Y-95557519D01*
X162572458Y-95999109D01*
X162468846Y-96520000D01*
X161094801Y-96520000D01*
X161774473Y-95840329D01*
X161837929Y-95797929D01*
X162005904Y-95546537D01*
X162050000Y-95324852D01*
X162050000Y-95324847D01*
X162064888Y-95250000D01*
X162050000Y-95175153D01*
X162050000Y-87857440D01*
X162140000Y-87857440D01*
X162387765Y-87808157D01*
X162597809Y-87667809D01*
X162738157Y-87457765D01*
X162787440Y-87210000D01*
X162787440Y-85510000D01*
X162738157Y-85262235D01*
X162597809Y-85052191D01*
X162387765Y-84911843D01*
X162342381Y-84902816D01*
X162360625Y-84890625D01*
X162573843Y-84571522D01*
X162634817Y-84701358D01*
X163063076Y-85091645D01*
X163473110Y-85261476D01*
X163703000Y-85140155D01*
X163703000Y-83947000D01*
X163683000Y-83947000D01*
X163683000Y-83693000D01*
X163703000Y-83693000D01*
X163703000Y-81407000D01*
X163683000Y-81407000D01*
X163683000Y-81153000D01*
X163703000Y-81153000D01*
X163703000Y-81133000D01*
X163957000Y-81133000D01*
X163957000Y-81153000D01*
X163977000Y-81153000D01*
X163977000Y-81407000D01*
X163957000Y-81407000D01*
X163957000Y-83693000D01*
X163977000Y-83693000D01*
X163977000Y-83947000D01*
X163957000Y-83947000D01*
X163957000Y-85140155D01*
X164186890Y-85261476D01*
X164596924Y-85091645D01*
X164901261Y-84814292D01*
X164921843Y-84917765D01*
X165062191Y-85127809D01*
X165272235Y-85268157D01*
X165520000Y-85317440D01*
X165524585Y-85317440D01*
X165238242Y-85603783D01*
X165035000Y-86094452D01*
X165035000Y-86625548D01*
X165238242Y-87116217D01*
X165613783Y-87491758D01*
X166104452Y-87695000D01*
X166635548Y-87695000D01*
X167126217Y-87491758D01*
X167501758Y-87116217D01*
X167705000Y-86625548D01*
X167705000Y-86094452D01*
X167501758Y-85603783D01*
X167215415Y-85317440D01*
X167220000Y-85317440D01*
X167467765Y-85268157D01*
X167677809Y-85127809D01*
X167818157Y-84917765D01*
X167867440Y-84670000D01*
X167867440Y-82970000D01*
X167818157Y-82722235D01*
X167677809Y-82512191D01*
X167467765Y-82371843D01*
X167422381Y-82362816D01*
X167440625Y-82350625D01*
X167768839Y-81859418D01*
X167884092Y-81280000D01*
X169935908Y-81280000D01*
X170051161Y-81859418D01*
X170379375Y-82350625D01*
X170397619Y-82362816D01*
X170352235Y-82371843D01*
X170142191Y-82512191D01*
X170001843Y-82722235D01*
X169952560Y-82970000D01*
X169952560Y-84670000D01*
X170001843Y-84917765D01*
X170142191Y-85127809D01*
X170352235Y-85268157D01*
X170600000Y-85317440D01*
X171872639Y-85317440D01*
X179855527Y-93300329D01*
X179855530Y-93300331D01*
X180112560Y-93557361D01*
X180112560Y-94830000D01*
X180161843Y-95077765D01*
X180302191Y-95287809D01*
X180512235Y-95428157D01*
X180760000Y-95477440D01*
X182460000Y-95477440D01*
X182707765Y-95428157D01*
X182917809Y-95287809D01*
X183058157Y-95077765D01*
X183067184Y-95032381D01*
X183079375Y-95050625D01*
X183570582Y-95378839D01*
X184003744Y-95465000D01*
X184296256Y-95465000D01*
X184729418Y-95378839D01*
X185220625Y-95050625D01*
X185548839Y-94559418D01*
X185664092Y-93980000D01*
X185548839Y-93400582D01*
X185220625Y-92909375D01*
X184901522Y-92696157D01*
X185031358Y-92635183D01*
X185421645Y-92206924D01*
X185591476Y-91796890D01*
X185470155Y-91567000D01*
X184277000Y-91567000D01*
X184277000Y-91587000D01*
X184023000Y-91587000D01*
X184023000Y-91567000D01*
X181737000Y-91567000D01*
X181737000Y-91587000D01*
X181483000Y-91587000D01*
X181483000Y-91567000D01*
X181463000Y-91567000D01*
X181463000Y-91313000D01*
X181483000Y-91313000D01*
X181483000Y-91293000D01*
X181737000Y-91293000D01*
X181737000Y-91313000D01*
X184023000Y-91313000D01*
X184023000Y-91293000D01*
X184277000Y-91293000D01*
X184277000Y-91313000D01*
X185470155Y-91313000D01*
X185591476Y-91083110D01*
X185421645Y-90673076D01*
X185031358Y-90244817D01*
X184901522Y-90183843D01*
X185220625Y-89970625D01*
X185548839Y-89479418D01*
X185664092Y-88900000D01*
X185548839Y-88320582D01*
X185220625Y-87829375D01*
X184729418Y-87501161D01*
X184296256Y-87415000D01*
X184003744Y-87415000D01*
X183570582Y-87501161D01*
X183079375Y-87829375D01*
X182880000Y-88127761D01*
X182680625Y-87829375D01*
X182189418Y-87501161D01*
X181756256Y-87415000D01*
X181463744Y-87415000D01*
X181243593Y-87458791D01*
X177971209Y-84186408D01*
X178044092Y-83820000D01*
X177928839Y-83240582D01*
X177600625Y-82749375D01*
X177302239Y-82550000D01*
X177600625Y-82350625D01*
X177928839Y-81859418D01*
X178044092Y-81280000D01*
X177928839Y-80700582D01*
X177600625Y-80209375D01*
X177109418Y-79881161D01*
X176676256Y-79795000D01*
X176383744Y-79795000D01*
X175950582Y-79881161D01*
X175459375Y-80209375D01*
X175246157Y-80528478D01*
X175185183Y-80398642D01*
X174756924Y-80008355D01*
X174346890Y-79838524D01*
X174117000Y-79959845D01*
X174117000Y-81153000D01*
X174137000Y-81153000D01*
X174137000Y-81407000D01*
X174117000Y-81407000D01*
X174117000Y-83693000D01*
X174137000Y-83693000D01*
X174137000Y-83947000D01*
X174117000Y-83947000D01*
X174117000Y-83967000D01*
X173863000Y-83967000D01*
X173863000Y-83947000D01*
X173843000Y-83947000D01*
X173843000Y-83693000D01*
X173863000Y-83693000D01*
X173863000Y-81407000D01*
X173843000Y-81407000D01*
X173843000Y-81153000D01*
X173863000Y-81153000D01*
X173863000Y-79959845D01*
X173633110Y-79838524D01*
X173223076Y-80008355D01*
X172794817Y-80398642D01*
X172733843Y-80528478D01*
X172520625Y-80209375D01*
X172029418Y-79881161D01*
X171596256Y-79795000D01*
X171303744Y-79795000D01*
X170870582Y-79881161D01*
X170379375Y-80209375D01*
X170051161Y-80700582D01*
X169935908Y-81280000D01*
X167884092Y-81280000D01*
X167768839Y-80700582D01*
X167440625Y-80209375D01*
X166949418Y-79881161D01*
X166516256Y-79795000D01*
X166223744Y-79795000D01*
X166003593Y-79838791D01*
X164885312Y-78720511D01*
X164842910Y-78657052D01*
X164591518Y-78489077D01*
X164369833Y-78444981D01*
X164369828Y-78444981D01*
X164294981Y-78430093D01*
X164220134Y-78444981D01*
X127879865Y-78444981D01*
X127805018Y-78430093D01*
X127730171Y-78444981D01*
X127730167Y-78444981D01*
X127508482Y-78489077D01*
X127257090Y-78657052D01*
X127214690Y-78720508D01*
X126096408Y-79838791D01*
X125876256Y-79795000D01*
X125583744Y-79795000D01*
X125150582Y-79881161D01*
X124659375Y-80209375D01*
X124331161Y-80700582D01*
X124215908Y-81280000D01*
X122164092Y-81280000D01*
X122048839Y-80700582D01*
X121720625Y-80209375D01*
X121229418Y-79881161D01*
X120796256Y-79795000D01*
X120503744Y-79795000D01*
X120070582Y-79881161D01*
X119579375Y-80209375D01*
X119366157Y-80528478D01*
X119305183Y-80398642D01*
X118876924Y-80008355D01*
X118466890Y-79838524D01*
X118237000Y-79959845D01*
X118237000Y-81153000D01*
X118257000Y-81153000D01*
X118257000Y-81407000D01*
X118237000Y-81407000D01*
X118237000Y-83693000D01*
X118257000Y-83693000D01*
X118257000Y-83947000D01*
X118237000Y-83947000D01*
X118237000Y-83967000D01*
X117983000Y-83967000D01*
X117983000Y-83947000D01*
X117963000Y-83947000D01*
X117963000Y-83693000D01*
X117983000Y-83693000D01*
X117983000Y-81407000D01*
X117963000Y-81407000D01*
X117963000Y-81153000D01*
X117983000Y-81153000D01*
X117983000Y-79959845D01*
X117753110Y-79838524D01*
X117343076Y-80008355D01*
X116914817Y-80398642D01*
X116853843Y-80528478D01*
X116640625Y-80209375D01*
X116149418Y-79881161D01*
X115716256Y-79795000D01*
X115423744Y-79795000D01*
X114990582Y-79881161D01*
X114499375Y-80209375D01*
X114171161Y-80700582D01*
X114055908Y-81280000D01*
X114171161Y-81859418D01*
X114499375Y-82350625D01*
X114797761Y-82550000D01*
X114499375Y-82749375D01*
X114171161Y-83240582D01*
X114055908Y-83820000D01*
X114128791Y-84186407D01*
X110856408Y-87458791D01*
X110636256Y-87415000D01*
X110343744Y-87415000D01*
X109910582Y-87501161D01*
X109419375Y-87829375D01*
X109220000Y-88127761D01*
X109020625Y-87829375D01*
X108529418Y-87501161D01*
X108096256Y-87415000D01*
X107803744Y-87415000D01*
X107370582Y-87501161D01*
X106879375Y-87829375D01*
X106551161Y-88320582D01*
X106435908Y-88900000D01*
X101727000Y-88900000D01*
X101727000Y-78365050D01*
X103525000Y-78365050D01*
X103525000Y-79114950D01*
X103811974Y-79807767D01*
X104342233Y-80338026D01*
X105035050Y-80625000D01*
X105784950Y-80625000D01*
X106477767Y-80338026D01*
X107008026Y-79807767D01*
X107295000Y-79114950D01*
X107295000Y-78365050D01*
X184805000Y-78365050D01*
X184805000Y-79114950D01*
X185091974Y-79807767D01*
X185622233Y-80338026D01*
X186315050Y-80625000D01*
X187064950Y-80625000D01*
X187757767Y-80338026D01*
X188288026Y-79807767D01*
X188575000Y-79114950D01*
X188575000Y-78365050D01*
X188288026Y-77672233D01*
X187757767Y-77141974D01*
X187064950Y-76855000D01*
X186315050Y-76855000D01*
X185622233Y-77141974D01*
X185091974Y-77672233D01*
X184805000Y-78365050D01*
X107295000Y-78365050D01*
X107008026Y-77672233D01*
X106477767Y-77141974D01*
X105784950Y-76855000D01*
X105035050Y-76855000D01*
X104342233Y-77141974D01*
X103811974Y-77672233D01*
X103525000Y-78365050D01*
X101727000Y-78365050D01*
X101727000Y-75057000D01*
X190373000Y-75057000D01*
X190373000Y-117983000D01*
M02*
