G04 MADE WITH FRITZING*
G04 WWW.FRITZING.ORG*
G04 DOUBLE SIDED*
G04 HOLES PLATED*
G04 CONTOUR ON CENTER OF CONTOUR VECTOR*
%ASAXBY*%
%FSLAX23Y23*%
%MOIN*%
%OFA0B0*%
%SFA1.0B1.0*%
%ADD10C,0.088000*%
%ADD11C,0.085000*%
%ADD12C,0.049370*%
%ADD13C,0.080000*%
%ADD14C,0.096614*%
%ADD15R,0.085000X0.085000*%
%LNMASK0*%
G90*
G70*
G54D10*
X2100Y1222D03*
X2100Y1122D03*
X2100Y1022D03*
X2100Y922D03*
X1200Y3322D03*
X1100Y3322D03*
X1000Y3322D03*
X1200Y3322D03*
X1100Y3322D03*
X1000Y3322D03*
X1000Y3222D03*
X1100Y3222D03*
X1200Y3222D03*
X800Y3322D03*
X700Y3322D03*
X600Y3322D03*
X800Y3322D03*
X700Y3322D03*
X600Y3322D03*
X600Y3222D03*
X700Y3222D03*
X800Y3222D03*
X300Y3022D03*
X300Y2922D03*
X300Y2822D03*
X300Y3022D03*
X300Y2922D03*
X300Y2822D03*
X400Y2822D03*
X400Y2922D03*
X400Y3022D03*
X300Y2622D03*
X300Y2522D03*
X300Y2422D03*
X300Y2622D03*
X300Y2522D03*
X300Y2422D03*
X400Y2422D03*
X400Y2522D03*
X400Y2622D03*
X800Y422D03*
X700Y422D03*
X600Y422D03*
X800Y422D03*
X700Y422D03*
X600Y422D03*
X600Y322D03*
X700Y322D03*
X800Y322D03*
X1200Y422D03*
X1100Y422D03*
X1000Y422D03*
X1200Y422D03*
X1100Y422D03*
X1000Y422D03*
X1000Y322D03*
X1100Y322D03*
X1200Y322D03*
X300Y1222D03*
X300Y1122D03*
X300Y1022D03*
X300Y1222D03*
X300Y1122D03*
X300Y1022D03*
X400Y1022D03*
X400Y1122D03*
X400Y1222D03*
X300Y822D03*
X300Y722D03*
X300Y622D03*
X300Y822D03*
X300Y722D03*
X300Y622D03*
X400Y622D03*
X400Y722D03*
X400Y822D03*
X3000Y3322D03*
X2900Y3322D03*
X2800Y3322D03*
X3000Y3322D03*
X2900Y3322D03*
X2800Y3322D03*
X2800Y3222D03*
X2900Y3222D03*
X3000Y3222D03*
X2600Y3322D03*
X2500Y3322D03*
X2400Y3322D03*
X2600Y3322D03*
X2500Y3322D03*
X2400Y3322D03*
X2400Y3222D03*
X2500Y3222D03*
X2600Y3222D03*
X2600Y422D03*
X2500Y422D03*
X2400Y422D03*
X2600Y422D03*
X2500Y422D03*
X2400Y422D03*
X2400Y322D03*
X2500Y322D03*
X2600Y322D03*
X3000Y422D03*
X2900Y422D03*
X2800Y422D03*
X3000Y422D03*
X2900Y422D03*
X2800Y422D03*
X2800Y322D03*
X2900Y322D03*
X3000Y322D03*
X3200Y2622D03*
X3200Y2522D03*
X3200Y2422D03*
X3200Y2622D03*
X3200Y2522D03*
X3200Y2422D03*
X3300Y2422D03*
X3300Y2522D03*
X3300Y2622D03*
X3200Y822D03*
X3200Y722D03*
X3200Y622D03*
X3200Y822D03*
X3200Y722D03*
X3200Y622D03*
X3300Y622D03*
X3300Y722D03*
X3300Y822D03*
X3200Y3022D03*
X3200Y2922D03*
X3200Y2822D03*
X3200Y3022D03*
X3200Y2922D03*
X3200Y2822D03*
X3300Y2822D03*
X3300Y2922D03*
X3300Y3022D03*
G54D11*
X2300Y1222D03*
X2600Y1222D03*
X2300Y1122D03*
X2600Y1122D03*
X2300Y1022D03*
X2600Y1022D03*
X2300Y922D03*
X2600Y922D03*
G54D10*
X3200Y1222D03*
X3200Y1122D03*
X3200Y1022D03*
X3200Y1222D03*
X3200Y1122D03*
X3200Y1022D03*
X3300Y1022D03*
X3300Y1122D03*
X3300Y1222D03*
G54D12*
X2301Y523D03*
G54D10*
X2700Y2522D03*
X1500Y1322D03*
X2800Y922D03*
X2800Y1122D03*
G54D11*
X2200Y1322D03*
X2500Y1322D03*
G54D13*
X2300Y1422D03*
X2200Y1422D03*
G54D11*
X800Y1922D03*
X1000Y1922D03*
X1500Y1922D03*
X1700Y1922D03*
X2200Y1922D03*
X2400Y1922D03*
X2900Y1922D03*
X3100Y1922D03*
G54D12*
X400Y1924D03*
G54D14*
X3400Y3422D03*
X3400Y222D03*
X200Y222D03*
X200Y3422D03*
G54D15*
X2300Y1222D03*
G04 End of Mask0*
M02*