G04 MADE WITH FRITZING*
G04 WWW.FRITZING.ORG*
G04 DOUBLE SIDED*
G04 HOLES PLATED*
G04 CONTOUR ON CENTER OF CONTOUR VECTOR*
%ASAXBY*%
%FSLAX23Y23*%
%MOIN*%
%OFA0B0*%
%SFA1.0B1.0*%
%ADD10C,0.075000*%
%ADD11C,0.078000*%
%ADD12C,0.039370*%
%ADD13C,0.070000*%
%ADD14R,0.075000X0.075000*%
%ADD15C,0.024000*%
%LNCOPPER1*%
G90*
G70*
G54D10*
X124Y3502D03*
G54D11*
X2100Y1222D03*
X2100Y1122D03*
X2100Y1022D03*
X2100Y922D03*
X1200Y3322D03*
X1100Y3322D03*
X1000Y3322D03*
X1200Y3322D03*
X1100Y3322D03*
X1000Y3322D03*
X1000Y3222D03*
X1100Y3222D03*
X1200Y3222D03*
X800Y3322D03*
X700Y3322D03*
X600Y3322D03*
X800Y3322D03*
X700Y3322D03*
X600Y3322D03*
X600Y3222D03*
X700Y3222D03*
X800Y3222D03*
X300Y3022D03*
X300Y2922D03*
X300Y2822D03*
X300Y3022D03*
X300Y2922D03*
X300Y2822D03*
X400Y2822D03*
X400Y2922D03*
X400Y3022D03*
X300Y2622D03*
X300Y2522D03*
X300Y2422D03*
X300Y2622D03*
X300Y2522D03*
X300Y2422D03*
X400Y2422D03*
X400Y2522D03*
X400Y2622D03*
X800Y422D03*
X700Y422D03*
X600Y422D03*
X800Y422D03*
X700Y422D03*
X600Y422D03*
X600Y322D03*
X700Y322D03*
X800Y322D03*
X1200Y422D03*
X1100Y422D03*
X1000Y422D03*
X1200Y422D03*
X1100Y422D03*
X1000Y422D03*
X1000Y322D03*
X1100Y322D03*
X1200Y322D03*
X300Y1222D03*
X300Y1122D03*
X300Y1022D03*
X300Y1222D03*
X300Y1122D03*
X300Y1022D03*
X400Y1022D03*
X400Y1122D03*
X400Y1222D03*
X300Y822D03*
X300Y722D03*
X300Y622D03*
X300Y822D03*
X300Y722D03*
X300Y622D03*
X400Y622D03*
X400Y722D03*
X400Y822D03*
X3000Y3322D03*
X2900Y3322D03*
X2800Y3322D03*
X3000Y3322D03*
X2900Y3322D03*
X2800Y3322D03*
X2800Y3222D03*
X2900Y3222D03*
X3000Y3222D03*
X2600Y3322D03*
X2500Y3322D03*
X2400Y3322D03*
X2600Y3322D03*
X2500Y3322D03*
X2400Y3322D03*
X2400Y3222D03*
X2500Y3222D03*
X2600Y3222D03*
X2600Y422D03*
X2500Y422D03*
X2400Y422D03*
X2600Y422D03*
X2500Y422D03*
X2400Y422D03*
X2400Y322D03*
X2500Y322D03*
X2600Y322D03*
X3000Y422D03*
X2900Y422D03*
X2800Y422D03*
X3000Y422D03*
X2900Y422D03*
X2800Y422D03*
X2800Y322D03*
X2900Y322D03*
X3000Y322D03*
X3200Y2622D03*
X3200Y2522D03*
X3200Y2422D03*
X3200Y2622D03*
X3200Y2522D03*
X3200Y2422D03*
X3300Y2422D03*
X3300Y2522D03*
X3300Y2622D03*
X3200Y822D03*
X3200Y722D03*
X3200Y622D03*
X3200Y822D03*
X3200Y722D03*
X3200Y622D03*
X3300Y622D03*
X3300Y722D03*
X3300Y822D03*
X3200Y3022D03*
X3200Y2922D03*
X3200Y2822D03*
X3200Y3022D03*
X3200Y2922D03*
X3200Y2822D03*
X3300Y2822D03*
X3300Y2922D03*
X3300Y3022D03*
G54D10*
X2300Y1222D03*
X2600Y1222D03*
X2300Y1122D03*
X2600Y1122D03*
X2300Y1022D03*
X2600Y1022D03*
X2300Y922D03*
X2600Y922D03*
G54D11*
X3200Y1222D03*
X3200Y1122D03*
X3200Y1022D03*
X3200Y1222D03*
X3200Y1122D03*
X3200Y1022D03*
X3300Y1022D03*
X3300Y1122D03*
X3300Y1222D03*
G54D12*
X2301Y523D03*
G54D11*
X2700Y2522D03*
X1500Y1322D03*
X2800Y922D03*
X2800Y1122D03*
G54D10*
X2200Y1322D03*
X2500Y1322D03*
G54D13*
X2300Y1422D03*
X2200Y1422D03*
G54D10*
X800Y1922D03*
X1000Y1922D03*
X1500Y1922D03*
X1700Y1922D03*
X2200Y1922D03*
X2400Y1922D03*
X2900Y1922D03*
X3100Y1922D03*
G54D12*
X400Y1924D03*
G54D14*
X2300Y1222D03*
G54D15*
X2821Y3201D02*
X3179Y2843D01*
D02*
X421Y701D02*
X679Y443D01*
D02*
X579Y443D02*
X421Y601D01*
D02*
X421Y3043D02*
X579Y3201D01*
D02*
X679Y3201D02*
X421Y2943D01*
D02*
X421Y2843D02*
X779Y3201D01*
D02*
X3021Y3201D02*
X3179Y3043D01*
D02*
X3179Y2943D02*
X2921Y3201D01*
D02*
X3179Y601D02*
X3021Y443D01*
D02*
X2921Y443D02*
X3179Y701D01*
D02*
X3179Y801D02*
X2821Y443D01*
D02*
X779Y443D02*
X421Y801D01*
D02*
X370Y1022D02*
X330Y1022D01*
D02*
X370Y2822D02*
X330Y2822D01*
D02*
X370Y822D02*
X330Y822D01*
D02*
X370Y2622D02*
X330Y2622D01*
D02*
X370Y722D02*
X330Y722D01*
D02*
X370Y2522D02*
X330Y2522D01*
D02*
X370Y622D02*
X330Y622D01*
D02*
X370Y2422D02*
X330Y2422D01*
D02*
X370Y1222D02*
X330Y1222D01*
D02*
X370Y3022D02*
X330Y3022D01*
D02*
X370Y1122D02*
X330Y1122D01*
D02*
X370Y2922D02*
X330Y2922D01*
D02*
X2400Y3292D02*
X2400Y3252D01*
D02*
X600Y3292D02*
X600Y3252D01*
D02*
X2500Y3292D02*
X2500Y3252D01*
D02*
X700Y3292D02*
X700Y3252D01*
D02*
X2600Y3292D02*
X2600Y3252D01*
D02*
X800Y3292D02*
X800Y3252D01*
D02*
X2800Y3292D02*
X2800Y3252D01*
D02*
X1000Y3292D02*
X1000Y3252D01*
D02*
X2900Y3292D02*
X2900Y3252D01*
D02*
X1100Y3292D02*
X1100Y3252D01*
D02*
X3000Y3292D02*
X3000Y3252D01*
D02*
X1200Y3292D02*
X1200Y3252D01*
D02*
X3270Y1222D02*
X3230Y1222D01*
D02*
X3270Y3022D02*
X3230Y3022D01*
D02*
X3270Y1122D02*
X3230Y1122D01*
D02*
X3270Y2922D02*
X3230Y2922D01*
D02*
X3270Y1022D02*
X3230Y1022D01*
D02*
X3270Y2822D02*
X3230Y2822D01*
D02*
X3270Y822D02*
X3230Y822D01*
D02*
X3270Y2622D02*
X3230Y2622D01*
D02*
X3270Y722D02*
X3230Y722D01*
D02*
X3270Y2522D02*
X3230Y2522D01*
D02*
X3270Y622D02*
X3230Y622D01*
D02*
X3270Y2422D02*
X3230Y2422D01*
D02*
X3000Y352D02*
X3000Y392D01*
D02*
X1200Y352D02*
X1200Y392D01*
D02*
X2900Y352D02*
X2900Y392D01*
D02*
X1100Y352D02*
X1100Y392D01*
D02*
X2800Y352D02*
X2800Y392D01*
D02*
X1000Y352D02*
X1000Y392D01*
D02*
X2600Y352D02*
X2600Y392D01*
D02*
X800Y352D02*
X800Y392D01*
D02*
X2500Y352D02*
X2500Y392D01*
D02*
X700Y352D02*
X700Y392D01*
D02*
X2400Y352D02*
X2400Y392D01*
D02*
X600Y352D02*
X600Y392D01*
D02*
X3200Y2392D02*
X3200Y1252D01*
D02*
X1230Y422D02*
X2370Y422D01*
D02*
X400Y1905D02*
X400Y1252D01*
D02*
X400Y2392D02*
X400Y1943D01*
D02*
X2370Y3222D02*
X1230Y3222D01*
D02*
X1202Y3122D02*
X1122Y3201D01*
D02*
X2397Y3122D02*
X1202Y3122D01*
D02*
X2478Y3201D02*
X2397Y3122D01*
D02*
X2397Y3021D02*
X2579Y3201D01*
D02*
X1202Y3021D02*
X2397Y3021D01*
D02*
X1021Y3201D02*
X1202Y3021D01*
D02*
X2998Y2420D02*
X3179Y2601D01*
D02*
X2998Y1225D02*
X2998Y2420D01*
D02*
X3179Y1043D02*
X2998Y1225D01*
D02*
X2397Y523D02*
X2479Y443D01*
D02*
X2320Y523D02*
X2397Y523D01*
D02*
X1202Y523D02*
X2282Y523D01*
D02*
X1121Y443D02*
X1202Y523D01*
D02*
X2397Y624D02*
X2579Y443D01*
D02*
X1202Y624D02*
X2397Y624D01*
D02*
X1021Y443D02*
X1202Y624D01*
D02*
X500Y1225D02*
X421Y1144D01*
D02*
X500Y2420D02*
X500Y1225D01*
D02*
X421Y2501D02*
X500Y2420D01*
D02*
X601Y1225D02*
X601Y2420D01*
D02*
X601Y2420D02*
X421Y2601D01*
D02*
X421Y1043D02*
X601Y1225D01*
D02*
X2130Y1222D02*
X2271Y1222D01*
D02*
X2130Y1122D02*
X2271Y1122D01*
D02*
X2130Y1022D02*
X2271Y1022D01*
D02*
X2130Y922D02*
X2271Y922D01*
D02*
X2799Y2623D02*
X2721Y2544D01*
D02*
X3170Y2622D02*
X2799Y2623D01*
D02*
X2598Y2420D02*
X2600Y1251D01*
D02*
X2679Y2501D02*
X2598Y2420D01*
D02*
X2629Y922D02*
X2770Y922D01*
D02*
X2629Y1122D02*
X2770Y1122D01*
D02*
X2500Y1122D02*
X2500Y1293D01*
D02*
X2580Y1042D02*
X2500Y1122D01*
D02*
X2200Y1351D02*
X2200Y1396D01*
D02*
X1530Y1322D02*
X2171Y1322D01*
D02*
X3099Y2420D02*
X3179Y2501D01*
D02*
X3100Y1951D02*
X3099Y2420D01*
D02*
X3099Y1225D02*
X3179Y1144D01*
D02*
X3100Y1893D02*
X3099Y1225D01*
D02*
X1729Y1922D02*
X2171Y1922D01*
D02*
X1029Y1922D02*
X1471Y1922D01*
G36*
X40Y3582D02*
X40Y3380D01*
X3014Y3380D01*
X3014Y3378D01*
X3022Y3378D01*
X3022Y3376D01*
X3026Y3376D01*
X3026Y3374D01*
X3030Y3374D01*
X3030Y3372D01*
X3032Y3372D01*
X3032Y3370D01*
X3036Y3370D01*
X3036Y3368D01*
X3038Y3368D01*
X3038Y3366D01*
X3040Y3366D01*
X3040Y3364D01*
X3042Y3364D01*
X3042Y3362D01*
X3044Y3362D01*
X3044Y3360D01*
X3046Y3360D01*
X3046Y3358D01*
X3048Y3358D01*
X3048Y3354D01*
X3050Y3354D01*
X3050Y3352D01*
X3052Y3352D01*
X3052Y3348D01*
X3054Y3348D01*
X3054Y3344D01*
X3056Y3344D01*
X3056Y3336D01*
X3058Y3336D01*
X3058Y3308D01*
X3056Y3308D01*
X3056Y3300D01*
X3054Y3300D01*
X3054Y3296D01*
X3052Y3296D01*
X3052Y3292D01*
X3050Y3292D01*
X3050Y3290D01*
X3048Y3290D01*
X3048Y3286D01*
X3046Y3286D01*
X3046Y3284D01*
X3044Y3284D01*
X3044Y3282D01*
X3042Y3282D01*
X3042Y3262D01*
X3044Y3262D01*
X3044Y3260D01*
X3046Y3260D01*
X3046Y3258D01*
X3048Y3258D01*
X3048Y3254D01*
X3050Y3254D01*
X3050Y3252D01*
X3052Y3252D01*
X3052Y3248D01*
X3054Y3248D01*
X3054Y3244D01*
X3056Y3244D01*
X3056Y3236D01*
X3058Y3236D01*
X3058Y3208D01*
X3060Y3208D01*
X3060Y3206D01*
X3062Y3206D01*
X3062Y3204D01*
X3064Y3204D01*
X3064Y3202D01*
X3066Y3202D01*
X3066Y3200D01*
X3068Y3200D01*
X3068Y3198D01*
X3070Y3198D01*
X3070Y3196D01*
X3072Y3196D01*
X3072Y3194D01*
X3074Y3194D01*
X3074Y3192D01*
X3076Y3192D01*
X3076Y3190D01*
X3078Y3190D01*
X3078Y3188D01*
X3080Y3188D01*
X3080Y3186D01*
X3082Y3186D01*
X3082Y3184D01*
X3084Y3184D01*
X3084Y3182D01*
X3086Y3182D01*
X3086Y3180D01*
X3088Y3180D01*
X3088Y3178D01*
X3090Y3178D01*
X3090Y3176D01*
X3092Y3176D01*
X3092Y3174D01*
X3094Y3174D01*
X3094Y3172D01*
X3096Y3172D01*
X3096Y3170D01*
X3098Y3170D01*
X3098Y3168D01*
X3100Y3168D01*
X3100Y3166D01*
X3102Y3166D01*
X3102Y3164D01*
X3104Y3164D01*
X3104Y3162D01*
X3106Y3162D01*
X3106Y3160D01*
X3108Y3160D01*
X3108Y3158D01*
X3110Y3158D01*
X3110Y3156D01*
X3112Y3156D01*
X3112Y3154D01*
X3114Y3154D01*
X3114Y3152D01*
X3116Y3152D01*
X3116Y3150D01*
X3118Y3150D01*
X3118Y3148D01*
X3120Y3148D01*
X3120Y3146D01*
X3122Y3146D01*
X3122Y3144D01*
X3124Y3144D01*
X3124Y3142D01*
X3126Y3142D01*
X3126Y3140D01*
X3128Y3140D01*
X3128Y3138D01*
X3130Y3138D01*
X3130Y3136D01*
X3132Y3136D01*
X3132Y3134D01*
X3134Y3134D01*
X3134Y3132D01*
X3136Y3132D01*
X3136Y3130D01*
X3138Y3130D01*
X3138Y3128D01*
X3140Y3128D01*
X3140Y3126D01*
X3142Y3126D01*
X3142Y3124D01*
X3144Y3124D01*
X3144Y3122D01*
X3146Y3122D01*
X3146Y3120D01*
X3148Y3120D01*
X3148Y3118D01*
X3150Y3118D01*
X3150Y3116D01*
X3152Y3116D01*
X3152Y3114D01*
X3154Y3114D01*
X3154Y3112D01*
X3156Y3112D01*
X3156Y3110D01*
X3158Y3110D01*
X3158Y3108D01*
X3160Y3108D01*
X3160Y3106D01*
X3162Y3106D01*
X3162Y3104D01*
X3164Y3104D01*
X3164Y3102D01*
X3166Y3102D01*
X3166Y3100D01*
X3168Y3100D01*
X3168Y3098D01*
X3170Y3098D01*
X3170Y3096D01*
X3172Y3096D01*
X3172Y3094D01*
X3174Y3094D01*
X3174Y3092D01*
X3176Y3092D01*
X3176Y3090D01*
X3178Y3090D01*
X3178Y3088D01*
X3180Y3088D01*
X3180Y3086D01*
X3182Y3086D01*
X3182Y3084D01*
X3184Y3084D01*
X3184Y3082D01*
X3186Y3082D01*
X3186Y3080D01*
X3314Y3080D01*
X3314Y3078D01*
X3322Y3078D01*
X3322Y3076D01*
X3326Y3076D01*
X3326Y3074D01*
X3330Y3074D01*
X3330Y3072D01*
X3332Y3072D01*
X3332Y3070D01*
X3336Y3070D01*
X3336Y3068D01*
X3338Y3068D01*
X3338Y3066D01*
X3340Y3066D01*
X3340Y3064D01*
X3342Y3064D01*
X3342Y3062D01*
X3344Y3062D01*
X3344Y3060D01*
X3346Y3060D01*
X3346Y3058D01*
X3348Y3058D01*
X3348Y3054D01*
X3350Y3054D01*
X3350Y3052D01*
X3352Y3052D01*
X3352Y3048D01*
X3354Y3048D01*
X3354Y3044D01*
X3356Y3044D01*
X3356Y3036D01*
X3358Y3036D01*
X3358Y3008D01*
X3356Y3008D01*
X3356Y3000D01*
X3354Y3000D01*
X3354Y2996D01*
X3352Y2996D01*
X3352Y2992D01*
X3350Y2992D01*
X3350Y2990D01*
X3348Y2990D01*
X3348Y2986D01*
X3346Y2986D01*
X3346Y2984D01*
X3344Y2984D01*
X3344Y2982D01*
X3342Y2982D01*
X3342Y2962D01*
X3344Y2962D01*
X3344Y2960D01*
X3346Y2960D01*
X3346Y2958D01*
X3348Y2958D01*
X3348Y2954D01*
X3350Y2954D01*
X3350Y2952D01*
X3352Y2952D01*
X3352Y2948D01*
X3354Y2948D01*
X3354Y2944D01*
X3356Y2944D01*
X3356Y2936D01*
X3358Y2936D01*
X3358Y2908D01*
X3356Y2908D01*
X3356Y2900D01*
X3354Y2900D01*
X3354Y2896D01*
X3352Y2896D01*
X3352Y2892D01*
X3350Y2892D01*
X3350Y2890D01*
X3348Y2890D01*
X3348Y2886D01*
X3346Y2886D01*
X3346Y2884D01*
X3344Y2884D01*
X3344Y2882D01*
X3342Y2882D01*
X3342Y2862D01*
X3344Y2862D01*
X3344Y2860D01*
X3346Y2860D01*
X3346Y2858D01*
X3348Y2858D01*
X3348Y2854D01*
X3350Y2854D01*
X3350Y2852D01*
X3352Y2852D01*
X3352Y2848D01*
X3354Y2848D01*
X3354Y2844D01*
X3356Y2844D01*
X3356Y2836D01*
X3358Y2836D01*
X3358Y2808D01*
X3356Y2808D01*
X3356Y2800D01*
X3354Y2800D01*
X3354Y2796D01*
X3352Y2796D01*
X3352Y2792D01*
X3350Y2792D01*
X3350Y2790D01*
X3348Y2790D01*
X3348Y2786D01*
X3346Y2786D01*
X3346Y2784D01*
X3344Y2784D01*
X3344Y2782D01*
X3342Y2782D01*
X3342Y2780D01*
X3340Y2780D01*
X3340Y2778D01*
X3338Y2778D01*
X3338Y2776D01*
X3336Y2776D01*
X3336Y2774D01*
X3332Y2774D01*
X3332Y2772D01*
X3330Y2772D01*
X3330Y2770D01*
X3326Y2770D01*
X3326Y2768D01*
X3322Y2768D01*
X3322Y2766D01*
X3314Y2766D01*
X3314Y2764D01*
X3582Y2764D01*
X3582Y3582D01*
X40Y3582D01*
G37*
D02*
G36*
X40Y3380D02*
X40Y3080D01*
X314Y3080D01*
X314Y3078D01*
X322Y3078D01*
X322Y3076D01*
X326Y3076D01*
X326Y3074D01*
X330Y3074D01*
X330Y3072D01*
X332Y3072D01*
X332Y3070D01*
X336Y3070D01*
X336Y3068D01*
X338Y3068D01*
X338Y3066D01*
X340Y3066D01*
X340Y3064D01*
X360Y3064D01*
X360Y3066D01*
X362Y3066D01*
X362Y3068D01*
X364Y3068D01*
X364Y3070D01*
X368Y3070D01*
X368Y3072D01*
X370Y3072D01*
X370Y3074D01*
X374Y3074D01*
X374Y3076D01*
X378Y3076D01*
X378Y3078D01*
X386Y3078D01*
X386Y3080D01*
X414Y3080D01*
X414Y3082D01*
X416Y3082D01*
X416Y3084D01*
X418Y3084D01*
X418Y3086D01*
X420Y3086D01*
X420Y3088D01*
X422Y3088D01*
X422Y3090D01*
X424Y3090D01*
X424Y3092D01*
X426Y3092D01*
X426Y3094D01*
X428Y3094D01*
X428Y3096D01*
X430Y3096D01*
X430Y3098D01*
X432Y3098D01*
X432Y3100D01*
X434Y3100D01*
X434Y3102D01*
X436Y3102D01*
X436Y3104D01*
X438Y3104D01*
X438Y3106D01*
X440Y3106D01*
X440Y3108D01*
X442Y3108D01*
X442Y3110D01*
X444Y3110D01*
X444Y3112D01*
X446Y3112D01*
X446Y3114D01*
X448Y3114D01*
X448Y3116D01*
X450Y3116D01*
X450Y3118D01*
X452Y3118D01*
X452Y3120D01*
X454Y3120D01*
X454Y3122D01*
X456Y3122D01*
X456Y3124D01*
X458Y3124D01*
X458Y3126D01*
X460Y3126D01*
X460Y3128D01*
X462Y3128D01*
X462Y3130D01*
X464Y3130D01*
X464Y3132D01*
X466Y3132D01*
X466Y3134D01*
X468Y3134D01*
X468Y3136D01*
X470Y3136D01*
X470Y3138D01*
X472Y3138D01*
X472Y3140D01*
X474Y3140D01*
X474Y3142D01*
X476Y3142D01*
X476Y3144D01*
X478Y3144D01*
X478Y3146D01*
X480Y3146D01*
X480Y3148D01*
X482Y3148D01*
X482Y3150D01*
X484Y3150D01*
X484Y3152D01*
X486Y3152D01*
X486Y3154D01*
X488Y3154D01*
X488Y3156D01*
X490Y3156D01*
X490Y3158D01*
X492Y3158D01*
X492Y3160D01*
X494Y3160D01*
X494Y3162D01*
X496Y3162D01*
X496Y3164D01*
X498Y3164D01*
X498Y3166D01*
X500Y3166D01*
X500Y3168D01*
X502Y3168D01*
X502Y3170D01*
X504Y3170D01*
X504Y3172D01*
X506Y3172D01*
X506Y3174D01*
X508Y3174D01*
X508Y3176D01*
X510Y3176D01*
X510Y3178D01*
X512Y3178D01*
X512Y3180D01*
X514Y3180D01*
X514Y3182D01*
X516Y3182D01*
X516Y3184D01*
X518Y3184D01*
X518Y3186D01*
X520Y3186D01*
X520Y3188D01*
X522Y3188D01*
X522Y3190D01*
X524Y3190D01*
X524Y3192D01*
X526Y3192D01*
X526Y3194D01*
X528Y3194D01*
X528Y3196D01*
X530Y3196D01*
X530Y3198D01*
X532Y3198D01*
X532Y3200D01*
X534Y3200D01*
X534Y3202D01*
X536Y3202D01*
X536Y3204D01*
X538Y3204D01*
X538Y3206D01*
X540Y3206D01*
X540Y3208D01*
X542Y3208D01*
X542Y3236D01*
X544Y3236D01*
X544Y3244D01*
X546Y3244D01*
X546Y3248D01*
X548Y3248D01*
X548Y3252D01*
X550Y3252D01*
X550Y3254D01*
X552Y3254D01*
X552Y3258D01*
X554Y3258D01*
X554Y3260D01*
X556Y3260D01*
X556Y3262D01*
X558Y3262D01*
X558Y3282D01*
X556Y3282D01*
X556Y3284D01*
X554Y3284D01*
X554Y3286D01*
X552Y3286D01*
X552Y3290D01*
X550Y3290D01*
X550Y3292D01*
X548Y3292D01*
X548Y3296D01*
X546Y3296D01*
X546Y3300D01*
X544Y3300D01*
X544Y3308D01*
X542Y3308D01*
X542Y3336D01*
X544Y3336D01*
X544Y3344D01*
X546Y3344D01*
X546Y3348D01*
X548Y3348D01*
X548Y3352D01*
X550Y3352D01*
X550Y3354D01*
X552Y3354D01*
X552Y3358D01*
X554Y3358D01*
X554Y3360D01*
X556Y3360D01*
X556Y3362D01*
X558Y3362D01*
X558Y3364D01*
X560Y3364D01*
X560Y3366D01*
X562Y3366D01*
X562Y3368D01*
X564Y3368D01*
X564Y3370D01*
X568Y3370D01*
X568Y3372D01*
X570Y3372D01*
X570Y3374D01*
X574Y3374D01*
X574Y3376D01*
X578Y3376D01*
X578Y3378D01*
X586Y3378D01*
X586Y3380D01*
X40Y3380D01*
G37*
D02*
G36*
X614Y3380D02*
X614Y3378D01*
X622Y3378D01*
X622Y3376D01*
X626Y3376D01*
X626Y3374D01*
X630Y3374D01*
X630Y3372D01*
X632Y3372D01*
X632Y3370D01*
X636Y3370D01*
X636Y3368D01*
X638Y3368D01*
X638Y3366D01*
X640Y3366D01*
X640Y3364D01*
X660Y3364D01*
X660Y3366D01*
X662Y3366D01*
X662Y3368D01*
X664Y3368D01*
X664Y3370D01*
X668Y3370D01*
X668Y3372D01*
X670Y3372D01*
X670Y3374D01*
X674Y3374D01*
X674Y3376D01*
X678Y3376D01*
X678Y3378D01*
X686Y3378D01*
X686Y3380D01*
X614Y3380D01*
G37*
D02*
G36*
X714Y3380D02*
X714Y3378D01*
X722Y3378D01*
X722Y3376D01*
X726Y3376D01*
X726Y3374D01*
X730Y3374D01*
X730Y3372D01*
X732Y3372D01*
X732Y3370D01*
X736Y3370D01*
X736Y3368D01*
X738Y3368D01*
X738Y3366D01*
X740Y3366D01*
X740Y3364D01*
X760Y3364D01*
X760Y3366D01*
X762Y3366D01*
X762Y3368D01*
X764Y3368D01*
X764Y3370D01*
X768Y3370D01*
X768Y3372D01*
X770Y3372D01*
X770Y3374D01*
X774Y3374D01*
X774Y3376D01*
X778Y3376D01*
X778Y3378D01*
X786Y3378D01*
X786Y3380D01*
X714Y3380D01*
G37*
D02*
G36*
X814Y3380D02*
X814Y3378D01*
X822Y3378D01*
X822Y3376D01*
X826Y3376D01*
X826Y3374D01*
X830Y3374D01*
X830Y3372D01*
X832Y3372D01*
X832Y3370D01*
X836Y3370D01*
X836Y3368D01*
X838Y3368D01*
X838Y3366D01*
X840Y3366D01*
X840Y3364D01*
X842Y3364D01*
X842Y3362D01*
X844Y3362D01*
X844Y3360D01*
X846Y3360D01*
X846Y3358D01*
X848Y3358D01*
X848Y3354D01*
X850Y3354D01*
X850Y3352D01*
X852Y3352D01*
X852Y3348D01*
X854Y3348D01*
X854Y3344D01*
X856Y3344D01*
X856Y3336D01*
X858Y3336D01*
X858Y3308D01*
X856Y3308D01*
X856Y3300D01*
X854Y3300D01*
X854Y3296D01*
X852Y3296D01*
X852Y3292D01*
X850Y3292D01*
X850Y3290D01*
X848Y3290D01*
X848Y3286D01*
X846Y3286D01*
X846Y3284D01*
X844Y3284D01*
X844Y3282D01*
X842Y3282D01*
X842Y3262D01*
X844Y3262D01*
X844Y3260D01*
X846Y3260D01*
X846Y3258D01*
X848Y3258D01*
X848Y3254D01*
X850Y3254D01*
X850Y3252D01*
X852Y3252D01*
X852Y3248D01*
X854Y3248D01*
X854Y3244D01*
X856Y3244D01*
X856Y3236D01*
X858Y3236D01*
X858Y3208D01*
X856Y3208D01*
X856Y3200D01*
X854Y3200D01*
X854Y3196D01*
X852Y3196D01*
X852Y3192D01*
X850Y3192D01*
X850Y3190D01*
X848Y3190D01*
X848Y3186D01*
X846Y3186D01*
X846Y3184D01*
X844Y3184D01*
X844Y3182D01*
X842Y3182D01*
X842Y3180D01*
X840Y3180D01*
X840Y3178D01*
X838Y3178D01*
X838Y3176D01*
X836Y3176D01*
X836Y3174D01*
X832Y3174D01*
X832Y3172D01*
X830Y3172D01*
X830Y3170D01*
X826Y3170D01*
X826Y3168D01*
X822Y3168D01*
X822Y3166D01*
X814Y3166D01*
X814Y3164D01*
X786Y3164D01*
X786Y3162D01*
X784Y3162D01*
X784Y3160D01*
X782Y3160D01*
X782Y3158D01*
X780Y3158D01*
X780Y3156D01*
X778Y3156D01*
X778Y3154D01*
X776Y3154D01*
X776Y3152D01*
X774Y3152D01*
X774Y3150D01*
X772Y3150D01*
X772Y3148D01*
X770Y3148D01*
X770Y3146D01*
X768Y3146D01*
X768Y3144D01*
X766Y3144D01*
X766Y3142D01*
X764Y3142D01*
X764Y3140D01*
X762Y3140D01*
X762Y3138D01*
X760Y3138D01*
X760Y3136D01*
X758Y3136D01*
X758Y3134D01*
X756Y3134D01*
X756Y3132D01*
X754Y3132D01*
X754Y3130D01*
X752Y3130D01*
X752Y3128D01*
X750Y3128D01*
X750Y3126D01*
X748Y3126D01*
X748Y3124D01*
X746Y3124D01*
X746Y3122D01*
X744Y3122D01*
X744Y3120D01*
X742Y3120D01*
X742Y3118D01*
X740Y3118D01*
X740Y3116D01*
X738Y3116D01*
X738Y3114D01*
X736Y3114D01*
X736Y3112D01*
X734Y3112D01*
X734Y3110D01*
X732Y3110D01*
X732Y3108D01*
X730Y3108D01*
X730Y3106D01*
X728Y3106D01*
X728Y3104D01*
X726Y3104D01*
X726Y3102D01*
X724Y3102D01*
X724Y3100D01*
X722Y3100D01*
X722Y3098D01*
X720Y3098D01*
X720Y3096D01*
X718Y3096D01*
X718Y3094D01*
X716Y3094D01*
X716Y3092D01*
X714Y3092D01*
X714Y3090D01*
X712Y3090D01*
X712Y3088D01*
X710Y3088D01*
X710Y3086D01*
X708Y3086D01*
X708Y3084D01*
X706Y3084D01*
X706Y3082D01*
X704Y3082D01*
X704Y3080D01*
X702Y3080D01*
X702Y3078D01*
X700Y3078D01*
X700Y3076D01*
X698Y3076D01*
X698Y3074D01*
X696Y3074D01*
X696Y3072D01*
X694Y3072D01*
X694Y3070D01*
X692Y3070D01*
X692Y3068D01*
X690Y3068D01*
X690Y3066D01*
X688Y3066D01*
X688Y3064D01*
X686Y3064D01*
X686Y3062D01*
X684Y3062D01*
X684Y3060D01*
X682Y3060D01*
X682Y3058D01*
X680Y3058D01*
X680Y3056D01*
X678Y3056D01*
X678Y3054D01*
X676Y3054D01*
X676Y3052D01*
X674Y3052D01*
X674Y3050D01*
X672Y3050D01*
X672Y3048D01*
X670Y3048D01*
X670Y3046D01*
X668Y3046D01*
X668Y3044D01*
X666Y3044D01*
X666Y3042D01*
X664Y3042D01*
X664Y3040D01*
X662Y3040D01*
X662Y3038D01*
X660Y3038D01*
X660Y3036D01*
X658Y3036D01*
X658Y3034D01*
X656Y3034D01*
X656Y3032D01*
X654Y3032D01*
X654Y3030D01*
X652Y3030D01*
X652Y3028D01*
X650Y3028D01*
X650Y3026D01*
X648Y3026D01*
X648Y3024D01*
X646Y3024D01*
X646Y3022D01*
X644Y3022D01*
X644Y3020D01*
X642Y3020D01*
X642Y3018D01*
X640Y3018D01*
X640Y3016D01*
X638Y3016D01*
X638Y3014D01*
X636Y3014D01*
X636Y3012D01*
X634Y3012D01*
X634Y3010D01*
X632Y3010D01*
X632Y3008D01*
X630Y3008D01*
X630Y3006D01*
X628Y3006D01*
X628Y3004D01*
X626Y3004D01*
X626Y3002D01*
X624Y3002D01*
X624Y3000D01*
X622Y3000D01*
X622Y2998D01*
X620Y2998D01*
X620Y2996D01*
X618Y2996D01*
X618Y2994D01*
X616Y2994D01*
X616Y2992D01*
X614Y2992D01*
X614Y2990D01*
X1192Y2990D01*
X1192Y2992D01*
X1186Y2992D01*
X1186Y2994D01*
X1184Y2994D01*
X1184Y2996D01*
X1180Y2996D01*
X1180Y2998D01*
X1178Y2998D01*
X1178Y3000D01*
X1176Y3000D01*
X1176Y3002D01*
X1174Y3002D01*
X1174Y3004D01*
X1172Y3004D01*
X1172Y3006D01*
X1170Y3006D01*
X1170Y3008D01*
X1168Y3008D01*
X1168Y3010D01*
X1166Y3010D01*
X1166Y3012D01*
X1164Y3012D01*
X1164Y3014D01*
X1162Y3014D01*
X1162Y3016D01*
X1160Y3016D01*
X1160Y3018D01*
X1158Y3018D01*
X1158Y3020D01*
X1156Y3020D01*
X1156Y3022D01*
X1154Y3022D01*
X1154Y3024D01*
X1152Y3024D01*
X1152Y3026D01*
X1150Y3026D01*
X1150Y3028D01*
X1148Y3028D01*
X1148Y3030D01*
X1146Y3030D01*
X1146Y3032D01*
X1144Y3032D01*
X1144Y3034D01*
X1142Y3034D01*
X1142Y3036D01*
X1140Y3036D01*
X1140Y3038D01*
X1138Y3038D01*
X1138Y3040D01*
X1136Y3040D01*
X1136Y3042D01*
X1134Y3042D01*
X1134Y3044D01*
X1132Y3044D01*
X1132Y3046D01*
X1130Y3046D01*
X1130Y3048D01*
X1128Y3048D01*
X1128Y3050D01*
X1126Y3050D01*
X1126Y3052D01*
X1124Y3052D01*
X1124Y3054D01*
X1122Y3054D01*
X1122Y3056D01*
X1120Y3056D01*
X1120Y3058D01*
X1118Y3058D01*
X1118Y3060D01*
X1116Y3060D01*
X1116Y3062D01*
X1114Y3062D01*
X1114Y3064D01*
X1112Y3064D01*
X1112Y3066D01*
X1110Y3066D01*
X1110Y3068D01*
X1108Y3068D01*
X1108Y3070D01*
X1106Y3070D01*
X1106Y3072D01*
X1104Y3072D01*
X1104Y3074D01*
X1102Y3074D01*
X1102Y3076D01*
X1100Y3076D01*
X1100Y3078D01*
X1098Y3078D01*
X1098Y3080D01*
X1096Y3080D01*
X1096Y3082D01*
X1094Y3082D01*
X1094Y3084D01*
X1092Y3084D01*
X1092Y3086D01*
X1090Y3086D01*
X1090Y3088D01*
X1088Y3088D01*
X1088Y3090D01*
X1086Y3090D01*
X1086Y3092D01*
X1084Y3092D01*
X1084Y3094D01*
X1082Y3094D01*
X1082Y3096D01*
X1080Y3096D01*
X1080Y3098D01*
X1078Y3098D01*
X1078Y3100D01*
X1076Y3100D01*
X1076Y3102D01*
X1074Y3102D01*
X1074Y3104D01*
X1072Y3104D01*
X1072Y3106D01*
X1070Y3106D01*
X1070Y3108D01*
X1068Y3108D01*
X1068Y3110D01*
X1066Y3110D01*
X1066Y3112D01*
X1064Y3112D01*
X1064Y3114D01*
X1062Y3114D01*
X1062Y3116D01*
X1060Y3116D01*
X1060Y3118D01*
X1058Y3118D01*
X1058Y3120D01*
X1056Y3120D01*
X1056Y3122D01*
X1054Y3122D01*
X1054Y3124D01*
X1052Y3124D01*
X1052Y3126D01*
X1050Y3126D01*
X1050Y3128D01*
X1048Y3128D01*
X1048Y3130D01*
X1046Y3130D01*
X1046Y3132D01*
X1044Y3132D01*
X1044Y3134D01*
X1042Y3134D01*
X1042Y3136D01*
X1040Y3136D01*
X1040Y3138D01*
X1038Y3138D01*
X1038Y3140D01*
X1036Y3140D01*
X1036Y3142D01*
X1034Y3142D01*
X1034Y3144D01*
X1032Y3144D01*
X1032Y3146D01*
X1030Y3146D01*
X1030Y3148D01*
X1028Y3148D01*
X1028Y3150D01*
X1026Y3150D01*
X1026Y3152D01*
X1024Y3152D01*
X1024Y3154D01*
X1022Y3154D01*
X1022Y3156D01*
X1020Y3156D01*
X1020Y3158D01*
X1018Y3158D01*
X1018Y3160D01*
X1016Y3160D01*
X1016Y3162D01*
X1014Y3162D01*
X1014Y3164D01*
X986Y3164D01*
X986Y3166D01*
X978Y3166D01*
X978Y3168D01*
X974Y3168D01*
X974Y3170D01*
X970Y3170D01*
X970Y3172D01*
X968Y3172D01*
X968Y3174D01*
X964Y3174D01*
X964Y3176D01*
X962Y3176D01*
X962Y3178D01*
X960Y3178D01*
X960Y3180D01*
X958Y3180D01*
X958Y3182D01*
X956Y3182D01*
X956Y3184D01*
X954Y3184D01*
X954Y3186D01*
X952Y3186D01*
X952Y3190D01*
X950Y3190D01*
X950Y3192D01*
X948Y3192D01*
X948Y3196D01*
X946Y3196D01*
X946Y3200D01*
X944Y3200D01*
X944Y3208D01*
X942Y3208D01*
X942Y3236D01*
X944Y3236D01*
X944Y3244D01*
X946Y3244D01*
X946Y3248D01*
X948Y3248D01*
X948Y3252D01*
X950Y3252D01*
X950Y3254D01*
X952Y3254D01*
X952Y3258D01*
X954Y3258D01*
X954Y3260D01*
X956Y3260D01*
X956Y3262D01*
X958Y3262D01*
X958Y3282D01*
X956Y3282D01*
X956Y3284D01*
X954Y3284D01*
X954Y3286D01*
X952Y3286D01*
X952Y3290D01*
X950Y3290D01*
X950Y3292D01*
X948Y3292D01*
X948Y3296D01*
X946Y3296D01*
X946Y3300D01*
X944Y3300D01*
X944Y3308D01*
X942Y3308D01*
X942Y3336D01*
X944Y3336D01*
X944Y3344D01*
X946Y3344D01*
X946Y3348D01*
X948Y3348D01*
X948Y3352D01*
X950Y3352D01*
X950Y3354D01*
X952Y3354D01*
X952Y3358D01*
X954Y3358D01*
X954Y3360D01*
X956Y3360D01*
X956Y3362D01*
X958Y3362D01*
X958Y3364D01*
X960Y3364D01*
X960Y3366D01*
X962Y3366D01*
X962Y3368D01*
X964Y3368D01*
X964Y3370D01*
X968Y3370D01*
X968Y3372D01*
X970Y3372D01*
X970Y3374D01*
X974Y3374D01*
X974Y3376D01*
X978Y3376D01*
X978Y3378D01*
X986Y3378D01*
X986Y3380D01*
X814Y3380D01*
G37*
D02*
G36*
X1014Y3380D02*
X1014Y3378D01*
X1022Y3378D01*
X1022Y3376D01*
X1026Y3376D01*
X1026Y3374D01*
X1030Y3374D01*
X1030Y3372D01*
X1032Y3372D01*
X1032Y3370D01*
X1036Y3370D01*
X1036Y3368D01*
X1038Y3368D01*
X1038Y3366D01*
X1040Y3366D01*
X1040Y3364D01*
X1060Y3364D01*
X1060Y3366D01*
X1062Y3366D01*
X1062Y3368D01*
X1064Y3368D01*
X1064Y3370D01*
X1068Y3370D01*
X1068Y3372D01*
X1070Y3372D01*
X1070Y3374D01*
X1074Y3374D01*
X1074Y3376D01*
X1078Y3376D01*
X1078Y3378D01*
X1086Y3378D01*
X1086Y3380D01*
X1014Y3380D01*
G37*
D02*
G36*
X1114Y3380D02*
X1114Y3378D01*
X1122Y3378D01*
X1122Y3376D01*
X1126Y3376D01*
X1126Y3374D01*
X1130Y3374D01*
X1130Y3372D01*
X1132Y3372D01*
X1132Y3370D01*
X1136Y3370D01*
X1136Y3368D01*
X1138Y3368D01*
X1138Y3366D01*
X1140Y3366D01*
X1140Y3364D01*
X1160Y3364D01*
X1160Y3366D01*
X1162Y3366D01*
X1162Y3368D01*
X1164Y3368D01*
X1164Y3370D01*
X1168Y3370D01*
X1168Y3372D01*
X1170Y3372D01*
X1170Y3374D01*
X1174Y3374D01*
X1174Y3376D01*
X1178Y3376D01*
X1178Y3378D01*
X1186Y3378D01*
X1186Y3380D01*
X1114Y3380D01*
G37*
D02*
G36*
X1214Y3380D02*
X1214Y3378D01*
X1222Y3378D01*
X1222Y3376D01*
X1226Y3376D01*
X1226Y3374D01*
X1230Y3374D01*
X1230Y3372D01*
X1232Y3372D01*
X1232Y3370D01*
X1236Y3370D01*
X1236Y3368D01*
X1238Y3368D01*
X1238Y3366D01*
X1240Y3366D01*
X1240Y3364D01*
X1242Y3364D01*
X1242Y3362D01*
X1244Y3362D01*
X1244Y3360D01*
X1246Y3360D01*
X1246Y3358D01*
X1248Y3358D01*
X1248Y3354D01*
X1250Y3354D01*
X1250Y3352D01*
X1252Y3352D01*
X1252Y3348D01*
X1254Y3348D01*
X1254Y3344D01*
X1256Y3344D01*
X1256Y3336D01*
X1258Y3336D01*
X1258Y3308D01*
X1256Y3308D01*
X1256Y3300D01*
X1254Y3300D01*
X1254Y3296D01*
X1252Y3296D01*
X1252Y3292D01*
X1250Y3292D01*
X1250Y3290D01*
X1248Y3290D01*
X1248Y3286D01*
X1246Y3286D01*
X1246Y3284D01*
X1244Y3284D01*
X1244Y3282D01*
X1242Y3282D01*
X1242Y3262D01*
X1244Y3262D01*
X1244Y3260D01*
X1246Y3260D01*
X1246Y3258D01*
X1248Y3258D01*
X1248Y3254D01*
X2352Y3254D01*
X2352Y3258D01*
X2354Y3258D01*
X2354Y3260D01*
X2356Y3260D01*
X2356Y3262D01*
X2358Y3262D01*
X2358Y3282D01*
X2356Y3282D01*
X2356Y3284D01*
X2354Y3284D01*
X2354Y3286D01*
X2352Y3286D01*
X2352Y3290D01*
X2350Y3290D01*
X2350Y3292D01*
X2348Y3292D01*
X2348Y3296D01*
X2346Y3296D01*
X2346Y3300D01*
X2344Y3300D01*
X2344Y3308D01*
X2342Y3308D01*
X2342Y3336D01*
X2344Y3336D01*
X2344Y3344D01*
X2346Y3344D01*
X2346Y3348D01*
X2348Y3348D01*
X2348Y3352D01*
X2350Y3352D01*
X2350Y3354D01*
X2352Y3354D01*
X2352Y3358D01*
X2354Y3358D01*
X2354Y3360D01*
X2356Y3360D01*
X2356Y3362D01*
X2358Y3362D01*
X2358Y3364D01*
X2360Y3364D01*
X2360Y3366D01*
X2362Y3366D01*
X2362Y3368D01*
X2364Y3368D01*
X2364Y3370D01*
X2368Y3370D01*
X2368Y3372D01*
X2370Y3372D01*
X2370Y3374D01*
X2374Y3374D01*
X2374Y3376D01*
X2378Y3376D01*
X2378Y3378D01*
X2386Y3378D01*
X2386Y3380D01*
X1214Y3380D01*
G37*
D02*
G36*
X2414Y3380D02*
X2414Y3378D01*
X2422Y3378D01*
X2422Y3376D01*
X2426Y3376D01*
X2426Y3374D01*
X2430Y3374D01*
X2430Y3372D01*
X2432Y3372D01*
X2432Y3370D01*
X2436Y3370D01*
X2436Y3368D01*
X2438Y3368D01*
X2438Y3366D01*
X2440Y3366D01*
X2440Y3364D01*
X2460Y3364D01*
X2460Y3366D01*
X2462Y3366D01*
X2462Y3368D01*
X2464Y3368D01*
X2464Y3370D01*
X2468Y3370D01*
X2468Y3372D01*
X2470Y3372D01*
X2470Y3374D01*
X2474Y3374D01*
X2474Y3376D01*
X2478Y3376D01*
X2478Y3378D01*
X2486Y3378D01*
X2486Y3380D01*
X2414Y3380D01*
G37*
D02*
G36*
X2514Y3380D02*
X2514Y3378D01*
X2522Y3378D01*
X2522Y3376D01*
X2526Y3376D01*
X2526Y3374D01*
X2530Y3374D01*
X2530Y3372D01*
X2532Y3372D01*
X2532Y3370D01*
X2536Y3370D01*
X2536Y3368D01*
X2538Y3368D01*
X2538Y3366D01*
X2540Y3366D01*
X2540Y3364D01*
X2560Y3364D01*
X2560Y3366D01*
X2562Y3366D01*
X2562Y3368D01*
X2564Y3368D01*
X2564Y3370D01*
X2568Y3370D01*
X2568Y3372D01*
X2570Y3372D01*
X2570Y3374D01*
X2574Y3374D01*
X2574Y3376D01*
X2578Y3376D01*
X2578Y3378D01*
X2586Y3378D01*
X2586Y3380D01*
X2514Y3380D01*
G37*
D02*
G36*
X2614Y3380D02*
X2614Y3378D01*
X2622Y3378D01*
X2622Y3376D01*
X2626Y3376D01*
X2626Y3374D01*
X2630Y3374D01*
X2630Y3372D01*
X2632Y3372D01*
X2632Y3370D01*
X2636Y3370D01*
X2636Y3368D01*
X2638Y3368D01*
X2638Y3366D01*
X2640Y3366D01*
X2640Y3364D01*
X2642Y3364D01*
X2642Y3362D01*
X2644Y3362D01*
X2644Y3360D01*
X2646Y3360D01*
X2646Y3358D01*
X2648Y3358D01*
X2648Y3354D01*
X2650Y3354D01*
X2650Y3352D01*
X2652Y3352D01*
X2652Y3348D01*
X2654Y3348D01*
X2654Y3344D01*
X2656Y3344D01*
X2656Y3336D01*
X2658Y3336D01*
X2658Y3308D01*
X2656Y3308D01*
X2656Y3300D01*
X2654Y3300D01*
X2654Y3296D01*
X2652Y3296D01*
X2652Y3292D01*
X2650Y3292D01*
X2650Y3290D01*
X2648Y3290D01*
X2648Y3286D01*
X2646Y3286D01*
X2646Y3284D01*
X2644Y3284D01*
X2644Y3282D01*
X2642Y3282D01*
X2642Y3262D01*
X2644Y3262D01*
X2644Y3260D01*
X2646Y3260D01*
X2646Y3258D01*
X2648Y3258D01*
X2648Y3254D01*
X2650Y3254D01*
X2650Y3252D01*
X2652Y3252D01*
X2652Y3248D01*
X2654Y3248D01*
X2654Y3244D01*
X2656Y3244D01*
X2656Y3236D01*
X2658Y3236D01*
X2658Y3208D01*
X2656Y3208D01*
X2656Y3200D01*
X2654Y3200D01*
X2654Y3196D01*
X2652Y3196D01*
X2652Y3192D01*
X2650Y3192D01*
X2650Y3190D01*
X2648Y3190D01*
X2648Y3186D01*
X2646Y3186D01*
X2646Y3184D01*
X2644Y3184D01*
X2644Y3182D01*
X2642Y3182D01*
X2642Y3180D01*
X2640Y3180D01*
X2640Y3178D01*
X2638Y3178D01*
X2638Y3176D01*
X2636Y3176D01*
X2636Y3174D01*
X2632Y3174D01*
X2632Y3172D01*
X2630Y3172D01*
X2630Y3170D01*
X2626Y3170D01*
X2626Y3168D01*
X2622Y3168D01*
X2622Y3166D01*
X2614Y3166D01*
X2614Y3164D01*
X2586Y3164D01*
X2586Y3162D01*
X2584Y3162D01*
X2584Y3160D01*
X2582Y3160D01*
X2582Y3158D01*
X2580Y3158D01*
X2580Y3156D01*
X2578Y3156D01*
X2578Y3154D01*
X2576Y3154D01*
X2576Y3152D01*
X2574Y3152D01*
X2574Y3150D01*
X2572Y3150D01*
X2572Y3148D01*
X2570Y3148D01*
X2570Y3146D01*
X2568Y3146D01*
X2568Y3144D01*
X2566Y3144D01*
X2566Y3142D01*
X2564Y3142D01*
X2564Y3140D01*
X2562Y3140D01*
X2562Y3138D01*
X2560Y3138D01*
X2560Y3136D01*
X2558Y3136D01*
X2558Y3134D01*
X2556Y3134D01*
X2556Y3132D01*
X2554Y3132D01*
X2554Y3130D01*
X2552Y3130D01*
X2552Y3128D01*
X2550Y3128D01*
X2550Y3126D01*
X2548Y3126D01*
X2548Y3124D01*
X2546Y3124D01*
X2546Y3122D01*
X2544Y3122D01*
X2544Y3120D01*
X2542Y3120D01*
X2542Y3118D01*
X2540Y3118D01*
X2540Y3116D01*
X2538Y3116D01*
X2538Y3114D01*
X2536Y3114D01*
X2536Y3112D01*
X2534Y3112D01*
X2534Y3110D01*
X2532Y3110D01*
X2532Y3108D01*
X2530Y3108D01*
X2530Y3106D01*
X2528Y3106D01*
X2528Y3104D01*
X2526Y3104D01*
X2526Y3102D01*
X2524Y3102D01*
X2524Y3100D01*
X2522Y3100D01*
X2522Y3098D01*
X2520Y3098D01*
X2520Y3096D01*
X2518Y3096D01*
X2518Y3094D01*
X2516Y3094D01*
X2516Y3092D01*
X2514Y3092D01*
X2514Y3090D01*
X2512Y3090D01*
X2512Y3088D01*
X2510Y3088D01*
X2510Y3086D01*
X2508Y3086D01*
X2508Y3084D01*
X2506Y3084D01*
X2506Y3082D01*
X2504Y3082D01*
X2504Y3080D01*
X2502Y3080D01*
X2502Y3078D01*
X2500Y3078D01*
X2500Y3076D01*
X2498Y3076D01*
X2498Y3074D01*
X2496Y3074D01*
X2496Y3072D01*
X2492Y3072D01*
X2492Y3070D01*
X2490Y3070D01*
X2490Y3068D01*
X2488Y3068D01*
X2488Y3066D01*
X2486Y3066D01*
X2486Y3064D01*
X2484Y3064D01*
X2484Y3062D01*
X2482Y3062D01*
X2482Y3060D01*
X2480Y3060D01*
X2480Y3058D01*
X2478Y3058D01*
X2478Y3056D01*
X2476Y3056D01*
X2476Y3054D01*
X2474Y3054D01*
X2474Y3052D01*
X2472Y3052D01*
X2472Y3050D01*
X2470Y3050D01*
X2470Y3048D01*
X2468Y3048D01*
X2468Y3046D01*
X2466Y3046D01*
X2466Y3044D01*
X2464Y3044D01*
X2464Y3042D01*
X2462Y3042D01*
X2462Y3040D01*
X2460Y3040D01*
X2460Y3038D01*
X2458Y3038D01*
X2458Y3036D01*
X2456Y3036D01*
X2456Y3034D01*
X2454Y3034D01*
X2454Y3032D01*
X2452Y3032D01*
X2452Y3030D01*
X2450Y3030D01*
X2450Y3028D01*
X2448Y3028D01*
X2448Y3026D01*
X2446Y3026D01*
X2446Y3024D01*
X2444Y3024D01*
X2444Y3022D01*
X2442Y3022D01*
X2442Y3020D01*
X2440Y3020D01*
X2440Y3018D01*
X2438Y3018D01*
X2438Y3016D01*
X2436Y3016D01*
X2436Y3014D01*
X2434Y3014D01*
X2434Y3012D01*
X2432Y3012D01*
X2432Y3010D01*
X2430Y3010D01*
X2430Y3008D01*
X2428Y3008D01*
X2428Y3006D01*
X2426Y3006D01*
X2426Y3004D01*
X2424Y3004D01*
X2424Y3002D01*
X2422Y3002D01*
X2422Y3000D01*
X2420Y3000D01*
X2420Y2998D01*
X2418Y2998D01*
X2418Y2996D01*
X2416Y2996D01*
X2416Y2994D01*
X2412Y2994D01*
X2412Y2992D01*
X2408Y2992D01*
X2408Y2990D01*
X2986Y2990D01*
X2986Y2992D01*
X2984Y2992D01*
X2984Y2994D01*
X2982Y2994D01*
X2982Y2996D01*
X2980Y2996D01*
X2980Y2998D01*
X2978Y2998D01*
X2978Y3000D01*
X2976Y3000D01*
X2976Y3002D01*
X2974Y3002D01*
X2974Y3004D01*
X2972Y3004D01*
X2972Y3006D01*
X2970Y3006D01*
X2970Y3008D01*
X2968Y3008D01*
X2968Y3010D01*
X2966Y3010D01*
X2966Y3012D01*
X2964Y3012D01*
X2964Y3014D01*
X2962Y3014D01*
X2962Y3016D01*
X2960Y3016D01*
X2960Y3018D01*
X2958Y3018D01*
X2958Y3020D01*
X2956Y3020D01*
X2956Y3022D01*
X2954Y3022D01*
X2954Y3024D01*
X2952Y3024D01*
X2952Y3026D01*
X2950Y3026D01*
X2950Y3028D01*
X2948Y3028D01*
X2948Y3030D01*
X2946Y3030D01*
X2946Y3032D01*
X2944Y3032D01*
X2944Y3034D01*
X2942Y3034D01*
X2942Y3036D01*
X2940Y3036D01*
X2940Y3038D01*
X2938Y3038D01*
X2938Y3040D01*
X2936Y3040D01*
X2936Y3042D01*
X2934Y3042D01*
X2934Y3044D01*
X2932Y3044D01*
X2932Y3046D01*
X2930Y3046D01*
X2930Y3048D01*
X2928Y3048D01*
X2928Y3050D01*
X2926Y3050D01*
X2926Y3052D01*
X2924Y3052D01*
X2924Y3054D01*
X2922Y3054D01*
X2922Y3056D01*
X2920Y3056D01*
X2920Y3058D01*
X2918Y3058D01*
X2918Y3060D01*
X2916Y3060D01*
X2916Y3062D01*
X2914Y3062D01*
X2914Y3064D01*
X2912Y3064D01*
X2912Y3066D01*
X2910Y3066D01*
X2910Y3068D01*
X2908Y3068D01*
X2908Y3070D01*
X2906Y3070D01*
X2906Y3072D01*
X2904Y3072D01*
X2904Y3074D01*
X2902Y3074D01*
X2902Y3076D01*
X2900Y3076D01*
X2900Y3078D01*
X2898Y3078D01*
X2898Y3080D01*
X2896Y3080D01*
X2896Y3082D01*
X2894Y3082D01*
X2894Y3084D01*
X2892Y3084D01*
X2892Y3086D01*
X2890Y3086D01*
X2890Y3088D01*
X2888Y3088D01*
X2888Y3090D01*
X2886Y3090D01*
X2886Y3092D01*
X2884Y3092D01*
X2884Y3094D01*
X2882Y3094D01*
X2882Y3096D01*
X2880Y3096D01*
X2880Y3098D01*
X2878Y3098D01*
X2878Y3100D01*
X2876Y3100D01*
X2876Y3102D01*
X2874Y3102D01*
X2874Y3104D01*
X2872Y3104D01*
X2872Y3106D01*
X2870Y3106D01*
X2870Y3108D01*
X2868Y3108D01*
X2868Y3110D01*
X2866Y3110D01*
X2866Y3112D01*
X2864Y3112D01*
X2864Y3114D01*
X2862Y3114D01*
X2862Y3116D01*
X2860Y3116D01*
X2860Y3118D01*
X2858Y3118D01*
X2858Y3120D01*
X2856Y3120D01*
X2856Y3122D01*
X2854Y3122D01*
X2854Y3124D01*
X2852Y3124D01*
X2852Y3126D01*
X2850Y3126D01*
X2850Y3128D01*
X2848Y3128D01*
X2848Y3130D01*
X2846Y3130D01*
X2846Y3132D01*
X2844Y3132D01*
X2844Y3134D01*
X2842Y3134D01*
X2842Y3136D01*
X2840Y3136D01*
X2840Y3138D01*
X2838Y3138D01*
X2838Y3140D01*
X2836Y3140D01*
X2836Y3142D01*
X2834Y3142D01*
X2834Y3144D01*
X2832Y3144D01*
X2832Y3146D01*
X2830Y3146D01*
X2830Y3148D01*
X2828Y3148D01*
X2828Y3150D01*
X2826Y3150D01*
X2826Y3152D01*
X2824Y3152D01*
X2824Y3154D01*
X2822Y3154D01*
X2822Y3156D01*
X2820Y3156D01*
X2820Y3158D01*
X2818Y3158D01*
X2818Y3160D01*
X2816Y3160D01*
X2816Y3162D01*
X2814Y3162D01*
X2814Y3164D01*
X2786Y3164D01*
X2786Y3166D01*
X2778Y3166D01*
X2778Y3168D01*
X2774Y3168D01*
X2774Y3170D01*
X2770Y3170D01*
X2770Y3172D01*
X2768Y3172D01*
X2768Y3174D01*
X2764Y3174D01*
X2764Y3176D01*
X2762Y3176D01*
X2762Y3178D01*
X2760Y3178D01*
X2760Y3180D01*
X2758Y3180D01*
X2758Y3182D01*
X2756Y3182D01*
X2756Y3184D01*
X2754Y3184D01*
X2754Y3186D01*
X2752Y3186D01*
X2752Y3190D01*
X2750Y3190D01*
X2750Y3192D01*
X2748Y3192D01*
X2748Y3196D01*
X2746Y3196D01*
X2746Y3200D01*
X2744Y3200D01*
X2744Y3208D01*
X2742Y3208D01*
X2742Y3236D01*
X2744Y3236D01*
X2744Y3244D01*
X2746Y3244D01*
X2746Y3248D01*
X2748Y3248D01*
X2748Y3252D01*
X2750Y3252D01*
X2750Y3254D01*
X2752Y3254D01*
X2752Y3258D01*
X2754Y3258D01*
X2754Y3260D01*
X2756Y3260D01*
X2756Y3262D01*
X2758Y3262D01*
X2758Y3282D01*
X2756Y3282D01*
X2756Y3284D01*
X2754Y3284D01*
X2754Y3286D01*
X2752Y3286D01*
X2752Y3290D01*
X2750Y3290D01*
X2750Y3292D01*
X2748Y3292D01*
X2748Y3296D01*
X2746Y3296D01*
X2746Y3300D01*
X2744Y3300D01*
X2744Y3308D01*
X2742Y3308D01*
X2742Y3336D01*
X2744Y3336D01*
X2744Y3344D01*
X2746Y3344D01*
X2746Y3348D01*
X2748Y3348D01*
X2748Y3352D01*
X2750Y3352D01*
X2750Y3354D01*
X2752Y3354D01*
X2752Y3358D01*
X2754Y3358D01*
X2754Y3360D01*
X2756Y3360D01*
X2756Y3362D01*
X2758Y3362D01*
X2758Y3364D01*
X2760Y3364D01*
X2760Y3366D01*
X2762Y3366D01*
X2762Y3368D01*
X2764Y3368D01*
X2764Y3370D01*
X2768Y3370D01*
X2768Y3372D01*
X2770Y3372D01*
X2770Y3374D01*
X2774Y3374D01*
X2774Y3376D01*
X2778Y3376D01*
X2778Y3378D01*
X2786Y3378D01*
X2786Y3380D01*
X2614Y3380D01*
G37*
D02*
G36*
X2814Y3380D02*
X2814Y3378D01*
X2822Y3378D01*
X2822Y3376D01*
X2826Y3376D01*
X2826Y3374D01*
X2830Y3374D01*
X2830Y3372D01*
X2832Y3372D01*
X2832Y3370D01*
X2836Y3370D01*
X2836Y3368D01*
X2838Y3368D01*
X2838Y3366D01*
X2840Y3366D01*
X2840Y3364D01*
X2860Y3364D01*
X2860Y3366D01*
X2862Y3366D01*
X2862Y3368D01*
X2864Y3368D01*
X2864Y3370D01*
X2868Y3370D01*
X2868Y3372D01*
X2870Y3372D01*
X2870Y3374D01*
X2874Y3374D01*
X2874Y3376D01*
X2878Y3376D01*
X2878Y3378D01*
X2886Y3378D01*
X2886Y3380D01*
X2814Y3380D01*
G37*
D02*
G36*
X2914Y3380D02*
X2914Y3378D01*
X2922Y3378D01*
X2922Y3376D01*
X2926Y3376D01*
X2926Y3374D01*
X2930Y3374D01*
X2930Y3372D01*
X2932Y3372D01*
X2932Y3370D01*
X2936Y3370D01*
X2936Y3368D01*
X2938Y3368D01*
X2938Y3366D01*
X2940Y3366D01*
X2940Y3364D01*
X2960Y3364D01*
X2960Y3366D01*
X2962Y3366D01*
X2962Y3368D01*
X2964Y3368D01*
X2964Y3370D01*
X2968Y3370D01*
X2968Y3372D01*
X2970Y3372D01*
X2970Y3374D01*
X2974Y3374D01*
X2974Y3376D01*
X2978Y3376D01*
X2978Y3378D01*
X2986Y3378D01*
X2986Y3380D01*
X2914Y3380D01*
G37*
D02*
G36*
X40Y3080D02*
X40Y2764D01*
X286Y2764D01*
X286Y2766D01*
X278Y2766D01*
X278Y2768D01*
X274Y2768D01*
X274Y2770D01*
X270Y2770D01*
X270Y2772D01*
X268Y2772D01*
X268Y2774D01*
X264Y2774D01*
X264Y2776D01*
X262Y2776D01*
X262Y2778D01*
X260Y2778D01*
X260Y2780D01*
X258Y2780D01*
X258Y2782D01*
X256Y2782D01*
X256Y2784D01*
X254Y2784D01*
X254Y2786D01*
X252Y2786D01*
X252Y2790D01*
X250Y2790D01*
X250Y2792D01*
X248Y2792D01*
X248Y2796D01*
X246Y2796D01*
X246Y2800D01*
X244Y2800D01*
X244Y2808D01*
X242Y2808D01*
X242Y2836D01*
X244Y2836D01*
X244Y2844D01*
X246Y2844D01*
X246Y2848D01*
X248Y2848D01*
X248Y2852D01*
X250Y2852D01*
X250Y2854D01*
X252Y2854D01*
X252Y2858D01*
X254Y2858D01*
X254Y2860D01*
X256Y2860D01*
X256Y2862D01*
X258Y2862D01*
X258Y2882D01*
X256Y2882D01*
X256Y2884D01*
X254Y2884D01*
X254Y2886D01*
X252Y2886D01*
X252Y2890D01*
X250Y2890D01*
X250Y2892D01*
X248Y2892D01*
X248Y2896D01*
X246Y2896D01*
X246Y2900D01*
X244Y2900D01*
X244Y2908D01*
X242Y2908D01*
X242Y2936D01*
X244Y2936D01*
X244Y2944D01*
X246Y2944D01*
X246Y2948D01*
X248Y2948D01*
X248Y2952D01*
X250Y2952D01*
X250Y2954D01*
X252Y2954D01*
X252Y2958D01*
X254Y2958D01*
X254Y2960D01*
X256Y2960D01*
X256Y2962D01*
X258Y2962D01*
X258Y2982D01*
X256Y2982D01*
X256Y2984D01*
X254Y2984D01*
X254Y2986D01*
X252Y2986D01*
X252Y2990D01*
X250Y2990D01*
X250Y2992D01*
X248Y2992D01*
X248Y2996D01*
X246Y2996D01*
X246Y3000D01*
X244Y3000D01*
X244Y3008D01*
X242Y3008D01*
X242Y3036D01*
X244Y3036D01*
X244Y3044D01*
X246Y3044D01*
X246Y3048D01*
X248Y3048D01*
X248Y3052D01*
X250Y3052D01*
X250Y3054D01*
X252Y3054D01*
X252Y3058D01*
X254Y3058D01*
X254Y3060D01*
X256Y3060D01*
X256Y3062D01*
X258Y3062D01*
X258Y3064D01*
X260Y3064D01*
X260Y3066D01*
X262Y3066D01*
X262Y3068D01*
X264Y3068D01*
X264Y3070D01*
X268Y3070D01*
X268Y3072D01*
X270Y3072D01*
X270Y3074D01*
X274Y3074D01*
X274Y3076D01*
X278Y3076D01*
X278Y3078D01*
X286Y3078D01*
X286Y3080D01*
X40Y3080D01*
G37*
D02*
G36*
X3214Y3080D02*
X3214Y3078D01*
X3222Y3078D01*
X3222Y3076D01*
X3226Y3076D01*
X3226Y3074D01*
X3230Y3074D01*
X3230Y3072D01*
X3232Y3072D01*
X3232Y3070D01*
X3236Y3070D01*
X3236Y3068D01*
X3238Y3068D01*
X3238Y3066D01*
X3240Y3066D01*
X3240Y3064D01*
X3260Y3064D01*
X3260Y3066D01*
X3262Y3066D01*
X3262Y3068D01*
X3264Y3068D01*
X3264Y3070D01*
X3268Y3070D01*
X3268Y3072D01*
X3270Y3072D01*
X3270Y3074D01*
X3274Y3074D01*
X3274Y3076D01*
X3278Y3076D01*
X3278Y3078D01*
X3286Y3078D01*
X3286Y3080D01*
X3214Y3080D01*
G37*
D02*
G36*
X612Y2990D02*
X612Y2988D01*
X2988Y2988D01*
X2988Y2990D01*
X612Y2990D01*
G37*
D02*
G36*
X612Y2990D02*
X612Y2988D01*
X2988Y2988D01*
X2988Y2990D01*
X612Y2990D01*
G37*
D02*
G36*
X610Y2988D02*
X610Y2986D01*
X608Y2986D01*
X608Y2984D01*
X606Y2984D01*
X606Y2982D01*
X604Y2982D01*
X604Y2980D01*
X602Y2980D01*
X602Y2978D01*
X600Y2978D01*
X600Y2976D01*
X598Y2976D01*
X598Y2974D01*
X596Y2974D01*
X596Y2972D01*
X594Y2972D01*
X594Y2970D01*
X592Y2970D01*
X592Y2968D01*
X590Y2968D01*
X590Y2966D01*
X588Y2966D01*
X588Y2964D01*
X586Y2964D01*
X586Y2962D01*
X584Y2962D01*
X584Y2960D01*
X582Y2960D01*
X582Y2958D01*
X580Y2958D01*
X580Y2956D01*
X578Y2956D01*
X578Y2954D01*
X576Y2954D01*
X576Y2952D01*
X574Y2952D01*
X574Y2950D01*
X572Y2950D01*
X572Y2948D01*
X570Y2948D01*
X570Y2946D01*
X568Y2946D01*
X568Y2944D01*
X566Y2944D01*
X566Y2942D01*
X564Y2942D01*
X564Y2940D01*
X562Y2940D01*
X562Y2938D01*
X560Y2938D01*
X560Y2936D01*
X558Y2936D01*
X558Y2934D01*
X556Y2934D01*
X556Y2932D01*
X554Y2932D01*
X554Y2930D01*
X552Y2930D01*
X552Y2928D01*
X550Y2928D01*
X550Y2926D01*
X548Y2926D01*
X548Y2924D01*
X546Y2924D01*
X546Y2922D01*
X544Y2922D01*
X544Y2920D01*
X542Y2920D01*
X542Y2918D01*
X540Y2918D01*
X540Y2916D01*
X538Y2916D01*
X538Y2914D01*
X536Y2914D01*
X536Y2912D01*
X534Y2912D01*
X534Y2910D01*
X532Y2910D01*
X532Y2908D01*
X530Y2908D01*
X530Y2906D01*
X528Y2906D01*
X528Y2904D01*
X526Y2904D01*
X526Y2902D01*
X524Y2902D01*
X524Y2900D01*
X522Y2900D01*
X522Y2898D01*
X520Y2898D01*
X520Y2896D01*
X518Y2896D01*
X518Y2894D01*
X516Y2894D01*
X516Y2892D01*
X514Y2892D01*
X514Y2890D01*
X512Y2890D01*
X512Y2888D01*
X510Y2888D01*
X510Y2886D01*
X508Y2886D01*
X508Y2884D01*
X506Y2884D01*
X506Y2882D01*
X504Y2882D01*
X504Y2880D01*
X502Y2880D01*
X502Y2878D01*
X500Y2878D01*
X500Y2876D01*
X498Y2876D01*
X498Y2874D01*
X496Y2874D01*
X496Y2872D01*
X494Y2872D01*
X494Y2870D01*
X492Y2870D01*
X492Y2868D01*
X490Y2868D01*
X490Y2866D01*
X488Y2866D01*
X488Y2864D01*
X486Y2864D01*
X486Y2862D01*
X484Y2862D01*
X484Y2860D01*
X482Y2860D01*
X482Y2858D01*
X480Y2858D01*
X480Y2856D01*
X478Y2856D01*
X478Y2854D01*
X476Y2854D01*
X476Y2852D01*
X474Y2852D01*
X474Y2850D01*
X472Y2850D01*
X472Y2848D01*
X470Y2848D01*
X470Y2846D01*
X468Y2846D01*
X468Y2844D01*
X466Y2844D01*
X466Y2842D01*
X464Y2842D01*
X464Y2840D01*
X462Y2840D01*
X462Y2838D01*
X460Y2838D01*
X460Y2836D01*
X458Y2836D01*
X458Y2808D01*
X456Y2808D01*
X456Y2800D01*
X454Y2800D01*
X454Y2796D01*
X452Y2796D01*
X452Y2792D01*
X450Y2792D01*
X450Y2790D01*
X448Y2790D01*
X448Y2786D01*
X446Y2786D01*
X446Y2784D01*
X444Y2784D01*
X444Y2782D01*
X442Y2782D01*
X442Y2780D01*
X440Y2780D01*
X440Y2778D01*
X438Y2778D01*
X438Y2776D01*
X436Y2776D01*
X436Y2774D01*
X432Y2774D01*
X432Y2772D01*
X430Y2772D01*
X430Y2770D01*
X426Y2770D01*
X426Y2768D01*
X422Y2768D01*
X422Y2766D01*
X414Y2766D01*
X414Y2764D01*
X3186Y2764D01*
X3186Y2766D01*
X3178Y2766D01*
X3178Y2768D01*
X3174Y2768D01*
X3174Y2770D01*
X3170Y2770D01*
X3170Y2772D01*
X3168Y2772D01*
X3168Y2774D01*
X3164Y2774D01*
X3164Y2776D01*
X3162Y2776D01*
X3162Y2778D01*
X3160Y2778D01*
X3160Y2780D01*
X3158Y2780D01*
X3158Y2782D01*
X3156Y2782D01*
X3156Y2784D01*
X3154Y2784D01*
X3154Y2786D01*
X3152Y2786D01*
X3152Y2790D01*
X3150Y2790D01*
X3150Y2792D01*
X3148Y2792D01*
X3148Y2796D01*
X3146Y2796D01*
X3146Y2800D01*
X3144Y2800D01*
X3144Y2808D01*
X3142Y2808D01*
X3142Y2836D01*
X3140Y2836D01*
X3140Y2838D01*
X3138Y2838D01*
X3138Y2840D01*
X3136Y2840D01*
X3136Y2842D01*
X3134Y2842D01*
X3134Y2844D01*
X3132Y2844D01*
X3132Y2846D01*
X3130Y2846D01*
X3130Y2848D01*
X3128Y2848D01*
X3128Y2850D01*
X3126Y2850D01*
X3126Y2852D01*
X3124Y2852D01*
X3124Y2854D01*
X3122Y2854D01*
X3122Y2856D01*
X3120Y2856D01*
X3120Y2858D01*
X3118Y2858D01*
X3118Y2860D01*
X3116Y2860D01*
X3116Y2862D01*
X3114Y2862D01*
X3114Y2864D01*
X3112Y2864D01*
X3112Y2866D01*
X3110Y2866D01*
X3110Y2868D01*
X3108Y2868D01*
X3108Y2870D01*
X3106Y2870D01*
X3106Y2872D01*
X3104Y2872D01*
X3104Y2874D01*
X3102Y2874D01*
X3102Y2876D01*
X3100Y2876D01*
X3100Y2878D01*
X3098Y2878D01*
X3098Y2880D01*
X3096Y2880D01*
X3096Y2882D01*
X3094Y2882D01*
X3094Y2884D01*
X3092Y2884D01*
X3092Y2886D01*
X3090Y2886D01*
X3090Y2888D01*
X3088Y2888D01*
X3088Y2890D01*
X3086Y2890D01*
X3086Y2892D01*
X3084Y2892D01*
X3084Y2894D01*
X3082Y2894D01*
X3082Y2896D01*
X3080Y2896D01*
X3080Y2898D01*
X3078Y2898D01*
X3078Y2900D01*
X3076Y2900D01*
X3076Y2902D01*
X3074Y2902D01*
X3074Y2904D01*
X3072Y2904D01*
X3072Y2906D01*
X3070Y2906D01*
X3070Y2908D01*
X3068Y2908D01*
X3068Y2910D01*
X3066Y2910D01*
X3066Y2912D01*
X3064Y2912D01*
X3064Y2914D01*
X3062Y2914D01*
X3062Y2916D01*
X3060Y2916D01*
X3060Y2918D01*
X3058Y2918D01*
X3058Y2920D01*
X3056Y2920D01*
X3056Y2922D01*
X3054Y2922D01*
X3054Y2924D01*
X3052Y2924D01*
X3052Y2926D01*
X3050Y2926D01*
X3050Y2928D01*
X3048Y2928D01*
X3048Y2930D01*
X3046Y2930D01*
X3046Y2932D01*
X3044Y2932D01*
X3044Y2934D01*
X3042Y2934D01*
X3042Y2936D01*
X3040Y2936D01*
X3040Y2938D01*
X3038Y2938D01*
X3038Y2940D01*
X3036Y2940D01*
X3036Y2942D01*
X3034Y2942D01*
X3034Y2944D01*
X3032Y2944D01*
X3032Y2946D01*
X3030Y2946D01*
X3030Y2948D01*
X3028Y2948D01*
X3028Y2950D01*
X3026Y2950D01*
X3026Y2952D01*
X3024Y2952D01*
X3024Y2954D01*
X3022Y2954D01*
X3022Y2956D01*
X3020Y2956D01*
X3020Y2958D01*
X3018Y2958D01*
X3018Y2960D01*
X3016Y2960D01*
X3016Y2962D01*
X3014Y2962D01*
X3014Y2964D01*
X3012Y2964D01*
X3012Y2966D01*
X3010Y2966D01*
X3010Y2968D01*
X3008Y2968D01*
X3008Y2970D01*
X3006Y2970D01*
X3006Y2972D01*
X3004Y2972D01*
X3004Y2974D01*
X3002Y2974D01*
X3002Y2976D01*
X3000Y2976D01*
X3000Y2978D01*
X2998Y2978D01*
X2998Y2980D01*
X2996Y2980D01*
X2996Y2982D01*
X2994Y2982D01*
X2994Y2984D01*
X2992Y2984D01*
X2992Y2986D01*
X2990Y2986D01*
X2990Y2988D01*
X610Y2988D01*
G37*
D02*
G36*
X340Y2780D02*
X340Y2778D01*
X338Y2778D01*
X338Y2776D01*
X336Y2776D01*
X336Y2774D01*
X332Y2774D01*
X332Y2772D01*
X330Y2772D01*
X330Y2770D01*
X326Y2770D01*
X326Y2768D01*
X322Y2768D01*
X322Y2766D01*
X314Y2766D01*
X314Y2764D01*
X386Y2764D01*
X386Y2766D01*
X378Y2766D01*
X378Y2768D01*
X374Y2768D01*
X374Y2770D01*
X370Y2770D01*
X370Y2772D01*
X368Y2772D01*
X368Y2774D01*
X364Y2774D01*
X364Y2776D01*
X362Y2776D01*
X362Y2778D01*
X360Y2778D01*
X360Y2780D01*
X340Y2780D01*
G37*
D02*
G36*
X3240Y2780D02*
X3240Y2778D01*
X3238Y2778D01*
X3238Y2776D01*
X3236Y2776D01*
X3236Y2774D01*
X3232Y2774D01*
X3232Y2772D01*
X3230Y2772D01*
X3230Y2770D01*
X3226Y2770D01*
X3226Y2768D01*
X3222Y2768D01*
X3222Y2766D01*
X3214Y2766D01*
X3214Y2764D01*
X3286Y2764D01*
X3286Y2766D01*
X3278Y2766D01*
X3278Y2768D01*
X3274Y2768D01*
X3274Y2770D01*
X3270Y2770D01*
X3270Y2772D01*
X3268Y2772D01*
X3268Y2774D01*
X3264Y2774D01*
X3264Y2776D01*
X3262Y2776D01*
X3262Y2778D01*
X3260Y2778D01*
X3260Y2780D01*
X3240Y2780D01*
G37*
D02*
G36*
X40Y2764D02*
X40Y2762D01*
X3582Y2762D01*
X3582Y2764D01*
X40Y2764D01*
G37*
D02*
G36*
X40Y2764D02*
X40Y2762D01*
X3582Y2762D01*
X3582Y2764D01*
X40Y2764D01*
G37*
D02*
G36*
X40Y2764D02*
X40Y2762D01*
X3582Y2762D01*
X3582Y2764D01*
X40Y2764D01*
G37*
D02*
G36*
X40Y2764D02*
X40Y2762D01*
X3582Y2762D01*
X3582Y2764D01*
X40Y2764D01*
G37*
D02*
G36*
X40Y2764D02*
X40Y2762D01*
X3582Y2762D01*
X3582Y2764D01*
X40Y2764D01*
G37*
D02*
G36*
X40Y2762D02*
X40Y2680D01*
X3314Y2680D01*
X3314Y2678D01*
X3322Y2678D01*
X3322Y2676D01*
X3326Y2676D01*
X3326Y2674D01*
X3330Y2674D01*
X3330Y2672D01*
X3332Y2672D01*
X3332Y2670D01*
X3336Y2670D01*
X3336Y2668D01*
X3338Y2668D01*
X3338Y2666D01*
X3340Y2666D01*
X3340Y2664D01*
X3342Y2664D01*
X3342Y2662D01*
X3344Y2662D01*
X3344Y2660D01*
X3346Y2660D01*
X3346Y2658D01*
X3348Y2658D01*
X3348Y2654D01*
X3350Y2654D01*
X3350Y2652D01*
X3352Y2652D01*
X3352Y2648D01*
X3354Y2648D01*
X3354Y2644D01*
X3356Y2644D01*
X3356Y2636D01*
X3358Y2636D01*
X3358Y2608D01*
X3356Y2608D01*
X3356Y2600D01*
X3354Y2600D01*
X3354Y2596D01*
X3352Y2596D01*
X3352Y2592D01*
X3350Y2592D01*
X3350Y2590D01*
X3348Y2590D01*
X3348Y2586D01*
X3346Y2586D01*
X3346Y2584D01*
X3344Y2584D01*
X3344Y2582D01*
X3342Y2582D01*
X3342Y2562D01*
X3344Y2562D01*
X3344Y2560D01*
X3346Y2560D01*
X3346Y2558D01*
X3348Y2558D01*
X3348Y2554D01*
X3350Y2554D01*
X3350Y2552D01*
X3352Y2552D01*
X3352Y2548D01*
X3354Y2548D01*
X3354Y2544D01*
X3356Y2544D01*
X3356Y2536D01*
X3358Y2536D01*
X3358Y2508D01*
X3356Y2508D01*
X3356Y2500D01*
X3354Y2500D01*
X3354Y2496D01*
X3352Y2496D01*
X3352Y2492D01*
X3350Y2492D01*
X3350Y2490D01*
X3348Y2490D01*
X3348Y2486D01*
X3346Y2486D01*
X3346Y2484D01*
X3344Y2484D01*
X3344Y2482D01*
X3342Y2482D01*
X3342Y2462D01*
X3344Y2462D01*
X3344Y2460D01*
X3346Y2460D01*
X3346Y2458D01*
X3348Y2458D01*
X3348Y2454D01*
X3350Y2454D01*
X3350Y2452D01*
X3352Y2452D01*
X3352Y2448D01*
X3354Y2448D01*
X3354Y2444D01*
X3356Y2444D01*
X3356Y2436D01*
X3358Y2436D01*
X3358Y2408D01*
X3356Y2408D01*
X3356Y2400D01*
X3354Y2400D01*
X3354Y2396D01*
X3352Y2396D01*
X3352Y2392D01*
X3350Y2392D01*
X3350Y2390D01*
X3348Y2390D01*
X3348Y2386D01*
X3346Y2386D01*
X3346Y2384D01*
X3344Y2384D01*
X3344Y2382D01*
X3342Y2382D01*
X3342Y2380D01*
X3340Y2380D01*
X3340Y2378D01*
X3338Y2378D01*
X3338Y2376D01*
X3336Y2376D01*
X3336Y2374D01*
X3332Y2374D01*
X3332Y2372D01*
X3330Y2372D01*
X3330Y2370D01*
X3326Y2370D01*
X3326Y2368D01*
X3322Y2368D01*
X3322Y2366D01*
X3314Y2366D01*
X3314Y2364D01*
X3582Y2364D01*
X3582Y2762D01*
X40Y2762D01*
G37*
D02*
G36*
X40Y2680D02*
X40Y2364D01*
X286Y2364D01*
X286Y2366D01*
X278Y2366D01*
X278Y2368D01*
X274Y2368D01*
X274Y2370D01*
X270Y2370D01*
X270Y2372D01*
X268Y2372D01*
X268Y2374D01*
X264Y2374D01*
X264Y2376D01*
X262Y2376D01*
X262Y2378D01*
X260Y2378D01*
X260Y2380D01*
X258Y2380D01*
X258Y2382D01*
X256Y2382D01*
X256Y2384D01*
X254Y2384D01*
X254Y2386D01*
X252Y2386D01*
X252Y2390D01*
X250Y2390D01*
X250Y2392D01*
X248Y2392D01*
X248Y2396D01*
X246Y2396D01*
X246Y2400D01*
X244Y2400D01*
X244Y2408D01*
X242Y2408D01*
X242Y2436D01*
X244Y2436D01*
X244Y2444D01*
X246Y2444D01*
X246Y2448D01*
X248Y2448D01*
X248Y2452D01*
X250Y2452D01*
X250Y2454D01*
X252Y2454D01*
X252Y2458D01*
X254Y2458D01*
X254Y2460D01*
X256Y2460D01*
X256Y2462D01*
X258Y2462D01*
X258Y2482D01*
X256Y2482D01*
X256Y2484D01*
X254Y2484D01*
X254Y2486D01*
X252Y2486D01*
X252Y2490D01*
X250Y2490D01*
X250Y2492D01*
X248Y2492D01*
X248Y2496D01*
X246Y2496D01*
X246Y2500D01*
X244Y2500D01*
X244Y2508D01*
X242Y2508D01*
X242Y2536D01*
X244Y2536D01*
X244Y2544D01*
X246Y2544D01*
X246Y2548D01*
X248Y2548D01*
X248Y2552D01*
X250Y2552D01*
X250Y2554D01*
X252Y2554D01*
X252Y2558D01*
X254Y2558D01*
X254Y2560D01*
X256Y2560D01*
X256Y2562D01*
X258Y2562D01*
X258Y2582D01*
X256Y2582D01*
X256Y2584D01*
X254Y2584D01*
X254Y2586D01*
X252Y2586D01*
X252Y2590D01*
X250Y2590D01*
X250Y2592D01*
X248Y2592D01*
X248Y2596D01*
X246Y2596D01*
X246Y2600D01*
X244Y2600D01*
X244Y2608D01*
X242Y2608D01*
X242Y2636D01*
X244Y2636D01*
X244Y2644D01*
X246Y2644D01*
X246Y2648D01*
X248Y2648D01*
X248Y2652D01*
X250Y2652D01*
X250Y2654D01*
X252Y2654D01*
X252Y2658D01*
X254Y2658D01*
X254Y2660D01*
X256Y2660D01*
X256Y2662D01*
X258Y2662D01*
X258Y2664D01*
X260Y2664D01*
X260Y2666D01*
X262Y2666D01*
X262Y2668D01*
X264Y2668D01*
X264Y2670D01*
X268Y2670D01*
X268Y2672D01*
X270Y2672D01*
X270Y2674D01*
X274Y2674D01*
X274Y2676D01*
X278Y2676D01*
X278Y2678D01*
X286Y2678D01*
X286Y2680D01*
X40Y2680D01*
G37*
D02*
G36*
X314Y2680D02*
X314Y2678D01*
X322Y2678D01*
X322Y2676D01*
X326Y2676D01*
X326Y2674D01*
X330Y2674D01*
X330Y2672D01*
X332Y2672D01*
X332Y2670D01*
X336Y2670D01*
X336Y2668D01*
X338Y2668D01*
X338Y2666D01*
X340Y2666D01*
X340Y2664D01*
X360Y2664D01*
X360Y2666D01*
X362Y2666D01*
X362Y2668D01*
X364Y2668D01*
X364Y2670D01*
X368Y2670D01*
X368Y2672D01*
X370Y2672D01*
X370Y2674D01*
X374Y2674D01*
X374Y2676D01*
X378Y2676D01*
X378Y2678D01*
X386Y2678D01*
X386Y2680D01*
X314Y2680D01*
G37*
D02*
G36*
X414Y2680D02*
X414Y2678D01*
X422Y2678D01*
X422Y2676D01*
X426Y2676D01*
X426Y2674D01*
X430Y2674D01*
X430Y2672D01*
X432Y2672D01*
X432Y2670D01*
X436Y2670D01*
X436Y2668D01*
X438Y2668D01*
X438Y2666D01*
X440Y2666D01*
X440Y2664D01*
X442Y2664D01*
X442Y2662D01*
X444Y2662D01*
X444Y2660D01*
X446Y2660D01*
X446Y2658D01*
X448Y2658D01*
X448Y2654D01*
X450Y2654D01*
X450Y2652D01*
X452Y2652D01*
X452Y2648D01*
X454Y2648D01*
X454Y2644D01*
X456Y2644D01*
X456Y2636D01*
X458Y2636D01*
X458Y2608D01*
X460Y2608D01*
X460Y2606D01*
X462Y2606D01*
X462Y2604D01*
X464Y2604D01*
X464Y2602D01*
X466Y2602D01*
X466Y2600D01*
X468Y2600D01*
X468Y2598D01*
X470Y2598D01*
X470Y2596D01*
X472Y2596D01*
X472Y2594D01*
X474Y2594D01*
X474Y2592D01*
X476Y2592D01*
X476Y2590D01*
X478Y2590D01*
X478Y2588D01*
X480Y2588D01*
X480Y2586D01*
X482Y2586D01*
X482Y2584D01*
X484Y2584D01*
X484Y2582D01*
X486Y2582D01*
X486Y2580D01*
X488Y2580D01*
X488Y2578D01*
X490Y2578D01*
X490Y2576D01*
X492Y2576D01*
X492Y2574D01*
X494Y2574D01*
X494Y2572D01*
X496Y2572D01*
X496Y2570D01*
X498Y2570D01*
X498Y2568D01*
X500Y2568D01*
X500Y2566D01*
X502Y2566D01*
X502Y2564D01*
X504Y2564D01*
X504Y2562D01*
X506Y2562D01*
X506Y2560D01*
X508Y2560D01*
X508Y2558D01*
X510Y2558D01*
X510Y2556D01*
X512Y2556D01*
X512Y2554D01*
X514Y2554D01*
X514Y2552D01*
X516Y2552D01*
X516Y2550D01*
X518Y2550D01*
X518Y2548D01*
X520Y2548D01*
X520Y2546D01*
X522Y2546D01*
X522Y2544D01*
X524Y2544D01*
X524Y2542D01*
X526Y2542D01*
X526Y2540D01*
X528Y2540D01*
X528Y2538D01*
X530Y2538D01*
X530Y2536D01*
X532Y2536D01*
X532Y2534D01*
X534Y2534D01*
X534Y2532D01*
X536Y2532D01*
X536Y2530D01*
X538Y2530D01*
X538Y2528D01*
X540Y2528D01*
X540Y2526D01*
X542Y2526D01*
X542Y2524D01*
X544Y2524D01*
X544Y2522D01*
X546Y2522D01*
X546Y2520D01*
X548Y2520D01*
X548Y2518D01*
X550Y2518D01*
X550Y2516D01*
X552Y2516D01*
X552Y2514D01*
X554Y2514D01*
X554Y2512D01*
X556Y2512D01*
X556Y2510D01*
X558Y2510D01*
X558Y2508D01*
X560Y2508D01*
X560Y2506D01*
X562Y2506D01*
X562Y2504D01*
X564Y2504D01*
X564Y2502D01*
X566Y2502D01*
X566Y2500D01*
X568Y2500D01*
X568Y2498D01*
X570Y2498D01*
X570Y2496D01*
X572Y2496D01*
X572Y2494D01*
X574Y2494D01*
X574Y2492D01*
X576Y2492D01*
X576Y2490D01*
X578Y2490D01*
X578Y2488D01*
X580Y2488D01*
X580Y2486D01*
X582Y2486D01*
X582Y2484D01*
X584Y2484D01*
X584Y2482D01*
X586Y2482D01*
X586Y2480D01*
X588Y2480D01*
X588Y2478D01*
X590Y2478D01*
X590Y2476D01*
X592Y2476D01*
X592Y2474D01*
X594Y2474D01*
X594Y2472D01*
X596Y2472D01*
X596Y2470D01*
X598Y2470D01*
X598Y2468D01*
X600Y2468D01*
X600Y2466D01*
X602Y2466D01*
X602Y2464D01*
X604Y2464D01*
X604Y2462D01*
X606Y2462D01*
X606Y2460D01*
X608Y2460D01*
X608Y2458D01*
X610Y2458D01*
X610Y2456D01*
X612Y2456D01*
X612Y2454D01*
X614Y2454D01*
X614Y2452D01*
X616Y2452D01*
X616Y2450D01*
X618Y2450D01*
X618Y2448D01*
X620Y2448D01*
X620Y2446D01*
X622Y2446D01*
X622Y2444D01*
X624Y2444D01*
X624Y2442D01*
X626Y2442D01*
X626Y2438D01*
X628Y2438D01*
X628Y2436D01*
X630Y2436D01*
X630Y2430D01*
X632Y2430D01*
X632Y1980D01*
X2406Y1980D01*
X2406Y1978D01*
X2416Y1978D01*
X2416Y1976D01*
X2422Y1976D01*
X2422Y1974D01*
X2426Y1974D01*
X2426Y1972D01*
X2430Y1972D01*
X2430Y1970D01*
X2432Y1970D01*
X2432Y1968D01*
X2436Y1968D01*
X2436Y1966D01*
X2438Y1966D01*
X2438Y1964D01*
X2440Y1964D01*
X2440Y1962D01*
X2442Y1962D01*
X2442Y1960D01*
X2444Y1960D01*
X2444Y1958D01*
X2446Y1958D01*
X2446Y1954D01*
X2448Y1954D01*
X2448Y1952D01*
X2450Y1952D01*
X2450Y1948D01*
X2452Y1948D01*
X2452Y1944D01*
X2454Y1944D01*
X2454Y1938D01*
X2456Y1938D01*
X2456Y1928D01*
X2458Y1928D01*
X2458Y1916D01*
X2456Y1916D01*
X2456Y1906D01*
X2454Y1906D01*
X2454Y1900D01*
X2452Y1900D01*
X2452Y1896D01*
X2450Y1896D01*
X2450Y1892D01*
X2448Y1892D01*
X2448Y1890D01*
X2446Y1890D01*
X2446Y1886D01*
X2444Y1886D01*
X2444Y1884D01*
X2442Y1884D01*
X2442Y1882D01*
X2440Y1882D01*
X2440Y1880D01*
X2438Y1880D01*
X2438Y1878D01*
X2436Y1878D01*
X2436Y1876D01*
X2432Y1876D01*
X2432Y1874D01*
X2430Y1874D01*
X2430Y1872D01*
X2426Y1872D01*
X2426Y1870D01*
X2422Y1870D01*
X2422Y1868D01*
X2416Y1868D01*
X2416Y1866D01*
X2406Y1866D01*
X2406Y1864D01*
X2566Y1864D01*
X2566Y2428D01*
X2568Y2428D01*
X2568Y2434D01*
X2570Y2434D01*
X2570Y2438D01*
X2572Y2438D01*
X2572Y2440D01*
X2574Y2440D01*
X2574Y2442D01*
X2576Y2442D01*
X2576Y2444D01*
X2578Y2444D01*
X2578Y2446D01*
X2580Y2446D01*
X2580Y2448D01*
X2582Y2448D01*
X2582Y2450D01*
X2584Y2450D01*
X2584Y2452D01*
X2586Y2452D01*
X2586Y2454D01*
X2588Y2454D01*
X2588Y2456D01*
X2590Y2456D01*
X2590Y2458D01*
X2592Y2458D01*
X2592Y2460D01*
X2594Y2460D01*
X2594Y2462D01*
X2596Y2462D01*
X2596Y2464D01*
X2598Y2464D01*
X2598Y2466D01*
X2600Y2466D01*
X2600Y2468D01*
X2602Y2468D01*
X2602Y2470D01*
X2604Y2470D01*
X2604Y2472D01*
X2606Y2472D01*
X2606Y2474D01*
X2608Y2474D01*
X2608Y2476D01*
X2610Y2476D01*
X2610Y2478D01*
X2612Y2478D01*
X2612Y2480D01*
X2614Y2480D01*
X2614Y2482D01*
X2616Y2482D01*
X2616Y2484D01*
X2618Y2484D01*
X2618Y2486D01*
X2620Y2486D01*
X2620Y2488D01*
X2622Y2488D01*
X2622Y2490D01*
X2624Y2490D01*
X2624Y2492D01*
X2626Y2492D01*
X2626Y2494D01*
X2628Y2494D01*
X2628Y2496D01*
X2630Y2496D01*
X2630Y2498D01*
X2632Y2498D01*
X2632Y2500D01*
X2634Y2500D01*
X2634Y2502D01*
X2636Y2502D01*
X2636Y2504D01*
X2638Y2504D01*
X2638Y2506D01*
X2640Y2506D01*
X2640Y2508D01*
X2642Y2508D01*
X2642Y2536D01*
X2644Y2536D01*
X2644Y2544D01*
X2646Y2544D01*
X2646Y2548D01*
X2648Y2548D01*
X2648Y2552D01*
X2650Y2552D01*
X2650Y2554D01*
X2652Y2554D01*
X2652Y2558D01*
X2654Y2558D01*
X2654Y2560D01*
X2656Y2560D01*
X2656Y2562D01*
X2658Y2562D01*
X2658Y2564D01*
X2660Y2564D01*
X2660Y2566D01*
X2662Y2566D01*
X2662Y2568D01*
X2664Y2568D01*
X2664Y2570D01*
X2668Y2570D01*
X2668Y2572D01*
X2670Y2572D01*
X2670Y2574D01*
X2674Y2574D01*
X2674Y2576D01*
X2678Y2576D01*
X2678Y2578D01*
X2686Y2578D01*
X2686Y2580D01*
X2712Y2580D01*
X2712Y2582D01*
X2714Y2582D01*
X2714Y2584D01*
X2716Y2584D01*
X2716Y2586D01*
X2718Y2586D01*
X2718Y2588D01*
X2720Y2588D01*
X2720Y2590D01*
X2722Y2590D01*
X2722Y2592D01*
X2724Y2592D01*
X2724Y2594D01*
X2726Y2594D01*
X2726Y2596D01*
X2728Y2596D01*
X2728Y2598D01*
X2730Y2598D01*
X2730Y2600D01*
X2732Y2600D01*
X2732Y2602D01*
X2734Y2602D01*
X2734Y2604D01*
X2736Y2604D01*
X2736Y2606D01*
X2738Y2606D01*
X2738Y2608D01*
X2740Y2608D01*
X2740Y2610D01*
X2742Y2610D01*
X2742Y2612D01*
X2744Y2612D01*
X2744Y2614D01*
X2746Y2614D01*
X2746Y2616D01*
X2748Y2616D01*
X2748Y2618D01*
X2750Y2618D01*
X2750Y2620D01*
X2752Y2620D01*
X2752Y2622D01*
X2754Y2622D01*
X2754Y2624D01*
X2756Y2624D01*
X2756Y2626D01*
X2758Y2626D01*
X2758Y2628D01*
X2760Y2628D01*
X2760Y2630D01*
X2762Y2630D01*
X2762Y2632D01*
X2764Y2632D01*
X2764Y2634D01*
X2766Y2634D01*
X2766Y2636D01*
X2768Y2636D01*
X2768Y2638D01*
X2770Y2638D01*
X2770Y2640D01*
X2772Y2640D01*
X2772Y2642D01*
X2774Y2642D01*
X2774Y2644D01*
X2776Y2644D01*
X2776Y2646D01*
X2778Y2646D01*
X2778Y2648D01*
X2780Y2648D01*
X2780Y2650D01*
X2784Y2650D01*
X2784Y2652D01*
X2788Y2652D01*
X2788Y2654D01*
X3152Y2654D01*
X3152Y2658D01*
X3154Y2658D01*
X3154Y2660D01*
X3156Y2660D01*
X3156Y2662D01*
X3158Y2662D01*
X3158Y2664D01*
X3160Y2664D01*
X3160Y2666D01*
X3162Y2666D01*
X3162Y2668D01*
X3164Y2668D01*
X3164Y2670D01*
X3168Y2670D01*
X3168Y2672D01*
X3170Y2672D01*
X3170Y2674D01*
X3174Y2674D01*
X3174Y2676D01*
X3178Y2676D01*
X3178Y2678D01*
X3186Y2678D01*
X3186Y2680D01*
X414Y2680D01*
G37*
D02*
G36*
X3214Y2680D02*
X3214Y2678D01*
X3222Y2678D01*
X3222Y2676D01*
X3226Y2676D01*
X3226Y2674D01*
X3230Y2674D01*
X3230Y2672D01*
X3232Y2672D01*
X3232Y2670D01*
X3236Y2670D01*
X3236Y2668D01*
X3238Y2668D01*
X3238Y2666D01*
X3240Y2666D01*
X3240Y2664D01*
X3260Y2664D01*
X3260Y2666D01*
X3262Y2666D01*
X3262Y2668D01*
X3264Y2668D01*
X3264Y2670D01*
X3268Y2670D01*
X3268Y2672D01*
X3270Y2672D01*
X3270Y2674D01*
X3274Y2674D01*
X3274Y2676D01*
X3278Y2676D01*
X3278Y2678D01*
X3286Y2678D01*
X3286Y2680D01*
X3214Y2680D01*
G37*
D02*
G36*
X2810Y2590D02*
X2810Y2588D01*
X2808Y2588D01*
X2808Y2586D01*
X2806Y2586D01*
X2806Y2584D01*
X2804Y2584D01*
X2804Y2582D01*
X2802Y2582D01*
X2802Y2580D01*
X2800Y2580D01*
X2800Y2578D01*
X2798Y2578D01*
X2798Y2576D01*
X2796Y2576D01*
X2796Y2574D01*
X2794Y2574D01*
X2794Y2572D01*
X2792Y2572D01*
X2792Y2570D01*
X2790Y2570D01*
X2790Y2568D01*
X2788Y2568D01*
X2788Y2566D01*
X2786Y2566D01*
X2786Y2564D01*
X2784Y2564D01*
X2784Y2562D01*
X2782Y2562D01*
X2782Y2560D01*
X2780Y2560D01*
X2780Y2556D01*
X2778Y2556D01*
X2778Y2554D01*
X2776Y2554D01*
X2776Y2552D01*
X2774Y2552D01*
X2774Y2550D01*
X2772Y2550D01*
X2772Y2548D01*
X2770Y2548D01*
X2770Y2546D01*
X2768Y2546D01*
X2768Y2544D01*
X2766Y2544D01*
X2766Y2542D01*
X2764Y2542D01*
X2764Y2540D01*
X2762Y2540D01*
X2762Y2538D01*
X2760Y2538D01*
X2760Y2536D01*
X2758Y2536D01*
X2758Y2508D01*
X2756Y2508D01*
X2756Y2500D01*
X2754Y2500D01*
X2754Y2496D01*
X2752Y2496D01*
X2752Y2492D01*
X2750Y2492D01*
X2750Y2490D01*
X2748Y2490D01*
X2748Y2486D01*
X2746Y2486D01*
X2746Y2484D01*
X2744Y2484D01*
X2744Y2482D01*
X2742Y2482D01*
X2742Y2480D01*
X2740Y2480D01*
X2740Y2478D01*
X2738Y2478D01*
X2738Y2476D01*
X2736Y2476D01*
X2736Y2474D01*
X2732Y2474D01*
X2732Y2472D01*
X2730Y2472D01*
X2730Y2470D01*
X2726Y2470D01*
X2726Y2468D01*
X2722Y2468D01*
X2722Y2466D01*
X2714Y2466D01*
X2714Y2464D01*
X2686Y2464D01*
X2686Y2462D01*
X2684Y2462D01*
X2684Y2460D01*
X2682Y2460D01*
X2682Y2458D01*
X2680Y2458D01*
X2680Y2456D01*
X2678Y2456D01*
X2678Y2454D01*
X2676Y2454D01*
X2676Y2452D01*
X2674Y2452D01*
X2674Y2450D01*
X2672Y2450D01*
X2672Y2448D01*
X2670Y2448D01*
X2670Y2446D01*
X2668Y2446D01*
X2668Y2444D01*
X2666Y2444D01*
X2666Y2442D01*
X2664Y2442D01*
X2664Y2440D01*
X2662Y2440D01*
X2662Y2438D01*
X2660Y2438D01*
X2660Y2436D01*
X2658Y2436D01*
X2658Y2434D01*
X2656Y2434D01*
X2656Y2432D01*
X2654Y2432D01*
X2654Y2430D01*
X2652Y2430D01*
X2652Y2428D01*
X2650Y2428D01*
X2650Y2426D01*
X2648Y2426D01*
X2648Y2424D01*
X2646Y2424D01*
X2646Y2422D01*
X2644Y2422D01*
X2644Y2420D01*
X2642Y2420D01*
X2642Y2418D01*
X2640Y2418D01*
X2640Y2416D01*
X2638Y2416D01*
X2638Y2414D01*
X2636Y2414D01*
X2636Y2412D01*
X2634Y2412D01*
X2634Y2410D01*
X2632Y2410D01*
X2632Y2408D01*
X2630Y2408D01*
X2630Y1980D01*
X2906Y1980D01*
X2906Y1978D01*
X2916Y1978D01*
X2916Y1976D01*
X2922Y1976D01*
X2922Y1974D01*
X2926Y1974D01*
X2926Y1972D01*
X2930Y1972D01*
X2930Y1970D01*
X2932Y1970D01*
X2932Y1968D01*
X2936Y1968D01*
X2936Y1966D01*
X2938Y1966D01*
X2938Y1964D01*
X2940Y1964D01*
X2940Y1962D01*
X2942Y1962D01*
X2942Y1960D01*
X2944Y1960D01*
X2944Y1958D01*
X2946Y1958D01*
X2946Y1954D01*
X2966Y1954D01*
X2966Y2428D01*
X2968Y2428D01*
X2968Y2434D01*
X2970Y2434D01*
X2970Y2438D01*
X2972Y2438D01*
X2972Y2440D01*
X2974Y2440D01*
X2974Y2442D01*
X2976Y2442D01*
X2976Y2444D01*
X2978Y2444D01*
X2978Y2446D01*
X2980Y2446D01*
X2980Y2448D01*
X2982Y2448D01*
X2982Y2450D01*
X2984Y2450D01*
X2984Y2452D01*
X2986Y2452D01*
X2986Y2454D01*
X2988Y2454D01*
X2988Y2456D01*
X2990Y2456D01*
X2990Y2458D01*
X2992Y2458D01*
X2992Y2460D01*
X2994Y2460D01*
X2994Y2462D01*
X2996Y2462D01*
X2996Y2464D01*
X2998Y2464D01*
X2998Y2466D01*
X3000Y2466D01*
X3000Y2468D01*
X3002Y2468D01*
X3002Y2470D01*
X3004Y2470D01*
X3004Y2472D01*
X3006Y2472D01*
X3006Y2474D01*
X3008Y2474D01*
X3008Y2476D01*
X3010Y2476D01*
X3010Y2478D01*
X3012Y2478D01*
X3012Y2480D01*
X3014Y2480D01*
X3014Y2482D01*
X3016Y2482D01*
X3016Y2484D01*
X3018Y2484D01*
X3018Y2486D01*
X3020Y2486D01*
X3020Y2488D01*
X3022Y2488D01*
X3022Y2490D01*
X3024Y2490D01*
X3024Y2492D01*
X3026Y2492D01*
X3026Y2494D01*
X3028Y2494D01*
X3028Y2496D01*
X3030Y2496D01*
X3030Y2498D01*
X3032Y2498D01*
X3032Y2500D01*
X3034Y2500D01*
X3034Y2502D01*
X3036Y2502D01*
X3036Y2504D01*
X3038Y2504D01*
X3038Y2506D01*
X3040Y2506D01*
X3040Y2508D01*
X3042Y2508D01*
X3042Y2510D01*
X3044Y2510D01*
X3044Y2512D01*
X3046Y2512D01*
X3046Y2514D01*
X3048Y2514D01*
X3048Y2516D01*
X3050Y2516D01*
X3050Y2518D01*
X3052Y2518D01*
X3052Y2520D01*
X3054Y2520D01*
X3054Y2522D01*
X3056Y2522D01*
X3056Y2524D01*
X3058Y2524D01*
X3058Y2526D01*
X3060Y2526D01*
X3060Y2528D01*
X3062Y2528D01*
X3062Y2530D01*
X3064Y2530D01*
X3064Y2532D01*
X3066Y2532D01*
X3066Y2534D01*
X3068Y2534D01*
X3068Y2536D01*
X3070Y2536D01*
X3070Y2538D01*
X3072Y2538D01*
X3072Y2540D01*
X3074Y2540D01*
X3074Y2542D01*
X3076Y2542D01*
X3076Y2544D01*
X3078Y2544D01*
X3078Y2546D01*
X3080Y2546D01*
X3080Y2548D01*
X3082Y2548D01*
X3082Y2550D01*
X3084Y2550D01*
X3084Y2552D01*
X3086Y2552D01*
X3086Y2554D01*
X3088Y2554D01*
X3088Y2556D01*
X3090Y2556D01*
X3090Y2558D01*
X3092Y2558D01*
X3092Y2560D01*
X3094Y2560D01*
X3094Y2562D01*
X3096Y2562D01*
X3096Y2564D01*
X3098Y2564D01*
X3098Y2566D01*
X3100Y2566D01*
X3100Y2568D01*
X3102Y2568D01*
X3102Y2570D01*
X3104Y2570D01*
X3104Y2590D01*
X2810Y2590D01*
G37*
D02*
G36*
X340Y2380D02*
X340Y2378D01*
X338Y2378D01*
X338Y2376D01*
X336Y2376D01*
X336Y2374D01*
X332Y2374D01*
X332Y2372D01*
X330Y2372D01*
X330Y2370D01*
X326Y2370D01*
X326Y2368D01*
X322Y2368D01*
X322Y2366D01*
X314Y2366D01*
X314Y2364D01*
X368Y2364D01*
X368Y2374D01*
X364Y2374D01*
X364Y2376D01*
X362Y2376D01*
X362Y2378D01*
X360Y2378D01*
X360Y2380D01*
X340Y2380D01*
G37*
D02*
G36*
X3240Y2380D02*
X3240Y2378D01*
X3238Y2378D01*
X3238Y2376D01*
X3236Y2376D01*
X3236Y2374D01*
X3232Y2374D01*
X3232Y2364D01*
X3286Y2364D01*
X3286Y2366D01*
X3278Y2366D01*
X3278Y2368D01*
X3274Y2368D01*
X3274Y2370D01*
X3270Y2370D01*
X3270Y2372D01*
X3268Y2372D01*
X3268Y2374D01*
X3264Y2374D01*
X3264Y2376D01*
X3262Y2376D01*
X3262Y2378D01*
X3260Y2378D01*
X3260Y2380D01*
X3240Y2380D01*
G37*
D02*
G36*
X40Y2364D02*
X40Y2362D01*
X368Y2362D01*
X368Y2364D01*
X40Y2364D01*
G37*
D02*
G36*
X40Y2364D02*
X40Y2362D01*
X368Y2362D01*
X368Y2364D01*
X40Y2364D01*
G37*
D02*
G36*
X3232Y2364D02*
X3232Y2362D01*
X3582Y2362D01*
X3582Y2364D01*
X3232Y2364D01*
G37*
D02*
G36*
X3232Y2364D02*
X3232Y2362D01*
X3582Y2362D01*
X3582Y2364D01*
X3232Y2364D01*
G37*
D02*
G36*
X40Y2362D02*
X40Y1280D01*
X314Y1280D01*
X314Y1278D01*
X322Y1278D01*
X322Y1276D01*
X326Y1276D01*
X326Y1274D01*
X330Y1274D01*
X330Y1272D01*
X332Y1272D01*
X332Y1270D01*
X336Y1270D01*
X336Y1268D01*
X338Y1268D01*
X338Y1266D01*
X340Y1266D01*
X340Y1264D01*
X360Y1264D01*
X360Y1266D01*
X362Y1266D01*
X362Y1268D01*
X364Y1268D01*
X364Y1270D01*
X368Y1270D01*
X368Y1902D01*
X366Y1902D01*
X366Y1904D01*
X364Y1904D01*
X364Y1908D01*
X362Y1908D01*
X362Y1916D01*
X360Y1916D01*
X360Y1932D01*
X362Y1932D01*
X362Y1940D01*
X364Y1940D01*
X364Y1942D01*
X366Y1942D01*
X366Y1946D01*
X368Y1946D01*
X368Y2362D01*
X40Y2362D01*
G37*
D02*
G36*
X3232Y2362D02*
X3232Y1280D01*
X3314Y1280D01*
X3314Y1278D01*
X3322Y1278D01*
X3322Y1276D01*
X3326Y1276D01*
X3326Y1274D01*
X3330Y1274D01*
X3330Y1272D01*
X3332Y1272D01*
X3332Y1270D01*
X3336Y1270D01*
X3336Y1268D01*
X3338Y1268D01*
X3338Y1266D01*
X3340Y1266D01*
X3340Y1264D01*
X3342Y1264D01*
X3342Y1262D01*
X3344Y1262D01*
X3344Y1260D01*
X3346Y1260D01*
X3346Y1258D01*
X3348Y1258D01*
X3348Y1254D01*
X3350Y1254D01*
X3350Y1252D01*
X3352Y1252D01*
X3352Y1248D01*
X3354Y1248D01*
X3354Y1244D01*
X3356Y1244D01*
X3356Y1236D01*
X3358Y1236D01*
X3358Y1208D01*
X3356Y1208D01*
X3356Y1200D01*
X3354Y1200D01*
X3354Y1196D01*
X3352Y1196D01*
X3352Y1192D01*
X3350Y1192D01*
X3350Y1190D01*
X3348Y1190D01*
X3348Y1186D01*
X3346Y1186D01*
X3346Y1184D01*
X3344Y1184D01*
X3344Y1182D01*
X3342Y1182D01*
X3342Y1162D01*
X3344Y1162D01*
X3344Y1160D01*
X3346Y1160D01*
X3346Y1158D01*
X3348Y1158D01*
X3348Y1154D01*
X3350Y1154D01*
X3350Y1152D01*
X3352Y1152D01*
X3352Y1148D01*
X3354Y1148D01*
X3354Y1144D01*
X3356Y1144D01*
X3356Y1136D01*
X3358Y1136D01*
X3358Y1108D01*
X3356Y1108D01*
X3356Y1100D01*
X3354Y1100D01*
X3354Y1096D01*
X3352Y1096D01*
X3352Y1092D01*
X3350Y1092D01*
X3350Y1090D01*
X3348Y1090D01*
X3348Y1086D01*
X3346Y1086D01*
X3346Y1084D01*
X3344Y1084D01*
X3344Y1082D01*
X3342Y1082D01*
X3342Y1062D01*
X3344Y1062D01*
X3344Y1060D01*
X3346Y1060D01*
X3346Y1058D01*
X3348Y1058D01*
X3348Y1054D01*
X3350Y1054D01*
X3350Y1052D01*
X3352Y1052D01*
X3352Y1048D01*
X3354Y1048D01*
X3354Y1044D01*
X3356Y1044D01*
X3356Y1036D01*
X3358Y1036D01*
X3358Y1008D01*
X3356Y1008D01*
X3356Y1000D01*
X3354Y1000D01*
X3354Y996D01*
X3352Y996D01*
X3352Y992D01*
X3350Y992D01*
X3350Y990D01*
X3348Y990D01*
X3348Y986D01*
X3346Y986D01*
X3346Y984D01*
X3344Y984D01*
X3344Y982D01*
X3342Y982D01*
X3342Y980D01*
X3340Y980D01*
X3340Y978D01*
X3338Y978D01*
X3338Y976D01*
X3336Y976D01*
X3336Y974D01*
X3332Y974D01*
X3332Y972D01*
X3330Y972D01*
X3330Y970D01*
X3326Y970D01*
X3326Y968D01*
X3322Y968D01*
X3322Y966D01*
X3314Y966D01*
X3314Y964D01*
X3582Y964D01*
X3582Y2362D01*
X3232Y2362D01*
G37*
D02*
G36*
X632Y1980D02*
X632Y1864D01*
X794Y1864D01*
X794Y1866D01*
X784Y1866D01*
X784Y1868D01*
X778Y1868D01*
X778Y1870D01*
X774Y1870D01*
X774Y1872D01*
X770Y1872D01*
X770Y1874D01*
X768Y1874D01*
X768Y1876D01*
X764Y1876D01*
X764Y1878D01*
X762Y1878D01*
X762Y1880D01*
X760Y1880D01*
X760Y1882D01*
X758Y1882D01*
X758Y1884D01*
X756Y1884D01*
X756Y1886D01*
X754Y1886D01*
X754Y1890D01*
X752Y1890D01*
X752Y1892D01*
X750Y1892D01*
X750Y1896D01*
X748Y1896D01*
X748Y1900D01*
X746Y1900D01*
X746Y1906D01*
X744Y1906D01*
X744Y1916D01*
X742Y1916D01*
X742Y1928D01*
X744Y1928D01*
X744Y1938D01*
X746Y1938D01*
X746Y1944D01*
X748Y1944D01*
X748Y1948D01*
X750Y1948D01*
X750Y1952D01*
X752Y1952D01*
X752Y1954D01*
X754Y1954D01*
X754Y1958D01*
X756Y1958D01*
X756Y1960D01*
X758Y1960D01*
X758Y1962D01*
X760Y1962D01*
X760Y1964D01*
X762Y1964D01*
X762Y1966D01*
X764Y1966D01*
X764Y1968D01*
X768Y1968D01*
X768Y1970D01*
X770Y1970D01*
X770Y1972D01*
X774Y1972D01*
X774Y1974D01*
X778Y1974D01*
X778Y1976D01*
X784Y1976D01*
X784Y1978D01*
X794Y1978D01*
X794Y1980D01*
X632Y1980D01*
G37*
D02*
G36*
X806Y1980D02*
X806Y1978D01*
X816Y1978D01*
X816Y1976D01*
X822Y1976D01*
X822Y1974D01*
X826Y1974D01*
X826Y1972D01*
X830Y1972D01*
X830Y1970D01*
X832Y1970D01*
X832Y1968D01*
X836Y1968D01*
X836Y1966D01*
X838Y1966D01*
X838Y1964D01*
X840Y1964D01*
X840Y1962D01*
X842Y1962D01*
X842Y1960D01*
X844Y1960D01*
X844Y1958D01*
X846Y1958D01*
X846Y1954D01*
X848Y1954D01*
X848Y1952D01*
X850Y1952D01*
X850Y1948D01*
X852Y1948D01*
X852Y1944D01*
X854Y1944D01*
X854Y1938D01*
X856Y1938D01*
X856Y1928D01*
X858Y1928D01*
X858Y1916D01*
X856Y1916D01*
X856Y1906D01*
X854Y1906D01*
X854Y1900D01*
X852Y1900D01*
X852Y1896D01*
X850Y1896D01*
X850Y1892D01*
X848Y1892D01*
X848Y1890D01*
X846Y1890D01*
X846Y1886D01*
X844Y1886D01*
X844Y1884D01*
X842Y1884D01*
X842Y1882D01*
X840Y1882D01*
X840Y1880D01*
X838Y1880D01*
X838Y1878D01*
X836Y1878D01*
X836Y1876D01*
X832Y1876D01*
X832Y1874D01*
X830Y1874D01*
X830Y1872D01*
X826Y1872D01*
X826Y1870D01*
X822Y1870D01*
X822Y1868D01*
X816Y1868D01*
X816Y1866D01*
X806Y1866D01*
X806Y1864D01*
X994Y1864D01*
X994Y1866D01*
X984Y1866D01*
X984Y1868D01*
X978Y1868D01*
X978Y1870D01*
X974Y1870D01*
X974Y1872D01*
X970Y1872D01*
X970Y1874D01*
X968Y1874D01*
X968Y1876D01*
X964Y1876D01*
X964Y1878D01*
X962Y1878D01*
X962Y1880D01*
X960Y1880D01*
X960Y1882D01*
X958Y1882D01*
X958Y1884D01*
X956Y1884D01*
X956Y1886D01*
X954Y1886D01*
X954Y1890D01*
X952Y1890D01*
X952Y1892D01*
X950Y1892D01*
X950Y1896D01*
X948Y1896D01*
X948Y1900D01*
X946Y1900D01*
X946Y1906D01*
X944Y1906D01*
X944Y1916D01*
X942Y1916D01*
X942Y1928D01*
X944Y1928D01*
X944Y1938D01*
X946Y1938D01*
X946Y1944D01*
X948Y1944D01*
X948Y1948D01*
X950Y1948D01*
X950Y1952D01*
X952Y1952D01*
X952Y1954D01*
X954Y1954D01*
X954Y1958D01*
X956Y1958D01*
X956Y1960D01*
X958Y1960D01*
X958Y1962D01*
X960Y1962D01*
X960Y1964D01*
X962Y1964D01*
X962Y1966D01*
X964Y1966D01*
X964Y1968D01*
X968Y1968D01*
X968Y1970D01*
X970Y1970D01*
X970Y1972D01*
X974Y1972D01*
X974Y1974D01*
X978Y1974D01*
X978Y1976D01*
X984Y1976D01*
X984Y1978D01*
X994Y1978D01*
X994Y1980D01*
X806Y1980D01*
G37*
D02*
G36*
X1006Y1980D02*
X1006Y1978D01*
X1016Y1978D01*
X1016Y1976D01*
X1022Y1976D01*
X1022Y1974D01*
X1026Y1974D01*
X1026Y1972D01*
X1030Y1972D01*
X1030Y1970D01*
X1032Y1970D01*
X1032Y1968D01*
X1036Y1968D01*
X1036Y1966D01*
X1038Y1966D01*
X1038Y1964D01*
X1040Y1964D01*
X1040Y1962D01*
X1042Y1962D01*
X1042Y1960D01*
X1044Y1960D01*
X1044Y1958D01*
X1046Y1958D01*
X1046Y1954D01*
X1454Y1954D01*
X1454Y1958D01*
X1456Y1958D01*
X1456Y1960D01*
X1458Y1960D01*
X1458Y1962D01*
X1460Y1962D01*
X1460Y1964D01*
X1462Y1964D01*
X1462Y1966D01*
X1464Y1966D01*
X1464Y1968D01*
X1468Y1968D01*
X1468Y1970D01*
X1470Y1970D01*
X1470Y1972D01*
X1474Y1972D01*
X1474Y1974D01*
X1478Y1974D01*
X1478Y1976D01*
X1484Y1976D01*
X1484Y1978D01*
X1494Y1978D01*
X1494Y1980D01*
X1006Y1980D01*
G37*
D02*
G36*
X1506Y1980D02*
X1506Y1978D01*
X1516Y1978D01*
X1516Y1976D01*
X1522Y1976D01*
X1522Y1974D01*
X1526Y1974D01*
X1526Y1972D01*
X1530Y1972D01*
X1530Y1970D01*
X1532Y1970D01*
X1532Y1968D01*
X1536Y1968D01*
X1536Y1966D01*
X1538Y1966D01*
X1538Y1964D01*
X1540Y1964D01*
X1540Y1962D01*
X1542Y1962D01*
X1542Y1960D01*
X1544Y1960D01*
X1544Y1958D01*
X1546Y1958D01*
X1546Y1954D01*
X1548Y1954D01*
X1548Y1952D01*
X1550Y1952D01*
X1550Y1948D01*
X1552Y1948D01*
X1552Y1944D01*
X1554Y1944D01*
X1554Y1938D01*
X1556Y1938D01*
X1556Y1928D01*
X1558Y1928D01*
X1558Y1916D01*
X1556Y1916D01*
X1556Y1906D01*
X1554Y1906D01*
X1554Y1900D01*
X1552Y1900D01*
X1552Y1896D01*
X1550Y1896D01*
X1550Y1892D01*
X1548Y1892D01*
X1548Y1890D01*
X1546Y1890D01*
X1546Y1886D01*
X1544Y1886D01*
X1544Y1884D01*
X1542Y1884D01*
X1542Y1882D01*
X1540Y1882D01*
X1540Y1880D01*
X1538Y1880D01*
X1538Y1878D01*
X1536Y1878D01*
X1536Y1876D01*
X1532Y1876D01*
X1532Y1874D01*
X1530Y1874D01*
X1530Y1872D01*
X1526Y1872D01*
X1526Y1870D01*
X1522Y1870D01*
X1522Y1868D01*
X1516Y1868D01*
X1516Y1866D01*
X1506Y1866D01*
X1506Y1864D01*
X1694Y1864D01*
X1694Y1866D01*
X1684Y1866D01*
X1684Y1868D01*
X1678Y1868D01*
X1678Y1870D01*
X1674Y1870D01*
X1674Y1872D01*
X1670Y1872D01*
X1670Y1874D01*
X1668Y1874D01*
X1668Y1876D01*
X1664Y1876D01*
X1664Y1878D01*
X1662Y1878D01*
X1662Y1880D01*
X1660Y1880D01*
X1660Y1882D01*
X1658Y1882D01*
X1658Y1884D01*
X1656Y1884D01*
X1656Y1886D01*
X1654Y1886D01*
X1654Y1890D01*
X1652Y1890D01*
X1652Y1892D01*
X1650Y1892D01*
X1650Y1896D01*
X1648Y1896D01*
X1648Y1900D01*
X1646Y1900D01*
X1646Y1906D01*
X1644Y1906D01*
X1644Y1916D01*
X1642Y1916D01*
X1642Y1928D01*
X1644Y1928D01*
X1644Y1938D01*
X1646Y1938D01*
X1646Y1944D01*
X1648Y1944D01*
X1648Y1948D01*
X1650Y1948D01*
X1650Y1952D01*
X1652Y1952D01*
X1652Y1954D01*
X1654Y1954D01*
X1654Y1958D01*
X1656Y1958D01*
X1656Y1960D01*
X1658Y1960D01*
X1658Y1962D01*
X1660Y1962D01*
X1660Y1964D01*
X1662Y1964D01*
X1662Y1966D01*
X1664Y1966D01*
X1664Y1968D01*
X1668Y1968D01*
X1668Y1970D01*
X1670Y1970D01*
X1670Y1972D01*
X1674Y1972D01*
X1674Y1974D01*
X1678Y1974D01*
X1678Y1976D01*
X1684Y1976D01*
X1684Y1978D01*
X1694Y1978D01*
X1694Y1980D01*
X1506Y1980D01*
G37*
D02*
G36*
X1706Y1980D02*
X1706Y1978D01*
X1716Y1978D01*
X1716Y1976D01*
X1722Y1976D01*
X1722Y1974D01*
X1726Y1974D01*
X1726Y1972D01*
X1730Y1972D01*
X1730Y1970D01*
X1732Y1970D01*
X1732Y1968D01*
X1736Y1968D01*
X1736Y1966D01*
X1738Y1966D01*
X1738Y1964D01*
X1740Y1964D01*
X1740Y1962D01*
X1742Y1962D01*
X1742Y1960D01*
X1744Y1960D01*
X1744Y1958D01*
X1746Y1958D01*
X1746Y1954D01*
X2154Y1954D01*
X2154Y1958D01*
X2156Y1958D01*
X2156Y1960D01*
X2158Y1960D01*
X2158Y1962D01*
X2160Y1962D01*
X2160Y1964D01*
X2162Y1964D01*
X2162Y1966D01*
X2164Y1966D01*
X2164Y1968D01*
X2168Y1968D01*
X2168Y1970D01*
X2170Y1970D01*
X2170Y1972D01*
X2174Y1972D01*
X2174Y1974D01*
X2178Y1974D01*
X2178Y1976D01*
X2184Y1976D01*
X2184Y1978D01*
X2194Y1978D01*
X2194Y1980D01*
X1706Y1980D01*
G37*
D02*
G36*
X2206Y1980D02*
X2206Y1978D01*
X2216Y1978D01*
X2216Y1976D01*
X2222Y1976D01*
X2222Y1974D01*
X2226Y1974D01*
X2226Y1972D01*
X2230Y1972D01*
X2230Y1970D01*
X2232Y1970D01*
X2232Y1968D01*
X2236Y1968D01*
X2236Y1966D01*
X2238Y1966D01*
X2238Y1964D01*
X2240Y1964D01*
X2240Y1962D01*
X2242Y1962D01*
X2242Y1960D01*
X2244Y1960D01*
X2244Y1958D01*
X2246Y1958D01*
X2246Y1954D01*
X2248Y1954D01*
X2248Y1952D01*
X2250Y1952D01*
X2250Y1948D01*
X2252Y1948D01*
X2252Y1944D01*
X2254Y1944D01*
X2254Y1938D01*
X2256Y1938D01*
X2256Y1928D01*
X2258Y1928D01*
X2258Y1916D01*
X2256Y1916D01*
X2256Y1906D01*
X2254Y1906D01*
X2254Y1900D01*
X2252Y1900D01*
X2252Y1896D01*
X2250Y1896D01*
X2250Y1892D01*
X2248Y1892D01*
X2248Y1890D01*
X2246Y1890D01*
X2246Y1886D01*
X2244Y1886D01*
X2244Y1884D01*
X2242Y1884D01*
X2242Y1882D01*
X2240Y1882D01*
X2240Y1880D01*
X2238Y1880D01*
X2238Y1878D01*
X2236Y1878D01*
X2236Y1876D01*
X2232Y1876D01*
X2232Y1874D01*
X2230Y1874D01*
X2230Y1872D01*
X2226Y1872D01*
X2226Y1870D01*
X2222Y1870D01*
X2222Y1868D01*
X2216Y1868D01*
X2216Y1866D01*
X2206Y1866D01*
X2206Y1864D01*
X2394Y1864D01*
X2394Y1866D01*
X2384Y1866D01*
X2384Y1868D01*
X2378Y1868D01*
X2378Y1870D01*
X2374Y1870D01*
X2374Y1872D01*
X2370Y1872D01*
X2370Y1874D01*
X2368Y1874D01*
X2368Y1876D01*
X2364Y1876D01*
X2364Y1878D01*
X2362Y1878D01*
X2362Y1880D01*
X2360Y1880D01*
X2360Y1882D01*
X2358Y1882D01*
X2358Y1884D01*
X2356Y1884D01*
X2356Y1886D01*
X2354Y1886D01*
X2354Y1890D01*
X2352Y1890D01*
X2352Y1892D01*
X2350Y1892D01*
X2350Y1896D01*
X2348Y1896D01*
X2348Y1900D01*
X2346Y1900D01*
X2346Y1906D01*
X2344Y1906D01*
X2344Y1916D01*
X2342Y1916D01*
X2342Y1928D01*
X2344Y1928D01*
X2344Y1938D01*
X2346Y1938D01*
X2346Y1944D01*
X2348Y1944D01*
X2348Y1948D01*
X2350Y1948D01*
X2350Y1952D01*
X2352Y1952D01*
X2352Y1954D01*
X2354Y1954D01*
X2354Y1958D01*
X2356Y1958D01*
X2356Y1960D01*
X2358Y1960D01*
X2358Y1962D01*
X2360Y1962D01*
X2360Y1964D01*
X2362Y1964D01*
X2362Y1966D01*
X2364Y1966D01*
X2364Y1968D01*
X2368Y1968D01*
X2368Y1970D01*
X2370Y1970D01*
X2370Y1972D01*
X2374Y1972D01*
X2374Y1974D01*
X2378Y1974D01*
X2378Y1976D01*
X2384Y1976D01*
X2384Y1978D01*
X2394Y1978D01*
X2394Y1980D01*
X2206Y1980D01*
G37*
D02*
G36*
X2630Y1980D02*
X2630Y1864D01*
X2894Y1864D01*
X2894Y1866D01*
X2884Y1866D01*
X2884Y1868D01*
X2878Y1868D01*
X2878Y1870D01*
X2874Y1870D01*
X2874Y1872D01*
X2870Y1872D01*
X2870Y1874D01*
X2868Y1874D01*
X2868Y1876D01*
X2864Y1876D01*
X2864Y1878D01*
X2862Y1878D01*
X2862Y1880D01*
X2860Y1880D01*
X2860Y1882D01*
X2858Y1882D01*
X2858Y1884D01*
X2856Y1884D01*
X2856Y1886D01*
X2854Y1886D01*
X2854Y1890D01*
X2852Y1890D01*
X2852Y1892D01*
X2850Y1892D01*
X2850Y1896D01*
X2848Y1896D01*
X2848Y1900D01*
X2846Y1900D01*
X2846Y1906D01*
X2844Y1906D01*
X2844Y1916D01*
X2842Y1916D01*
X2842Y1928D01*
X2844Y1928D01*
X2844Y1938D01*
X2846Y1938D01*
X2846Y1944D01*
X2848Y1944D01*
X2848Y1948D01*
X2850Y1948D01*
X2850Y1952D01*
X2852Y1952D01*
X2852Y1954D01*
X2854Y1954D01*
X2854Y1958D01*
X2856Y1958D01*
X2856Y1960D01*
X2858Y1960D01*
X2858Y1962D01*
X2860Y1962D01*
X2860Y1964D01*
X2862Y1964D01*
X2862Y1966D01*
X2864Y1966D01*
X2864Y1968D01*
X2868Y1968D01*
X2868Y1970D01*
X2870Y1970D01*
X2870Y1972D01*
X2874Y1972D01*
X2874Y1974D01*
X2878Y1974D01*
X2878Y1976D01*
X2884Y1976D01*
X2884Y1978D01*
X2894Y1978D01*
X2894Y1980D01*
X2630Y1980D01*
G37*
D02*
G36*
X1046Y1890D02*
X1046Y1886D01*
X1044Y1886D01*
X1044Y1884D01*
X1042Y1884D01*
X1042Y1882D01*
X1040Y1882D01*
X1040Y1880D01*
X1038Y1880D01*
X1038Y1878D01*
X1036Y1878D01*
X1036Y1876D01*
X1032Y1876D01*
X1032Y1874D01*
X1030Y1874D01*
X1030Y1872D01*
X1026Y1872D01*
X1026Y1870D01*
X1022Y1870D01*
X1022Y1868D01*
X1016Y1868D01*
X1016Y1866D01*
X1006Y1866D01*
X1006Y1864D01*
X1494Y1864D01*
X1494Y1866D01*
X1484Y1866D01*
X1484Y1868D01*
X1478Y1868D01*
X1478Y1870D01*
X1474Y1870D01*
X1474Y1872D01*
X1470Y1872D01*
X1470Y1874D01*
X1468Y1874D01*
X1468Y1876D01*
X1464Y1876D01*
X1464Y1878D01*
X1462Y1878D01*
X1462Y1880D01*
X1460Y1880D01*
X1460Y1882D01*
X1458Y1882D01*
X1458Y1884D01*
X1456Y1884D01*
X1456Y1886D01*
X1454Y1886D01*
X1454Y1890D01*
X1046Y1890D01*
G37*
D02*
G36*
X1746Y1890D02*
X1746Y1886D01*
X1744Y1886D01*
X1744Y1884D01*
X1742Y1884D01*
X1742Y1882D01*
X1740Y1882D01*
X1740Y1880D01*
X1738Y1880D01*
X1738Y1878D01*
X1736Y1878D01*
X1736Y1876D01*
X1732Y1876D01*
X1732Y1874D01*
X1730Y1874D01*
X1730Y1872D01*
X1726Y1872D01*
X1726Y1870D01*
X1722Y1870D01*
X1722Y1868D01*
X1716Y1868D01*
X1716Y1866D01*
X1706Y1866D01*
X1706Y1864D01*
X2194Y1864D01*
X2194Y1866D01*
X2184Y1866D01*
X2184Y1868D01*
X2178Y1868D01*
X2178Y1870D01*
X2174Y1870D01*
X2174Y1872D01*
X2170Y1872D01*
X2170Y1874D01*
X2168Y1874D01*
X2168Y1876D01*
X2164Y1876D01*
X2164Y1878D01*
X2162Y1878D01*
X2162Y1880D01*
X2160Y1880D01*
X2160Y1882D01*
X2158Y1882D01*
X2158Y1884D01*
X2156Y1884D01*
X2156Y1886D01*
X2154Y1886D01*
X2154Y1890D01*
X1746Y1890D01*
G37*
D02*
G36*
X2946Y1890D02*
X2946Y1886D01*
X2944Y1886D01*
X2944Y1884D01*
X2942Y1884D01*
X2942Y1882D01*
X2940Y1882D01*
X2940Y1880D01*
X2938Y1880D01*
X2938Y1878D01*
X2936Y1878D01*
X2936Y1876D01*
X2932Y1876D01*
X2932Y1874D01*
X2930Y1874D01*
X2930Y1872D01*
X2926Y1872D01*
X2926Y1870D01*
X2922Y1870D01*
X2922Y1868D01*
X2916Y1868D01*
X2916Y1866D01*
X2906Y1866D01*
X2906Y1864D01*
X2966Y1864D01*
X2966Y1890D01*
X2946Y1890D01*
G37*
D02*
G36*
X632Y1864D02*
X632Y1862D01*
X2566Y1862D01*
X2566Y1864D01*
X632Y1864D01*
G37*
D02*
G36*
X632Y1864D02*
X632Y1862D01*
X2566Y1862D01*
X2566Y1864D01*
X632Y1864D01*
G37*
D02*
G36*
X632Y1864D02*
X632Y1862D01*
X2566Y1862D01*
X2566Y1864D01*
X632Y1864D01*
G37*
D02*
G36*
X632Y1864D02*
X632Y1862D01*
X2566Y1862D01*
X2566Y1864D01*
X632Y1864D01*
G37*
D02*
G36*
X632Y1864D02*
X632Y1862D01*
X2566Y1862D01*
X2566Y1864D01*
X632Y1864D01*
G37*
D02*
G36*
X632Y1864D02*
X632Y1862D01*
X2566Y1862D01*
X2566Y1864D01*
X632Y1864D01*
G37*
D02*
G36*
X632Y1864D02*
X632Y1862D01*
X2566Y1862D01*
X2566Y1864D01*
X632Y1864D01*
G37*
D02*
G36*
X2630Y1864D02*
X2630Y1862D01*
X2966Y1862D01*
X2966Y1864D01*
X2630Y1864D01*
G37*
D02*
G36*
X2630Y1864D02*
X2630Y1862D01*
X2966Y1862D01*
X2966Y1864D01*
X2630Y1864D01*
G37*
D02*
G36*
X632Y1862D02*
X632Y1476D01*
X2314Y1476D01*
X2314Y1474D01*
X2320Y1474D01*
X2320Y1472D01*
X2324Y1472D01*
X2324Y1470D01*
X2328Y1470D01*
X2328Y1468D01*
X2332Y1468D01*
X2332Y1466D01*
X2334Y1466D01*
X2334Y1464D01*
X2336Y1464D01*
X2336Y1462D01*
X2338Y1462D01*
X2338Y1460D01*
X2340Y1460D01*
X2340Y1458D01*
X2342Y1458D01*
X2342Y1456D01*
X2344Y1456D01*
X2344Y1454D01*
X2346Y1454D01*
X2346Y1450D01*
X2348Y1450D01*
X2348Y1446D01*
X2350Y1446D01*
X2350Y1442D01*
X2352Y1442D01*
X2352Y1436D01*
X2354Y1436D01*
X2354Y1408D01*
X2352Y1408D01*
X2352Y1402D01*
X2350Y1402D01*
X2350Y1398D01*
X2348Y1398D01*
X2348Y1394D01*
X2346Y1394D01*
X2346Y1390D01*
X2344Y1390D01*
X2344Y1388D01*
X2342Y1388D01*
X2342Y1386D01*
X2340Y1386D01*
X2340Y1384D01*
X2338Y1384D01*
X2338Y1382D01*
X2336Y1382D01*
X2336Y1380D01*
X2506Y1380D01*
X2506Y1378D01*
X2516Y1378D01*
X2516Y1376D01*
X2522Y1376D01*
X2522Y1374D01*
X2526Y1374D01*
X2526Y1372D01*
X2530Y1372D01*
X2530Y1370D01*
X2532Y1370D01*
X2532Y1368D01*
X2536Y1368D01*
X2536Y1366D01*
X2538Y1366D01*
X2538Y1364D01*
X2540Y1364D01*
X2540Y1362D01*
X2542Y1362D01*
X2542Y1360D01*
X2544Y1360D01*
X2544Y1358D01*
X2546Y1358D01*
X2546Y1354D01*
X2548Y1354D01*
X2548Y1352D01*
X2568Y1352D01*
X2568Y1840D01*
X2566Y1840D01*
X2566Y1862D01*
X632Y1862D01*
G37*
D02*
G36*
X2630Y1862D02*
X2630Y1846D01*
X2632Y1846D01*
X2632Y1268D01*
X2636Y1268D01*
X2636Y1266D01*
X2638Y1266D01*
X2638Y1264D01*
X2640Y1264D01*
X2640Y1262D01*
X2642Y1262D01*
X2642Y1260D01*
X2644Y1260D01*
X2644Y1258D01*
X2646Y1258D01*
X2646Y1254D01*
X2648Y1254D01*
X2648Y1252D01*
X2650Y1252D01*
X2650Y1248D01*
X2652Y1248D01*
X2652Y1244D01*
X2654Y1244D01*
X2654Y1238D01*
X2656Y1238D01*
X2656Y1228D01*
X2658Y1228D01*
X2658Y1216D01*
X2656Y1216D01*
X2656Y1206D01*
X2654Y1206D01*
X2654Y1200D01*
X2652Y1200D01*
X2652Y1196D01*
X2650Y1196D01*
X2650Y1192D01*
X2648Y1192D01*
X2648Y1190D01*
X2646Y1190D01*
X2646Y1186D01*
X2644Y1186D01*
X2644Y1184D01*
X2642Y1184D01*
X2642Y1182D01*
X2640Y1182D01*
X2640Y1180D01*
X2814Y1180D01*
X2814Y1178D01*
X2822Y1178D01*
X2822Y1176D01*
X2826Y1176D01*
X2826Y1174D01*
X2830Y1174D01*
X2830Y1172D01*
X2832Y1172D01*
X2832Y1170D01*
X2836Y1170D01*
X2836Y1168D01*
X2838Y1168D01*
X2838Y1166D01*
X2840Y1166D01*
X2840Y1164D01*
X2842Y1164D01*
X2842Y1162D01*
X2844Y1162D01*
X2844Y1160D01*
X2846Y1160D01*
X2846Y1158D01*
X2848Y1158D01*
X2848Y1154D01*
X2850Y1154D01*
X2850Y1152D01*
X2852Y1152D01*
X2852Y1148D01*
X2854Y1148D01*
X2854Y1144D01*
X2856Y1144D01*
X2856Y1136D01*
X2858Y1136D01*
X2858Y1108D01*
X2856Y1108D01*
X2856Y1100D01*
X2854Y1100D01*
X2854Y1096D01*
X2852Y1096D01*
X2852Y1092D01*
X2850Y1092D01*
X2850Y1090D01*
X2848Y1090D01*
X2848Y1086D01*
X2846Y1086D01*
X2846Y1084D01*
X2844Y1084D01*
X2844Y1082D01*
X2842Y1082D01*
X2842Y1080D01*
X2840Y1080D01*
X2840Y1078D01*
X2838Y1078D01*
X2838Y1076D01*
X2836Y1076D01*
X2836Y1074D01*
X2832Y1074D01*
X2832Y1072D01*
X2830Y1072D01*
X2830Y1070D01*
X2826Y1070D01*
X2826Y1068D01*
X2822Y1068D01*
X2822Y1066D01*
X2814Y1066D01*
X2814Y1064D01*
X3112Y1064D01*
X3112Y1066D01*
X3110Y1066D01*
X3110Y1068D01*
X3108Y1068D01*
X3108Y1070D01*
X3106Y1070D01*
X3106Y1072D01*
X3104Y1072D01*
X3104Y1074D01*
X3102Y1074D01*
X3102Y1076D01*
X3100Y1076D01*
X3100Y1078D01*
X3098Y1078D01*
X3098Y1080D01*
X3096Y1080D01*
X3096Y1082D01*
X3094Y1082D01*
X3094Y1084D01*
X3092Y1084D01*
X3092Y1086D01*
X3090Y1086D01*
X3090Y1088D01*
X3088Y1088D01*
X3088Y1090D01*
X3086Y1090D01*
X3086Y1092D01*
X3084Y1092D01*
X3084Y1094D01*
X3082Y1094D01*
X3082Y1096D01*
X3080Y1096D01*
X3080Y1098D01*
X3078Y1098D01*
X3078Y1100D01*
X3076Y1100D01*
X3076Y1102D01*
X3074Y1102D01*
X3074Y1104D01*
X3072Y1104D01*
X3072Y1106D01*
X3070Y1106D01*
X3070Y1108D01*
X3068Y1108D01*
X3068Y1110D01*
X3066Y1110D01*
X3066Y1112D01*
X3064Y1112D01*
X3064Y1114D01*
X3062Y1114D01*
X3062Y1116D01*
X3060Y1116D01*
X3060Y1118D01*
X3058Y1118D01*
X3058Y1120D01*
X3056Y1120D01*
X3056Y1122D01*
X3054Y1122D01*
X3054Y1124D01*
X3052Y1124D01*
X3052Y1126D01*
X3050Y1126D01*
X3050Y1128D01*
X3048Y1128D01*
X3048Y1130D01*
X3046Y1130D01*
X3046Y1132D01*
X3044Y1132D01*
X3044Y1134D01*
X3042Y1134D01*
X3042Y1136D01*
X3040Y1136D01*
X3040Y1138D01*
X3038Y1138D01*
X3038Y1140D01*
X3036Y1140D01*
X3036Y1142D01*
X3034Y1142D01*
X3034Y1144D01*
X3032Y1144D01*
X3032Y1146D01*
X3030Y1146D01*
X3030Y1148D01*
X3028Y1148D01*
X3028Y1150D01*
X3026Y1150D01*
X3026Y1152D01*
X3024Y1152D01*
X3024Y1154D01*
X3022Y1154D01*
X3022Y1156D01*
X3020Y1156D01*
X3020Y1158D01*
X3018Y1158D01*
X3018Y1160D01*
X3016Y1160D01*
X3016Y1162D01*
X3014Y1162D01*
X3014Y1164D01*
X3012Y1164D01*
X3012Y1166D01*
X3010Y1166D01*
X3010Y1168D01*
X3008Y1168D01*
X3008Y1170D01*
X3006Y1170D01*
X3006Y1172D01*
X3004Y1172D01*
X3004Y1174D01*
X3002Y1174D01*
X3002Y1176D01*
X3000Y1176D01*
X3000Y1178D01*
X2998Y1178D01*
X2998Y1180D01*
X2996Y1180D01*
X2996Y1182D01*
X2994Y1182D01*
X2994Y1184D01*
X2992Y1184D01*
X2992Y1186D01*
X2990Y1186D01*
X2990Y1188D01*
X2988Y1188D01*
X2988Y1190D01*
X2986Y1190D01*
X2986Y1192D01*
X2984Y1192D01*
X2984Y1194D01*
X2982Y1194D01*
X2982Y1196D01*
X2980Y1196D01*
X2980Y1198D01*
X2978Y1198D01*
X2978Y1200D01*
X2976Y1200D01*
X2976Y1202D01*
X2974Y1202D01*
X2974Y1206D01*
X2972Y1206D01*
X2972Y1208D01*
X2970Y1208D01*
X2970Y1212D01*
X2968Y1212D01*
X2968Y1218D01*
X2966Y1218D01*
X2966Y1862D01*
X2630Y1862D01*
G37*
D02*
G36*
X632Y1476D02*
X632Y1380D01*
X1514Y1380D01*
X1514Y1378D01*
X1522Y1378D01*
X1522Y1376D01*
X1526Y1376D01*
X1526Y1374D01*
X1530Y1374D01*
X1530Y1372D01*
X1532Y1372D01*
X1532Y1370D01*
X1536Y1370D01*
X1536Y1368D01*
X1538Y1368D01*
X1538Y1366D01*
X1540Y1366D01*
X1540Y1364D01*
X1542Y1364D01*
X1542Y1362D01*
X1544Y1362D01*
X1544Y1360D01*
X1546Y1360D01*
X1546Y1358D01*
X1548Y1358D01*
X1548Y1354D01*
X2154Y1354D01*
X2154Y1358D01*
X2156Y1358D01*
X2156Y1360D01*
X2158Y1360D01*
X2158Y1362D01*
X2160Y1362D01*
X2160Y1364D01*
X2162Y1364D01*
X2162Y1384D01*
X2160Y1384D01*
X2160Y1386D01*
X2158Y1386D01*
X2158Y1388D01*
X2156Y1388D01*
X2156Y1390D01*
X2154Y1390D01*
X2154Y1394D01*
X2152Y1394D01*
X2152Y1398D01*
X2150Y1398D01*
X2150Y1402D01*
X2148Y1402D01*
X2148Y1408D01*
X2146Y1408D01*
X2146Y1420D01*
X2144Y1420D01*
X2144Y1424D01*
X2146Y1424D01*
X2146Y1436D01*
X2148Y1436D01*
X2148Y1442D01*
X2150Y1442D01*
X2150Y1446D01*
X2152Y1446D01*
X2152Y1450D01*
X2154Y1450D01*
X2154Y1454D01*
X2156Y1454D01*
X2156Y1456D01*
X2158Y1456D01*
X2158Y1458D01*
X2160Y1458D01*
X2160Y1460D01*
X2162Y1460D01*
X2162Y1462D01*
X2164Y1462D01*
X2164Y1464D01*
X2166Y1464D01*
X2166Y1466D01*
X2168Y1466D01*
X2168Y1468D01*
X2172Y1468D01*
X2172Y1470D01*
X2176Y1470D01*
X2176Y1472D01*
X2180Y1472D01*
X2180Y1474D01*
X2186Y1474D01*
X2186Y1476D01*
X632Y1476D01*
G37*
D02*
G36*
X2214Y1476D02*
X2214Y1474D01*
X2220Y1474D01*
X2220Y1472D01*
X2224Y1472D01*
X2224Y1470D01*
X2228Y1470D01*
X2228Y1468D01*
X2232Y1468D01*
X2232Y1466D01*
X2234Y1466D01*
X2234Y1464D01*
X2236Y1464D01*
X2236Y1462D01*
X2238Y1462D01*
X2238Y1460D01*
X2240Y1460D01*
X2240Y1458D01*
X2260Y1458D01*
X2260Y1460D01*
X2262Y1460D01*
X2262Y1462D01*
X2264Y1462D01*
X2264Y1464D01*
X2266Y1464D01*
X2266Y1466D01*
X2268Y1466D01*
X2268Y1468D01*
X2272Y1468D01*
X2272Y1470D01*
X2276Y1470D01*
X2276Y1472D01*
X2280Y1472D01*
X2280Y1474D01*
X2286Y1474D01*
X2286Y1476D01*
X2214Y1476D01*
G37*
D02*
G36*
X2240Y1386D02*
X2240Y1384D01*
X2238Y1384D01*
X2238Y1368D01*
X2286Y1368D01*
X2286Y1370D01*
X2280Y1370D01*
X2280Y1372D01*
X2276Y1372D01*
X2276Y1374D01*
X2272Y1374D01*
X2272Y1376D01*
X2268Y1376D01*
X2268Y1378D01*
X2266Y1378D01*
X2266Y1380D01*
X2264Y1380D01*
X2264Y1382D01*
X2262Y1382D01*
X2262Y1384D01*
X2260Y1384D01*
X2260Y1386D01*
X2240Y1386D01*
G37*
D02*
G36*
X632Y1380D02*
X632Y1264D01*
X1486Y1264D01*
X1486Y1266D01*
X1478Y1266D01*
X1478Y1268D01*
X1474Y1268D01*
X1474Y1270D01*
X1470Y1270D01*
X1470Y1272D01*
X1468Y1272D01*
X1468Y1274D01*
X1464Y1274D01*
X1464Y1276D01*
X1462Y1276D01*
X1462Y1278D01*
X1460Y1278D01*
X1460Y1280D01*
X1458Y1280D01*
X1458Y1282D01*
X1456Y1282D01*
X1456Y1284D01*
X1454Y1284D01*
X1454Y1286D01*
X1452Y1286D01*
X1452Y1290D01*
X1450Y1290D01*
X1450Y1292D01*
X1448Y1292D01*
X1448Y1296D01*
X1446Y1296D01*
X1446Y1300D01*
X1444Y1300D01*
X1444Y1308D01*
X1442Y1308D01*
X1442Y1336D01*
X1444Y1336D01*
X1444Y1344D01*
X1446Y1344D01*
X1446Y1348D01*
X1448Y1348D01*
X1448Y1352D01*
X1450Y1352D01*
X1450Y1354D01*
X1452Y1354D01*
X1452Y1358D01*
X1454Y1358D01*
X1454Y1360D01*
X1456Y1360D01*
X1456Y1362D01*
X1458Y1362D01*
X1458Y1364D01*
X1460Y1364D01*
X1460Y1366D01*
X1462Y1366D01*
X1462Y1368D01*
X1464Y1368D01*
X1464Y1370D01*
X1468Y1370D01*
X1468Y1372D01*
X1470Y1372D01*
X1470Y1374D01*
X1474Y1374D01*
X1474Y1376D01*
X1478Y1376D01*
X1478Y1378D01*
X1486Y1378D01*
X1486Y1380D01*
X632Y1380D01*
G37*
D02*
G36*
X2334Y1380D02*
X2334Y1378D01*
X2332Y1378D01*
X2332Y1376D01*
X2328Y1376D01*
X2328Y1374D01*
X2324Y1374D01*
X2324Y1372D01*
X2320Y1372D01*
X2320Y1370D01*
X2314Y1370D01*
X2314Y1368D01*
X2468Y1368D01*
X2468Y1370D01*
X2470Y1370D01*
X2470Y1372D01*
X2474Y1372D01*
X2474Y1374D01*
X2478Y1374D01*
X2478Y1376D01*
X2484Y1376D01*
X2484Y1378D01*
X2494Y1378D01*
X2494Y1380D01*
X2334Y1380D01*
G37*
D02*
G36*
X2238Y1368D02*
X2238Y1366D01*
X2464Y1366D01*
X2464Y1368D01*
X2238Y1368D01*
G37*
D02*
G36*
X2238Y1368D02*
X2238Y1366D01*
X2464Y1366D01*
X2464Y1368D01*
X2238Y1368D01*
G37*
D02*
G36*
X2238Y1366D02*
X2238Y1364D01*
X2240Y1364D01*
X2240Y1362D01*
X2242Y1362D01*
X2242Y1360D01*
X2244Y1360D01*
X2244Y1358D01*
X2246Y1358D01*
X2246Y1354D01*
X2248Y1354D01*
X2248Y1352D01*
X2250Y1352D01*
X2250Y1348D01*
X2252Y1348D01*
X2252Y1344D01*
X2254Y1344D01*
X2254Y1338D01*
X2256Y1338D01*
X2256Y1328D01*
X2258Y1328D01*
X2258Y1316D01*
X2256Y1316D01*
X2256Y1306D01*
X2254Y1306D01*
X2254Y1300D01*
X2252Y1300D01*
X2252Y1280D01*
X2358Y1280D01*
X2358Y1164D01*
X2352Y1164D01*
X2352Y1144D01*
X2354Y1144D01*
X2354Y1138D01*
X2356Y1138D01*
X2356Y1128D01*
X2358Y1128D01*
X2358Y1116D01*
X2356Y1116D01*
X2356Y1106D01*
X2354Y1106D01*
X2354Y1100D01*
X2352Y1100D01*
X2352Y1096D01*
X2350Y1096D01*
X2350Y1092D01*
X2348Y1092D01*
X2348Y1090D01*
X2346Y1090D01*
X2346Y1086D01*
X2344Y1086D01*
X2344Y1084D01*
X2342Y1084D01*
X2342Y1082D01*
X2340Y1082D01*
X2340Y1062D01*
X2342Y1062D01*
X2342Y1060D01*
X2344Y1060D01*
X2344Y1058D01*
X2346Y1058D01*
X2346Y1054D01*
X2348Y1054D01*
X2348Y1052D01*
X2350Y1052D01*
X2350Y1048D01*
X2352Y1048D01*
X2352Y1044D01*
X2354Y1044D01*
X2354Y1038D01*
X2356Y1038D01*
X2356Y1028D01*
X2358Y1028D01*
X2358Y1016D01*
X2356Y1016D01*
X2356Y1006D01*
X2354Y1006D01*
X2354Y1000D01*
X2352Y1000D01*
X2352Y996D01*
X2350Y996D01*
X2350Y992D01*
X2348Y992D01*
X2348Y990D01*
X2346Y990D01*
X2346Y986D01*
X2344Y986D01*
X2344Y984D01*
X2342Y984D01*
X2342Y982D01*
X2340Y982D01*
X2340Y962D01*
X2342Y962D01*
X2342Y960D01*
X2344Y960D01*
X2344Y958D01*
X2346Y958D01*
X2346Y954D01*
X2348Y954D01*
X2348Y952D01*
X2350Y952D01*
X2350Y948D01*
X2352Y948D01*
X2352Y944D01*
X2354Y944D01*
X2354Y938D01*
X2356Y938D01*
X2356Y928D01*
X2358Y928D01*
X2358Y916D01*
X2356Y916D01*
X2356Y906D01*
X2354Y906D01*
X2354Y900D01*
X2352Y900D01*
X2352Y896D01*
X2350Y896D01*
X2350Y892D01*
X2348Y892D01*
X2348Y890D01*
X2346Y890D01*
X2346Y886D01*
X2344Y886D01*
X2344Y884D01*
X2342Y884D01*
X2342Y882D01*
X2340Y882D01*
X2340Y880D01*
X2338Y880D01*
X2338Y878D01*
X2336Y878D01*
X2336Y876D01*
X2332Y876D01*
X2332Y874D01*
X2330Y874D01*
X2330Y872D01*
X2326Y872D01*
X2326Y870D01*
X2322Y870D01*
X2322Y868D01*
X2316Y868D01*
X2316Y866D01*
X2306Y866D01*
X2306Y864D01*
X2594Y864D01*
X2594Y866D01*
X2584Y866D01*
X2584Y868D01*
X2578Y868D01*
X2578Y870D01*
X2574Y870D01*
X2574Y872D01*
X2570Y872D01*
X2570Y874D01*
X2568Y874D01*
X2568Y876D01*
X2564Y876D01*
X2564Y878D01*
X2562Y878D01*
X2562Y880D01*
X2560Y880D01*
X2560Y882D01*
X2558Y882D01*
X2558Y884D01*
X2556Y884D01*
X2556Y886D01*
X2554Y886D01*
X2554Y890D01*
X2552Y890D01*
X2552Y892D01*
X2550Y892D01*
X2550Y896D01*
X2548Y896D01*
X2548Y900D01*
X2546Y900D01*
X2546Y906D01*
X2544Y906D01*
X2544Y916D01*
X2542Y916D01*
X2542Y928D01*
X2544Y928D01*
X2544Y938D01*
X2546Y938D01*
X2546Y944D01*
X2548Y944D01*
X2548Y948D01*
X2550Y948D01*
X2550Y952D01*
X2552Y952D01*
X2552Y954D01*
X2554Y954D01*
X2554Y958D01*
X2556Y958D01*
X2556Y960D01*
X2558Y960D01*
X2558Y962D01*
X2560Y962D01*
X2560Y982D01*
X2558Y982D01*
X2558Y984D01*
X2556Y984D01*
X2556Y986D01*
X2554Y986D01*
X2554Y990D01*
X2552Y990D01*
X2552Y992D01*
X2550Y992D01*
X2550Y996D01*
X2548Y996D01*
X2548Y1000D01*
X2546Y1000D01*
X2546Y1006D01*
X2544Y1006D01*
X2544Y1016D01*
X2542Y1016D01*
X2542Y1036D01*
X2540Y1036D01*
X2540Y1038D01*
X2538Y1038D01*
X2538Y1040D01*
X2536Y1040D01*
X2536Y1042D01*
X2534Y1042D01*
X2534Y1044D01*
X2532Y1044D01*
X2532Y1046D01*
X2530Y1046D01*
X2530Y1048D01*
X2528Y1048D01*
X2528Y1050D01*
X2526Y1050D01*
X2526Y1052D01*
X2524Y1052D01*
X2524Y1054D01*
X2522Y1054D01*
X2522Y1056D01*
X2520Y1056D01*
X2520Y1058D01*
X2518Y1058D01*
X2518Y1060D01*
X2516Y1060D01*
X2516Y1062D01*
X2514Y1062D01*
X2514Y1064D01*
X2512Y1064D01*
X2512Y1066D01*
X2510Y1066D01*
X2510Y1068D01*
X2508Y1068D01*
X2508Y1070D01*
X2506Y1070D01*
X2506Y1072D01*
X2504Y1072D01*
X2504Y1074D01*
X2502Y1074D01*
X2502Y1076D01*
X2500Y1076D01*
X2500Y1078D01*
X2498Y1078D01*
X2498Y1080D01*
X2496Y1080D01*
X2496Y1082D01*
X2494Y1082D01*
X2494Y1084D01*
X2492Y1084D01*
X2492Y1086D01*
X2490Y1086D01*
X2490Y1088D01*
X2488Y1088D01*
X2488Y1090D01*
X2486Y1090D01*
X2486Y1092D01*
X2484Y1092D01*
X2484Y1094D01*
X2482Y1094D01*
X2482Y1096D01*
X2480Y1096D01*
X2480Y1098D01*
X2478Y1098D01*
X2478Y1100D01*
X2476Y1100D01*
X2476Y1102D01*
X2474Y1102D01*
X2474Y1106D01*
X2472Y1106D01*
X2472Y1110D01*
X2470Y1110D01*
X2470Y1116D01*
X2468Y1116D01*
X2468Y1276D01*
X2464Y1276D01*
X2464Y1278D01*
X2462Y1278D01*
X2462Y1280D01*
X2460Y1280D01*
X2460Y1282D01*
X2458Y1282D01*
X2458Y1284D01*
X2456Y1284D01*
X2456Y1286D01*
X2454Y1286D01*
X2454Y1290D01*
X2452Y1290D01*
X2452Y1292D01*
X2450Y1292D01*
X2450Y1296D01*
X2448Y1296D01*
X2448Y1300D01*
X2446Y1300D01*
X2446Y1306D01*
X2444Y1306D01*
X2444Y1316D01*
X2442Y1316D01*
X2442Y1328D01*
X2444Y1328D01*
X2444Y1338D01*
X2446Y1338D01*
X2446Y1344D01*
X2448Y1344D01*
X2448Y1348D01*
X2450Y1348D01*
X2450Y1352D01*
X2452Y1352D01*
X2452Y1354D01*
X2454Y1354D01*
X2454Y1358D01*
X2456Y1358D01*
X2456Y1360D01*
X2458Y1360D01*
X2458Y1362D01*
X2460Y1362D01*
X2460Y1364D01*
X2462Y1364D01*
X2462Y1366D01*
X2238Y1366D01*
G37*
D02*
G36*
X1548Y1290D02*
X1548Y1286D01*
X1546Y1286D01*
X1546Y1284D01*
X1544Y1284D01*
X1544Y1282D01*
X1542Y1282D01*
X1542Y1280D01*
X1540Y1280D01*
X1540Y1278D01*
X1538Y1278D01*
X1538Y1276D01*
X1536Y1276D01*
X1536Y1274D01*
X1532Y1274D01*
X1532Y1272D01*
X1530Y1272D01*
X1530Y1270D01*
X1526Y1270D01*
X1526Y1268D01*
X1522Y1268D01*
X1522Y1266D01*
X1514Y1266D01*
X1514Y1264D01*
X2060Y1264D01*
X2060Y1266D01*
X2062Y1266D01*
X2062Y1268D01*
X2064Y1268D01*
X2064Y1270D01*
X2068Y1270D01*
X2068Y1290D01*
X1548Y1290D01*
G37*
D02*
G36*
X40Y1280D02*
X40Y964D01*
X286Y964D01*
X286Y966D01*
X278Y966D01*
X278Y968D01*
X274Y968D01*
X274Y970D01*
X270Y970D01*
X270Y972D01*
X268Y972D01*
X268Y974D01*
X264Y974D01*
X264Y976D01*
X262Y976D01*
X262Y978D01*
X260Y978D01*
X260Y980D01*
X258Y980D01*
X258Y982D01*
X256Y982D01*
X256Y984D01*
X254Y984D01*
X254Y986D01*
X252Y986D01*
X252Y990D01*
X250Y990D01*
X250Y992D01*
X248Y992D01*
X248Y996D01*
X246Y996D01*
X246Y1000D01*
X244Y1000D01*
X244Y1008D01*
X242Y1008D01*
X242Y1036D01*
X244Y1036D01*
X244Y1044D01*
X246Y1044D01*
X246Y1048D01*
X248Y1048D01*
X248Y1052D01*
X250Y1052D01*
X250Y1054D01*
X252Y1054D01*
X252Y1058D01*
X254Y1058D01*
X254Y1060D01*
X256Y1060D01*
X256Y1062D01*
X258Y1062D01*
X258Y1082D01*
X256Y1082D01*
X256Y1084D01*
X254Y1084D01*
X254Y1086D01*
X252Y1086D01*
X252Y1090D01*
X250Y1090D01*
X250Y1092D01*
X248Y1092D01*
X248Y1096D01*
X246Y1096D01*
X246Y1100D01*
X244Y1100D01*
X244Y1108D01*
X242Y1108D01*
X242Y1136D01*
X244Y1136D01*
X244Y1144D01*
X246Y1144D01*
X246Y1148D01*
X248Y1148D01*
X248Y1152D01*
X250Y1152D01*
X250Y1154D01*
X252Y1154D01*
X252Y1158D01*
X254Y1158D01*
X254Y1160D01*
X256Y1160D01*
X256Y1162D01*
X258Y1162D01*
X258Y1182D01*
X256Y1182D01*
X256Y1184D01*
X254Y1184D01*
X254Y1186D01*
X252Y1186D01*
X252Y1190D01*
X250Y1190D01*
X250Y1192D01*
X248Y1192D01*
X248Y1196D01*
X246Y1196D01*
X246Y1200D01*
X244Y1200D01*
X244Y1208D01*
X242Y1208D01*
X242Y1236D01*
X244Y1236D01*
X244Y1244D01*
X246Y1244D01*
X246Y1248D01*
X248Y1248D01*
X248Y1252D01*
X250Y1252D01*
X250Y1254D01*
X252Y1254D01*
X252Y1258D01*
X254Y1258D01*
X254Y1260D01*
X256Y1260D01*
X256Y1262D01*
X258Y1262D01*
X258Y1264D01*
X260Y1264D01*
X260Y1266D01*
X262Y1266D01*
X262Y1268D01*
X264Y1268D01*
X264Y1270D01*
X268Y1270D01*
X268Y1272D01*
X270Y1272D01*
X270Y1274D01*
X274Y1274D01*
X274Y1276D01*
X278Y1276D01*
X278Y1278D01*
X286Y1278D01*
X286Y1280D01*
X40Y1280D01*
G37*
D02*
G36*
X3232Y1280D02*
X3232Y1270D01*
X3236Y1270D01*
X3236Y1268D01*
X3238Y1268D01*
X3238Y1266D01*
X3240Y1266D01*
X3240Y1264D01*
X3260Y1264D01*
X3260Y1266D01*
X3262Y1266D01*
X3262Y1268D01*
X3264Y1268D01*
X3264Y1270D01*
X3268Y1270D01*
X3268Y1272D01*
X3270Y1272D01*
X3270Y1274D01*
X3274Y1274D01*
X3274Y1276D01*
X3278Y1276D01*
X3278Y1278D01*
X3286Y1278D01*
X3286Y1280D01*
X3232Y1280D01*
G37*
D02*
G36*
X632Y1264D02*
X632Y1262D01*
X2058Y1262D01*
X2058Y1264D01*
X632Y1264D01*
G37*
D02*
G36*
X632Y1264D02*
X632Y1262D01*
X2058Y1262D01*
X2058Y1264D01*
X632Y1264D01*
G37*
D02*
G36*
X632Y1262D02*
X632Y1214D01*
X630Y1214D01*
X630Y1210D01*
X628Y1210D01*
X628Y1206D01*
X626Y1206D01*
X626Y1204D01*
X624Y1204D01*
X624Y1202D01*
X622Y1202D01*
X622Y1200D01*
X620Y1200D01*
X620Y1198D01*
X618Y1198D01*
X618Y1196D01*
X616Y1196D01*
X616Y1194D01*
X614Y1194D01*
X614Y1192D01*
X612Y1192D01*
X612Y1190D01*
X610Y1190D01*
X610Y1188D01*
X608Y1188D01*
X608Y1186D01*
X606Y1186D01*
X606Y1184D01*
X604Y1184D01*
X604Y1182D01*
X602Y1182D01*
X602Y1180D01*
X600Y1180D01*
X600Y1178D01*
X598Y1178D01*
X598Y1176D01*
X596Y1176D01*
X596Y1174D01*
X594Y1174D01*
X594Y1172D01*
X592Y1172D01*
X592Y1170D01*
X590Y1170D01*
X590Y1168D01*
X588Y1168D01*
X588Y1166D01*
X586Y1166D01*
X586Y1164D01*
X584Y1164D01*
X584Y1162D01*
X582Y1162D01*
X582Y1160D01*
X580Y1160D01*
X580Y1158D01*
X578Y1158D01*
X578Y1156D01*
X576Y1156D01*
X576Y1154D01*
X574Y1154D01*
X574Y1152D01*
X572Y1152D01*
X572Y1150D01*
X570Y1150D01*
X570Y1148D01*
X568Y1148D01*
X568Y1146D01*
X566Y1146D01*
X566Y1144D01*
X564Y1144D01*
X564Y1142D01*
X562Y1142D01*
X562Y1140D01*
X560Y1140D01*
X560Y1138D01*
X558Y1138D01*
X558Y1136D01*
X556Y1136D01*
X556Y1134D01*
X554Y1134D01*
X554Y1132D01*
X552Y1132D01*
X552Y1130D01*
X550Y1130D01*
X550Y1126D01*
X548Y1126D01*
X548Y1124D01*
X546Y1124D01*
X546Y1122D01*
X544Y1122D01*
X544Y1120D01*
X542Y1120D01*
X542Y1118D01*
X540Y1118D01*
X540Y1116D01*
X538Y1116D01*
X538Y1114D01*
X536Y1114D01*
X536Y1112D01*
X534Y1112D01*
X534Y1110D01*
X532Y1110D01*
X532Y1108D01*
X530Y1108D01*
X530Y1106D01*
X528Y1106D01*
X528Y1104D01*
X526Y1104D01*
X526Y1102D01*
X524Y1102D01*
X524Y1100D01*
X522Y1100D01*
X522Y1098D01*
X520Y1098D01*
X520Y1096D01*
X518Y1096D01*
X518Y1094D01*
X516Y1094D01*
X516Y1092D01*
X514Y1092D01*
X514Y1090D01*
X512Y1090D01*
X512Y1088D01*
X510Y1088D01*
X510Y1086D01*
X508Y1086D01*
X508Y1084D01*
X506Y1084D01*
X506Y1082D01*
X504Y1082D01*
X504Y1080D01*
X502Y1080D01*
X502Y1078D01*
X500Y1078D01*
X500Y1076D01*
X498Y1076D01*
X498Y1074D01*
X496Y1074D01*
X496Y1072D01*
X494Y1072D01*
X494Y1070D01*
X492Y1070D01*
X492Y1068D01*
X490Y1068D01*
X490Y1066D01*
X488Y1066D01*
X488Y1064D01*
X486Y1064D01*
X486Y1062D01*
X484Y1062D01*
X484Y1060D01*
X482Y1060D01*
X482Y1058D01*
X480Y1058D01*
X480Y1056D01*
X478Y1056D01*
X478Y1054D01*
X476Y1054D01*
X476Y1052D01*
X474Y1052D01*
X474Y1050D01*
X472Y1050D01*
X472Y1048D01*
X470Y1048D01*
X470Y1046D01*
X468Y1046D01*
X468Y1044D01*
X466Y1044D01*
X466Y1042D01*
X464Y1042D01*
X464Y1040D01*
X462Y1040D01*
X462Y1038D01*
X460Y1038D01*
X460Y1036D01*
X458Y1036D01*
X458Y1008D01*
X456Y1008D01*
X456Y1000D01*
X454Y1000D01*
X454Y996D01*
X452Y996D01*
X452Y992D01*
X450Y992D01*
X450Y990D01*
X448Y990D01*
X448Y986D01*
X446Y986D01*
X446Y984D01*
X444Y984D01*
X444Y982D01*
X442Y982D01*
X442Y980D01*
X440Y980D01*
X440Y978D01*
X438Y978D01*
X438Y976D01*
X436Y976D01*
X436Y974D01*
X432Y974D01*
X432Y972D01*
X430Y972D01*
X430Y970D01*
X426Y970D01*
X426Y968D01*
X422Y968D01*
X422Y966D01*
X414Y966D01*
X414Y964D01*
X2058Y964D01*
X2058Y982D01*
X2056Y982D01*
X2056Y984D01*
X2054Y984D01*
X2054Y986D01*
X2052Y986D01*
X2052Y990D01*
X2050Y990D01*
X2050Y992D01*
X2048Y992D01*
X2048Y996D01*
X2046Y996D01*
X2046Y1000D01*
X2044Y1000D01*
X2044Y1008D01*
X2042Y1008D01*
X2042Y1036D01*
X2044Y1036D01*
X2044Y1044D01*
X2046Y1044D01*
X2046Y1048D01*
X2048Y1048D01*
X2048Y1052D01*
X2050Y1052D01*
X2050Y1054D01*
X2052Y1054D01*
X2052Y1058D01*
X2054Y1058D01*
X2054Y1060D01*
X2056Y1060D01*
X2056Y1062D01*
X2058Y1062D01*
X2058Y1082D01*
X2056Y1082D01*
X2056Y1084D01*
X2054Y1084D01*
X2054Y1086D01*
X2052Y1086D01*
X2052Y1090D01*
X2050Y1090D01*
X2050Y1092D01*
X2048Y1092D01*
X2048Y1096D01*
X2046Y1096D01*
X2046Y1100D01*
X2044Y1100D01*
X2044Y1108D01*
X2042Y1108D01*
X2042Y1136D01*
X2044Y1136D01*
X2044Y1144D01*
X2046Y1144D01*
X2046Y1148D01*
X2048Y1148D01*
X2048Y1152D01*
X2050Y1152D01*
X2050Y1154D01*
X2052Y1154D01*
X2052Y1158D01*
X2054Y1158D01*
X2054Y1160D01*
X2056Y1160D01*
X2056Y1162D01*
X2058Y1162D01*
X2058Y1182D01*
X2056Y1182D01*
X2056Y1184D01*
X2054Y1184D01*
X2054Y1186D01*
X2052Y1186D01*
X2052Y1190D01*
X2050Y1190D01*
X2050Y1192D01*
X2048Y1192D01*
X2048Y1196D01*
X2046Y1196D01*
X2046Y1200D01*
X2044Y1200D01*
X2044Y1208D01*
X2042Y1208D01*
X2042Y1236D01*
X2044Y1236D01*
X2044Y1244D01*
X2046Y1244D01*
X2046Y1248D01*
X2048Y1248D01*
X2048Y1252D01*
X2050Y1252D01*
X2050Y1254D01*
X2052Y1254D01*
X2052Y1258D01*
X2054Y1258D01*
X2054Y1260D01*
X2056Y1260D01*
X2056Y1262D01*
X632Y1262D01*
G37*
D02*
G36*
X2640Y1180D02*
X2640Y1162D01*
X2642Y1162D01*
X2642Y1160D01*
X2644Y1160D01*
X2644Y1158D01*
X2646Y1158D01*
X2646Y1154D01*
X2752Y1154D01*
X2752Y1158D01*
X2754Y1158D01*
X2754Y1160D01*
X2756Y1160D01*
X2756Y1162D01*
X2758Y1162D01*
X2758Y1164D01*
X2760Y1164D01*
X2760Y1166D01*
X2762Y1166D01*
X2762Y1168D01*
X2764Y1168D01*
X2764Y1170D01*
X2768Y1170D01*
X2768Y1172D01*
X2770Y1172D01*
X2770Y1174D01*
X2774Y1174D01*
X2774Y1176D01*
X2778Y1176D01*
X2778Y1178D01*
X2786Y1178D01*
X2786Y1180D01*
X2640Y1180D01*
G37*
D02*
G36*
X2646Y1090D02*
X2646Y1086D01*
X2644Y1086D01*
X2644Y1084D01*
X2642Y1084D01*
X2642Y1082D01*
X2640Y1082D01*
X2640Y1064D01*
X2786Y1064D01*
X2786Y1066D01*
X2778Y1066D01*
X2778Y1068D01*
X2774Y1068D01*
X2774Y1070D01*
X2770Y1070D01*
X2770Y1072D01*
X2768Y1072D01*
X2768Y1074D01*
X2764Y1074D01*
X2764Y1076D01*
X2762Y1076D01*
X2762Y1078D01*
X2760Y1078D01*
X2760Y1080D01*
X2758Y1080D01*
X2758Y1082D01*
X2756Y1082D01*
X2756Y1084D01*
X2754Y1084D01*
X2754Y1086D01*
X2752Y1086D01*
X2752Y1090D01*
X2646Y1090D01*
G37*
D02*
G36*
X2640Y1064D02*
X2640Y1062D01*
X3114Y1062D01*
X3114Y1064D01*
X2640Y1064D01*
G37*
D02*
G36*
X2640Y1064D02*
X2640Y1062D01*
X3114Y1062D01*
X3114Y1064D01*
X2640Y1064D01*
G37*
D02*
G36*
X2642Y1062D02*
X2642Y1060D01*
X2644Y1060D01*
X2644Y1058D01*
X2646Y1058D01*
X2646Y1054D01*
X2648Y1054D01*
X2648Y1052D01*
X2650Y1052D01*
X2650Y1048D01*
X2652Y1048D01*
X2652Y1044D01*
X2654Y1044D01*
X2654Y1038D01*
X2656Y1038D01*
X2656Y1028D01*
X2658Y1028D01*
X2658Y1016D01*
X2656Y1016D01*
X2656Y1006D01*
X2654Y1006D01*
X2654Y1000D01*
X2652Y1000D01*
X2652Y996D01*
X2650Y996D01*
X2650Y992D01*
X2648Y992D01*
X2648Y990D01*
X2646Y990D01*
X2646Y986D01*
X2644Y986D01*
X2644Y984D01*
X2642Y984D01*
X2642Y982D01*
X2640Y982D01*
X2640Y980D01*
X2814Y980D01*
X2814Y978D01*
X2822Y978D01*
X2822Y976D01*
X2826Y976D01*
X2826Y974D01*
X2830Y974D01*
X2830Y972D01*
X2832Y972D01*
X2832Y970D01*
X2836Y970D01*
X2836Y968D01*
X2838Y968D01*
X2838Y966D01*
X2840Y966D01*
X2840Y964D01*
X3186Y964D01*
X3186Y966D01*
X3178Y966D01*
X3178Y968D01*
X3174Y968D01*
X3174Y970D01*
X3170Y970D01*
X3170Y972D01*
X3168Y972D01*
X3168Y974D01*
X3164Y974D01*
X3164Y976D01*
X3162Y976D01*
X3162Y978D01*
X3160Y978D01*
X3160Y980D01*
X3158Y980D01*
X3158Y982D01*
X3156Y982D01*
X3156Y984D01*
X3154Y984D01*
X3154Y986D01*
X3152Y986D01*
X3152Y990D01*
X3150Y990D01*
X3150Y992D01*
X3148Y992D01*
X3148Y996D01*
X3146Y996D01*
X3146Y1000D01*
X3144Y1000D01*
X3144Y1008D01*
X3142Y1008D01*
X3142Y1036D01*
X3140Y1036D01*
X3140Y1038D01*
X3138Y1038D01*
X3138Y1040D01*
X3136Y1040D01*
X3136Y1042D01*
X3134Y1042D01*
X3134Y1044D01*
X3132Y1044D01*
X3132Y1046D01*
X3130Y1046D01*
X3130Y1048D01*
X3128Y1048D01*
X3128Y1050D01*
X3126Y1050D01*
X3126Y1052D01*
X3124Y1052D01*
X3124Y1054D01*
X3122Y1054D01*
X3122Y1056D01*
X3120Y1056D01*
X3120Y1058D01*
X3118Y1058D01*
X3118Y1060D01*
X3116Y1060D01*
X3116Y1062D01*
X2642Y1062D01*
G37*
D02*
G36*
X2148Y990D02*
X2148Y986D01*
X2146Y986D01*
X2146Y984D01*
X2144Y984D01*
X2144Y982D01*
X2142Y982D01*
X2142Y962D01*
X2144Y962D01*
X2144Y960D01*
X2146Y960D01*
X2146Y958D01*
X2148Y958D01*
X2148Y954D01*
X2150Y954D01*
X2150Y952D01*
X2152Y952D01*
X2152Y948D01*
X2154Y948D01*
X2154Y944D01*
X2156Y944D01*
X2156Y936D01*
X2158Y936D01*
X2158Y908D01*
X2156Y908D01*
X2156Y900D01*
X2154Y900D01*
X2154Y896D01*
X2152Y896D01*
X2152Y892D01*
X2150Y892D01*
X2150Y890D01*
X2148Y890D01*
X2148Y886D01*
X2146Y886D01*
X2146Y884D01*
X2144Y884D01*
X2144Y882D01*
X2142Y882D01*
X2142Y880D01*
X2140Y880D01*
X2140Y878D01*
X2138Y878D01*
X2138Y876D01*
X2136Y876D01*
X2136Y874D01*
X2132Y874D01*
X2132Y872D01*
X2130Y872D01*
X2130Y870D01*
X2126Y870D01*
X2126Y868D01*
X2122Y868D01*
X2122Y866D01*
X2114Y866D01*
X2114Y864D01*
X2294Y864D01*
X2294Y866D01*
X2284Y866D01*
X2284Y868D01*
X2278Y868D01*
X2278Y870D01*
X2274Y870D01*
X2274Y872D01*
X2270Y872D01*
X2270Y874D01*
X2268Y874D01*
X2268Y876D01*
X2264Y876D01*
X2264Y878D01*
X2262Y878D01*
X2262Y880D01*
X2260Y880D01*
X2260Y882D01*
X2258Y882D01*
X2258Y884D01*
X2256Y884D01*
X2256Y886D01*
X2254Y886D01*
X2254Y890D01*
X2252Y890D01*
X2252Y892D01*
X2250Y892D01*
X2250Y896D01*
X2248Y896D01*
X2248Y900D01*
X2246Y900D01*
X2246Y906D01*
X2244Y906D01*
X2244Y916D01*
X2242Y916D01*
X2242Y928D01*
X2244Y928D01*
X2244Y938D01*
X2246Y938D01*
X2246Y944D01*
X2248Y944D01*
X2248Y948D01*
X2250Y948D01*
X2250Y952D01*
X2252Y952D01*
X2252Y954D01*
X2254Y954D01*
X2254Y958D01*
X2256Y958D01*
X2256Y960D01*
X2258Y960D01*
X2258Y962D01*
X2260Y962D01*
X2260Y982D01*
X2258Y982D01*
X2258Y984D01*
X2256Y984D01*
X2256Y986D01*
X2254Y986D01*
X2254Y990D01*
X2148Y990D01*
G37*
D02*
G36*
X340Y980D02*
X340Y978D01*
X338Y978D01*
X338Y976D01*
X336Y976D01*
X336Y974D01*
X332Y974D01*
X332Y972D01*
X330Y972D01*
X330Y970D01*
X326Y970D01*
X326Y968D01*
X322Y968D01*
X322Y966D01*
X314Y966D01*
X314Y964D01*
X386Y964D01*
X386Y966D01*
X378Y966D01*
X378Y968D01*
X374Y968D01*
X374Y970D01*
X370Y970D01*
X370Y972D01*
X368Y972D01*
X368Y974D01*
X364Y974D01*
X364Y976D01*
X362Y976D01*
X362Y978D01*
X360Y978D01*
X360Y980D01*
X340Y980D01*
G37*
D02*
G36*
X2640Y980D02*
X2640Y962D01*
X2642Y962D01*
X2642Y960D01*
X2644Y960D01*
X2644Y958D01*
X2646Y958D01*
X2646Y954D01*
X2752Y954D01*
X2752Y958D01*
X2754Y958D01*
X2754Y960D01*
X2756Y960D01*
X2756Y962D01*
X2758Y962D01*
X2758Y964D01*
X2760Y964D01*
X2760Y966D01*
X2762Y966D01*
X2762Y968D01*
X2764Y968D01*
X2764Y970D01*
X2768Y970D01*
X2768Y972D01*
X2770Y972D01*
X2770Y974D01*
X2774Y974D01*
X2774Y976D01*
X2778Y976D01*
X2778Y978D01*
X2786Y978D01*
X2786Y980D01*
X2640Y980D01*
G37*
D02*
G36*
X3240Y980D02*
X3240Y978D01*
X3238Y978D01*
X3238Y976D01*
X3236Y976D01*
X3236Y974D01*
X3232Y974D01*
X3232Y972D01*
X3230Y972D01*
X3230Y970D01*
X3226Y970D01*
X3226Y968D01*
X3222Y968D01*
X3222Y966D01*
X3214Y966D01*
X3214Y964D01*
X3286Y964D01*
X3286Y966D01*
X3278Y966D01*
X3278Y968D01*
X3274Y968D01*
X3274Y970D01*
X3270Y970D01*
X3270Y972D01*
X3268Y972D01*
X3268Y974D01*
X3264Y974D01*
X3264Y976D01*
X3262Y976D01*
X3262Y978D01*
X3260Y978D01*
X3260Y980D01*
X3240Y980D01*
G37*
D02*
G36*
X40Y964D02*
X40Y962D01*
X2058Y962D01*
X2058Y964D01*
X40Y964D01*
G37*
D02*
G36*
X40Y964D02*
X40Y962D01*
X2058Y962D01*
X2058Y964D01*
X40Y964D01*
G37*
D02*
G36*
X40Y964D02*
X40Y962D01*
X2058Y962D01*
X2058Y964D01*
X40Y964D01*
G37*
D02*
G36*
X2842Y964D02*
X2842Y962D01*
X3582Y962D01*
X3582Y964D01*
X2842Y964D01*
G37*
D02*
G36*
X2842Y964D02*
X2842Y962D01*
X3582Y962D01*
X3582Y964D01*
X2842Y964D01*
G37*
D02*
G36*
X2842Y964D02*
X2842Y962D01*
X3582Y962D01*
X3582Y964D01*
X2842Y964D01*
G37*
D02*
G36*
X40Y962D02*
X40Y880D01*
X414Y880D01*
X414Y878D01*
X422Y878D01*
X422Y876D01*
X426Y876D01*
X426Y874D01*
X430Y874D01*
X430Y872D01*
X432Y872D01*
X432Y870D01*
X436Y870D01*
X436Y868D01*
X438Y868D01*
X438Y866D01*
X440Y866D01*
X440Y864D01*
X2086Y864D01*
X2086Y866D01*
X2078Y866D01*
X2078Y868D01*
X2074Y868D01*
X2074Y870D01*
X2070Y870D01*
X2070Y872D01*
X2068Y872D01*
X2068Y874D01*
X2064Y874D01*
X2064Y876D01*
X2062Y876D01*
X2062Y878D01*
X2060Y878D01*
X2060Y880D01*
X2058Y880D01*
X2058Y882D01*
X2056Y882D01*
X2056Y884D01*
X2054Y884D01*
X2054Y886D01*
X2052Y886D01*
X2052Y890D01*
X2050Y890D01*
X2050Y892D01*
X2048Y892D01*
X2048Y896D01*
X2046Y896D01*
X2046Y900D01*
X2044Y900D01*
X2044Y908D01*
X2042Y908D01*
X2042Y936D01*
X2044Y936D01*
X2044Y944D01*
X2046Y944D01*
X2046Y948D01*
X2048Y948D01*
X2048Y952D01*
X2050Y952D01*
X2050Y954D01*
X2052Y954D01*
X2052Y958D01*
X2054Y958D01*
X2054Y960D01*
X2056Y960D01*
X2056Y962D01*
X40Y962D01*
G37*
D02*
G36*
X2844Y962D02*
X2844Y960D01*
X2846Y960D01*
X2846Y958D01*
X2848Y958D01*
X2848Y954D01*
X2850Y954D01*
X2850Y952D01*
X2852Y952D01*
X2852Y948D01*
X2854Y948D01*
X2854Y944D01*
X2856Y944D01*
X2856Y936D01*
X2858Y936D01*
X2858Y908D01*
X2856Y908D01*
X2856Y900D01*
X2854Y900D01*
X2854Y896D01*
X2852Y896D01*
X2852Y892D01*
X2850Y892D01*
X2850Y890D01*
X2848Y890D01*
X2848Y886D01*
X2846Y886D01*
X2846Y884D01*
X2844Y884D01*
X2844Y882D01*
X2842Y882D01*
X2842Y880D01*
X3314Y880D01*
X3314Y878D01*
X3322Y878D01*
X3322Y876D01*
X3326Y876D01*
X3326Y874D01*
X3330Y874D01*
X3330Y872D01*
X3332Y872D01*
X3332Y870D01*
X3336Y870D01*
X3336Y868D01*
X3338Y868D01*
X3338Y866D01*
X3340Y866D01*
X3340Y864D01*
X3342Y864D01*
X3342Y862D01*
X3344Y862D01*
X3344Y860D01*
X3346Y860D01*
X3346Y858D01*
X3348Y858D01*
X3348Y854D01*
X3350Y854D01*
X3350Y852D01*
X3352Y852D01*
X3352Y848D01*
X3354Y848D01*
X3354Y844D01*
X3356Y844D01*
X3356Y836D01*
X3358Y836D01*
X3358Y808D01*
X3356Y808D01*
X3356Y800D01*
X3354Y800D01*
X3354Y796D01*
X3352Y796D01*
X3352Y792D01*
X3350Y792D01*
X3350Y790D01*
X3348Y790D01*
X3348Y786D01*
X3346Y786D01*
X3346Y784D01*
X3344Y784D01*
X3344Y782D01*
X3342Y782D01*
X3342Y762D01*
X3344Y762D01*
X3344Y760D01*
X3346Y760D01*
X3346Y758D01*
X3348Y758D01*
X3348Y754D01*
X3350Y754D01*
X3350Y752D01*
X3352Y752D01*
X3352Y748D01*
X3354Y748D01*
X3354Y744D01*
X3356Y744D01*
X3356Y736D01*
X3358Y736D01*
X3358Y708D01*
X3356Y708D01*
X3356Y700D01*
X3354Y700D01*
X3354Y696D01*
X3352Y696D01*
X3352Y692D01*
X3350Y692D01*
X3350Y690D01*
X3348Y690D01*
X3348Y686D01*
X3346Y686D01*
X3346Y684D01*
X3344Y684D01*
X3344Y682D01*
X3342Y682D01*
X3342Y662D01*
X3344Y662D01*
X3344Y660D01*
X3346Y660D01*
X3346Y658D01*
X3348Y658D01*
X3348Y654D01*
X3350Y654D01*
X3350Y652D01*
X3352Y652D01*
X3352Y648D01*
X3354Y648D01*
X3354Y644D01*
X3356Y644D01*
X3356Y636D01*
X3358Y636D01*
X3358Y608D01*
X3356Y608D01*
X3356Y600D01*
X3354Y600D01*
X3354Y596D01*
X3352Y596D01*
X3352Y592D01*
X3350Y592D01*
X3350Y590D01*
X3348Y590D01*
X3348Y586D01*
X3346Y586D01*
X3346Y584D01*
X3344Y584D01*
X3344Y582D01*
X3342Y582D01*
X3342Y580D01*
X3340Y580D01*
X3340Y578D01*
X3338Y578D01*
X3338Y576D01*
X3336Y576D01*
X3336Y574D01*
X3332Y574D01*
X3332Y572D01*
X3330Y572D01*
X3330Y570D01*
X3326Y570D01*
X3326Y568D01*
X3322Y568D01*
X3322Y566D01*
X3314Y566D01*
X3314Y564D01*
X3582Y564D01*
X3582Y962D01*
X2844Y962D01*
G37*
D02*
G36*
X2646Y890D02*
X2646Y886D01*
X2644Y886D01*
X2644Y884D01*
X2642Y884D01*
X2642Y882D01*
X2640Y882D01*
X2640Y880D01*
X2638Y880D01*
X2638Y878D01*
X2636Y878D01*
X2636Y876D01*
X2632Y876D01*
X2632Y874D01*
X2630Y874D01*
X2630Y872D01*
X2626Y872D01*
X2626Y870D01*
X2622Y870D01*
X2622Y868D01*
X2616Y868D01*
X2616Y866D01*
X2606Y866D01*
X2606Y864D01*
X2786Y864D01*
X2786Y866D01*
X2778Y866D01*
X2778Y868D01*
X2774Y868D01*
X2774Y870D01*
X2770Y870D01*
X2770Y872D01*
X2768Y872D01*
X2768Y874D01*
X2764Y874D01*
X2764Y876D01*
X2762Y876D01*
X2762Y878D01*
X2760Y878D01*
X2760Y880D01*
X2758Y880D01*
X2758Y882D01*
X2756Y882D01*
X2756Y884D01*
X2754Y884D01*
X2754Y886D01*
X2752Y886D01*
X2752Y890D01*
X2646Y890D01*
G37*
D02*
G36*
X40Y880D02*
X40Y564D01*
X286Y564D01*
X286Y566D01*
X278Y566D01*
X278Y568D01*
X274Y568D01*
X274Y570D01*
X270Y570D01*
X270Y572D01*
X268Y572D01*
X268Y574D01*
X264Y574D01*
X264Y576D01*
X262Y576D01*
X262Y578D01*
X260Y578D01*
X260Y580D01*
X258Y580D01*
X258Y582D01*
X256Y582D01*
X256Y584D01*
X254Y584D01*
X254Y586D01*
X252Y586D01*
X252Y590D01*
X250Y590D01*
X250Y592D01*
X248Y592D01*
X248Y596D01*
X246Y596D01*
X246Y600D01*
X244Y600D01*
X244Y608D01*
X242Y608D01*
X242Y636D01*
X244Y636D01*
X244Y644D01*
X246Y644D01*
X246Y648D01*
X248Y648D01*
X248Y652D01*
X250Y652D01*
X250Y654D01*
X252Y654D01*
X252Y658D01*
X254Y658D01*
X254Y660D01*
X256Y660D01*
X256Y662D01*
X258Y662D01*
X258Y682D01*
X256Y682D01*
X256Y684D01*
X254Y684D01*
X254Y686D01*
X252Y686D01*
X252Y690D01*
X250Y690D01*
X250Y692D01*
X248Y692D01*
X248Y696D01*
X246Y696D01*
X246Y700D01*
X244Y700D01*
X244Y708D01*
X242Y708D01*
X242Y736D01*
X244Y736D01*
X244Y744D01*
X246Y744D01*
X246Y748D01*
X248Y748D01*
X248Y752D01*
X250Y752D01*
X250Y754D01*
X252Y754D01*
X252Y758D01*
X254Y758D01*
X254Y760D01*
X256Y760D01*
X256Y762D01*
X258Y762D01*
X258Y782D01*
X256Y782D01*
X256Y784D01*
X254Y784D01*
X254Y786D01*
X252Y786D01*
X252Y790D01*
X250Y790D01*
X250Y792D01*
X248Y792D01*
X248Y796D01*
X246Y796D01*
X246Y800D01*
X244Y800D01*
X244Y808D01*
X242Y808D01*
X242Y836D01*
X244Y836D01*
X244Y844D01*
X246Y844D01*
X246Y848D01*
X248Y848D01*
X248Y852D01*
X250Y852D01*
X250Y854D01*
X252Y854D01*
X252Y858D01*
X254Y858D01*
X254Y860D01*
X256Y860D01*
X256Y862D01*
X258Y862D01*
X258Y864D01*
X260Y864D01*
X260Y866D01*
X262Y866D01*
X262Y868D01*
X264Y868D01*
X264Y870D01*
X268Y870D01*
X268Y872D01*
X270Y872D01*
X270Y874D01*
X274Y874D01*
X274Y876D01*
X278Y876D01*
X278Y878D01*
X286Y878D01*
X286Y880D01*
X40Y880D01*
G37*
D02*
G36*
X314Y880D02*
X314Y878D01*
X322Y878D01*
X322Y876D01*
X326Y876D01*
X326Y874D01*
X330Y874D01*
X330Y872D01*
X332Y872D01*
X332Y870D01*
X336Y870D01*
X336Y868D01*
X338Y868D01*
X338Y866D01*
X340Y866D01*
X340Y864D01*
X360Y864D01*
X360Y866D01*
X362Y866D01*
X362Y868D01*
X364Y868D01*
X364Y870D01*
X368Y870D01*
X368Y872D01*
X370Y872D01*
X370Y874D01*
X374Y874D01*
X374Y876D01*
X378Y876D01*
X378Y878D01*
X386Y878D01*
X386Y880D01*
X314Y880D01*
G37*
D02*
G36*
X2840Y880D02*
X2840Y878D01*
X2838Y878D01*
X2838Y876D01*
X2836Y876D01*
X2836Y874D01*
X2832Y874D01*
X2832Y872D01*
X2830Y872D01*
X2830Y870D01*
X2826Y870D01*
X2826Y868D01*
X2822Y868D01*
X2822Y866D01*
X2814Y866D01*
X2814Y864D01*
X3160Y864D01*
X3160Y866D01*
X3162Y866D01*
X3162Y868D01*
X3164Y868D01*
X3164Y870D01*
X3168Y870D01*
X3168Y872D01*
X3170Y872D01*
X3170Y874D01*
X3174Y874D01*
X3174Y876D01*
X3178Y876D01*
X3178Y878D01*
X3186Y878D01*
X3186Y880D01*
X2840Y880D01*
G37*
D02*
G36*
X3214Y880D02*
X3214Y878D01*
X3222Y878D01*
X3222Y876D01*
X3226Y876D01*
X3226Y874D01*
X3230Y874D01*
X3230Y872D01*
X3232Y872D01*
X3232Y870D01*
X3236Y870D01*
X3236Y868D01*
X3238Y868D01*
X3238Y866D01*
X3240Y866D01*
X3240Y864D01*
X3260Y864D01*
X3260Y866D01*
X3262Y866D01*
X3262Y868D01*
X3264Y868D01*
X3264Y870D01*
X3268Y870D01*
X3268Y872D01*
X3270Y872D01*
X3270Y874D01*
X3274Y874D01*
X3274Y876D01*
X3278Y876D01*
X3278Y878D01*
X3286Y878D01*
X3286Y880D01*
X3214Y880D01*
G37*
D02*
G36*
X442Y864D02*
X442Y862D01*
X3158Y862D01*
X3158Y864D01*
X442Y864D01*
G37*
D02*
G36*
X442Y864D02*
X442Y862D01*
X3158Y862D01*
X3158Y864D01*
X442Y864D01*
G37*
D02*
G36*
X442Y864D02*
X442Y862D01*
X3158Y862D01*
X3158Y864D01*
X442Y864D01*
G37*
D02*
G36*
X442Y864D02*
X442Y862D01*
X3158Y862D01*
X3158Y864D01*
X442Y864D01*
G37*
D02*
G36*
X442Y864D02*
X442Y862D01*
X3158Y862D01*
X3158Y864D01*
X442Y864D01*
G37*
D02*
G36*
X444Y862D02*
X444Y860D01*
X446Y860D01*
X446Y858D01*
X448Y858D01*
X448Y854D01*
X450Y854D01*
X450Y852D01*
X452Y852D01*
X452Y848D01*
X454Y848D01*
X454Y844D01*
X456Y844D01*
X456Y836D01*
X458Y836D01*
X458Y808D01*
X460Y808D01*
X460Y806D01*
X462Y806D01*
X462Y804D01*
X464Y804D01*
X464Y802D01*
X466Y802D01*
X466Y800D01*
X468Y800D01*
X468Y798D01*
X470Y798D01*
X470Y796D01*
X472Y796D01*
X472Y794D01*
X474Y794D01*
X474Y792D01*
X476Y792D01*
X476Y790D01*
X478Y790D01*
X478Y788D01*
X480Y788D01*
X480Y786D01*
X482Y786D01*
X482Y784D01*
X484Y784D01*
X484Y782D01*
X486Y782D01*
X486Y780D01*
X488Y780D01*
X488Y778D01*
X490Y778D01*
X490Y776D01*
X492Y776D01*
X492Y774D01*
X494Y774D01*
X494Y772D01*
X496Y772D01*
X496Y770D01*
X498Y770D01*
X498Y768D01*
X500Y768D01*
X500Y766D01*
X502Y766D01*
X502Y764D01*
X504Y764D01*
X504Y762D01*
X506Y762D01*
X506Y760D01*
X508Y760D01*
X508Y758D01*
X510Y758D01*
X510Y756D01*
X512Y756D01*
X512Y754D01*
X514Y754D01*
X514Y752D01*
X516Y752D01*
X516Y750D01*
X518Y750D01*
X518Y748D01*
X520Y748D01*
X520Y746D01*
X522Y746D01*
X522Y744D01*
X524Y744D01*
X524Y742D01*
X526Y742D01*
X526Y740D01*
X528Y740D01*
X528Y738D01*
X530Y738D01*
X530Y736D01*
X532Y736D01*
X532Y734D01*
X534Y734D01*
X534Y732D01*
X536Y732D01*
X536Y730D01*
X538Y730D01*
X538Y728D01*
X540Y728D01*
X540Y726D01*
X542Y726D01*
X542Y724D01*
X544Y724D01*
X544Y722D01*
X546Y722D01*
X546Y720D01*
X548Y720D01*
X548Y718D01*
X550Y718D01*
X550Y716D01*
X552Y716D01*
X552Y714D01*
X554Y714D01*
X554Y712D01*
X556Y712D01*
X556Y710D01*
X558Y710D01*
X558Y708D01*
X560Y708D01*
X560Y706D01*
X562Y706D01*
X562Y704D01*
X564Y704D01*
X564Y702D01*
X566Y702D01*
X566Y700D01*
X568Y700D01*
X568Y698D01*
X570Y698D01*
X570Y696D01*
X572Y696D01*
X572Y694D01*
X574Y694D01*
X574Y692D01*
X576Y692D01*
X576Y690D01*
X578Y690D01*
X578Y688D01*
X580Y688D01*
X580Y686D01*
X582Y686D01*
X582Y684D01*
X584Y684D01*
X584Y682D01*
X586Y682D01*
X586Y680D01*
X588Y680D01*
X588Y678D01*
X590Y678D01*
X590Y676D01*
X592Y676D01*
X592Y674D01*
X594Y674D01*
X594Y672D01*
X596Y672D01*
X596Y670D01*
X598Y670D01*
X598Y668D01*
X600Y668D01*
X600Y666D01*
X602Y666D01*
X602Y664D01*
X604Y664D01*
X604Y662D01*
X606Y662D01*
X606Y660D01*
X608Y660D01*
X608Y658D01*
X610Y658D01*
X610Y656D01*
X2404Y656D01*
X2404Y654D01*
X2410Y654D01*
X2410Y652D01*
X2414Y652D01*
X2414Y650D01*
X2418Y650D01*
X2418Y648D01*
X2420Y648D01*
X2420Y646D01*
X2422Y646D01*
X2422Y644D01*
X2424Y644D01*
X2424Y642D01*
X2426Y642D01*
X2426Y640D01*
X2428Y640D01*
X2428Y638D01*
X2430Y638D01*
X2430Y636D01*
X2432Y636D01*
X2432Y634D01*
X2434Y634D01*
X2434Y632D01*
X2436Y632D01*
X2436Y630D01*
X2438Y630D01*
X2438Y628D01*
X2440Y628D01*
X2440Y626D01*
X2442Y626D01*
X2442Y624D01*
X2444Y624D01*
X2444Y622D01*
X2446Y622D01*
X2446Y620D01*
X2448Y620D01*
X2448Y618D01*
X2450Y618D01*
X2450Y616D01*
X2452Y616D01*
X2452Y614D01*
X2454Y614D01*
X2454Y612D01*
X2456Y612D01*
X2456Y610D01*
X2458Y610D01*
X2458Y608D01*
X2460Y608D01*
X2460Y606D01*
X2462Y606D01*
X2462Y604D01*
X2464Y604D01*
X2464Y602D01*
X2466Y602D01*
X2466Y600D01*
X2468Y600D01*
X2468Y598D01*
X2470Y598D01*
X2470Y596D01*
X2472Y596D01*
X2472Y594D01*
X2474Y594D01*
X2474Y592D01*
X2476Y592D01*
X2476Y590D01*
X2478Y590D01*
X2478Y588D01*
X2480Y588D01*
X2480Y586D01*
X2482Y586D01*
X2482Y584D01*
X2484Y584D01*
X2484Y582D01*
X2486Y582D01*
X2486Y580D01*
X2488Y580D01*
X2488Y578D01*
X2490Y578D01*
X2490Y576D01*
X2492Y576D01*
X2492Y574D01*
X2494Y574D01*
X2494Y572D01*
X2496Y572D01*
X2496Y570D01*
X2498Y570D01*
X2498Y568D01*
X2500Y568D01*
X2500Y566D01*
X2502Y566D01*
X2502Y564D01*
X2504Y564D01*
X2504Y562D01*
X2506Y562D01*
X2506Y560D01*
X2508Y560D01*
X2508Y558D01*
X2510Y558D01*
X2510Y556D01*
X2512Y556D01*
X2512Y554D01*
X2514Y554D01*
X2514Y552D01*
X2516Y552D01*
X2516Y550D01*
X2518Y550D01*
X2518Y548D01*
X2520Y548D01*
X2520Y546D01*
X2522Y546D01*
X2522Y544D01*
X2524Y544D01*
X2524Y542D01*
X2526Y542D01*
X2526Y540D01*
X2528Y540D01*
X2528Y538D01*
X2530Y538D01*
X2530Y536D01*
X2532Y536D01*
X2532Y534D01*
X2534Y534D01*
X2534Y532D01*
X2536Y532D01*
X2536Y530D01*
X2538Y530D01*
X2538Y528D01*
X2540Y528D01*
X2540Y526D01*
X2542Y526D01*
X2542Y524D01*
X2544Y524D01*
X2544Y522D01*
X2546Y522D01*
X2546Y520D01*
X2548Y520D01*
X2548Y518D01*
X2550Y518D01*
X2550Y516D01*
X2552Y516D01*
X2552Y514D01*
X2554Y514D01*
X2554Y512D01*
X2556Y512D01*
X2556Y510D01*
X2558Y510D01*
X2558Y508D01*
X2560Y508D01*
X2560Y506D01*
X2562Y506D01*
X2562Y504D01*
X2564Y504D01*
X2564Y502D01*
X2566Y502D01*
X2566Y500D01*
X2568Y500D01*
X2568Y498D01*
X2570Y498D01*
X2570Y496D01*
X2572Y496D01*
X2572Y494D01*
X2574Y494D01*
X2574Y492D01*
X2576Y492D01*
X2576Y490D01*
X2578Y490D01*
X2578Y488D01*
X2580Y488D01*
X2580Y486D01*
X2582Y486D01*
X2582Y484D01*
X2584Y484D01*
X2584Y482D01*
X2586Y482D01*
X2586Y480D01*
X2614Y480D01*
X2614Y478D01*
X2622Y478D01*
X2622Y476D01*
X2626Y476D01*
X2626Y474D01*
X2630Y474D01*
X2630Y472D01*
X2632Y472D01*
X2632Y470D01*
X2636Y470D01*
X2636Y468D01*
X2638Y468D01*
X2638Y466D01*
X2640Y466D01*
X2640Y464D01*
X2642Y464D01*
X2642Y462D01*
X2644Y462D01*
X2644Y460D01*
X2646Y460D01*
X2646Y458D01*
X2648Y458D01*
X2648Y454D01*
X2650Y454D01*
X2650Y452D01*
X2652Y452D01*
X2652Y448D01*
X2654Y448D01*
X2654Y444D01*
X2656Y444D01*
X2656Y436D01*
X2658Y436D01*
X2658Y408D01*
X2656Y408D01*
X2656Y400D01*
X2654Y400D01*
X2654Y396D01*
X2652Y396D01*
X2652Y392D01*
X2650Y392D01*
X2650Y390D01*
X2648Y390D01*
X2648Y386D01*
X2646Y386D01*
X2646Y384D01*
X2644Y384D01*
X2644Y382D01*
X2642Y382D01*
X2642Y362D01*
X2644Y362D01*
X2644Y360D01*
X2646Y360D01*
X2646Y358D01*
X2648Y358D01*
X2648Y354D01*
X2650Y354D01*
X2650Y352D01*
X2652Y352D01*
X2652Y348D01*
X2654Y348D01*
X2654Y344D01*
X2656Y344D01*
X2656Y336D01*
X2658Y336D01*
X2658Y308D01*
X2656Y308D01*
X2656Y300D01*
X2654Y300D01*
X2654Y296D01*
X2652Y296D01*
X2652Y292D01*
X2650Y292D01*
X2650Y290D01*
X2648Y290D01*
X2648Y286D01*
X2646Y286D01*
X2646Y284D01*
X2644Y284D01*
X2644Y282D01*
X2642Y282D01*
X2642Y280D01*
X2640Y280D01*
X2640Y278D01*
X2638Y278D01*
X2638Y276D01*
X2636Y276D01*
X2636Y274D01*
X2632Y274D01*
X2632Y272D01*
X2630Y272D01*
X2630Y270D01*
X2626Y270D01*
X2626Y268D01*
X2622Y268D01*
X2622Y266D01*
X2614Y266D01*
X2614Y264D01*
X2786Y264D01*
X2786Y266D01*
X2778Y266D01*
X2778Y268D01*
X2774Y268D01*
X2774Y270D01*
X2770Y270D01*
X2770Y272D01*
X2768Y272D01*
X2768Y274D01*
X2764Y274D01*
X2764Y276D01*
X2762Y276D01*
X2762Y278D01*
X2760Y278D01*
X2760Y280D01*
X2758Y280D01*
X2758Y282D01*
X2756Y282D01*
X2756Y284D01*
X2754Y284D01*
X2754Y286D01*
X2752Y286D01*
X2752Y290D01*
X2750Y290D01*
X2750Y292D01*
X2748Y292D01*
X2748Y296D01*
X2746Y296D01*
X2746Y300D01*
X2744Y300D01*
X2744Y308D01*
X2742Y308D01*
X2742Y336D01*
X2744Y336D01*
X2744Y344D01*
X2746Y344D01*
X2746Y348D01*
X2748Y348D01*
X2748Y352D01*
X2750Y352D01*
X2750Y354D01*
X2752Y354D01*
X2752Y358D01*
X2754Y358D01*
X2754Y360D01*
X2756Y360D01*
X2756Y362D01*
X2758Y362D01*
X2758Y382D01*
X2756Y382D01*
X2756Y384D01*
X2754Y384D01*
X2754Y386D01*
X2752Y386D01*
X2752Y390D01*
X2750Y390D01*
X2750Y392D01*
X2748Y392D01*
X2748Y396D01*
X2746Y396D01*
X2746Y400D01*
X2744Y400D01*
X2744Y408D01*
X2742Y408D01*
X2742Y436D01*
X2744Y436D01*
X2744Y444D01*
X2746Y444D01*
X2746Y448D01*
X2748Y448D01*
X2748Y452D01*
X2750Y452D01*
X2750Y454D01*
X2752Y454D01*
X2752Y458D01*
X2754Y458D01*
X2754Y460D01*
X2756Y460D01*
X2756Y462D01*
X2758Y462D01*
X2758Y464D01*
X2760Y464D01*
X2760Y466D01*
X2762Y466D01*
X2762Y468D01*
X2764Y468D01*
X2764Y470D01*
X2768Y470D01*
X2768Y472D01*
X2770Y472D01*
X2770Y474D01*
X2774Y474D01*
X2774Y476D01*
X2778Y476D01*
X2778Y478D01*
X2786Y478D01*
X2786Y480D01*
X2814Y480D01*
X2814Y482D01*
X2816Y482D01*
X2816Y484D01*
X2818Y484D01*
X2818Y486D01*
X2820Y486D01*
X2820Y488D01*
X2822Y488D01*
X2822Y490D01*
X2824Y490D01*
X2824Y492D01*
X2826Y492D01*
X2826Y494D01*
X2828Y494D01*
X2828Y496D01*
X2830Y496D01*
X2830Y498D01*
X2832Y498D01*
X2832Y500D01*
X2834Y500D01*
X2834Y502D01*
X2836Y502D01*
X2836Y504D01*
X2838Y504D01*
X2838Y506D01*
X2840Y506D01*
X2840Y508D01*
X2842Y508D01*
X2842Y510D01*
X2844Y510D01*
X2844Y512D01*
X2846Y512D01*
X2846Y514D01*
X2848Y514D01*
X2848Y516D01*
X2850Y516D01*
X2850Y518D01*
X2852Y518D01*
X2852Y520D01*
X2854Y520D01*
X2854Y522D01*
X2856Y522D01*
X2856Y524D01*
X2858Y524D01*
X2858Y526D01*
X2860Y526D01*
X2860Y528D01*
X2862Y528D01*
X2862Y530D01*
X2864Y530D01*
X2864Y532D01*
X2866Y532D01*
X2866Y534D01*
X2868Y534D01*
X2868Y536D01*
X2870Y536D01*
X2870Y538D01*
X2872Y538D01*
X2872Y540D01*
X2874Y540D01*
X2874Y542D01*
X2876Y542D01*
X2876Y544D01*
X2878Y544D01*
X2878Y546D01*
X2880Y546D01*
X2880Y548D01*
X2882Y548D01*
X2882Y550D01*
X2884Y550D01*
X2884Y552D01*
X2886Y552D01*
X2886Y554D01*
X2888Y554D01*
X2888Y556D01*
X2890Y556D01*
X2890Y558D01*
X2892Y558D01*
X2892Y560D01*
X2894Y560D01*
X2894Y562D01*
X2896Y562D01*
X2896Y564D01*
X2898Y564D01*
X2898Y566D01*
X2900Y566D01*
X2900Y568D01*
X2902Y568D01*
X2902Y570D01*
X2904Y570D01*
X2904Y572D01*
X2906Y572D01*
X2906Y574D01*
X2908Y574D01*
X2908Y576D01*
X2910Y576D01*
X2910Y578D01*
X2912Y578D01*
X2912Y580D01*
X2914Y580D01*
X2914Y582D01*
X2916Y582D01*
X2916Y584D01*
X2918Y584D01*
X2918Y586D01*
X2920Y586D01*
X2920Y588D01*
X2922Y588D01*
X2922Y590D01*
X2924Y590D01*
X2924Y592D01*
X2926Y592D01*
X2926Y594D01*
X2928Y594D01*
X2928Y596D01*
X2930Y596D01*
X2930Y598D01*
X2932Y598D01*
X2932Y600D01*
X2934Y600D01*
X2934Y602D01*
X2936Y602D01*
X2936Y604D01*
X2938Y604D01*
X2938Y606D01*
X2940Y606D01*
X2940Y608D01*
X2942Y608D01*
X2942Y610D01*
X2944Y610D01*
X2944Y612D01*
X2946Y612D01*
X2946Y614D01*
X2948Y614D01*
X2948Y616D01*
X2950Y616D01*
X2950Y618D01*
X2952Y618D01*
X2952Y620D01*
X2954Y620D01*
X2954Y622D01*
X2956Y622D01*
X2956Y624D01*
X2958Y624D01*
X2958Y626D01*
X2960Y626D01*
X2960Y628D01*
X2962Y628D01*
X2962Y630D01*
X2964Y630D01*
X2964Y632D01*
X2966Y632D01*
X2966Y634D01*
X2968Y634D01*
X2968Y636D01*
X2970Y636D01*
X2970Y638D01*
X2972Y638D01*
X2972Y640D01*
X2974Y640D01*
X2974Y642D01*
X2976Y642D01*
X2976Y644D01*
X2978Y644D01*
X2978Y646D01*
X2980Y646D01*
X2980Y648D01*
X2982Y648D01*
X2982Y650D01*
X2984Y650D01*
X2984Y652D01*
X2986Y652D01*
X2986Y654D01*
X2988Y654D01*
X2988Y656D01*
X2990Y656D01*
X2990Y658D01*
X2992Y658D01*
X2992Y660D01*
X2994Y660D01*
X2994Y662D01*
X2996Y662D01*
X2996Y664D01*
X2998Y664D01*
X2998Y666D01*
X3000Y666D01*
X3000Y668D01*
X3002Y668D01*
X3002Y670D01*
X3004Y670D01*
X3004Y672D01*
X3006Y672D01*
X3006Y674D01*
X3008Y674D01*
X3008Y676D01*
X3010Y676D01*
X3010Y678D01*
X3012Y678D01*
X3012Y680D01*
X3014Y680D01*
X3014Y682D01*
X3016Y682D01*
X3016Y684D01*
X3018Y684D01*
X3018Y686D01*
X3020Y686D01*
X3020Y688D01*
X3022Y688D01*
X3022Y690D01*
X3024Y690D01*
X3024Y692D01*
X3026Y692D01*
X3026Y694D01*
X3028Y694D01*
X3028Y696D01*
X3030Y696D01*
X3030Y698D01*
X3032Y698D01*
X3032Y700D01*
X3034Y700D01*
X3034Y702D01*
X3036Y702D01*
X3036Y704D01*
X3038Y704D01*
X3038Y706D01*
X3040Y706D01*
X3040Y708D01*
X3042Y708D01*
X3042Y710D01*
X3044Y710D01*
X3044Y712D01*
X3046Y712D01*
X3046Y714D01*
X3048Y714D01*
X3048Y716D01*
X3050Y716D01*
X3050Y718D01*
X3052Y718D01*
X3052Y720D01*
X3054Y720D01*
X3054Y722D01*
X3056Y722D01*
X3056Y724D01*
X3058Y724D01*
X3058Y726D01*
X3060Y726D01*
X3060Y728D01*
X3062Y728D01*
X3062Y730D01*
X3064Y730D01*
X3064Y732D01*
X3066Y732D01*
X3066Y734D01*
X3068Y734D01*
X3068Y736D01*
X3070Y736D01*
X3070Y738D01*
X3072Y738D01*
X3072Y740D01*
X3074Y740D01*
X3074Y742D01*
X3076Y742D01*
X3076Y744D01*
X3078Y744D01*
X3078Y746D01*
X3080Y746D01*
X3080Y748D01*
X3082Y748D01*
X3082Y750D01*
X3084Y750D01*
X3084Y752D01*
X3086Y752D01*
X3086Y754D01*
X3088Y754D01*
X3088Y756D01*
X3090Y756D01*
X3090Y758D01*
X3092Y758D01*
X3092Y760D01*
X3094Y760D01*
X3094Y762D01*
X3096Y762D01*
X3096Y764D01*
X3098Y764D01*
X3098Y766D01*
X3100Y766D01*
X3100Y768D01*
X3102Y768D01*
X3102Y770D01*
X3104Y770D01*
X3104Y772D01*
X3106Y772D01*
X3106Y774D01*
X3108Y774D01*
X3108Y776D01*
X3110Y776D01*
X3110Y778D01*
X3112Y778D01*
X3112Y780D01*
X3114Y780D01*
X3114Y782D01*
X3116Y782D01*
X3116Y784D01*
X3118Y784D01*
X3118Y786D01*
X3120Y786D01*
X3120Y788D01*
X3122Y788D01*
X3122Y790D01*
X3124Y790D01*
X3124Y792D01*
X3126Y792D01*
X3126Y794D01*
X3128Y794D01*
X3128Y796D01*
X3130Y796D01*
X3130Y798D01*
X3132Y798D01*
X3132Y800D01*
X3134Y800D01*
X3134Y802D01*
X3136Y802D01*
X3136Y804D01*
X3138Y804D01*
X3138Y806D01*
X3140Y806D01*
X3140Y808D01*
X3142Y808D01*
X3142Y836D01*
X3144Y836D01*
X3144Y844D01*
X3146Y844D01*
X3146Y848D01*
X3148Y848D01*
X3148Y852D01*
X3150Y852D01*
X3150Y854D01*
X3152Y854D01*
X3152Y858D01*
X3154Y858D01*
X3154Y860D01*
X3156Y860D01*
X3156Y862D01*
X444Y862D01*
G37*
D02*
G36*
X612Y656D02*
X612Y654D01*
X614Y654D01*
X614Y652D01*
X616Y652D01*
X616Y650D01*
X618Y650D01*
X618Y648D01*
X620Y648D01*
X620Y646D01*
X622Y646D01*
X622Y644D01*
X624Y644D01*
X624Y642D01*
X626Y642D01*
X626Y640D01*
X628Y640D01*
X628Y638D01*
X630Y638D01*
X630Y636D01*
X632Y636D01*
X632Y634D01*
X634Y634D01*
X634Y632D01*
X636Y632D01*
X636Y630D01*
X638Y630D01*
X638Y628D01*
X640Y628D01*
X640Y626D01*
X642Y626D01*
X642Y624D01*
X644Y624D01*
X644Y622D01*
X646Y622D01*
X646Y620D01*
X648Y620D01*
X648Y618D01*
X650Y618D01*
X650Y616D01*
X652Y616D01*
X652Y614D01*
X654Y614D01*
X654Y612D01*
X656Y612D01*
X656Y610D01*
X658Y610D01*
X658Y608D01*
X660Y608D01*
X660Y606D01*
X662Y606D01*
X662Y604D01*
X664Y604D01*
X664Y602D01*
X666Y602D01*
X666Y600D01*
X668Y600D01*
X668Y598D01*
X670Y598D01*
X670Y596D01*
X672Y596D01*
X672Y594D01*
X674Y594D01*
X674Y592D01*
X676Y592D01*
X676Y590D01*
X678Y590D01*
X678Y588D01*
X680Y588D01*
X680Y586D01*
X682Y586D01*
X682Y584D01*
X684Y584D01*
X684Y582D01*
X686Y582D01*
X686Y580D01*
X688Y580D01*
X688Y578D01*
X690Y578D01*
X690Y576D01*
X692Y576D01*
X692Y574D01*
X694Y574D01*
X694Y572D01*
X696Y572D01*
X696Y570D01*
X698Y570D01*
X698Y568D01*
X700Y568D01*
X700Y566D01*
X702Y566D01*
X702Y564D01*
X704Y564D01*
X704Y562D01*
X706Y562D01*
X706Y560D01*
X708Y560D01*
X708Y558D01*
X710Y558D01*
X710Y556D01*
X712Y556D01*
X712Y554D01*
X714Y554D01*
X714Y552D01*
X716Y552D01*
X716Y550D01*
X718Y550D01*
X718Y548D01*
X720Y548D01*
X720Y546D01*
X722Y546D01*
X722Y544D01*
X724Y544D01*
X724Y542D01*
X726Y542D01*
X726Y540D01*
X728Y540D01*
X728Y538D01*
X730Y538D01*
X730Y536D01*
X732Y536D01*
X732Y534D01*
X734Y534D01*
X734Y532D01*
X736Y532D01*
X736Y530D01*
X738Y530D01*
X738Y528D01*
X740Y528D01*
X740Y526D01*
X742Y526D01*
X742Y524D01*
X744Y524D01*
X744Y522D01*
X746Y522D01*
X746Y520D01*
X748Y520D01*
X748Y518D01*
X750Y518D01*
X750Y516D01*
X752Y516D01*
X752Y514D01*
X754Y514D01*
X754Y512D01*
X756Y512D01*
X756Y510D01*
X758Y510D01*
X758Y508D01*
X760Y508D01*
X760Y506D01*
X762Y506D01*
X762Y504D01*
X764Y504D01*
X764Y502D01*
X766Y502D01*
X766Y500D01*
X768Y500D01*
X768Y498D01*
X770Y498D01*
X770Y496D01*
X772Y496D01*
X772Y494D01*
X774Y494D01*
X774Y492D01*
X776Y492D01*
X776Y490D01*
X778Y490D01*
X778Y488D01*
X780Y488D01*
X780Y486D01*
X782Y486D01*
X782Y484D01*
X784Y484D01*
X784Y482D01*
X786Y482D01*
X786Y480D01*
X814Y480D01*
X814Y478D01*
X822Y478D01*
X822Y476D01*
X826Y476D01*
X826Y474D01*
X830Y474D01*
X830Y472D01*
X832Y472D01*
X832Y470D01*
X836Y470D01*
X836Y468D01*
X838Y468D01*
X838Y466D01*
X840Y466D01*
X840Y464D01*
X842Y464D01*
X842Y462D01*
X844Y462D01*
X844Y460D01*
X846Y460D01*
X846Y458D01*
X848Y458D01*
X848Y454D01*
X850Y454D01*
X850Y452D01*
X852Y452D01*
X852Y448D01*
X854Y448D01*
X854Y444D01*
X856Y444D01*
X856Y436D01*
X858Y436D01*
X858Y408D01*
X856Y408D01*
X856Y400D01*
X854Y400D01*
X854Y396D01*
X852Y396D01*
X852Y392D01*
X850Y392D01*
X850Y390D01*
X848Y390D01*
X848Y386D01*
X846Y386D01*
X846Y384D01*
X844Y384D01*
X844Y382D01*
X842Y382D01*
X842Y362D01*
X844Y362D01*
X844Y360D01*
X846Y360D01*
X846Y358D01*
X848Y358D01*
X848Y354D01*
X850Y354D01*
X850Y352D01*
X852Y352D01*
X852Y348D01*
X854Y348D01*
X854Y344D01*
X856Y344D01*
X856Y336D01*
X858Y336D01*
X858Y308D01*
X856Y308D01*
X856Y300D01*
X854Y300D01*
X854Y296D01*
X852Y296D01*
X852Y292D01*
X850Y292D01*
X850Y290D01*
X848Y290D01*
X848Y286D01*
X846Y286D01*
X846Y284D01*
X844Y284D01*
X844Y282D01*
X842Y282D01*
X842Y280D01*
X840Y280D01*
X840Y278D01*
X838Y278D01*
X838Y276D01*
X836Y276D01*
X836Y274D01*
X832Y274D01*
X832Y272D01*
X830Y272D01*
X830Y270D01*
X826Y270D01*
X826Y268D01*
X822Y268D01*
X822Y266D01*
X814Y266D01*
X814Y264D01*
X986Y264D01*
X986Y266D01*
X978Y266D01*
X978Y268D01*
X974Y268D01*
X974Y270D01*
X970Y270D01*
X970Y272D01*
X968Y272D01*
X968Y274D01*
X964Y274D01*
X964Y276D01*
X962Y276D01*
X962Y278D01*
X960Y278D01*
X960Y280D01*
X958Y280D01*
X958Y282D01*
X956Y282D01*
X956Y284D01*
X954Y284D01*
X954Y286D01*
X952Y286D01*
X952Y290D01*
X950Y290D01*
X950Y292D01*
X948Y292D01*
X948Y296D01*
X946Y296D01*
X946Y300D01*
X944Y300D01*
X944Y308D01*
X942Y308D01*
X942Y336D01*
X944Y336D01*
X944Y344D01*
X946Y344D01*
X946Y348D01*
X948Y348D01*
X948Y352D01*
X950Y352D01*
X950Y354D01*
X952Y354D01*
X952Y358D01*
X954Y358D01*
X954Y360D01*
X956Y360D01*
X956Y362D01*
X958Y362D01*
X958Y382D01*
X956Y382D01*
X956Y384D01*
X954Y384D01*
X954Y386D01*
X952Y386D01*
X952Y390D01*
X950Y390D01*
X950Y392D01*
X948Y392D01*
X948Y396D01*
X946Y396D01*
X946Y400D01*
X944Y400D01*
X944Y408D01*
X942Y408D01*
X942Y436D01*
X944Y436D01*
X944Y444D01*
X946Y444D01*
X946Y448D01*
X948Y448D01*
X948Y452D01*
X950Y452D01*
X950Y454D01*
X952Y454D01*
X952Y458D01*
X954Y458D01*
X954Y460D01*
X956Y460D01*
X956Y462D01*
X958Y462D01*
X958Y464D01*
X960Y464D01*
X960Y466D01*
X962Y466D01*
X962Y468D01*
X964Y468D01*
X964Y470D01*
X968Y470D01*
X968Y472D01*
X970Y472D01*
X970Y474D01*
X974Y474D01*
X974Y476D01*
X978Y476D01*
X978Y478D01*
X986Y478D01*
X986Y480D01*
X1014Y480D01*
X1014Y482D01*
X1016Y482D01*
X1016Y484D01*
X1018Y484D01*
X1018Y486D01*
X1020Y486D01*
X1020Y488D01*
X1022Y488D01*
X1022Y490D01*
X1024Y490D01*
X1024Y492D01*
X1026Y492D01*
X1026Y494D01*
X1028Y494D01*
X1028Y496D01*
X1030Y496D01*
X1030Y498D01*
X1032Y498D01*
X1032Y500D01*
X1034Y500D01*
X1034Y502D01*
X1036Y502D01*
X1036Y504D01*
X1038Y504D01*
X1038Y506D01*
X1040Y506D01*
X1040Y508D01*
X1042Y508D01*
X1042Y510D01*
X1044Y510D01*
X1044Y512D01*
X1046Y512D01*
X1046Y514D01*
X1048Y514D01*
X1048Y516D01*
X1050Y516D01*
X1050Y518D01*
X1052Y518D01*
X1052Y520D01*
X1054Y520D01*
X1054Y522D01*
X1056Y522D01*
X1056Y524D01*
X1058Y524D01*
X1058Y526D01*
X1060Y526D01*
X1060Y528D01*
X1062Y528D01*
X1062Y530D01*
X1064Y530D01*
X1064Y532D01*
X1066Y532D01*
X1066Y534D01*
X1068Y534D01*
X1068Y536D01*
X1070Y536D01*
X1070Y538D01*
X1072Y538D01*
X1072Y540D01*
X1074Y540D01*
X1074Y542D01*
X1076Y542D01*
X1076Y544D01*
X1078Y544D01*
X1078Y546D01*
X1080Y546D01*
X1080Y548D01*
X1082Y548D01*
X1082Y550D01*
X1084Y550D01*
X1084Y552D01*
X1086Y552D01*
X1086Y554D01*
X1088Y554D01*
X1088Y556D01*
X1090Y556D01*
X1090Y558D01*
X1092Y558D01*
X1092Y560D01*
X1094Y560D01*
X1094Y562D01*
X1096Y562D01*
X1096Y564D01*
X1098Y564D01*
X1098Y566D01*
X1100Y566D01*
X1100Y568D01*
X1102Y568D01*
X1102Y570D01*
X1104Y570D01*
X1104Y572D01*
X1106Y572D01*
X1106Y574D01*
X1108Y574D01*
X1108Y576D01*
X1110Y576D01*
X1110Y578D01*
X1112Y578D01*
X1112Y580D01*
X1114Y580D01*
X1114Y582D01*
X1116Y582D01*
X1116Y584D01*
X1118Y584D01*
X1118Y586D01*
X1120Y586D01*
X1120Y588D01*
X1122Y588D01*
X1122Y590D01*
X1124Y590D01*
X1124Y592D01*
X1126Y592D01*
X1126Y594D01*
X1128Y594D01*
X1128Y596D01*
X1130Y596D01*
X1130Y598D01*
X1132Y598D01*
X1132Y600D01*
X1134Y600D01*
X1134Y602D01*
X1136Y602D01*
X1136Y604D01*
X1138Y604D01*
X1138Y606D01*
X1140Y606D01*
X1140Y608D01*
X1142Y608D01*
X1142Y610D01*
X1144Y610D01*
X1144Y612D01*
X1146Y612D01*
X1146Y614D01*
X1148Y614D01*
X1148Y616D01*
X1150Y616D01*
X1150Y618D01*
X1152Y618D01*
X1152Y620D01*
X1154Y620D01*
X1154Y622D01*
X1156Y622D01*
X1156Y624D01*
X1158Y624D01*
X1158Y626D01*
X1160Y626D01*
X1160Y628D01*
X1162Y628D01*
X1162Y630D01*
X1164Y630D01*
X1164Y632D01*
X1166Y632D01*
X1166Y634D01*
X1168Y634D01*
X1168Y636D01*
X1170Y636D01*
X1170Y638D01*
X1172Y638D01*
X1172Y640D01*
X1174Y640D01*
X1174Y642D01*
X1176Y642D01*
X1176Y644D01*
X1178Y644D01*
X1178Y646D01*
X1180Y646D01*
X1180Y648D01*
X1182Y648D01*
X1182Y650D01*
X1184Y650D01*
X1184Y652D01*
X1188Y652D01*
X1188Y654D01*
X1194Y654D01*
X1194Y656D01*
X612Y656D01*
G37*
D02*
G36*
X340Y580D02*
X340Y578D01*
X338Y578D01*
X338Y576D01*
X336Y576D01*
X336Y574D01*
X332Y574D01*
X332Y572D01*
X330Y572D01*
X330Y570D01*
X326Y570D01*
X326Y568D01*
X322Y568D01*
X322Y566D01*
X314Y566D01*
X314Y564D01*
X386Y564D01*
X386Y566D01*
X378Y566D01*
X378Y568D01*
X374Y568D01*
X374Y570D01*
X370Y570D01*
X370Y572D01*
X368Y572D01*
X368Y574D01*
X364Y574D01*
X364Y576D01*
X362Y576D01*
X362Y578D01*
X360Y578D01*
X360Y580D01*
X340Y580D01*
G37*
D02*
G36*
X3240Y580D02*
X3240Y578D01*
X3238Y578D01*
X3238Y576D01*
X3236Y576D01*
X3236Y574D01*
X3232Y574D01*
X3232Y572D01*
X3230Y572D01*
X3230Y570D01*
X3226Y570D01*
X3226Y568D01*
X3222Y568D01*
X3222Y566D01*
X3214Y566D01*
X3214Y564D01*
X3286Y564D01*
X3286Y566D01*
X3278Y566D01*
X3278Y568D01*
X3274Y568D01*
X3274Y570D01*
X3270Y570D01*
X3270Y572D01*
X3268Y572D01*
X3268Y574D01*
X3264Y574D01*
X3264Y576D01*
X3262Y576D01*
X3262Y578D01*
X3260Y578D01*
X3260Y580D01*
X3240Y580D01*
G37*
D02*
G36*
X40Y564D02*
X40Y562D01*
X414Y562D01*
X414Y564D01*
X40Y564D01*
G37*
D02*
G36*
X40Y564D02*
X40Y562D01*
X414Y562D01*
X414Y564D01*
X40Y564D01*
G37*
D02*
G36*
X3186Y564D02*
X3186Y562D01*
X3582Y562D01*
X3582Y564D01*
X3186Y564D01*
G37*
D02*
G36*
X3186Y564D02*
X3186Y562D01*
X3582Y562D01*
X3582Y564D01*
X3186Y564D01*
G37*
D02*
G36*
X40Y562D02*
X40Y264D01*
X586Y264D01*
X586Y266D01*
X578Y266D01*
X578Y268D01*
X574Y268D01*
X574Y270D01*
X570Y270D01*
X570Y272D01*
X568Y272D01*
X568Y274D01*
X564Y274D01*
X564Y276D01*
X562Y276D01*
X562Y278D01*
X560Y278D01*
X560Y280D01*
X558Y280D01*
X558Y282D01*
X556Y282D01*
X556Y284D01*
X554Y284D01*
X554Y286D01*
X552Y286D01*
X552Y290D01*
X550Y290D01*
X550Y292D01*
X548Y292D01*
X548Y296D01*
X546Y296D01*
X546Y300D01*
X544Y300D01*
X544Y308D01*
X542Y308D01*
X542Y336D01*
X544Y336D01*
X544Y344D01*
X546Y344D01*
X546Y348D01*
X548Y348D01*
X548Y352D01*
X550Y352D01*
X550Y354D01*
X552Y354D01*
X552Y358D01*
X554Y358D01*
X554Y360D01*
X556Y360D01*
X556Y362D01*
X558Y362D01*
X558Y382D01*
X556Y382D01*
X556Y384D01*
X554Y384D01*
X554Y386D01*
X552Y386D01*
X552Y390D01*
X550Y390D01*
X550Y392D01*
X548Y392D01*
X548Y396D01*
X546Y396D01*
X546Y400D01*
X544Y400D01*
X544Y408D01*
X542Y408D01*
X542Y436D01*
X540Y436D01*
X540Y438D01*
X538Y438D01*
X538Y440D01*
X536Y440D01*
X536Y442D01*
X534Y442D01*
X534Y444D01*
X532Y444D01*
X532Y446D01*
X530Y446D01*
X530Y448D01*
X528Y448D01*
X528Y450D01*
X526Y450D01*
X526Y452D01*
X524Y452D01*
X524Y454D01*
X522Y454D01*
X522Y456D01*
X520Y456D01*
X520Y458D01*
X518Y458D01*
X518Y460D01*
X516Y460D01*
X516Y462D01*
X514Y462D01*
X514Y464D01*
X512Y464D01*
X512Y466D01*
X510Y466D01*
X510Y468D01*
X508Y468D01*
X508Y470D01*
X506Y470D01*
X506Y472D01*
X504Y472D01*
X504Y474D01*
X502Y474D01*
X502Y476D01*
X500Y476D01*
X500Y478D01*
X498Y478D01*
X498Y480D01*
X496Y480D01*
X496Y482D01*
X494Y482D01*
X494Y484D01*
X492Y484D01*
X492Y486D01*
X490Y486D01*
X490Y488D01*
X488Y488D01*
X488Y490D01*
X486Y490D01*
X486Y492D01*
X484Y492D01*
X484Y494D01*
X482Y494D01*
X482Y496D01*
X480Y496D01*
X480Y498D01*
X478Y498D01*
X478Y500D01*
X476Y500D01*
X476Y502D01*
X474Y502D01*
X474Y504D01*
X472Y504D01*
X472Y506D01*
X470Y506D01*
X470Y508D01*
X468Y508D01*
X468Y510D01*
X466Y510D01*
X466Y512D01*
X464Y512D01*
X464Y514D01*
X462Y514D01*
X462Y516D01*
X460Y516D01*
X460Y518D01*
X458Y518D01*
X458Y520D01*
X456Y520D01*
X456Y522D01*
X454Y522D01*
X454Y524D01*
X452Y524D01*
X452Y526D01*
X450Y526D01*
X450Y528D01*
X448Y528D01*
X448Y530D01*
X446Y530D01*
X446Y532D01*
X444Y532D01*
X444Y534D01*
X442Y534D01*
X442Y536D01*
X440Y536D01*
X440Y538D01*
X438Y538D01*
X438Y540D01*
X436Y540D01*
X436Y542D01*
X434Y542D01*
X434Y544D01*
X432Y544D01*
X432Y546D01*
X430Y546D01*
X430Y548D01*
X428Y548D01*
X428Y550D01*
X426Y550D01*
X426Y552D01*
X424Y552D01*
X424Y554D01*
X422Y554D01*
X422Y556D01*
X420Y556D01*
X420Y558D01*
X418Y558D01*
X418Y560D01*
X416Y560D01*
X416Y562D01*
X40Y562D01*
G37*
D02*
G36*
X3184Y562D02*
X3184Y560D01*
X3182Y560D01*
X3182Y558D01*
X3180Y558D01*
X3180Y556D01*
X3178Y556D01*
X3178Y554D01*
X3176Y554D01*
X3176Y552D01*
X3174Y552D01*
X3174Y550D01*
X3172Y550D01*
X3172Y548D01*
X3170Y548D01*
X3170Y546D01*
X3168Y546D01*
X3168Y544D01*
X3166Y544D01*
X3166Y542D01*
X3164Y542D01*
X3164Y540D01*
X3162Y540D01*
X3162Y538D01*
X3160Y538D01*
X3160Y536D01*
X3158Y536D01*
X3158Y534D01*
X3156Y534D01*
X3156Y532D01*
X3154Y532D01*
X3154Y530D01*
X3152Y530D01*
X3152Y528D01*
X3150Y528D01*
X3150Y526D01*
X3148Y526D01*
X3148Y524D01*
X3146Y524D01*
X3146Y522D01*
X3144Y522D01*
X3144Y520D01*
X3142Y520D01*
X3142Y518D01*
X3140Y518D01*
X3140Y516D01*
X3138Y516D01*
X3138Y514D01*
X3136Y514D01*
X3136Y512D01*
X3134Y512D01*
X3134Y510D01*
X3132Y510D01*
X3132Y508D01*
X3130Y508D01*
X3130Y506D01*
X3128Y506D01*
X3128Y504D01*
X3126Y504D01*
X3126Y502D01*
X3124Y502D01*
X3124Y500D01*
X3122Y500D01*
X3122Y498D01*
X3120Y498D01*
X3120Y496D01*
X3118Y496D01*
X3118Y494D01*
X3116Y494D01*
X3116Y492D01*
X3114Y492D01*
X3114Y490D01*
X3112Y490D01*
X3112Y488D01*
X3110Y488D01*
X3110Y486D01*
X3108Y486D01*
X3108Y484D01*
X3106Y484D01*
X3106Y482D01*
X3104Y482D01*
X3104Y480D01*
X3102Y480D01*
X3102Y478D01*
X3100Y478D01*
X3100Y476D01*
X3098Y476D01*
X3098Y474D01*
X3096Y474D01*
X3096Y472D01*
X3094Y472D01*
X3094Y470D01*
X3092Y470D01*
X3092Y468D01*
X3090Y468D01*
X3090Y466D01*
X3088Y466D01*
X3088Y464D01*
X3086Y464D01*
X3086Y462D01*
X3084Y462D01*
X3084Y460D01*
X3082Y460D01*
X3082Y458D01*
X3080Y458D01*
X3080Y456D01*
X3078Y456D01*
X3078Y454D01*
X3076Y454D01*
X3076Y452D01*
X3074Y452D01*
X3074Y450D01*
X3072Y450D01*
X3072Y448D01*
X3070Y448D01*
X3070Y446D01*
X3068Y446D01*
X3068Y444D01*
X3066Y444D01*
X3066Y442D01*
X3064Y442D01*
X3064Y440D01*
X3062Y440D01*
X3062Y438D01*
X3060Y438D01*
X3060Y436D01*
X3058Y436D01*
X3058Y408D01*
X3056Y408D01*
X3056Y400D01*
X3054Y400D01*
X3054Y396D01*
X3052Y396D01*
X3052Y392D01*
X3050Y392D01*
X3050Y390D01*
X3048Y390D01*
X3048Y386D01*
X3046Y386D01*
X3046Y384D01*
X3044Y384D01*
X3044Y382D01*
X3042Y382D01*
X3042Y362D01*
X3044Y362D01*
X3044Y360D01*
X3046Y360D01*
X3046Y358D01*
X3048Y358D01*
X3048Y354D01*
X3050Y354D01*
X3050Y352D01*
X3052Y352D01*
X3052Y348D01*
X3054Y348D01*
X3054Y344D01*
X3056Y344D01*
X3056Y336D01*
X3058Y336D01*
X3058Y308D01*
X3056Y308D01*
X3056Y300D01*
X3054Y300D01*
X3054Y296D01*
X3052Y296D01*
X3052Y292D01*
X3050Y292D01*
X3050Y290D01*
X3048Y290D01*
X3048Y286D01*
X3046Y286D01*
X3046Y284D01*
X3044Y284D01*
X3044Y282D01*
X3042Y282D01*
X3042Y280D01*
X3040Y280D01*
X3040Y278D01*
X3038Y278D01*
X3038Y276D01*
X3036Y276D01*
X3036Y274D01*
X3032Y274D01*
X3032Y272D01*
X3030Y272D01*
X3030Y270D01*
X3026Y270D01*
X3026Y268D01*
X3022Y268D01*
X3022Y266D01*
X3014Y266D01*
X3014Y264D01*
X3582Y264D01*
X3582Y562D01*
X3184Y562D01*
G37*
D02*
G36*
X1248Y390D02*
X1248Y386D01*
X1246Y386D01*
X1246Y384D01*
X1244Y384D01*
X1244Y382D01*
X1242Y382D01*
X1242Y362D01*
X1244Y362D01*
X1244Y360D01*
X1246Y360D01*
X1246Y358D01*
X1248Y358D01*
X1248Y354D01*
X1250Y354D01*
X1250Y352D01*
X1252Y352D01*
X1252Y348D01*
X1254Y348D01*
X1254Y344D01*
X1256Y344D01*
X1256Y336D01*
X1258Y336D01*
X1258Y308D01*
X1256Y308D01*
X1256Y300D01*
X1254Y300D01*
X1254Y296D01*
X1252Y296D01*
X1252Y292D01*
X1250Y292D01*
X1250Y290D01*
X1248Y290D01*
X1248Y286D01*
X1246Y286D01*
X1246Y284D01*
X1244Y284D01*
X1244Y282D01*
X1242Y282D01*
X1242Y280D01*
X1240Y280D01*
X1240Y278D01*
X1238Y278D01*
X1238Y276D01*
X1236Y276D01*
X1236Y274D01*
X1232Y274D01*
X1232Y272D01*
X1230Y272D01*
X1230Y270D01*
X1226Y270D01*
X1226Y268D01*
X1222Y268D01*
X1222Y266D01*
X1214Y266D01*
X1214Y264D01*
X2386Y264D01*
X2386Y266D01*
X2378Y266D01*
X2378Y268D01*
X2374Y268D01*
X2374Y270D01*
X2370Y270D01*
X2370Y272D01*
X2368Y272D01*
X2368Y274D01*
X2364Y274D01*
X2364Y276D01*
X2362Y276D01*
X2362Y278D01*
X2360Y278D01*
X2360Y280D01*
X2358Y280D01*
X2358Y282D01*
X2356Y282D01*
X2356Y284D01*
X2354Y284D01*
X2354Y286D01*
X2352Y286D01*
X2352Y290D01*
X2350Y290D01*
X2350Y292D01*
X2348Y292D01*
X2348Y296D01*
X2346Y296D01*
X2346Y300D01*
X2344Y300D01*
X2344Y308D01*
X2342Y308D01*
X2342Y336D01*
X2344Y336D01*
X2344Y344D01*
X2346Y344D01*
X2346Y348D01*
X2348Y348D01*
X2348Y352D01*
X2350Y352D01*
X2350Y354D01*
X2352Y354D01*
X2352Y358D01*
X2354Y358D01*
X2354Y360D01*
X2356Y360D01*
X2356Y362D01*
X2358Y362D01*
X2358Y382D01*
X2356Y382D01*
X2356Y384D01*
X2354Y384D01*
X2354Y386D01*
X2352Y386D01*
X2352Y390D01*
X1248Y390D01*
G37*
D02*
G36*
X640Y280D02*
X640Y278D01*
X638Y278D01*
X638Y276D01*
X636Y276D01*
X636Y274D01*
X632Y274D01*
X632Y272D01*
X630Y272D01*
X630Y270D01*
X626Y270D01*
X626Y268D01*
X622Y268D01*
X622Y266D01*
X614Y266D01*
X614Y264D01*
X686Y264D01*
X686Y266D01*
X678Y266D01*
X678Y268D01*
X674Y268D01*
X674Y270D01*
X670Y270D01*
X670Y272D01*
X668Y272D01*
X668Y274D01*
X664Y274D01*
X664Y276D01*
X662Y276D01*
X662Y278D01*
X660Y278D01*
X660Y280D01*
X640Y280D01*
G37*
D02*
G36*
X740Y280D02*
X740Y278D01*
X738Y278D01*
X738Y276D01*
X736Y276D01*
X736Y274D01*
X732Y274D01*
X732Y272D01*
X730Y272D01*
X730Y270D01*
X726Y270D01*
X726Y268D01*
X722Y268D01*
X722Y266D01*
X714Y266D01*
X714Y264D01*
X786Y264D01*
X786Y266D01*
X778Y266D01*
X778Y268D01*
X774Y268D01*
X774Y270D01*
X770Y270D01*
X770Y272D01*
X768Y272D01*
X768Y274D01*
X764Y274D01*
X764Y276D01*
X762Y276D01*
X762Y278D01*
X760Y278D01*
X760Y280D01*
X740Y280D01*
G37*
D02*
G36*
X1040Y280D02*
X1040Y278D01*
X1038Y278D01*
X1038Y276D01*
X1036Y276D01*
X1036Y274D01*
X1032Y274D01*
X1032Y272D01*
X1030Y272D01*
X1030Y270D01*
X1026Y270D01*
X1026Y268D01*
X1022Y268D01*
X1022Y266D01*
X1014Y266D01*
X1014Y264D01*
X1086Y264D01*
X1086Y266D01*
X1078Y266D01*
X1078Y268D01*
X1074Y268D01*
X1074Y270D01*
X1070Y270D01*
X1070Y272D01*
X1068Y272D01*
X1068Y274D01*
X1064Y274D01*
X1064Y276D01*
X1062Y276D01*
X1062Y278D01*
X1060Y278D01*
X1060Y280D01*
X1040Y280D01*
G37*
D02*
G36*
X1140Y280D02*
X1140Y278D01*
X1138Y278D01*
X1138Y276D01*
X1136Y276D01*
X1136Y274D01*
X1132Y274D01*
X1132Y272D01*
X1130Y272D01*
X1130Y270D01*
X1126Y270D01*
X1126Y268D01*
X1122Y268D01*
X1122Y266D01*
X1114Y266D01*
X1114Y264D01*
X1186Y264D01*
X1186Y266D01*
X1178Y266D01*
X1178Y268D01*
X1174Y268D01*
X1174Y270D01*
X1170Y270D01*
X1170Y272D01*
X1168Y272D01*
X1168Y274D01*
X1164Y274D01*
X1164Y276D01*
X1162Y276D01*
X1162Y278D01*
X1160Y278D01*
X1160Y280D01*
X1140Y280D01*
G37*
D02*
G36*
X2440Y280D02*
X2440Y278D01*
X2438Y278D01*
X2438Y276D01*
X2436Y276D01*
X2436Y274D01*
X2432Y274D01*
X2432Y272D01*
X2430Y272D01*
X2430Y270D01*
X2426Y270D01*
X2426Y268D01*
X2422Y268D01*
X2422Y266D01*
X2414Y266D01*
X2414Y264D01*
X2486Y264D01*
X2486Y266D01*
X2478Y266D01*
X2478Y268D01*
X2474Y268D01*
X2474Y270D01*
X2470Y270D01*
X2470Y272D01*
X2468Y272D01*
X2468Y274D01*
X2464Y274D01*
X2464Y276D01*
X2462Y276D01*
X2462Y278D01*
X2460Y278D01*
X2460Y280D01*
X2440Y280D01*
G37*
D02*
G36*
X2540Y280D02*
X2540Y278D01*
X2538Y278D01*
X2538Y276D01*
X2536Y276D01*
X2536Y274D01*
X2532Y274D01*
X2532Y272D01*
X2530Y272D01*
X2530Y270D01*
X2526Y270D01*
X2526Y268D01*
X2522Y268D01*
X2522Y266D01*
X2514Y266D01*
X2514Y264D01*
X2586Y264D01*
X2586Y266D01*
X2578Y266D01*
X2578Y268D01*
X2574Y268D01*
X2574Y270D01*
X2570Y270D01*
X2570Y272D01*
X2568Y272D01*
X2568Y274D01*
X2564Y274D01*
X2564Y276D01*
X2562Y276D01*
X2562Y278D01*
X2560Y278D01*
X2560Y280D01*
X2540Y280D01*
G37*
D02*
G36*
X2840Y280D02*
X2840Y278D01*
X2838Y278D01*
X2838Y276D01*
X2836Y276D01*
X2836Y274D01*
X2832Y274D01*
X2832Y272D01*
X2830Y272D01*
X2830Y270D01*
X2826Y270D01*
X2826Y268D01*
X2822Y268D01*
X2822Y266D01*
X2814Y266D01*
X2814Y264D01*
X2886Y264D01*
X2886Y266D01*
X2878Y266D01*
X2878Y268D01*
X2874Y268D01*
X2874Y270D01*
X2870Y270D01*
X2870Y272D01*
X2868Y272D01*
X2868Y274D01*
X2864Y274D01*
X2864Y276D01*
X2862Y276D01*
X2862Y278D01*
X2860Y278D01*
X2860Y280D01*
X2840Y280D01*
G37*
D02*
G36*
X2940Y280D02*
X2940Y278D01*
X2938Y278D01*
X2938Y276D01*
X2936Y276D01*
X2936Y274D01*
X2932Y274D01*
X2932Y272D01*
X2930Y272D01*
X2930Y270D01*
X2926Y270D01*
X2926Y268D01*
X2922Y268D01*
X2922Y266D01*
X2914Y266D01*
X2914Y264D01*
X2986Y264D01*
X2986Y266D01*
X2978Y266D01*
X2978Y268D01*
X2974Y268D01*
X2974Y270D01*
X2970Y270D01*
X2970Y272D01*
X2968Y272D01*
X2968Y274D01*
X2964Y274D01*
X2964Y276D01*
X2962Y276D01*
X2962Y278D01*
X2960Y278D01*
X2960Y280D01*
X2940Y280D01*
G37*
D02*
G36*
X40Y264D02*
X40Y262D01*
X3582Y262D01*
X3582Y264D01*
X40Y264D01*
G37*
D02*
G36*
X40Y264D02*
X40Y262D01*
X3582Y262D01*
X3582Y264D01*
X40Y264D01*
G37*
D02*
G36*
X40Y264D02*
X40Y262D01*
X3582Y262D01*
X3582Y264D01*
X40Y264D01*
G37*
D02*
G36*
X40Y264D02*
X40Y262D01*
X3582Y262D01*
X3582Y264D01*
X40Y264D01*
G37*
D02*
G36*
X40Y264D02*
X40Y262D01*
X3582Y262D01*
X3582Y264D01*
X40Y264D01*
G37*
D02*
G36*
X40Y264D02*
X40Y262D01*
X3582Y262D01*
X3582Y264D01*
X40Y264D01*
G37*
D02*
G36*
X40Y264D02*
X40Y262D01*
X3582Y262D01*
X3582Y264D01*
X40Y264D01*
G37*
D02*
G36*
X40Y264D02*
X40Y262D01*
X3582Y262D01*
X3582Y264D01*
X40Y264D01*
G37*
D02*
G36*
X40Y264D02*
X40Y262D01*
X3582Y262D01*
X3582Y264D01*
X40Y264D01*
G37*
D02*
G36*
X40Y264D02*
X40Y262D01*
X3582Y262D01*
X3582Y264D01*
X40Y264D01*
G37*
D02*
G36*
X40Y264D02*
X40Y262D01*
X3582Y262D01*
X3582Y264D01*
X40Y264D01*
G37*
D02*
G36*
X40Y264D02*
X40Y262D01*
X3582Y262D01*
X3582Y264D01*
X40Y264D01*
G37*
D02*
G36*
X40Y264D02*
X40Y262D01*
X3582Y262D01*
X3582Y264D01*
X40Y264D01*
G37*
D02*
G36*
X40Y262D02*
X40Y40D01*
X3582Y40D01*
X3582Y262D01*
X40Y262D01*
G37*
D02*
G36*
X2279Y1480D02*
X2320Y1480D01*
X2320Y1440D01*
X2279Y1440D01*
X2279Y1480D01*
G37*
D02*
G36*
X2279Y1410D02*
X2320Y1410D01*
X2320Y1368D01*
X2279Y1368D01*
X2279Y1410D01*
G37*
D02*
G36*
X2314Y1445D02*
X2354Y1445D01*
X2354Y1404D01*
X2314Y1404D01*
X2314Y1445D01*
G37*
D02*
G36*
X3316Y1147D02*
X3358Y1147D01*
X3358Y1102D01*
X3316Y1102D01*
X3316Y1147D01*
G37*
D02*
G36*
X3316Y747D02*
X3358Y747D01*
X3358Y702D01*
X3316Y702D01*
X3316Y747D01*
G37*
D02*
G36*
X3316Y2547D02*
X3358Y2547D01*
X3358Y2502D01*
X3316Y2502D01*
X3316Y2547D01*
G37*
D02*
G36*
X2875Y306D02*
X2920Y306D01*
X2920Y264D01*
X2875Y264D01*
X2875Y306D01*
G37*
D02*
G36*
X3316Y2947D02*
X3358Y2947D01*
X3358Y2902D01*
X3316Y2902D01*
X3316Y2947D01*
G37*
D02*
G36*
X2475Y306D02*
X2520Y306D01*
X2520Y264D01*
X2475Y264D01*
X2475Y306D01*
G37*
D02*
G36*
X2875Y3384D02*
X2920Y3384D01*
X2920Y3344D01*
X2875Y3344D01*
X2875Y3384D01*
G37*
D02*
G36*
X2287Y566D02*
X2312Y566D01*
X2312Y532D01*
X2287Y532D01*
X2287Y566D01*
G37*
D02*
G36*
X2287Y518D02*
X2312Y518D01*
X2312Y484D01*
X2287Y484D01*
X2287Y518D01*
G37*
D02*
G36*
X2278Y908D02*
X2321Y908D01*
X2321Y864D01*
X2278Y864D01*
X2278Y908D01*
G37*
D02*
G36*
X2316Y946D02*
X2358Y946D01*
X2358Y903D01*
X2316Y903D01*
X2316Y946D01*
G37*
D02*
G36*
X2077Y906D02*
X2122Y906D01*
X2122Y864D01*
X2077Y864D01*
X2077Y906D01*
G37*
D02*
G36*
X2038Y947D02*
X2080Y947D01*
X2080Y902D01*
X2038Y902D01*
X2038Y947D01*
G37*
D02*
G36*
X1077Y306D02*
X1122Y306D01*
X1122Y264D01*
X1077Y264D01*
X1077Y306D01*
G37*
D02*
G36*
X2475Y3384D02*
X2520Y3384D01*
X2520Y3344D01*
X2475Y3344D01*
X2475Y3384D01*
G37*
D02*
G36*
X1077Y3384D02*
X1122Y3384D01*
X1122Y3344D01*
X1077Y3344D01*
X1077Y3384D01*
G37*
D02*
G36*
X677Y306D02*
X722Y306D01*
X722Y264D01*
X677Y264D01*
X677Y306D01*
G37*
D02*
G36*
X238Y747D02*
X280Y747D01*
X280Y702D01*
X238Y702D01*
X238Y747D01*
G37*
D02*
G36*
X677Y3384D02*
X722Y3384D01*
X722Y3344D01*
X677Y3344D01*
X677Y3384D01*
G37*
D02*
G36*
X238Y2947D02*
X280Y2947D01*
X280Y2902D01*
X238Y2902D01*
X238Y2947D01*
G37*
D02*
G36*
X238Y1147D02*
X280Y1147D01*
X280Y1102D01*
X238Y1102D01*
X238Y1147D01*
G37*
D02*
G36*
X238Y2547D02*
X280Y2547D01*
X280Y2502D01*
X238Y2502D01*
X238Y2547D01*
G37*
D02*
G04 End of Copper1*
M02*