; NON-PLATED HOLES START AT T1
; THROUGH (PLATED) HOLES START AT T100
M48
INCH
T1C0.086614
T100C0.035000
T101C0.038000
T102C0.030000
T103C0.015748
%
T1
X002000Y002220
X034000Y002220
X034000Y034220
X002000Y034220
T100
X024000Y019220
X008000Y019220
X023000Y012220
X022000Y019220
X017000Y019220
X023000Y009220
X026000Y011220
X025000Y013220
X023000Y011220
X010000Y019220
X023000Y010220
X026000Y012220
X026000Y010220
X029000Y019220
X026000Y009220
X031000Y019220
X022000Y013220
X015000Y019220
T101
X004000Y008220
X004000Y028220
X033000Y008220
X003000Y010220
X008000Y003220
X025000Y033220
X032000Y030220
X010000Y032220
X033000Y006220
X026000Y003220
X012000Y032220
X032000Y011220
X007000Y004220
X015000Y013220
X033000Y026220
X025000Y003220
X028000Y004220
X029000Y033220
X003000Y007220
X030000Y003220
X024000Y033220
X004000Y026220
X012000Y033220
X025000Y032220
X026000Y032220
X024000Y032220
X026000Y004220
X030000Y033220
X033000Y030220
X032000Y028220
X029000Y004220
X012000Y003220
X004000Y029220
X021000Y011220
X033000Y010220
X021000Y010220
X003000Y024220
X026000Y033220
X032000Y012220
X006000Y033220
X032000Y029220
X003000Y011220
X004000Y010220
X010000Y033220
X007000Y032220
X006000Y003220
X032000Y008220
X033000Y025220
X006000Y004220
X028000Y032220
X008000Y004220
X028000Y011220
X010000Y004220
X007000Y033220
X033000Y028220
X028000Y009220
X004000Y024220
X032000Y025220
X024000Y003220
X008000Y033220
X033000Y007220
X003000Y026220
X021000Y012220
X030000Y004220
X011000Y004220
X027000Y025220
X012000Y004220
X003000Y029220
X028000Y033220
X024000Y004220
X004000Y011220
X032000Y006220
X003000Y030220
X004000Y012220
X033000Y012220
X011000Y033220
X030000Y032220
X032000Y024220
X003000Y006220
X006000Y032220
X028000Y003220
X004000Y006220
X003000Y008220
X003000Y025220
X032000Y026220
X003000Y012220
X025000Y004220
X033000Y011220
X032000Y010220
X029000Y032220
X032000Y007220
X008000Y032220
X011000Y003220
X011000Y032220
X010000Y003220
X033000Y024220
X033000Y029220
X021000Y009220
X004000Y025220
X004000Y007220
X004000Y030220
X029000Y003220
X003000Y028220
X007000Y003220
T102
X023000Y014220
X021998Y014220
T103
X023009Y005232
X003995Y019238
T00
M30
