G04 #@! TF.GenerationSoftware,KiCad,Pcbnew,(5.0.2)-1*
G04 #@! TF.CreationDate,2019-05-02T00:13:42-05:00*
G04 #@! TF.ProjectId,vcaControl,76636143-6f6e-4747-926f-6c2e6b696361,rev?*
G04 #@! TF.SameCoordinates,Original*
G04 #@! TF.FileFunction,Copper,L2,Bot*
G04 #@! TF.FilePolarity,Positive*
%FSLAX46Y46*%
G04 Gerber Fmt 4.6, Leading zero omitted, Abs format (unit mm)*
G04 Created by KiCad (PCBNEW (5.0.2)-1) date 5/2/2019 12:13:42 AM*
%MOMM*%
%LPD*%
G01*
G04 APERTURE LIST*
G04 #@! TA.AperFunction,ComponentPad*
%ADD10C,1.998980*%
G04 #@! TD*
G04 #@! TA.AperFunction,ComponentPad*
%ADD11C,2.130000*%
G04 #@! TD*
G04 #@! TA.AperFunction,ComponentPad*
%ADD12R,1.930000X1.830000*%
G04 #@! TD*
G04 #@! TA.AperFunction,ComponentPad*
%ADD13C,1.600000*%
G04 #@! TD*
G04 #@! TA.AperFunction,ComponentPad*
%ADD14R,1.700000X1.700000*%
G04 #@! TD*
G04 #@! TA.AperFunction,Conductor*
%ADD15C,0.250000*%
G04 #@! TD*
G04 #@! TA.AperFunction,Conductor*
%ADD16C,0.254000*%
G04 #@! TD*
G04 APERTURE END LIST*
D10*
G04 #@! TO.P,RV1,1*
G04 #@! TO.N,Net-(CV2-PadT)*
X132160000Y-112520000D03*
G04 #@! TO.P,RV1,3*
G04 #@! TO.N,GND*
X142160000Y-112520000D03*
G04 #@! TO.P,RV1,2*
G04 #@! TO.N,Net-(J3C1-Pad1)*
X137160000Y-112520000D03*
G04 #@! TD*
G04 #@! TO.P,RV2,1*
G04 #@! TO.N,Net-(J4C1-Pad1)*
X157560000Y-112520000D03*
G04 #@! TO.P,RV2,3*
G04 #@! TO.N,GND*
X167560000Y-112520000D03*
G04 #@! TO.P,RV2,2*
G04 #@! TO.N,Net-(J5C1-Pad1)*
X162560000Y-112520000D03*
G04 #@! TD*
G04 #@! TO.P,RV3,1*
G04 #@! TO.N,Net-(C2-Pad1)*
X106760000Y-112520000D03*
G04 #@! TO.P,RV3,3*
G04 #@! TO.N,GND*
X116760000Y-112520000D03*
G04 #@! TO.P,RV3,2*
G04 #@! TO.N,Net-(J6C1-Pad1)*
X111760000Y-112520000D03*
G04 #@! TD*
D11*
G04 #@! TO.P,CV1,T*
G04 #@! TO.N,Net-(CV1-PadT)*
X124460000Y-114270000D03*
D12*
G04 #@! TO.P,CV1,S*
G04 #@! TO.N,GND*
X124460000Y-102870000D03*
D11*
G04 #@! TO.P,CV1,TN*
G04 #@! TO.N,N/C*
X124460000Y-105970000D03*
G04 #@! TD*
G04 #@! TO.P,CV2,T*
G04 #@! TO.N,Net-(CV2-PadT)*
X149860000Y-114270000D03*
D12*
G04 #@! TO.P,CV2,S*
G04 #@! TO.N,GND*
X149860000Y-102870000D03*
D11*
G04 #@! TO.P,CV2,TN*
G04 #@! TO.N,N/C*
X149860000Y-105970000D03*
G04 #@! TD*
G04 #@! TO.P,IN1,T*
G04 #@! TO.N,Net-(C2-Pad2)*
X99060000Y-114270000D03*
D12*
G04 #@! TO.P,IN1,S*
G04 #@! TO.N,GND*
X99060000Y-102870000D03*
D11*
G04 #@! TO.P,IN1,TN*
G04 #@! TO.N,N/C*
X99060000Y-105970000D03*
G04 #@! TD*
G04 #@! TO.P,OUT1,T*
G04 #@! TO.N,Net-(J1C1-Pad1)*
X175260000Y-114270000D03*
D12*
G04 #@! TO.P,OUT1,S*
G04 #@! TO.N,GND*
X175260000Y-102870000D03*
D11*
G04 #@! TO.P,OUT1,TN*
G04 #@! TO.N,N/C*
X175260000Y-105970000D03*
G04 #@! TD*
D13*
G04 #@! TO.P,C2,1*
G04 #@! TO.N,Net-(C2-Pad1)*
X104140000Y-119380000D03*
G04 #@! TO.P,C2,2*
G04 #@! TO.N,Net-(C2-Pad2)*
X99140000Y-119380000D03*
G04 #@! TD*
D14*
G04 #@! TO.P,J1C1,1*
G04 #@! TO.N,Net-(J1C1-Pad1)*
X142240000Y-123190000D03*
G04 #@! TD*
G04 #@! TO.P,J2C1,1*
G04 #@! TO.N,Net-(CV1-PadT)*
X139700000Y-123190000D03*
G04 #@! TD*
G04 #@! TO.P,J3C1,1*
G04 #@! TO.N,Net-(J3C1-Pad1)*
X127000000Y-96520000D03*
G04 #@! TD*
G04 #@! TO.P,J4C1,1*
G04 #@! TO.N,Net-(J4C1-Pad1)*
X149860000Y-96520000D03*
G04 #@! TD*
G04 #@! TO.P,J5C1,1*
G04 #@! TO.N,Net-(J5C1-Pad1)*
X152400000Y-96520000D03*
G04 #@! TD*
G04 #@! TO.P,J6C1,1*
G04 #@! TO.N,Net-(J6C1-Pad1)*
X124460000Y-96520000D03*
G04 #@! TD*
G04 #@! TO.P,J7C1,1*
G04 #@! TO.N,GND*
X137160000Y-123190000D03*
G04 #@! TD*
D15*
G04 #@! TO.N,Net-(C2-Pad1)*
X106760000Y-116760000D02*
X104140000Y-119380000D01*
X106760000Y-112520000D02*
X106760000Y-116760000D01*
G04 #@! TO.N,Net-(C2-Pad2)*
X99060000Y-119300000D02*
X99140000Y-119380000D01*
X99060000Y-114270000D02*
X99060000Y-119300000D01*
G04 #@! TO.N,Net-(CV1-PadT)*
X125966137Y-114270000D02*
X124460000Y-114270000D01*
X131880000Y-114270000D02*
X125966137Y-114270000D01*
X139700000Y-122090000D02*
X131880000Y-114270000D01*
X139700000Y-123190000D02*
X139700000Y-122090000D01*
G04 #@! TO.N,Net-(CV2-PadT)*
X133910000Y-114270000D02*
X132160000Y-112520000D01*
X149860000Y-114270000D02*
X133910000Y-114270000D01*
G04 #@! TO.N,Net-(J1C1-Pad1)*
X172690000Y-116840000D02*
X175260000Y-114270000D01*
X172690000Y-116840000D02*
X172690000Y-116870000D01*
X166370000Y-123190000D02*
X142240000Y-123190000D01*
X172690000Y-116870000D02*
X166370000Y-123190000D01*
G04 #@! TO.N,Net-(J3C1-Pad1)*
X128100000Y-96520000D02*
X127000000Y-96520000D01*
X137160000Y-105580000D02*
X128100000Y-96520000D01*
X137160000Y-112520000D02*
X137160000Y-105580000D01*
G04 #@! TO.N,Net-(J4C1-Pad1)*
X157560000Y-104220000D02*
X149860000Y-96520000D01*
X157560000Y-112520000D02*
X157560000Y-104220000D01*
G04 #@! TO.N,Net-(J5C1-Pad1)*
X153500000Y-96520000D02*
X152400000Y-96520000D01*
X162560000Y-105580000D02*
X153500000Y-96520000D01*
X162560000Y-112520000D02*
X162560000Y-105580000D01*
G04 #@! TO.N,Net-(J6C1-Pad1)*
X123360000Y-96520000D02*
X124460000Y-96520000D01*
X111760000Y-108120000D02*
X123360000Y-96520000D01*
X111760000Y-112520000D02*
X111760000Y-108120000D01*
G04 #@! TO.N,GND*
X127430000Y-123190000D02*
X116760000Y-112520000D01*
X137160000Y-123190000D02*
X127430000Y-123190000D01*
G04 #@! TD*
D16*
G04 #@! TO.N,GND*
G36*
X181483000Y-128143000D02*
X92837000Y-128143000D01*
X92837000Y-124460000D01*
X94545000Y-124460000D01*
X94664107Y-125135490D01*
X95007062Y-125729506D01*
X95532500Y-126170400D01*
X96177045Y-126404995D01*
X96862955Y-126404995D01*
X97507500Y-126170400D01*
X98032938Y-125729506D01*
X98375893Y-125135490D01*
X98495000Y-124460000D01*
X98375893Y-123784510D01*
X98197631Y-123475750D01*
X135675000Y-123475750D01*
X135675000Y-124166310D01*
X135771673Y-124399699D01*
X135950302Y-124578327D01*
X136183691Y-124675000D01*
X136874250Y-124675000D01*
X137033000Y-124516250D01*
X137033000Y-123317000D01*
X135833750Y-123317000D01*
X135675000Y-123475750D01*
X98197631Y-123475750D01*
X98032938Y-123190494D01*
X97507500Y-122749600D01*
X96862955Y-122515005D01*
X96177045Y-122515005D01*
X95532500Y-122749600D01*
X95007062Y-123190494D01*
X94664107Y-123784510D01*
X94545000Y-124460000D01*
X92837000Y-124460000D01*
X92837000Y-122213690D01*
X135675000Y-122213690D01*
X135675000Y-122904250D01*
X135833750Y-123063000D01*
X137033000Y-123063000D01*
X137033000Y-121863750D01*
X136874250Y-121705000D01*
X136183691Y-121705000D01*
X135950302Y-121801673D01*
X135771673Y-121980301D01*
X135675000Y-122213690D01*
X92837000Y-122213690D01*
X92837000Y-113931849D01*
X97360000Y-113931849D01*
X97360000Y-114608151D01*
X97618810Y-115232973D01*
X98097027Y-115711190D01*
X98300000Y-115795264D01*
X98300001Y-118190603D01*
X97923466Y-118567138D01*
X97705000Y-119094561D01*
X97705000Y-119665439D01*
X97923466Y-120192862D01*
X98327138Y-120596534D01*
X98854561Y-120815000D01*
X99425439Y-120815000D01*
X99952862Y-120596534D01*
X100356534Y-120192862D01*
X100575000Y-119665439D01*
X100575000Y-119094561D01*
X102705000Y-119094561D01*
X102705000Y-119665439D01*
X102923466Y-120192862D01*
X103327138Y-120596534D01*
X103854561Y-120815000D01*
X104425439Y-120815000D01*
X104952862Y-120596534D01*
X105356534Y-120192862D01*
X105575000Y-119665439D01*
X105575000Y-119094561D01*
X105553103Y-119041698D01*
X107244473Y-117350329D01*
X107307929Y-117307929D01*
X107475904Y-117056537D01*
X107520000Y-116834852D01*
X107520000Y-116834848D01*
X107534888Y-116760000D01*
X107520000Y-116685152D01*
X107520000Y-113974357D01*
X107685864Y-113905654D01*
X108145654Y-113445864D01*
X108394490Y-112845120D01*
X108394490Y-112194880D01*
X110125510Y-112194880D01*
X110125510Y-112845120D01*
X110374346Y-113445864D01*
X110834136Y-113905654D01*
X111434880Y-114154490D01*
X112085120Y-114154490D01*
X112685864Y-113905654D01*
X112919355Y-113672163D01*
X115787443Y-113672163D01*
X115886042Y-113938965D01*
X116495582Y-114165401D01*
X117145377Y-114141341D01*
X117633958Y-113938965D01*
X117732557Y-113672163D01*
X116760000Y-112699605D01*
X115787443Y-113672163D01*
X112919355Y-113672163D01*
X113145654Y-113445864D01*
X113394490Y-112845120D01*
X113394490Y-112255582D01*
X115114599Y-112255582D01*
X115138659Y-112905377D01*
X115341035Y-113393958D01*
X115607837Y-113492557D01*
X116580395Y-112520000D01*
X116939605Y-112520000D01*
X117912163Y-113492557D01*
X118178965Y-113393958D01*
X118405401Y-112784418D01*
X118381341Y-112134623D01*
X118178965Y-111646042D01*
X117912163Y-111547443D01*
X116939605Y-112520000D01*
X116580395Y-112520000D01*
X115607837Y-111547443D01*
X115341035Y-111646042D01*
X115114599Y-112255582D01*
X113394490Y-112255582D01*
X113394490Y-112194880D01*
X113145654Y-111594136D01*
X112919355Y-111367837D01*
X115787443Y-111367837D01*
X116760000Y-112340395D01*
X117732557Y-111367837D01*
X117633958Y-111101035D01*
X117024418Y-110874599D01*
X116374623Y-110898659D01*
X115886042Y-111101035D01*
X115787443Y-111367837D01*
X112919355Y-111367837D01*
X112685864Y-111134346D01*
X112520000Y-111065643D01*
X112520000Y-108434801D01*
X115322952Y-105631849D01*
X122760000Y-105631849D01*
X122760000Y-106308151D01*
X123018810Y-106932973D01*
X123497027Y-107411190D01*
X124121849Y-107670000D01*
X124798151Y-107670000D01*
X125422973Y-107411190D01*
X125901190Y-106932973D01*
X126160000Y-106308151D01*
X126160000Y-105631849D01*
X125901190Y-105007027D01*
X125422973Y-104528810D01*
X125160283Y-104420000D01*
X125551309Y-104420000D01*
X125784698Y-104323327D01*
X125963327Y-104144699D01*
X126060000Y-103911310D01*
X126060000Y-103155750D01*
X125901250Y-102997000D01*
X124587000Y-102997000D01*
X124587000Y-103017000D01*
X124333000Y-103017000D01*
X124333000Y-102997000D01*
X123018750Y-102997000D01*
X122860000Y-103155750D01*
X122860000Y-103911310D01*
X122956673Y-104144699D01*
X123135302Y-104323327D01*
X123368691Y-104420000D01*
X123759717Y-104420000D01*
X123497027Y-104528810D01*
X123018810Y-105007027D01*
X122760000Y-105631849D01*
X115322952Y-105631849D01*
X119126111Y-101828690D01*
X122860000Y-101828690D01*
X122860000Y-102584250D01*
X123018750Y-102743000D01*
X124333000Y-102743000D01*
X124333000Y-101478750D01*
X124587000Y-101478750D01*
X124587000Y-102743000D01*
X125901250Y-102743000D01*
X126060000Y-102584250D01*
X126060000Y-101828690D01*
X125963327Y-101595301D01*
X125784698Y-101416673D01*
X125551309Y-101320000D01*
X124745750Y-101320000D01*
X124587000Y-101478750D01*
X124333000Y-101478750D01*
X124174250Y-101320000D01*
X123368691Y-101320000D01*
X123135302Y-101416673D01*
X122956673Y-101595301D01*
X122860000Y-101828690D01*
X119126111Y-101828690D01*
X123142098Y-97812704D01*
X123152191Y-97827809D01*
X123362235Y-97968157D01*
X123610000Y-98017440D01*
X125310000Y-98017440D01*
X125557765Y-97968157D01*
X125730000Y-97853072D01*
X125902235Y-97968157D01*
X126150000Y-98017440D01*
X127850000Y-98017440D01*
X128097765Y-97968157D01*
X128307809Y-97827809D01*
X128317902Y-97812703D01*
X136400001Y-105894803D01*
X136400000Y-111065643D01*
X136234136Y-111134346D01*
X135774346Y-111594136D01*
X135525510Y-112194880D01*
X135525510Y-112845120D01*
X135774346Y-113445864D01*
X135838482Y-113510000D01*
X134224802Y-113510000D01*
X133725787Y-113010985D01*
X133794490Y-112845120D01*
X133794490Y-112194880D01*
X133545654Y-111594136D01*
X133085864Y-111134346D01*
X132485120Y-110885510D01*
X131834880Y-110885510D01*
X131234136Y-111134346D01*
X130774346Y-111594136D01*
X130525510Y-112194880D01*
X130525510Y-112845120D01*
X130774346Y-113445864D01*
X130838482Y-113510000D01*
X125985264Y-113510000D01*
X125901190Y-113307027D01*
X125422973Y-112828810D01*
X124798151Y-112570000D01*
X124121849Y-112570000D01*
X123497027Y-112828810D01*
X123018810Y-113307027D01*
X122760000Y-113931849D01*
X122760000Y-114608151D01*
X123018810Y-115232973D01*
X123497027Y-115711190D01*
X124121849Y-115970000D01*
X124798151Y-115970000D01*
X125422973Y-115711190D01*
X125901190Y-115232973D01*
X125985264Y-115030000D01*
X131565199Y-115030000D01*
X138313659Y-121778461D01*
X138136309Y-121705000D01*
X137445750Y-121705000D01*
X137287000Y-121863750D01*
X137287000Y-123063000D01*
X137307000Y-123063000D01*
X137307000Y-123317000D01*
X137287000Y-123317000D01*
X137287000Y-124516250D01*
X137445750Y-124675000D01*
X138136309Y-124675000D01*
X138369698Y-124578327D01*
X138426975Y-124521051D01*
X138602235Y-124638157D01*
X138850000Y-124687440D01*
X140550000Y-124687440D01*
X140797765Y-124638157D01*
X140970000Y-124523072D01*
X141142235Y-124638157D01*
X141390000Y-124687440D01*
X143090000Y-124687440D01*
X143337765Y-124638157D01*
X143547809Y-124497809D01*
X143573072Y-124460000D01*
X175825000Y-124460000D01*
X175944107Y-125135490D01*
X176287062Y-125729506D01*
X176812500Y-126170400D01*
X177457045Y-126404995D01*
X178142955Y-126404995D01*
X178787500Y-126170400D01*
X179312938Y-125729506D01*
X179655893Y-125135490D01*
X179775000Y-124460000D01*
X179655893Y-123784510D01*
X179312938Y-123190494D01*
X178787500Y-122749600D01*
X178142955Y-122515005D01*
X177457045Y-122515005D01*
X176812500Y-122749600D01*
X176287062Y-123190494D01*
X175944107Y-123784510D01*
X175825000Y-124460000D01*
X143573072Y-124460000D01*
X143688157Y-124287765D01*
X143737440Y-124040000D01*
X143737440Y-123950000D01*
X166295153Y-123950000D01*
X166370000Y-123964888D01*
X166444847Y-123950000D01*
X166444852Y-123950000D01*
X166666537Y-123905904D01*
X166917929Y-123737929D01*
X166960331Y-123674470D01*
X173174473Y-117460329D01*
X173237929Y-117417929D01*
X173280329Y-117354473D01*
X173340742Y-117264059D01*
X174718876Y-115885926D01*
X174921849Y-115970000D01*
X175598151Y-115970000D01*
X176222973Y-115711190D01*
X176701190Y-115232973D01*
X176960000Y-114608151D01*
X176960000Y-113931849D01*
X176701190Y-113307027D01*
X176222973Y-112828810D01*
X175598151Y-112570000D01*
X174921849Y-112570000D01*
X174297027Y-112828810D01*
X173818810Y-113307027D01*
X173560000Y-113931849D01*
X173560000Y-114608151D01*
X173644074Y-114811124D01*
X172205530Y-116249669D01*
X172142071Y-116292071D01*
X172039262Y-116445936D01*
X166055199Y-122430000D01*
X143737440Y-122430000D01*
X143737440Y-122340000D01*
X143688157Y-122092235D01*
X143547809Y-121882191D01*
X143337765Y-121741843D01*
X143090000Y-121692560D01*
X141390000Y-121692560D01*
X141142235Y-121741843D01*
X140970000Y-121856928D01*
X140797765Y-121741843D01*
X140550000Y-121692560D01*
X140348483Y-121692560D01*
X140247929Y-121542071D01*
X140184473Y-121499671D01*
X133684919Y-115000117D01*
X133835148Y-115030000D01*
X133835152Y-115030000D01*
X133910000Y-115044888D01*
X133984848Y-115030000D01*
X148334736Y-115030000D01*
X148418810Y-115232973D01*
X148897027Y-115711190D01*
X149521849Y-115970000D01*
X150198151Y-115970000D01*
X150822973Y-115711190D01*
X151301190Y-115232973D01*
X151560000Y-114608151D01*
X151560000Y-113931849D01*
X151301190Y-113307027D01*
X150822973Y-112828810D01*
X150198151Y-112570000D01*
X149521849Y-112570000D01*
X148897027Y-112828810D01*
X148418810Y-113307027D01*
X148334736Y-113510000D01*
X143329608Y-113510000D01*
X143312164Y-113492556D01*
X143578965Y-113393958D01*
X143805401Y-112784418D01*
X143781341Y-112134623D01*
X143578965Y-111646042D01*
X143312163Y-111547443D01*
X142339605Y-112520000D01*
X142353748Y-112534142D01*
X142174142Y-112713748D01*
X142160000Y-112699605D01*
X142145858Y-112713748D01*
X141966252Y-112534142D01*
X141980395Y-112520000D01*
X141007837Y-111547443D01*
X140741035Y-111646042D01*
X140514599Y-112255582D01*
X140538659Y-112905377D01*
X140741035Y-113393958D01*
X141007836Y-113492556D01*
X140990392Y-113510000D01*
X138481518Y-113510000D01*
X138545654Y-113445864D01*
X138794490Y-112845120D01*
X138794490Y-112194880D01*
X138545654Y-111594136D01*
X138319355Y-111367837D01*
X141187443Y-111367837D01*
X142160000Y-112340395D01*
X143132557Y-111367837D01*
X143033958Y-111101035D01*
X142424418Y-110874599D01*
X141774623Y-110898659D01*
X141286042Y-111101035D01*
X141187443Y-111367837D01*
X138319355Y-111367837D01*
X138085864Y-111134346D01*
X137920000Y-111065643D01*
X137920000Y-105654847D01*
X137924574Y-105631849D01*
X148160000Y-105631849D01*
X148160000Y-106308151D01*
X148418810Y-106932973D01*
X148897027Y-107411190D01*
X149521849Y-107670000D01*
X150198151Y-107670000D01*
X150822973Y-107411190D01*
X151301190Y-106932973D01*
X151560000Y-106308151D01*
X151560000Y-105631849D01*
X151301190Y-105007027D01*
X150822973Y-104528810D01*
X150560283Y-104420000D01*
X150951309Y-104420000D01*
X151184698Y-104323327D01*
X151363327Y-104144699D01*
X151460000Y-103911310D01*
X151460000Y-103155750D01*
X151301250Y-102997000D01*
X149987000Y-102997000D01*
X149987000Y-103017000D01*
X149733000Y-103017000D01*
X149733000Y-102997000D01*
X148418750Y-102997000D01*
X148260000Y-103155750D01*
X148260000Y-103911310D01*
X148356673Y-104144699D01*
X148535302Y-104323327D01*
X148768691Y-104420000D01*
X149159717Y-104420000D01*
X148897027Y-104528810D01*
X148418810Y-105007027D01*
X148160000Y-105631849D01*
X137924574Y-105631849D01*
X137934888Y-105580000D01*
X137920000Y-105505153D01*
X137920000Y-105505148D01*
X137875904Y-105283463D01*
X137707929Y-105032071D01*
X137644473Y-104989671D01*
X134483492Y-101828690D01*
X148260000Y-101828690D01*
X148260000Y-102584250D01*
X148418750Y-102743000D01*
X149733000Y-102743000D01*
X149733000Y-101478750D01*
X149987000Y-101478750D01*
X149987000Y-102743000D01*
X151301250Y-102743000D01*
X151460000Y-102584250D01*
X151460000Y-101828690D01*
X151363327Y-101595301D01*
X151184698Y-101416673D01*
X150951309Y-101320000D01*
X150145750Y-101320000D01*
X149987000Y-101478750D01*
X149733000Y-101478750D01*
X149574250Y-101320000D01*
X148768691Y-101320000D01*
X148535302Y-101416673D01*
X148356673Y-101595301D01*
X148260000Y-101828690D01*
X134483492Y-101828690D01*
X128690331Y-96035530D01*
X128647929Y-95972071D01*
X128497440Y-95871517D01*
X128497440Y-95670000D01*
X148362560Y-95670000D01*
X148362560Y-97370000D01*
X148411843Y-97617765D01*
X148552191Y-97827809D01*
X148762235Y-97968157D01*
X149010000Y-98017440D01*
X150282639Y-98017440D01*
X156800001Y-104534804D01*
X156800000Y-111065643D01*
X156634136Y-111134346D01*
X156174346Y-111594136D01*
X155925510Y-112194880D01*
X155925510Y-112845120D01*
X156174346Y-113445864D01*
X156634136Y-113905654D01*
X157234880Y-114154490D01*
X157885120Y-114154490D01*
X158485864Y-113905654D01*
X158945654Y-113445864D01*
X159194490Y-112845120D01*
X159194490Y-112194880D01*
X158945654Y-111594136D01*
X158485864Y-111134346D01*
X158320000Y-111065643D01*
X158320000Y-104294846D01*
X158334888Y-104219999D01*
X158320000Y-104145152D01*
X158320000Y-104145148D01*
X158275904Y-103923463D01*
X158234102Y-103860902D01*
X158150329Y-103735526D01*
X158150327Y-103735524D01*
X158107929Y-103672071D01*
X158044476Y-103629673D01*
X152432242Y-98017440D01*
X153250000Y-98017440D01*
X153497765Y-97968157D01*
X153707809Y-97827809D01*
X153717902Y-97812703D01*
X161800001Y-105894803D01*
X161800000Y-111065643D01*
X161634136Y-111134346D01*
X161174346Y-111594136D01*
X160925510Y-112194880D01*
X160925510Y-112845120D01*
X161174346Y-113445864D01*
X161634136Y-113905654D01*
X162234880Y-114154490D01*
X162885120Y-114154490D01*
X163485864Y-113905654D01*
X163719355Y-113672163D01*
X166587443Y-113672163D01*
X166686042Y-113938965D01*
X167295582Y-114165401D01*
X167945377Y-114141341D01*
X168433958Y-113938965D01*
X168532557Y-113672163D01*
X167560000Y-112699605D01*
X166587443Y-113672163D01*
X163719355Y-113672163D01*
X163945654Y-113445864D01*
X164194490Y-112845120D01*
X164194490Y-112255582D01*
X165914599Y-112255582D01*
X165938659Y-112905377D01*
X166141035Y-113393958D01*
X166407837Y-113492557D01*
X167380395Y-112520000D01*
X167739605Y-112520000D01*
X168712163Y-113492557D01*
X168978965Y-113393958D01*
X169205401Y-112784418D01*
X169181341Y-112134623D01*
X168978965Y-111646042D01*
X168712163Y-111547443D01*
X167739605Y-112520000D01*
X167380395Y-112520000D01*
X166407837Y-111547443D01*
X166141035Y-111646042D01*
X165914599Y-112255582D01*
X164194490Y-112255582D01*
X164194490Y-112194880D01*
X163945654Y-111594136D01*
X163719355Y-111367837D01*
X166587443Y-111367837D01*
X167560000Y-112340395D01*
X168532557Y-111367837D01*
X168433958Y-111101035D01*
X167824418Y-110874599D01*
X167174623Y-110898659D01*
X166686042Y-111101035D01*
X166587443Y-111367837D01*
X163719355Y-111367837D01*
X163485864Y-111134346D01*
X163320000Y-111065643D01*
X163320000Y-105654847D01*
X163324574Y-105631849D01*
X173560000Y-105631849D01*
X173560000Y-106308151D01*
X173818810Y-106932973D01*
X174297027Y-107411190D01*
X174921849Y-107670000D01*
X175598151Y-107670000D01*
X176222973Y-107411190D01*
X176701190Y-106932973D01*
X176960000Y-106308151D01*
X176960000Y-105631849D01*
X176701190Y-105007027D01*
X176222973Y-104528810D01*
X175960283Y-104420000D01*
X176351309Y-104420000D01*
X176584698Y-104323327D01*
X176763327Y-104144699D01*
X176860000Y-103911310D01*
X176860000Y-103155750D01*
X176701250Y-102997000D01*
X175387000Y-102997000D01*
X175387000Y-103017000D01*
X175133000Y-103017000D01*
X175133000Y-102997000D01*
X173818750Y-102997000D01*
X173660000Y-103155750D01*
X173660000Y-103911310D01*
X173756673Y-104144699D01*
X173935302Y-104323327D01*
X174168691Y-104420000D01*
X174559717Y-104420000D01*
X174297027Y-104528810D01*
X173818810Y-105007027D01*
X173560000Y-105631849D01*
X163324574Y-105631849D01*
X163334888Y-105580000D01*
X163320000Y-105505153D01*
X163320000Y-105505148D01*
X163275904Y-105283463D01*
X163107929Y-105032071D01*
X163044473Y-104989671D01*
X159883492Y-101828690D01*
X173660000Y-101828690D01*
X173660000Y-102584250D01*
X173818750Y-102743000D01*
X175133000Y-102743000D01*
X175133000Y-101478750D01*
X175387000Y-101478750D01*
X175387000Y-102743000D01*
X176701250Y-102743000D01*
X176860000Y-102584250D01*
X176860000Y-101828690D01*
X176763327Y-101595301D01*
X176584698Y-101416673D01*
X176351309Y-101320000D01*
X175545750Y-101320000D01*
X175387000Y-101478750D01*
X175133000Y-101478750D01*
X174974250Y-101320000D01*
X174168691Y-101320000D01*
X173935302Y-101416673D01*
X173756673Y-101595301D01*
X173660000Y-101828690D01*
X159883492Y-101828690D01*
X154090331Y-96035530D01*
X154047929Y-95972071D01*
X153897440Y-95871517D01*
X153897440Y-95670000D01*
X153848157Y-95422235D01*
X153707809Y-95212191D01*
X153497765Y-95071843D01*
X153250000Y-95022560D01*
X151550000Y-95022560D01*
X151302235Y-95071843D01*
X151130000Y-95186928D01*
X150957765Y-95071843D01*
X150710000Y-95022560D01*
X149010000Y-95022560D01*
X148762235Y-95071843D01*
X148552191Y-95212191D01*
X148411843Y-95422235D01*
X148362560Y-95670000D01*
X128497440Y-95670000D01*
X128448157Y-95422235D01*
X128307809Y-95212191D01*
X128097765Y-95071843D01*
X127850000Y-95022560D01*
X126150000Y-95022560D01*
X125902235Y-95071843D01*
X125730000Y-95186928D01*
X125557765Y-95071843D01*
X125310000Y-95022560D01*
X123610000Y-95022560D01*
X123362235Y-95071843D01*
X123152191Y-95212191D01*
X123011843Y-95422235D01*
X122962560Y-95670000D01*
X122962560Y-95871517D01*
X122875526Y-95929671D01*
X122875524Y-95929673D01*
X122812071Y-95972071D01*
X122769673Y-96035524D01*
X111275528Y-107529671D01*
X111212072Y-107572071D01*
X111169672Y-107635527D01*
X111169671Y-107635528D01*
X111044097Y-107823463D01*
X110985112Y-108120000D01*
X111000001Y-108194852D01*
X111000000Y-111065643D01*
X110834136Y-111134346D01*
X110374346Y-111594136D01*
X110125510Y-112194880D01*
X108394490Y-112194880D01*
X108145654Y-111594136D01*
X107685864Y-111134346D01*
X107085120Y-110885510D01*
X106434880Y-110885510D01*
X105834136Y-111134346D01*
X105374346Y-111594136D01*
X105125510Y-112194880D01*
X105125510Y-112845120D01*
X105374346Y-113445864D01*
X105834136Y-113905654D01*
X106000000Y-113974357D01*
X106000001Y-116445197D01*
X104478302Y-117966897D01*
X104425439Y-117945000D01*
X103854561Y-117945000D01*
X103327138Y-118163466D01*
X102923466Y-118567138D01*
X102705000Y-119094561D01*
X100575000Y-119094561D01*
X100356534Y-118567138D01*
X99952862Y-118163466D01*
X99820000Y-118108433D01*
X99820000Y-115795264D01*
X100022973Y-115711190D01*
X100501190Y-115232973D01*
X100760000Y-114608151D01*
X100760000Y-113931849D01*
X100501190Y-113307027D01*
X100022973Y-112828810D01*
X99398151Y-112570000D01*
X98721849Y-112570000D01*
X98097027Y-112828810D01*
X97618810Y-113307027D01*
X97360000Y-113931849D01*
X92837000Y-113931849D01*
X92837000Y-105631849D01*
X97360000Y-105631849D01*
X97360000Y-106308151D01*
X97618810Y-106932973D01*
X98097027Y-107411190D01*
X98721849Y-107670000D01*
X99398151Y-107670000D01*
X100022973Y-107411190D01*
X100501190Y-106932973D01*
X100760000Y-106308151D01*
X100760000Y-105631849D01*
X100501190Y-105007027D01*
X100022973Y-104528810D01*
X99760283Y-104420000D01*
X100151309Y-104420000D01*
X100384698Y-104323327D01*
X100563327Y-104144699D01*
X100660000Y-103911310D01*
X100660000Y-103155750D01*
X100501250Y-102997000D01*
X99187000Y-102997000D01*
X99187000Y-103017000D01*
X98933000Y-103017000D01*
X98933000Y-102997000D01*
X97618750Y-102997000D01*
X97460000Y-103155750D01*
X97460000Y-103911310D01*
X97556673Y-104144699D01*
X97735302Y-104323327D01*
X97968691Y-104420000D01*
X98359717Y-104420000D01*
X98097027Y-104528810D01*
X97618810Y-105007027D01*
X97360000Y-105631849D01*
X92837000Y-105631849D01*
X92837000Y-101828690D01*
X97460000Y-101828690D01*
X97460000Y-102584250D01*
X97618750Y-102743000D01*
X98933000Y-102743000D01*
X98933000Y-101478750D01*
X99187000Y-101478750D01*
X99187000Y-102743000D01*
X100501250Y-102743000D01*
X100660000Y-102584250D01*
X100660000Y-101828690D01*
X100563327Y-101595301D01*
X100384698Y-101416673D01*
X100151309Y-101320000D01*
X99345750Y-101320000D01*
X99187000Y-101478750D01*
X98933000Y-101478750D01*
X98774250Y-101320000D01*
X97968691Y-101320000D01*
X97735302Y-101416673D01*
X97556673Y-101595301D01*
X97460000Y-101828690D01*
X92837000Y-101828690D01*
X92837000Y-88900000D01*
X94545000Y-88900000D01*
X94664107Y-89575490D01*
X95007062Y-90169506D01*
X95532500Y-90610400D01*
X96177045Y-90844995D01*
X96862955Y-90844995D01*
X97507500Y-90610400D01*
X98032938Y-90169506D01*
X98375893Y-89575490D01*
X98495000Y-88900000D01*
X175825000Y-88900000D01*
X175944107Y-89575490D01*
X176287062Y-90169506D01*
X176812500Y-90610400D01*
X177457045Y-90844995D01*
X178142955Y-90844995D01*
X178787500Y-90610400D01*
X179312938Y-90169506D01*
X179655893Y-89575490D01*
X179775000Y-88900000D01*
X179655893Y-88224510D01*
X179312938Y-87630494D01*
X178787500Y-87189600D01*
X178142955Y-86955005D01*
X177457045Y-86955005D01*
X176812500Y-87189600D01*
X176287062Y-87630494D01*
X175944107Y-88224510D01*
X175825000Y-88900000D01*
X98495000Y-88900000D01*
X98375893Y-88224510D01*
X98032938Y-87630494D01*
X97507500Y-87189600D01*
X96862955Y-86955005D01*
X96177045Y-86955005D01*
X95532500Y-87189600D01*
X95007062Y-87630494D01*
X94664107Y-88224510D01*
X94545000Y-88900000D01*
X92837000Y-88900000D01*
X92837000Y-85217000D01*
X181483000Y-85217000D01*
X181483000Y-128143000D01*
X181483000Y-128143000D01*
G37*
X181483000Y-128143000D02*
X92837000Y-128143000D01*
X92837000Y-124460000D01*
X94545000Y-124460000D01*
X94664107Y-125135490D01*
X95007062Y-125729506D01*
X95532500Y-126170400D01*
X96177045Y-126404995D01*
X96862955Y-126404995D01*
X97507500Y-126170400D01*
X98032938Y-125729506D01*
X98375893Y-125135490D01*
X98495000Y-124460000D01*
X98375893Y-123784510D01*
X98197631Y-123475750D01*
X135675000Y-123475750D01*
X135675000Y-124166310D01*
X135771673Y-124399699D01*
X135950302Y-124578327D01*
X136183691Y-124675000D01*
X136874250Y-124675000D01*
X137033000Y-124516250D01*
X137033000Y-123317000D01*
X135833750Y-123317000D01*
X135675000Y-123475750D01*
X98197631Y-123475750D01*
X98032938Y-123190494D01*
X97507500Y-122749600D01*
X96862955Y-122515005D01*
X96177045Y-122515005D01*
X95532500Y-122749600D01*
X95007062Y-123190494D01*
X94664107Y-123784510D01*
X94545000Y-124460000D01*
X92837000Y-124460000D01*
X92837000Y-122213690D01*
X135675000Y-122213690D01*
X135675000Y-122904250D01*
X135833750Y-123063000D01*
X137033000Y-123063000D01*
X137033000Y-121863750D01*
X136874250Y-121705000D01*
X136183691Y-121705000D01*
X135950302Y-121801673D01*
X135771673Y-121980301D01*
X135675000Y-122213690D01*
X92837000Y-122213690D01*
X92837000Y-113931849D01*
X97360000Y-113931849D01*
X97360000Y-114608151D01*
X97618810Y-115232973D01*
X98097027Y-115711190D01*
X98300000Y-115795264D01*
X98300001Y-118190603D01*
X97923466Y-118567138D01*
X97705000Y-119094561D01*
X97705000Y-119665439D01*
X97923466Y-120192862D01*
X98327138Y-120596534D01*
X98854561Y-120815000D01*
X99425439Y-120815000D01*
X99952862Y-120596534D01*
X100356534Y-120192862D01*
X100575000Y-119665439D01*
X100575000Y-119094561D01*
X102705000Y-119094561D01*
X102705000Y-119665439D01*
X102923466Y-120192862D01*
X103327138Y-120596534D01*
X103854561Y-120815000D01*
X104425439Y-120815000D01*
X104952862Y-120596534D01*
X105356534Y-120192862D01*
X105575000Y-119665439D01*
X105575000Y-119094561D01*
X105553103Y-119041698D01*
X107244473Y-117350329D01*
X107307929Y-117307929D01*
X107475904Y-117056537D01*
X107520000Y-116834852D01*
X107520000Y-116834848D01*
X107534888Y-116760000D01*
X107520000Y-116685152D01*
X107520000Y-113974357D01*
X107685864Y-113905654D01*
X108145654Y-113445864D01*
X108394490Y-112845120D01*
X108394490Y-112194880D01*
X110125510Y-112194880D01*
X110125510Y-112845120D01*
X110374346Y-113445864D01*
X110834136Y-113905654D01*
X111434880Y-114154490D01*
X112085120Y-114154490D01*
X112685864Y-113905654D01*
X112919355Y-113672163D01*
X115787443Y-113672163D01*
X115886042Y-113938965D01*
X116495582Y-114165401D01*
X117145377Y-114141341D01*
X117633958Y-113938965D01*
X117732557Y-113672163D01*
X116760000Y-112699605D01*
X115787443Y-113672163D01*
X112919355Y-113672163D01*
X113145654Y-113445864D01*
X113394490Y-112845120D01*
X113394490Y-112255582D01*
X115114599Y-112255582D01*
X115138659Y-112905377D01*
X115341035Y-113393958D01*
X115607837Y-113492557D01*
X116580395Y-112520000D01*
X116939605Y-112520000D01*
X117912163Y-113492557D01*
X118178965Y-113393958D01*
X118405401Y-112784418D01*
X118381341Y-112134623D01*
X118178965Y-111646042D01*
X117912163Y-111547443D01*
X116939605Y-112520000D01*
X116580395Y-112520000D01*
X115607837Y-111547443D01*
X115341035Y-111646042D01*
X115114599Y-112255582D01*
X113394490Y-112255582D01*
X113394490Y-112194880D01*
X113145654Y-111594136D01*
X112919355Y-111367837D01*
X115787443Y-111367837D01*
X116760000Y-112340395D01*
X117732557Y-111367837D01*
X117633958Y-111101035D01*
X117024418Y-110874599D01*
X116374623Y-110898659D01*
X115886042Y-111101035D01*
X115787443Y-111367837D01*
X112919355Y-111367837D01*
X112685864Y-111134346D01*
X112520000Y-111065643D01*
X112520000Y-108434801D01*
X115322952Y-105631849D01*
X122760000Y-105631849D01*
X122760000Y-106308151D01*
X123018810Y-106932973D01*
X123497027Y-107411190D01*
X124121849Y-107670000D01*
X124798151Y-107670000D01*
X125422973Y-107411190D01*
X125901190Y-106932973D01*
X126160000Y-106308151D01*
X126160000Y-105631849D01*
X125901190Y-105007027D01*
X125422973Y-104528810D01*
X125160283Y-104420000D01*
X125551309Y-104420000D01*
X125784698Y-104323327D01*
X125963327Y-104144699D01*
X126060000Y-103911310D01*
X126060000Y-103155750D01*
X125901250Y-102997000D01*
X124587000Y-102997000D01*
X124587000Y-103017000D01*
X124333000Y-103017000D01*
X124333000Y-102997000D01*
X123018750Y-102997000D01*
X122860000Y-103155750D01*
X122860000Y-103911310D01*
X122956673Y-104144699D01*
X123135302Y-104323327D01*
X123368691Y-104420000D01*
X123759717Y-104420000D01*
X123497027Y-104528810D01*
X123018810Y-105007027D01*
X122760000Y-105631849D01*
X115322952Y-105631849D01*
X119126111Y-101828690D01*
X122860000Y-101828690D01*
X122860000Y-102584250D01*
X123018750Y-102743000D01*
X124333000Y-102743000D01*
X124333000Y-101478750D01*
X124587000Y-101478750D01*
X124587000Y-102743000D01*
X125901250Y-102743000D01*
X126060000Y-102584250D01*
X126060000Y-101828690D01*
X125963327Y-101595301D01*
X125784698Y-101416673D01*
X125551309Y-101320000D01*
X124745750Y-101320000D01*
X124587000Y-101478750D01*
X124333000Y-101478750D01*
X124174250Y-101320000D01*
X123368691Y-101320000D01*
X123135302Y-101416673D01*
X122956673Y-101595301D01*
X122860000Y-101828690D01*
X119126111Y-101828690D01*
X123142098Y-97812704D01*
X123152191Y-97827809D01*
X123362235Y-97968157D01*
X123610000Y-98017440D01*
X125310000Y-98017440D01*
X125557765Y-97968157D01*
X125730000Y-97853072D01*
X125902235Y-97968157D01*
X126150000Y-98017440D01*
X127850000Y-98017440D01*
X128097765Y-97968157D01*
X128307809Y-97827809D01*
X128317902Y-97812703D01*
X136400001Y-105894803D01*
X136400000Y-111065643D01*
X136234136Y-111134346D01*
X135774346Y-111594136D01*
X135525510Y-112194880D01*
X135525510Y-112845120D01*
X135774346Y-113445864D01*
X135838482Y-113510000D01*
X134224802Y-113510000D01*
X133725787Y-113010985D01*
X133794490Y-112845120D01*
X133794490Y-112194880D01*
X133545654Y-111594136D01*
X133085864Y-111134346D01*
X132485120Y-110885510D01*
X131834880Y-110885510D01*
X131234136Y-111134346D01*
X130774346Y-111594136D01*
X130525510Y-112194880D01*
X130525510Y-112845120D01*
X130774346Y-113445864D01*
X130838482Y-113510000D01*
X125985264Y-113510000D01*
X125901190Y-113307027D01*
X125422973Y-112828810D01*
X124798151Y-112570000D01*
X124121849Y-112570000D01*
X123497027Y-112828810D01*
X123018810Y-113307027D01*
X122760000Y-113931849D01*
X122760000Y-114608151D01*
X123018810Y-115232973D01*
X123497027Y-115711190D01*
X124121849Y-115970000D01*
X124798151Y-115970000D01*
X125422973Y-115711190D01*
X125901190Y-115232973D01*
X125985264Y-115030000D01*
X131565199Y-115030000D01*
X138313659Y-121778461D01*
X138136309Y-121705000D01*
X137445750Y-121705000D01*
X137287000Y-121863750D01*
X137287000Y-123063000D01*
X137307000Y-123063000D01*
X137307000Y-123317000D01*
X137287000Y-123317000D01*
X137287000Y-124516250D01*
X137445750Y-124675000D01*
X138136309Y-124675000D01*
X138369698Y-124578327D01*
X138426975Y-124521051D01*
X138602235Y-124638157D01*
X138850000Y-124687440D01*
X140550000Y-124687440D01*
X140797765Y-124638157D01*
X140970000Y-124523072D01*
X141142235Y-124638157D01*
X141390000Y-124687440D01*
X143090000Y-124687440D01*
X143337765Y-124638157D01*
X143547809Y-124497809D01*
X143573072Y-124460000D01*
X175825000Y-124460000D01*
X175944107Y-125135490D01*
X176287062Y-125729506D01*
X176812500Y-126170400D01*
X177457045Y-126404995D01*
X178142955Y-126404995D01*
X178787500Y-126170400D01*
X179312938Y-125729506D01*
X179655893Y-125135490D01*
X179775000Y-124460000D01*
X179655893Y-123784510D01*
X179312938Y-123190494D01*
X178787500Y-122749600D01*
X178142955Y-122515005D01*
X177457045Y-122515005D01*
X176812500Y-122749600D01*
X176287062Y-123190494D01*
X175944107Y-123784510D01*
X175825000Y-124460000D01*
X143573072Y-124460000D01*
X143688157Y-124287765D01*
X143737440Y-124040000D01*
X143737440Y-123950000D01*
X166295153Y-123950000D01*
X166370000Y-123964888D01*
X166444847Y-123950000D01*
X166444852Y-123950000D01*
X166666537Y-123905904D01*
X166917929Y-123737929D01*
X166960331Y-123674470D01*
X173174473Y-117460329D01*
X173237929Y-117417929D01*
X173280329Y-117354473D01*
X173340742Y-117264059D01*
X174718876Y-115885926D01*
X174921849Y-115970000D01*
X175598151Y-115970000D01*
X176222973Y-115711190D01*
X176701190Y-115232973D01*
X176960000Y-114608151D01*
X176960000Y-113931849D01*
X176701190Y-113307027D01*
X176222973Y-112828810D01*
X175598151Y-112570000D01*
X174921849Y-112570000D01*
X174297027Y-112828810D01*
X173818810Y-113307027D01*
X173560000Y-113931849D01*
X173560000Y-114608151D01*
X173644074Y-114811124D01*
X172205530Y-116249669D01*
X172142071Y-116292071D01*
X172039262Y-116445936D01*
X166055199Y-122430000D01*
X143737440Y-122430000D01*
X143737440Y-122340000D01*
X143688157Y-122092235D01*
X143547809Y-121882191D01*
X143337765Y-121741843D01*
X143090000Y-121692560D01*
X141390000Y-121692560D01*
X141142235Y-121741843D01*
X140970000Y-121856928D01*
X140797765Y-121741843D01*
X140550000Y-121692560D01*
X140348483Y-121692560D01*
X140247929Y-121542071D01*
X140184473Y-121499671D01*
X133684919Y-115000117D01*
X133835148Y-115030000D01*
X133835152Y-115030000D01*
X133910000Y-115044888D01*
X133984848Y-115030000D01*
X148334736Y-115030000D01*
X148418810Y-115232973D01*
X148897027Y-115711190D01*
X149521849Y-115970000D01*
X150198151Y-115970000D01*
X150822973Y-115711190D01*
X151301190Y-115232973D01*
X151560000Y-114608151D01*
X151560000Y-113931849D01*
X151301190Y-113307027D01*
X150822973Y-112828810D01*
X150198151Y-112570000D01*
X149521849Y-112570000D01*
X148897027Y-112828810D01*
X148418810Y-113307027D01*
X148334736Y-113510000D01*
X143329608Y-113510000D01*
X143312164Y-113492556D01*
X143578965Y-113393958D01*
X143805401Y-112784418D01*
X143781341Y-112134623D01*
X143578965Y-111646042D01*
X143312163Y-111547443D01*
X142339605Y-112520000D01*
X142353748Y-112534142D01*
X142174142Y-112713748D01*
X142160000Y-112699605D01*
X142145858Y-112713748D01*
X141966252Y-112534142D01*
X141980395Y-112520000D01*
X141007837Y-111547443D01*
X140741035Y-111646042D01*
X140514599Y-112255582D01*
X140538659Y-112905377D01*
X140741035Y-113393958D01*
X141007836Y-113492556D01*
X140990392Y-113510000D01*
X138481518Y-113510000D01*
X138545654Y-113445864D01*
X138794490Y-112845120D01*
X138794490Y-112194880D01*
X138545654Y-111594136D01*
X138319355Y-111367837D01*
X141187443Y-111367837D01*
X142160000Y-112340395D01*
X143132557Y-111367837D01*
X143033958Y-111101035D01*
X142424418Y-110874599D01*
X141774623Y-110898659D01*
X141286042Y-111101035D01*
X141187443Y-111367837D01*
X138319355Y-111367837D01*
X138085864Y-111134346D01*
X137920000Y-111065643D01*
X137920000Y-105654847D01*
X137924574Y-105631849D01*
X148160000Y-105631849D01*
X148160000Y-106308151D01*
X148418810Y-106932973D01*
X148897027Y-107411190D01*
X149521849Y-107670000D01*
X150198151Y-107670000D01*
X150822973Y-107411190D01*
X151301190Y-106932973D01*
X151560000Y-106308151D01*
X151560000Y-105631849D01*
X151301190Y-105007027D01*
X150822973Y-104528810D01*
X150560283Y-104420000D01*
X150951309Y-104420000D01*
X151184698Y-104323327D01*
X151363327Y-104144699D01*
X151460000Y-103911310D01*
X151460000Y-103155750D01*
X151301250Y-102997000D01*
X149987000Y-102997000D01*
X149987000Y-103017000D01*
X149733000Y-103017000D01*
X149733000Y-102997000D01*
X148418750Y-102997000D01*
X148260000Y-103155750D01*
X148260000Y-103911310D01*
X148356673Y-104144699D01*
X148535302Y-104323327D01*
X148768691Y-104420000D01*
X149159717Y-104420000D01*
X148897027Y-104528810D01*
X148418810Y-105007027D01*
X148160000Y-105631849D01*
X137924574Y-105631849D01*
X137934888Y-105580000D01*
X137920000Y-105505153D01*
X137920000Y-105505148D01*
X137875904Y-105283463D01*
X137707929Y-105032071D01*
X137644473Y-104989671D01*
X134483492Y-101828690D01*
X148260000Y-101828690D01*
X148260000Y-102584250D01*
X148418750Y-102743000D01*
X149733000Y-102743000D01*
X149733000Y-101478750D01*
X149987000Y-101478750D01*
X149987000Y-102743000D01*
X151301250Y-102743000D01*
X151460000Y-102584250D01*
X151460000Y-101828690D01*
X151363327Y-101595301D01*
X151184698Y-101416673D01*
X150951309Y-101320000D01*
X150145750Y-101320000D01*
X149987000Y-101478750D01*
X149733000Y-101478750D01*
X149574250Y-101320000D01*
X148768691Y-101320000D01*
X148535302Y-101416673D01*
X148356673Y-101595301D01*
X148260000Y-101828690D01*
X134483492Y-101828690D01*
X128690331Y-96035530D01*
X128647929Y-95972071D01*
X128497440Y-95871517D01*
X128497440Y-95670000D01*
X148362560Y-95670000D01*
X148362560Y-97370000D01*
X148411843Y-97617765D01*
X148552191Y-97827809D01*
X148762235Y-97968157D01*
X149010000Y-98017440D01*
X150282639Y-98017440D01*
X156800001Y-104534804D01*
X156800000Y-111065643D01*
X156634136Y-111134346D01*
X156174346Y-111594136D01*
X155925510Y-112194880D01*
X155925510Y-112845120D01*
X156174346Y-113445864D01*
X156634136Y-113905654D01*
X157234880Y-114154490D01*
X157885120Y-114154490D01*
X158485864Y-113905654D01*
X158945654Y-113445864D01*
X159194490Y-112845120D01*
X159194490Y-112194880D01*
X158945654Y-111594136D01*
X158485864Y-111134346D01*
X158320000Y-111065643D01*
X158320000Y-104294846D01*
X158334888Y-104219999D01*
X158320000Y-104145152D01*
X158320000Y-104145148D01*
X158275904Y-103923463D01*
X158234102Y-103860902D01*
X158150329Y-103735526D01*
X158150327Y-103735524D01*
X158107929Y-103672071D01*
X158044476Y-103629673D01*
X152432242Y-98017440D01*
X153250000Y-98017440D01*
X153497765Y-97968157D01*
X153707809Y-97827809D01*
X153717902Y-97812703D01*
X161800001Y-105894803D01*
X161800000Y-111065643D01*
X161634136Y-111134346D01*
X161174346Y-111594136D01*
X160925510Y-112194880D01*
X160925510Y-112845120D01*
X161174346Y-113445864D01*
X161634136Y-113905654D01*
X162234880Y-114154490D01*
X162885120Y-114154490D01*
X163485864Y-113905654D01*
X163719355Y-113672163D01*
X166587443Y-113672163D01*
X166686042Y-113938965D01*
X167295582Y-114165401D01*
X167945377Y-114141341D01*
X168433958Y-113938965D01*
X168532557Y-113672163D01*
X167560000Y-112699605D01*
X166587443Y-113672163D01*
X163719355Y-113672163D01*
X163945654Y-113445864D01*
X164194490Y-112845120D01*
X164194490Y-112255582D01*
X165914599Y-112255582D01*
X165938659Y-112905377D01*
X166141035Y-113393958D01*
X166407837Y-113492557D01*
X167380395Y-112520000D01*
X167739605Y-112520000D01*
X168712163Y-113492557D01*
X168978965Y-113393958D01*
X169205401Y-112784418D01*
X169181341Y-112134623D01*
X168978965Y-111646042D01*
X168712163Y-111547443D01*
X167739605Y-112520000D01*
X167380395Y-112520000D01*
X166407837Y-111547443D01*
X166141035Y-111646042D01*
X165914599Y-112255582D01*
X164194490Y-112255582D01*
X164194490Y-112194880D01*
X163945654Y-111594136D01*
X163719355Y-111367837D01*
X166587443Y-111367837D01*
X167560000Y-112340395D01*
X168532557Y-111367837D01*
X168433958Y-111101035D01*
X167824418Y-110874599D01*
X167174623Y-110898659D01*
X166686042Y-111101035D01*
X166587443Y-111367837D01*
X163719355Y-111367837D01*
X163485864Y-111134346D01*
X163320000Y-111065643D01*
X163320000Y-105654847D01*
X163324574Y-105631849D01*
X173560000Y-105631849D01*
X173560000Y-106308151D01*
X173818810Y-106932973D01*
X174297027Y-107411190D01*
X174921849Y-107670000D01*
X175598151Y-107670000D01*
X176222973Y-107411190D01*
X176701190Y-106932973D01*
X176960000Y-106308151D01*
X176960000Y-105631849D01*
X176701190Y-105007027D01*
X176222973Y-104528810D01*
X175960283Y-104420000D01*
X176351309Y-104420000D01*
X176584698Y-104323327D01*
X176763327Y-104144699D01*
X176860000Y-103911310D01*
X176860000Y-103155750D01*
X176701250Y-102997000D01*
X175387000Y-102997000D01*
X175387000Y-103017000D01*
X175133000Y-103017000D01*
X175133000Y-102997000D01*
X173818750Y-102997000D01*
X173660000Y-103155750D01*
X173660000Y-103911310D01*
X173756673Y-104144699D01*
X173935302Y-104323327D01*
X174168691Y-104420000D01*
X174559717Y-104420000D01*
X174297027Y-104528810D01*
X173818810Y-105007027D01*
X173560000Y-105631849D01*
X163324574Y-105631849D01*
X163334888Y-105580000D01*
X163320000Y-105505153D01*
X163320000Y-105505148D01*
X163275904Y-105283463D01*
X163107929Y-105032071D01*
X163044473Y-104989671D01*
X159883492Y-101828690D01*
X173660000Y-101828690D01*
X173660000Y-102584250D01*
X173818750Y-102743000D01*
X175133000Y-102743000D01*
X175133000Y-101478750D01*
X175387000Y-101478750D01*
X175387000Y-102743000D01*
X176701250Y-102743000D01*
X176860000Y-102584250D01*
X176860000Y-101828690D01*
X176763327Y-101595301D01*
X176584698Y-101416673D01*
X176351309Y-101320000D01*
X175545750Y-101320000D01*
X175387000Y-101478750D01*
X175133000Y-101478750D01*
X174974250Y-101320000D01*
X174168691Y-101320000D01*
X173935302Y-101416673D01*
X173756673Y-101595301D01*
X173660000Y-101828690D01*
X159883492Y-101828690D01*
X154090331Y-96035530D01*
X154047929Y-95972071D01*
X153897440Y-95871517D01*
X153897440Y-95670000D01*
X153848157Y-95422235D01*
X153707809Y-95212191D01*
X153497765Y-95071843D01*
X153250000Y-95022560D01*
X151550000Y-95022560D01*
X151302235Y-95071843D01*
X151130000Y-95186928D01*
X150957765Y-95071843D01*
X150710000Y-95022560D01*
X149010000Y-95022560D01*
X148762235Y-95071843D01*
X148552191Y-95212191D01*
X148411843Y-95422235D01*
X148362560Y-95670000D01*
X128497440Y-95670000D01*
X128448157Y-95422235D01*
X128307809Y-95212191D01*
X128097765Y-95071843D01*
X127850000Y-95022560D01*
X126150000Y-95022560D01*
X125902235Y-95071843D01*
X125730000Y-95186928D01*
X125557765Y-95071843D01*
X125310000Y-95022560D01*
X123610000Y-95022560D01*
X123362235Y-95071843D01*
X123152191Y-95212191D01*
X123011843Y-95422235D01*
X122962560Y-95670000D01*
X122962560Y-95871517D01*
X122875526Y-95929671D01*
X122875524Y-95929673D01*
X122812071Y-95972071D01*
X122769673Y-96035524D01*
X111275528Y-107529671D01*
X111212072Y-107572071D01*
X111169672Y-107635527D01*
X111169671Y-107635528D01*
X111044097Y-107823463D01*
X110985112Y-108120000D01*
X111000001Y-108194852D01*
X111000000Y-111065643D01*
X110834136Y-111134346D01*
X110374346Y-111594136D01*
X110125510Y-112194880D01*
X108394490Y-112194880D01*
X108145654Y-111594136D01*
X107685864Y-111134346D01*
X107085120Y-110885510D01*
X106434880Y-110885510D01*
X105834136Y-111134346D01*
X105374346Y-111594136D01*
X105125510Y-112194880D01*
X105125510Y-112845120D01*
X105374346Y-113445864D01*
X105834136Y-113905654D01*
X106000000Y-113974357D01*
X106000001Y-116445197D01*
X104478302Y-117966897D01*
X104425439Y-117945000D01*
X103854561Y-117945000D01*
X103327138Y-118163466D01*
X102923466Y-118567138D01*
X102705000Y-119094561D01*
X100575000Y-119094561D01*
X100356534Y-118567138D01*
X99952862Y-118163466D01*
X99820000Y-118108433D01*
X99820000Y-115795264D01*
X100022973Y-115711190D01*
X100501190Y-115232973D01*
X100760000Y-114608151D01*
X100760000Y-113931849D01*
X100501190Y-113307027D01*
X100022973Y-112828810D01*
X99398151Y-112570000D01*
X98721849Y-112570000D01*
X98097027Y-112828810D01*
X97618810Y-113307027D01*
X97360000Y-113931849D01*
X92837000Y-113931849D01*
X92837000Y-105631849D01*
X97360000Y-105631849D01*
X97360000Y-106308151D01*
X97618810Y-106932973D01*
X98097027Y-107411190D01*
X98721849Y-107670000D01*
X99398151Y-107670000D01*
X100022973Y-107411190D01*
X100501190Y-106932973D01*
X100760000Y-106308151D01*
X100760000Y-105631849D01*
X100501190Y-105007027D01*
X100022973Y-104528810D01*
X99760283Y-104420000D01*
X100151309Y-104420000D01*
X100384698Y-104323327D01*
X100563327Y-104144699D01*
X100660000Y-103911310D01*
X100660000Y-103155750D01*
X100501250Y-102997000D01*
X99187000Y-102997000D01*
X99187000Y-103017000D01*
X98933000Y-103017000D01*
X98933000Y-102997000D01*
X97618750Y-102997000D01*
X97460000Y-103155750D01*
X97460000Y-103911310D01*
X97556673Y-104144699D01*
X97735302Y-104323327D01*
X97968691Y-104420000D01*
X98359717Y-104420000D01*
X98097027Y-104528810D01*
X97618810Y-105007027D01*
X97360000Y-105631849D01*
X92837000Y-105631849D01*
X92837000Y-101828690D01*
X97460000Y-101828690D01*
X97460000Y-102584250D01*
X97618750Y-102743000D01*
X98933000Y-102743000D01*
X98933000Y-101478750D01*
X99187000Y-101478750D01*
X99187000Y-102743000D01*
X100501250Y-102743000D01*
X100660000Y-102584250D01*
X100660000Y-101828690D01*
X100563327Y-101595301D01*
X100384698Y-101416673D01*
X100151309Y-101320000D01*
X99345750Y-101320000D01*
X99187000Y-101478750D01*
X98933000Y-101478750D01*
X98774250Y-101320000D01*
X97968691Y-101320000D01*
X97735302Y-101416673D01*
X97556673Y-101595301D01*
X97460000Y-101828690D01*
X92837000Y-101828690D01*
X92837000Y-88900000D01*
X94545000Y-88900000D01*
X94664107Y-89575490D01*
X95007062Y-90169506D01*
X95532500Y-90610400D01*
X96177045Y-90844995D01*
X96862955Y-90844995D01*
X97507500Y-90610400D01*
X98032938Y-90169506D01*
X98375893Y-89575490D01*
X98495000Y-88900000D01*
X175825000Y-88900000D01*
X175944107Y-89575490D01*
X176287062Y-90169506D01*
X176812500Y-90610400D01*
X177457045Y-90844995D01*
X178142955Y-90844995D01*
X178787500Y-90610400D01*
X179312938Y-90169506D01*
X179655893Y-89575490D01*
X179775000Y-88900000D01*
X179655893Y-88224510D01*
X179312938Y-87630494D01*
X178787500Y-87189600D01*
X178142955Y-86955005D01*
X177457045Y-86955005D01*
X176812500Y-87189600D01*
X176287062Y-87630494D01*
X175944107Y-88224510D01*
X175825000Y-88900000D01*
X98495000Y-88900000D01*
X98375893Y-88224510D01*
X98032938Y-87630494D01*
X97507500Y-87189600D01*
X96862955Y-86955005D01*
X96177045Y-86955005D01*
X95532500Y-87189600D01*
X95007062Y-87630494D01*
X94664107Y-88224510D01*
X94545000Y-88900000D01*
X92837000Y-88900000D01*
X92837000Y-85217000D01*
X181483000Y-85217000D01*
X181483000Y-128143000D01*
G04 #@! TD*
M02*
