G04 #@! TF.GenerationSoftware,KiCad,Pcbnew,(5.0.2)-1*
G04 #@! TF.CreationDate,2019-05-02T00:13:42-05:00*
G04 #@! TF.ProjectId,vcaControl,76636143-6f6e-4747-926f-6c2e6b696361,rev?*
G04 #@! TF.SameCoordinates,Original*
G04 #@! TF.FileFunction,Soldermask,Bot*
G04 #@! TF.FilePolarity,Negative*
%FSLAX46Y46*%
G04 Gerber Fmt 4.6, Leading zero omitted, Abs format (unit mm)*
G04 Created by KiCad (PCBNEW (5.0.2)-1) date 5/2/2019 12:13:42 AM*
%MOMM*%
%LPD*%
G01*
G04 APERTURE LIST*
%ADD10C,0.100000*%
G04 APERTURE END LIST*
D10*
G36*
X138010000Y-124040000D02*
X136310000Y-124040000D01*
X136310000Y-122340000D01*
X138010000Y-122340000D01*
X138010000Y-124040000D01*
X138010000Y-124040000D01*
G37*
G36*
X143090000Y-124040000D02*
X141390000Y-124040000D01*
X141390000Y-122340000D01*
X143090000Y-122340000D01*
X143090000Y-124040000D01*
X143090000Y-124040000D01*
G37*
G36*
X140550000Y-124040000D02*
X138850000Y-124040000D01*
X138850000Y-122340000D01*
X140550000Y-122340000D01*
X140550000Y-124040000D01*
X140550000Y-124040000D01*
G37*
G36*
X99373352Y-118610743D02*
X99518941Y-118671048D01*
X99649973Y-118758601D01*
X99761399Y-118870027D01*
X99848952Y-119001059D01*
X99909257Y-119146648D01*
X99940000Y-119301205D01*
X99940000Y-119458795D01*
X99909257Y-119613352D01*
X99848952Y-119758941D01*
X99761399Y-119889973D01*
X99649973Y-120001399D01*
X99518941Y-120088952D01*
X99373352Y-120149257D01*
X99218795Y-120180000D01*
X99061205Y-120180000D01*
X98906648Y-120149257D01*
X98761059Y-120088952D01*
X98630027Y-120001399D01*
X98518601Y-119889973D01*
X98431048Y-119758941D01*
X98370743Y-119613352D01*
X98340000Y-119458795D01*
X98340000Y-119301205D01*
X98370743Y-119146648D01*
X98431048Y-119001059D01*
X98518601Y-118870027D01*
X98630027Y-118758601D01*
X98761059Y-118671048D01*
X98906648Y-118610743D01*
X99061205Y-118580000D01*
X99218795Y-118580000D01*
X99373352Y-118610743D01*
X99373352Y-118610743D01*
G37*
G36*
X104373352Y-118610743D02*
X104518941Y-118671048D01*
X104649973Y-118758601D01*
X104761399Y-118870027D01*
X104848952Y-119001059D01*
X104909257Y-119146648D01*
X104940000Y-119301205D01*
X104940000Y-119458795D01*
X104909257Y-119613352D01*
X104848952Y-119758941D01*
X104761399Y-119889973D01*
X104649973Y-120001399D01*
X104518941Y-120088952D01*
X104373352Y-120149257D01*
X104218795Y-120180000D01*
X104061205Y-120180000D01*
X103906648Y-120149257D01*
X103761059Y-120088952D01*
X103630027Y-120001399D01*
X103518601Y-119889973D01*
X103431048Y-119758941D01*
X103370743Y-119613352D01*
X103340000Y-119458795D01*
X103340000Y-119301205D01*
X103370743Y-119146648D01*
X103431048Y-119001059D01*
X103518601Y-118870027D01*
X103630027Y-118758601D01*
X103761059Y-118671048D01*
X103906648Y-118610743D01*
X104061205Y-118580000D01*
X104218795Y-118580000D01*
X104373352Y-118610743D01*
X104373352Y-118610743D01*
G37*
G36*
X175447195Y-113221371D02*
X175570649Y-113245927D01*
X175764467Y-113326209D01*
X175938111Y-113442235D01*
X175938901Y-113442763D01*
X176087237Y-113591099D01*
X176087239Y-113591102D01*
X176203791Y-113765533D01*
X176284073Y-113959351D01*
X176325000Y-114165107D01*
X176325000Y-114374893D01*
X176284073Y-114580649D01*
X176203791Y-114774467D01*
X176087765Y-114948111D01*
X176087237Y-114948901D01*
X175938901Y-115097237D01*
X175938898Y-115097239D01*
X175764467Y-115213791D01*
X175570649Y-115294073D01*
X175447195Y-115318629D01*
X175364895Y-115335000D01*
X175155105Y-115335000D01*
X175072805Y-115318629D01*
X174949351Y-115294073D01*
X174755533Y-115213791D01*
X174581102Y-115097239D01*
X174581099Y-115097237D01*
X174432763Y-114948901D01*
X174432235Y-114948111D01*
X174316209Y-114774467D01*
X174235927Y-114580649D01*
X174195000Y-114374893D01*
X174195000Y-114165107D01*
X174235927Y-113959351D01*
X174316209Y-113765533D01*
X174432761Y-113591102D01*
X174432763Y-113591099D01*
X174581099Y-113442763D01*
X174581889Y-113442235D01*
X174755533Y-113326209D01*
X174949351Y-113245927D01*
X175072805Y-113221371D01*
X175155105Y-113205000D01*
X175364895Y-113205000D01*
X175447195Y-113221371D01*
X175447195Y-113221371D01*
G37*
G36*
X99247195Y-113221371D02*
X99370649Y-113245927D01*
X99564467Y-113326209D01*
X99738111Y-113442235D01*
X99738901Y-113442763D01*
X99887237Y-113591099D01*
X99887239Y-113591102D01*
X100003791Y-113765533D01*
X100084073Y-113959351D01*
X100125000Y-114165107D01*
X100125000Y-114374893D01*
X100084073Y-114580649D01*
X100003791Y-114774467D01*
X99887765Y-114948111D01*
X99887237Y-114948901D01*
X99738901Y-115097237D01*
X99738898Y-115097239D01*
X99564467Y-115213791D01*
X99370649Y-115294073D01*
X99247195Y-115318629D01*
X99164895Y-115335000D01*
X98955105Y-115335000D01*
X98872805Y-115318629D01*
X98749351Y-115294073D01*
X98555533Y-115213791D01*
X98381102Y-115097239D01*
X98381099Y-115097237D01*
X98232763Y-114948901D01*
X98232235Y-114948111D01*
X98116209Y-114774467D01*
X98035927Y-114580649D01*
X97995000Y-114374893D01*
X97995000Y-114165107D01*
X98035927Y-113959351D01*
X98116209Y-113765533D01*
X98232761Y-113591102D01*
X98232763Y-113591099D01*
X98381099Y-113442763D01*
X98381889Y-113442235D01*
X98555533Y-113326209D01*
X98749351Y-113245927D01*
X98872805Y-113221371D01*
X98955105Y-113205000D01*
X99164895Y-113205000D01*
X99247195Y-113221371D01*
X99247195Y-113221371D01*
G37*
G36*
X150047195Y-113221371D02*
X150170649Y-113245927D01*
X150364467Y-113326209D01*
X150538111Y-113442235D01*
X150538901Y-113442763D01*
X150687237Y-113591099D01*
X150687239Y-113591102D01*
X150803791Y-113765533D01*
X150884073Y-113959351D01*
X150925000Y-114165107D01*
X150925000Y-114374893D01*
X150884073Y-114580649D01*
X150803791Y-114774467D01*
X150687765Y-114948111D01*
X150687237Y-114948901D01*
X150538901Y-115097237D01*
X150538898Y-115097239D01*
X150364467Y-115213791D01*
X150170649Y-115294073D01*
X150047195Y-115318629D01*
X149964895Y-115335000D01*
X149755105Y-115335000D01*
X149672805Y-115318629D01*
X149549351Y-115294073D01*
X149355533Y-115213791D01*
X149181102Y-115097239D01*
X149181099Y-115097237D01*
X149032763Y-114948901D01*
X149032235Y-114948111D01*
X148916209Y-114774467D01*
X148835927Y-114580649D01*
X148795000Y-114374893D01*
X148795000Y-114165107D01*
X148835927Y-113959351D01*
X148916209Y-113765533D01*
X149032761Y-113591102D01*
X149032763Y-113591099D01*
X149181099Y-113442763D01*
X149181889Y-113442235D01*
X149355533Y-113326209D01*
X149549351Y-113245927D01*
X149672805Y-113221371D01*
X149755105Y-113205000D01*
X149964895Y-113205000D01*
X150047195Y-113221371D01*
X150047195Y-113221371D01*
G37*
G36*
X124647195Y-113221371D02*
X124770649Y-113245927D01*
X124964467Y-113326209D01*
X125138111Y-113442235D01*
X125138901Y-113442763D01*
X125287237Y-113591099D01*
X125287239Y-113591102D01*
X125403791Y-113765533D01*
X125484073Y-113959351D01*
X125525000Y-114165107D01*
X125525000Y-114374893D01*
X125484073Y-114580649D01*
X125403791Y-114774467D01*
X125287765Y-114948111D01*
X125287237Y-114948901D01*
X125138901Y-115097237D01*
X125138898Y-115097239D01*
X124964467Y-115213791D01*
X124770649Y-115294073D01*
X124647195Y-115318629D01*
X124564895Y-115335000D01*
X124355105Y-115335000D01*
X124272805Y-115318629D01*
X124149351Y-115294073D01*
X123955533Y-115213791D01*
X123781102Y-115097239D01*
X123781099Y-115097237D01*
X123632763Y-114948901D01*
X123632235Y-114948111D01*
X123516209Y-114774467D01*
X123435927Y-114580649D01*
X123395000Y-114374893D01*
X123395000Y-114165107D01*
X123435927Y-113959351D01*
X123516209Y-113765533D01*
X123632761Y-113591102D01*
X123632763Y-113591099D01*
X123781099Y-113442763D01*
X123781889Y-113442235D01*
X123955533Y-113326209D01*
X124149351Y-113245927D01*
X124272805Y-113221371D01*
X124355105Y-113205000D01*
X124564895Y-113205000D01*
X124647195Y-113221371D01*
X124647195Y-113221371D01*
G37*
G36*
X112051538Y-111558919D02*
X112233437Y-111634264D01*
X112397141Y-111743648D01*
X112536352Y-111882859D01*
X112645736Y-112046563D01*
X112721081Y-112228462D01*
X112759490Y-112421557D01*
X112759490Y-112618443D01*
X112721081Y-112811538D01*
X112645736Y-112993437D01*
X112536352Y-113157141D01*
X112397141Y-113296352D01*
X112233437Y-113405736D01*
X112051538Y-113481081D01*
X111858443Y-113519490D01*
X111661557Y-113519490D01*
X111468462Y-113481081D01*
X111286563Y-113405736D01*
X111122859Y-113296352D01*
X110983648Y-113157141D01*
X110874264Y-112993437D01*
X110798919Y-112811538D01*
X110760510Y-112618443D01*
X110760510Y-112421557D01*
X110798919Y-112228462D01*
X110874264Y-112046563D01*
X110983648Y-111882859D01*
X111122859Y-111743648D01*
X111286563Y-111634264D01*
X111468462Y-111558919D01*
X111661557Y-111520510D01*
X111858443Y-111520510D01*
X112051538Y-111558919D01*
X112051538Y-111558919D01*
G37*
G36*
X142451538Y-111558919D02*
X142633437Y-111634264D01*
X142797141Y-111743648D01*
X142936352Y-111882859D01*
X143045736Y-112046563D01*
X143121081Y-112228462D01*
X143159490Y-112421557D01*
X143159490Y-112618443D01*
X143121081Y-112811538D01*
X143045736Y-112993437D01*
X142936352Y-113157141D01*
X142797141Y-113296352D01*
X142633437Y-113405736D01*
X142451538Y-113481081D01*
X142258443Y-113519490D01*
X142061557Y-113519490D01*
X141868462Y-113481081D01*
X141686563Y-113405736D01*
X141522859Y-113296352D01*
X141383648Y-113157141D01*
X141274264Y-112993437D01*
X141198919Y-112811538D01*
X141160510Y-112618443D01*
X141160510Y-112421557D01*
X141198919Y-112228462D01*
X141274264Y-112046563D01*
X141383648Y-111882859D01*
X141522859Y-111743648D01*
X141686563Y-111634264D01*
X141868462Y-111558919D01*
X142061557Y-111520510D01*
X142258443Y-111520510D01*
X142451538Y-111558919D01*
X142451538Y-111558919D01*
G37*
G36*
X132451538Y-111558919D02*
X132633437Y-111634264D01*
X132797141Y-111743648D01*
X132936352Y-111882859D01*
X133045736Y-112046563D01*
X133121081Y-112228462D01*
X133159490Y-112421557D01*
X133159490Y-112618443D01*
X133121081Y-112811538D01*
X133045736Y-112993437D01*
X132936352Y-113157141D01*
X132797141Y-113296352D01*
X132633437Y-113405736D01*
X132451538Y-113481081D01*
X132258443Y-113519490D01*
X132061557Y-113519490D01*
X131868462Y-113481081D01*
X131686563Y-113405736D01*
X131522859Y-113296352D01*
X131383648Y-113157141D01*
X131274264Y-112993437D01*
X131198919Y-112811538D01*
X131160510Y-112618443D01*
X131160510Y-112421557D01*
X131198919Y-112228462D01*
X131274264Y-112046563D01*
X131383648Y-111882859D01*
X131522859Y-111743648D01*
X131686563Y-111634264D01*
X131868462Y-111558919D01*
X132061557Y-111520510D01*
X132258443Y-111520510D01*
X132451538Y-111558919D01*
X132451538Y-111558919D01*
G37*
G36*
X107051538Y-111558919D02*
X107233437Y-111634264D01*
X107397141Y-111743648D01*
X107536352Y-111882859D01*
X107645736Y-112046563D01*
X107721081Y-112228462D01*
X107759490Y-112421557D01*
X107759490Y-112618443D01*
X107721081Y-112811538D01*
X107645736Y-112993437D01*
X107536352Y-113157141D01*
X107397141Y-113296352D01*
X107233437Y-113405736D01*
X107051538Y-113481081D01*
X106858443Y-113519490D01*
X106661557Y-113519490D01*
X106468462Y-113481081D01*
X106286563Y-113405736D01*
X106122859Y-113296352D01*
X105983648Y-113157141D01*
X105874264Y-112993437D01*
X105798919Y-112811538D01*
X105760510Y-112618443D01*
X105760510Y-112421557D01*
X105798919Y-112228462D01*
X105874264Y-112046563D01*
X105983648Y-111882859D01*
X106122859Y-111743648D01*
X106286563Y-111634264D01*
X106468462Y-111558919D01*
X106661557Y-111520510D01*
X106858443Y-111520510D01*
X107051538Y-111558919D01*
X107051538Y-111558919D01*
G37*
G36*
X167851538Y-111558919D02*
X168033437Y-111634264D01*
X168197141Y-111743648D01*
X168336352Y-111882859D01*
X168445736Y-112046563D01*
X168521081Y-112228462D01*
X168559490Y-112421557D01*
X168559490Y-112618443D01*
X168521081Y-112811538D01*
X168445736Y-112993437D01*
X168336352Y-113157141D01*
X168197141Y-113296352D01*
X168033437Y-113405736D01*
X167851538Y-113481081D01*
X167658443Y-113519490D01*
X167461557Y-113519490D01*
X167268462Y-113481081D01*
X167086563Y-113405736D01*
X166922859Y-113296352D01*
X166783648Y-113157141D01*
X166674264Y-112993437D01*
X166598919Y-112811538D01*
X166560510Y-112618443D01*
X166560510Y-112421557D01*
X166598919Y-112228462D01*
X166674264Y-112046563D01*
X166783648Y-111882859D01*
X166922859Y-111743648D01*
X167086563Y-111634264D01*
X167268462Y-111558919D01*
X167461557Y-111520510D01*
X167658443Y-111520510D01*
X167851538Y-111558919D01*
X167851538Y-111558919D01*
G37*
G36*
X157851538Y-111558919D02*
X158033437Y-111634264D01*
X158197141Y-111743648D01*
X158336352Y-111882859D01*
X158445736Y-112046563D01*
X158521081Y-112228462D01*
X158559490Y-112421557D01*
X158559490Y-112618443D01*
X158521081Y-112811538D01*
X158445736Y-112993437D01*
X158336352Y-113157141D01*
X158197141Y-113296352D01*
X158033437Y-113405736D01*
X157851538Y-113481081D01*
X157658443Y-113519490D01*
X157461557Y-113519490D01*
X157268462Y-113481081D01*
X157086563Y-113405736D01*
X156922859Y-113296352D01*
X156783648Y-113157141D01*
X156674264Y-112993437D01*
X156598919Y-112811538D01*
X156560510Y-112618443D01*
X156560510Y-112421557D01*
X156598919Y-112228462D01*
X156674264Y-112046563D01*
X156783648Y-111882859D01*
X156922859Y-111743648D01*
X157086563Y-111634264D01*
X157268462Y-111558919D01*
X157461557Y-111520510D01*
X157658443Y-111520510D01*
X157851538Y-111558919D01*
X157851538Y-111558919D01*
G37*
G36*
X117051538Y-111558919D02*
X117233437Y-111634264D01*
X117397141Y-111743648D01*
X117536352Y-111882859D01*
X117645736Y-112046563D01*
X117721081Y-112228462D01*
X117759490Y-112421557D01*
X117759490Y-112618443D01*
X117721081Y-112811538D01*
X117645736Y-112993437D01*
X117536352Y-113157141D01*
X117397141Y-113296352D01*
X117233437Y-113405736D01*
X117051538Y-113481081D01*
X116858443Y-113519490D01*
X116661557Y-113519490D01*
X116468462Y-113481081D01*
X116286563Y-113405736D01*
X116122859Y-113296352D01*
X115983648Y-113157141D01*
X115874264Y-112993437D01*
X115798919Y-112811538D01*
X115760510Y-112618443D01*
X115760510Y-112421557D01*
X115798919Y-112228462D01*
X115874264Y-112046563D01*
X115983648Y-111882859D01*
X116122859Y-111743648D01*
X116286563Y-111634264D01*
X116468462Y-111558919D01*
X116661557Y-111520510D01*
X116858443Y-111520510D01*
X117051538Y-111558919D01*
X117051538Y-111558919D01*
G37*
G36*
X137451538Y-111558919D02*
X137633437Y-111634264D01*
X137797141Y-111743648D01*
X137936352Y-111882859D01*
X138045736Y-112046563D01*
X138121081Y-112228462D01*
X138159490Y-112421557D01*
X138159490Y-112618443D01*
X138121081Y-112811538D01*
X138045736Y-112993437D01*
X137936352Y-113157141D01*
X137797141Y-113296352D01*
X137633437Y-113405736D01*
X137451538Y-113481081D01*
X137258443Y-113519490D01*
X137061557Y-113519490D01*
X136868462Y-113481081D01*
X136686563Y-113405736D01*
X136522859Y-113296352D01*
X136383648Y-113157141D01*
X136274264Y-112993437D01*
X136198919Y-112811538D01*
X136160510Y-112618443D01*
X136160510Y-112421557D01*
X136198919Y-112228462D01*
X136274264Y-112046563D01*
X136383648Y-111882859D01*
X136522859Y-111743648D01*
X136686563Y-111634264D01*
X136868462Y-111558919D01*
X137061557Y-111520510D01*
X137258443Y-111520510D01*
X137451538Y-111558919D01*
X137451538Y-111558919D01*
G37*
G36*
X162851538Y-111558919D02*
X163033437Y-111634264D01*
X163197141Y-111743648D01*
X163336352Y-111882859D01*
X163445736Y-112046563D01*
X163521081Y-112228462D01*
X163559490Y-112421557D01*
X163559490Y-112618443D01*
X163521081Y-112811538D01*
X163445736Y-112993437D01*
X163336352Y-113157141D01*
X163197141Y-113296352D01*
X163033437Y-113405736D01*
X162851538Y-113481081D01*
X162658443Y-113519490D01*
X162461557Y-113519490D01*
X162268462Y-113481081D01*
X162086563Y-113405736D01*
X161922859Y-113296352D01*
X161783648Y-113157141D01*
X161674264Y-112993437D01*
X161598919Y-112811538D01*
X161560510Y-112618443D01*
X161560510Y-112421557D01*
X161598919Y-112228462D01*
X161674264Y-112046563D01*
X161783648Y-111882859D01*
X161922859Y-111743648D01*
X162086563Y-111634264D01*
X162268462Y-111558919D01*
X162461557Y-111520510D01*
X162658443Y-111520510D01*
X162851538Y-111558919D01*
X162851538Y-111558919D01*
G37*
G36*
X124647195Y-104921371D02*
X124770649Y-104945927D01*
X124964467Y-105026209D01*
X125138111Y-105142235D01*
X125138901Y-105142763D01*
X125287237Y-105291099D01*
X125287239Y-105291102D01*
X125403791Y-105465533D01*
X125484073Y-105659351D01*
X125525000Y-105865107D01*
X125525000Y-106074893D01*
X125484073Y-106280649D01*
X125403791Y-106474467D01*
X125287765Y-106648111D01*
X125287237Y-106648901D01*
X125138901Y-106797237D01*
X125138898Y-106797239D01*
X124964467Y-106913791D01*
X124770649Y-106994073D01*
X124647195Y-107018629D01*
X124564895Y-107035000D01*
X124355105Y-107035000D01*
X124272805Y-107018629D01*
X124149351Y-106994073D01*
X123955533Y-106913791D01*
X123781102Y-106797239D01*
X123781099Y-106797237D01*
X123632763Y-106648901D01*
X123632235Y-106648111D01*
X123516209Y-106474467D01*
X123435927Y-106280649D01*
X123395000Y-106074893D01*
X123395000Y-105865107D01*
X123435927Y-105659351D01*
X123516209Y-105465533D01*
X123632761Y-105291102D01*
X123632763Y-105291099D01*
X123781099Y-105142763D01*
X123781889Y-105142235D01*
X123955533Y-105026209D01*
X124149351Y-104945927D01*
X124272805Y-104921371D01*
X124355105Y-104905000D01*
X124564895Y-104905000D01*
X124647195Y-104921371D01*
X124647195Y-104921371D01*
G37*
G36*
X150047195Y-104921371D02*
X150170649Y-104945927D01*
X150364467Y-105026209D01*
X150538111Y-105142235D01*
X150538901Y-105142763D01*
X150687237Y-105291099D01*
X150687239Y-105291102D01*
X150803791Y-105465533D01*
X150884073Y-105659351D01*
X150925000Y-105865107D01*
X150925000Y-106074893D01*
X150884073Y-106280649D01*
X150803791Y-106474467D01*
X150687765Y-106648111D01*
X150687237Y-106648901D01*
X150538901Y-106797237D01*
X150538898Y-106797239D01*
X150364467Y-106913791D01*
X150170649Y-106994073D01*
X150047195Y-107018629D01*
X149964895Y-107035000D01*
X149755105Y-107035000D01*
X149672805Y-107018629D01*
X149549351Y-106994073D01*
X149355533Y-106913791D01*
X149181102Y-106797239D01*
X149181099Y-106797237D01*
X149032763Y-106648901D01*
X149032235Y-106648111D01*
X148916209Y-106474467D01*
X148835927Y-106280649D01*
X148795000Y-106074893D01*
X148795000Y-105865107D01*
X148835927Y-105659351D01*
X148916209Y-105465533D01*
X149032761Y-105291102D01*
X149032763Y-105291099D01*
X149181099Y-105142763D01*
X149181889Y-105142235D01*
X149355533Y-105026209D01*
X149549351Y-104945927D01*
X149672805Y-104921371D01*
X149755105Y-104905000D01*
X149964895Y-104905000D01*
X150047195Y-104921371D01*
X150047195Y-104921371D01*
G37*
G36*
X175447195Y-104921371D02*
X175570649Y-104945927D01*
X175764467Y-105026209D01*
X175938111Y-105142235D01*
X175938901Y-105142763D01*
X176087237Y-105291099D01*
X176087239Y-105291102D01*
X176203791Y-105465533D01*
X176284073Y-105659351D01*
X176325000Y-105865107D01*
X176325000Y-106074893D01*
X176284073Y-106280649D01*
X176203791Y-106474467D01*
X176087765Y-106648111D01*
X176087237Y-106648901D01*
X175938901Y-106797237D01*
X175938898Y-106797239D01*
X175764467Y-106913791D01*
X175570649Y-106994073D01*
X175447195Y-107018629D01*
X175364895Y-107035000D01*
X175155105Y-107035000D01*
X175072805Y-107018629D01*
X174949351Y-106994073D01*
X174755533Y-106913791D01*
X174581102Y-106797239D01*
X174581099Y-106797237D01*
X174432763Y-106648901D01*
X174432235Y-106648111D01*
X174316209Y-106474467D01*
X174235927Y-106280649D01*
X174195000Y-106074893D01*
X174195000Y-105865107D01*
X174235927Y-105659351D01*
X174316209Y-105465533D01*
X174432761Y-105291102D01*
X174432763Y-105291099D01*
X174581099Y-105142763D01*
X174581889Y-105142235D01*
X174755533Y-105026209D01*
X174949351Y-104945927D01*
X175072805Y-104921371D01*
X175155105Y-104905000D01*
X175364895Y-104905000D01*
X175447195Y-104921371D01*
X175447195Y-104921371D01*
G37*
G36*
X99247195Y-104921371D02*
X99370649Y-104945927D01*
X99564467Y-105026209D01*
X99738111Y-105142235D01*
X99738901Y-105142763D01*
X99887237Y-105291099D01*
X99887239Y-105291102D01*
X100003791Y-105465533D01*
X100084073Y-105659351D01*
X100125000Y-105865107D01*
X100125000Y-106074893D01*
X100084073Y-106280649D01*
X100003791Y-106474467D01*
X99887765Y-106648111D01*
X99887237Y-106648901D01*
X99738901Y-106797237D01*
X99738898Y-106797239D01*
X99564467Y-106913791D01*
X99370649Y-106994073D01*
X99247195Y-107018629D01*
X99164895Y-107035000D01*
X98955105Y-107035000D01*
X98872805Y-107018629D01*
X98749351Y-106994073D01*
X98555533Y-106913791D01*
X98381102Y-106797239D01*
X98381099Y-106797237D01*
X98232763Y-106648901D01*
X98232235Y-106648111D01*
X98116209Y-106474467D01*
X98035927Y-106280649D01*
X97995000Y-106074893D01*
X97995000Y-105865107D01*
X98035927Y-105659351D01*
X98116209Y-105465533D01*
X98232761Y-105291102D01*
X98232763Y-105291099D01*
X98381099Y-105142763D01*
X98381889Y-105142235D01*
X98555533Y-105026209D01*
X98749351Y-104945927D01*
X98872805Y-104921371D01*
X98955105Y-104905000D01*
X99164895Y-104905000D01*
X99247195Y-104921371D01*
X99247195Y-104921371D01*
G37*
G36*
X150825000Y-103785000D02*
X148895000Y-103785000D01*
X148895000Y-101955000D01*
X150825000Y-101955000D01*
X150825000Y-103785000D01*
X150825000Y-103785000D01*
G37*
G36*
X100025000Y-103785000D02*
X98095000Y-103785000D01*
X98095000Y-101955000D01*
X100025000Y-101955000D01*
X100025000Y-103785000D01*
X100025000Y-103785000D01*
G37*
G36*
X125425000Y-103785000D02*
X123495000Y-103785000D01*
X123495000Y-101955000D01*
X125425000Y-101955000D01*
X125425000Y-103785000D01*
X125425000Y-103785000D01*
G37*
G36*
X176225000Y-103785000D02*
X174295000Y-103785000D01*
X174295000Y-101955000D01*
X176225000Y-101955000D01*
X176225000Y-103785000D01*
X176225000Y-103785000D01*
G37*
G36*
X127850000Y-97370000D02*
X126150000Y-97370000D01*
X126150000Y-95670000D01*
X127850000Y-95670000D01*
X127850000Y-97370000D01*
X127850000Y-97370000D01*
G37*
G36*
X153250000Y-97370000D02*
X151550000Y-97370000D01*
X151550000Y-95670000D01*
X153250000Y-95670000D01*
X153250000Y-97370000D01*
X153250000Y-97370000D01*
G37*
G36*
X125310000Y-97370000D02*
X123610000Y-97370000D01*
X123610000Y-95670000D01*
X125310000Y-95670000D01*
X125310000Y-97370000D01*
X125310000Y-97370000D01*
G37*
G36*
X150710000Y-97370000D02*
X149010000Y-97370000D01*
X149010000Y-95670000D01*
X150710000Y-95670000D01*
X150710000Y-97370000D01*
X150710000Y-97370000D01*
G37*
M02*
