M48
;DRILL file {KiCad (5.0.2)-1} date 5/2/2019 12:13:49 AM
;FORMAT={-:-/ absolute / inch / decimal}
FMAT,2
INCH,TZ
T1C0.0315
T2C0.0394
T3C0.0480
T4C0.0512
T5C0.0559
T6C0.0563
%
G90
G05
T1
X3.9031Y-4.7
X4.1Y-4.7
T2
X5.4Y-4.85
X6.Y-3.8
X4.9Y-3.8
X5.9Y-3.8
X5.5Y-4.85
X5.Y-3.8
X5.6Y-4.85
T3
X6.9Y-4.05
X4.9Y-4.05
X3.9Y-4.05
X5.9Y-4.05
T4
X6.2031Y-4.4299
X6.4Y-4.4299
X6.5969Y-4.4299
X5.2031Y-4.4299
X5.4Y-4.4299
X5.5969Y-4.4299
X4.2031Y-4.4299
X4.4Y-4.4299
X4.5969Y-4.4299
T5
X6.9Y-4.172
X4.9Y-4.172
X3.9Y-4.172
X5.9Y-4.172
T6
X6.9Y-4.4988
X4.9Y-4.4988
X3.9Y-4.4988
X5.9Y-4.4988
T0
M30
