<?xml version="1.0" encoding="utf-8"?>
<!-- Generator: Adobe Illustrator 16.0.0, SVG Export Plug-In . SVG Version: 6.00 Build 0)  -->
<!DOCTYPE svg PUBLIC "-//W3C//DTD SVG 1.1//EN" "http://www.w3.org/Graphics/SVG/1.1/DTD/svg11.dtd">
<svg version="1.1" id="Layer_1" xmlns="http://www.w3.org/2000/svg" xmlns:xlink="http://www.w3.org/1999/xlink" x="0px" y="0px"
	 width="155.906px" height="56.693px" viewBox="0 0 155.906 56.693" enable-background="new 0 0 155.906 56.693"
	 xml:space="preserve">
<g>
	<polygon fill="none" stroke="#000000" stroke-linecap="round" stroke-linejoin="round" points="23.54,51.248 7.489,41.982 
		7.489,37.349 23.539,46.615 23.539,41.982 11.501,35.035 7.489,28.083 7.489,23.45 11.501,21.132 27.551,30.4 27.551,35.033 
		11.501,25.766 11.5,30.4 23.539,37.349 27.553,43.14 27.553,48.931 	"/>
	<polygon fill="none" stroke="#000000" stroke-linecap="round" stroke-linejoin="round" points="51.619,37.349 47.605,44.298 
		31.556,53.564 31.556,30.398 47.605,21.132 51.617,23.449 51.619,28.083 49.615,31.558 51.619,32.716 	"/>
	<polygon fill="none" stroke="#000000" stroke-linecap="round" stroke-linejoin="round" points="47.605,30.398 35.568,37.349 
		35.568,32.716 47.605,25.765 	"/>
	<polygon fill="none" stroke="#000000" stroke-linecap="round" stroke-linejoin="round" points="47.605,39.666 35.57,46.615 
		35.57,41.982 47.605,35.033 	"/>
	<polyline fill="none" stroke="#00A651" stroke-linecap="round" stroke-linejoin="round" points="21.531,21.132 21.531,16.5 
		29.569,16.492 29.557,11.867 37.582,11.867 37.582,7.233 	"/>
	<polyline fill="none" stroke="#00AEEF" stroke-linecap="round" stroke-linejoin="round" points="29.592,25.765 33.568,23.449 
		29.592,21.132 33.568,18.816 37.63,21.125 41.593,18.816 37.617,16.5 41.593,14.183 45.642,16.5 49.619,14.182 45.642,11.867 	"/>
	<path fill="none" stroke="#000000" stroke-linecap="round" stroke-linejoin="round" d="M9.494,16.505"/>
	<path fill="none" stroke="#ED1C24" stroke-linecap="round" stroke-linejoin="round" d="M32.662,3.128"/>
	<path fill="none" stroke="#ED1C24" stroke-linecap="round" stroke-linejoin="round" d="M15.502,13.037
		c-2-1.165,1.977-3.482,4.019-2.32"/>
	<path fill="none" stroke="#ED1C24" stroke-linecap="round" stroke-linejoin="round" d="M19.521,10.716
		c2.02,1.148,5.982-1.162,4.005-2.313"/>
	<path fill="none" stroke="#ED1C24" stroke-linecap="round" stroke-linejoin="round" d="M23.525,8.404
		c-1.999-1.166,1.978-3.482,4.013-2.318"/>
	<path fill="none" stroke="#ED1C24" stroke-linecap="round" stroke-linejoin="round" d="M27.538,6.085
		c2.015,1.152,5.991-1.164,4.028-2.325"/>
	<path fill="none" stroke="#ED1C24" stroke-linecap="round" stroke-linejoin="round" d="M15.502,13.037
		c1.977,1.15-2,3.467-3.996,2.307"/>
</g>
<text transform="matrix(1 0 0 1 61.0415 24.5815)" font-family="'ISOCTEUR'" font-size="23.9864">SYNTH</text>
<text transform="matrix(1 0 0 1 61.0415 47.6147)" font-family="'ISOCTEUR'" font-size="23.9864">BLOKS</text>
</svg>
