<?xml version="1.0" encoding="utf-8"?>
<!-- Generator: Adobe Illustrator 16.0.0, SVG Export Plug-In . SVG Version: 6.00 Build 0)  -->
<!DOCTYPE svg PUBLIC "-//W3C//DTD SVG 1.1//EN" "http://www.w3.org/Graphics/SVG/1.1/DTD/svg11.dtd">
<svg version="1.1" id="Layer_1" xmlns="http://www.w3.org/2000/svg" xmlns:xlink="http://www.w3.org/1999/xlink" x="0px" y="0px"
	 width="56.693px" height="56.693px" viewBox="0 0 56.693 56.693" enable-background="new 0 0 56.693 56.693" xml:space="preserve">
<polygon fill="#231F20" stroke="#000000" stroke-linecap="round" stroke-linejoin="round" points="22.333,51.248 6.282,41.982 
	6.282,37.349 22.332,46.615 22.332,41.982 10.294,35.035 6.282,28.083 6.282,23.45 10.294,21.132 26.344,30.4 26.344,35.033 
	10.294,25.766 10.293,30.4 22.332,37.349 26.346,43.14 26.346,48.931 "/>
<path fill="#231F20" stroke="#000000" stroke-linecap="round" stroke-linejoin="round" d="M50.412,28.083l-0.002-4.634l-4.012-2.317
	l-16.049,9.267v23.166l16.049-9.267l4.014-6.948v-4.634l-2.004-1.157L50.412,28.083z M46.398,39.666l-12.035,6.949v-4.633
	l12.035-6.949V39.666z M46.398,30.398l-12.037,6.951v-4.634l12.037-6.95V30.398z"/>
<polyline fill="none" stroke="#00A651" stroke-linecap="round" stroke-linejoin="round" points="20.324,21.132 20.324,16.5 
	28.362,16.492 28.35,11.867 36.375,11.867 36.375,7.233 "/>
<polyline fill="none" stroke="#00AEEF" stroke-linecap="round" stroke-linejoin="round" points="28.385,25.765 32.361,23.449 
	28.385,21.132 32.361,18.816 36.423,21.125 40.386,18.816 36.41,16.5 40.386,14.183 44.435,16.5 48.412,14.182 44.435,11.867 "/>
<path fill="none" stroke="#000000" stroke-linecap="round" stroke-linejoin="round" d="M8.287,16.505"/>
<path fill="none" stroke="#ED1C24" stroke-linecap="round" stroke-linejoin="round" d="M31.455,3.128"/>
<path fill="none" stroke="#ED1C24" stroke-linecap="round" stroke-linejoin="round" d="M14.295,13.037
	c-2-1.165,1.978-3.481,4.02-2.32"/>
<path fill="none" stroke="#ED1C24" stroke-linecap="round" stroke-linejoin="round" d="M18.313,10.716
	c2.02,1.148,5.981-1.161,4.005-2.313"/>
<path fill="none" stroke="#ED1C24" stroke-linecap="round" stroke-linejoin="round" d="M22.318,8.404
	c-1.999-1.166,1.978-3.482,4.013-2.318"/>
<path fill="none" stroke="#ED1C24" stroke-linecap="round" stroke-linejoin="round" d="M26.331,6.085
	c2.016,1.152,5.991-1.164,4.028-2.325"/>
<path fill="none" stroke="#ED1C24" stroke-linecap="round" stroke-linejoin="round" d="M14.295,13.037
	c1.978,1.15-2,3.467-3.996,2.307"/>
</svg>
